%TF.GenerationSoftware,KiCad,Pcbnew,10.0.5-10.0.5~ubuntu24.04.1*%
%TF.CreationDate,2026-09-15T12:25:00-05:00*%
%TF.ProjectId,ORCA-BOARD,4f524341-2d42-44f4-9152-442e6b696361,rev?*%
%TF.SameCoordinates,Original*%
%TF.FileFunction,Copper,L4,Bot*%
%TF.FilePolarity,Positive*%
%FSLAX46Y46*%
G04 Gerber Fmt 4.6, Leading zero omitted, Abs format (unit mm)*
G04 Created by KiCad (PCBNEW 10.0.5-10.0.5~ubuntu24.04.1) date 2026-09-15 12:25:00*
%MOMM*%
%LPD*%
G01*
G04 APERTURE LIST*
G04 Aperture macros list*
%AMRoundRect*
0 Rectangle with rounded corners*
0 $1 Rounding radius*
0 $2 $3 $4 $5 $6 $7 $8 $9 X,Y pos of 4 corners*
0 Add a 4 corners polygon primitive as box body*
4,1,4,$2,$3,$4,$5,$6,$7,$8,$9,$2,$3,0*
0 Add four circle primitives for the rounded corners*
1,1,$1+$1,$2,$3*
1,1,$1+$1,$4,$5*
1,1,$1+$1,$6,$7*
1,1,$1+$1,$8,$9*
0 Add four rect primitives between the rounded corners*
20,1,$1+$1,$2,$3,$4,$5,0*
20,1,$1+$1,$4,$5,$6,$7,0*
20,1,$1+$1,$6,$7,$8,$9,0*
20,1,$1+$1,$8,$9,$2,$3,0*%
G04 Aperture macros list end*
%TA.AperFunction,ComponentPad*%
%ADD10RoundRect,1.500000X1.500000X1.500000X-1.500000X1.500000X-1.500000X-1.500000X1.500000X-1.500000X0*%
%TD*%
%TA.AperFunction,ComponentPad*%
%ADD11C,6.000000*%
%TD*%
%TA.AperFunction,ComponentPad*%
%ADD12RoundRect,0.250000X0.750000X-0.600000X0.750000X0.600000X-0.750000X0.600000X-0.750000X-0.600000X0*%
%TD*%
%TA.AperFunction,ComponentPad*%
%ADD13O,2.000000X1.700000*%
%TD*%
%TA.AperFunction,HeatsinkPad*%
%ADD14C,0.600000*%
%TD*%
%TA.AperFunction,ComponentPad*%
%ADD15RoundRect,0.249999X0.850001X-0.850001X0.850001X0.850001X-0.850001X0.850001X-0.850001X-0.850001X0*%
%TD*%
%TA.AperFunction,ComponentPad*%
%ADD16C,2.200000*%
%TD*%
%TA.AperFunction,ComponentPad*%
%ADD17RoundRect,0.250000X0.725000X-0.600000X0.725000X0.600000X-0.725000X0.600000X-0.725000X-0.600000X0*%
%TD*%
%TA.AperFunction,ComponentPad*%
%ADD18O,1.950000X1.700000*%
%TD*%
%TA.AperFunction,ComponentPad*%
%ADD19R,1.700000X1.700000*%
%TD*%
%TA.AperFunction,ComponentPad*%
%ADD20C,1.700000*%
%TD*%
%TA.AperFunction,ComponentPad*%
%ADD21O,2.100000X1.000000*%
%TD*%
%TA.AperFunction,ComponentPad*%
%ADD22O,1.800000X1.000000*%
%TD*%
%TA.AperFunction,ComponentPad*%
%ADD23RoundRect,0.250000X-0.615000X0.265000X-0.615000X-0.265000X0.615000X-0.265000X0.615000X0.265000X0*%
%TD*%
%TA.AperFunction,ComponentPad*%
%ADD24O,1.730000X1.030000*%
%TD*%
%TA.AperFunction,ComponentPad*%
%ADD25C,3.200000*%
%TD*%
%TA.AperFunction,ComponentPad*%
%ADD26C,1.778000*%
%TD*%
%TA.AperFunction,ComponentPad*%
%ADD27RoundRect,0.249999X-0.850001X0.850001X-0.850001X-0.850001X0.850001X-0.850001X0.850001X0.850001X0*%
%TD*%
%TA.AperFunction,ViaPad*%
%ADD28C,0.450000*%
%TD*%
%TA.AperFunction,ViaPad*%
%ADD29C,0.600000*%
%TD*%
%TA.AperFunction,Conductor*%
%ADD30C,0.800000*%
%TD*%
%TA.AperFunction,Conductor*%
%ADD31C,0.300000*%
%TD*%
%TA.AperFunction,Conductor*%
%ADD32C,0.200000*%
%TD*%
%TA.AperFunction,Conductor*%
%ADD33C,0.400000*%
%TD*%
%TA.AperFunction,Conductor*%
%ADD34C,0.500000*%
%TD*%
%TA.AperFunction,Conductor*%
%ADD35C,0.140000*%
%TD*%
%TA.AperFunction,Conductor*%
%ADD36C,0.180000*%
%TD*%
%TA.AperFunction,Conductor*%
%ADD37C,0.220000*%
%TD*%
%TA.AperFunction,Conductor*%
%ADD38C,0.260000*%
%TD*%
G04 APERTURE END LIST*
D10*
%TO.P,J20,1,Pin_1_1*%
%TO.N,GND*%
X71450000Y-45875000D03*
D11*
%TO.P,J20,2,Pin_2_2*%
%TO.N,VM*%
X64250000Y-45875000D03*
%TD*%
D12*
%TO.P,J5,1,Pin_1_1*%
%TO.N,/UART_1_Tx*%
X54525000Y-46900000D03*
D13*
%TO.P,J5,2,Pin_2_2*%
%TO.N,/UART_1_Rx*%
X54525000Y-44400000D03*
%TD*%
D14*
%TO.P,U2,41,GND_41*%
%TO.N,GND*%
X39250000Y-49120000D03*
X39250000Y-50520000D03*
X39950000Y-48420000D03*
X39950000Y-49820000D03*
X39950000Y-51220000D03*
X40650000Y-49120000D03*
X40650000Y-50520000D03*
X41350000Y-48420000D03*
X41350000Y-49820000D03*
X41350000Y-51220000D03*
X42050000Y-49120000D03*
X42050000Y-50520000D03*
%TD*%
D15*
%TO.P,J4,1,Pin_1_1*%
%TO.N,/Driver1/OUT1*%
X93875000Y-99675000D03*
D16*
%TO.P,J4,2,Pin_2_2*%
%TO.N,/Driver1/OUT2*%
X93875000Y-97135000D03*
%TD*%
D17*
%TO.P,J17,1,Pin_1_1*%
%TO.N,GND*%
X69246667Y-106545000D03*
D18*
%TO.P,J17,2,Pin_2_2*%
%TO.N,+3V3*%
X69246667Y-104045000D03*
%TO.P,J17,3,Pin_3_3*%
%TO.N,/I2C_SDA_CH3*%
X69246667Y-101545000D03*
%TO.P,J17,4,Pin_4_4*%
%TO.N,/I2C_SCL_CH3*%
X69246667Y-99045000D03*
%TD*%
D19*
%TO.P,J7,1,Pin_1_1*%
%TO.N,GND*%
X38115000Y-102695000D03*
D20*
%TO.P,J7,2,Pin_2_2*%
%TO.N,/5V_SERVOS*%
X38115000Y-105235000D03*
%TO.P,J7,3,Pin_3_3*%
%TO.N,/MuxServos/pwm2*%
X38115000Y-107775000D03*
%TD*%
D17*
%TO.P,J14,1,Pin_1_1*%
%TO.N,GND*%
X62813333Y-106545000D03*
D18*
%TO.P,J14,2,Pin_2_2*%
%TO.N,/5V*%
X62813333Y-104045000D03*
%TO.P,J14,3,Pin_3_3*%
%TO.N,/I2C_SDA_CH0*%
X62813333Y-101545000D03*
%TO.P,J14,4,Pin_4_4*%
%TO.N,/I2C_SCL_CH0*%
X62813333Y-99045000D03*
%TD*%
D19*
%TO.P,J10,1,Pin_1_1*%
%TO.N,GND*%
X51885000Y-102695000D03*
D20*
%TO.P,J10,2,Pin_2_2*%
%TO.N,/5V_SERVOS*%
X51885000Y-105235000D03*
%TO.P,J10,3,Pin_3_3*%
%TO.N,/MuxServos/pwm5*%
X51885000Y-107775000D03*
%TD*%
D21*
%TO.P,J1,SH,SHIELD_SH*%
%TO.N,GND*%
X19580000Y-61180000D03*
D22*
X15400000Y-61180000D03*
D21*
X19580000Y-69820000D03*
D22*
X15400000Y-69820000D03*
%TD*%
D10*
%TO.P,J19,1,Pin_1_1*%
%TO.N,GND*%
X91900000Y-45875000D03*
D11*
%TO.P,J19,2,Pin_2_2*%
%TO.N,VBUS*%
X84700000Y-45875000D03*
%TD*%
D19*
%TO.P,J9,1,Pin_1_1*%
%TO.N,GND*%
X47295000Y-102695000D03*
D20*
%TO.P,J9,2,Pin_2_2*%
%TO.N,/5V_SERVOS*%
X47295000Y-105235000D03*
%TO.P,J9,3,Pin_3_3*%
%TO.N,/MuxServos/pwm4*%
X47295000Y-107775000D03*
%TD*%
D17*
%TO.P,J15,1,Pin_1_1*%
%TO.N,GND*%
X56380000Y-106545000D03*
D18*
%TO.P,J15,2,Pin_2_2*%
%TO.N,/5V*%
X56380000Y-104045000D03*
%TO.P,J15,3,Pin_3_3*%
%TO.N,/I2C_SDA_CH1*%
X56380000Y-101545000D03*
%TO.P,J15,4,Pin_4_4*%
%TO.N,/I2C_SCL_CH1*%
X56380000Y-99045000D03*
%TD*%
D19*
%TO.P,J8,1,Pin_1_1*%
%TO.N,GND*%
X42705000Y-102695000D03*
D20*
%TO.P,J8,2,Pin_2_2*%
%TO.N,/5V_SERVOS*%
X42705000Y-105235000D03*
%TO.P,J8,3,Pin_3_3*%
%TO.N,/MuxServos/pwm3*%
X42705000Y-107775000D03*
%TD*%
D19*
%TO.P,J6,1,Pin_1_1*%
%TO.N,GND*%
X33525000Y-102695000D03*
D20*
%TO.P,J6,2,Pin_2_2*%
%TO.N,/5V_SERVOS*%
X33525000Y-105235000D03*
%TO.P,J6,3,Pin_3_3*%
%TO.N,/MuxServos/pwm1*%
X33525000Y-107775000D03*
%TD*%
D23*
%TO.P,J2,1,Pin_1_1*%
%TO.N,Net-(J2-Pin_1)*%
X15310000Y-52310000D03*
D24*
%TO.P,J2,2,Pin_2_2*%
%TO.N,Net-(J2-Pin_2)*%
X15310000Y-53810000D03*
%TD*%
D25*
%TO.P,U1,*%
%TO.N,*%
X58560000Y-85190000D03*
X58560000Y-67410000D03*
X38240000Y-85190000D03*
X38240000Y-67410000D03*
D26*
%TO.P,U1,1,VIN_1*%
%TO.N,+3V3*%
X54750000Y-67410000D03*
%TO.P,U1,2,3Vo_2*%
%TO.N,unconnected-(U1-3Vo-Pad2)*%
X52210000Y-67410000D03*
%TO.P,U1,3,GND_3*%
%TO.N,GND*%
X49670000Y-67410000D03*
%TO.P,U1,4,SCL_4*%
%TO.N,/OB_I2C_SCL*%
X47130000Y-67410000D03*
%TO.P,U1,5,SDA_5*%
%TO.N,/OB_I2C_SDA*%
X44590000Y-67410000D03*
%TO.P,U1,6,INT_6*%
%TO.N,unconnected-(U1-INT-Pad6)*%
X42050000Y-67410000D03*
%TO.P,U1,7,~{BT}_7*%
%TO.N,unconnected-(U1-~{BT}-Pad7)*%
X54750000Y-85190000D03*
%TO.P,U1,8,P0_8*%
%TO.N,unconnected-(U1-P0-Pad8)*%
X52210000Y-85190000D03*
%TO.P,U1,9,P1_9*%
%TO.N,unconnected-(U1-P1-Pad9)*%
X49670000Y-85190000D03*
%TO.P,U1,10,~{RST}_10*%
%TO.N,unconnected-(U1-~{RST}-Pad10)*%
X47130000Y-85190000D03*
%TO.P,U1,11,DI_11*%
%TO.N,unconnected-(U1-DI-Pad11)*%
X44590000Y-85190000D03*
%TO.P,U1,12,~{CS}_12*%
%TO.N,unconnected-(U1-~{CS}-Pad12)*%
X42050000Y-85190000D03*
%TD*%
D27*
%TO.P,J3,1,Pin_1_1*%
%TO.N,/Driver/OUT1*%
X18307500Y-82605000D03*
D16*
%TO.P,J3,2,Pin_2_2*%
%TO.N,/Driver/OUT2*%
X18307500Y-85145000D03*
%TD*%
D17*
%TO.P,J16,1,Pin_1_1*%
%TO.N,GND*%
X75680000Y-106545000D03*
D18*
%TO.P,J16,2,Pin_2_2*%
%TO.N,+3V3*%
X75680000Y-104045000D03*
%TO.P,J16,3,Pin_3_3*%
%TO.N,/I2C_SDA_CH2*%
X75680000Y-101545000D03*
%TO.P,J16,4,Pin_4_4*%
%TO.N,/I2C_SCL_CH2*%
X75680000Y-99045000D03*
%TD*%
D28*
%TO.N,+3V3*%
X57800000Y-87600000D03*
X56200000Y-78250000D03*
X33400000Y-43400000D03*
%TO.N,/5V*%
X93300000Y-72800000D03*
X93300000Y-74200000D03*
X78900000Y-84800000D03*
X66800000Y-96900000D03*
%TO.N,/5V_SERVOS*%
X69600000Y-77300000D03*
X53800000Y-93000000D03*
%TO.N,VM*%
X37300000Y-96700000D03*
X64200000Y-83900000D03*
%TO.N,/OB_I2C_SDA*%
X32000000Y-56700000D03*
X32000000Y-59300000D03*
%TO.N,+3V3*%
X58300000Y-52300000D03*
X29200000Y-46400000D03*
X86400000Y-106000000D03*
X55400000Y-54600000D03*
X73800000Y-76700000D03*
X25600000Y-53500000D03*
X25800000Y-76000000D03*
X62200000Y-83700000D03*
X53800000Y-91000000D03*
%TO.N,GND*%
X40100000Y-89900000D03*
X33400000Y-42100000D03*
X30800000Y-46400000D03*
X25500000Y-47800000D03*
X14800000Y-47300000D03*
X21700000Y-51000000D03*
X24800000Y-58200000D03*
X34300000Y-66700000D03*
X27300000Y-66700000D03*
X24700000Y-67900000D03*
X91800000Y-89200000D03*
X64100000Y-86500000D03*
X62700000Y-93300000D03*
X26800000Y-86800000D03*
X85600000Y-95400000D03*
X38000000Y-95600000D03*
X69400000Y-93300000D03*
X55500000Y-56300000D03*
X73700000Y-89100000D03*
X61700000Y-58600000D03*
X50900000Y-42100000D03*
%TO.N,/OB_I2C_SCL*%
X40600000Y-81500000D03*
X40800000Y-80100000D03*
X38700000Y-58600000D03*
%TO.N,/DRV2_PMode*%
X40200000Y-71000000D03*
X38100000Y-81600000D03*
%TO.N,/EXT_I2C_RST*%
X63500000Y-94400000D03*
X63500000Y-91600000D03*
X61000000Y-80100000D03*
X63400000Y-66400000D03*
%TO.N,/5VUSB*%
X71500000Y-76500000D03*
X52900000Y-80800000D03*
X39300000Y-80800000D03*
X38100000Y-80800000D03*
X28700000Y-73600000D03*
X27900000Y-72800000D03*
%TO.N,/EXT_I2C_SDA*%
X62800000Y-67400000D03*
X57100000Y-55700000D03*
%TO.N,/DRV1_PMode*%
X39400000Y-58400000D03*
X26800000Y-77200000D03*
%TO.N,/DRV1_IN2*%
X26700000Y-68600000D03*
X31900000Y-52000000D03*
%TO.N,/EXT_I2C_SCL*%
X57900000Y-61700000D03*
X57100000Y-60900000D03*
D29*
%TO.N,GND*%
X19107500Y-93045000D03*
X70525000Y-54400000D03*
X72612500Y-80087500D03*
X21157500Y-88045000D03*
X21657500Y-78445000D03*
X84975000Y-52850000D03*
X91275000Y-94175000D03*
X90775000Y-103775000D03*
X24407500Y-109995000D03*
X90662500Y-56687500D03*
X94062500Y-56687500D03*
%TD*%
%TO.N,+3V3*%
D30*
X53600000Y-65700000D02*
X50700000Y-65700000D01*
X56200000Y-68300000D02*
X53600000Y-65700000D01*
X56200000Y-78250000D02*
X56200000Y-68300000D01*
X50700000Y-65700000D02*
X33400000Y-48400000D01*
X33400000Y-48400000D02*
X33400000Y-43400000D01*
%TO.N,/5VUSB*%
D31*
X69300000Y-76500000D02*
X65000000Y-80800000D01*
X71500000Y-76500000D02*
X69300000Y-76500000D01*
X65000000Y-80800000D02*
X52900000Y-80800000D01*
%TO.N,+3V3*%
D32*
X57700000Y-83300000D02*
X59300000Y-83300000D01*
X56600000Y-84400000D02*
X57700000Y-83300000D01*
D30*
X57200000Y-87600000D02*
X56600000Y-88200000D01*
X57800000Y-87600000D02*
X57200000Y-87600000D01*
%TO.N,/5V*%
D31*
X93300000Y-74200000D02*
X93300000Y-72800000D01*
X62800000Y-104000000D02*
X56400000Y-104000000D01*
X66800000Y-96900000D02*
X78900000Y-84800000D01*
%TO.N,/5V_SERVOS*%
D33*
X60000000Y-86900000D02*
X69600000Y-77300000D01*
X59900000Y-86900000D02*
X60000000Y-86900000D01*
X53800000Y-93000000D02*
X59900000Y-86900000D01*
%TO.N,VM*%
D34*
X51400000Y-96700000D02*
X37300000Y-96700000D01*
X64200000Y-83900000D02*
X51400000Y-96700000D01*
%TO.N,/OB_I2C_SDA*%
D32*
X32000000Y-59300000D02*
X32000000Y-56700000D01*
%TO.N,+3V3*%
X56600000Y-88200000D02*
X56600000Y-84400000D01*
D31*
X57700000Y-52300000D02*
X58300000Y-52300000D01*
X55400000Y-54600000D02*
X57700000Y-52300000D01*
D32*
X59900000Y-83700000D02*
X62200000Y-83700000D01*
X59800000Y-83600000D02*
X59900000Y-83700000D01*
X59700000Y-83600000D02*
X59800000Y-83600000D01*
X59500000Y-83400000D02*
X59700000Y-83600000D01*
X59400000Y-83400000D02*
X59500000Y-83400000D01*
X59300000Y-83300000D02*
X59400000Y-83400000D01*
D35*
X56511612Y-88288388D02*
X56600000Y-88200000D01*
D36*
X56423223Y-88376777D02*
X56511612Y-88288388D01*
D37*
X56334835Y-88465165D02*
X56423223Y-88376777D01*
%TO.N,/OB_I2C_SCL*%
D32*
X40600000Y-80300000D02*
X40600000Y-81500000D01*
X40800000Y-80100000D02*
X40600000Y-80300000D01*
X38700000Y-58600000D02*
X47100000Y-67000000D01*
%TO.N,/DRV2_PMode*%
X40200000Y-80700000D02*
X40200000Y-71000000D01*
X39400000Y-81500000D02*
X40200000Y-80700000D01*
X38200000Y-81500000D02*
X39400000Y-81500000D01*
X38100000Y-81600000D02*
X38200000Y-81500000D01*
%TO.N,/EXT_I2C_RST*%
X63400000Y-77700000D02*
X61000000Y-80100000D01*
X63400000Y-66400000D02*
X63400000Y-77700000D01*
X63500000Y-91600000D02*
X63500000Y-94400000D01*
%TO.N,/5VUSB*%
D31*
X38100000Y-80800000D02*
X39300000Y-80800000D01*
X27900000Y-72800000D02*
X28700000Y-73600000D01*
%TO.N,/EXT_I2C_SDA*%
D32*
X62800000Y-61400000D02*
X62800000Y-67400000D01*
X57100000Y-55700000D02*
X62800000Y-61400000D01*
%TO.N,/DRV1_PMode*%
X26800000Y-69700000D02*
X38600000Y-57900000D01*
X26800000Y-77200000D02*
X26800000Y-69700000D01*
X39000000Y-58000000D02*
X39400000Y-58400000D01*
X38900000Y-58000000D02*
X39000000Y-58000000D01*
X38800000Y-57900000D02*
X38900000Y-58000000D01*
X38600000Y-57900000D02*
X38800000Y-57900000D01*
%TO.N,/DRV1_IN2*%
X26700000Y-57200000D02*
X26700000Y-68600000D01*
X31900000Y-52000000D02*
X26700000Y-57200000D01*
%TO.N,/EXT_I2C_SCL*%
X57100000Y-60900000D02*
X57900000Y-61700000D01*
%TO.N,+3V3*%
D38*
X56246447Y-88553553D02*
X56334835Y-88465165D01*
D31*
X53800000Y-91000000D02*
X56246447Y-88553553D01*
%TD*%
M02*
