%TF.GenerationSoftware,KiCad,Pcbnew,10.0.5-10.0.5~ubuntu24.04.1*%
%TF.CreationDate,2026-09-15T12:25:09-05:00*%
%TF.ProjectId,ORCA-BOARD,4f524341-2d42-44f4-9152-442e6b696361,rev?*%
%TF.SameCoordinates,Original*%
%TF.FileFunction,Plated,1,4,PTH,Mixed*%
%TF.FilePolarity,Positive*%
%FSLAX46Y46*%
G04 Gerber Fmt 4.6, Leading zero omitted, Abs format (unit mm)*
G04 Created by KiCad (PCBNEW 10.0.5-10.0.5~ubuntu24.04.1) date 2026-09-15 12:25:09*
%MOMM*%
%LPD*%
G01*
G04 APERTURE LIST*
%TA.AperFunction,ViaDrill*%
%ADD10C,0.200000*%
%TD*%
%TA.AperFunction,ComponentDrill*%
%ADD11C,0.200000*%
%TD*%
%TA.AperFunction,ViaDrill*%
%ADD12C,0.300000*%
%TD*%
G04 aperture for slot hole*
%TA.AperFunction,ComponentDrill*%
%ADD13C,0.600000*%
%TD*%
%TA.AperFunction,ComponentDrill*%
%ADD14C,0.730000*%
%TD*%
%TA.AperFunction,ComponentDrill*%
%ADD15C,0.950000*%
%TD*%
%TA.AperFunction,ComponentDrill*%
%ADD16C,1.000000*%
%TD*%
%TA.AperFunction,ComponentDrill*%
%ADD17C,1.100000*%
%TD*%
%TA.AperFunction,ComponentDrill*%
%ADD18C,2.500000*%
%TD*%
%TA.AperFunction,ComponentDrill*%
%ADD19C,4.500000*%
%TD*%
G04 APERTURE END LIST*
D10*
X14800000Y-47300000D03*
X21700000Y-51000000D03*
X24700000Y-67900000D03*
X24800000Y-58200000D03*
X25500000Y-47800000D03*
X25600000Y-53500000D03*
X25800000Y-76000000D03*
X26700000Y-68600000D03*
X26800000Y-77200000D03*
X26800000Y-86800000D03*
X27300000Y-66700000D03*
X27900000Y-72800000D03*
X28700000Y-73600000D03*
X29200000Y-46400000D03*
X30800000Y-46400000D03*
X31900000Y-52000000D03*
X32000000Y-56700000D03*
X32000000Y-59300000D03*
X33400000Y-42100000D03*
X33400000Y-43400000D03*
X34300000Y-66700000D03*
X37300000Y-96700000D03*
X38000000Y-95600000D03*
X38100000Y-80800000D03*
X38100000Y-81600000D03*
X38700000Y-58600000D03*
X39300000Y-80800000D03*
X39400000Y-58400000D03*
X40100000Y-89900000D03*
X40200000Y-71000000D03*
X40600000Y-81500000D03*
X40800000Y-80100000D03*
X50900000Y-42100000D03*
X52900000Y-80800000D03*
X53800000Y-91000000D03*
X53800000Y-93000000D03*
X55400000Y-54600000D03*
X55500000Y-56300000D03*
X56200000Y-78250000D03*
X57100000Y-55700000D03*
X57100000Y-60900000D03*
X57800000Y-87600000D03*
X57900000Y-61700000D03*
X58300000Y-52300000D03*
X61000000Y-80100000D03*
X61700000Y-58600000D03*
X62200000Y-83700000D03*
X62700000Y-93300000D03*
X62800000Y-67400000D03*
X63400000Y-66400000D03*
X63500000Y-91600000D03*
X63500000Y-94400000D03*
X64100000Y-86500000D03*
X64200000Y-83900000D03*
X66800000Y-96900000D03*
X69400000Y-93300000D03*
X69600000Y-77300000D03*
X71500000Y-76500000D03*
X73700000Y-89100000D03*
X73800000Y-76700000D03*
X78900000Y-84800000D03*
X85600000Y-95400000D03*
X86400000Y-106000000D03*
X91800000Y-89200000D03*
X93300000Y-72800000D03*
X93300000Y-74200000D03*
D11*
%TO.C,U2*%
X39250000Y-49120000D03*
X39250000Y-50520000D03*
X39950000Y-48420000D03*
X39950000Y-49820000D03*
X39950000Y-51220000D03*
X40650000Y-49120000D03*
X40650000Y-50520000D03*
X41350000Y-48420000D03*
X41350000Y-49820000D03*
X41350000Y-51220000D03*
X42050000Y-49120000D03*
X42050000Y-50520000D03*
%TD*%
D12*
X19107500Y-93045000D03*
X21157500Y-88045000D03*
X21657500Y-78445000D03*
X24407500Y-109995000D03*
X70525000Y-54400000D03*
X72612500Y-80087500D03*
X84975000Y-52850000D03*
X90662500Y-56687500D03*
X90775000Y-103775000D03*
X91275000Y-94175000D03*
X94062500Y-56687500D03*
%TO.C,J1*%
D13*
X15000000Y-61180000D02*
X15800000Y-61180000D01*
X15000000Y-69820000D02*
X15800000Y-69820000D01*
X19030000Y-61180000D02*
X20130000Y-61180000D01*
X19030000Y-69820000D02*
X20130000Y-69820000D01*
D14*
%TO.C,J2*%
X15310000Y-52310000D03*
X15310000Y-53810000D03*
D15*
%TO.C,J15*%
X56380000Y-99045000D03*
X56380000Y-101545000D03*
X56380000Y-104045000D03*
X56380000Y-106545000D03*
%TO.C,J14*%
X62813333Y-99045000D03*
X62813333Y-101545000D03*
X62813333Y-104045000D03*
X62813333Y-106545000D03*
%TO.C,J17*%
X69246667Y-99045000D03*
X69246667Y-101545000D03*
X69246667Y-104045000D03*
X69246667Y-106545000D03*
%TO.C,J16*%
X75680000Y-99045000D03*
X75680000Y-101545000D03*
X75680000Y-104045000D03*
X75680000Y-106545000D03*
D16*
%TO.C,J6*%
X33525000Y-102695000D03*
X33525000Y-105235000D03*
X33525000Y-107775000D03*
%TO.C,J7*%
X38115000Y-102695000D03*
X38115000Y-105235000D03*
X38115000Y-107775000D03*
%TO.C,U1*%
X42050000Y-67410000D03*
X42050000Y-85190000D03*
%TO.C,J8*%
X42705000Y-102695000D03*
X42705000Y-105235000D03*
X42705000Y-107775000D03*
%TO.C,U1*%
X44590000Y-67410000D03*
X44590000Y-85190000D03*
X47130000Y-67410000D03*
X47130000Y-85190000D03*
%TO.C,J9*%
X47295000Y-102695000D03*
X47295000Y-105235000D03*
X47295000Y-107775000D03*
%TO.C,U1*%
X49670000Y-67410000D03*
X49670000Y-85190000D03*
%TO.C,J10*%
X51885000Y-102695000D03*
X51885000Y-105235000D03*
X51885000Y-107775000D03*
%TO.C,U1*%
X52210000Y-67410000D03*
X52210000Y-85190000D03*
%TO.C,J5*%
X54525000Y-44400000D03*
X54525000Y-46900000D03*
%TO.C,U1*%
X54750000Y-67410000D03*
X54750000Y-85190000D03*
D17*
%TO.C,J3*%
X18307500Y-82605000D03*
X18307500Y-85145000D03*
%TO.C,J4*%
X93875000Y-97135000D03*
X93875000Y-99675000D03*
D18*
%TO.C,U1*%
X38240000Y-67410000D03*
X38240000Y-85190000D03*
X58560000Y-67410000D03*
X58560000Y-85190000D03*
D19*
%TO.C,J20*%
X64250000Y-45875000D03*
X71450000Y-45875000D03*
%TO.C,J19*%
X84700000Y-45875000D03*
X91900000Y-45875000D03*
M02*
