M48
; DRILL file KiCad 10.0.5-10.0.5~ubuntu24.04.1 date 2026-09-15T12:26:02
; FORMAT={-:-/ absolute / metric / decimal}
; #@! TF.CreationDate,2026-09-15T12:26:02-05:00
; #@! TF.GenerationSoftware,Kicad,Pcbnew,10.0.5-10.0.5~ubuntu24.04.1
; #@! TF.FileFunction,MixedPlating,1,4
FMAT,2
METRIC
; #@! TA.AperFunction,Plated,PTH,ViaDrill
T1C0.200
; #@! TA.AperFunction,Plated,PTH,ComponentDrill
T2C0.200
; #@! TA.AperFunction,Plated,PTH,ViaDrill
T3C0.300
; #@! TA.AperFunction,Plated,PTH,ComponentDrill
T4C0.600
; #@! TA.AperFunction,Plated,PTH,ComponentDrill
T5C0.730
; #@! TA.AperFunction,Plated,PTH,ComponentDrill
T6C0.950
; #@! TA.AperFunction,Plated,PTH,ComponentDrill
T7C1.000
; #@! TA.AperFunction,Plated,PTH,ComponentDrill
T8C1.100
; #@! TA.AperFunction,Plated,PTH,ComponentDrill
T9C2.500
; #@! TA.AperFunction,Plated,PTH,ComponentDrill
T10C4.500
; #@! TA.AperFunction,NonPlated,NPTH,ComponentDrill
T11C0.650
; #@! TA.AperFunction,NonPlated,NPTH,ComponentDrill
T12C1.100
%
G90
G05
T1
X14.8Y-47.3
X21.7Y-51.0
X24.7Y-67.9
X24.8Y-58.2
X25.5Y-47.8
X25.6Y-53.5
X25.8Y-76.0
X26.7Y-68.6
X26.8Y-77.2
X26.8Y-86.8
X27.3Y-66.7
X27.9Y-72.8
X28.7Y-73.6
X29.2Y-46.4
X30.8Y-46.4
X31.9Y-52.0
X32.0Y-56.7
X32.0Y-59.3
X33.4Y-42.1
X33.4Y-43.4
X34.3Y-66.7
X37.3Y-96.7
X38.0Y-95.6
X38.1Y-80.8
X38.1Y-81.6
X38.7Y-58.6
X39.3Y-80.8
X39.4Y-58.4
X40.1Y-89.9
X40.2Y-71.0
X40.6Y-81.5
X40.8Y-80.1
X50.9Y-42.1
X52.9Y-80.8
X53.8Y-91.0
X53.8Y-93.0
X55.4Y-54.6
X55.5Y-56.3
X56.2Y-78.25
X57.1Y-55.7
X57.1Y-60.9
X57.8Y-87.6
X57.9Y-61.7
X58.3Y-52.3
X61.0Y-80.1
X61.7Y-58.6
X62.2Y-83.7
X62.7Y-93.3
X62.8Y-67.4
X63.4Y-66.4
X63.5Y-91.6
X63.5Y-94.4
X64.1Y-86.5
X64.2Y-83.9
X66.8Y-96.9
X69.4Y-93.3
X69.6Y-77.3
X71.5Y-76.5
X73.7Y-89.1
X73.8Y-76.7
X78.9Y-84.8
X85.6Y-95.4
X86.4Y-106.0
X91.8Y-89.2
X93.3Y-72.8
X93.3Y-74.2
T2
X39.25Y-49.12
X39.25Y-50.52
X39.95Y-48.42
X39.95Y-49.82
X39.95Y-51.22
X40.65Y-49.12
X40.65Y-50.52
X41.35Y-48.42
X41.35Y-49.82
X41.35Y-51.22
X42.05Y-49.12
X42.05Y-50.52
T3
X19.107Y-93.045
X21.157Y-88.045
X21.657Y-78.445
X24.407Y-109.995
X70.525Y-54.4
X72.612Y-80.087
X84.975Y-52.85
X90.662Y-56.688
X90.775Y-103.775
X91.275Y-94.175
X94.062Y-56.688
T5
X15.31Y-52.31
X15.31Y-53.81
T6
X56.38Y-99.045
X56.38Y-101.545
X56.38Y-104.045
X56.38Y-106.545
X62.813Y-99.045
X62.813Y-101.545
X62.813Y-104.045
X62.813Y-106.545
X69.247Y-99.045
X69.247Y-101.545
X69.247Y-104.045
X69.247Y-106.545
X75.68Y-99.045
X75.68Y-101.545
X75.68Y-104.045
X75.68Y-106.545
T7
X33.525Y-102.695
X33.525Y-105.235
X33.525Y-107.775
X38.115Y-102.695
X38.115Y-105.235
X38.115Y-107.775
X42.05Y-67.41
X42.05Y-85.19
X42.705Y-102.695
X42.705Y-105.235
X42.705Y-107.775
X44.59Y-67.41
X44.59Y-85.19
X47.13Y-67.41
X47.13Y-85.19
X47.295Y-102.695
X47.295Y-105.235
X47.295Y-107.775
X49.67Y-67.41
X49.67Y-85.19
X51.885Y-102.695
X51.885Y-105.235
X51.885Y-107.775
X52.21Y-67.41
X52.21Y-85.19
X54.525Y-44.4
X54.525Y-46.9
X54.75Y-67.41
X54.75Y-85.19
T8
X18.307Y-82.605
X18.307Y-85.145
X93.875Y-97.135
X93.875Y-99.675
T9
X38.24Y-67.41
X38.24Y-85.19
X58.56Y-67.41
X58.56Y-85.19
T10
X64.25Y-45.875
X71.45Y-45.875
X84.7Y-45.875
X91.9Y-45.875
T11
X19.08Y-62.61
X19.08Y-68.39
T12
X15.768Y-82.605
X15.768Y-85.145
X96.415Y-97.135
X96.415Y-99.675
T4
G00X15.8Y-61.18
M15
G01X15.0Y-61.18
M16
G05
G00X15.8Y-69.82
M15
G01X15.0Y-69.82
M16
G05
G00X20.13Y-61.18
M15
G01X19.03Y-61.18
M16
G05
G00X20.13Y-69.82
M15
G01X19.03Y-69.82
M16
G05
M30
