%TF.GenerationSoftware,KiCad,Pcbnew,10.0.5-10.0.5~ubuntu24.04.1*%
%TF.CreationDate,2026-09-15T12:25:00-05:00*%
%TF.ProjectId,ORCA-BOARD,4f524341-2d42-44f4-9152-442e6b696361,rev?*%
%TF.SameCoordinates,Original*%
%TF.FileFunction,Soldermask,Bot*%
%TF.FilePolarity,Negative*%
%FSLAX46Y46*%
G04 Gerber Fmt 4.6, Leading zero omitted, Abs format (unit mm)*
G04 Created by KiCad (PCBNEW 10.0.5-10.0.5~ubuntu24.04.1) date 2026-09-15 12:25:00*
%MOMM*%
%LPD*%
G01*
G04 APERTURE LIST*
G04 Aperture macros list*
%AMRoundRect*
0 Rectangle with rounded corners*
0 $1 Rounding radius*
0 $2 $3 $4 $5 $6 $7 $8 $9 X,Y pos of 4 corners*
0 Add a 4 corners polygon primitive as box body*
4,1,4,$2,$3,$4,$5,$6,$7,$8,$9,$2,$3,0*
0 Add four circle primitives for the rounded corners*
1,1,$1+$1,$2,$3*
1,1,$1+$1,$4,$5*
1,1,$1+$1,$6,$7*
1,1,$1+$1,$8,$9*
0 Add four rect primitives between the rounded corners*
20,1,$1+$1,$2,$3,$4,$5,0*
20,1,$1+$1,$4,$5,$6,$7,0*
20,1,$1+$1,$6,$7,$8,$9,0*
20,1,$1+$1,$8,$9,$2,$3,0*%
G04 Aperture macros list end*
%ADD10RoundRect,1.500000X1.500000X1.500000X-1.500000X1.500000X-1.500000X-1.500000X1.500000X-1.500000X0*%
%ADD11C,6.000000*%
%ADD12RoundRect,0.250000X0.750000X-0.600000X0.750000X0.600000X-0.750000X0.600000X-0.750000X-0.600000X0*%
%ADD13O,2.000000X1.700000*%
%ADD14C,1.100000*%
%ADD15RoundRect,0.249999X0.850001X-0.850001X0.850001X0.850001X-0.850001X0.850001X-0.850001X-0.850001X0*%
%ADD16C,2.200000*%
%ADD17RoundRect,0.250000X0.725000X-0.600000X0.725000X0.600000X-0.725000X0.600000X-0.725000X-0.600000X0*%
%ADD18O,1.950000X1.700000*%
%ADD19R,1.700000X1.700000*%
%ADD20C,1.700000*%
%ADD21C,0.650000*%
%ADD22O,2.100000X1.000000*%
%ADD23O,1.800000X1.000000*%
%ADD24RoundRect,0.250000X-0.615000X0.265000X-0.615000X-0.265000X0.615000X-0.265000X0.615000X0.265000X0*%
%ADD25O,1.730000X1.030000*%
%ADD26C,3.301600*%
%ADD27C,1.879600*%
%ADD28RoundRect,0.249999X-0.850001X0.850001X-0.850001X-0.850001X0.850001X-0.850001X0.850001X0.850001X0*%
G04 APERTURE END LIST*
D10*
%TO.C,J20*%
X71450000Y-45875000D03*
D11*
X64250000Y-45875000D03*
%TD*%
D12*
%TO.C,J5*%
X54525000Y-46900000D03*
D13*
X54525000Y-44400000D03*
%TD*%
D14*
%TO.C,J4*%
X96415000Y-99675000D03*
X96415000Y-97135000D03*
D15*
X93875000Y-99675000D03*
D16*
X93875000Y-97135000D03*
%TD*%
D17*
%TO.C,J17*%
X69246667Y-106545000D03*
D18*
X69246667Y-104045000D03*
X69246667Y-101545000D03*
X69246667Y-99045000D03*
%TD*%
D19*
%TO.C,J7*%
X38115000Y-102695000D03*
D20*
X38115000Y-105235000D03*
X38115000Y-107775000D03*
%TD*%
D17*
%TO.C,J14*%
X62813333Y-106545000D03*
D18*
X62813333Y-104045000D03*
X62813333Y-101545000D03*
X62813333Y-99045000D03*
%TD*%
D19*
%TO.C,J10*%
X51885000Y-102695000D03*
D20*
X51885000Y-105235000D03*
X51885000Y-107775000D03*
%TD*%
D21*
%TO.C,J1*%
X19080000Y-62610000D03*
X19080000Y-68390000D03*
D22*
X19580000Y-61180000D03*
D23*
X15400000Y-61180000D03*
D22*
X19580000Y-69820000D03*
D23*
X15400000Y-69820000D03*
%TD*%
D10*
%TO.C,J19*%
X91900000Y-45875000D03*
D11*
X84700000Y-45875000D03*
%TD*%
D19*
%TO.C,J9*%
X47295000Y-102695000D03*
D20*
X47295000Y-105235000D03*
X47295000Y-107775000D03*
%TD*%
D17*
%TO.C,J15*%
X56380000Y-106545000D03*
D18*
X56380000Y-104045000D03*
X56380000Y-101545000D03*
X56380000Y-99045000D03*
%TD*%
D19*
%TO.C,J8*%
X42705000Y-102695000D03*
D20*
X42705000Y-105235000D03*
X42705000Y-107775000D03*
%TD*%
D19*
%TO.C,J6*%
X33525000Y-102695000D03*
D20*
X33525000Y-105235000D03*
X33525000Y-107775000D03*
%TD*%
D24*
%TO.C,J2*%
X15310000Y-52310000D03*
D25*
X15310000Y-53810000D03*
%TD*%
D26*
%TO.C,U1*%
X58560000Y-85190000D03*
X58560000Y-67410000D03*
X38240000Y-85190000D03*
X38240000Y-67410000D03*
D27*
X54750000Y-67410000D03*
X52210000Y-67410000D03*
X49670000Y-67410000D03*
X47130000Y-67410000D03*
X44590000Y-67410000D03*
X42050000Y-67410000D03*
X54750000Y-85190000D03*
X52210000Y-85190000D03*
X49670000Y-85190000D03*
X47130000Y-85190000D03*
X44590000Y-85190000D03*
X42050000Y-85190000D03*
%TD*%
D14*
%TO.C,J3*%
X15767500Y-82605000D03*
X15767500Y-85145000D03*
D28*
X18307500Y-82605000D03*
D16*
X18307500Y-85145000D03*
%TD*%
D17*
%TO.C,J16*%
X75680000Y-106545000D03*
D18*
X75680000Y-104045000D03*
X75680000Y-101545000D03*
X75680000Y-99045000D03*
%TD*%
M02*
