%TF.GenerationSoftware,KiCad,Pcbnew,10.0.5-10.0.5~ubuntu24.04.1*%
%TF.CreationDate,2026-09-15T12:25:00-05:00*%
%TF.ProjectId,ORCA-BOARD,4f524341-2d42-44f4-9152-442e6b696361,rev?*%
%TF.SameCoordinates,Original*%
%TF.FileFunction,Copper,L2,Inr*%
%TF.FilePolarity,Positive*%
%FSLAX46Y46*%
G04 Gerber Fmt 4.6, Leading zero omitted, Abs format (unit mm)*
G04 Created by KiCad (PCBNEW 10.0.5-10.0.5~ubuntu24.04.1) date 2026-09-15 12:25:00*
%MOMM*%
%LPD*%
G01*
G04 APERTURE LIST*
G04 Aperture macros list*
%AMRoundRect*
0 Rectangle with rounded corners*
0 $1 Rounding radius*
0 $2 $3 $4 $5 $6 $7 $8 $9 X,Y pos of 4 corners*
0 Add a 4 corners polygon primitive as box body*
4,1,4,$2,$3,$4,$5,$6,$7,$8,$9,$2,$3,0*
0 Add four circle primitives for the rounded corners*
1,1,$1+$1,$2,$3*
1,1,$1+$1,$4,$5*
1,1,$1+$1,$6,$7*
1,1,$1+$1,$8,$9*
0 Add four rect primitives between the rounded corners*
20,1,$1+$1,$2,$3,$4,$5,0*
20,1,$1+$1,$4,$5,$6,$7,0*
20,1,$1+$1,$6,$7,$8,$9,0*
20,1,$1+$1,$8,$9,$2,$3,0*%
G04 Aperture macros list end*
%TA.AperFunction,ComponentPad*%
%ADD10RoundRect,1.500000X1.500000X1.500000X-1.500000X1.500000X-1.500000X-1.500000X1.500000X-1.500000X0*%
%TD*%
%TA.AperFunction,ComponentPad*%
%ADD11C,6.000000*%
%TD*%
%TA.AperFunction,ComponentPad*%
%ADD12RoundRect,0.250000X0.750000X-0.600000X0.750000X0.600000X-0.750000X0.600000X-0.750000X-0.600000X0*%
%TD*%
%TA.AperFunction,ComponentPad*%
%ADD13O,2.000000X1.700000*%
%TD*%
%TA.AperFunction,HeatsinkPad*%
%ADD14C,0.600000*%
%TD*%
%TA.AperFunction,ComponentPad*%
%ADD15RoundRect,0.249999X0.850001X-0.850001X0.850001X0.850001X-0.850001X0.850001X-0.850001X-0.850001X0*%
%TD*%
%TA.AperFunction,ComponentPad*%
%ADD16C,2.200000*%
%TD*%
%TA.AperFunction,ComponentPad*%
%ADD17RoundRect,0.250000X0.725000X-0.600000X0.725000X0.600000X-0.725000X0.600000X-0.725000X-0.600000X0*%
%TD*%
%TA.AperFunction,ComponentPad*%
%ADD18O,1.950000X1.700000*%
%TD*%
%TA.AperFunction,ComponentPad*%
%ADD19R,1.700000X1.700000*%
%TD*%
%TA.AperFunction,ComponentPad*%
%ADD20C,1.700000*%
%TD*%
%TA.AperFunction,ComponentPad*%
%ADD21O,2.100000X1.000000*%
%TD*%
%TA.AperFunction,ComponentPad*%
%ADD22O,1.800000X1.000000*%
%TD*%
%TA.AperFunction,ComponentPad*%
%ADD23RoundRect,0.250000X-0.615000X0.265000X-0.615000X-0.265000X0.615000X-0.265000X0.615000X0.265000X0*%
%TD*%
%TA.AperFunction,ComponentPad*%
%ADD24O,1.730000X1.030000*%
%TD*%
%TA.AperFunction,ComponentPad*%
%ADD25C,3.200000*%
%TD*%
%TA.AperFunction,ComponentPad*%
%ADD26C,1.778000*%
%TD*%
%TA.AperFunction,ComponentPad*%
%ADD27RoundRect,0.249999X-0.850001X0.850001X-0.850001X-0.850001X0.850001X-0.850001X0.850001X0.850001X0*%
%TD*%
%TA.AperFunction,ViaPad*%
%ADD28C,0.450000*%
%TD*%
%TA.AperFunction,ViaPad*%
%ADD29C,0.600000*%
%TD*%
%TA.AperFunction,Conductor*%
%ADD30C,0.800000*%
%TD*%
%TA.AperFunction,Conductor*%
%ADD31C,0.200000*%
%TD*%
%TA.AperFunction,Conductor*%
%ADD32C,0.150000*%
%TD*%
%TA.AperFunction,Conductor*%
%ADD33C,0.300000*%
%TD*%
G04 APERTURE END LIST*
D10*
%TO.N,GND*%
%TO.C,J20*%
X71450000Y-45875000D03*
D11*
%TO.N,VM*%
X64250000Y-45875000D03*
%TD*%
D12*
%TO.N,/UART_1_Tx*%
%TO.C,J5*%
X54525000Y-46900000D03*
D13*
%TO.N,/UART_1_Rx*%
X54525000Y-44400000D03*
%TD*%
D14*
%TO.N,GND*%
%TO.C,U2*%
X39250000Y-49120000D03*
X39250000Y-50520000D03*
X39950000Y-48420000D03*
X39950000Y-49820000D03*
X39950000Y-51220000D03*
X40650000Y-49120000D03*
X40650000Y-50520000D03*
X41350000Y-48420000D03*
X41350000Y-49820000D03*
X41350000Y-51220000D03*
X42050000Y-49120000D03*
X42050000Y-50520000D03*
%TD*%
D15*
%TO.N,/Driver1/OUT1*%
%TO.C,J4*%
X93875000Y-99675000D03*
D16*
%TO.N,/Driver1/OUT2*%
X93875000Y-97135000D03*
%TD*%
D17*
%TO.N,GND*%
%TO.C,J17*%
X69246667Y-106545000D03*
D18*
%TO.N,+3V3*%
X69246667Y-104045000D03*
%TO.N,/I2C_SDA_CH3*%
X69246667Y-101545000D03*
%TO.N,/I2C_SCL_CH3*%
X69246667Y-99045000D03*
%TD*%
D19*
%TO.N,GND*%
%TO.C,J7*%
X38115000Y-102695000D03*
D20*
%TO.N,/5V_SERVOS*%
X38115000Y-105235000D03*
%TO.N,/MuxServos/pwm2*%
X38115000Y-107775000D03*
%TD*%
D17*
%TO.N,GND*%
%TO.C,J14*%
X62813333Y-106545000D03*
D18*
%TO.N,/5V*%
X62813333Y-104045000D03*
%TO.N,/I2C_SDA_CH0*%
X62813333Y-101545000D03*
%TO.N,/I2C_SCL_CH0*%
X62813333Y-99045000D03*
%TD*%
D19*
%TO.N,GND*%
%TO.C,J10*%
X51885000Y-102695000D03*
D20*
%TO.N,/5V_SERVOS*%
X51885000Y-105235000D03*
%TO.N,/MuxServos/pwm5*%
X51885000Y-107775000D03*
%TD*%
D21*
%TO.N,GND*%
%TO.C,J1*%
X19580000Y-61180000D03*
D22*
X15400000Y-61180000D03*
D21*
X19580000Y-69820000D03*
D22*
X15400000Y-69820000D03*
%TD*%
D10*
%TO.N,GND*%
%TO.C,J19*%
X91900000Y-45875000D03*
D11*
%TO.N,VBUS*%
X84700000Y-45875000D03*
%TD*%
D19*
%TO.N,GND*%
%TO.C,J9*%
X47295000Y-102695000D03*
D20*
%TO.N,/5V_SERVOS*%
X47295000Y-105235000D03*
%TO.N,/MuxServos/pwm4*%
X47295000Y-107775000D03*
%TD*%
D17*
%TO.N,GND*%
%TO.C,J15*%
X56380000Y-106545000D03*
D18*
%TO.N,/5V*%
X56380000Y-104045000D03*
%TO.N,/I2C_SDA_CH1*%
X56380000Y-101545000D03*
%TO.N,/I2C_SCL_CH1*%
X56380000Y-99045000D03*
%TD*%
D19*
%TO.N,GND*%
%TO.C,J8*%
X42705000Y-102695000D03*
D20*
%TO.N,/5V_SERVOS*%
X42705000Y-105235000D03*
%TO.N,/MuxServos/pwm3*%
X42705000Y-107775000D03*
%TD*%
D19*
%TO.N,GND*%
%TO.C,J6*%
X33525000Y-102695000D03*
D20*
%TO.N,/5V_SERVOS*%
X33525000Y-105235000D03*
%TO.N,/MuxServos/pwm1*%
X33525000Y-107775000D03*
%TD*%
D23*
%TO.N,Net-(J2-Pin_1)*%
%TO.C,J2*%
X15310000Y-52310000D03*
D24*
%TO.N,Net-(J2-Pin_2)*%
X15310000Y-53810000D03*
%TD*%
D25*
%TO.N,*%
%TO.C,U1*%
X58560000Y-85190000D03*
X58560000Y-67410000D03*
X38240000Y-85190000D03*
X38240000Y-67410000D03*
D26*
%TO.N,+3V3*%
X54750000Y-67410000D03*
%TO.N,unconnected-(U1-3Vo-Pad2)*%
X52210000Y-67410000D03*
%TO.N,GND*%
X49670000Y-67410000D03*
%TO.N,/OB_I2C_SCL*%
X47130000Y-67410000D03*
%TO.N,/OB_I2C_SDA*%
X44590000Y-67410000D03*
%TO.N,unconnected-(U1-INT-Pad6)*%
X42050000Y-67410000D03*
%TO.N,unconnected-(U1-~{BT}-Pad7)*%
X54750000Y-85190000D03*
%TO.N,unconnected-(U1-P0-Pad8)*%
X52210000Y-85190000D03*
%TO.N,unconnected-(U1-P1-Pad9)*%
X49670000Y-85190000D03*
%TO.N,unconnected-(U1-~{RST}-Pad10)*%
X47130000Y-85190000D03*
%TO.N,unconnected-(U1-DI-Pad11)*%
X44590000Y-85190000D03*
%TO.N,unconnected-(U1-~{CS}-Pad12)*%
X42050000Y-85190000D03*
%TD*%
D27*
%TO.N,/Driver/OUT1*%
%TO.C,J3*%
X18307500Y-82605000D03*
D16*
%TO.N,/Driver/OUT2*%
X18307500Y-85145000D03*
%TD*%
D17*
%TO.N,GND*%
%TO.C,J16*%
X75680000Y-106545000D03*
D18*
%TO.N,+3V3*%
X75680000Y-104045000D03*
%TO.N,/I2C_SDA_CH2*%
X75680000Y-101545000D03*
%TO.N,/I2C_SCL_CH2*%
X75680000Y-99045000D03*
%TD*%
D28*
%TO.N,+3V3*%
X57800000Y-87600000D03*
X56200000Y-78250000D03*
X33400000Y-43400000D03*
%TO.N,/5V*%
X93300000Y-72800000D03*
X93300000Y-74200000D03*
X78900000Y-84800000D03*
X66800000Y-96900000D03*
%TO.N,/5V_SERVOS*%
X69600000Y-77300000D03*
X53800000Y-93000000D03*
%TO.N,VM*%
X37300000Y-96700000D03*
X64200000Y-83900000D03*
%TO.N,/OB_I2C_SDA*%
X32000000Y-56700000D03*
X32000000Y-59300000D03*
%TO.N,+3V3*%
X58300000Y-52300000D03*
X29200000Y-46400000D03*
X86400000Y-106000000D03*
X55400000Y-54600000D03*
X73800000Y-76700000D03*
X25600000Y-53500000D03*
X25800000Y-76000000D03*
X62200000Y-83700000D03*
X53800000Y-91000000D03*
%TO.N,GND*%
X40100000Y-89900000D03*
X33400000Y-42100000D03*
X30800000Y-46400000D03*
X25500000Y-47800000D03*
X14800000Y-47300000D03*
X21700000Y-51000000D03*
X24800000Y-58200000D03*
X34300000Y-66700000D03*
X27300000Y-66700000D03*
X24700000Y-67900000D03*
X91800000Y-89200000D03*
X64100000Y-86500000D03*
X62700000Y-93300000D03*
X26800000Y-86800000D03*
X85600000Y-95400000D03*
X38000000Y-95600000D03*
X69400000Y-93300000D03*
X55500000Y-56300000D03*
X73700000Y-89100000D03*
X61700000Y-58600000D03*
X50900000Y-42100000D03*
%TO.N,/OB_I2C_SCL*%
X40600000Y-81500000D03*
X40800000Y-80100000D03*
X38700000Y-58600000D03*
%TO.N,/DRV2_PMode*%
X40200000Y-71000000D03*
X38100000Y-81600000D03*
%TO.N,/EXT_I2C_RST*%
X63500000Y-94400000D03*
X63500000Y-91600000D03*
X61000000Y-80100000D03*
X63400000Y-66400000D03*
%TO.N,/5VUSB*%
X71500000Y-76500000D03*
X52900000Y-80800000D03*
X39300000Y-80800000D03*
X38100000Y-80800000D03*
X28700000Y-73600000D03*
X27900000Y-72800000D03*
%TO.N,/EXT_I2C_SDA*%
X62800000Y-67400000D03*
X57100000Y-55700000D03*
%TO.N,/DRV1_PMode*%
X39400000Y-58400000D03*
X26800000Y-77200000D03*
%TO.N,/DRV1_IN2*%
X26700000Y-68600000D03*
X31900000Y-52000000D03*
%TO.N,/EXT_I2C_SCL*%
X57900000Y-61700000D03*
X57100000Y-60900000D03*
D29*
%TO.N,GND*%
X19107500Y-93045000D03*
X70525000Y-54400000D03*
X72612500Y-80087500D03*
X21157500Y-88045000D03*
X21657500Y-78445000D03*
X84975000Y-52850000D03*
X91275000Y-94175000D03*
X90775000Y-103775000D03*
X24407500Y-109995000D03*
X90662500Y-56687500D03*
X94062500Y-56687500D03*
%TD*%
%TO.N,+3V3*%
D30*
X56200000Y-78250000D02*
X61000000Y-83050000D01*
X61000000Y-83050000D02*
X61000000Y-87300000D01*
X61000000Y-87300000D02*
X60700000Y-87600000D01*
X60700000Y-87600000D02*
X57800000Y-87600000D01*
%TO.N,GND*%
D31*
X64100000Y-87476000D02*
X64100000Y-86500000D01*
X64079767Y-87496279D02*
X64100000Y-87476000D01*
D32*
X40079767Y-89896279D02*
X40100000Y-89900000D01*
D33*
X33439767Y-42136279D02*
X33400000Y-42100000D01*
X30799767Y-46376279D02*
X30800000Y-46400000D01*
X25519767Y-47816279D02*
X25500000Y-47800000D01*
X14799767Y-47256279D02*
X14800000Y-47300000D01*
X21679767Y-51016279D02*
X21700000Y-51000000D01*
X24799767Y-58216279D02*
X24800000Y-58200000D01*
X34319767Y-66696279D02*
X34300000Y-66700000D01*
X27279767Y-66696279D02*
X27300000Y-66700000D01*
X24719767Y-67896279D02*
X24700000Y-67900000D01*
X91759767Y-89176279D02*
X91800000Y-89200000D01*
D32*
X62719767Y-93336279D02*
X62700000Y-93300000D01*
X26799767Y-86776279D02*
X26800000Y-86800000D01*
X85599767Y-95416279D02*
X85600000Y-95400000D01*
D33*
X37999767Y-95576279D02*
X38000000Y-95600000D01*
D32*
X69359767Y-93336279D02*
X69400000Y-93300000D01*
D33*
X55519767Y-56296279D02*
X55500000Y-56300000D01*
X73679767Y-89096279D02*
X73700000Y-89100000D01*
X61679767Y-58616279D02*
X61700000Y-58600000D01*
X50879767Y-42136279D02*
X50900000Y-42100000D01*
%TD*%
%TA.AperFunction,Conductor*%
%TO.N,GND*%
G36*
X97002306Y-40816464D02*
G01*
X97048061Y-40869268D01*
X97059267Y-40920779D01*
X97059267Y-96559959D01*
X97039582Y-96626998D01*
X96986778Y-96672753D01*
X96917620Y-96682697D01*
X96854064Y-96653672D01*
X96847586Y-96647640D01*
X96829672Y-96629726D01*
X96829668Y-96629723D01*
X96723133Y-96558538D01*
X96723124Y-96558533D01*
X96604744Y-96509499D01*
X96604738Y-96509497D01*
X96479071Y-96484500D01*
X96479069Y-96484500D01*
X96350931Y-96484500D01*
X96350929Y-96484500D01*
X96225261Y-96509497D01*
X96225255Y-96509499D01*
X96106875Y-96558533D01*
X96106866Y-96558538D01*
X96000331Y-96629723D01*
X96000327Y-96629726D01*
X95909726Y-96720327D01*
X95909723Y-96720331D01*
X95838538Y-96826866D01*
X95838533Y-96826875D01*
X95789499Y-96945255D01*
X95789497Y-96945261D01*
X95764500Y-97070928D01*
X95764500Y-97070931D01*
X95764500Y-97199069D01*
X95764500Y-97199071D01*
X95764499Y-97199071D01*
X95789497Y-97324738D01*
X95789499Y-97324744D01*
X95838533Y-97443124D01*
X95838538Y-97443133D01*
X95909723Y-97549668D01*
X95909726Y-97549672D01*
X96000327Y-97640273D01*
X96000331Y-97640276D01*
X96106866Y-97711461D01*
X96106872Y-97711464D01*
X96106873Y-97711465D01*
X96225256Y-97760501D01*
X96225260Y-97760501D01*
X96225261Y-97760502D01*
X96350928Y-97785500D01*
X96350931Y-97785500D01*
X96479071Y-97785500D01*
X96563615Y-97768682D01*
X96604744Y-97760501D01*
X96723127Y-97711465D01*
X96829669Y-97640276D01*
X96834214Y-97635731D01*
X96847586Y-97622360D01*
X96908909Y-97588875D01*
X96978601Y-97593859D01*
X97034534Y-97635731D01*
X97058951Y-97701195D01*
X97059267Y-97710041D01*
X97059267Y-99099959D01*
X97039582Y-99166998D01*
X96986778Y-99212753D01*
X96917620Y-99222697D01*
X96854064Y-99193672D01*
X96847586Y-99187640D01*
X96829672Y-99169726D01*
X96829668Y-99169723D01*
X96723133Y-99098538D01*
X96723124Y-99098533D01*
X96604744Y-99049499D01*
X96604738Y-99049497D01*
X96479071Y-99024500D01*
X96479069Y-99024500D01*
X96350931Y-99024500D01*
X96350929Y-99024500D01*
X96225261Y-99049497D01*
X96225255Y-99049499D01*
X96106875Y-99098533D01*
X96106866Y-99098538D01*
X96000331Y-99169723D01*
X96000327Y-99169726D01*
X95909726Y-99260327D01*
X95909723Y-99260331D01*
X95838538Y-99366866D01*
X95838533Y-99366875D01*
X95789499Y-99485255D01*
X95789497Y-99485261D01*
X95764500Y-99610928D01*
X95764500Y-99610931D01*
X95764500Y-99739069D01*
X95764500Y-99739071D01*
X95764499Y-99739071D01*
X95789497Y-99864738D01*
X95789499Y-99864744D01*
X95838533Y-99983124D01*
X95838538Y-99983133D01*
X95909723Y-100089668D01*
X95909726Y-100089672D01*
X96000327Y-100180273D01*
X96000331Y-100180276D01*
X96106866Y-100251461D01*
X96106872Y-100251464D01*
X96106873Y-100251465D01*
X96225256Y-100300501D01*
X96225260Y-100300501D01*
X96225261Y-100300502D01*
X96350928Y-100325500D01*
X96350931Y-100325500D01*
X96479071Y-100325500D01*
X96563615Y-100308682D01*
X96604744Y-100300501D01*
X96723127Y-100251465D01*
X96829669Y-100180276D01*
X96834214Y-100175731D01*
X96847586Y-100162360D01*
X96908909Y-100128875D01*
X96978601Y-100133859D01*
X97034534Y-100175731D01*
X97058951Y-100241195D01*
X97059267Y-100250041D01*
X97059267Y-111671779D01*
X97039582Y-111738818D01*
X96986778Y-111784573D01*
X96935267Y-111795779D01*
X13184267Y-111795779D01*
X13117228Y-111776094D01*
X13071473Y-111723290D01*
X13060267Y-111671779D01*
X13060267Y-105128713D01*
X32174500Y-105128713D01*
X32174500Y-105341287D01*
X32177820Y-105362246D01*
X32205580Y-105537521D01*
X32207754Y-105551243D01*
X32241902Y-105656340D01*
X32273444Y-105753414D01*
X32369951Y-105942820D01*
X32494890Y-106114786D01*
X32645213Y-106265109D01*
X32817182Y-106390050D01*
X32825946Y-106394516D01*
X32876742Y-106442491D01*
X32893536Y-106510312D01*
X32870998Y-106576447D01*
X32825946Y-106615484D01*
X32817182Y-106619949D01*
X32645213Y-106744890D01*
X32494890Y-106895213D01*
X32369951Y-107067179D01*
X32273444Y-107256585D01*
X32207753Y-107458760D01*
X32174500Y-107668713D01*
X32174500Y-107881286D01*
X32207753Y-108091239D01*
X32273444Y-108293414D01*
X32369951Y-108482820D01*
X32494890Y-108654786D01*
X32645213Y-108805109D01*
X32817179Y-108930048D01*
X32817181Y-108930049D01*
X32817184Y-108930051D01*
X33006588Y-109026557D01*
X33208757Y-109092246D01*
X33418713Y-109125500D01*
X33418714Y-109125500D01*
X33631286Y-109125500D01*
X33631287Y-109125500D01*
X33841243Y-109092246D01*
X34043412Y-109026557D01*
X34232816Y-108930051D01*
X34254789Y-108914086D01*
X34404786Y-108805109D01*
X34404788Y-108805106D01*
X34404792Y-108805104D01*
X34555104Y-108654792D01*
X34555106Y-108654788D01*
X34555109Y-108654786D01*
X34680048Y-108482820D01*
X34680047Y-108482820D01*
X34680051Y-108482816D01*
X34776557Y-108293412D01*
X34842246Y-108091243D01*
X34875500Y-107881287D01*
X34875500Y-107668713D01*
X34842246Y-107458757D01*
X34776557Y-107256588D01*
X34680051Y-107067184D01*
X34680049Y-107067181D01*
X34680048Y-107067179D01*
X34555109Y-106895213D01*
X34404786Y-106744890D01*
X34232820Y-106619951D01*
X34232115Y-106619591D01*
X34224054Y-106615485D01*
X34173259Y-106567512D01*
X34156463Y-106499692D01*
X34178999Y-106433556D01*
X34224054Y-106394515D01*
X34232816Y-106390051D01*
X34296682Y-106343650D01*
X34404786Y-106265109D01*
X34404788Y-106265106D01*
X34404792Y-106265104D01*
X34555104Y-106114792D01*
X34555106Y-106114788D01*
X34555109Y-106114786D01*
X34680048Y-105942820D01*
X34680047Y-105942820D01*
X34680051Y-105942816D01*
X34776557Y-105753412D01*
X34842246Y-105551243D01*
X34875500Y-105341287D01*
X34875500Y-105128713D01*
X36764500Y-105128713D01*
X36764500Y-105341287D01*
X36767820Y-105362246D01*
X36795580Y-105537521D01*
X36797754Y-105551243D01*
X36831902Y-105656340D01*
X36863444Y-105753414D01*
X36959951Y-105942820D01*
X37084890Y-106114786D01*
X37235213Y-106265109D01*
X37407182Y-106390050D01*
X37415946Y-106394516D01*
X37466742Y-106442491D01*
X37483536Y-106510312D01*
X37460998Y-106576447D01*
X37415946Y-106615484D01*
X37407182Y-106619949D01*
X37235213Y-106744890D01*
X37084890Y-106895213D01*
X36959951Y-107067179D01*
X36863444Y-107256585D01*
X36797753Y-107458760D01*
X36764500Y-107668713D01*
X36764500Y-107881286D01*
X36797753Y-108091239D01*
X36863444Y-108293414D01*
X36959951Y-108482820D01*
X37084890Y-108654786D01*
X37235213Y-108805109D01*
X37407179Y-108930048D01*
X37407181Y-108930049D01*
X37407184Y-108930051D01*
X37596588Y-109026557D01*
X37798757Y-109092246D01*
X38008713Y-109125500D01*
X38008714Y-109125500D01*
X38221286Y-109125500D01*
X38221287Y-109125500D01*
X38431243Y-109092246D01*
X38633412Y-109026557D01*
X38822816Y-108930051D01*
X38844789Y-108914086D01*
X38994786Y-108805109D01*
X38994788Y-108805106D01*
X38994792Y-108805104D01*
X39145104Y-108654792D01*
X39145106Y-108654788D01*
X39145109Y-108654786D01*
X39270048Y-108482820D01*
X39270047Y-108482820D01*
X39270051Y-108482816D01*
X39366557Y-108293412D01*
X39432246Y-108091243D01*
X39465500Y-107881287D01*
X39465500Y-107668713D01*
X39432246Y-107458757D01*
X39366557Y-107256588D01*
X39270051Y-107067184D01*
X39270049Y-107067181D01*
X39270048Y-107067179D01*
X39145109Y-106895213D01*
X38994786Y-106744890D01*
X38822820Y-106619951D01*
X38822115Y-106619591D01*
X38814054Y-106615485D01*
X38763259Y-106567512D01*
X38746463Y-106499692D01*
X38768999Y-106433556D01*
X38814054Y-106394515D01*
X38822816Y-106390051D01*
X38886682Y-106343650D01*
X38994786Y-106265109D01*
X38994788Y-106265106D01*
X38994792Y-106265104D01*
X39145104Y-106114792D01*
X39145106Y-106114788D01*
X39145109Y-106114786D01*
X39270048Y-105942820D01*
X39270047Y-105942820D01*
X39270051Y-105942816D01*
X39366557Y-105753412D01*
X39432246Y-105551243D01*
X39465500Y-105341287D01*
X39465500Y-105128713D01*
X41354500Y-105128713D01*
X41354500Y-105341287D01*
X41357820Y-105362246D01*
X41385580Y-105537521D01*
X41387754Y-105551243D01*
X41421902Y-105656340D01*
X41453444Y-105753414D01*
X41549951Y-105942820D01*
X41674890Y-106114786D01*
X41825213Y-106265109D01*
X41997182Y-106390050D01*
X42005946Y-106394516D01*
X42056742Y-106442491D01*
X42073536Y-106510312D01*
X42050998Y-106576447D01*
X42005946Y-106615484D01*
X41997182Y-106619949D01*
X41825213Y-106744890D01*
X41674890Y-106895213D01*
X41549951Y-107067179D01*
X41453444Y-107256585D01*
X41387753Y-107458760D01*
X41354500Y-107668713D01*
X41354500Y-107881286D01*
X41387753Y-108091239D01*
X41453444Y-108293414D01*
X41549951Y-108482820D01*
X41674890Y-108654786D01*
X41825213Y-108805109D01*
X41997179Y-108930048D01*
X41997181Y-108930049D01*
X41997184Y-108930051D01*
X42186588Y-109026557D01*
X42388757Y-109092246D01*
X42598713Y-109125500D01*
X42598714Y-109125500D01*
X42811286Y-109125500D01*
X42811287Y-109125500D01*
X43021243Y-109092246D01*
X43223412Y-109026557D01*
X43412816Y-108930051D01*
X43434789Y-108914086D01*
X43584786Y-108805109D01*
X43584788Y-108805106D01*
X43584792Y-108805104D01*
X43735104Y-108654792D01*
X43735106Y-108654788D01*
X43735109Y-108654786D01*
X43860048Y-108482820D01*
X43860047Y-108482820D01*
X43860051Y-108482816D01*
X43956557Y-108293412D01*
X44022246Y-108091243D01*
X44055500Y-107881287D01*
X44055500Y-107668713D01*
X44022246Y-107458757D01*
X43956557Y-107256588D01*
X43860051Y-107067184D01*
X43860049Y-107067181D01*
X43860048Y-107067179D01*
X43735109Y-106895213D01*
X43584786Y-106744890D01*
X43412820Y-106619951D01*
X43412115Y-106619591D01*
X43404054Y-106615485D01*
X43353259Y-106567512D01*
X43336463Y-106499692D01*
X43358999Y-106433556D01*
X43404054Y-106394515D01*
X43412816Y-106390051D01*
X43476682Y-106343650D01*
X43584786Y-106265109D01*
X43584788Y-106265106D01*
X43584792Y-106265104D01*
X43735104Y-106114792D01*
X43735106Y-106114788D01*
X43735109Y-106114786D01*
X43860048Y-105942820D01*
X43860047Y-105942820D01*
X43860051Y-105942816D01*
X43956557Y-105753412D01*
X44022246Y-105551243D01*
X44055500Y-105341287D01*
X44055500Y-105128713D01*
X45944500Y-105128713D01*
X45944500Y-105341287D01*
X45947820Y-105362246D01*
X45975580Y-105537521D01*
X45977754Y-105551243D01*
X46011902Y-105656340D01*
X46043444Y-105753414D01*
X46139951Y-105942820D01*
X46264890Y-106114786D01*
X46415213Y-106265109D01*
X46587182Y-106390050D01*
X46595946Y-106394516D01*
X46646742Y-106442491D01*
X46663536Y-106510312D01*
X46640998Y-106576447D01*
X46595946Y-106615484D01*
X46587182Y-106619949D01*
X46415213Y-106744890D01*
X46264890Y-106895213D01*
X46139951Y-107067179D01*
X46043444Y-107256585D01*
X45977753Y-107458760D01*
X45944500Y-107668713D01*
X45944500Y-107881286D01*
X45977753Y-108091239D01*
X46043444Y-108293414D01*
X46139951Y-108482820D01*
X46264890Y-108654786D01*
X46415213Y-108805109D01*
X46587179Y-108930048D01*
X46587181Y-108930049D01*
X46587184Y-108930051D01*
X46776588Y-109026557D01*
X46978757Y-109092246D01*
X47188713Y-109125500D01*
X47188714Y-109125500D01*
X47401286Y-109125500D01*
X47401287Y-109125500D01*
X47611243Y-109092246D01*
X47813412Y-109026557D01*
X48002816Y-108930051D01*
X48024789Y-108914086D01*
X48174786Y-108805109D01*
X48174788Y-108805106D01*
X48174792Y-108805104D01*
X48325104Y-108654792D01*
X48325106Y-108654788D01*
X48325109Y-108654786D01*
X48450048Y-108482820D01*
X48450047Y-108482820D01*
X48450051Y-108482816D01*
X48546557Y-108293412D01*
X48612246Y-108091243D01*
X48645500Y-107881287D01*
X48645500Y-107668713D01*
X48612246Y-107458757D01*
X48546557Y-107256588D01*
X48450051Y-107067184D01*
X48450049Y-107067181D01*
X48450048Y-107067179D01*
X48325109Y-106895213D01*
X48174786Y-106744890D01*
X48002820Y-106619951D01*
X48002115Y-106619591D01*
X47994054Y-106615485D01*
X47943259Y-106567512D01*
X47926463Y-106499692D01*
X47948999Y-106433556D01*
X47994054Y-106394515D01*
X48002816Y-106390051D01*
X48066682Y-106343650D01*
X48174786Y-106265109D01*
X48174788Y-106265106D01*
X48174792Y-106265104D01*
X48325104Y-106114792D01*
X48325106Y-106114788D01*
X48325109Y-106114786D01*
X48450048Y-105942820D01*
X48450047Y-105942820D01*
X48450051Y-105942816D01*
X48546557Y-105753412D01*
X48612246Y-105551243D01*
X48645500Y-105341287D01*
X48645500Y-105128713D01*
X50534500Y-105128713D01*
X50534500Y-105341287D01*
X50537820Y-105362246D01*
X50565580Y-105537521D01*
X50567754Y-105551243D01*
X50601902Y-105656340D01*
X50633444Y-105753414D01*
X50729951Y-105942820D01*
X50854890Y-106114786D01*
X51005213Y-106265109D01*
X51177182Y-106390050D01*
X51185946Y-106394516D01*
X51236742Y-106442491D01*
X51253536Y-106510312D01*
X51230998Y-106576447D01*
X51185946Y-106615484D01*
X51177182Y-106619949D01*
X51005213Y-106744890D01*
X50854890Y-106895213D01*
X50729951Y-107067179D01*
X50633444Y-107256585D01*
X50567753Y-107458760D01*
X50534500Y-107668713D01*
X50534500Y-107881286D01*
X50567753Y-108091239D01*
X50633444Y-108293414D01*
X50729951Y-108482820D01*
X50854890Y-108654786D01*
X51005213Y-108805109D01*
X51177179Y-108930048D01*
X51177181Y-108930049D01*
X51177184Y-108930051D01*
X51366588Y-109026557D01*
X51568757Y-109092246D01*
X51778713Y-109125500D01*
X51778714Y-109125500D01*
X51991286Y-109125500D01*
X51991287Y-109125500D01*
X52201243Y-109092246D01*
X52403412Y-109026557D01*
X52592816Y-108930051D01*
X52614789Y-108914086D01*
X52764786Y-108805109D01*
X52764788Y-108805106D01*
X52764792Y-108805104D01*
X52915104Y-108654792D01*
X52915106Y-108654788D01*
X52915109Y-108654786D01*
X53040048Y-108482820D01*
X53040047Y-108482820D01*
X53040051Y-108482816D01*
X53136557Y-108293412D01*
X53202246Y-108091243D01*
X53235500Y-107881287D01*
X53235500Y-107668713D01*
X53202246Y-107458757D01*
X53136557Y-107256588D01*
X53040051Y-107067184D01*
X53040049Y-107067181D01*
X53040048Y-107067179D01*
X52915109Y-106895213D01*
X52764786Y-106744890D01*
X52592820Y-106619951D01*
X52592115Y-106619591D01*
X52584054Y-106615485D01*
X52533259Y-106567512D01*
X52516463Y-106499692D01*
X52538999Y-106433556D01*
X52584054Y-106394515D01*
X52592816Y-106390051D01*
X52656682Y-106343650D01*
X52764786Y-106265109D01*
X52764788Y-106265106D01*
X52764792Y-106265104D01*
X52915104Y-106114792D01*
X52915106Y-106114788D01*
X52915109Y-106114786D01*
X53040048Y-105942820D01*
X53040047Y-105942820D01*
X53040051Y-105942816D01*
X53136557Y-105753412D01*
X53202246Y-105551243D01*
X53235500Y-105341287D01*
X53235500Y-105128713D01*
X53202246Y-104918757D01*
X53136557Y-104716588D01*
X53040051Y-104527184D01*
X53040049Y-104527181D01*
X53040048Y-104527179D01*
X52915109Y-104355213D01*
X52801181Y-104241285D01*
X52767696Y-104179962D01*
X52772680Y-104110270D01*
X52814552Y-104054337D01*
X52845529Y-104037422D01*
X52977086Y-103988354D01*
X52977093Y-103988350D01*
X53092187Y-103902190D01*
X53092190Y-103902187D01*
X53178350Y-103787093D01*
X53178354Y-103787086D01*
X53228596Y-103652379D01*
X53228598Y-103652372D01*
X53234999Y-103592844D01*
X53235000Y-103592827D01*
X53235000Y-102945000D01*
X52318012Y-102945000D01*
X52350925Y-102887993D01*
X52385000Y-102760826D01*
X52385000Y-102629174D01*
X52350925Y-102502007D01*
X52318012Y-102445000D01*
X53235000Y-102445000D01*
X53235000Y-101797172D01*
X53234999Y-101797155D01*
X53228598Y-101737627D01*
X53228596Y-101737620D01*
X53178354Y-101602913D01*
X53178350Y-101602906D01*
X53092190Y-101487812D01*
X53092187Y-101487809D01*
X52977093Y-101401649D01*
X52977086Y-101401645D01*
X52842379Y-101351403D01*
X52842372Y-101351401D01*
X52782844Y-101345000D01*
X52135000Y-101345000D01*
X52135000Y-102261988D01*
X52077993Y-102229075D01*
X51950826Y-102195000D01*
X51819174Y-102195000D01*
X51692007Y-102229075D01*
X51635000Y-102261988D01*
X51635000Y-101345000D01*
X50987155Y-101345000D01*
X50927627Y-101351401D01*
X50927620Y-101351403D01*
X50792913Y-101401645D01*
X50792906Y-101401649D01*
X50677812Y-101487809D01*
X50677809Y-101487812D01*
X50591649Y-101602906D01*
X50591645Y-101602913D01*
X50541403Y-101737620D01*
X50541401Y-101737627D01*
X50535000Y-101797155D01*
X50535000Y-102445000D01*
X51451988Y-102445000D01*
X51419075Y-102502007D01*
X51385000Y-102629174D01*
X51385000Y-102760826D01*
X51419075Y-102887993D01*
X51451988Y-102945000D01*
X50535000Y-102945000D01*
X50535000Y-103592844D01*
X50541401Y-103652372D01*
X50541403Y-103652379D01*
X50591645Y-103787086D01*
X50591649Y-103787093D01*
X50677809Y-103902187D01*
X50677812Y-103902190D01*
X50792906Y-103988350D01*
X50792913Y-103988354D01*
X50924470Y-104037422D01*
X50980404Y-104079293D01*
X51004821Y-104144758D01*
X50989969Y-104213031D01*
X50968819Y-104241285D01*
X50854889Y-104355215D01*
X50729951Y-104527179D01*
X50633444Y-104716585D01*
X50567753Y-104918760D01*
X50566799Y-104924784D01*
X50534500Y-105128713D01*
X48645500Y-105128713D01*
X48612246Y-104918757D01*
X48546557Y-104716588D01*
X48450051Y-104527184D01*
X48450049Y-104527181D01*
X48450048Y-104527179D01*
X48325109Y-104355213D01*
X48211181Y-104241285D01*
X48177696Y-104179962D01*
X48182680Y-104110270D01*
X48224552Y-104054337D01*
X48255529Y-104037422D01*
X48387086Y-103988354D01*
X48387093Y-103988350D01*
X48502187Y-103902190D01*
X48502190Y-103902187D01*
X48588350Y-103787093D01*
X48588354Y-103787086D01*
X48638596Y-103652379D01*
X48638598Y-103652372D01*
X48644999Y-103592844D01*
X48645000Y-103592827D01*
X48645000Y-102945000D01*
X47728012Y-102945000D01*
X47760925Y-102887993D01*
X47795000Y-102760826D01*
X47795000Y-102629174D01*
X47760925Y-102502007D01*
X47728012Y-102445000D01*
X48645000Y-102445000D01*
X48645000Y-101797172D01*
X48644999Y-101797155D01*
X48638598Y-101737627D01*
X48638596Y-101737620D01*
X48588354Y-101602913D01*
X48588350Y-101602906D01*
X48502190Y-101487812D01*
X48502187Y-101487809D01*
X48387093Y-101401649D01*
X48387086Y-101401645D01*
X48252379Y-101351403D01*
X48252372Y-101351401D01*
X48192844Y-101345000D01*
X47545000Y-101345000D01*
X47545000Y-102261988D01*
X47487993Y-102229075D01*
X47360826Y-102195000D01*
X47229174Y-102195000D01*
X47102007Y-102229075D01*
X47045000Y-102261988D01*
X47045000Y-101345000D01*
X46397155Y-101345000D01*
X46337627Y-101351401D01*
X46337620Y-101351403D01*
X46202913Y-101401645D01*
X46202906Y-101401649D01*
X46087812Y-101487809D01*
X46087809Y-101487812D01*
X46001649Y-101602906D01*
X46001645Y-101602913D01*
X45951403Y-101737620D01*
X45951401Y-101737627D01*
X45945000Y-101797155D01*
X45945000Y-102445000D01*
X46861988Y-102445000D01*
X46829075Y-102502007D01*
X46795000Y-102629174D01*
X46795000Y-102760826D01*
X46829075Y-102887993D01*
X46861988Y-102945000D01*
X45945000Y-102945000D01*
X45945000Y-103592844D01*
X45951401Y-103652372D01*
X45951403Y-103652379D01*
X46001645Y-103787086D01*
X46001649Y-103787093D01*
X46087809Y-103902187D01*
X46087812Y-103902190D01*
X46202906Y-103988350D01*
X46202913Y-103988354D01*
X46334470Y-104037422D01*
X46390404Y-104079293D01*
X46414821Y-104144758D01*
X46399969Y-104213031D01*
X46378819Y-104241285D01*
X46264889Y-104355215D01*
X46139951Y-104527179D01*
X46043444Y-104716585D01*
X45977753Y-104918760D01*
X45976799Y-104924784D01*
X45944500Y-105128713D01*
X44055500Y-105128713D01*
X44022246Y-104918757D01*
X43956557Y-104716588D01*
X43860051Y-104527184D01*
X43860049Y-104527181D01*
X43860048Y-104527179D01*
X43735109Y-104355213D01*
X43621181Y-104241285D01*
X43587696Y-104179962D01*
X43592680Y-104110270D01*
X43634552Y-104054337D01*
X43665529Y-104037422D01*
X43797086Y-103988354D01*
X43797093Y-103988350D01*
X43912187Y-103902190D01*
X43912190Y-103902187D01*
X43998350Y-103787093D01*
X43998354Y-103787086D01*
X44048596Y-103652379D01*
X44048598Y-103652372D01*
X44054999Y-103592844D01*
X44055000Y-103592827D01*
X44055000Y-102945000D01*
X43138012Y-102945000D01*
X43170925Y-102887993D01*
X43205000Y-102760826D01*
X43205000Y-102629174D01*
X43170925Y-102502007D01*
X43138012Y-102445000D01*
X44055000Y-102445000D01*
X44055000Y-101797172D01*
X44054999Y-101797155D01*
X44048598Y-101737627D01*
X44048596Y-101737620D01*
X43998354Y-101602913D01*
X43998350Y-101602906D01*
X43912190Y-101487812D01*
X43912187Y-101487809D01*
X43797093Y-101401649D01*
X43797086Y-101401645D01*
X43662379Y-101351403D01*
X43662372Y-101351401D01*
X43602844Y-101345000D01*
X42955000Y-101345000D01*
X42955000Y-102261988D01*
X42897993Y-102229075D01*
X42770826Y-102195000D01*
X42639174Y-102195000D01*
X42512007Y-102229075D01*
X42455000Y-102261988D01*
X42455000Y-101345000D01*
X41807155Y-101345000D01*
X41747627Y-101351401D01*
X41747620Y-101351403D01*
X41612913Y-101401645D01*
X41612906Y-101401649D01*
X41497812Y-101487809D01*
X41497809Y-101487812D01*
X41411649Y-101602906D01*
X41411645Y-101602913D01*
X41361403Y-101737620D01*
X41361401Y-101737627D01*
X41355000Y-101797155D01*
X41355000Y-102445000D01*
X42271988Y-102445000D01*
X42239075Y-102502007D01*
X42205000Y-102629174D01*
X42205000Y-102760826D01*
X42239075Y-102887993D01*
X42271988Y-102945000D01*
X41355000Y-102945000D01*
X41355000Y-103592844D01*
X41361401Y-103652372D01*
X41361403Y-103652379D01*
X41411645Y-103787086D01*
X41411649Y-103787093D01*
X41497809Y-103902187D01*
X41497812Y-103902190D01*
X41612906Y-103988350D01*
X41612913Y-103988354D01*
X41744470Y-104037422D01*
X41800404Y-104079293D01*
X41824821Y-104144758D01*
X41809969Y-104213031D01*
X41788819Y-104241285D01*
X41674889Y-104355215D01*
X41549951Y-104527179D01*
X41453444Y-104716585D01*
X41387753Y-104918760D01*
X41386799Y-104924784D01*
X41354500Y-105128713D01*
X39465500Y-105128713D01*
X39432246Y-104918757D01*
X39366557Y-104716588D01*
X39270051Y-104527184D01*
X39270049Y-104527181D01*
X39270048Y-104527179D01*
X39145109Y-104355213D01*
X39031181Y-104241285D01*
X38997696Y-104179962D01*
X39002680Y-104110270D01*
X39044552Y-104054337D01*
X39075529Y-104037422D01*
X39207086Y-103988354D01*
X39207093Y-103988350D01*
X39322187Y-103902190D01*
X39322190Y-103902187D01*
X39408350Y-103787093D01*
X39408354Y-103787086D01*
X39458596Y-103652379D01*
X39458598Y-103652372D01*
X39464999Y-103592844D01*
X39465000Y-103592827D01*
X39465000Y-102945000D01*
X38548012Y-102945000D01*
X38580925Y-102887993D01*
X38615000Y-102760826D01*
X38615000Y-102629174D01*
X38580925Y-102502007D01*
X38548012Y-102445000D01*
X39465000Y-102445000D01*
X39465000Y-101797172D01*
X39464999Y-101797155D01*
X39458598Y-101737627D01*
X39458596Y-101737620D01*
X39408354Y-101602913D01*
X39408350Y-101602906D01*
X39322190Y-101487812D01*
X39322187Y-101487809D01*
X39207093Y-101401649D01*
X39207086Y-101401645D01*
X39072379Y-101351403D01*
X39072372Y-101351401D01*
X39012844Y-101345000D01*
X38365000Y-101345000D01*
X38365000Y-102261988D01*
X38307993Y-102229075D01*
X38180826Y-102195000D01*
X38049174Y-102195000D01*
X37922007Y-102229075D01*
X37865000Y-102261988D01*
X37865000Y-101345000D01*
X37217155Y-101345000D01*
X37157627Y-101351401D01*
X37157620Y-101351403D01*
X37022913Y-101401645D01*
X37022906Y-101401649D01*
X36907812Y-101487809D01*
X36907809Y-101487812D01*
X36821649Y-101602906D01*
X36821645Y-101602913D01*
X36771403Y-101737620D01*
X36771401Y-101737627D01*
X36765000Y-101797155D01*
X36765000Y-102445000D01*
X37681988Y-102445000D01*
X37649075Y-102502007D01*
X37615000Y-102629174D01*
X37615000Y-102760826D01*
X37649075Y-102887993D01*
X37681988Y-102945000D01*
X36765000Y-102945000D01*
X36765000Y-103592844D01*
X36771401Y-103652372D01*
X36771403Y-103652379D01*
X36821645Y-103787086D01*
X36821649Y-103787093D01*
X36907809Y-103902187D01*
X36907812Y-103902190D01*
X37022906Y-103988350D01*
X37022913Y-103988354D01*
X37154470Y-104037422D01*
X37210404Y-104079293D01*
X37234821Y-104144758D01*
X37219969Y-104213031D01*
X37198819Y-104241285D01*
X37084889Y-104355215D01*
X36959951Y-104527179D01*
X36863444Y-104716585D01*
X36797753Y-104918760D01*
X36796799Y-104924784D01*
X36764500Y-105128713D01*
X34875500Y-105128713D01*
X34842246Y-104918757D01*
X34776557Y-104716588D01*
X34680051Y-104527184D01*
X34680049Y-104527181D01*
X34680048Y-104527179D01*
X34555109Y-104355213D01*
X34441181Y-104241285D01*
X34407696Y-104179962D01*
X34412680Y-104110270D01*
X34454552Y-104054337D01*
X34485529Y-104037422D01*
X34617086Y-103988354D01*
X34617093Y-103988350D01*
X34732187Y-103902190D01*
X34732190Y-103902187D01*
X34818350Y-103787093D01*
X34818354Y-103787086D01*
X34868596Y-103652379D01*
X34868598Y-103652372D01*
X34874999Y-103592844D01*
X34875000Y-103592827D01*
X34875000Y-102945000D01*
X33958012Y-102945000D01*
X33990925Y-102887993D01*
X34025000Y-102760826D01*
X34025000Y-102629174D01*
X33990925Y-102502007D01*
X33958012Y-102445000D01*
X34875000Y-102445000D01*
X34875000Y-101797172D01*
X34874999Y-101797155D01*
X34868598Y-101737627D01*
X34868596Y-101737620D01*
X34818354Y-101602913D01*
X34818350Y-101602906D01*
X34732190Y-101487812D01*
X34732187Y-101487809D01*
X34617093Y-101401649D01*
X34617086Y-101401645D01*
X34482379Y-101351403D01*
X34482372Y-101351401D01*
X34422844Y-101345000D01*
X33775000Y-101345000D01*
X33775000Y-102261988D01*
X33717993Y-102229075D01*
X33590826Y-102195000D01*
X33459174Y-102195000D01*
X33332007Y-102229075D01*
X33275000Y-102261988D01*
X33275000Y-101345000D01*
X32627155Y-101345000D01*
X32567627Y-101351401D01*
X32567620Y-101351403D01*
X32432913Y-101401645D01*
X32432906Y-101401649D01*
X32317812Y-101487809D01*
X32317809Y-101487812D01*
X32231649Y-101602906D01*
X32231645Y-101602913D01*
X32181403Y-101737620D01*
X32181401Y-101737627D01*
X32175000Y-101797155D01*
X32175000Y-102445000D01*
X33091988Y-102445000D01*
X33059075Y-102502007D01*
X33025000Y-102629174D01*
X33025000Y-102760826D01*
X33059075Y-102887993D01*
X33091988Y-102945000D01*
X32175000Y-102945000D01*
X32175000Y-103592844D01*
X32181401Y-103652372D01*
X32181403Y-103652379D01*
X32231645Y-103787086D01*
X32231649Y-103787093D01*
X32317809Y-103902187D01*
X32317812Y-103902190D01*
X32432906Y-103988350D01*
X32432913Y-103988354D01*
X32564470Y-104037422D01*
X32620404Y-104079293D01*
X32644821Y-104144758D01*
X32629969Y-104213031D01*
X32608819Y-104241285D01*
X32494889Y-104355215D01*
X32369951Y-104527179D01*
X32273444Y-104716585D01*
X32207753Y-104918760D01*
X32206799Y-104924784D01*
X32174500Y-105128713D01*
X13060267Y-105128713D01*
X13060267Y-98938713D01*
X54904500Y-98938713D01*
X54904500Y-99151287D01*
X54937754Y-99361243D01*
X54978048Y-99485256D01*
X55003444Y-99563414D01*
X55099951Y-99752820D01*
X55224890Y-99924786D01*
X55375209Y-100075105D01*
X55375214Y-100075109D01*
X55539793Y-100194682D01*
X55582459Y-100250011D01*
X55588438Y-100319625D01*
X55555833Y-100381420D01*
X55539793Y-100395318D01*
X55375214Y-100514890D01*
X55375209Y-100514894D01*
X55224890Y-100665213D01*
X55099951Y-100837179D01*
X55003444Y-101026585D01*
X54937753Y-101228760D01*
X54904500Y-101438713D01*
X54904500Y-101651286D01*
X54937753Y-101861239D01*
X55003444Y-102063414D01*
X55099951Y-102252820D01*
X55224890Y-102424786D01*
X55375209Y-102575105D01*
X55375214Y-102575109D01*
X55539793Y-102694682D01*
X55582459Y-102750011D01*
X55588438Y-102819625D01*
X55555833Y-102881420D01*
X55539793Y-102895318D01*
X55375214Y-103014890D01*
X55375209Y-103014894D01*
X55224890Y-103165213D01*
X55099951Y-103337179D01*
X55003444Y-103526585D01*
X54937753Y-103728760D01*
X54904500Y-103938713D01*
X54904500Y-104151286D01*
X54937753Y-104361239D01*
X55003444Y-104563414D01*
X55099951Y-104752820D01*
X55224890Y-104924786D01*
X55364068Y-105063964D01*
X55397553Y-105125287D01*
X55392569Y-105194979D01*
X55350697Y-105250912D01*
X55341484Y-105257183D01*
X55186659Y-105352680D01*
X55186655Y-105352683D01*
X55062684Y-105476654D01*
X54970643Y-105625875D01*
X54970641Y-105625880D01*
X54915494Y-105792302D01*
X54915493Y-105792309D01*
X54905000Y-105895013D01*
X54905000Y-106295000D01*
X55975854Y-106295000D01*
X55937370Y-106361657D01*
X55905000Y-106482465D01*
X55905000Y-106607535D01*
X55937370Y-106728343D01*
X55975854Y-106795000D01*
X54905001Y-106795000D01*
X54905001Y-107194986D01*
X54915494Y-107297697D01*
X54970641Y-107464119D01*
X54970643Y-107464124D01*
X55062684Y-107613345D01*
X55186654Y-107737315D01*
X55335875Y-107829356D01*
X55335880Y-107829358D01*
X55502302Y-107884505D01*
X55502309Y-107884506D01*
X55605019Y-107894999D01*
X56129999Y-107894999D01*
X56130000Y-107894998D01*
X56130000Y-106949145D01*
X56196657Y-106987630D01*
X56317465Y-107020000D01*
X56442535Y-107020000D01*
X56563343Y-106987630D01*
X56630000Y-106949145D01*
X56630000Y-107894999D01*
X57154972Y-107894999D01*
X57154986Y-107894998D01*
X57257697Y-107884505D01*
X57424119Y-107829358D01*
X57424124Y-107829356D01*
X57573345Y-107737315D01*
X57697315Y-107613345D01*
X57789356Y-107464124D01*
X57789358Y-107464119D01*
X57844505Y-107297697D01*
X57844506Y-107297690D01*
X57854999Y-107194986D01*
X57855000Y-107194973D01*
X57855000Y-106795000D01*
X56784146Y-106795000D01*
X56822630Y-106728343D01*
X56855000Y-106607535D01*
X56855000Y-106482465D01*
X56822630Y-106361657D01*
X56784146Y-106295000D01*
X57854999Y-106295000D01*
X57854999Y-105895028D01*
X57854998Y-105895013D01*
X57844505Y-105792302D01*
X57789358Y-105625880D01*
X57789356Y-105625875D01*
X57697315Y-105476654D01*
X57573345Y-105352684D01*
X57418515Y-105257184D01*
X57371791Y-105205236D01*
X57360568Y-105136273D01*
X57388412Y-105072191D01*
X57395909Y-105063986D01*
X57535104Y-104924792D01*
X57539487Y-104918760D01*
X57660048Y-104752820D01*
X57660047Y-104752820D01*
X57660051Y-104752816D01*
X57756557Y-104563412D01*
X57822246Y-104361243D01*
X57855500Y-104151287D01*
X57855500Y-103938713D01*
X57822246Y-103728757D01*
X57756557Y-103526588D01*
X57660051Y-103337184D01*
X57660049Y-103337181D01*
X57660048Y-103337179D01*
X57535109Y-103165213D01*
X57384792Y-103014896D01*
X57367052Y-103002007D01*
X57220204Y-102895316D01*
X57177540Y-102839989D01*
X57171561Y-102770376D01*
X57204166Y-102708580D01*
X57220199Y-102694686D01*
X57384792Y-102575104D01*
X57535104Y-102424792D01*
X57535106Y-102424788D01*
X57535109Y-102424786D01*
X57660048Y-102252820D01*
X57660047Y-102252820D01*
X57660051Y-102252816D01*
X57756557Y-102063412D01*
X57822246Y-101861243D01*
X57855500Y-101651287D01*
X57855500Y-101438713D01*
X57822246Y-101228757D01*
X57756557Y-101026588D01*
X57660051Y-100837184D01*
X57660049Y-100837181D01*
X57660048Y-100837179D01*
X57535109Y-100665213D01*
X57384792Y-100514896D01*
X57384784Y-100514890D01*
X57220204Y-100395316D01*
X57177540Y-100339989D01*
X57171561Y-100270376D01*
X57204166Y-100208580D01*
X57220199Y-100194686D01*
X57384792Y-100075104D01*
X57535104Y-99924792D01*
X57535106Y-99924788D01*
X57535109Y-99924786D01*
X57660048Y-99752820D01*
X57660047Y-99752820D01*
X57660051Y-99752816D01*
X57756557Y-99563412D01*
X57822246Y-99361243D01*
X57855500Y-99151287D01*
X57855500Y-98938713D01*
X61337833Y-98938713D01*
X61337833Y-99151287D01*
X61371087Y-99361243D01*
X61411381Y-99485256D01*
X61436777Y-99563414D01*
X61533284Y-99752820D01*
X61658223Y-99924786D01*
X61808542Y-100075105D01*
X61808547Y-100075109D01*
X61973126Y-100194682D01*
X62015792Y-100250011D01*
X62021771Y-100319625D01*
X61989166Y-100381420D01*
X61973126Y-100395318D01*
X61808547Y-100514890D01*
X61808542Y-100514894D01*
X61658223Y-100665213D01*
X61533284Y-100837179D01*
X61436777Y-101026585D01*
X61371086Y-101228760D01*
X61337833Y-101438713D01*
X61337833Y-101651286D01*
X61371086Y-101861239D01*
X61436777Y-102063414D01*
X61533284Y-102252820D01*
X61658223Y-102424786D01*
X61808542Y-102575105D01*
X61808547Y-102575109D01*
X61973126Y-102694682D01*
X62015792Y-102750011D01*
X62021771Y-102819625D01*
X61989166Y-102881420D01*
X61973126Y-102895318D01*
X61808547Y-103014890D01*
X61808542Y-103014894D01*
X61658223Y-103165213D01*
X61533284Y-103337179D01*
X61436777Y-103526585D01*
X61371086Y-103728760D01*
X61337833Y-103938713D01*
X61337833Y-104151286D01*
X61371086Y-104361239D01*
X61436777Y-104563414D01*
X61533284Y-104752820D01*
X61658223Y-104924786D01*
X61797401Y-105063964D01*
X61830886Y-105125287D01*
X61825902Y-105194979D01*
X61784030Y-105250912D01*
X61774817Y-105257183D01*
X61619992Y-105352680D01*
X61619988Y-105352683D01*
X61496017Y-105476654D01*
X61403976Y-105625875D01*
X61403974Y-105625880D01*
X61348827Y-105792302D01*
X61348826Y-105792309D01*
X61338333Y-105895013D01*
X61338333Y-106295000D01*
X62409187Y-106295000D01*
X62370703Y-106361657D01*
X62338333Y-106482465D01*
X62338333Y-106607535D01*
X62370703Y-106728343D01*
X62409187Y-106795000D01*
X61338334Y-106795000D01*
X61338334Y-107194986D01*
X61348827Y-107297697D01*
X61403974Y-107464119D01*
X61403976Y-107464124D01*
X61496017Y-107613345D01*
X61619987Y-107737315D01*
X61769208Y-107829356D01*
X61769213Y-107829358D01*
X61935635Y-107884505D01*
X61935642Y-107884506D01*
X62038352Y-107894999D01*
X62563332Y-107894999D01*
X62563333Y-107894998D01*
X62563333Y-106949145D01*
X62629990Y-106987630D01*
X62750798Y-107020000D01*
X62875868Y-107020000D01*
X62996676Y-106987630D01*
X63063333Y-106949145D01*
X63063333Y-107894999D01*
X63588305Y-107894999D01*
X63588319Y-107894998D01*
X63691030Y-107884505D01*
X63857452Y-107829358D01*
X63857457Y-107829356D01*
X64006678Y-107737315D01*
X64130648Y-107613345D01*
X64222689Y-107464124D01*
X64222691Y-107464119D01*
X64277838Y-107297697D01*
X64277839Y-107297690D01*
X64288332Y-107194986D01*
X64288333Y-107194973D01*
X64288333Y-106795000D01*
X63217479Y-106795000D01*
X63255963Y-106728343D01*
X63288333Y-106607535D01*
X63288333Y-106482465D01*
X63255963Y-106361657D01*
X63217479Y-106295000D01*
X64288332Y-106295000D01*
X64288332Y-105895028D01*
X64288331Y-105895013D01*
X64277838Y-105792302D01*
X64222691Y-105625880D01*
X64222689Y-105625875D01*
X64130648Y-105476654D01*
X64006678Y-105352684D01*
X63851848Y-105257184D01*
X63805124Y-105205236D01*
X63793901Y-105136273D01*
X63821745Y-105072191D01*
X63829242Y-105063986D01*
X63968437Y-104924792D01*
X63972820Y-104918760D01*
X64093381Y-104752820D01*
X64093380Y-104752820D01*
X64093384Y-104752816D01*
X64189890Y-104563412D01*
X64255579Y-104361243D01*
X64288833Y-104151287D01*
X64288833Y-103938713D01*
X64255579Y-103728757D01*
X64189890Y-103526588D01*
X64093384Y-103337184D01*
X64093382Y-103337181D01*
X64093381Y-103337179D01*
X63968442Y-103165213D01*
X63818125Y-103014896D01*
X63800385Y-103002007D01*
X63653537Y-102895316D01*
X63610873Y-102839989D01*
X63604894Y-102770376D01*
X63637499Y-102708580D01*
X63653532Y-102694686D01*
X63818125Y-102575104D01*
X63968437Y-102424792D01*
X63968439Y-102424788D01*
X63968442Y-102424786D01*
X64093381Y-102252820D01*
X64093380Y-102252820D01*
X64093384Y-102252816D01*
X64189890Y-102063412D01*
X64255579Y-101861243D01*
X64288833Y-101651287D01*
X64288833Y-101438713D01*
X64255579Y-101228757D01*
X64189890Y-101026588D01*
X64093384Y-100837184D01*
X64093382Y-100837181D01*
X64093381Y-100837179D01*
X63968442Y-100665213D01*
X63818125Y-100514896D01*
X63818117Y-100514890D01*
X63653537Y-100395316D01*
X63610873Y-100339989D01*
X63604894Y-100270376D01*
X63637499Y-100208580D01*
X63653532Y-100194686D01*
X63818125Y-100075104D01*
X63968437Y-99924792D01*
X63968439Y-99924788D01*
X63968442Y-99924786D01*
X64093381Y-99752820D01*
X64093380Y-99752820D01*
X64093384Y-99752816D01*
X64189890Y-99563412D01*
X64255579Y-99361243D01*
X64288833Y-99151287D01*
X64288833Y-98938713D01*
X67771167Y-98938713D01*
X67771167Y-99151287D01*
X67804421Y-99361243D01*
X67844715Y-99485256D01*
X67870111Y-99563414D01*
X67966618Y-99752820D01*
X68091557Y-99924786D01*
X68241876Y-100075105D01*
X68241881Y-100075109D01*
X68406460Y-100194682D01*
X68449126Y-100250011D01*
X68455105Y-100319625D01*
X68422500Y-100381420D01*
X68406460Y-100395318D01*
X68241881Y-100514890D01*
X68241876Y-100514894D01*
X68091557Y-100665213D01*
X67966618Y-100837179D01*
X67870111Y-101026585D01*
X67804420Y-101228760D01*
X67771167Y-101438713D01*
X67771167Y-101651286D01*
X67804420Y-101861239D01*
X67870111Y-102063414D01*
X67966618Y-102252820D01*
X68091557Y-102424786D01*
X68241876Y-102575105D01*
X68241881Y-102575109D01*
X68406460Y-102694682D01*
X68449126Y-102750011D01*
X68455105Y-102819625D01*
X68422500Y-102881420D01*
X68406460Y-102895318D01*
X68241881Y-103014890D01*
X68241876Y-103014894D01*
X68091557Y-103165213D01*
X67966618Y-103337179D01*
X67870111Y-103526585D01*
X67804420Y-103728760D01*
X67771167Y-103938713D01*
X67771167Y-104151286D01*
X67804420Y-104361239D01*
X67870111Y-104563414D01*
X67966618Y-104752820D01*
X68091557Y-104924786D01*
X68230735Y-105063964D01*
X68264220Y-105125287D01*
X68259236Y-105194979D01*
X68217364Y-105250912D01*
X68208151Y-105257183D01*
X68053326Y-105352680D01*
X68053322Y-105352683D01*
X67929351Y-105476654D01*
X67837310Y-105625875D01*
X67837308Y-105625880D01*
X67782161Y-105792302D01*
X67782160Y-105792309D01*
X67771667Y-105895013D01*
X67771667Y-106295000D01*
X68842521Y-106295000D01*
X68804037Y-106361657D01*
X68771667Y-106482465D01*
X68771667Y-106607535D01*
X68804037Y-106728343D01*
X68842521Y-106795000D01*
X67771668Y-106795000D01*
X67771668Y-107194986D01*
X67782161Y-107297697D01*
X67837308Y-107464119D01*
X67837310Y-107464124D01*
X67929351Y-107613345D01*
X68053321Y-107737315D01*
X68202542Y-107829356D01*
X68202547Y-107829358D01*
X68368969Y-107884505D01*
X68368976Y-107884506D01*
X68471686Y-107894999D01*
X68996666Y-107894999D01*
X68996667Y-107894998D01*
X68996667Y-106949145D01*
X69063324Y-106987630D01*
X69184132Y-107020000D01*
X69309202Y-107020000D01*
X69430010Y-106987630D01*
X69496667Y-106949145D01*
X69496667Y-107894999D01*
X70021639Y-107894999D01*
X70021653Y-107894998D01*
X70124364Y-107884505D01*
X70290786Y-107829358D01*
X70290791Y-107829356D01*
X70440012Y-107737315D01*
X70563982Y-107613345D01*
X70656023Y-107464124D01*
X70656025Y-107464119D01*
X70711172Y-107297697D01*
X70711173Y-107297690D01*
X70721666Y-107194986D01*
X70721667Y-107194973D01*
X70721667Y-106795000D01*
X69650813Y-106795000D01*
X69689297Y-106728343D01*
X69721667Y-106607535D01*
X69721667Y-106482465D01*
X69689297Y-106361657D01*
X69650813Y-106295000D01*
X70721666Y-106295000D01*
X70721666Y-105895028D01*
X70721665Y-105895013D01*
X70711172Y-105792302D01*
X70656025Y-105625880D01*
X70656023Y-105625875D01*
X70563982Y-105476654D01*
X70440012Y-105352684D01*
X70285182Y-105257184D01*
X70238458Y-105205236D01*
X70227235Y-105136273D01*
X70255079Y-105072191D01*
X70262576Y-105063986D01*
X70401771Y-104924792D01*
X70406154Y-104918760D01*
X70526715Y-104752820D01*
X70526714Y-104752820D01*
X70526718Y-104752816D01*
X70623224Y-104563412D01*
X70688913Y-104361243D01*
X70722167Y-104151287D01*
X70722167Y-103938713D01*
X70688913Y-103728757D01*
X70623224Y-103526588D01*
X70526718Y-103337184D01*
X70526716Y-103337181D01*
X70526715Y-103337179D01*
X70401776Y-103165213D01*
X70251459Y-103014896D01*
X70233719Y-103002007D01*
X70086871Y-102895316D01*
X70044207Y-102839989D01*
X70038228Y-102770376D01*
X70070833Y-102708580D01*
X70086866Y-102694686D01*
X70251459Y-102575104D01*
X70401771Y-102424792D01*
X70401773Y-102424788D01*
X70401776Y-102424786D01*
X70526715Y-102252820D01*
X70526714Y-102252820D01*
X70526718Y-102252816D01*
X70623224Y-102063412D01*
X70688913Y-101861243D01*
X70722167Y-101651287D01*
X70722167Y-101438713D01*
X70688913Y-101228757D01*
X70623224Y-101026588D01*
X70526718Y-100837184D01*
X70526716Y-100837181D01*
X70526715Y-100837179D01*
X70401776Y-100665213D01*
X70251459Y-100514896D01*
X70251451Y-100514890D01*
X70086871Y-100395316D01*
X70044207Y-100339989D01*
X70038228Y-100270376D01*
X70070833Y-100208580D01*
X70086866Y-100194686D01*
X70251459Y-100075104D01*
X70401771Y-99924792D01*
X70401773Y-99924788D01*
X70401776Y-99924786D01*
X70526715Y-99752820D01*
X70526714Y-99752820D01*
X70526718Y-99752816D01*
X70623224Y-99563412D01*
X70688913Y-99361243D01*
X70722167Y-99151287D01*
X70722167Y-98938713D01*
X74204500Y-98938713D01*
X74204500Y-99151287D01*
X74237754Y-99361243D01*
X74278048Y-99485256D01*
X74303444Y-99563414D01*
X74399951Y-99752820D01*
X74524890Y-99924786D01*
X74675209Y-100075105D01*
X74675214Y-100075109D01*
X74839793Y-100194682D01*
X74882459Y-100250011D01*
X74888438Y-100319625D01*
X74855833Y-100381420D01*
X74839793Y-100395318D01*
X74675214Y-100514890D01*
X74675209Y-100514894D01*
X74524890Y-100665213D01*
X74399951Y-100837179D01*
X74303444Y-101026585D01*
X74237753Y-101228760D01*
X74204500Y-101438713D01*
X74204500Y-101651286D01*
X74237753Y-101861239D01*
X74303444Y-102063414D01*
X74399951Y-102252820D01*
X74524890Y-102424786D01*
X74675209Y-102575105D01*
X74675214Y-102575109D01*
X74839793Y-102694682D01*
X74882459Y-102750011D01*
X74888438Y-102819625D01*
X74855833Y-102881420D01*
X74839793Y-102895318D01*
X74675214Y-103014890D01*
X74675209Y-103014894D01*
X74524890Y-103165213D01*
X74399951Y-103337179D01*
X74303444Y-103526585D01*
X74237753Y-103728760D01*
X74204500Y-103938713D01*
X74204500Y-104151286D01*
X74237753Y-104361239D01*
X74303444Y-104563414D01*
X74399951Y-104752820D01*
X74524890Y-104924786D01*
X74664068Y-105063964D01*
X74697553Y-105125287D01*
X74692569Y-105194979D01*
X74650697Y-105250912D01*
X74641484Y-105257183D01*
X74486659Y-105352680D01*
X74486655Y-105352683D01*
X74362684Y-105476654D01*
X74270643Y-105625875D01*
X74270641Y-105625880D01*
X74215494Y-105792302D01*
X74215493Y-105792309D01*
X74205000Y-105895013D01*
X74205000Y-106295000D01*
X75275854Y-106295000D01*
X75237370Y-106361657D01*
X75205000Y-106482465D01*
X75205000Y-106607535D01*
X75237370Y-106728343D01*
X75275854Y-106795000D01*
X74205001Y-106795000D01*
X74205001Y-107194986D01*
X74215494Y-107297697D01*
X74270641Y-107464119D01*
X74270643Y-107464124D01*
X74362684Y-107613345D01*
X74486654Y-107737315D01*
X74635875Y-107829356D01*
X74635880Y-107829358D01*
X74802302Y-107884505D01*
X74802309Y-107884506D01*
X74905019Y-107894999D01*
X75429999Y-107894999D01*
X75430000Y-107894998D01*
X75430000Y-106949145D01*
X75496657Y-106987630D01*
X75617465Y-107020000D01*
X75742535Y-107020000D01*
X75863343Y-106987630D01*
X75930000Y-106949145D01*
X75930000Y-107894999D01*
X76454972Y-107894999D01*
X76454986Y-107894998D01*
X76557697Y-107884505D01*
X76724119Y-107829358D01*
X76724124Y-107829356D01*
X76873345Y-107737315D01*
X76997315Y-107613345D01*
X77089356Y-107464124D01*
X77089358Y-107464119D01*
X77144505Y-107297697D01*
X77144506Y-107297690D01*
X77154999Y-107194986D01*
X77155000Y-107194973D01*
X77155000Y-106795000D01*
X76084146Y-106795000D01*
X76122630Y-106728343D01*
X76155000Y-106607535D01*
X76155000Y-106482465D01*
X76122630Y-106361657D01*
X76084146Y-106295000D01*
X77154999Y-106295000D01*
X77154999Y-106071457D01*
X85674499Y-106071457D01*
X85702379Y-106211614D01*
X85702381Y-106211620D01*
X85757069Y-106343650D01*
X85757074Y-106343659D01*
X85836467Y-106462478D01*
X85836470Y-106462482D01*
X85937517Y-106563529D01*
X85937521Y-106563532D01*
X86056340Y-106642925D01*
X86056346Y-106642928D01*
X86056347Y-106642929D01*
X86188380Y-106697619D01*
X86188384Y-106697619D01*
X86188385Y-106697620D01*
X86328542Y-106725500D01*
X86328545Y-106725500D01*
X86471457Y-106725500D01*
X86565751Y-106706742D01*
X86611620Y-106697619D01*
X86743653Y-106642929D01*
X86862479Y-106563532D01*
X86963532Y-106462479D01*
X87042929Y-106343653D01*
X87097619Y-106211620D01*
X87125500Y-106071455D01*
X87125500Y-105928545D01*
X87125500Y-105928542D01*
X87097620Y-105788385D01*
X87097619Y-105788384D01*
X87097619Y-105788380D01*
X87042929Y-105656347D01*
X87042928Y-105656346D01*
X87042925Y-105656340D01*
X86963532Y-105537521D01*
X86963529Y-105537517D01*
X86862482Y-105436470D01*
X86862478Y-105436467D01*
X86743659Y-105357074D01*
X86743650Y-105357069D01*
X86611620Y-105302381D01*
X86611614Y-105302379D01*
X86471457Y-105274500D01*
X86471455Y-105274500D01*
X86328545Y-105274500D01*
X86328543Y-105274500D01*
X86188385Y-105302379D01*
X86188379Y-105302381D01*
X86056349Y-105357069D01*
X86056340Y-105357074D01*
X85937521Y-105436467D01*
X85937517Y-105436470D01*
X85836470Y-105537517D01*
X85836467Y-105537521D01*
X85757074Y-105656340D01*
X85757069Y-105656349D01*
X85702381Y-105788379D01*
X85702379Y-105788385D01*
X85674500Y-105928542D01*
X85674500Y-105928545D01*
X85674500Y-106071455D01*
X85674500Y-106071457D01*
X85674499Y-106071457D01*
X77154999Y-106071457D01*
X77154999Y-105895028D01*
X77154998Y-105895013D01*
X77144505Y-105792302D01*
X77089358Y-105625880D01*
X77089356Y-105625875D01*
X76997315Y-105476654D01*
X76873345Y-105352684D01*
X76718515Y-105257184D01*
X76671791Y-105205236D01*
X76660568Y-105136273D01*
X76688412Y-105072191D01*
X76695909Y-105063986D01*
X76835104Y-104924792D01*
X76839487Y-104918760D01*
X76960048Y-104752820D01*
X76960047Y-104752820D01*
X76960051Y-104752816D01*
X77056557Y-104563412D01*
X77122246Y-104361243D01*
X77155500Y-104151287D01*
X77155500Y-103938713D01*
X77122246Y-103728757D01*
X77056557Y-103526588D01*
X76960051Y-103337184D01*
X76960049Y-103337181D01*
X76960048Y-103337179D01*
X76835109Y-103165213D01*
X76684792Y-103014896D01*
X76667052Y-103002007D01*
X76520204Y-102895316D01*
X76477540Y-102839989D01*
X76471561Y-102770376D01*
X76504166Y-102708580D01*
X76520199Y-102694686D01*
X76684792Y-102575104D01*
X76835104Y-102424792D01*
X76835106Y-102424788D01*
X76835109Y-102424786D01*
X76960048Y-102252820D01*
X76960047Y-102252820D01*
X76960051Y-102252816D01*
X77056557Y-102063412D01*
X77122246Y-101861243D01*
X77155500Y-101651287D01*
X77155500Y-101438713D01*
X77122246Y-101228757D01*
X77056557Y-101026588D01*
X76960051Y-100837184D01*
X76960049Y-100837181D01*
X76960048Y-100837179D01*
X76835109Y-100665213D01*
X76684792Y-100514896D01*
X76684784Y-100514890D01*
X76520204Y-100395316D01*
X76477540Y-100339989D01*
X76471561Y-100270376D01*
X76504166Y-100208580D01*
X76520199Y-100194686D01*
X76684792Y-100075104D01*
X76835104Y-99924792D01*
X76835106Y-99924788D01*
X76835109Y-99924786D01*
X76960048Y-99752820D01*
X76960047Y-99752820D01*
X76960051Y-99752816D01*
X77056557Y-99563412D01*
X77122246Y-99361243D01*
X77155500Y-99151287D01*
X77155500Y-98938713D01*
X77122246Y-98728757D01*
X77056557Y-98526588D01*
X76960051Y-98337184D01*
X76960049Y-98337181D01*
X76960048Y-98337179D01*
X76835109Y-98165213D01*
X76684786Y-98014890D01*
X76512820Y-97889951D01*
X76323414Y-97793444D01*
X76323413Y-97793443D01*
X76323412Y-97793443D01*
X76121243Y-97727754D01*
X76121241Y-97727753D01*
X76121240Y-97727753D01*
X75953557Y-97701195D01*
X75911287Y-97694500D01*
X75448713Y-97694500D01*
X75406443Y-97701195D01*
X75238760Y-97727753D01*
X75036585Y-97793444D01*
X74847179Y-97889951D01*
X74675213Y-98014890D01*
X74524890Y-98165213D01*
X74399951Y-98337179D01*
X74303444Y-98526585D01*
X74237753Y-98728760D01*
X74204500Y-98938713D01*
X70722167Y-98938713D01*
X70688913Y-98728757D01*
X70623224Y-98526588D01*
X70526718Y-98337184D01*
X70526716Y-98337181D01*
X70526715Y-98337179D01*
X70401776Y-98165213D01*
X70251453Y-98014890D01*
X70079487Y-97889951D01*
X69890081Y-97793444D01*
X69890080Y-97793443D01*
X69890079Y-97793443D01*
X69687910Y-97727754D01*
X69687908Y-97727753D01*
X69687907Y-97727753D01*
X69520224Y-97701195D01*
X69477954Y-97694500D01*
X69015380Y-97694500D01*
X68973110Y-97701195D01*
X68805427Y-97727753D01*
X68603252Y-97793444D01*
X68413846Y-97889951D01*
X68241880Y-98014890D01*
X68091557Y-98165213D01*
X67966618Y-98337179D01*
X67870111Y-98526585D01*
X67804420Y-98728760D01*
X67771167Y-98938713D01*
X64288833Y-98938713D01*
X64255579Y-98728757D01*
X64189890Y-98526588D01*
X64093384Y-98337184D01*
X64093382Y-98337181D01*
X64093381Y-98337179D01*
X63968442Y-98165213D01*
X63818119Y-98014890D01*
X63646153Y-97889951D01*
X63456747Y-97793444D01*
X63456746Y-97793443D01*
X63456745Y-97793443D01*
X63254576Y-97727754D01*
X63254574Y-97727753D01*
X63254573Y-97727753D01*
X63086890Y-97701195D01*
X63044620Y-97694500D01*
X62582046Y-97694500D01*
X62539776Y-97701195D01*
X62372093Y-97727753D01*
X62169918Y-97793444D01*
X61980512Y-97889951D01*
X61808546Y-98014890D01*
X61658223Y-98165213D01*
X61533284Y-98337179D01*
X61436777Y-98526585D01*
X61371086Y-98728760D01*
X61337833Y-98938713D01*
X57855500Y-98938713D01*
X57822246Y-98728757D01*
X57756557Y-98526588D01*
X57660051Y-98337184D01*
X57660049Y-98337181D01*
X57660048Y-98337179D01*
X57535109Y-98165213D01*
X57384786Y-98014890D01*
X57212820Y-97889951D01*
X57023414Y-97793444D01*
X57023413Y-97793443D01*
X57023412Y-97793443D01*
X56821243Y-97727754D01*
X56821241Y-97727753D01*
X56821240Y-97727753D01*
X56653557Y-97701195D01*
X56611287Y-97694500D01*
X56148713Y-97694500D01*
X56106443Y-97701195D01*
X55938760Y-97727753D01*
X55736585Y-97793444D01*
X55547179Y-97889951D01*
X55375213Y-98014890D01*
X55224890Y-98165213D01*
X55099951Y-98337179D01*
X55003444Y-98526585D01*
X54937753Y-98728760D01*
X54904500Y-98938713D01*
X13060267Y-98938713D01*
X13060267Y-96771457D01*
X36574499Y-96771457D01*
X36602379Y-96911614D01*
X36602381Y-96911620D01*
X36657069Y-97043650D01*
X36657074Y-97043659D01*
X36736467Y-97162478D01*
X36736470Y-97162482D01*
X36837517Y-97263529D01*
X36837521Y-97263532D01*
X36956340Y-97342925D01*
X36956346Y-97342928D01*
X36956347Y-97342929D01*
X37088380Y-97397619D01*
X37088384Y-97397619D01*
X37088385Y-97397620D01*
X37228542Y-97425500D01*
X37228545Y-97425500D01*
X37371457Y-97425500D01*
X37465751Y-97406742D01*
X37511620Y-97397619D01*
X37643653Y-97342929D01*
X37762479Y-97263532D01*
X37863532Y-97162479D01*
X37942929Y-97043653D01*
X37972834Y-96971457D01*
X66074499Y-96971457D01*
X66102379Y-97111614D01*
X66102381Y-97111620D01*
X66157069Y-97243650D01*
X66157074Y-97243659D01*
X66236467Y-97362478D01*
X66236470Y-97362482D01*
X66337517Y-97463529D01*
X66337521Y-97463532D01*
X66456340Y-97542925D01*
X66456346Y-97542928D01*
X66456347Y-97542929D01*
X66588380Y-97597619D01*
X66588384Y-97597619D01*
X66588385Y-97597620D01*
X66728542Y-97625500D01*
X66728545Y-97625500D01*
X66871457Y-97625500D01*
X66965751Y-97606742D01*
X67011620Y-97597619D01*
X67143653Y-97542929D01*
X67262479Y-97463532D01*
X67363532Y-97362479D01*
X67442929Y-97243653D01*
X67497619Y-97111620D01*
X67511946Y-97039596D01*
X67518025Y-97009038D01*
X92274500Y-97009038D01*
X92274500Y-97260962D01*
X92303352Y-97443124D01*
X92313910Y-97509785D01*
X92391760Y-97749383D01*
X92506132Y-97973848D01*
X92573764Y-98066937D01*
X92597244Y-98132743D01*
X92581418Y-98200797D01*
X92561128Y-98227503D01*
X92432287Y-98356345D01*
X92340187Y-98505662D01*
X92340186Y-98505665D01*
X92285001Y-98672202D01*
X92285001Y-98672203D01*
X92285000Y-98672203D01*
X92274500Y-98774982D01*
X92274500Y-100575017D01*
X92285000Y-100677796D01*
X92285001Y-100677798D01*
X92340186Y-100844335D01*
X92432288Y-100993656D01*
X92556344Y-101117712D01*
X92705665Y-101209814D01*
X92872202Y-101264999D01*
X92974990Y-101275500D01*
X92974995Y-101275500D01*
X94775005Y-101275500D01*
X94775010Y-101275500D01*
X94877798Y-101264999D01*
X95044335Y-101209814D01*
X95193656Y-101117712D01*
X95317712Y-100993656D01*
X95409814Y-100844335D01*
X95464999Y-100677798D01*
X95475500Y-100575010D01*
X95475500Y-98774990D01*
X95464999Y-98672202D01*
X95409814Y-98505665D01*
X95317712Y-98356344D01*
X95193656Y-98232288D01*
X95188871Y-98227503D01*
X95155386Y-98166180D01*
X95160370Y-98096488D01*
X95176234Y-98066937D01*
X95243870Y-97973845D01*
X95358241Y-97749379D01*
X95436090Y-97509785D01*
X95475500Y-97260962D01*
X95475500Y-97009038D01*
X95436090Y-96760215D01*
X95358241Y-96520621D01*
X95358239Y-96520618D01*
X95358239Y-96520616D01*
X95274539Y-96356347D01*
X95243870Y-96296155D01*
X95201267Y-96237517D01*
X95095798Y-96092350D01*
X95095794Y-96092345D01*
X94917654Y-95914205D01*
X94917649Y-95914201D01*
X94713848Y-95766132D01*
X94713847Y-95766131D01*
X94713845Y-95766130D01*
X94643747Y-95730413D01*
X94489383Y-95651760D01*
X94249785Y-95573910D01*
X94000962Y-95534500D01*
X93749038Y-95534500D01*
X93624626Y-95554205D01*
X93500214Y-95573910D01*
X93260616Y-95651760D01*
X93036151Y-95766132D01*
X92832350Y-95914201D01*
X92832345Y-95914205D01*
X92654205Y-96092345D01*
X92654201Y-96092350D01*
X92506132Y-96296151D01*
X92391760Y-96520616D01*
X92313910Y-96760214D01*
X92289931Y-96911612D01*
X92274500Y-97009038D01*
X67518025Y-97009038D01*
X67523806Y-96979974D01*
X67523806Y-96979973D01*
X67525499Y-96971459D01*
X67525500Y-96971457D01*
X67525500Y-96828542D01*
X67497620Y-96688385D01*
X67497619Y-96688384D01*
X67497619Y-96688380D01*
X67443835Y-96558535D01*
X67442930Y-96556349D01*
X67442925Y-96556340D01*
X67363532Y-96437521D01*
X67363529Y-96437517D01*
X67262482Y-96336470D01*
X67262478Y-96336467D01*
X67143659Y-96257074D01*
X67143650Y-96257069D01*
X67011620Y-96202381D01*
X67011614Y-96202379D01*
X66871457Y-96174500D01*
X66871455Y-96174500D01*
X66728545Y-96174500D01*
X66728543Y-96174500D01*
X66588385Y-96202379D01*
X66588379Y-96202381D01*
X66456349Y-96257069D01*
X66456340Y-96257074D01*
X66337521Y-96336467D01*
X66337517Y-96336470D01*
X66236470Y-96437517D01*
X66236467Y-96437521D01*
X66157074Y-96556340D01*
X66157069Y-96556349D01*
X66102381Y-96688379D01*
X66102379Y-96688385D01*
X66074500Y-96828542D01*
X66074500Y-96828545D01*
X66074500Y-96971455D01*
X66074500Y-96971457D01*
X66074499Y-96971457D01*
X37972834Y-96971457D01*
X37997619Y-96911620D01*
X38014476Y-96826875D01*
X38020168Y-96798262D01*
X38020168Y-96798260D01*
X38025500Y-96771456D01*
X38025500Y-96628542D01*
X37997620Y-96488385D01*
X37997619Y-96488384D01*
X37997619Y-96488380D01*
X37942929Y-96356347D01*
X37942928Y-96356346D01*
X37942925Y-96356340D01*
X37863532Y-96237521D01*
X37863529Y-96237517D01*
X37762482Y-96136470D01*
X37762478Y-96136467D01*
X37643659Y-96057074D01*
X37643650Y-96057069D01*
X37511620Y-96002381D01*
X37511614Y-96002379D01*
X37371457Y-95974500D01*
X37371455Y-95974500D01*
X37228545Y-95974500D01*
X37228543Y-95974500D01*
X37088385Y-96002379D01*
X37088379Y-96002381D01*
X36956349Y-96057069D01*
X36956340Y-96057074D01*
X36837521Y-96136467D01*
X36837517Y-96136470D01*
X36736470Y-96237517D01*
X36736467Y-96237521D01*
X36657074Y-96356340D01*
X36657069Y-96356349D01*
X36602381Y-96488379D01*
X36602379Y-96488385D01*
X36574500Y-96628542D01*
X36574500Y-96628545D01*
X36574500Y-96771455D01*
X36574500Y-96771457D01*
X36574499Y-96771457D01*
X13060267Y-96771457D01*
X13060267Y-94471457D01*
X62774499Y-94471457D01*
X62802379Y-94611614D01*
X62802381Y-94611620D01*
X62857069Y-94743650D01*
X62857074Y-94743659D01*
X62936467Y-94862478D01*
X62936470Y-94862482D01*
X63037517Y-94963529D01*
X63037521Y-94963532D01*
X63156340Y-95042925D01*
X63156346Y-95042928D01*
X63156347Y-95042929D01*
X63288380Y-95097619D01*
X63288384Y-95097619D01*
X63288385Y-95097620D01*
X63428542Y-95125500D01*
X63428545Y-95125500D01*
X63571457Y-95125500D01*
X63665751Y-95106742D01*
X63711620Y-95097619D01*
X63843653Y-95042929D01*
X63962479Y-94963532D01*
X64063532Y-94862479D01*
X64142929Y-94743653D01*
X64197619Y-94611620D01*
X64225500Y-94471455D01*
X64225500Y-94328545D01*
X64225500Y-94328542D01*
X64197620Y-94188385D01*
X64197619Y-94188384D01*
X64197619Y-94188380D01*
X64142929Y-94056347D01*
X64142928Y-94056346D01*
X64142925Y-94056340D01*
X64063532Y-93937521D01*
X64063529Y-93937517D01*
X63962482Y-93836470D01*
X63962478Y-93836467D01*
X63843659Y-93757074D01*
X63843650Y-93757069D01*
X63711620Y-93702381D01*
X63711614Y-93702379D01*
X63571457Y-93674500D01*
X63571455Y-93674500D01*
X63428545Y-93674500D01*
X63428543Y-93674500D01*
X63288385Y-93702379D01*
X63288379Y-93702381D01*
X63156349Y-93757069D01*
X63156340Y-93757074D01*
X63037521Y-93836467D01*
X63037517Y-93836470D01*
X62936470Y-93937517D01*
X62936467Y-93937521D01*
X62857074Y-94056340D01*
X62857069Y-94056349D01*
X62802381Y-94188379D01*
X62802379Y-94188385D01*
X62774500Y-94328542D01*
X62774500Y-94328545D01*
X62774500Y-94471455D01*
X62774500Y-94471457D01*
X62774499Y-94471457D01*
X13060267Y-94471457D01*
X13060267Y-93071457D01*
X53074499Y-93071457D01*
X53102379Y-93211614D01*
X53102381Y-93211620D01*
X53157069Y-93343650D01*
X53157074Y-93343659D01*
X53236467Y-93462478D01*
X53236470Y-93462482D01*
X53337517Y-93563529D01*
X53337521Y-93563532D01*
X53456340Y-93642925D01*
X53456346Y-93642928D01*
X53456347Y-93642929D01*
X53588380Y-93697619D01*
X53588384Y-93697619D01*
X53588385Y-93697620D01*
X53728542Y-93725500D01*
X53728545Y-93725500D01*
X53871457Y-93725500D01*
X53987690Y-93702379D01*
X54011620Y-93697619D01*
X54143653Y-93642929D01*
X54262479Y-93563532D01*
X54363532Y-93462479D01*
X54442929Y-93343653D01*
X54497619Y-93211620D01*
X54525500Y-93071455D01*
X54525500Y-92928545D01*
X54525500Y-92928542D01*
X54497620Y-92788385D01*
X54497619Y-92788384D01*
X54497619Y-92788380D01*
X54442929Y-92656347D01*
X54442928Y-92656346D01*
X54442925Y-92656340D01*
X54363532Y-92537521D01*
X54363529Y-92537517D01*
X54262482Y-92436470D01*
X54262478Y-92436467D01*
X54143659Y-92357074D01*
X54143650Y-92357069D01*
X54011620Y-92302381D01*
X54011614Y-92302379D01*
X53871457Y-92274500D01*
X53871455Y-92274500D01*
X53728545Y-92274500D01*
X53728543Y-92274500D01*
X53588385Y-92302379D01*
X53588379Y-92302381D01*
X53456349Y-92357069D01*
X53456340Y-92357074D01*
X53337521Y-92436467D01*
X53337517Y-92436470D01*
X53236470Y-92537517D01*
X53236467Y-92537521D01*
X53157074Y-92656340D01*
X53157069Y-92656349D01*
X53102381Y-92788379D01*
X53102379Y-92788385D01*
X53074500Y-92928542D01*
X53074500Y-92928545D01*
X53074500Y-93071455D01*
X53074500Y-93071457D01*
X53074499Y-93071457D01*
X13060267Y-93071457D01*
X13060267Y-91071457D01*
X53074499Y-91071457D01*
X53102379Y-91211614D01*
X53102381Y-91211620D01*
X53157069Y-91343650D01*
X53157074Y-91343659D01*
X53236467Y-91462478D01*
X53236470Y-91462482D01*
X53337517Y-91563529D01*
X53337521Y-91563532D01*
X53456340Y-91642925D01*
X53456346Y-91642928D01*
X53456347Y-91642929D01*
X53588380Y-91697619D01*
X53588384Y-91697619D01*
X53588385Y-91697620D01*
X53728542Y-91725500D01*
X53728545Y-91725500D01*
X53871457Y-91725500D01*
X53965751Y-91706742D01*
X54011620Y-91697619D01*
X54074780Y-91671457D01*
X62774499Y-91671457D01*
X62802379Y-91811614D01*
X62802381Y-91811620D01*
X62857069Y-91943650D01*
X62857074Y-91943659D01*
X62936467Y-92062478D01*
X62936470Y-92062482D01*
X63037517Y-92163529D01*
X63037521Y-92163532D01*
X63156340Y-92242925D01*
X63156346Y-92242928D01*
X63156347Y-92242929D01*
X63288380Y-92297619D01*
X63288384Y-92297619D01*
X63288385Y-92297620D01*
X63428542Y-92325500D01*
X63428545Y-92325500D01*
X63571457Y-92325500D01*
X63687690Y-92302379D01*
X63711620Y-92297619D01*
X63843653Y-92242929D01*
X63962479Y-92163532D01*
X64063532Y-92062479D01*
X64142929Y-91943653D01*
X64197619Y-91811620D01*
X64214750Y-91725500D01*
X64225500Y-91671457D01*
X64225500Y-91528542D01*
X64197620Y-91388385D01*
X64197619Y-91388384D01*
X64197619Y-91388380D01*
X64142929Y-91256347D01*
X64142928Y-91256346D01*
X64142925Y-91256340D01*
X64063532Y-91137521D01*
X64063529Y-91137517D01*
X63962482Y-91036470D01*
X63962478Y-91036467D01*
X63843659Y-90957074D01*
X63843650Y-90957069D01*
X63711620Y-90902381D01*
X63711614Y-90902379D01*
X63571457Y-90874500D01*
X63571455Y-90874500D01*
X63428545Y-90874500D01*
X63428543Y-90874500D01*
X63288385Y-90902379D01*
X63288379Y-90902381D01*
X63156349Y-90957069D01*
X63156340Y-90957074D01*
X63037521Y-91036467D01*
X63037517Y-91036470D01*
X62936470Y-91137517D01*
X62936467Y-91137521D01*
X62857074Y-91256340D01*
X62857069Y-91256349D01*
X62802381Y-91388379D01*
X62802379Y-91388385D01*
X62774500Y-91528542D01*
X62774500Y-91528545D01*
X62774500Y-91671455D01*
X62774500Y-91671457D01*
X62774499Y-91671457D01*
X54074780Y-91671457D01*
X54143653Y-91642929D01*
X54262479Y-91563532D01*
X54363532Y-91462479D01*
X54363581Y-91462405D01*
X54369490Y-91453564D01*
X54369491Y-91453562D01*
X54442925Y-91343659D01*
X54442925Y-91343658D01*
X54442929Y-91343653D01*
X54497619Y-91211620D01*
X54506742Y-91165751D01*
X54525500Y-91071457D01*
X54525500Y-90928542D01*
X54497620Y-90788385D01*
X54497619Y-90788384D01*
X54497619Y-90788380D01*
X54442929Y-90656347D01*
X54442928Y-90656346D01*
X54442925Y-90656340D01*
X54363532Y-90537521D01*
X54363529Y-90537517D01*
X54262482Y-90436470D01*
X54262478Y-90436467D01*
X54143659Y-90357074D01*
X54143650Y-90357069D01*
X54011620Y-90302381D01*
X54011614Y-90302379D01*
X53871457Y-90274500D01*
X53871455Y-90274500D01*
X53728545Y-90274500D01*
X53728543Y-90274500D01*
X53588385Y-90302379D01*
X53588379Y-90302381D01*
X53456349Y-90357069D01*
X53456340Y-90357074D01*
X53337521Y-90436467D01*
X53337517Y-90436470D01*
X53236470Y-90537517D01*
X53236467Y-90537521D01*
X53157074Y-90656340D01*
X53157069Y-90656349D01*
X53102381Y-90788379D01*
X53102379Y-90788385D01*
X53074500Y-90928542D01*
X53074500Y-90928545D01*
X53074500Y-91071455D01*
X53074500Y-91071457D01*
X53074499Y-91071457D01*
X13060267Y-91071457D01*
X13060267Y-85209071D01*
X15116999Y-85209071D01*
X15141997Y-85334738D01*
X15141999Y-85334744D01*
X15191033Y-85453124D01*
X15191038Y-85453133D01*
X15262223Y-85559668D01*
X15262226Y-85559672D01*
X15352827Y-85650273D01*
X15352831Y-85650276D01*
X15459366Y-85721461D01*
X15459372Y-85721464D01*
X15459373Y-85721465D01*
X15577756Y-85770501D01*
X15577760Y-85770501D01*
X15577761Y-85770502D01*
X15703428Y-85795500D01*
X15703431Y-85795500D01*
X15831571Y-85795500D01*
X15916115Y-85778682D01*
X15957244Y-85770501D01*
X16075627Y-85721465D01*
X16182169Y-85650276D01*
X16272776Y-85559669D01*
X16343965Y-85453127D01*
X16393001Y-85334744D01*
X16418000Y-85209069D01*
X16418000Y-85080931D01*
X16418000Y-85080928D01*
X16393002Y-84955261D01*
X16393001Y-84955260D01*
X16393001Y-84955256D01*
X16343965Y-84836873D01*
X16343964Y-84836872D01*
X16343961Y-84836866D01*
X16272776Y-84730331D01*
X16272773Y-84730327D01*
X16182172Y-84639726D01*
X16182168Y-84639723D01*
X16075633Y-84568538D01*
X16075624Y-84568533D01*
X15957244Y-84519499D01*
X15957238Y-84519497D01*
X15831571Y-84494500D01*
X15831569Y-84494500D01*
X15703431Y-84494500D01*
X15703429Y-84494500D01*
X15577761Y-84519497D01*
X15577755Y-84519499D01*
X15459375Y-84568533D01*
X15459366Y-84568538D01*
X15352831Y-84639723D01*
X15352827Y-84639726D01*
X15262226Y-84730327D01*
X15262223Y-84730331D01*
X15191038Y-84836866D01*
X15191033Y-84836875D01*
X15141999Y-84955255D01*
X15141997Y-84955261D01*
X15117000Y-85080928D01*
X15117000Y-85080931D01*
X15117000Y-85209069D01*
X15117000Y-85209071D01*
X15116999Y-85209071D01*
X13060267Y-85209071D01*
X13060267Y-82669071D01*
X15116999Y-82669071D01*
X15141997Y-82794738D01*
X15141999Y-82794744D01*
X15191033Y-82913124D01*
X15191038Y-82913133D01*
X15262223Y-83019668D01*
X15262226Y-83019672D01*
X15352827Y-83110273D01*
X15352831Y-83110276D01*
X15459366Y-83181461D01*
X15459372Y-83181464D01*
X15459373Y-83181465D01*
X15577756Y-83230501D01*
X15577760Y-83230501D01*
X15577761Y-83230502D01*
X15703428Y-83255500D01*
X15703431Y-83255500D01*
X15831571Y-83255500D01*
X15921973Y-83237517D01*
X15957244Y-83230501D01*
X16075627Y-83181465D01*
X16182169Y-83110276D01*
X16272776Y-83019669D01*
X16343965Y-82913127D01*
X16393001Y-82794744D01*
X16418000Y-82669069D01*
X16418000Y-82540931D01*
X16418000Y-82540928D01*
X16393002Y-82415261D01*
X16393001Y-82415260D01*
X16393001Y-82415256D01*
X16355074Y-82323692D01*
X16343966Y-82296875D01*
X16343961Y-82296866D01*
X16272776Y-82190331D01*
X16272773Y-82190327D01*
X16182172Y-82099726D01*
X16182168Y-82099723D01*
X16075633Y-82028538D01*
X16075624Y-82028533D01*
X15957244Y-81979499D01*
X15957238Y-81979497D01*
X15831571Y-81954500D01*
X15831569Y-81954500D01*
X15703431Y-81954500D01*
X15703429Y-81954500D01*
X15577761Y-81979497D01*
X15577755Y-81979499D01*
X15459375Y-82028533D01*
X15459366Y-82028538D01*
X15352831Y-82099723D01*
X15352827Y-82099726D01*
X15262226Y-82190327D01*
X15262223Y-82190331D01*
X15191038Y-82296866D01*
X15191033Y-82296875D01*
X15141999Y-82415255D01*
X15141997Y-82415261D01*
X15117000Y-82540928D01*
X15117000Y-82540931D01*
X15117000Y-82669069D01*
X15117000Y-82669071D01*
X15116999Y-82669071D01*
X13060267Y-82669071D01*
X13060267Y-81704982D01*
X16707000Y-81704982D01*
X16707000Y-83505017D01*
X16717500Y-83607796D01*
X16717501Y-83607798D01*
X16772686Y-83774335D01*
X16857359Y-83911612D01*
X16864789Y-83923657D01*
X16993628Y-84052496D01*
X17027113Y-84113819D01*
X17022129Y-84183511D01*
X17006267Y-84213058D01*
X16954141Y-84284806D01*
X16938628Y-84306158D01*
X16824260Y-84530616D01*
X16759950Y-84728542D01*
X16746410Y-84770215D01*
X16707000Y-85019038D01*
X16707000Y-85270962D01*
X16734237Y-85442929D01*
X16746410Y-85519785D01*
X16824260Y-85759383D01*
X16878906Y-85866630D01*
X16910170Y-85927990D01*
X16938632Y-85983848D01*
X17086701Y-86187649D01*
X17086705Y-86187654D01*
X17264845Y-86365794D01*
X17264850Y-86365798D01*
X17418874Y-86477702D01*
X17468655Y-86513870D01*
X17594372Y-86577926D01*
X17693116Y-86628239D01*
X17693118Y-86628239D01*
X17693121Y-86628241D01*
X17932715Y-86706090D01*
X18181538Y-86745500D01*
X18181539Y-86745500D01*
X18433461Y-86745500D01*
X18433462Y-86745500D01*
X18682285Y-86706090D01*
X18921879Y-86628241D01*
X19146345Y-86513870D01*
X19350156Y-86365793D01*
X19528293Y-86187656D01*
X19676370Y-85983845D01*
X19790741Y-85759379D01*
X19868590Y-85519785D01*
X19908000Y-85270962D01*
X19908000Y-85052332D01*
X36139500Y-85052332D01*
X36139500Y-85327667D01*
X36139501Y-85327684D01*
X36175438Y-85600655D01*
X36175439Y-85600660D01*
X36175440Y-85600666D01*
X36175441Y-85600668D01*
X36246704Y-85866630D01*
X36352075Y-86121017D01*
X36352080Y-86121028D01*
X36426458Y-86249852D01*
X36489751Y-86359479D01*
X36489753Y-86359482D01*
X36489754Y-86359483D01*
X36657370Y-86577926D01*
X36657376Y-86577933D01*
X36852066Y-86772623D01*
X36852073Y-86772629D01*
X36857612Y-86776879D01*
X37070521Y-86940249D01*
X37218985Y-87025965D01*
X37308971Y-87077919D01*
X37308976Y-87077921D01*
X37308979Y-87077923D01*
X37563368Y-87183295D01*
X37829334Y-87254560D01*
X38102326Y-87290500D01*
X38102333Y-87290500D01*
X38377667Y-87290500D01*
X38377674Y-87290500D01*
X38650666Y-87254560D01*
X38916632Y-87183295D01*
X39171021Y-87077923D01*
X39409479Y-86940249D01*
X39627928Y-86772628D01*
X39822628Y-86577928D01*
X39990249Y-86359479D01*
X40127923Y-86121021D01*
X40233295Y-85866632D01*
X40304560Y-85600666D01*
X40340500Y-85327674D01*
X40340500Y-85080638D01*
X40660500Y-85080638D01*
X40660500Y-85299361D01*
X40694714Y-85515376D01*
X40762297Y-85723380D01*
X40762298Y-85723383D01*
X40861595Y-85918260D01*
X40990142Y-86095193D01*
X41144806Y-86249857D01*
X41295696Y-86359483D01*
X41321743Y-86378407D01*
X41449132Y-86443315D01*
X41516616Y-86477701D01*
X41516619Y-86477702D01*
X41620621Y-86511493D01*
X41724625Y-86545286D01*
X41824672Y-86561132D01*
X41940639Y-86579500D01*
X41940644Y-86579500D01*
X42159361Y-86579500D01*
X42264082Y-86562912D01*
X42375375Y-86545286D01*
X42583383Y-86477701D01*
X42778257Y-86378407D01*
X42877601Y-86306229D01*
X42955193Y-86249857D01*
X42955195Y-86249854D01*
X42955199Y-86249852D01*
X43109852Y-86095199D01*
X43219683Y-85944028D01*
X43275011Y-85901364D01*
X43344624Y-85895385D01*
X43406420Y-85927990D01*
X43420313Y-85944023D01*
X43530144Y-86095193D01*
X43530148Y-86095199D01*
X43684806Y-86249857D01*
X43835696Y-86359483D01*
X43861743Y-86378407D01*
X43989132Y-86443315D01*
X44056616Y-86477701D01*
X44056619Y-86477702D01*
X44160621Y-86511493D01*
X44264625Y-86545286D01*
X44364672Y-86561132D01*
X44480639Y-86579500D01*
X44480644Y-86579500D01*
X44699361Y-86579500D01*
X44804082Y-86562912D01*
X44915375Y-86545286D01*
X45123383Y-86477701D01*
X45318257Y-86378407D01*
X45417601Y-86306229D01*
X45495193Y-86249857D01*
X45495195Y-86249854D01*
X45495199Y-86249852D01*
X45649852Y-86095199D01*
X45759683Y-85944028D01*
X45815011Y-85901364D01*
X45884624Y-85895385D01*
X45946420Y-85927990D01*
X45960313Y-85944023D01*
X46070144Y-86095193D01*
X46070148Y-86095199D01*
X46224806Y-86249857D01*
X46375696Y-86359483D01*
X46401743Y-86378407D01*
X46529132Y-86443315D01*
X46596616Y-86477701D01*
X46596619Y-86477702D01*
X46700621Y-86511493D01*
X46804625Y-86545286D01*
X46904672Y-86561132D01*
X47020639Y-86579500D01*
X47020644Y-86579500D01*
X47239361Y-86579500D01*
X47344082Y-86562912D01*
X47455375Y-86545286D01*
X47663383Y-86477701D01*
X47858257Y-86378407D01*
X47957601Y-86306229D01*
X48035193Y-86249857D01*
X48035195Y-86249854D01*
X48035199Y-86249852D01*
X48189852Y-86095199D01*
X48299683Y-85944028D01*
X48355011Y-85901364D01*
X48424624Y-85895385D01*
X48486420Y-85927990D01*
X48500313Y-85944023D01*
X48610144Y-86095193D01*
X48610148Y-86095199D01*
X48764806Y-86249857D01*
X48915696Y-86359483D01*
X48941743Y-86378407D01*
X49069132Y-86443315D01*
X49136616Y-86477701D01*
X49136619Y-86477702D01*
X49240621Y-86511493D01*
X49344625Y-86545286D01*
X49444672Y-86561132D01*
X49560639Y-86579500D01*
X49560644Y-86579500D01*
X49779361Y-86579500D01*
X49884082Y-86562912D01*
X49995375Y-86545286D01*
X50203383Y-86477701D01*
X50398257Y-86378407D01*
X50497601Y-86306229D01*
X50575193Y-86249857D01*
X50575195Y-86249854D01*
X50575199Y-86249852D01*
X50729852Y-86095199D01*
X50839683Y-85944028D01*
X50895011Y-85901364D01*
X50964624Y-85895385D01*
X51026420Y-85927990D01*
X51040313Y-85944023D01*
X51150144Y-86095193D01*
X51150148Y-86095199D01*
X51304806Y-86249857D01*
X51455696Y-86359483D01*
X51481743Y-86378407D01*
X51609132Y-86443315D01*
X51676616Y-86477701D01*
X51676619Y-86477702D01*
X51780621Y-86511493D01*
X51884625Y-86545286D01*
X51984672Y-86561132D01*
X52100639Y-86579500D01*
X52100644Y-86579500D01*
X52319361Y-86579500D01*
X52424082Y-86562912D01*
X52535375Y-86545286D01*
X52743383Y-86477701D01*
X52938257Y-86378407D01*
X53037601Y-86306229D01*
X53115193Y-86249857D01*
X53115195Y-86249854D01*
X53115199Y-86249852D01*
X53269852Y-86095199D01*
X53379683Y-85944028D01*
X53435011Y-85901364D01*
X53504624Y-85895385D01*
X53566420Y-85927990D01*
X53580313Y-85944023D01*
X53690144Y-86095193D01*
X53690148Y-86095199D01*
X53844806Y-86249857D01*
X53995696Y-86359483D01*
X54021743Y-86378407D01*
X54149132Y-86443315D01*
X54216616Y-86477701D01*
X54216619Y-86477702D01*
X54320621Y-86511493D01*
X54424625Y-86545286D01*
X54524672Y-86561132D01*
X54640639Y-86579500D01*
X54640644Y-86579500D01*
X54859361Y-86579500D01*
X54964082Y-86562912D01*
X55075375Y-86545286D01*
X55283383Y-86477701D01*
X55478257Y-86378407D01*
X55577601Y-86306229D01*
X55655193Y-86249857D01*
X55655195Y-86249854D01*
X55655199Y-86249852D01*
X55809852Y-86095199D01*
X55809854Y-86095195D01*
X55809857Y-86095193D01*
X55866229Y-86017601D01*
X55938407Y-85918257D01*
X56037701Y-85723383D01*
X56038326Y-85721461D01*
X56040139Y-85715879D01*
X56105286Y-85515375D01*
X56129336Y-85363529D01*
X56139500Y-85299361D01*
X56139500Y-85080638D01*
X56119595Y-84954971D01*
X56105286Y-84864625D01*
X56037701Y-84656617D01*
X56037701Y-84656616D01*
X55992822Y-84568538D01*
X55938407Y-84461743D01*
X55900535Y-84409616D01*
X55809857Y-84284806D01*
X55655193Y-84130142D01*
X55478260Y-84001595D01*
X55478259Y-84001594D01*
X55478257Y-84001593D01*
X55415825Y-83969782D01*
X55283383Y-83902298D01*
X55283380Y-83902297D01*
X55075376Y-83834714D01*
X54859361Y-83800500D01*
X54859356Y-83800500D01*
X54640644Y-83800500D01*
X54640639Y-83800500D01*
X54424623Y-83834714D01*
X54216619Y-83902297D01*
X54216616Y-83902298D01*
X54021739Y-84001595D01*
X53844806Y-84130142D01*
X53690142Y-84284806D01*
X53580318Y-84435969D01*
X53524989Y-84478635D01*
X53455375Y-84484614D01*
X53393580Y-84452009D01*
X53379682Y-84435969D01*
X53269857Y-84284806D01*
X53115193Y-84130142D01*
X52938260Y-84001595D01*
X52938259Y-84001594D01*
X52938257Y-84001593D01*
X52875825Y-83969782D01*
X52743383Y-83902298D01*
X52743380Y-83902297D01*
X52535376Y-83834714D01*
X52319361Y-83800500D01*
X52319356Y-83800500D01*
X52100644Y-83800500D01*
X52100639Y-83800500D01*
X51884623Y-83834714D01*
X51676619Y-83902297D01*
X51676616Y-83902298D01*
X51481739Y-84001595D01*
X51304806Y-84130142D01*
X51150142Y-84284806D01*
X51040318Y-84435969D01*
X50984989Y-84478635D01*
X50915375Y-84484614D01*
X50853580Y-84452009D01*
X50839682Y-84435969D01*
X50729857Y-84284806D01*
X50575193Y-84130142D01*
X50398260Y-84001595D01*
X50398259Y-84001594D01*
X50398257Y-84001593D01*
X50335825Y-83969782D01*
X50203383Y-83902298D01*
X50203380Y-83902297D01*
X49995376Y-83834714D01*
X49779361Y-83800500D01*
X49779356Y-83800500D01*
X49560644Y-83800500D01*
X49560639Y-83800500D01*
X49344623Y-83834714D01*
X49136619Y-83902297D01*
X49136616Y-83902298D01*
X48941739Y-84001595D01*
X48764806Y-84130142D01*
X48610142Y-84284806D01*
X48500318Y-84435969D01*
X48444989Y-84478635D01*
X48375375Y-84484614D01*
X48313580Y-84452009D01*
X48299682Y-84435969D01*
X48189857Y-84284806D01*
X48035193Y-84130142D01*
X47858260Y-84001595D01*
X47858259Y-84001594D01*
X47858257Y-84001593D01*
X47795825Y-83969782D01*
X47663383Y-83902298D01*
X47663380Y-83902297D01*
X47455376Y-83834714D01*
X47239361Y-83800500D01*
X47239356Y-83800500D01*
X47020644Y-83800500D01*
X47020639Y-83800500D01*
X46804623Y-83834714D01*
X46596619Y-83902297D01*
X46596616Y-83902298D01*
X46401739Y-84001595D01*
X46224806Y-84130142D01*
X46070142Y-84284806D01*
X45960318Y-84435969D01*
X45904989Y-84478635D01*
X45835375Y-84484614D01*
X45773580Y-84452009D01*
X45759682Y-84435969D01*
X45649857Y-84284806D01*
X45495193Y-84130142D01*
X45318260Y-84001595D01*
X45318259Y-84001594D01*
X45318257Y-84001593D01*
X45255825Y-83969782D01*
X45123383Y-83902298D01*
X45123380Y-83902297D01*
X44915376Y-83834714D01*
X44699361Y-83800500D01*
X44699356Y-83800500D01*
X44480644Y-83800500D01*
X44480639Y-83800500D01*
X44264623Y-83834714D01*
X44056619Y-83902297D01*
X44056616Y-83902298D01*
X43861739Y-84001595D01*
X43684806Y-84130142D01*
X43530142Y-84284806D01*
X43420318Y-84435969D01*
X43364989Y-84478635D01*
X43295375Y-84484614D01*
X43233580Y-84452009D01*
X43219682Y-84435969D01*
X43109857Y-84284806D01*
X42955193Y-84130142D01*
X42778260Y-84001595D01*
X42778259Y-84001594D01*
X42778257Y-84001593D01*
X42715825Y-83969782D01*
X42583383Y-83902298D01*
X42583380Y-83902297D01*
X42375376Y-83834714D01*
X42159361Y-83800500D01*
X42159356Y-83800500D01*
X41940644Y-83800500D01*
X41940639Y-83800500D01*
X41724623Y-83834714D01*
X41516619Y-83902297D01*
X41516616Y-83902298D01*
X41321739Y-84001595D01*
X41144806Y-84130142D01*
X40990142Y-84284806D01*
X40861595Y-84461739D01*
X40762298Y-84656616D01*
X40762297Y-84656619D01*
X40694714Y-84864623D01*
X40660500Y-85080638D01*
X40340500Y-85080638D01*
X40340500Y-85052326D01*
X40304560Y-84779334D01*
X40233295Y-84513368D01*
X40127923Y-84258979D01*
X40127921Y-84258976D01*
X40127919Y-84258971D01*
X40053542Y-84130148D01*
X39990249Y-84020521D01*
X39847675Y-83834714D01*
X39822629Y-83802073D01*
X39822623Y-83802066D01*
X39627933Y-83607376D01*
X39627926Y-83607370D01*
X39409483Y-83439754D01*
X39409482Y-83439753D01*
X39409479Y-83439751D01*
X39314407Y-83384861D01*
X39171028Y-83302080D01*
X39171017Y-83302075D01*
X38916630Y-83196704D01*
X38783649Y-83161072D01*
X38650666Y-83125440D01*
X38650660Y-83125439D01*
X38650655Y-83125438D01*
X38377684Y-83089501D01*
X38377679Y-83089500D01*
X38377674Y-83089500D01*
X38102326Y-83089500D01*
X38102320Y-83089500D01*
X38102315Y-83089501D01*
X37829344Y-83125438D01*
X37829337Y-83125439D01*
X37829334Y-83125440D01*
X37788177Y-83136468D01*
X37563369Y-83196704D01*
X37308982Y-83302075D01*
X37308971Y-83302080D01*
X37086106Y-83430752D01*
X37074384Y-83437521D01*
X37070516Y-83439754D01*
X36852073Y-83607370D01*
X36852066Y-83607376D01*
X36657376Y-83802066D01*
X36657370Y-83802073D01*
X36489754Y-84020516D01*
X36352080Y-84258971D01*
X36352075Y-84258982D01*
X36246704Y-84513369D01*
X36208322Y-84656616D01*
X36177884Y-84770215D01*
X36175441Y-84779331D01*
X36175438Y-84779344D01*
X36139501Y-85052315D01*
X36139500Y-85052332D01*
X19908000Y-85052332D01*
X19908000Y-85019038D01*
X19868590Y-84770215D01*
X19790741Y-84530621D01*
X19790739Y-84530618D01*
X19790739Y-84530616D01*
X19704425Y-84361217D01*
X19676370Y-84306155D01*
X19608733Y-84213060D01*
X19585254Y-84147257D01*
X19601079Y-84079203D01*
X19621371Y-84052495D01*
X19626150Y-84047715D01*
X19626156Y-84047712D01*
X19750212Y-83923656D01*
X19842314Y-83774335D01*
X19897499Y-83607798D01*
X19908000Y-83505010D01*
X19908000Y-81704990D01*
X19897499Y-81602202D01*
X19842314Y-81435665D01*
X19750212Y-81286344D01*
X19626156Y-81162288D01*
X19476835Y-81070186D01*
X19310298Y-81015001D01*
X19310296Y-81015000D01*
X19207517Y-81004500D01*
X19207510Y-81004500D01*
X17407490Y-81004500D01*
X17407482Y-81004500D01*
X17304703Y-81015000D01*
X17304702Y-81015001D01*
X17236741Y-81037521D01*
X17138167Y-81070185D01*
X17138162Y-81070187D01*
X16988842Y-81162289D01*
X16864789Y-81286342D01*
X16772687Y-81435662D01*
X16772685Y-81435667D01*
X16764120Y-81461515D01*
X16717501Y-81602202D01*
X16717501Y-81602203D01*
X16717500Y-81602203D01*
X16707000Y-81704982D01*
X13060267Y-81704982D01*
X13060267Y-80871457D01*
X37374499Y-80871457D01*
X37402379Y-81011614D01*
X37402381Y-81011620D01*
X37459402Y-81149281D01*
X37457705Y-81149983D01*
X37470184Y-81209971D01*
X37458347Y-81250282D01*
X37459402Y-81250719D01*
X37402381Y-81388379D01*
X37402379Y-81388385D01*
X37374500Y-81528542D01*
X37374500Y-81528545D01*
X37374500Y-81671455D01*
X37374500Y-81671457D01*
X37374499Y-81671457D01*
X37402379Y-81811614D01*
X37402381Y-81811620D01*
X37457069Y-81943650D01*
X37457074Y-81943659D01*
X37536467Y-82062478D01*
X37536470Y-82062482D01*
X37637517Y-82163529D01*
X37637521Y-82163532D01*
X37756340Y-82242925D01*
X37756346Y-82242928D01*
X37756347Y-82242929D01*
X37888380Y-82297619D01*
X37888384Y-82297619D01*
X37888385Y-82297620D01*
X38028542Y-82325500D01*
X38028545Y-82325500D01*
X38171457Y-82325500D01*
X38265751Y-82306742D01*
X38311620Y-82297619D01*
X38443653Y-82242929D01*
X38562479Y-82163532D01*
X38663532Y-82062479D01*
X38742929Y-81943653D01*
X38797619Y-81811620D01*
X38817512Y-81711614D01*
X38825500Y-81671457D01*
X38825500Y-81574309D01*
X38845185Y-81507270D01*
X38897989Y-81461515D01*
X38967147Y-81451571D01*
X38996948Y-81459746D01*
X39088380Y-81497619D01*
X39088384Y-81497619D01*
X39088385Y-81497620D01*
X39228542Y-81525500D01*
X39228545Y-81525500D01*
X39371457Y-81525500D01*
X39465751Y-81506742D01*
X39511620Y-81497619D01*
X39643653Y-81442929D01*
X39643659Y-81442925D01*
X39681609Y-81417568D01*
X39748286Y-81396690D01*
X39815666Y-81415174D01*
X39862357Y-81467153D01*
X39874500Y-81520670D01*
X39874500Y-81571455D01*
X39874500Y-81571457D01*
X39874499Y-81571457D01*
X39902379Y-81711614D01*
X39902381Y-81711620D01*
X39957069Y-81843650D01*
X39957074Y-81843659D01*
X40036467Y-81962478D01*
X40036470Y-81962482D01*
X40137517Y-82063529D01*
X40137521Y-82063532D01*
X40256340Y-82142925D01*
X40256346Y-82142928D01*
X40256347Y-82142929D01*
X40388380Y-82197619D01*
X40388384Y-82197619D01*
X40388385Y-82197620D01*
X40528542Y-82225500D01*
X40528545Y-82225500D01*
X40671457Y-82225500D01*
X40765751Y-82206742D01*
X40811620Y-82197619D01*
X40943653Y-82142929D01*
X41062479Y-82063532D01*
X41163532Y-81962479D01*
X41242929Y-81843653D01*
X41297619Y-81711620D01*
X41319384Y-81602202D01*
X41325500Y-81571457D01*
X41325500Y-81428542D01*
X41297620Y-81288385D01*
X41297619Y-81288384D01*
X41297619Y-81288380D01*
X41242929Y-81156347D01*
X41242928Y-81156346D01*
X41242925Y-81156340D01*
X41163532Y-81037521D01*
X41163529Y-81037517D01*
X41080626Y-80954614D01*
X41047141Y-80893291D01*
X41048702Y-80871457D01*
X52174499Y-80871457D01*
X52202379Y-81011614D01*
X52202381Y-81011620D01*
X52257069Y-81143650D01*
X52257074Y-81143659D01*
X52336467Y-81262478D01*
X52336470Y-81262482D01*
X52437517Y-81363529D01*
X52437521Y-81363532D01*
X52556340Y-81442925D01*
X52556349Y-81442930D01*
X52586258Y-81455318D01*
X52688380Y-81497619D01*
X52688384Y-81497619D01*
X52688385Y-81497620D01*
X52828542Y-81525500D01*
X52828545Y-81525500D01*
X52971457Y-81525500D01*
X53065751Y-81506742D01*
X53111620Y-81497619D01*
X53243653Y-81442929D01*
X53362479Y-81363532D01*
X53463532Y-81262479D01*
X53542929Y-81143653D01*
X53597619Y-81011620D01*
X53612568Y-80936468D01*
X53625500Y-80871457D01*
X53625500Y-80728542D01*
X53597620Y-80588385D01*
X53597619Y-80588384D01*
X53597619Y-80588380D01*
X53542929Y-80456347D01*
X53542928Y-80456346D01*
X53542925Y-80456340D01*
X53463532Y-80337521D01*
X53463529Y-80337517D01*
X53362482Y-80236470D01*
X53362478Y-80236467D01*
X53243659Y-80157074D01*
X53243650Y-80157069D01*
X53111620Y-80102381D01*
X53111614Y-80102379D01*
X52971457Y-80074500D01*
X52971455Y-80074500D01*
X52828545Y-80074500D01*
X52828543Y-80074500D01*
X52688385Y-80102379D01*
X52688379Y-80102381D01*
X52556349Y-80157069D01*
X52556340Y-80157074D01*
X52437521Y-80236467D01*
X52437517Y-80236470D01*
X52336470Y-80337517D01*
X52336467Y-80337521D01*
X52257074Y-80456340D01*
X52257069Y-80456349D01*
X52202381Y-80588379D01*
X52202379Y-80588385D01*
X52174500Y-80728542D01*
X52174500Y-80728545D01*
X52174500Y-80871455D01*
X52174500Y-80871457D01*
X52174499Y-80871457D01*
X41048702Y-80871457D01*
X41052125Y-80823599D01*
X41093997Y-80767666D01*
X41120854Y-80752372D01*
X41143653Y-80742929D01*
X41262479Y-80663532D01*
X41262482Y-80663529D01*
X41291240Y-80634772D01*
X41363529Y-80562482D01*
X41363532Y-80562479D01*
X41442929Y-80443653D01*
X41497619Y-80311620D01*
X41512568Y-80236467D01*
X41525500Y-80171457D01*
X41525500Y-80028542D01*
X41497620Y-79888385D01*
X41497619Y-79888384D01*
X41497619Y-79888380D01*
X41442929Y-79756347D01*
X41442928Y-79756346D01*
X41442925Y-79756340D01*
X41363532Y-79637521D01*
X41363529Y-79637517D01*
X41262482Y-79536470D01*
X41262478Y-79536467D01*
X41143659Y-79457074D01*
X41143650Y-79457069D01*
X41011620Y-79402381D01*
X41011614Y-79402379D01*
X40871457Y-79374500D01*
X40871455Y-79374500D01*
X40728545Y-79374500D01*
X40728543Y-79374500D01*
X40588385Y-79402379D01*
X40588379Y-79402381D01*
X40456349Y-79457069D01*
X40456340Y-79457074D01*
X40337521Y-79536467D01*
X40337517Y-79536470D01*
X40236470Y-79637517D01*
X40236467Y-79637521D01*
X40157074Y-79756340D01*
X40157069Y-79756349D01*
X40102381Y-79888379D01*
X40102379Y-79888385D01*
X40074500Y-80028542D01*
X40074500Y-80171459D01*
X40089341Y-80246070D01*
X40083114Y-80315662D01*
X40040251Y-80370839D01*
X39974361Y-80394083D01*
X39906364Y-80378015D01*
X39867678Y-80341996D01*
X39867396Y-80342229D01*
X39865672Y-80340129D01*
X39864621Y-80339150D01*
X39863533Y-80337522D01*
X39863529Y-80337517D01*
X39762482Y-80236470D01*
X39762478Y-80236467D01*
X39643659Y-80157074D01*
X39643650Y-80157069D01*
X39511620Y-80102381D01*
X39511614Y-80102379D01*
X39371457Y-80074500D01*
X39371455Y-80074500D01*
X39228545Y-80074500D01*
X39228543Y-80074500D01*
X39088385Y-80102379D01*
X39088379Y-80102381D01*
X38956349Y-80157069D01*
X38956340Y-80157074D01*
X38837521Y-80236467D01*
X38837517Y-80236470D01*
X38787681Y-80286307D01*
X38726358Y-80319792D01*
X38656666Y-80314808D01*
X38612319Y-80286307D01*
X38562482Y-80236470D01*
X38562478Y-80236467D01*
X38443659Y-80157074D01*
X38443650Y-80157069D01*
X38311620Y-80102381D01*
X38311614Y-80102379D01*
X38171457Y-80074500D01*
X38171455Y-80074500D01*
X38028545Y-80074500D01*
X38028543Y-80074500D01*
X37888385Y-80102379D01*
X37888379Y-80102381D01*
X37756349Y-80157069D01*
X37756340Y-80157074D01*
X37637521Y-80236467D01*
X37637517Y-80236470D01*
X37536470Y-80337517D01*
X37536467Y-80337521D01*
X37457074Y-80456340D01*
X37457069Y-80456349D01*
X37402381Y-80588379D01*
X37402379Y-80588385D01*
X37374500Y-80728542D01*
X37374500Y-80728545D01*
X37374500Y-80871455D01*
X37374500Y-80871457D01*
X37374499Y-80871457D01*
X13060267Y-80871457D01*
X13060267Y-78161303D01*
X55299500Y-78161303D01*
X55299500Y-78338696D01*
X55334103Y-78512658D01*
X55334105Y-78512666D01*
X55401988Y-78676548D01*
X55500534Y-78824034D01*
X55500540Y-78824041D01*
X60054018Y-83377518D01*
X60087503Y-83438841D01*
X60082519Y-83508533D01*
X60040647Y-83564466D01*
X59975183Y-83588883D01*
X59906910Y-83574031D01*
X59890851Y-83563575D01*
X59729483Y-83439754D01*
X59729482Y-83439753D01*
X59729479Y-83439751D01*
X59634407Y-83384861D01*
X59491028Y-83302080D01*
X59491017Y-83302075D01*
X59236630Y-83196704D01*
X59103649Y-83161072D01*
X58970666Y-83125440D01*
X58970660Y-83125439D01*
X58970655Y-83125438D01*
X58697684Y-83089501D01*
X58697679Y-83089500D01*
X58697674Y-83089500D01*
X58422326Y-83089500D01*
X58422320Y-83089500D01*
X58422315Y-83089501D01*
X58149344Y-83125438D01*
X58149337Y-83125439D01*
X58149334Y-83125440D01*
X58108177Y-83136468D01*
X57883369Y-83196704D01*
X57628982Y-83302075D01*
X57628971Y-83302080D01*
X57406106Y-83430752D01*
X57394384Y-83437521D01*
X57390516Y-83439754D01*
X57172073Y-83607370D01*
X57172066Y-83607376D01*
X56977376Y-83802066D01*
X56977370Y-83802073D01*
X56809754Y-84020516D01*
X56672080Y-84258971D01*
X56672075Y-84258982D01*
X56566704Y-84513369D01*
X56528322Y-84656616D01*
X56497884Y-84770215D01*
X56495441Y-84779331D01*
X56495438Y-84779344D01*
X56459501Y-85052315D01*
X56459500Y-85052332D01*
X56459500Y-85327667D01*
X56459501Y-85327684D01*
X56495438Y-85600655D01*
X56495439Y-85600660D01*
X56495440Y-85600666D01*
X56495441Y-85600668D01*
X56566704Y-85866630D01*
X56672075Y-86121017D01*
X56672080Y-86121028D01*
X56746458Y-86249852D01*
X56809751Y-86359479D01*
X56809753Y-86359482D01*
X56809754Y-86359483D01*
X56977370Y-86577926D01*
X56977376Y-86577933D01*
X57174942Y-86775499D01*
X57173561Y-86776879D01*
X57206796Y-86829214D01*
X57206419Y-86899082D01*
X57175314Y-86951186D01*
X57100535Y-87025965D01*
X57001990Y-87173446D01*
X57001983Y-87173459D01*
X56934106Y-87337332D01*
X56934103Y-87337341D01*
X56899500Y-87511304D01*
X56899500Y-87688695D01*
X56934103Y-87862658D01*
X56934106Y-87862667D01*
X57001983Y-88026540D01*
X57001990Y-88026553D01*
X57100535Y-88174034D01*
X57100538Y-88174038D01*
X57225961Y-88299461D01*
X57225965Y-88299464D01*
X57373446Y-88398009D01*
X57373459Y-88398016D01*
X57496363Y-88448923D01*
X57537334Y-88465894D01*
X57537336Y-88465894D01*
X57537341Y-88465896D01*
X57711304Y-88500499D01*
X57711307Y-88500500D01*
X57711309Y-88500500D01*
X60788693Y-88500500D01*
X60788694Y-88500499D01*
X60962666Y-88465895D01*
X61044606Y-88431953D01*
X61126547Y-88398013D01*
X61235070Y-88325500D01*
X61274036Y-88299464D01*
X61699464Y-87874036D01*
X61713555Y-87852947D01*
X61741169Y-87811621D01*
X61741169Y-87811620D01*
X61798013Y-87726547D01*
X61831953Y-87644606D01*
X61865895Y-87562666D01*
X61900500Y-87388692D01*
X61900500Y-87211308D01*
X61900500Y-84871457D01*
X78174499Y-84871457D01*
X78202379Y-85011614D01*
X78202381Y-85011620D01*
X78257069Y-85143650D01*
X78257074Y-85143659D01*
X78336467Y-85262478D01*
X78336470Y-85262482D01*
X78437517Y-85363529D01*
X78437521Y-85363532D01*
X78556340Y-85442925D01*
X78556349Y-85442930D01*
X78586258Y-85455318D01*
X78688380Y-85497619D01*
X78688384Y-85497619D01*
X78688385Y-85497620D01*
X78828542Y-85525500D01*
X78828545Y-85525500D01*
X78971457Y-85525500D01*
X79065751Y-85506742D01*
X79111620Y-85497619D01*
X79243653Y-85442929D01*
X79362479Y-85363532D01*
X79463532Y-85262479D01*
X79542929Y-85143653D01*
X79597619Y-85011620D01*
X79625500Y-84871455D01*
X79625500Y-84728545D01*
X79625500Y-84728542D01*
X79597620Y-84588385D01*
X79597619Y-84588384D01*
X79597619Y-84588380D01*
X79545164Y-84461743D01*
X79542930Y-84456349D01*
X79542925Y-84456340D01*
X79463532Y-84337521D01*
X79463529Y-84337517D01*
X79362482Y-84236470D01*
X79362478Y-84236467D01*
X79243659Y-84157074D01*
X79243650Y-84157069D01*
X79111620Y-84102381D01*
X79111614Y-84102379D01*
X78971457Y-84074500D01*
X78971455Y-84074500D01*
X78828545Y-84074500D01*
X78828543Y-84074500D01*
X78688385Y-84102379D01*
X78688379Y-84102381D01*
X78556349Y-84157069D01*
X78556340Y-84157074D01*
X78437521Y-84236467D01*
X78437517Y-84236470D01*
X78336470Y-84337517D01*
X78336467Y-84337521D01*
X78257074Y-84456340D01*
X78257069Y-84456349D01*
X78202381Y-84588379D01*
X78202379Y-84588385D01*
X78174500Y-84728542D01*
X78174500Y-84728545D01*
X78174500Y-84871455D01*
X78174500Y-84871457D01*
X78174499Y-84871457D01*
X61900500Y-84871457D01*
X61900500Y-84531233D01*
X61920185Y-84464194D01*
X61972989Y-84418439D01*
X62042147Y-84408495D01*
X62048692Y-84409616D01*
X62128543Y-84425500D01*
X62128545Y-84425500D01*
X62271457Y-84425500D01*
X62365751Y-84406742D01*
X62411620Y-84397619D01*
X62543653Y-84342929D01*
X62662479Y-84263532D01*
X62763532Y-84162479D01*
X62842929Y-84043653D01*
X62872834Y-83971457D01*
X63474499Y-83971457D01*
X63502379Y-84111614D01*
X63502381Y-84111620D01*
X63557069Y-84243650D01*
X63557074Y-84243659D01*
X63636467Y-84362478D01*
X63636470Y-84362482D01*
X63737517Y-84463529D01*
X63737521Y-84463532D01*
X63856340Y-84542925D01*
X63856346Y-84542928D01*
X63856347Y-84542929D01*
X63988380Y-84597619D01*
X63988384Y-84597619D01*
X63988385Y-84597620D01*
X64128542Y-84625500D01*
X64128545Y-84625500D01*
X64271457Y-84625500D01*
X64395449Y-84600836D01*
X64405711Y-84598794D01*
X64411620Y-84597619D01*
X64543653Y-84542929D01*
X64662479Y-84463532D01*
X64763532Y-84362479D01*
X64842929Y-84243653D01*
X64897619Y-84111620D01*
X64925500Y-83971455D01*
X64925500Y-83828545D01*
X64925500Y-83828542D01*
X64897620Y-83688385D01*
X64897619Y-83688384D01*
X64897619Y-83688380D01*
X64842929Y-83556347D01*
X64842928Y-83556346D01*
X64842925Y-83556340D01*
X64763532Y-83437521D01*
X64763529Y-83437517D01*
X64662482Y-83336470D01*
X64662478Y-83336467D01*
X64543659Y-83257074D01*
X64543650Y-83257069D01*
X64411620Y-83202381D01*
X64411614Y-83202379D01*
X64271457Y-83174500D01*
X64271455Y-83174500D01*
X64128545Y-83174500D01*
X64128543Y-83174500D01*
X63988385Y-83202379D01*
X63988379Y-83202381D01*
X63856349Y-83257069D01*
X63856340Y-83257074D01*
X63737521Y-83336467D01*
X63737517Y-83336470D01*
X63636470Y-83437517D01*
X63636467Y-83437521D01*
X63557074Y-83556340D01*
X63557069Y-83556349D01*
X63502381Y-83688379D01*
X63502379Y-83688385D01*
X63474500Y-83828542D01*
X63474500Y-83828545D01*
X63474500Y-83971455D01*
X63474500Y-83971457D01*
X63474499Y-83971457D01*
X62872834Y-83971457D01*
X62897619Y-83911620D01*
X62919411Y-83802066D01*
X62920168Y-83798262D01*
X62920168Y-83798260D01*
X62925500Y-83771456D01*
X62925500Y-83628542D01*
X62897620Y-83488385D01*
X62897619Y-83488384D01*
X62897619Y-83488380D01*
X62842929Y-83356347D01*
X62842928Y-83356346D01*
X62842925Y-83356340D01*
X62763532Y-83237521D01*
X62763529Y-83237517D01*
X62662482Y-83136470D01*
X62662478Y-83136467D01*
X62543659Y-83057074D01*
X62543650Y-83057069D01*
X62411620Y-83002381D01*
X62411614Y-83002379D01*
X62271457Y-82974500D01*
X62271455Y-82974500D01*
X62128545Y-82974500D01*
X62128540Y-82974500D01*
X62033321Y-82993440D01*
X61963729Y-82987213D01*
X61908552Y-82944349D01*
X61887513Y-82896014D01*
X61867369Y-82794744D01*
X61865895Y-82787334D01*
X61831953Y-82705393D01*
X61798013Y-82623453D01*
X61798011Y-82623450D01*
X61738936Y-82535039D01*
X61738936Y-82535038D01*
X61738933Y-82535036D01*
X61699466Y-82475966D01*
X59394957Y-80171457D01*
X60274499Y-80171457D01*
X60302379Y-80311614D01*
X60302381Y-80311620D01*
X60357069Y-80443650D01*
X60357074Y-80443659D01*
X60436467Y-80562478D01*
X60436470Y-80562482D01*
X60537517Y-80663529D01*
X60537521Y-80663532D01*
X60656340Y-80742925D01*
X60656346Y-80742928D01*
X60656347Y-80742929D01*
X60788380Y-80797619D01*
X60788384Y-80797619D01*
X60788385Y-80797620D01*
X60928542Y-80825500D01*
X60928545Y-80825500D01*
X61071457Y-80825500D01*
X61187680Y-80802381D01*
X61211620Y-80797619D01*
X61343653Y-80742929D01*
X61462479Y-80663532D01*
X61563532Y-80562479D01*
X61642929Y-80443653D01*
X61697619Y-80311620D01*
X61712568Y-80236467D01*
X61725500Y-80171457D01*
X61725500Y-80028542D01*
X61697620Y-79888385D01*
X61697619Y-79888384D01*
X61697619Y-79888380D01*
X61642929Y-79756347D01*
X61642928Y-79756346D01*
X61642925Y-79756340D01*
X61563532Y-79637521D01*
X61563529Y-79637517D01*
X61462482Y-79536470D01*
X61462478Y-79536467D01*
X61343659Y-79457074D01*
X61343650Y-79457069D01*
X61211620Y-79402381D01*
X61211614Y-79402379D01*
X61071457Y-79374500D01*
X61071455Y-79374500D01*
X60928545Y-79374500D01*
X60928543Y-79374500D01*
X60788385Y-79402379D01*
X60788379Y-79402381D01*
X60656349Y-79457069D01*
X60656340Y-79457074D01*
X60537521Y-79536467D01*
X60537517Y-79536470D01*
X60436470Y-79637517D01*
X60436467Y-79637521D01*
X60357074Y-79756340D01*
X60357069Y-79756349D01*
X60302381Y-79888379D01*
X60302379Y-79888385D01*
X60274500Y-80028542D01*
X60274500Y-80028545D01*
X60274500Y-80171455D01*
X60274500Y-80171457D01*
X60274499Y-80171457D01*
X59394957Y-80171457D01*
X59333634Y-80110134D01*
X56774041Y-77550540D01*
X56774034Y-77550534D01*
X56626548Y-77451988D01*
X56462666Y-77384105D01*
X56462658Y-77384103D01*
X56399082Y-77371457D01*
X68874499Y-77371457D01*
X68902379Y-77511614D01*
X68902381Y-77511620D01*
X68957069Y-77643650D01*
X68957074Y-77643659D01*
X69036467Y-77762478D01*
X69036470Y-77762482D01*
X69137517Y-77863529D01*
X69137521Y-77863532D01*
X69256340Y-77942925D01*
X69256346Y-77942928D01*
X69256347Y-77942929D01*
X69388380Y-77997619D01*
X69388384Y-77997619D01*
X69388385Y-77997620D01*
X69528542Y-78025500D01*
X69528545Y-78025500D01*
X69671457Y-78025500D01*
X69765751Y-78006742D01*
X69811620Y-77997619D01*
X69943653Y-77942929D01*
X70062479Y-77863532D01*
X70163532Y-77762479D01*
X70242929Y-77643653D01*
X70297619Y-77511620D01*
X70317512Y-77411614D01*
X70325500Y-77371457D01*
X70325500Y-77228542D01*
X70297620Y-77088385D01*
X70297619Y-77088384D01*
X70297619Y-77088380D01*
X70242929Y-76956347D01*
X70242928Y-76956346D01*
X70242925Y-76956340D01*
X70163532Y-76837521D01*
X70163529Y-76837517D01*
X70062482Y-76736470D01*
X70062478Y-76736467D01*
X69943659Y-76657074D01*
X69943650Y-76657069D01*
X69811620Y-76602381D01*
X69811614Y-76602379D01*
X69671457Y-76574500D01*
X69671455Y-76574500D01*
X69528545Y-76574500D01*
X69528543Y-76574500D01*
X69388385Y-76602379D01*
X69388379Y-76602381D01*
X69256349Y-76657069D01*
X69256340Y-76657074D01*
X69137521Y-76736467D01*
X69137517Y-76736470D01*
X69036470Y-76837517D01*
X69036467Y-76837521D01*
X68957074Y-76956340D01*
X68957069Y-76956349D01*
X68902381Y-77088379D01*
X68902379Y-77088385D01*
X68874500Y-77228542D01*
X68874500Y-77228545D01*
X68874500Y-77371455D01*
X68874500Y-77371457D01*
X68874499Y-77371457D01*
X56399082Y-77371457D01*
X56288696Y-77349500D01*
X56288692Y-77349500D01*
X56111308Y-77349500D01*
X56111303Y-77349500D01*
X55937341Y-77384103D01*
X55937333Y-77384105D01*
X55773451Y-77451988D01*
X55625965Y-77550534D01*
X55625958Y-77550540D01*
X55500540Y-77675958D01*
X55500534Y-77675965D01*
X55401988Y-77823451D01*
X55334105Y-77987333D01*
X55334103Y-77987341D01*
X55299500Y-78161303D01*
X13060267Y-78161303D01*
X13060267Y-76071457D01*
X25074499Y-76071457D01*
X25102379Y-76211614D01*
X25102381Y-76211620D01*
X25157069Y-76343650D01*
X25157074Y-76343659D01*
X25236467Y-76462478D01*
X25236470Y-76462482D01*
X25337517Y-76563529D01*
X25337521Y-76563532D01*
X25456340Y-76642925D01*
X25456346Y-76642928D01*
X25456347Y-76642929D01*
X25588380Y-76697619D01*
X25588384Y-76697619D01*
X25588385Y-76697620D01*
X25728542Y-76725500D01*
X25728545Y-76725500D01*
X25871457Y-76725500D01*
X26014250Y-76697096D01*
X26083842Y-76703323D01*
X26139019Y-76746186D01*
X26162264Y-76812075D01*
X26153003Y-76866165D01*
X26102382Y-76988375D01*
X26102379Y-76988385D01*
X26074500Y-77128542D01*
X26074500Y-77128545D01*
X26074500Y-77271455D01*
X26074500Y-77271457D01*
X26074499Y-77271457D01*
X26102379Y-77411614D01*
X26102381Y-77411620D01*
X26157069Y-77543650D01*
X26157074Y-77543659D01*
X26236467Y-77662478D01*
X26236470Y-77662482D01*
X26337517Y-77763529D01*
X26337521Y-77763532D01*
X26456340Y-77842925D01*
X26456346Y-77842928D01*
X26456347Y-77842929D01*
X26588380Y-77897619D01*
X26588384Y-77897619D01*
X26588385Y-77897620D01*
X26728542Y-77925500D01*
X26728545Y-77925500D01*
X26871457Y-77925500D01*
X26965751Y-77906742D01*
X27011620Y-77897619D01*
X27143653Y-77842929D01*
X27262479Y-77763532D01*
X27363532Y-77662479D01*
X27442929Y-77543653D01*
X27497619Y-77411620D01*
X27525500Y-77271455D01*
X27525500Y-77128545D01*
X27525500Y-77128542D01*
X27497620Y-76988385D01*
X27497619Y-76988384D01*
X27497619Y-76988380D01*
X27442929Y-76856347D01*
X27442928Y-76856346D01*
X27442925Y-76856340D01*
X27363532Y-76737521D01*
X27363529Y-76737517D01*
X27262482Y-76636470D01*
X27262478Y-76636467D01*
X27165184Y-76571457D01*
X70774499Y-76571457D01*
X70802379Y-76711614D01*
X70802381Y-76711620D01*
X70857069Y-76843650D01*
X70857074Y-76843659D01*
X70936467Y-76962478D01*
X70936470Y-76962482D01*
X71037517Y-77063529D01*
X71037521Y-77063532D01*
X71156340Y-77142925D01*
X71156346Y-77142928D01*
X71156347Y-77142929D01*
X71288380Y-77197619D01*
X71288384Y-77197619D01*
X71288385Y-77197620D01*
X71428542Y-77225500D01*
X71428545Y-77225500D01*
X71571457Y-77225500D01*
X71665751Y-77206742D01*
X71711620Y-77197619D01*
X71843653Y-77142929D01*
X71962479Y-77063532D01*
X72063532Y-76962479D01*
X72142929Y-76843653D01*
X72172834Y-76771457D01*
X73074499Y-76771457D01*
X73102379Y-76911614D01*
X73102381Y-76911620D01*
X73157069Y-77043650D01*
X73157074Y-77043659D01*
X73236467Y-77162478D01*
X73236470Y-77162482D01*
X73337517Y-77263529D01*
X73337521Y-77263532D01*
X73456340Y-77342925D01*
X73456346Y-77342928D01*
X73456347Y-77342929D01*
X73588380Y-77397619D01*
X73588384Y-77397619D01*
X73588385Y-77397620D01*
X73728542Y-77425500D01*
X73728545Y-77425500D01*
X73871457Y-77425500D01*
X73965751Y-77406742D01*
X74011620Y-77397619D01*
X74143653Y-77342929D01*
X74262479Y-77263532D01*
X74363532Y-77162479D01*
X74442929Y-77043653D01*
X74497619Y-76911620D01*
X74511139Y-76843650D01*
X74525500Y-76771457D01*
X74525500Y-76628542D01*
X74497620Y-76488385D01*
X74497619Y-76488384D01*
X74497619Y-76488380D01*
X74442929Y-76356347D01*
X74442928Y-76356346D01*
X74442925Y-76356340D01*
X74363532Y-76237521D01*
X74363529Y-76237517D01*
X74262482Y-76136470D01*
X74262478Y-76136467D01*
X74143659Y-76057074D01*
X74143650Y-76057069D01*
X74011620Y-76002381D01*
X74011614Y-76002379D01*
X73871457Y-75974500D01*
X73871455Y-75974500D01*
X73728545Y-75974500D01*
X73728543Y-75974500D01*
X73588385Y-76002379D01*
X73588379Y-76002381D01*
X73456349Y-76057069D01*
X73456340Y-76057074D01*
X73337521Y-76136467D01*
X73337517Y-76136470D01*
X73236470Y-76237517D01*
X73236467Y-76237521D01*
X73157074Y-76356340D01*
X73157069Y-76356349D01*
X73102381Y-76488379D01*
X73102379Y-76488385D01*
X73074500Y-76628542D01*
X73074500Y-76628545D01*
X73074500Y-76771455D01*
X73074500Y-76771457D01*
X73074499Y-76771457D01*
X72172834Y-76771457D01*
X72197619Y-76711620D01*
X72214145Y-76628542D01*
X72220168Y-76598262D01*
X72220168Y-76598260D01*
X72225500Y-76571456D01*
X72225500Y-76428542D01*
X72197620Y-76288385D01*
X72197619Y-76288384D01*
X72197619Y-76288380D01*
X72142929Y-76156347D01*
X72142928Y-76156346D01*
X72142925Y-76156340D01*
X72063532Y-76037521D01*
X72063529Y-76037517D01*
X71962482Y-75936470D01*
X71962478Y-75936467D01*
X71843659Y-75857074D01*
X71843650Y-75857069D01*
X71711620Y-75802381D01*
X71711614Y-75802379D01*
X71571457Y-75774500D01*
X71571455Y-75774500D01*
X71428545Y-75774500D01*
X71428543Y-75774500D01*
X71288385Y-75802379D01*
X71288379Y-75802381D01*
X71156349Y-75857069D01*
X71156340Y-75857074D01*
X71037521Y-75936467D01*
X71037517Y-75936470D01*
X70936470Y-76037517D01*
X70936467Y-76037521D01*
X70857074Y-76156340D01*
X70857069Y-76156349D01*
X70802381Y-76288379D01*
X70802379Y-76288385D01*
X70774500Y-76428542D01*
X70774500Y-76428545D01*
X70774500Y-76571455D01*
X70774500Y-76571457D01*
X70774499Y-76571457D01*
X27165184Y-76571457D01*
X27143659Y-76557074D01*
X27143646Y-76557067D01*
X27095232Y-76537014D01*
X27095231Y-76537014D01*
X27011620Y-76502381D01*
X27011614Y-76502379D01*
X26871457Y-76474500D01*
X26871455Y-76474500D01*
X26728545Y-76474500D01*
X26728540Y-76474500D01*
X26585748Y-76502903D01*
X26516156Y-76496676D01*
X26460979Y-76453813D01*
X26437735Y-76387923D01*
X26446995Y-76333835D01*
X26497619Y-76211620D01*
X26525500Y-76071455D01*
X26525500Y-75928545D01*
X26525500Y-75928542D01*
X26497620Y-75788385D01*
X26497619Y-75788384D01*
X26497619Y-75788380D01*
X26442929Y-75656347D01*
X26442928Y-75656346D01*
X26442925Y-75656340D01*
X26363532Y-75537521D01*
X26363529Y-75537517D01*
X26262482Y-75436470D01*
X26262478Y-75436467D01*
X26143659Y-75357074D01*
X26143650Y-75357069D01*
X26011620Y-75302381D01*
X26011614Y-75302379D01*
X25871457Y-75274500D01*
X25871455Y-75274500D01*
X25728545Y-75274500D01*
X25728543Y-75274500D01*
X25588385Y-75302379D01*
X25588379Y-75302381D01*
X25456349Y-75357069D01*
X25456340Y-75357074D01*
X25337521Y-75436467D01*
X25337517Y-75436470D01*
X25236470Y-75537517D01*
X25236467Y-75537521D01*
X25157074Y-75656340D01*
X25157069Y-75656349D01*
X25102381Y-75788379D01*
X25102379Y-75788385D01*
X25074500Y-75928542D01*
X25074500Y-75928545D01*
X25074500Y-76071455D01*
X25074500Y-76071457D01*
X25074499Y-76071457D01*
X13060267Y-76071457D01*
X13060267Y-72871457D01*
X27174499Y-72871457D01*
X27202379Y-73011614D01*
X27202381Y-73011620D01*
X27257069Y-73143650D01*
X27257074Y-73143659D01*
X27336467Y-73262478D01*
X27336470Y-73262482D01*
X27437517Y-73363529D01*
X27437521Y-73363532D01*
X27556340Y-73442925D01*
X27556346Y-73442928D01*
X27556347Y-73442929D01*
X27688380Y-73497619D01*
X27688384Y-73497619D01*
X27688385Y-73497620D01*
X27828542Y-73525500D01*
X27850500Y-73525500D01*
X27917539Y-73545185D01*
X27963294Y-73597989D01*
X27974500Y-73649500D01*
X27974500Y-73671455D01*
X27974500Y-73671457D01*
X27974499Y-73671457D01*
X28002379Y-73811614D01*
X28002381Y-73811620D01*
X28057069Y-73943650D01*
X28057074Y-73943659D01*
X28136467Y-74062478D01*
X28136470Y-74062482D01*
X28237517Y-74163529D01*
X28237521Y-74163532D01*
X28356340Y-74242925D01*
X28356346Y-74242928D01*
X28356347Y-74242929D01*
X28488380Y-74297619D01*
X28488384Y-74297619D01*
X28488385Y-74297620D01*
X28628542Y-74325500D01*
X28628545Y-74325500D01*
X28771457Y-74325500D01*
X28865751Y-74306742D01*
X28911620Y-74297619D01*
X29043653Y-74242929D01*
X29162479Y-74163532D01*
X29263532Y-74062479D01*
X29342929Y-73943653D01*
X29397619Y-73811620D01*
X29406742Y-73765751D01*
X29425500Y-73671457D01*
X29425500Y-73528542D01*
X29397620Y-73388385D01*
X29397619Y-73388384D01*
X29397619Y-73388380D01*
X29342929Y-73256347D01*
X29342928Y-73256346D01*
X29342925Y-73256340D01*
X29263532Y-73137521D01*
X29263529Y-73137517D01*
X29162482Y-73036470D01*
X29162478Y-73036467D01*
X29043659Y-72957074D01*
X29043650Y-72957069D01*
X28911620Y-72902381D01*
X28911614Y-72902379D01*
X28771457Y-72874500D01*
X28771455Y-72874500D01*
X28749500Y-72874500D01*
X28740814Y-72871949D01*
X28731853Y-72873238D01*
X28727953Y-72871457D01*
X92574499Y-72871457D01*
X92602379Y-73011614D01*
X92602381Y-73011620D01*
X92657069Y-73143650D01*
X92657074Y-73143659D01*
X92736467Y-73262478D01*
X92736470Y-73262482D01*
X92837517Y-73363529D01*
X92837521Y-73363532D01*
X92887456Y-73396898D01*
X92932261Y-73450510D01*
X92940968Y-73519835D01*
X92910813Y-73582863D01*
X92887456Y-73603102D01*
X92837521Y-73636467D01*
X92837517Y-73636470D01*
X92736470Y-73737517D01*
X92736467Y-73737521D01*
X92657074Y-73856340D01*
X92657069Y-73856349D01*
X92602381Y-73988379D01*
X92602379Y-73988385D01*
X92574500Y-74128542D01*
X92574500Y-74128545D01*
X92574500Y-74271455D01*
X92574500Y-74271457D01*
X92574499Y-74271457D01*
X92602379Y-74411614D01*
X92602381Y-74411620D01*
X92657069Y-74543650D01*
X92657074Y-74543659D01*
X92736467Y-74662478D01*
X92736470Y-74662482D01*
X92837517Y-74763529D01*
X92837521Y-74763532D01*
X92956340Y-74842925D01*
X92956346Y-74842928D01*
X92956347Y-74842929D01*
X93088380Y-74897619D01*
X93088384Y-74897619D01*
X93088385Y-74897620D01*
X93228542Y-74925500D01*
X93228545Y-74925500D01*
X93371457Y-74925500D01*
X93465751Y-74906742D01*
X93511620Y-74897619D01*
X93643653Y-74842929D01*
X93762479Y-74763532D01*
X93863532Y-74662479D01*
X93942929Y-74543653D01*
X93997619Y-74411620D01*
X94014750Y-74325500D01*
X94025500Y-74271457D01*
X94025500Y-74128542D01*
X93997620Y-73988385D01*
X93997619Y-73988384D01*
X93997619Y-73988380D01*
X93942929Y-73856347D01*
X93942928Y-73856346D01*
X93942925Y-73856340D01*
X93863532Y-73737521D01*
X93863529Y-73737517D01*
X93762481Y-73636469D01*
X93742456Y-73623089D01*
X93712543Y-73603101D01*
X93667738Y-73549491D01*
X93659031Y-73480166D01*
X93689185Y-73417138D01*
X93712543Y-73396898D01*
X93762479Y-73363532D01*
X93863532Y-73262479D01*
X93942929Y-73143653D01*
X93997619Y-73011620D01*
X94008470Y-72957069D01*
X94025500Y-72871457D01*
X94025500Y-72728542D01*
X93997620Y-72588385D01*
X93997619Y-72588384D01*
X93997619Y-72588380D01*
X93942929Y-72456347D01*
X93942928Y-72456346D01*
X93942925Y-72456340D01*
X93863532Y-72337521D01*
X93863529Y-72337517D01*
X93762482Y-72236470D01*
X93762478Y-72236467D01*
X93643659Y-72157074D01*
X93643650Y-72157069D01*
X93511620Y-72102381D01*
X93511614Y-72102379D01*
X93371457Y-72074500D01*
X93371455Y-72074500D01*
X93228545Y-72074500D01*
X93228543Y-72074500D01*
X93088385Y-72102379D01*
X93088379Y-72102381D01*
X92956349Y-72157069D01*
X92956340Y-72157074D01*
X92837521Y-72236467D01*
X92837517Y-72236470D01*
X92736470Y-72337517D01*
X92736467Y-72337521D01*
X92657074Y-72456340D01*
X92657069Y-72456349D01*
X92602381Y-72588379D01*
X92602379Y-72588385D01*
X92574500Y-72728542D01*
X92574500Y-72728545D01*
X92574500Y-72871455D01*
X92574500Y-72871457D01*
X92574499Y-72871457D01*
X28727953Y-72871457D01*
X28707812Y-72862259D01*
X28682461Y-72854815D01*
X28676533Y-72847974D01*
X28668297Y-72844213D01*
X28654007Y-72821978D01*
X28636706Y-72802011D01*
X28634418Y-72791496D01*
X28630523Y-72785435D01*
X28625500Y-72750500D01*
X28625500Y-72728542D01*
X28597620Y-72588385D01*
X28597619Y-72588384D01*
X28597619Y-72588380D01*
X28542929Y-72456347D01*
X28542928Y-72456346D01*
X28542925Y-72456340D01*
X28463532Y-72337521D01*
X28463529Y-72337517D01*
X28362482Y-72236470D01*
X28362478Y-72236467D01*
X28243659Y-72157074D01*
X28243650Y-72157069D01*
X28111620Y-72102381D01*
X28111614Y-72102379D01*
X27971457Y-72074500D01*
X27971455Y-72074500D01*
X27828545Y-72074500D01*
X27828543Y-72074500D01*
X27688385Y-72102379D01*
X27688379Y-72102381D01*
X27556349Y-72157069D01*
X27556340Y-72157074D01*
X27437521Y-72236467D01*
X27437517Y-72236470D01*
X27336470Y-72337517D01*
X27336467Y-72337521D01*
X27257074Y-72456340D01*
X27257069Y-72456349D01*
X27202381Y-72588379D01*
X27202379Y-72588385D01*
X27174500Y-72728542D01*
X27174500Y-72728545D01*
X27174500Y-72871455D01*
X27174500Y-72871457D01*
X27174499Y-72871457D01*
X13060267Y-72871457D01*
X13060267Y-71071457D01*
X39474499Y-71071457D01*
X39502379Y-71211614D01*
X39502381Y-71211620D01*
X39557069Y-71343650D01*
X39557074Y-71343659D01*
X39636467Y-71462478D01*
X39636470Y-71462482D01*
X39737517Y-71563529D01*
X39737521Y-71563532D01*
X39856340Y-71642925D01*
X39856346Y-71642928D01*
X39856347Y-71642929D01*
X39988380Y-71697619D01*
X39988384Y-71697619D01*
X39988385Y-71697620D01*
X40128542Y-71725500D01*
X40128545Y-71725500D01*
X40271457Y-71725500D01*
X40365751Y-71706742D01*
X40411620Y-71697619D01*
X40543653Y-71642929D01*
X40662479Y-71563532D01*
X40763532Y-71462479D01*
X40842929Y-71343653D01*
X40897619Y-71211620D01*
X40925500Y-71071455D01*
X40925500Y-70928545D01*
X40925500Y-70928542D01*
X40897620Y-70788385D01*
X40897619Y-70788384D01*
X40897619Y-70788380D01*
X40842929Y-70656347D01*
X40842928Y-70656346D01*
X40842925Y-70656340D01*
X40763532Y-70537521D01*
X40763529Y-70537517D01*
X40662482Y-70436470D01*
X40662478Y-70436467D01*
X40543659Y-70357074D01*
X40543650Y-70357069D01*
X40411620Y-70302381D01*
X40411614Y-70302379D01*
X40271457Y-70274500D01*
X40271455Y-70274500D01*
X40128545Y-70274500D01*
X40128543Y-70274500D01*
X39988385Y-70302379D01*
X39988379Y-70302381D01*
X39856349Y-70357069D01*
X39856340Y-70357074D01*
X39737521Y-70436467D01*
X39737517Y-70436470D01*
X39636470Y-70537517D01*
X39636467Y-70537521D01*
X39557074Y-70656340D01*
X39557069Y-70656349D01*
X39502381Y-70788379D01*
X39502379Y-70788385D01*
X39474500Y-70928542D01*
X39474500Y-70928545D01*
X39474500Y-71071455D01*
X39474500Y-71071457D01*
X39474499Y-71071457D01*
X13060267Y-71071457D01*
X13060267Y-69570000D01*
X14030138Y-69570000D01*
X14833012Y-69570000D01*
X14815795Y-69579940D01*
X14759940Y-69635795D01*
X14720444Y-69704204D01*
X14700000Y-69780504D01*
X14700000Y-69859496D01*
X14720444Y-69935796D01*
X14759940Y-70004205D01*
X14815795Y-70060060D01*
X14833012Y-70070000D01*
X14030138Y-70070000D01*
X14038430Y-70111690D01*
X14038430Y-70111692D01*
X14113807Y-70293671D01*
X14113814Y-70293684D01*
X14223248Y-70457462D01*
X14223251Y-70457466D01*
X14362533Y-70596748D01*
X14362537Y-70596751D01*
X14526315Y-70706185D01*
X14526328Y-70706192D01*
X14708306Y-70781569D01*
X14708318Y-70781572D01*
X14901504Y-70819999D01*
X14901508Y-70820000D01*
X15150000Y-70820000D01*
X15150000Y-70120000D01*
X15650000Y-70120000D01*
X15650000Y-70820000D01*
X15898492Y-70820000D01*
X15898495Y-70819999D01*
X16091681Y-70781572D01*
X16091693Y-70781569D01*
X16273671Y-70706192D01*
X16273684Y-70706185D01*
X16437462Y-70596751D01*
X16437466Y-70596748D01*
X16576748Y-70457466D01*
X16576751Y-70457462D01*
X16686185Y-70293684D01*
X16686192Y-70293671D01*
X16761569Y-70111692D01*
X16761569Y-70111690D01*
X16769862Y-70070000D01*
X15966988Y-70070000D01*
X15984205Y-70060060D01*
X16040060Y-70004205D01*
X16079556Y-69935796D01*
X16100000Y-69859496D01*
X16100000Y-69780504D01*
X16079556Y-69704204D01*
X16040060Y-69635795D01*
X15984205Y-69579940D01*
X15966988Y-69570000D01*
X16769862Y-69570000D01*
X18060138Y-69570000D01*
X18863012Y-69570000D01*
X18845795Y-69579940D01*
X18789940Y-69635795D01*
X18750444Y-69704204D01*
X18730000Y-69780504D01*
X18730000Y-69859496D01*
X18750444Y-69935796D01*
X18789940Y-70004205D01*
X18845795Y-70060060D01*
X18863012Y-70070000D01*
X18060138Y-70070000D01*
X18068430Y-70111690D01*
X18068430Y-70111692D01*
X18143807Y-70293671D01*
X18143814Y-70293684D01*
X18253248Y-70457462D01*
X18253251Y-70457466D01*
X18392533Y-70596748D01*
X18392537Y-70596751D01*
X18556315Y-70706185D01*
X18556328Y-70706192D01*
X18738306Y-70781569D01*
X18738318Y-70781572D01*
X18931504Y-70819999D01*
X18931508Y-70820000D01*
X19330000Y-70820000D01*
X19330000Y-70120000D01*
X19830000Y-70120000D01*
X19830000Y-70820000D01*
X20228492Y-70820000D01*
X20228495Y-70819999D01*
X20324839Y-70800836D01*
X20421681Y-70781572D01*
X20421693Y-70781569D01*
X20603671Y-70706192D01*
X20603684Y-70706185D01*
X20767462Y-70596751D01*
X20767466Y-70596748D01*
X20906748Y-70457466D01*
X20906751Y-70457462D01*
X21016185Y-70293684D01*
X21016192Y-70293671D01*
X21091569Y-70111692D01*
X21091569Y-70111690D01*
X21099862Y-70070000D01*
X20296988Y-70070000D01*
X20314205Y-70060060D01*
X20370060Y-70004205D01*
X20409556Y-69935796D01*
X20430000Y-69859496D01*
X20430000Y-69780504D01*
X20409556Y-69704204D01*
X20370060Y-69635795D01*
X20314205Y-69579940D01*
X20296988Y-69570000D01*
X21099862Y-69570000D01*
X21091569Y-69528309D01*
X21091569Y-69528307D01*
X21016192Y-69346328D01*
X21016185Y-69346315D01*
X20906751Y-69182537D01*
X20906748Y-69182533D01*
X20767466Y-69043251D01*
X20767462Y-69043248D01*
X20603684Y-68933814D01*
X20603671Y-68933807D01*
X20421693Y-68858430D01*
X20421681Y-68858427D01*
X20228495Y-68820000D01*
X19830000Y-68820000D01*
X19830000Y-69520000D01*
X19330000Y-69520000D01*
X19330000Y-68793110D01*
X19338644Y-68763669D01*
X19345168Y-68733683D01*
X19348922Y-68728667D01*
X19349685Y-68726071D01*
X19366319Y-68705429D01*
X19390791Y-68680957D01*
X19400291Y-68671457D01*
X25974499Y-68671457D01*
X26002379Y-68811614D01*
X26002381Y-68811620D01*
X26057069Y-68943650D01*
X26057074Y-68943659D01*
X26136467Y-69062478D01*
X26136470Y-69062482D01*
X26237517Y-69163529D01*
X26237521Y-69163532D01*
X26356340Y-69242925D01*
X26356346Y-69242928D01*
X26356347Y-69242929D01*
X26488380Y-69297619D01*
X26488384Y-69297619D01*
X26488385Y-69297620D01*
X26628542Y-69325500D01*
X26628545Y-69325500D01*
X26771457Y-69325500D01*
X26865751Y-69306742D01*
X26911620Y-69297619D01*
X27043653Y-69242929D01*
X27162479Y-69163532D01*
X27263532Y-69062479D01*
X27342929Y-68943653D01*
X27397619Y-68811620D01*
X27414120Y-68728667D01*
X27425500Y-68671457D01*
X27425500Y-68528542D01*
X27397620Y-68388385D01*
X27397619Y-68388384D01*
X27397619Y-68388380D01*
X27342929Y-68256347D01*
X27342928Y-68256346D01*
X27342925Y-68256340D01*
X27263532Y-68137521D01*
X27263529Y-68137517D01*
X27162482Y-68036470D01*
X27162478Y-68036467D01*
X27043659Y-67957074D01*
X27043650Y-67957069D01*
X26911620Y-67902381D01*
X26911614Y-67902379D01*
X26771457Y-67874500D01*
X26771455Y-67874500D01*
X26628545Y-67874500D01*
X26628543Y-67874500D01*
X26488385Y-67902379D01*
X26488379Y-67902381D01*
X26356349Y-67957069D01*
X26356340Y-67957074D01*
X26237521Y-68036467D01*
X26237517Y-68036470D01*
X26136470Y-68137517D01*
X26136467Y-68137521D01*
X26057074Y-68256340D01*
X26057069Y-68256349D01*
X26002381Y-68388379D01*
X26002379Y-68388385D01*
X25974500Y-68528542D01*
X25974500Y-68528545D01*
X25974500Y-68671455D01*
X25974500Y-68671457D01*
X25974499Y-68671457D01*
X19400291Y-68671457D01*
X19405574Y-68666174D01*
X19420485Y-68651263D01*
X19476503Y-68554237D01*
X19505500Y-68446018D01*
X19505500Y-68333982D01*
X19476503Y-68225763D01*
X19420485Y-68128737D01*
X19341263Y-68049515D01*
X19244237Y-67993497D01*
X19136018Y-67964500D01*
X19023982Y-67964500D01*
X18915763Y-67993497D01*
X18915760Y-67993498D01*
X18818740Y-68049513D01*
X18818734Y-68049517D01*
X18739517Y-68128734D01*
X18739513Y-68128740D01*
X18683498Y-68225760D01*
X18683497Y-68225763D01*
X18654500Y-68333982D01*
X18654500Y-68446018D01*
X18683497Y-68554237D01*
X18739515Y-68651263D01*
X18739517Y-68651265D01*
X18754426Y-68666174D01*
X18787911Y-68727497D01*
X18782927Y-68797189D01*
X18741055Y-68853122D01*
X18714198Y-68868416D01*
X18556325Y-68933809D01*
X18556315Y-68933814D01*
X18392537Y-69043248D01*
X18392533Y-69043251D01*
X18253251Y-69182533D01*
X18253248Y-69182537D01*
X18143814Y-69346315D01*
X18143807Y-69346328D01*
X18068430Y-69528307D01*
X18068430Y-69528309D01*
X18060138Y-69570000D01*
X16769862Y-69570000D01*
X16761569Y-69528309D01*
X16761569Y-69528307D01*
X16686192Y-69346328D01*
X16686185Y-69346315D01*
X16576751Y-69182537D01*
X16576748Y-69182533D01*
X16437466Y-69043251D01*
X16437462Y-69043248D01*
X16273684Y-68933814D01*
X16273671Y-68933807D01*
X16091693Y-68858430D01*
X16091681Y-68858427D01*
X15898495Y-68820000D01*
X15650000Y-68820000D01*
X15650000Y-69520000D01*
X15150000Y-69520000D01*
X15150000Y-68820000D01*
X14901504Y-68820000D01*
X14708318Y-68858427D01*
X14708306Y-68858430D01*
X14526328Y-68933807D01*
X14526315Y-68933814D01*
X14362537Y-69043248D01*
X14362533Y-69043251D01*
X14223251Y-69182533D01*
X14223248Y-69182537D01*
X14113814Y-69346315D01*
X14113807Y-69346328D01*
X14038430Y-69528307D01*
X14038430Y-69528309D01*
X14030138Y-69570000D01*
X13060267Y-69570000D01*
X13060267Y-67272332D01*
X36139500Y-67272332D01*
X36139500Y-67547667D01*
X36139501Y-67547684D01*
X36175438Y-67820655D01*
X36175439Y-67820660D01*
X36175440Y-67820666D01*
X36199377Y-67910000D01*
X36246704Y-68086630D01*
X36352075Y-68341017D01*
X36352080Y-68341028D01*
X36412697Y-68446018D01*
X36489751Y-68579479D01*
X36489753Y-68579482D01*
X36489754Y-68579483D01*
X36657370Y-68797926D01*
X36657376Y-68797933D01*
X36852066Y-68992623D01*
X36852073Y-68992629D01*
X36918045Y-69043251D01*
X37070521Y-69160249D01*
X37223778Y-69248732D01*
X37308971Y-69297919D01*
X37308976Y-69297921D01*
X37308979Y-69297923D01*
X37563368Y-69403295D01*
X37829334Y-69474560D01*
X38102326Y-69510500D01*
X38102333Y-69510500D01*
X38377667Y-69510500D01*
X38377674Y-69510500D01*
X38650666Y-69474560D01*
X38916632Y-69403295D01*
X39171021Y-69297923D01*
X39409479Y-69160249D01*
X39627928Y-68992628D01*
X39822628Y-68797928D01*
X39990249Y-68579479D01*
X40127923Y-68341021D01*
X40233295Y-68086632D01*
X40304560Y-67820666D01*
X40340500Y-67547674D01*
X40340500Y-67300638D01*
X40660500Y-67300638D01*
X40660500Y-67519361D01*
X40694714Y-67735376D01*
X40762297Y-67943380D01*
X40762298Y-67943383D01*
X40813021Y-68042930D01*
X40856742Y-68128737D01*
X40861595Y-68138260D01*
X40990142Y-68315193D01*
X41144806Y-68469857D01*
X41295696Y-68579483D01*
X41321743Y-68598407D01*
X41425470Y-68651259D01*
X41516616Y-68697701D01*
X41516619Y-68697702D01*
X41603932Y-68726071D01*
X41724625Y-68765286D01*
X41824672Y-68781132D01*
X41940639Y-68799500D01*
X41940644Y-68799500D01*
X42159361Y-68799500D01*
X42264082Y-68782912D01*
X42375375Y-68765286D01*
X42583383Y-68697701D01*
X42778257Y-68598407D01*
X42877601Y-68526229D01*
X42955193Y-68469857D01*
X42955195Y-68469854D01*
X42955199Y-68469852D01*
X43109852Y-68315199D01*
X43219683Y-68164028D01*
X43275011Y-68121364D01*
X43344624Y-68115385D01*
X43406420Y-68147990D01*
X43420313Y-68164023D01*
X43529906Y-68314866D01*
X43530148Y-68315199D01*
X43684806Y-68469857D01*
X43835696Y-68579483D01*
X43861743Y-68598407D01*
X43965470Y-68651259D01*
X44056616Y-68697701D01*
X44056619Y-68697702D01*
X44143932Y-68726071D01*
X44264625Y-68765286D01*
X44364672Y-68781132D01*
X44480639Y-68799500D01*
X44480644Y-68799500D01*
X44699361Y-68799500D01*
X44804082Y-68782912D01*
X44915375Y-68765286D01*
X45123383Y-68697701D01*
X45318257Y-68598407D01*
X45417601Y-68526229D01*
X45495193Y-68469857D01*
X45495195Y-68469854D01*
X45495199Y-68469852D01*
X45649852Y-68315199D01*
X45759683Y-68164028D01*
X45815011Y-68121364D01*
X45884624Y-68115385D01*
X45946420Y-68147990D01*
X45960313Y-68164023D01*
X46069906Y-68314866D01*
X46070148Y-68315199D01*
X46224806Y-68469857D01*
X46375696Y-68579483D01*
X46401743Y-68598407D01*
X46505470Y-68651259D01*
X46596616Y-68697701D01*
X46596619Y-68697702D01*
X46683932Y-68726071D01*
X46804625Y-68765286D01*
X46904672Y-68781132D01*
X47020639Y-68799500D01*
X47020644Y-68799500D01*
X47239361Y-68799500D01*
X47344082Y-68782912D01*
X47455375Y-68765286D01*
X47663383Y-68697701D01*
X47858257Y-68598407D01*
X47957601Y-68526229D01*
X48035193Y-68469857D01*
X48035195Y-68469854D01*
X48035199Y-68469852D01*
X48189852Y-68315199D01*
X48299991Y-68163603D01*
X48355320Y-68120939D01*
X48424933Y-68114960D01*
X48486729Y-68147565D01*
X48500627Y-68163605D01*
X48610524Y-68314866D01*
X48610528Y-68314871D01*
X48765128Y-68469471D01*
X48765133Y-68469475D01*
X48942001Y-68597976D01*
X49136808Y-68697237D01*
X49136811Y-68697238D01*
X49344739Y-68764797D01*
X49419999Y-68776717D01*
X49420000Y-68776717D01*
X49420000Y-67843012D01*
X49477007Y-67875925D01*
X49604174Y-67910000D01*
X49735826Y-67910000D01*
X49862993Y-67875925D01*
X49920000Y-67843012D01*
X49920000Y-68776717D01*
X49995258Y-68764797D01*
X49995261Y-68764797D01*
X50203188Y-68697238D01*
X50203191Y-68697237D01*
X50397998Y-68597976D01*
X50574866Y-68469475D01*
X50574871Y-68469471D01*
X50729469Y-68314873D01*
X50839371Y-68163605D01*
X50894701Y-68120939D01*
X50964314Y-68114960D01*
X51026110Y-68147565D01*
X51040008Y-68163605D01*
X51150142Y-68315192D01*
X51150146Y-68315197D01*
X51304806Y-68469857D01*
X51455696Y-68579483D01*
X51481743Y-68598407D01*
X51585470Y-68651259D01*
X51676616Y-68697701D01*
X51676619Y-68697702D01*
X51763932Y-68726071D01*
X51884625Y-68765286D01*
X51984672Y-68781132D01*
X52100639Y-68799500D01*
X52100644Y-68799500D01*
X52319361Y-68799500D01*
X52424082Y-68782912D01*
X52535375Y-68765286D01*
X52743383Y-68697701D01*
X52938257Y-68598407D01*
X53037601Y-68526229D01*
X53115193Y-68469857D01*
X53115195Y-68469854D01*
X53115199Y-68469852D01*
X53269852Y-68315199D01*
X53379683Y-68164028D01*
X53435011Y-68121364D01*
X53504624Y-68115385D01*
X53566420Y-68147990D01*
X53580313Y-68164023D01*
X53689906Y-68314866D01*
X53690148Y-68315199D01*
X53844806Y-68469857D01*
X53995696Y-68579483D01*
X54021743Y-68598407D01*
X54125470Y-68651259D01*
X54216616Y-68697701D01*
X54216619Y-68697702D01*
X54303932Y-68726071D01*
X54424625Y-68765286D01*
X54524672Y-68781132D01*
X54640639Y-68799500D01*
X54640644Y-68799500D01*
X54859361Y-68799500D01*
X54964082Y-68782912D01*
X55075375Y-68765286D01*
X55283383Y-68697701D01*
X55478257Y-68598407D01*
X55577601Y-68526229D01*
X55655193Y-68469857D01*
X55655195Y-68469854D01*
X55655199Y-68469852D01*
X55809852Y-68315199D01*
X55809854Y-68315195D01*
X55809857Y-68315193D01*
X55874833Y-68225760D01*
X55938407Y-68138257D01*
X56037701Y-67943383D01*
X56105286Y-67735375D01*
X56126253Y-67602993D01*
X56139500Y-67519361D01*
X56139500Y-67300639D01*
X56137445Y-67287666D01*
X56137445Y-67287665D01*
X56135016Y-67272332D01*
X56459500Y-67272332D01*
X56459500Y-67547667D01*
X56459501Y-67547684D01*
X56495438Y-67820655D01*
X56495439Y-67820660D01*
X56495440Y-67820666D01*
X56519377Y-67910000D01*
X56566704Y-68086630D01*
X56672075Y-68341017D01*
X56672080Y-68341028D01*
X56732697Y-68446018D01*
X56809751Y-68579479D01*
X56809753Y-68579482D01*
X56809754Y-68579483D01*
X56977370Y-68797926D01*
X56977376Y-68797933D01*
X57172066Y-68992623D01*
X57172073Y-68992629D01*
X57238045Y-69043251D01*
X57390521Y-69160249D01*
X57543778Y-69248732D01*
X57628971Y-69297919D01*
X57628976Y-69297921D01*
X57628979Y-69297923D01*
X57883368Y-69403295D01*
X58149334Y-69474560D01*
X58422326Y-69510500D01*
X58422333Y-69510500D01*
X58697667Y-69510500D01*
X58697674Y-69510500D01*
X58970666Y-69474560D01*
X59236632Y-69403295D01*
X59491021Y-69297923D01*
X59729479Y-69160249D01*
X59947928Y-68992628D01*
X60142628Y-68797928D01*
X60310249Y-68579479D01*
X60447923Y-68341021D01*
X60553295Y-68086632D01*
X60624560Y-67820666D01*
X60660500Y-67547674D01*
X60660500Y-67471457D01*
X62074499Y-67471457D01*
X62102379Y-67611614D01*
X62102381Y-67611620D01*
X62157069Y-67743650D01*
X62157074Y-67743659D01*
X62236467Y-67862478D01*
X62236470Y-67862482D01*
X62337517Y-67963529D01*
X62337521Y-67963532D01*
X62456340Y-68042925D01*
X62456346Y-68042928D01*
X62456347Y-68042929D01*
X62588380Y-68097619D01*
X62588384Y-68097619D01*
X62588385Y-68097620D01*
X62728542Y-68125500D01*
X62728545Y-68125500D01*
X62871457Y-68125500D01*
X62965751Y-68106742D01*
X63011620Y-68097619D01*
X63143653Y-68042929D01*
X63262479Y-67963532D01*
X63363532Y-67862479D01*
X63442929Y-67743653D01*
X63497619Y-67611620D01*
X63525500Y-67471455D01*
X63525500Y-67328545D01*
X63525500Y-67328542D01*
X63508783Y-67244504D01*
X63515010Y-67174912D01*
X63557872Y-67119735D01*
X63606213Y-67098694D01*
X63611620Y-67097619D01*
X63743653Y-67042929D01*
X63862479Y-66963532D01*
X63963532Y-66862479D01*
X64042929Y-66743653D01*
X64097619Y-66611620D01*
X64124003Y-66478982D01*
X64125500Y-66471457D01*
X64125500Y-66328542D01*
X64097620Y-66188385D01*
X64097619Y-66188384D01*
X64097619Y-66188380D01*
X64042929Y-66056347D01*
X64042928Y-66056346D01*
X64042925Y-66056340D01*
X63963532Y-65937521D01*
X63963529Y-65937517D01*
X63862482Y-65836470D01*
X63862478Y-65836467D01*
X63743659Y-65757074D01*
X63743650Y-65757069D01*
X63611620Y-65702381D01*
X63611614Y-65702379D01*
X63471457Y-65674500D01*
X63471455Y-65674500D01*
X63328545Y-65674500D01*
X63328543Y-65674500D01*
X63188385Y-65702379D01*
X63188379Y-65702381D01*
X63056349Y-65757069D01*
X63056340Y-65757074D01*
X62937521Y-65836467D01*
X62937517Y-65836470D01*
X62836470Y-65937517D01*
X62836467Y-65937521D01*
X62757074Y-66056340D01*
X62757069Y-66056349D01*
X62702381Y-66188379D01*
X62702379Y-66188385D01*
X62674500Y-66328542D01*
X62674500Y-66471459D01*
X62691216Y-66555496D01*
X62684989Y-66625088D01*
X62642126Y-66680265D01*
X62593792Y-66701304D01*
X62588383Y-66702379D01*
X62588381Y-66702380D01*
X62456349Y-66757069D01*
X62456340Y-66757074D01*
X62337521Y-66836467D01*
X62337517Y-66836470D01*
X62236470Y-66937517D01*
X62236467Y-66937521D01*
X62157074Y-67056340D01*
X62157069Y-67056349D01*
X62102381Y-67188379D01*
X62102379Y-67188385D01*
X62074500Y-67328542D01*
X62074500Y-67328545D01*
X62074500Y-67471455D01*
X62074500Y-67471457D01*
X62074499Y-67471457D01*
X60660500Y-67471457D01*
X60660500Y-67272326D01*
X60624560Y-66999334D01*
X60553295Y-66733368D01*
X60447923Y-66478979D01*
X60447921Y-66478976D01*
X60447919Y-66478971D01*
X60398732Y-66393778D01*
X60310249Y-66240521D01*
X60142628Y-66022072D01*
X60142623Y-66022066D01*
X59947933Y-65827376D01*
X59947926Y-65827370D01*
X59729483Y-65659754D01*
X59729482Y-65659753D01*
X59729479Y-65659751D01*
X59634407Y-65604861D01*
X59491028Y-65522080D01*
X59491017Y-65522075D01*
X59236630Y-65416704D01*
X59103649Y-65381072D01*
X58970666Y-65345440D01*
X58970660Y-65345439D01*
X58970655Y-65345438D01*
X58697684Y-65309501D01*
X58697679Y-65309500D01*
X58697674Y-65309500D01*
X58422326Y-65309500D01*
X58422320Y-65309500D01*
X58422315Y-65309501D01*
X58149344Y-65345438D01*
X58149337Y-65345439D01*
X58149334Y-65345440D01*
X58093125Y-65360500D01*
X57883369Y-65416704D01*
X57628982Y-65522075D01*
X57628971Y-65522080D01*
X57390516Y-65659754D01*
X57172073Y-65827370D01*
X57172066Y-65827376D01*
X56977376Y-66022066D01*
X56977370Y-66022073D01*
X56809754Y-66240516D01*
X56672080Y-66478971D01*
X56672075Y-66478982D01*
X56566704Y-66733369D01*
X56495441Y-66999331D01*
X56495438Y-66999344D01*
X56459501Y-67272315D01*
X56459500Y-67272332D01*
X56135016Y-67272332D01*
X56111756Y-67125478D01*
X56105286Y-67084625D01*
X56037701Y-66876617D01*
X56037701Y-66876616D01*
X55976790Y-66757074D01*
X55938407Y-66681743D01*
X55887456Y-66611614D01*
X55809857Y-66504806D01*
X55655193Y-66350142D01*
X55478260Y-66221595D01*
X55478259Y-66221594D01*
X55478257Y-66221593D01*
X55413071Y-66188379D01*
X55283383Y-66122298D01*
X55283380Y-66122297D01*
X55075376Y-66054714D01*
X54859361Y-66020500D01*
X54859356Y-66020500D01*
X54640644Y-66020500D01*
X54640639Y-66020500D01*
X54424623Y-66054714D01*
X54216619Y-66122297D01*
X54216616Y-66122298D01*
X54021739Y-66221595D01*
X53844806Y-66350142D01*
X53690142Y-66504806D01*
X53580318Y-66655969D01*
X53524989Y-66698635D01*
X53455375Y-66704614D01*
X53393580Y-66672009D01*
X53379682Y-66655969D01*
X53269857Y-66504806D01*
X53115193Y-66350142D01*
X52938260Y-66221595D01*
X52938259Y-66221594D01*
X52938257Y-66221593D01*
X52873071Y-66188379D01*
X52743383Y-66122298D01*
X52743380Y-66122297D01*
X52535376Y-66054714D01*
X52319361Y-66020500D01*
X52319356Y-66020500D01*
X52100644Y-66020500D01*
X52100639Y-66020500D01*
X51884623Y-66054714D01*
X51676619Y-66122297D01*
X51676616Y-66122298D01*
X51481739Y-66221595D01*
X51304806Y-66350142D01*
X51150146Y-66504802D01*
X51150142Y-66504807D01*
X51040008Y-66656394D01*
X50984678Y-66699060D01*
X50915065Y-66705039D01*
X50853270Y-66672433D01*
X50839372Y-66656394D01*
X50729475Y-66505133D01*
X50729471Y-66505128D01*
X50574871Y-66350528D01*
X50574866Y-66350524D01*
X50397998Y-66222023D01*
X50203191Y-66122762D01*
X50203188Y-66122761D01*
X49995258Y-66055201D01*
X49920000Y-66043281D01*
X49920000Y-66976988D01*
X49862993Y-66944075D01*
X49735826Y-66910000D01*
X49604174Y-66910000D01*
X49477007Y-66944075D01*
X49420000Y-66976988D01*
X49420000Y-66043281D01*
X49344741Y-66055201D01*
X49136811Y-66122761D01*
X49136808Y-66122762D01*
X48942001Y-66222023D01*
X48765133Y-66350524D01*
X48765128Y-66350528D01*
X48610528Y-66505128D01*
X48610524Y-66505133D01*
X48500627Y-66656394D01*
X48445297Y-66699060D01*
X48375684Y-66705039D01*
X48313889Y-66672433D01*
X48299991Y-66656394D01*
X48189857Y-66504807D01*
X48189853Y-66504802D01*
X48035193Y-66350142D01*
X47858260Y-66221595D01*
X47858259Y-66221594D01*
X47858257Y-66221593D01*
X47793071Y-66188379D01*
X47663383Y-66122298D01*
X47663380Y-66122297D01*
X47455376Y-66054714D01*
X47239361Y-66020500D01*
X47239356Y-66020500D01*
X47020644Y-66020500D01*
X47020639Y-66020500D01*
X46804623Y-66054714D01*
X46596619Y-66122297D01*
X46596616Y-66122298D01*
X46401739Y-66221595D01*
X46224806Y-66350142D01*
X46070142Y-66504806D01*
X45960318Y-66655969D01*
X45904989Y-66698635D01*
X45835375Y-66704614D01*
X45773580Y-66672009D01*
X45759682Y-66655969D01*
X45649857Y-66504806D01*
X45495193Y-66350142D01*
X45318260Y-66221595D01*
X45318259Y-66221594D01*
X45318257Y-66221593D01*
X45253071Y-66188379D01*
X45123383Y-66122298D01*
X45123380Y-66122297D01*
X44915376Y-66054714D01*
X44699361Y-66020500D01*
X44699356Y-66020500D01*
X44480644Y-66020500D01*
X44480639Y-66020500D01*
X44264623Y-66054714D01*
X44056619Y-66122297D01*
X44056616Y-66122298D01*
X43861739Y-66221595D01*
X43684806Y-66350142D01*
X43530142Y-66504806D01*
X43420318Y-66655969D01*
X43364989Y-66698635D01*
X43295375Y-66704614D01*
X43233580Y-66672009D01*
X43219682Y-66655969D01*
X43109857Y-66504806D01*
X42955193Y-66350142D01*
X42778260Y-66221595D01*
X42778259Y-66221594D01*
X42778257Y-66221593D01*
X42713071Y-66188379D01*
X42583383Y-66122298D01*
X42583380Y-66122297D01*
X42375376Y-66054714D01*
X42159361Y-66020500D01*
X42159356Y-66020500D01*
X41940644Y-66020500D01*
X41940639Y-66020500D01*
X41724623Y-66054714D01*
X41516619Y-66122297D01*
X41516616Y-66122298D01*
X41321739Y-66221595D01*
X41144806Y-66350142D01*
X40990142Y-66504806D01*
X40861595Y-66681739D01*
X40762298Y-66876616D01*
X40762297Y-66876619D01*
X40694714Y-67084623D01*
X40660500Y-67300638D01*
X40340500Y-67300638D01*
X40340500Y-67272326D01*
X40304560Y-66999334D01*
X40233295Y-66733368D01*
X40127923Y-66478979D01*
X40127921Y-66478976D01*
X40127919Y-66478971D01*
X40078732Y-66393778D01*
X39990249Y-66240521D01*
X39822628Y-66022072D01*
X39822623Y-66022066D01*
X39627933Y-65827376D01*
X39627926Y-65827370D01*
X39409483Y-65659754D01*
X39409482Y-65659753D01*
X39409479Y-65659751D01*
X39314407Y-65604861D01*
X39171028Y-65522080D01*
X39171017Y-65522075D01*
X38916630Y-65416704D01*
X38783649Y-65381072D01*
X38650666Y-65345440D01*
X38650660Y-65345439D01*
X38650655Y-65345438D01*
X38377684Y-65309501D01*
X38377679Y-65309500D01*
X38377674Y-65309500D01*
X38102326Y-65309500D01*
X38102320Y-65309500D01*
X38102315Y-65309501D01*
X37829344Y-65345438D01*
X37829337Y-65345439D01*
X37829334Y-65345440D01*
X37773125Y-65360500D01*
X37563369Y-65416704D01*
X37308982Y-65522075D01*
X37308971Y-65522080D01*
X37070516Y-65659754D01*
X36852073Y-65827370D01*
X36852066Y-65827376D01*
X36657376Y-66022066D01*
X36657370Y-66022073D01*
X36489754Y-66240516D01*
X36352080Y-66478971D01*
X36352075Y-66478982D01*
X36246704Y-66733369D01*
X36175441Y-66999331D01*
X36175438Y-66999344D01*
X36139501Y-67272315D01*
X36139500Y-67272332D01*
X13060267Y-67272332D01*
X13060267Y-60930000D01*
X14030138Y-60930000D01*
X14833012Y-60930000D01*
X14815795Y-60939940D01*
X14759940Y-60995795D01*
X14720444Y-61064204D01*
X14700000Y-61140504D01*
X14700000Y-61219496D01*
X14720444Y-61295796D01*
X14759940Y-61364205D01*
X14815795Y-61420060D01*
X14833012Y-61430000D01*
X14030138Y-61430000D01*
X14038430Y-61471690D01*
X14038430Y-61471692D01*
X14113807Y-61653671D01*
X14113814Y-61653684D01*
X14223248Y-61817462D01*
X14223251Y-61817466D01*
X14362533Y-61956748D01*
X14362537Y-61956751D01*
X14526315Y-62066185D01*
X14526328Y-62066192D01*
X14708306Y-62141569D01*
X14708318Y-62141572D01*
X14901504Y-62179999D01*
X14901508Y-62180000D01*
X15150000Y-62180000D01*
X15150000Y-61480000D01*
X15650000Y-61480000D01*
X15650000Y-62180000D01*
X15898492Y-62180000D01*
X15898495Y-62179999D01*
X16091681Y-62141572D01*
X16091693Y-62141569D01*
X16273671Y-62066192D01*
X16273684Y-62066185D01*
X16437462Y-61956751D01*
X16437466Y-61956748D01*
X16576748Y-61817466D01*
X16576751Y-61817462D01*
X16686185Y-61653684D01*
X16686192Y-61653671D01*
X16761569Y-61471692D01*
X16761569Y-61471690D01*
X16769862Y-61430000D01*
X15966988Y-61430000D01*
X15984205Y-61420060D01*
X16040060Y-61364205D01*
X16079556Y-61295796D01*
X16100000Y-61219496D01*
X16100000Y-61140504D01*
X16079556Y-61064204D01*
X16040060Y-60995795D01*
X15984205Y-60939940D01*
X15966988Y-60930000D01*
X16769862Y-60930000D01*
X18060138Y-60930000D01*
X18863012Y-60930000D01*
X18845795Y-60939940D01*
X18789940Y-60995795D01*
X18750444Y-61064204D01*
X18730000Y-61140504D01*
X18730000Y-61219496D01*
X18750444Y-61295796D01*
X18789940Y-61364205D01*
X18845795Y-61420060D01*
X18863012Y-61430000D01*
X18060138Y-61430000D01*
X18068430Y-61471690D01*
X18068430Y-61471692D01*
X18143807Y-61653671D01*
X18143814Y-61653684D01*
X18253248Y-61817462D01*
X18253251Y-61817466D01*
X18392533Y-61956748D01*
X18392537Y-61956751D01*
X18556315Y-62066185D01*
X18556328Y-62066192D01*
X18714197Y-62131583D01*
X18768601Y-62175424D01*
X18790666Y-62241718D01*
X18773387Y-62309417D01*
X18754428Y-62333823D01*
X18739518Y-62348733D01*
X18739513Y-62348740D01*
X18683498Y-62445760D01*
X18683497Y-62445763D01*
X18654500Y-62553982D01*
X18654500Y-62666018D01*
X18683497Y-62774237D01*
X18739515Y-62871263D01*
X18818737Y-62950485D01*
X18915763Y-63006503D01*
X19023982Y-63035500D01*
X19023984Y-63035500D01*
X19136016Y-63035500D01*
X19136018Y-63035500D01*
X19244237Y-63006503D01*
X19341263Y-62950485D01*
X19420485Y-62871263D01*
X19476503Y-62774237D01*
X19505500Y-62666018D01*
X19505500Y-62553982D01*
X19476503Y-62445763D01*
X19420485Y-62348737D01*
X19366319Y-62294571D01*
X19332834Y-62233248D01*
X19330000Y-62206890D01*
X19330000Y-61480000D01*
X19830000Y-61480000D01*
X19830000Y-62180000D01*
X20228492Y-62180000D01*
X20228495Y-62179999D01*
X20421681Y-62141572D01*
X20421693Y-62141569D01*
X20603671Y-62066192D01*
X20603684Y-62066185D01*
X20767462Y-61956751D01*
X20767466Y-61956748D01*
X20906748Y-61817466D01*
X20906751Y-61817462D01*
X21016185Y-61653684D01*
X21016192Y-61653671D01*
X21091569Y-61471692D01*
X21091569Y-61471690D01*
X21099862Y-61430000D01*
X20296988Y-61430000D01*
X20314205Y-61420060D01*
X20370060Y-61364205D01*
X20409556Y-61295796D01*
X20430000Y-61219496D01*
X20430000Y-61140504D01*
X20409556Y-61064204D01*
X20370060Y-60995795D01*
X20345722Y-60971457D01*
X56374499Y-60971457D01*
X56402379Y-61111614D01*
X56402381Y-61111620D01*
X56457069Y-61243650D01*
X56457074Y-61243659D01*
X56536467Y-61362478D01*
X56536470Y-61362482D01*
X56637517Y-61463529D01*
X56637521Y-61463532D01*
X56756340Y-61542925D01*
X56756346Y-61542928D01*
X56756347Y-61542929D01*
X56888380Y-61597619D01*
X56888384Y-61597619D01*
X56888385Y-61597620D01*
X57028542Y-61625500D01*
X57050500Y-61625500D01*
X57117539Y-61645185D01*
X57163294Y-61697989D01*
X57174500Y-61749500D01*
X57174500Y-61771455D01*
X57174500Y-61771457D01*
X57174499Y-61771457D01*
X57202379Y-61911614D01*
X57202381Y-61911620D01*
X57257069Y-62043650D01*
X57257074Y-62043659D01*
X57336467Y-62162478D01*
X57336470Y-62162482D01*
X57437517Y-62263529D01*
X57437521Y-62263532D01*
X57556340Y-62342925D01*
X57556349Y-62342930D01*
X57570376Y-62348740D01*
X57688380Y-62397619D01*
X57688384Y-62397619D01*
X57688385Y-62397620D01*
X57828542Y-62425500D01*
X57828545Y-62425500D01*
X57971457Y-62425500D01*
X58065751Y-62406742D01*
X58111620Y-62397619D01*
X58243653Y-62342929D01*
X58362479Y-62263532D01*
X58463532Y-62162479D01*
X58542929Y-62043653D01*
X58597619Y-61911620D01*
X58616348Y-61817466D01*
X58625500Y-61771457D01*
X58625500Y-61628542D01*
X58597620Y-61488385D01*
X58597619Y-61488384D01*
X58597619Y-61488380D01*
X58542929Y-61356347D01*
X58542928Y-61356346D01*
X58542925Y-61356340D01*
X58463532Y-61237521D01*
X58463529Y-61237517D01*
X58362482Y-61136470D01*
X58362478Y-61136467D01*
X58243659Y-61057074D01*
X58243650Y-61057069D01*
X58111620Y-61002381D01*
X58111614Y-61002379D01*
X57971457Y-60974500D01*
X57971455Y-60974500D01*
X57949500Y-60974500D01*
X57882461Y-60954815D01*
X57836706Y-60902011D01*
X57825500Y-60850500D01*
X57825500Y-60828542D01*
X57797620Y-60688385D01*
X57797619Y-60688384D01*
X57797619Y-60688380D01*
X57742929Y-60556347D01*
X57742928Y-60556346D01*
X57742925Y-60556340D01*
X57663532Y-60437521D01*
X57663529Y-60437517D01*
X57562482Y-60336470D01*
X57562478Y-60336467D01*
X57443659Y-60257074D01*
X57443650Y-60257069D01*
X57311620Y-60202381D01*
X57311614Y-60202379D01*
X57171457Y-60174500D01*
X57171455Y-60174500D01*
X57028545Y-60174500D01*
X57028543Y-60174500D01*
X56888385Y-60202379D01*
X56888379Y-60202381D01*
X56756349Y-60257069D01*
X56756340Y-60257074D01*
X56637521Y-60336467D01*
X56637517Y-60336470D01*
X56536470Y-60437517D01*
X56536467Y-60437521D01*
X56457074Y-60556340D01*
X56457069Y-60556349D01*
X56402381Y-60688379D01*
X56402379Y-60688385D01*
X56374500Y-60828542D01*
X56374500Y-60828545D01*
X56374500Y-60971455D01*
X56374500Y-60971457D01*
X56374499Y-60971457D01*
X20345722Y-60971457D01*
X20314205Y-60939940D01*
X20296988Y-60930000D01*
X21099862Y-60930000D01*
X21091569Y-60888309D01*
X21091569Y-60888307D01*
X21083947Y-60869905D01*
X21016192Y-60706328D01*
X21016185Y-60706315D01*
X20906751Y-60542537D01*
X20906748Y-60542533D01*
X20767466Y-60403251D01*
X20767462Y-60403248D01*
X20603684Y-60293814D01*
X20603671Y-60293807D01*
X20421693Y-60218430D01*
X20421681Y-60218427D01*
X20228495Y-60180000D01*
X19830000Y-60180000D01*
X19830000Y-60880000D01*
X19330000Y-60880000D01*
X19330000Y-60180000D01*
X18931504Y-60180000D01*
X18738318Y-60218427D01*
X18738306Y-60218430D01*
X18556328Y-60293807D01*
X18556315Y-60293814D01*
X18392537Y-60403248D01*
X18392533Y-60403251D01*
X18253251Y-60542533D01*
X18253248Y-60542537D01*
X18143814Y-60706315D01*
X18143807Y-60706328D01*
X18068430Y-60888307D01*
X18068430Y-60888309D01*
X18060138Y-60930000D01*
X16769862Y-60930000D01*
X16761569Y-60888309D01*
X16761569Y-60888307D01*
X16686192Y-60706328D01*
X16686185Y-60706315D01*
X16576751Y-60542537D01*
X16576748Y-60542533D01*
X16437466Y-60403251D01*
X16437462Y-60403248D01*
X16273684Y-60293814D01*
X16273671Y-60293807D01*
X16091693Y-60218430D01*
X16091681Y-60218427D01*
X15898495Y-60180000D01*
X15650000Y-60180000D01*
X15650000Y-60880000D01*
X15150000Y-60880000D01*
X15150000Y-60180000D01*
X14901504Y-60180000D01*
X14708318Y-60218427D01*
X14708306Y-60218430D01*
X14526328Y-60293807D01*
X14526315Y-60293814D01*
X14362537Y-60403248D01*
X14362533Y-60403251D01*
X14223251Y-60542533D01*
X14223248Y-60542537D01*
X14113814Y-60706315D01*
X14113807Y-60706328D01*
X14038430Y-60888307D01*
X14038430Y-60888309D01*
X14030138Y-60930000D01*
X13060267Y-60930000D01*
X13060267Y-59371457D01*
X31274499Y-59371457D01*
X31302379Y-59511614D01*
X31302381Y-59511620D01*
X31357069Y-59643650D01*
X31357074Y-59643659D01*
X31436467Y-59762478D01*
X31436470Y-59762482D01*
X31537517Y-59863529D01*
X31537521Y-59863532D01*
X31656340Y-59942925D01*
X31656346Y-59942928D01*
X31656347Y-59942929D01*
X31788380Y-59997619D01*
X31788384Y-59997619D01*
X31788385Y-59997620D01*
X31928542Y-60025500D01*
X31928545Y-60025500D01*
X32071457Y-60025500D01*
X32165751Y-60006742D01*
X32211620Y-59997619D01*
X32343653Y-59942929D01*
X32462479Y-59863532D01*
X32563532Y-59762479D01*
X32642929Y-59643653D01*
X32697619Y-59511620D01*
X32725500Y-59371455D01*
X32725500Y-59228545D01*
X32725500Y-59228542D01*
X32697620Y-59088385D01*
X32697619Y-59088384D01*
X32697619Y-59088380D01*
X32642929Y-58956347D01*
X32642928Y-58956346D01*
X32642925Y-58956340D01*
X32563532Y-58837521D01*
X32563529Y-58837517D01*
X32462482Y-58736470D01*
X32462478Y-58736467D01*
X32365184Y-58671457D01*
X37974499Y-58671457D01*
X38002379Y-58811614D01*
X38002381Y-58811620D01*
X38057069Y-58943650D01*
X38057074Y-58943659D01*
X38136467Y-59062478D01*
X38136470Y-59062482D01*
X38237517Y-59163529D01*
X38237521Y-59163532D01*
X38356340Y-59242925D01*
X38356346Y-59242928D01*
X38356347Y-59242929D01*
X38488380Y-59297619D01*
X38488384Y-59297619D01*
X38488385Y-59297620D01*
X38628542Y-59325500D01*
X38628545Y-59325500D01*
X38771457Y-59325500D01*
X38865751Y-59306742D01*
X38911620Y-59297619D01*
X39043653Y-59242929D01*
X39162479Y-59163532D01*
X39174886Y-59151123D01*
X39236205Y-59117640D01*
X39286759Y-59117188D01*
X39289032Y-59117640D01*
X39328544Y-59125500D01*
X39328545Y-59125500D01*
X39471457Y-59125500D01*
X39578249Y-59104257D01*
X39611620Y-59097619D01*
X39743653Y-59042929D01*
X39862479Y-58963532D01*
X39963532Y-58862479D01*
X40042929Y-58743653D01*
X40097619Y-58611620D01*
X40125500Y-58471455D01*
X40125500Y-58328545D01*
X40125500Y-58328542D01*
X40097620Y-58188385D01*
X40097619Y-58188384D01*
X40097619Y-58188380D01*
X40042929Y-58056347D01*
X40042928Y-58056346D01*
X40042925Y-58056340D01*
X39963532Y-57937521D01*
X39963529Y-57937517D01*
X39862482Y-57836470D01*
X39862478Y-57836467D01*
X39743659Y-57757074D01*
X39743650Y-57757069D01*
X39611620Y-57702381D01*
X39611614Y-57702379D01*
X39471457Y-57674500D01*
X39471455Y-57674500D01*
X39328545Y-57674500D01*
X39328543Y-57674500D01*
X39188385Y-57702379D01*
X39188379Y-57702381D01*
X39056349Y-57757069D01*
X39056340Y-57757074D01*
X38937524Y-57836465D01*
X38925111Y-57848878D01*
X38863786Y-57882361D01*
X38813241Y-57882811D01*
X38771459Y-57874500D01*
X38771455Y-57874500D01*
X38628545Y-57874500D01*
X38628543Y-57874500D01*
X38488385Y-57902379D01*
X38488379Y-57902381D01*
X38356349Y-57957069D01*
X38356340Y-57957074D01*
X38237521Y-58036467D01*
X38237517Y-58036470D01*
X38136470Y-58137517D01*
X38136467Y-58137521D01*
X38057074Y-58256340D01*
X38057069Y-58256349D01*
X38002381Y-58388379D01*
X38002379Y-58388385D01*
X37974500Y-58528542D01*
X37974500Y-58528545D01*
X37974500Y-58671455D01*
X37974500Y-58671457D01*
X37974499Y-58671457D01*
X32365184Y-58671457D01*
X32343659Y-58657074D01*
X32343646Y-58657067D01*
X32295232Y-58637014D01*
X32295231Y-58637014D01*
X32211620Y-58602381D01*
X32211614Y-58602379D01*
X32071457Y-58574500D01*
X32071455Y-58574500D01*
X31928545Y-58574500D01*
X31928543Y-58574500D01*
X31788385Y-58602379D01*
X31788379Y-58602381D01*
X31656349Y-58657069D01*
X31656340Y-58657074D01*
X31537521Y-58736467D01*
X31537517Y-58736470D01*
X31436470Y-58837517D01*
X31436467Y-58837521D01*
X31357074Y-58956340D01*
X31357069Y-58956349D01*
X31302381Y-59088379D01*
X31302379Y-59088385D01*
X31274500Y-59228542D01*
X31274500Y-59228545D01*
X31274500Y-59371455D01*
X31274500Y-59371457D01*
X31274499Y-59371457D01*
X13060267Y-59371457D01*
X13060267Y-56771457D01*
X31274499Y-56771457D01*
X31302379Y-56911614D01*
X31302381Y-56911620D01*
X31357069Y-57043650D01*
X31357074Y-57043659D01*
X31436467Y-57162478D01*
X31436470Y-57162482D01*
X31537517Y-57263529D01*
X31537521Y-57263532D01*
X31656340Y-57342925D01*
X31656346Y-57342928D01*
X31656347Y-57342929D01*
X31788380Y-57397619D01*
X31788384Y-57397619D01*
X31788385Y-57397620D01*
X31928542Y-57425500D01*
X31928545Y-57425500D01*
X32071457Y-57425500D01*
X32165751Y-57406742D01*
X32211620Y-57397619D01*
X32343653Y-57342929D01*
X32462479Y-57263532D01*
X32563532Y-57162479D01*
X32642929Y-57043653D01*
X32697619Y-56911620D01*
X32725500Y-56771455D01*
X32725500Y-56628545D01*
X32725500Y-56628542D01*
X32697620Y-56488385D01*
X32697619Y-56488384D01*
X32697619Y-56488380D01*
X32642929Y-56356347D01*
X32642928Y-56356346D01*
X32642925Y-56356340D01*
X32563532Y-56237521D01*
X32563529Y-56237517D01*
X32462482Y-56136470D01*
X32462478Y-56136467D01*
X32343659Y-56057074D01*
X32343650Y-56057069D01*
X32211620Y-56002381D01*
X32211614Y-56002379D01*
X32071457Y-55974500D01*
X32071455Y-55974500D01*
X31928545Y-55974500D01*
X31928543Y-55974500D01*
X31788385Y-56002379D01*
X31788379Y-56002381D01*
X31656349Y-56057069D01*
X31656340Y-56057074D01*
X31537521Y-56136467D01*
X31537517Y-56136470D01*
X31436470Y-56237517D01*
X31436467Y-56237521D01*
X31357074Y-56356340D01*
X31357069Y-56356349D01*
X31302381Y-56488379D01*
X31302379Y-56488385D01*
X31274500Y-56628542D01*
X31274500Y-56628545D01*
X31274500Y-56771455D01*
X31274500Y-56771457D01*
X31274499Y-56771457D01*
X13060267Y-56771457D01*
X13060267Y-55771457D01*
X56374499Y-55771457D01*
X56402379Y-55911614D01*
X56402381Y-55911620D01*
X56457069Y-56043650D01*
X56457074Y-56043659D01*
X56536467Y-56162478D01*
X56536470Y-56162482D01*
X56637517Y-56263529D01*
X56637521Y-56263532D01*
X56756340Y-56342925D01*
X56756346Y-56342928D01*
X56756347Y-56342929D01*
X56888380Y-56397619D01*
X56888384Y-56397619D01*
X56888385Y-56397620D01*
X57028542Y-56425500D01*
X57028545Y-56425500D01*
X57171457Y-56425500D01*
X57265751Y-56406742D01*
X57311620Y-56397619D01*
X57443653Y-56342929D01*
X57562479Y-56263532D01*
X57663532Y-56162479D01*
X57742929Y-56043653D01*
X57797619Y-55911620D01*
X57825500Y-55771455D01*
X57825500Y-55628545D01*
X57825500Y-55628542D01*
X57797620Y-55488385D01*
X57797619Y-55488384D01*
X57797619Y-55488380D01*
X57742929Y-55356347D01*
X57742928Y-55356346D01*
X57742925Y-55356340D01*
X57663532Y-55237521D01*
X57663529Y-55237517D01*
X57562482Y-55136470D01*
X57562478Y-55136467D01*
X57443659Y-55057074D01*
X57443650Y-55057069D01*
X57311620Y-55002381D01*
X57311614Y-55002379D01*
X57171457Y-54974500D01*
X57171455Y-54974500D01*
X57028545Y-54974500D01*
X57028543Y-54974500D01*
X56888385Y-55002379D01*
X56888379Y-55002381D01*
X56756349Y-55057069D01*
X56756340Y-55057074D01*
X56637521Y-55136467D01*
X56637517Y-55136470D01*
X56536470Y-55237517D01*
X56536467Y-55237521D01*
X56457074Y-55356340D01*
X56457069Y-55356349D01*
X56402381Y-55488379D01*
X56402379Y-55488385D01*
X56374500Y-55628542D01*
X56374500Y-55628545D01*
X56374500Y-55771455D01*
X56374500Y-55771457D01*
X56374499Y-55771457D01*
X13060267Y-55771457D01*
X13060267Y-51994983D01*
X13944500Y-51994983D01*
X13944500Y-52625001D01*
X13944501Y-52625019D01*
X13955000Y-52727796D01*
X13955001Y-52727799D01*
X14010185Y-52894331D01*
X14010187Y-52894336D01*
X14040157Y-52942925D01*
X14098501Y-53037517D01*
X14102289Y-53043657D01*
X14119309Y-53060677D01*
X14152794Y-53122000D01*
X14147810Y-53191692D01*
X14134730Y-53217248D01*
X14060081Y-53328968D01*
X14060071Y-53328986D01*
X13983526Y-53513784D01*
X13983523Y-53513796D01*
X13944500Y-53709977D01*
X13944500Y-53910022D01*
X13983523Y-54106203D01*
X13983526Y-54106215D01*
X14060071Y-54291013D01*
X14060078Y-54291026D01*
X14171208Y-54457343D01*
X14171211Y-54457347D01*
X14312652Y-54598788D01*
X14312656Y-54598791D01*
X14478973Y-54709921D01*
X14478986Y-54709928D01*
X14663784Y-54786473D01*
X14663789Y-54786475D01*
X14859977Y-54825499D01*
X14859981Y-54825500D01*
X14859982Y-54825500D01*
X15760019Y-54825500D01*
X15760020Y-54825499D01*
X15956211Y-54786475D01*
X16141020Y-54709925D01*
X16198592Y-54671457D01*
X54674499Y-54671457D01*
X54702379Y-54811614D01*
X54702381Y-54811620D01*
X54757069Y-54943650D01*
X54757074Y-54943659D01*
X54836467Y-55062478D01*
X54836470Y-55062482D01*
X54937517Y-55163529D01*
X54937521Y-55163532D01*
X55056340Y-55242925D01*
X55056346Y-55242928D01*
X55056347Y-55242929D01*
X55188380Y-55297619D01*
X55188384Y-55297619D01*
X55188385Y-55297620D01*
X55328542Y-55325500D01*
X55328545Y-55325500D01*
X55471457Y-55325500D01*
X55565751Y-55306742D01*
X55611620Y-55297619D01*
X55743653Y-55242929D01*
X55862479Y-55163532D01*
X55963532Y-55062479D01*
X56042929Y-54943653D01*
X56097619Y-54811620D01*
X56125500Y-54671455D01*
X56125500Y-54528545D01*
X56125500Y-54528542D01*
X56097620Y-54388385D01*
X56097619Y-54388384D01*
X56097619Y-54388380D01*
X56042929Y-54256347D01*
X56042928Y-54256346D01*
X56042925Y-54256340D01*
X55963532Y-54137521D01*
X55963529Y-54137517D01*
X55862482Y-54036470D01*
X55862478Y-54036467D01*
X55743659Y-53957074D01*
X55743650Y-53957069D01*
X55611620Y-53902381D01*
X55611614Y-53902379D01*
X55471457Y-53874500D01*
X55471455Y-53874500D01*
X55328545Y-53874500D01*
X55328543Y-53874500D01*
X55188385Y-53902379D01*
X55188379Y-53902381D01*
X55056349Y-53957069D01*
X55056340Y-53957074D01*
X54937521Y-54036467D01*
X54937517Y-54036470D01*
X54836470Y-54137517D01*
X54836467Y-54137521D01*
X54757074Y-54256340D01*
X54757069Y-54256349D01*
X54702381Y-54388379D01*
X54702379Y-54388385D01*
X54674500Y-54528542D01*
X54674500Y-54528545D01*
X54674500Y-54671455D01*
X54674500Y-54671457D01*
X54674499Y-54671457D01*
X16198592Y-54671457D01*
X16307344Y-54598791D01*
X16448791Y-54457344D01*
X16559925Y-54291020D01*
X16636475Y-54106211D01*
X16675500Y-53910018D01*
X16675500Y-53709982D01*
X16647946Y-53571457D01*
X24874499Y-53571457D01*
X24902379Y-53711614D01*
X24902381Y-53711620D01*
X24957069Y-53843650D01*
X24957074Y-53843659D01*
X25036467Y-53962478D01*
X25036470Y-53962482D01*
X25137517Y-54063529D01*
X25137521Y-54063532D01*
X25256340Y-54142925D01*
X25256346Y-54142928D01*
X25256347Y-54142929D01*
X25388380Y-54197619D01*
X25388384Y-54197619D01*
X25388385Y-54197620D01*
X25528542Y-54225500D01*
X25528545Y-54225500D01*
X25671457Y-54225500D01*
X25765751Y-54206742D01*
X25811620Y-54197619D01*
X25943653Y-54142929D01*
X26062479Y-54063532D01*
X26163532Y-53962479D01*
X26242929Y-53843653D01*
X26297619Y-53711620D01*
X26325500Y-53571455D01*
X26325500Y-53428545D01*
X26325500Y-53428542D01*
X26297620Y-53288385D01*
X26297619Y-53288384D01*
X26297619Y-53288380D01*
X26242929Y-53156347D01*
X26242928Y-53156346D01*
X26242925Y-53156340D01*
X26163532Y-53037521D01*
X26163529Y-53037517D01*
X26062482Y-52936470D01*
X26062478Y-52936467D01*
X25943659Y-52857074D01*
X25943650Y-52857069D01*
X25811620Y-52802381D01*
X25811614Y-52802379D01*
X25671457Y-52774500D01*
X25671455Y-52774500D01*
X25528545Y-52774500D01*
X25528543Y-52774500D01*
X25388385Y-52802379D01*
X25388379Y-52802381D01*
X25256349Y-52857069D01*
X25256340Y-52857074D01*
X25137521Y-52936467D01*
X25137517Y-52936470D01*
X25036470Y-53037517D01*
X25036467Y-53037521D01*
X24957074Y-53156340D01*
X24957069Y-53156349D01*
X24902381Y-53288379D01*
X24902379Y-53288385D01*
X24874500Y-53428542D01*
X24874500Y-53428545D01*
X24874500Y-53571455D01*
X24874500Y-53571457D01*
X24874499Y-53571457D01*
X16647946Y-53571457D01*
X16636475Y-53513789D01*
X16601165Y-53428542D01*
X16559928Y-53328986D01*
X16559921Y-53328973D01*
X16485269Y-53217249D01*
X16464391Y-53150572D01*
X16482875Y-53083191D01*
X16500690Y-53060676D01*
X16517712Y-53043656D01*
X16609814Y-52894334D01*
X16664999Y-52727797D01*
X16675500Y-52625009D01*
X16675499Y-52071457D01*
X31174499Y-52071457D01*
X31202379Y-52211614D01*
X31202381Y-52211620D01*
X31257069Y-52343650D01*
X31257074Y-52343659D01*
X31336467Y-52462478D01*
X31336470Y-52462482D01*
X31437517Y-52563529D01*
X31437521Y-52563532D01*
X31556340Y-52642925D01*
X31556349Y-52642930D01*
X31558109Y-52643659D01*
X31688380Y-52697619D01*
X31688384Y-52697619D01*
X31688385Y-52697620D01*
X31828542Y-52725500D01*
X31828545Y-52725500D01*
X31971457Y-52725500D01*
X32065751Y-52706742D01*
X32111620Y-52697619D01*
X32243653Y-52642929D01*
X32362479Y-52563532D01*
X32463532Y-52462479D01*
X32524351Y-52371457D01*
X57574499Y-52371457D01*
X57602379Y-52511614D01*
X57602381Y-52511620D01*
X57657069Y-52643650D01*
X57657074Y-52643659D01*
X57736467Y-52762478D01*
X57736470Y-52762482D01*
X57837517Y-52863529D01*
X57837521Y-52863532D01*
X57956340Y-52942925D01*
X57956346Y-52942928D01*
X57956347Y-52942929D01*
X58088380Y-52997619D01*
X58088384Y-52997619D01*
X58088385Y-52997620D01*
X58228542Y-53025500D01*
X58228545Y-53025500D01*
X58371457Y-53025500D01*
X58465751Y-53006742D01*
X58511620Y-52997619D01*
X58643653Y-52942929D01*
X58762479Y-52863532D01*
X58863532Y-52762479D01*
X58942929Y-52643653D01*
X58997619Y-52511620D01*
X59025500Y-52371455D01*
X59025500Y-52228545D01*
X59025500Y-52228542D01*
X58997620Y-52088385D01*
X58997619Y-52088384D01*
X58997619Y-52088380D01*
X58942929Y-51956347D01*
X58942928Y-51956346D01*
X58942925Y-51956340D01*
X58863532Y-51837521D01*
X58863529Y-51837517D01*
X58762482Y-51736470D01*
X58762478Y-51736467D01*
X58643659Y-51657074D01*
X58643650Y-51657069D01*
X58511620Y-51602381D01*
X58511614Y-51602379D01*
X58371457Y-51574500D01*
X58371455Y-51574500D01*
X58228545Y-51574500D01*
X58228543Y-51574500D01*
X58088385Y-51602379D01*
X58088379Y-51602381D01*
X57956349Y-51657069D01*
X57956340Y-51657074D01*
X57837521Y-51736467D01*
X57837517Y-51736470D01*
X57736470Y-51837517D01*
X57736467Y-51837521D01*
X57657074Y-51956340D01*
X57657069Y-51956349D01*
X57602381Y-52088379D01*
X57602379Y-52088385D01*
X57574500Y-52228542D01*
X57574500Y-52228545D01*
X57574500Y-52371455D01*
X57574500Y-52371457D01*
X57574499Y-52371457D01*
X32524351Y-52371457D01*
X32542929Y-52343653D01*
X32597619Y-52211620D01*
X32625500Y-52071455D01*
X32625500Y-51928545D01*
X32625500Y-51928542D01*
X32597620Y-51788385D01*
X32597619Y-51788384D01*
X32597619Y-51788380D01*
X32542929Y-51656347D01*
X32542928Y-51656346D01*
X32542925Y-51656340D01*
X32463532Y-51537521D01*
X32463529Y-51537517D01*
X32362482Y-51436470D01*
X32362478Y-51436467D01*
X32243659Y-51357074D01*
X32243650Y-51357069D01*
X32111620Y-51302381D01*
X32111614Y-51302379D01*
X31971457Y-51274500D01*
X31971455Y-51274500D01*
X31828545Y-51274500D01*
X31828543Y-51274500D01*
X31688385Y-51302379D01*
X31688379Y-51302381D01*
X31556349Y-51357069D01*
X31556340Y-51357074D01*
X31437521Y-51436467D01*
X31437517Y-51436470D01*
X31336470Y-51537517D01*
X31336467Y-51537521D01*
X31257074Y-51656340D01*
X31257069Y-51656349D01*
X31202381Y-51788379D01*
X31202379Y-51788385D01*
X31174500Y-51928542D01*
X31174500Y-51928545D01*
X31174500Y-52071455D01*
X31174500Y-52071457D01*
X31174499Y-52071457D01*
X16675499Y-52071457D01*
X16675499Y-51994992D01*
X16664999Y-51892203D01*
X16609814Y-51725666D01*
X16517712Y-51576344D01*
X16393656Y-51452288D01*
X16244334Y-51360186D01*
X16077797Y-51305001D01*
X16077795Y-51305000D01*
X15975010Y-51294500D01*
X14644998Y-51294500D01*
X14644981Y-51294501D01*
X14542203Y-51305000D01*
X14542200Y-51305001D01*
X14375668Y-51360185D01*
X14375663Y-51360187D01*
X14226342Y-51452289D01*
X14102289Y-51576342D01*
X14010187Y-51725663D01*
X14010185Y-51725668D01*
X14006606Y-51736470D01*
X13955001Y-51892203D01*
X13955001Y-51892204D01*
X13955000Y-51892204D01*
X13944500Y-51994983D01*
X13060267Y-51994983D01*
X13060267Y-46471457D01*
X28474499Y-46471457D01*
X28502379Y-46611614D01*
X28502381Y-46611620D01*
X28557069Y-46743650D01*
X28557074Y-46743659D01*
X28636467Y-46862478D01*
X28636470Y-46862482D01*
X28737517Y-46963529D01*
X28737521Y-46963532D01*
X28856340Y-47042925D01*
X28856346Y-47042928D01*
X28856347Y-47042929D01*
X28988380Y-47097619D01*
X28988384Y-47097619D01*
X28988385Y-47097620D01*
X29128542Y-47125500D01*
X29128545Y-47125500D01*
X29271457Y-47125500D01*
X29365751Y-47106742D01*
X29411620Y-47097619D01*
X29543653Y-47042929D01*
X29662479Y-46963532D01*
X29763532Y-46862479D01*
X29842929Y-46743653D01*
X29897619Y-46611620D01*
X29925500Y-46471455D01*
X29925500Y-46328545D01*
X29925500Y-46328542D01*
X29897620Y-46188385D01*
X29897619Y-46188384D01*
X29897619Y-46188380D01*
X29842929Y-46056347D01*
X29842928Y-46056346D01*
X29842925Y-46056340D01*
X29763532Y-45937521D01*
X29763529Y-45937517D01*
X29662482Y-45836470D01*
X29662478Y-45836467D01*
X29543659Y-45757074D01*
X29543650Y-45757069D01*
X29411620Y-45702381D01*
X29411614Y-45702379D01*
X29271457Y-45674500D01*
X29271455Y-45674500D01*
X29128545Y-45674500D01*
X29128543Y-45674500D01*
X28988385Y-45702379D01*
X28988379Y-45702381D01*
X28856349Y-45757069D01*
X28856340Y-45757074D01*
X28737521Y-45836467D01*
X28737517Y-45836470D01*
X28636470Y-45937517D01*
X28636467Y-45937521D01*
X28557074Y-46056340D01*
X28557069Y-46056349D01*
X28502381Y-46188379D01*
X28502379Y-46188385D01*
X28474500Y-46328542D01*
X28474500Y-46328545D01*
X28474500Y-46471455D01*
X28474500Y-46471457D01*
X28474499Y-46471457D01*
X13060267Y-46471457D01*
X13060267Y-44293713D01*
X53024500Y-44293713D01*
X53024500Y-44506286D01*
X53057753Y-44716239D01*
X53123444Y-44918414D01*
X53219951Y-45107820D01*
X53344890Y-45279786D01*
X53483705Y-45418601D01*
X53517190Y-45479924D01*
X53512206Y-45549616D01*
X53470334Y-45605549D01*
X53461121Y-45611821D01*
X53306342Y-45707289D01*
X53182289Y-45831342D01*
X53090187Y-45980663D01*
X53090185Y-45980668D01*
X53068217Y-46046965D01*
X53035001Y-46147203D01*
X53035001Y-46147204D01*
X53035000Y-46147204D01*
X53024500Y-46249983D01*
X53024500Y-47550001D01*
X53024501Y-47550018D01*
X53035000Y-47652796D01*
X53035001Y-47652799D01*
X53090185Y-47819331D01*
X53090186Y-47819334D01*
X53182288Y-47968656D01*
X53306344Y-48092712D01*
X53455666Y-48184814D01*
X53622203Y-48239999D01*
X53724991Y-48250500D01*
X55325008Y-48250499D01*
X55427797Y-48239999D01*
X55594334Y-48184814D01*
X55743656Y-48092712D01*
X55867712Y-47968656D01*
X55959814Y-47819334D01*
X56014999Y-47652797D01*
X56025500Y-47550009D01*
X56025499Y-46249992D01*
X56014999Y-46147203D01*
X55959814Y-45980666D01*
X55867712Y-45831344D01*
X55743656Y-45707288D01*
X55736759Y-45703034D01*
X60749500Y-45703034D01*
X60749500Y-46046965D01*
X60783210Y-46389249D01*
X60850308Y-46726572D01*
X60950150Y-47055706D01*
X61081770Y-47373464D01*
X61081772Y-47373469D01*
X61243893Y-47676775D01*
X61243904Y-47676793D01*
X61434975Y-47962751D01*
X61434985Y-47962765D01*
X61653176Y-48228632D01*
X61896367Y-48471823D01*
X61896372Y-48471827D01*
X61896373Y-48471828D01*
X62162240Y-48690019D01*
X62448213Y-48881100D01*
X62448222Y-48881105D01*
X62448224Y-48881106D01*
X62751530Y-49043227D01*
X62751532Y-49043227D01*
X62751538Y-49043231D01*
X63069295Y-49174850D01*
X63398422Y-49274690D01*
X63735750Y-49341789D01*
X64078031Y-49375500D01*
X64078034Y-49375500D01*
X64421966Y-49375500D01*
X64421969Y-49375500D01*
X64764250Y-49341789D01*
X65101578Y-49274690D01*
X65430705Y-49174850D01*
X65748462Y-49043231D01*
X66051787Y-48881100D01*
X66337760Y-48690019D01*
X66603627Y-48471828D01*
X66846828Y-48228627D01*
X67065019Y-47962760D01*
X67256100Y-47676787D01*
X67418231Y-47373462D01*
X67549850Y-47055705D01*
X67649690Y-46726578D01*
X67704383Y-46451619D01*
X67736768Y-46389708D01*
X67797484Y-46355134D01*
X67867253Y-46358873D01*
X67923925Y-46399740D01*
X67949506Y-46464758D01*
X67950000Y-46475810D01*
X67950000Y-47446436D01*
X67965300Y-47660362D01*
X68026109Y-47939895D01*
X68126091Y-48207958D01*
X68263191Y-48459038D01*
X68263192Y-48459039D01*
X68434639Y-48688065D01*
X68434649Y-48688077D01*
X68636922Y-48890350D01*
X68636934Y-48890360D01*
X68865960Y-49061807D01*
X68865961Y-49061808D01*
X69117042Y-49198908D01*
X69117041Y-49198908D01*
X69385104Y-49298890D01*
X69664637Y-49359699D01*
X69878563Y-49374999D01*
X69878566Y-49375000D01*
X71200000Y-49375000D01*
X71200000Y-48111502D01*
X71302527Y-48125000D01*
X71597473Y-48125000D01*
X71700000Y-48111502D01*
X71700000Y-49375000D01*
X73021434Y-49375000D01*
X73021436Y-49374999D01*
X73235362Y-49359699D01*
X73514895Y-49298890D01*
X73782958Y-49198908D01*
X74034038Y-49061808D01*
X74034039Y-49061807D01*
X74263065Y-48890360D01*
X74263077Y-48890350D01*
X74465350Y-48688077D01*
X74465360Y-48688065D01*
X74636807Y-48459039D01*
X74636808Y-48459038D01*
X74773908Y-48207958D01*
X74873890Y-47939895D01*
X74934699Y-47660362D01*
X74949999Y-47446436D01*
X74950000Y-47446434D01*
X74950000Y-46125000D01*
X73686502Y-46125000D01*
X73700000Y-46022473D01*
X73700000Y-45727527D01*
X73696775Y-45703034D01*
X81199500Y-45703034D01*
X81199500Y-46046965D01*
X81233210Y-46389249D01*
X81300308Y-46726572D01*
X81400150Y-47055706D01*
X81531770Y-47373464D01*
X81531772Y-47373469D01*
X81693893Y-47676775D01*
X81693904Y-47676793D01*
X81884975Y-47962751D01*
X81884985Y-47962765D01*
X82103176Y-48228632D01*
X82346367Y-48471823D01*
X82346372Y-48471827D01*
X82346373Y-48471828D01*
X82612240Y-48690019D01*
X82898213Y-48881100D01*
X82898222Y-48881105D01*
X82898224Y-48881106D01*
X83201530Y-49043227D01*
X83201532Y-49043227D01*
X83201538Y-49043231D01*
X83519295Y-49174850D01*
X83848422Y-49274690D01*
X84185750Y-49341789D01*
X84528031Y-49375500D01*
X84528034Y-49375500D01*
X84871966Y-49375500D01*
X84871969Y-49375500D01*
X85214250Y-49341789D01*
X85551578Y-49274690D01*
X85880705Y-49174850D01*
X86198462Y-49043231D01*
X86501787Y-48881100D01*
X86787760Y-48690019D01*
X87053627Y-48471828D01*
X87296828Y-48228627D01*
X87515019Y-47962760D01*
X87706100Y-47676787D01*
X87868231Y-47373462D01*
X87999850Y-47055705D01*
X88099690Y-46726578D01*
X88154383Y-46451619D01*
X88186768Y-46389708D01*
X88247484Y-46355134D01*
X88317253Y-46358873D01*
X88373925Y-46399740D01*
X88399506Y-46464758D01*
X88400000Y-46475810D01*
X88400000Y-47446436D01*
X88415300Y-47660362D01*
X88476109Y-47939895D01*
X88576091Y-48207958D01*
X88713191Y-48459038D01*
X88713192Y-48459039D01*
X88884639Y-48688065D01*
X88884649Y-48688077D01*
X89086922Y-48890350D01*
X89086934Y-48890360D01*
X89315960Y-49061807D01*
X89315961Y-49061808D01*
X89567042Y-49198908D01*
X89567041Y-49198908D01*
X89835104Y-49298890D01*
X90114637Y-49359699D01*
X90328563Y-49374999D01*
X90328566Y-49375000D01*
X91650000Y-49375000D01*
X91650000Y-48111502D01*
X91752527Y-48125000D01*
X92047473Y-48125000D01*
X92150000Y-48111502D01*
X92150000Y-49375000D01*
X93471434Y-49375000D01*
X93471436Y-49374999D01*
X93685362Y-49359699D01*
X93964895Y-49298890D01*
X94232958Y-49198908D01*
X94484038Y-49061808D01*
X94484039Y-49061807D01*
X94713065Y-48890360D01*
X94713077Y-48890350D01*
X94915350Y-48688077D01*
X94915360Y-48688065D01*
X95086807Y-48459039D01*
X95086808Y-48459038D01*
X95223908Y-48207958D01*
X95323890Y-47939895D01*
X95384699Y-47660362D01*
X95399999Y-47446436D01*
X95400000Y-47446434D01*
X95400000Y-46125000D01*
X94136502Y-46125000D01*
X94150000Y-46022473D01*
X94150000Y-45727527D01*
X94136502Y-45625000D01*
X95400000Y-45625000D01*
X95400000Y-44303566D01*
X95399999Y-44303563D01*
X95384699Y-44089637D01*
X95323890Y-43810104D01*
X95223908Y-43542041D01*
X95086808Y-43290961D01*
X95086807Y-43290960D01*
X94915360Y-43061934D01*
X94915350Y-43061922D01*
X94713077Y-42859649D01*
X94713065Y-42859639D01*
X94484039Y-42688192D01*
X94484038Y-42688191D01*
X94232957Y-42551091D01*
X94232958Y-42551091D01*
X93964895Y-42451109D01*
X93685362Y-42390300D01*
X93471436Y-42375000D01*
X92150000Y-42375000D01*
X92150000Y-43638497D01*
X92047473Y-43625000D01*
X91752527Y-43625000D01*
X91650000Y-43638497D01*
X91650000Y-42375000D01*
X90328563Y-42375000D01*
X90114637Y-42390300D01*
X89835104Y-42451109D01*
X89567041Y-42551091D01*
X89315961Y-42688191D01*
X89315960Y-42688192D01*
X89086934Y-42859639D01*
X89086922Y-42859649D01*
X88884649Y-43061922D01*
X88884639Y-43061934D01*
X88713192Y-43290960D01*
X88713191Y-43290961D01*
X88576091Y-43542041D01*
X88476109Y-43810104D01*
X88415300Y-44089637D01*
X88400000Y-44303563D01*
X88400000Y-45274189D01*
X88380315Y-45341228D01*
X88327511Y-45386983D01*
X88258353Y-45396927D01*
X88194797Y-45367902D01*
X88157023Y-45309124D01*
X88154383Y-45298380D01*
X88099691Y-45023427D01*
X88099690Y-45023426D01*
X88099690Y-45023422D01*
X87999850Y-44694295D01*
X87868231Y-44376538D01*
X87706100Y-44073213D01*
X87515019Y-43787240D01*
X87296828Y-43521373D01*
X87296827Y-43521372D01*
X87296823Y-43521367D01*
X87053632Y-43278176D01*
X86787765Y-43059985D01*
X86787764Y-43059984D01*
X86787760Y-43059981D01*
X86501787Y-42868900D01*
X86501782Y-42868897D01*
X86501775Y-42868893D01*
X86198469Y-42706772D01*
X86198464Y-42706770D01*
X86187863Y-42702379D01*
X86105394Y-42668219D01*
X85880706Y-42575150D01*
X85551572Y-42475308D01*
X85214248Y-42408210D01*
X85214249Y-42408210D01*
X84956456Y-42382821D01*
X84871969Y-42374500D01*
X84528031Y-42374500D01*
X84449966Y-42382188D01*
X84185750Y-42408210D01*
X83848427Y-42475308D01*
X83519293Y-42575150D01*
X83201535Y-42706770D01*
X83201530Y-42706772D01*
X82898224Y-42868893D01*
X82898206Y-42868904D01*
X82612248Y-43059975D01*
X82612234Y-43059985D01*
X82346367Y-43278176D01*
X82103176Y-43521367D01*
X81884985Y-43787234D01*
X81884975Y-43787248D01*
X81693904Y-44073206D01*
X81693893Y-44073224D01*
X81531772Y-44376530D01*
X81531770Y-44376535D01*
X81400150Y-44694293D01*
X81300308Y-45023427D01*
X81233210Y-45360750D01*
X81213587Y-45560001D01*
X81199565Y-45702379D01*
X81199500Y-45703034D01*
X73696775Y-45703034D01*
X73686502Y-45625000D01*
X74950000Y-45625000D01*
X74950000Y-44303566D01*
X74949999Y-44303563D01*
X74934699Y-44089637D01*
X74873890Y-43810104D01*
X74773908Y-43542041D01*
X74636808Y-43290961D01*
X74636807Y-43290960D01*
X74465360Y-43061934D01*
X74465350Y-43061922D01*
X74263077Y-42859649D01*
X74263065Y-42859639D01*
X74034039Y-42688192D01*
X74034038Y-42688191D01*
X73782957Y-42551091D01*
X73782958Y-42551091D01*
X73514895Y-42451109D01*
X73235362Y-42390300D01*
X73021436Y-42375000D01*
X71700000Y-42375000D01*
X71700000Y-43638497D01*
X71597473Y-43625000D01*
X71302527Y-43625000D01*
X71200000Y-43638497D01*
X71200000Y-42375000D01*
X69878563Y-42375000D01*
X69664637Y-42390300D01*
X69385104Y-42451109D01*
X69117041Y-42551091D01*
X68865961Y-42688191D01*
X68865960Y-42688192D01*
X68636934Y-42859639D01*
X68636922Y-42859649D01*
X68434649Y-43061922D01*
X68434639Y-43061934D01*
X68263192Y-43290960D01*
X68263191Y-43290961D01*
X68126091Y-43542041D01*
X68026109Y-43810104D01*
X67965300Y-44089637D01*
X67950000Y-44303563D01*
X67950000Y-45274189D01*
X67930315Y-45341228D01*
X67877511Y-45386983D01*
X67808353Y-45396927D01*
X67744797Y-45367902D01*
X67707023Y-45309124D01*
X67704383Y-45298380D01*
X67649691Y-45023427D01*
X67649690Y-45023426D01*
X67649690Y-45023422D01*
X67549850Y-44694295D01*
X67418231Y-44376538D01*
X67256100Y-44073213D01*
X67065019Y-43787240D01*
X66846828Y-43521373D01*
X66846827Y-43521372D01*
X66846823Y-43521367D01*
X66603632Y-43278176D01*
X66337765Y-43059985D01*
X66337764Y-43059984D01*
X66337760Y-43059981D01*
X66051787Y-42868900D01*
X66051782Y-42868897D01*
X66051775Y-42868893D01*
X65748469Y-42706772D01*
X65748464Y-42706770D01*
X65737863Y-42702379D01*
X65655394Y-42668219D01*
X65430706Y-42575150D01*
X65101572Y-42475308D01*
X64764248Y-42408210D01*
X64764249Y-42408210D01*
X64506456Y-42382821D01*
X64421969Y-42374500D01*
X64078031Y-42374500D01*
X63999966Y-42382188D01*
X63735750Y-42408210D01*
X63398427Y-42475308D01*
X63069293Y-42575150D01*
X62751535Y-42706770D01*
X62751530Y-42706772D01*
X62448224Y-42868893D01*
X62448206Y-42868904D01*
X62162248Y-43059975D01*
X62162234Y-43059985D01*
X61896367Y-43278176D01*
X61653176Y-43521367D01*
X61434985Y-43787234D01*
X61434975Y-43787248D01*
X61243904Y-44073206D01*
X61243893Y-44073224D01*
X61081772Y-44376530D01*
X61081770Y-44376535D01*
X60950150Y-44694293D01*
X60850308Y-45023427D01*
X60783210Y-45360750D01*
X60763587Y-45560001D01*
X60749565Y-45702379D01*
X60749500Y-45703034D01*
X55736759Y-45703034D01*
X55594334Y-45615186D01*
X55594333Y-45615185D01*
X55588878Y-45611821D01*
X55542154Y-45559873D01*
X55530931Y-45490910D01*
X55558775Y-45426828D01*
X55566272Y-45418623D01*
X55705104Y-45279792D01*
X55830051Y-45107816D01*
X55926557Y-44918412D01*
X55992246Y-44716243D01*
X56025500Y-44506287D01*
X56025500Y-44293713D01*
X55992246Y-44083757D01*
X55926557Y-43881588D01*
X55830051Y-43692184D01*
X55830049Y-43692181D01*
X55830048Y-43692179D01*
X55705109Y-43520213D01*
X55554786Y-43369890D01*
X55382820Y-43244951D01*
X55193414Y-43148444D01*
X55193413Y-43148443D01*
X55193412Y-43148443D01*
X54991243Y-43082754D01*
X54991241Y-43082753D01*
X54991240Y-43082753D01*
X54829957Y-43057208D01*
X54781287Y-43049500D01*
X54268713Y-43049500D01*
X54220042Y-43057208D01*
X54058760Y-43082753D01*
X53856585Y-43148444D01*
X53667179Y-43244951D01*
X53495213Y-43369890D01*
X53344890Y-43520213D01*
X53219951Y-43692179D01*
X53123444Y-43881585D01*
X53057753Y-44083760D01*
X53024500Y-44293713D01*
X13060267Y-44293713D01*
X13060267Y-43471457D01*
X32674499Y-43471457D01*
X32702379Y-43611614D01*
X32702381Y-43611620D01*
X32757069Y-43743650D01*
X32757074Y-43743659D01*
X32836467Y-43862478D01*
X32836470Y-43862482D01*
X32937517Y-43963529D01*
X32937521Y-43963532D01*
X33056340Y-44042925D01*
X33056346Y-44042928D01*
X33056347Y-44042929D01*
X33188380Y-44097619D01*
X33188384Y-44097619D01*
X33188385Y-44097620D01*
X33328542Y-44125500D01*
X33328545Y-44125500D01*
X33471457Y-44125500D01*
X33565751Y-44106742D01*
X33611620Y-44097619D01*
X33743653Y-44042929D01*
X33862479Y-43963532D01*
X33963532Y-43862479D01*
X34042929Y-43743653D01*
X34097619Y-43611620D01*
X34125500Y-43471455D01*
X34125500Y-43328545D01*
X34125500Y-43328542D01*
X34097620Y-43188385D01*
X34097619Y-43188384D01*
X34097619Y-43188380D01*
X34042929Y-43056347D01*
X34042928Y-43056346D01*
X34042925Y-43056340D01*
X33963532Y-42937521D01*
X33963529Y-42937517D01*
X33862482Y-42836470D01*
X33862478Y-42836467D01*
X33743659Y-42757074D01*
X33743650Y-42757069D01*
X33611620Y-42702381D01*
X33611614Y-42702379D01*
X33471457Y-42674500D01*
X33471455Y-42674500D01*
X33328545Y-42674500D01*
X33328543Y-42674500D01*
X33188385Y-42702379D01*
X33188379Y-42702381D01*
X33056349Y-42757069D01*
X33056340Y-42757074D01*
X32937521Y-42836467D01*
X32937517Y-42836470D01*
X32836470Y-42937517D01*
X32836467Y-42937521D01*
X32757074Y-43056340D01*
X32757069Y-43056349D01*
X32702381Y-43188379D01*
X32702379Y-43188385D01*
X32674500Y-43328542D01*
X32674500Y-43328545D01*
X32674500Y-43471455D01*
X32674500Y-43471457D01*
X32674499Y-43471457D01*
X13060267Y-43471457D01*
X13060267Y-40920779D01*
X13079952Y-40853740D01*
X13132756Y-40807985D01*
X13184267Y-40796779D01*
X96935267Y-40796779D01*
X97002306Y-40816464D01*
G37*
%TD.AperFunction*%
%TD*%
M02*
