%TF.GenerationSoftware,KiCad,Pcbnew,10.0.5-10.0.5~ubuntu24.04.1*%
%TF.CreationDate,2026-09-15T12:26:02-05:00*%
%TF.ProjectId,ORCA-BOARD,4f524341-2d42-44f4-9152-442e6b696361,rev?*%
%TF.SameCoordinates,Original*%
%TF.FileFunction,Drillmap*%
%TF.FilePolarity,Positive*%
%FSLAX45Y45*%
G04 Gerber Fmt 4.5, Leading zero omitted, Abs format (unit mm)*
G04 Created by KiCad (PCBNEW 10.0.5-10.0.5~ubuntu24.04.1) date 2026-09-15 12:26:02*
%MOMM*%
%LPD*%
G01*
G04 APERTURE LIST*
%ADD10C,0.102953*%
%ADD11C,0.200000*%
%ADD12C,0.100000*%
%ADD13C,0.110000*%
%ADD14C,0.250000*%
%ADD15C,0.450000*%
G04 APERTURE END LIST*
D10*
X1255977Y-4029628D02*
X9755977Y-4029628D01*
X9755977Y-11229628D01*
X1255977Y-11229628D01*
X1255977Y-4029628D01*
D11*
D12*
X1470000Y-4720000D02*
X1490000Y-4740000D01*
X1490000Y-4720000D02*
X1470000Y-4740000D01*
X2160000Y-5090000D02*
X2180000Y-5110000D01*
X2180000Y-5090000D02*
X2160000Y-5110000D01*
X2460000Y-6780000D02*
X2480000Y-6800000D01*
X2480000Y-6780000D02*
X2460000Y-6800000D01*
X2470000Y-5810000D02*
X2490000Y-5830000D01*
X2490000Y-5810000D02*
X2470000Y-5830000D01*
X2540000Y-4770000D02*
X2560000Y-4790000D01*
X2560000Y-4770000D02*
X2540000Y-4790000D01*
X2550000Y-5340000D02*
X2570000Y-5360000D01*
X2570000Y-5340000D02*
X2550000Y-5360000D01*
X2570000Y-7590000D02*
X2590000Y-7610000D01*
X2590000Y-7590000D02*
X2570000Y-7610000D01*
X2660000Y-6850000D02*
X2680000Y-6870000D01*
X2680000Y-6850000D02*
X2660000Y-6870000D01*
X2670000Y-7710000D02*
X2690000Y-7730000D01*
X2690000Y-7710000D02*
X2670000Y-7730000D01*
X2670000Y-8670000D02*
X2690000Y-8690000D01*
X2690000Y-8670000D02*
X2670000Y-8690000D01*
X2720000Y-6660000D02*
X2740000Y-6680000D01*
X2740000Y-6660000D02*
X2720000Y-6680000D01*
X2780000Y-7270000D02*
X2800000Y-7290000D01*
X2800000Y-7270000D02*
X2780000Y-7290000D01*
X2860000Y-7350000D02*
X2880000Y-7370000D01*
X2880000Y-7350000D02*
X2860000Y-7370000D01*
X2910000Y-4630000D02*
X2930000Y-4650000D01*
X2930000Y-4630000D02*
X2910000Y-4650000D01*
X3070000Y-4630000D02*
X3090000Y-4650000D01*
X3090000Y-4630000D02*
X3070000Y-4650000D01*
X3180000Y-5190000D02*
X3200000Y-5210000D01*
X3200000Y-5190000D02*
X3180000Y-5210000D01*
X3190000Y-5660000D02*
X3210000Y-5680000D01*
X3210000Y-5660000D02*
X3190000Y-5680000D01*
X3190000Y-5920000D02*
X3210000Y-5940000D01*
X3210000Y-5920000D02*
X3190000Y-5940000D01*
X3330000Y-4200000D02*
X3350000Y-4220000D01*
X3350000Y-4200000D02*
X3330000Y-4220000D01*
X3330000Y-4330000D02*
X3350000Y-4350000D01*
X3350000Y-4330000D02*
X3330000Y-4350000D01*
X3420000Y-6660000D02*
X3440000Y-6680000D01*
X3440000Y-6660000D02*
X3420000Y-6680000D01*
X3720000Y-9660000D02*
X3740000Y-9680000D01*
X3740000Y-9660000D02*
X3720000Y-9680000D01*
X3790000Y-9550000D02*
X3810000Y-9570000D01*
X3810000Y-9550000D02*
X3790000Y-9570000D01*
X3800000Y-8070000D02*
X3820000Y-8090000D01*
X3820000Y-8070000D02*
X3800000Y-8090000D01*
X3800000Y-8150000D02*
X3820000Y-8170000D01*
X3820000Y-8150000D02*
X3800000Y-8170000D01*
X3860000Y-5850000D02*
X3880000Y-5870000D01*
X3880000Y-5850000D02*
X3860000Y-5870000D01*
X3920000Y-8070000D02*
X3940000Y-8090000D01*
X3940000Y-8070000D02*
X3920000Y-8090000D01*
X3930000Y-5830000D02*
X3950000Y-5850000D01*
X3950000Y-5830000D02*
X3930000Y-5850000D01*
X4000000Y-8980000D02*
X4020000Y-9000000D01*
X4020000Y-8980000D02*
X4000000Y-9000000D01*
X4010000Y-7090000D02*
X4030000Y-7110000D01*
X4030000Y-7090000D02*
X4010000Y-7110000D01*
X4050000Y-8140000D02*
X4070000Y-8160000D01*
X4070000Y-8140000D02*
X4050000Y-8160000D01*
X4070000Y-8000000D02*
X4090000Y-8020000D01*
X4090000Y-8000000D02*
X4070000Y-8020000D01*
X5080000Y-4200000D02*
X5100000Y-4220000D01*
X5100000Y-4200000D02*
X5080000Y-4220000D01*
X5280000Y-8070000D02*
X5300000Y-8090000D01*
X5300000Y-8070000D02*
X5280000Y-8090000D01*
X5370000Y-9090000D02*
X5390000Y-9110000D01*
X5390000Y-9090000D02*
X5370000Y-9110000D01*
X5370000Y-9290000D02*
X5390000Y-9310000D01*
X5390000Y-9290000D02*
X5370000Y-9310000D01*
X5530000Y-5450000D02*
X5550000Y-5470000D01*
X5550000Y-5450000D02*
X5530000Y-5470000D01*
X5540000Y-5620000D02*
X5560000Y-5640000D01*
X5560000Y-5620000D02*
X5540000Y-5640000D01*
X5610000Y-7815000D02*
X5630000Y-7835000D01*
X5630000Y-7815000D02*
X5610000Y-7835000D01*
X5700000Y-5560000D02*
X5720000Y-5580000D01*
X5720000Y-5560000D02*
X5700000Y-5580000D01*
X5700000Y-6080000D02*
X5720000Y-6100000D01*
X5720000Y-6080000D02*
X5700000Y-6100000D01*
X5770000Y-8750000D02*
X5790000Y-8770000D01*
X5790000Y-8750000D02*
X5770000Y-8770000D01*
X5780000Y-6160000D02*
X5800000Y-6180000D01*
X5800000Y-6160000D02*
X5780000Y-6180000D01*
X5820000Y-5220000D02*
X5840000Y-5240000D01*
X5840000Y-5220000D02*
X5820000Y-5240000D01*
X6090000Y-8000000D02*
X6110000Y-8020000D01*
X6110000Y-8000000D02*
X6090000Y-8020000D01*
X6160000Y-5850000D02*
X6180000Y-5870000D01*
X6180000Y-5850000D02*
X6160000Y-5870000D01*
X6210000Y-8360000D02*
X6230000Y-8380000D01*
X6230000Y-8360000D02*
X6210000Y-8380000D01*
X6260000Y-9320000D02*
X6280000Y-9340000D01*
X6280000Y-9320000D02*
X6260000Y-9340000D01*
X6270000Y-6730000D02*
X6290000Y-6750000D01*
X6290000Y-6730000D02*
X6270000Y-6750000D01*
X6330000Y-6630000D02*
X6350000Y-6650000D01*
X6350000Y-6630000D02*
X6330000Y-6650000D01*
X6340000Y-9150000D02*
X6360000Y-9170000D01*
X6360000Y-9150000D02*
X6340000Y-9170000D01*
X6340000Y-9430000D02*
X6360000Y-9450000D01*
X6360000Y-9430000D02*
X6340000Y-9450000D01*
X6400000Y-8640000D02*
X6420000Y-8660000D01*
X6420000Y-8640000D02*
X6400000Y-8660000D01*
X6410000Y-8380000D02*
X6430000Y-8400000D01*
X6430000Y-8380000D02*
X6410000Y-8400000D01*
X6670000Y-9680000D02*
X6690000Y-9700000D01*
X6690000Y-9680000D02*
X6670000Y-9700000D01*
X6930000Y-9320000D02*
X6950000Y-9340000D01*
X6950000Y-9320000D02*
X6930000Y-9340000D01*
X6950000Y-7720000D02*
X6970000Y-7740000D01*
X6970000Y-7720000D02*
X6950000Y-7740000D01*
X7140000Y-7640000D02*
X7160000Y-7660000D01*
X7160000Y-7640000D02*
X7140000Y-7660000D01*
X7360000Y-8900000D02*
X7380000Y-8920000D01*
X7380000Y-8900000D02*
X7360000Y-8920000D01*
X7370000Y-7660000D02*
X7390000Y-7680000D01*
X7390000Y-7660000D02*
X7370000Y-7680000D01*
X7880000Y-8470000D02*
X7900000Y-8490000D01*
X7900000Y-8470000D02*
X7880000Y-8490000D01*
X8550000Y-9530000D02*
X8570000Y-9550000D01*
X8570000Y-9530000D02*
X8550000Y-9550000D01*
X8630000Y-10590000D02*
X8650000Y-10610000D01*
X8650000Y-10590000D02*
X8630000Y-10610000D01*
X9170000Y-8910000D02*
X9190000Y-8930000D01*
X9190000Y-8910000D02*
X9170000Y-8930000D01*
X9320000Y-7270000D02*
X9340000Y-7290000D01*
X9340000Y-7270000D02*
X9320000Y-7290000D01*
X9320000Y-7410000D02*
X9340000Y-7430000D01*
X9340000Y-7410000D02*
X9320000Y-7430000D01*
X3935000Y-4912000D02*
G75*
G02*
X3915000Y-4912000I-10000J0D01*
G01*
X3915000Y-4912000D02*
G75*
G02*
X3935000Y-4912000I10000J0D01*
G01*
X3935000Y-5052000D02*
G75*
G02*
X3915000Y-5052000I-10000J0D01*
G01*
X3915000Y-5052000D02*
G75*
G02*
X3935000Y-5052000I10000J0D01*
G01*
X4005000Y-4842000D02*
G75*
G02*
X3985000Y-4842000I-10000J0D01*
G01*
X3985000Y-4842000D02*
G75*
G02*
X4005000Y-4842000I10000J0D01*
G01*
X4005000Y-4982000D02*
G75*
G02*
X3985000Y-4982000I-10000J0D01*
G01*
X3985000Y-4982000D02*
G75*
G02*
X4005000Y-4982000I10000J0D01*
G01*
X4005000Y-5122000D02*
G75*
G02*
X3985000Y-5122000I-10000J0D01*
G01*
X3985000Y-5122000D02*
G75*
G02*
X4005000Y-5122000I10000J0D01*
G01*
X4075000Y-4912000D02*
G75*
G02*
X4055000Y-4912000I-10000J0D01*
G01*
X4055000Y-4912000D02*
G75*
G02*
X4075000Y-4912000I10000J0D01*
G01*
X4075000Y-5052000D02*
G75*
G02*
X4055000Y-5052000I-10000J0D01*
G01*
X4055000Y-5052000D02*
G75*
G02*
X4075000Y-5052000I10000J0D01*
G01*
X4145000Y-4842000D02*
G75*
G02*
X4125000Y-4842000I-10000J0D01*
G01*
X4125000Y-4842000D02*
G75*
G02*
X4145000Y-4842000I10000J0D01*
G01*
X4145000Y-4982000D02*
G75*
G02*
X4125000Y-4982000I-10000J0D01*
G01*
X4125000Y-4982000D02*
G75*
G02*
X4145000Y-4982000I10000J0D01*
G01*
X4145000Y-5122000D02*
G75*
G02*
X4125000Y-5122000I-10000J0D01*
G01*
X4125000Y-5122000D02*
G75*
G02*
X4145000Y-5122000I10000J0D01*
G01*
X4215000Y-4912000D02*
G75*
G02*
X4195000Y-4912000I-10000J0D01*
G01*
X4195000Y-4912000D02*
G75*
G02*
X4215000Y-4912000I10000J0D01*
G01*
X4215000Y-5052000D02*
G75*
G02*
X4195000Y-5052000I-10000J0D01*
G01*
X4195000Y-5052000D02*
G75*
G02*
X4215000Y-5052000I10000J0D01*
G01*
X1910750Y-9289500D02*
X1910750Y-9319500D01*
X1895750Y-9304500D02*
X1925750Y-9304500D01*
X2115750Y-8789500D02*
X2115750Y-8819500D01*
X2100750Y-8804500D02*
X2130750Y-8804500D01*
X2165750Y-7829500D02*
X2165750Y-7859500D01*
X2150750Y-7844500D02*
X2180750Y-7844500D01*
X2440750Y-10984500D02*
X2440750Y-11014500D01*
X2425750Y-10999500D02*
X2455750Y-10999500D01*
X7052500Y-5425000D02*
X7052500Y-5455000D01*
X7037500Y-5440000D02*
X7067500Y-5440000D01*
X7261250Y-7993750D02*
X7261250Y-8023750D01*
X7246250Y-8008750D02*
X7276250Y-8008750D01*
X8497500Y-5270000D02*
X8497500Y-5300000D01*
X8482500Y-5285000D02*
X8512500Y-5285000D01*
X9066250Y-5653750D02*
X9066250Y-5683750D01*
X9051250Y-5668750D02*
X9081250Y-5668750D01*
X9077500Y-10362500D02*
X9077500Y-10392500D01*
X9062500Y-10377500D02*
X9092500Y-10377500D01*
X9127500Y-9402500D02*
X9127500Y-9432500D01*
X9112500Y-9417500D02*
X9142500Y-9417500D01*
X9406250Y-5653750D02*
X9406250Y-5683750D01*
X9391250Y-5668750D02*
X9421250Y-5668750D01*
X1561213Y-6139213D02*
X1561213Y-6096787D01*
X1518787Y-6096787D01*
X1518787Y-6139213D01*
X1561213Y-6139213D01*
X1580000Y-6088000D02*
X1500000Y-6088000D01*
X1500000Y-6148000D02*
G75*
G02*
X1500000Y-6088000I0J30000D01*
G01*
X1500000Y-6148000D02*
X1580000Y-6148000D01*
X1580000Y-6148000D02*
G75*
G03*
X1580000Y-6088000I0J30000D01*
G01*
X1561213Y-7003213D02*
X1561213Y-6960787D01*
X1518787Y-6960787D01*
X1518787Y-7003213D01*
X1561213Y-7003213D01*
X1580000Y-6952000D02*
X1500000Y-6952000D01*
X1500000Y-7012000D02*
G75*
G02*
X1500000Y-6952000I0J30000D01*
G01*
X1500000Y-7012000D02*
X1580000Y-7012000D01*
X1580000Y-7012000D02*
G75*
G03*
X1580000Y-6952000I0J30000D01*
G01*
X1979213Y-6139213D02*
X1979213Y-6096787D01*
X1936787Y-6096787D01*
X1936787Y-6139213D01*
X1979213Y-6139213D01*
X2013000Y-6088000D02*
X1903000Y-6088000D01*
X1903000Y-6148000D02*
G75*
G02*
X1903000Y-6088000I0J30000D01*
G01*
X1903000Y-6148000D02*
X2013000Y-6148000D01*
X2013000Y-6148000D02*
G75*
G03*
X2013000Y-6088000I0J30000D01*
G01*
X1979213Y-7003213D02*
X1979213Y-6960787D01*
X1936787Y-6960787D01*
X1936787Y-7003213D01*
X1979213Y-7003213D01*
X2013000Y-6952000D02*
X1903000Y-6952000D01*
X1903000Y-7012000D02*
G75*
G02*
X1903000Y-6952000I0J30000D01*
G01*
X1903000Y-7012000D02*
X2013000Y-7012000D01*
X2013000Y-7012000D02*
G75*
G03*
X2013000Y-6952000I0J30000D01*
G01*
X1531000Y-5267500D02*
X1567500Y-5231000D01*
X1531000Y-5194500D01*
X1494500Y-5231000D01*
X1531000Y-5267500D01*
X1531000Y-5417500D02*
X1567500Y-5381000D01*
X1531000Y-5344500D01*
X1494500Y-5381000D01*
X1531000Y-5417500D01*
X5590500Y-9857000D02*
X5685500Y-9952000D01*
X5685500Y-9857000D02*
X5590500Y-9952000D01*
X5685500Y-9904500D02*
G75*
G02*
X5590500Y-9904500I-47500J0D01*
G01*
X5590500Y-9904500D02*
G75*
G02*
X5685500Y-9904500I47500J0D01*
G01*
X5590500Y-10107000D02*
X5685500Y-10202000D01*
X5685500Y-10107000D02*
X5590500Y-10202000D01*
X5685500Y-10154500D02*
G75*
G02*
X5590500Y-10154500I-47500J0D01*
G01*
X5590500Y-10154500D02*
G75*
G02*
X5685500Y-10154500I47500J0D01*
G01*
X5590500Y-10357000D02*
X5685500Y-10452000D01*
X5685500Y-10357000D02*
X5590500Y-10452000D01*
X5685500Y-10404500D02*
G75*
G02*
X5590500Y-10404500I-47500J0D01*
G01*
X5590500Y-10404500D02*
G75*
G02*
X5685500Y-10404500I47500J0D01*
G01*
X5590500Y-10607000D02*
X5685500Y-10702000D01*
X5685500Y-10607000D02*
X5590500Y-10702000D01*
X5685500Y-10654500D02*
G75*
G02*
X5590500Y-10654500I-47500J0D01*
G01*
X5590500Y-10654500D02*
G75*
G02*
X5685500Y-10654500I47500J0D01*
G01*
X6233833Y-9857000D02*
X6328833Y-9952000D01*
X6328833Y-9857000D02*
X6233833Y-9952000D01*
X6328833Y-9904500D02*
G75*
G02*
X6233833Y-9904500I-47500J0D01*
G01*
X6233833Y-9904500D02*
G75*
G02*
X6328833Y-9904500I47500J0D01*
G01*
X6233833Y-10107000D02*
X6328833Y-10202000D01*
X6328833Y-10107000D02*
X6233833Y-10202000D01*
X6328833Y-10154500D02*
G75*
G02*
X6233833Y-10154500I-47500J0D01*
G01*
X6233833Y-10154500D02*
G75*
G02*
X6328833Y-10154500I47500J0D01*
G01*
X6233833Y-10357000D02*
X6328833Y-10452000D01*
X6328833Y-10357000D02*
X6233833Y-10452000D01*
X6328833Y-10404500D02*
G75*
G02*
X6233833Y-10404500I-47500J0D01*
G01*
X6233833Y-10404500D02*
G75*
G02*
X6328833Y-10404500I47500J0D01*
G01*
X6233833Y-10607000D02*
X6328833Y-10702000D01*
X6328833Y-10607000D02*
X6233833Y-10702000D01*
X6328833Y-10654500D02*
G75*
G02*
X6233833Y-10654500I-47500J0D01*
G01*
X6233833Y-10654500D02*
G75*
G02*
X6328833Y-10654500I47500J0D01*
G01*
X6877167Y-9857000D02*
X6972167Y-9952000D01*
X6972167Y-9857000D02*
X6877167Y-9952000D01*
X6972167Y-9904500D02*
G75*
G02*
X6877167Y-9904500I-47500J0D01*
G01*
X6877167Y-9904500D02*
G75*
G02*
X6972167Y-9904500I47500J0D01*
G01*
X6877167Y-10107000D02*
X6972167Y-10202000D01*
X6972167Y-10107000D02*
X6877167Y-10202000D01*
X6972167Y-10154500D02*
G75*
G02*
X6877167Y-10154500I-47500J0D01*
G01*
X6877167Y-10154500D02*
G75*
G02*
X6972167Y-10154500I47500J0D01*
G01*
X6877167Y-10357000D02*
X6972167Y-10452000D01*
X6972167Y-10357000D02*
X6877167Y-10452000D01*
X6972167Y-10404500D02*
G75*
G02*
X6877167Y-10404500I-47500J0D01*
G01*
X6877167Y-10404500D02*
G75*
G02*
X6972167Y-10404500I47500J0D01*
G01*
X6877167Y-10607000D02*
X6972167Y-10702000D01*
X6972167Y-10607000D02*
X6877167Y-10702000D01*
X6972167Y-10654500D02*
G75*
G02*
X6877167Y-10654500I-47500J0D01*
G01*
X6877167Y-10654500D02*
G75*
G02*
X6972167Y-10654500I47500J0D01*
G01*
X7520500Y-9857000D02*
X7615500Y-9952000D01*
X7615500Y-9857000D02*
X7520500Y-9952000D01*
X7615500Y-9904500D02*
G75*
G02*
X7520500Y-9904500I-47500J0D01*
G01*
X7520500Y-9904500D02*
G75*
G02*
X7615500Y-9904500I47500J0D01*
G01*
X7520500Y-10107000D02*
X7615500Y-10202000D01*
X7615500Y-10107000D02*
X7520500Y-10202000D01*
X7615500Y-10154500D02*
G75*
G02*
X7520500Y-10154500I-47500J0D01*
G01*
X7520500Y-10154500D02*
G75*
G02*
X7615500Y-10154500I47500J0D01*
G01*
X7520500Y-10357000D02*
X7615500Y-10452000D01*
X7615500Y-10357000D02*
X7520500Y-10452000D01*
X7615500Y-10404500D02*
G75*
G02*
X7520500Y-10404500I-47500J0D01*
G01*
X7520500Y-10404500D02*
G75*
G02*
X7615500Y-10404500I47500J0D01*
G01*
X7520500Y-10607000D02*
X7615500Y-10702000D01*
X7615500Y-10607000D02*
X7520500Y-10702000D01*
X7615500Y-10654500D02*
G75*
G02*
X7520500Y-10654500I-47500J0D01*
G01*
X7520500Y-10654500D02*
G75*
G02*
X7615500Y-10654500I47500J0D01*
G01*
X3302500Y-10219500D02*
X3402500Y-10319500D01*
X3402500Y-10219500D02*
X3302500Y-10319500D01*
X3352500Y-10219500D02*
X3352500Y-10319500D01*
X3302500Y-10269500D02*
X3402500Y-10269500D01*
X3302500Y-10473500D02*
X3402500Y-10573500D01*
X3402500Y-10473500D02*
X3302500Y-10573500D01*
X3352500Y-10473500D02*
X3352500Y-10573500D01*
X3302500Y-10523500D02*
X3402500Y-10523500D01*
X3302500Y-10727500D02*
X3402500Y-10827500D01*
X3402500Y-10727500D02*
X3302500Y-10827500D01*
X3352500Y-10727500D02*
X3352500Y-10827500D01*
X3302500Y-10777500D02*
X3402500Y-10777500D01*
X3761500Y-10219500D02*
X3861500Y-10319500D01*
X3861500Y-10219500D02*
X3761500Y-10319500D01*
X3811500Y-10219500D02*
X3811500Y-10319500D01*
X3761500Y-10269500D02*
X3861500Y-10269500D01*
X3761500Y-10473500D02*
X3861500Y-10573500D01*
X3861500Y-10473500D02*
X3761500Y-10573500D01*
X3811500Y-10473500D02*
X3811500Y-10573500D01*
X3761500Y-10523500D02*
X3861500Y-10523500D01*
X3761500Y-10727500D02*
X3861500Y-10827500D01*
X3861500Y-10727500D02*
X3761500Y-10827500D01*
X3811500Y-10727500D02*
X3811500Y-10827500D01*
X3761500Y-10777500D02*
X3861500Y-10777500D01*
X4155000Y-6691000D02*
X4255000Y-6791000D01*
X4255000Y-6691000D02*
X4155000Y-6791000D01*
X4205000Y-6691000D02*
X4205000Y-6791000D01*
X4155000Y-6741000D02*
X4255000Y-6741000D01*
X4155000Y-8469000D02*
X4255000Y-8569000D01*
X4255000Y-8469000D02*
X4155000Y-8569000D01*
X4205000Y-8469000D02*
X4205000Y-8569000D01*
X4155000Y-8519000D02*
X4255000Y-8519000D01*
X4220500Y-10219500D02*
X4320500Y-10319500D01*
X4320500Y-10219500D02*
X4220500Y-10319500D01*
X4270500Y-10219500D02*
X4270500Y-10319500D01*
X4220500Y-10269500D02*
X4320500Y-10269500D01*
X4220500Y-10473500D02*
X4320500Y-10573500D01*
X4320500Y-10473500D02*
X4220500Y-10573500D01*
X4270500Y-10473500D02*
X4270500Y-10573500D01*
X4220500Y-10523500D02*
X4320500Y-10523500D01*
X4220500Y-10727500D02*
X4320500Y-10827500D01*
X4320500Y-10727500D02*
X4220500Y-10827500D01*
X4270500Y-10727500D02*
X4270500Y-10827500D01*
X4220500Y-10777500D02*
X4320500Y-10777500D01*
X4409000Y-6691000D02*
X4509000Y-6791000D01*
X4509000Y-6691000D02*
X4409000Y-6791000D01*
X4459000Y-6691000D02*
X4459000Y-6791000D01*
X4409000Y-6741000D02*
X4509000Y-6741000D01*
X4409000Y-8469000D02*
X4509000Y-8569000D01*
X4509000Y-8469000D02*
X4409000Y-8569000D01*
X4459000Y-8469000D02*
X4459000Y-8569000D01*
X4409000Y-8519000D02*
X4509000Y-8519000D01*
X4663000Y-6691000D02*
X4763000Y-6791000D01*
X4763000Y-6691000D02*
X4663000Y-6791000D01*
X4713000Y-6691000D02*
X4713000Y-6791000D01*
X4663000Y-6741000D02*
X4763000Y-6741000D01*
X4663000Y-8469000D02*
X4763000Y-8569000D01*
X4763000Y-8469000D02*
X4663000Y-8569000D01*
X4713000Y-8469000D02*
X4713000Y-8569000D01*
X4663000Y-8519000D02*
X4763000Y-8519000D01*
X4679500Y-10219500D02*
X4779500Y-10319500D01*
X4779500Y-10219500D02*
X4679500Y-10319500D01*
X4729500Y-10219500D02*
X4729500Y-10319500D01*
X4679500Y-10269500D02*
X4779500Y-10269500D01*
X4679500Y-10473500D02*
X4779500Y-10573500D01*
X4779500Y-10473500D02*
X4679500Y-10573500D01*
X4729500Y-10473500D02*
X4729500Y-10573500D01*
X4679500Y-10523500D02*
X4779500Y-10523500D01*
X4679500Y-10727500D02*
X4779500Y-10827500D01*
X4779500Y-10727500D02*
X4679500Y-10827500D01*
X4729500Y-10727500D02*
X4729500Y-10827500D01*
X4679500Y-10777500D02*
X4779500Y-10777500D01*
X4917000Y-6691000D02*
X5017000Y-6791000D01*
X5017000Y-6691000D02*
X4917000Y-6791000D01*
X4967000Y-6691000D02*
X4967000Y-6791000D01*
X4917000Y-6741000D02*
X5017000Y-6741000D01*
X4917000Y-8469000D02*
X5017000Y-8569000D01*
X5017000Y-8469000D02*
X4917000Y-8569000D01*
X4967000Y-8469000D02*
X4967000Y-8569000D01*
X4917000Y-8519000D02*
X5017000Y-8519000D01*
X5138500Y-10219500D02*
X5238500Y-10319500D01*
X5238500Y-10219500D02*
X5138500Y-10319500D01*
X5188500Y-10219500D02*
X5188500Y-10319500D01*
X5138500Y-10269500D02*
X5238500Y-10269500D01*
X5138500Y-10473500D02*
X5238500Y-10573500D01*
X5238500Y-10473500D02*
X5138500Y-10573500D01*
X5188500Y-10473500D02*
X5188500Y-10573500D01*
X5138500Y-10523500D02*
X5238500Y-10523500D01*
X5138500Y-10727500D02*
X5238500Y-10827500D01*
X5238500Y-10727500D02*
X5138500Y-10827500D01*
X5188500Y-10727500D02*
X5188500Y-10827500D01*
X5138500Y-10777500D02*
X5238500Y-10777500D01*
X5171000Y-6691000D02*
X5271000Y-6791000D01*
X5271000Y-6691000D02*
X5171000Y-6791000D01*
X5221000Y-6691000D02*
X5221000Y-6791000D01*
X5171000Y-6741000D02*
X5271000Y-6741000D01*
X5171000Y-8469000D02*
X5271000Y-8569000D01*
X5271000Y-8469000D02*
X5171000Y-8569000D01*
X5221000Y-8469000D02*
X5221000Y-8569000D01*
X5171000Y-8519000D02*
X5271000Y-8519000D01*
X5402500Y-4390000D02*
X5502500Y-4490000D01*
X5502500Y-4390000D02*
X5402500Y-4490000D01*
X5452500Y-4390000D02*
X5452500Y-4490000D01*
X5402500Y-4440000D02*
X5502500Y-4440000D01*
X5402500Y-4640000D02*
X5502500Y-4740000D01*
X5502500Y-4640000D02*
X5402500Y-4740000D01*
X5452500Y-4640000D02*
X5452500Y-4740000D01*
X5402500Y-4690000D02*
X5502500Y-4690000D01*
X5425000Y-6691000D02*
X5525000Y-6791000D01*
X5525000Y-6691000D02*
X5425000Y-6791000D01*
X5475000Y-6691000D02*
X5475000Y-6791000D01*
X5425000Y-6741000D02*
X5525000Y-6741000D01*
X5425000Y-8469000D02*
X5525000Y-8569000D01*
X5525000Y-8469000D02*
X5425000Y-8569000D01*
X5475000Y-8469000D02*
X5475000Y-8569000D01*
X5425000Y-8519000D02*
X5525000Y-8519000D01*
D13*
X1775750Y-8205500D02*
X1885750Y-8315500D01*
X1885750Y-8205500D02*
X1775750Y-8315500D01*
X1869641Y-8299391D02*
X1869641Y-8221609D01*
X1791859Y-8221609D01*
X1791859Y-8299391D01*
X1869641Y-8299391D01*
X1775750Y-8459500D02*
X1885750Y-8569500D01*
X1885750Y-8459500D02*
X1775750Y-8569500D01*
X1869641Y-8553391D02*
X1869641Y-8475609D01*
X1791859Y-8475609D01*
X1791859Y-8553391D01*
X1869641Y-8553391D01*
X9332500Y-9658500D02*
X9442500Y-9768500D01*
X9442500Y-9658500D02*
X9332500Y-9768500D01*
X9426391Y-9752391D02*
X9426391Y-9674609D01*
X9348609Y-9674609D01*
X9348609Y-9752391D01*
X9426391Y-9752391D01*
X9332500Y-9912500D02*
X9442500Y-10022500D01*
X9442500Y-9912500D02*
X9332500Y-10022500D01*
X9426391Y-10006391D02*
X9426391Y-9928609D01*
X9348609Y-9928609D01*
X9348609Y-10006391D01*
X9426391Y-10006391D01*
D14*
X3699000Y-6616000D02*
X3949000Y-6866000D01*
X3949000Y-6616000D02*
X3699000Y-6866000D01*
X3824000Y-6866000D02*
X3949000Y-6741000D01*
X3824000Y-6616000D01*
X3699000Y-6741000D01*
X3824000Y-6866000D01*
X3699000Y-8394000D02*
X3949000Y-8644000D01*
X3949000Y-8394000D02*
X3699000Y-8644000D01*
X3824000Y-8644000D02*
X3949000Y-8519000D01*
X3824000Y-8394000D01*
X3699000Y-8519000D01*
X3824000Y-8644000D01*
X5731000Y-6616000D02*
X5981000Y-6866000D01*
X5981000Y-6616000D02*
X5731000Y-6866000D01*
X5856000Y-6866000D02*
X5981000Y-6741000D01*
X5856000Y-6616000D01*
X5731000Y-6741000D01*
X5856000Y-6866000D01*
X5731000Y-8394000D02*
X5981000Y-8644000D01*
X5981000Y-8394000D02*
X5731000Y-8644000D01*
X5856000Y-8644000D02*
X5981000Y-8519000D01*
X5856000Y-8394000D01*
X5731000Y-8519000D01*
X5856000Y-8644000D01*
D15*
X6425000Y-4362500D02*
X6425000Y-4812500D01*
X6200000Y-4587500D02*
X6650000Y-4587500D01*
X6650000Y-4587500D02*
G75*
G02*
X6200000Y-4587500I-225000J0D01*
G01*
X6200000Y-4587500D02*
G75*
G02*
X6650000Y-4587500I225000J0D01*
G01*
X7145000Y-4362500D02*
X7145000Y-4812500D01*
X6920000Y-4587500D02*
X7370000Y-4587500D01*
X7370000Y-4587500D02*
G75*
G02*
X6920000Y-4587500I-225000J0D01*
G01*
X6920000Y-4587500D02*
G75*
G02*
X7370000Y-4587500I225000J0D01*
G01*
X8470000Y-4362500D02*
X8470000Y-4812500D01*
X8245000Y-4587500D02*
X8695000Y-4587500D01*
X8695000Y-4587500D02*
G75*
G02*
X8245000Y-4587500I-225000J0D01*
G01*
X8245000Y-4587500D02*
G75*
G02*
X8695000Y-4587500I225000J0D01*
G01*
X9190000Y-4362500D02*
X9190000Y-4812500D01*
X8965000Y-4587500D02*
X9415000Y-4587500D01*
X9415000Y-4587500D02*
G75*
G02*
X8965000Y-4587500I-225000J0D01*
G01*
X8965000Y-4587500D02*
G75*
G02*
X9415000Y-4587500I225000J0D01*
G01*
D12*
X1930981Y-6283981D02*
X1930981Y-6238019D01*
X1885019Y-6238019D01*
X1885019Y-6283981D01*
X1930981Y-6283981D01*
X1940500Y-6261000D02*
G75*
G02*
X1875500Y-6261000I-32500J0D01*
G01*
X1875500Y-6261000D02*
G75*
G02*
X1940500Y-6261000I32500J0D01*
G01*
X1930981Y-6861981D02*
X1930981Y-6816019D01*
X1885019Y-6816019D01*
X1885019Y-6861981D01*
X1930981Y-6861981D01*
X1940500Y-6839000D02*
G75*
G02*
X1875500Y-6839000I-32500J0D01*
G01*
X1875500Y-6839000D02*
G75*
G02*
X1940500Y-6839000I32500J0D01*
G01*
D13*
X1576750Y-8315500D02*
X1631750Y-8260500D01*
X1576750Y-8205500D01*
X1521750Y-8260500D01*
X1576750Y-8315500D01*
X1631750Y-8260500D02*
G75*
G02*
X1521750Y-8260500I-55000J0D01*
G01*
X1521750Y-8260500D02*
G75*
G02*
X1631750Y-8260500I55000J0D01*
G01*
X1576750Y-8569500D02*
X1631750Y-8514500D01*
X1576750Y-8459500D01*
X1521750Y-8514500D01*
X1576750Y-8569500D01*
X1631750Y-8514500D02*
G75*
G02*
X1521750Y-8514500I-55000J0D01*
G01*
X1521750Y-8514500D02*
G75*
G02*
X1631750Y-8514500I55000J0D01*
G01*
X9641500Y-9768500D02*
X9696500Y-9713500D01*
X9641500Y-9658500D01*
X9586500Y-9713500D01*
X9641500Y-9768500D01*
X9696500Y-9713500D02*
G75*
G02*
X9586500Y-9713500I-55000J0D01*
G01*
X9586500Y-9713500D02*
G75*
G02*
X9696500Y-9713500I55000J0D01*
G01*
X9641500Y-10022500D02*
X9696500Y-9967500D01*
X9641500Y-9912500D01*
X9586500Y-9967500D01*
X9641500Y-10022500D01*
X9696500Y-9967500D02*
G75*
G02*
X9586500Y-9967500I-55000J0D01*
G01*
X9586500Y-9967500D02*
G75*
G02*
X9696500Y-9967500I55000J0D01*
G01*
D11*
X1511606Y-11546259D02*
X1511606Y-11346259D01*
X1511606Y-11346259D02*
X1559225Y-11346259D01*
X1559225Y-11346259D02*
X1587796Y-11355783D01*
X1587796Y-11355783D02*
X1606844Y-11374831D01*
X1606844Y-11374831D02*
X1616368Y-11393878D01*
X1616368Y-11393878D02*
X1625892Y-11431973D01*
X1625892Y-11431973D02*
X1625892Y-11460545D01*
X1625892Y-11460545D02*
X1616368Y-11498640D01*
X1616368Y-11498640D02*
X1606844Y-11517688D01*
X1606844Y-11517688D02*
X1587796Y-11536735D01*
X1587796Y-11536735D02*
X1559225Y-11546259D01*
X1559225Y-11546259D02*
X1511606Y-11546259D01*
X1711606Y-11546259D02*
X1711606Y-11412926D01*
X1711606Y-11451021D02*
X1721130Y-11431973D01*
X1721130Y-11431973D02*
X1730653Y-11422450D01*
X1730653Y-11422450D02*
X1749701Y-11412926D01*
X1749701Y-11412926D02*
X1768749Y-11412926D01*
X1835415Y-11546259D02*
X1835415Y-11412926D01*
X1835415Y-11346259D02*
X1825892Y-11355783D01*
X1825892Y-11355783D02*
X1835415Y-11365307D01*
X1835415Y-11365307D02*
X1844939Y-11355783D01*
X1844939Y-11355783D02*
X1835415Y-11346259D01*
X1835415Y-11346259D02*
X1835415Y-11365307D01*
X1959225Y-11546259D02*
X1940177Y-11536735D01*
X1940177Y-11536735D02*
X1930653Y-11517688D01*
X1930653Y-11517688D02*
X1930653Y-11346259D01*
X2063987Y-11546259D02*
X2044939Y-11536735D01*
X2044939Y-11536735D02*
X2035415Y-11517688D01*
X2035415Y-11517688D02*
X2035415Y-11346259D01*
X2292558Y-11546259D02*
X2292558Y-11346259D01*
X2292558Y-11346259D02*
X2359225Y-11489116D01*
X2359225Y-11489116D02*
X2425892Y-11346259D01*
X2425892Y-11346259D02*
X2425892Y-11546259D01*
X2606844Y-11546259D02*
X2606844Y-11441497D01*
X2606844Y-11441497D02*
X2597320Y-11422450D01*
X2597320Y-11422450D02*
X2578273Y-11412926D01*
X2578273Y-11412926D02*
X2540177Y-11412926D01*
X2540177Y-11412926D02*
X2521130Y-11422450D01*
X2606844Y-11536735D02*
X2587796Y-11546259D01*
X2587796Y-11546259D02*
X2540177Y-11546259D01*
X2540177Y-11546259D02*
X2521130Y-11536735D01*
X2521130Y-11536735D02*
X2511606Y-11517688D01*
X2511606Y-11517688D02*
X2511606Y-11498640D01*
X2511606Y-11498640D02*
X2521130Y-11479593D01*
X2521130Y-11479593D02*
X2540177Y-11470069D01*
X2540177Y-11470069D02*
X2587796Y-11470069D01*
X2587796Y-11470069D02*
X2606844Y-11460545D01*
X2702082Y-11412926D02*
X2702082Y-11612926D01*
X2702082Y-11422450D02*
X2721130Y-11412926D01*
X2721130Y-11412926D02*
X2759225Y-11412926D01*
X2759225Y-11412926D02*
X2778273Y-11422450D01*
X2778273Y-11422450D02*
X2787796Y-11431973D01*
X2787796Y-11431973D02*
X2797320Y-11451021D01*
X2797320Y-11451021D02*
X2797320Y-11508164D01*
X2797320Y-11508164D02*
X2787796Y-11527212D01*
X2787796Y-11527212D02*
X2778273Y-11536735D01*
X2778273Y-11536735D02*
X2759225Y-11546259D01*
X2759225Y-11546259D02*
X2721130Y-11546259D01*
X2721130Y-11546259D02*
X2702082Y-11536735D01*
X2883034Y-11527212D02*
X2892558Y-11536735D01*
X2892558Y-11536735D02*
X2883034Y-11546259D01*
X2883034Y-11546259D02*
X2873511Y-11536735D01*
X2873511Y-11536735D02*
X2883034Y-11527212D01*
X2883034Y-11527212D02*
X2883034Y-11546259D01*
X2883034Y-11422450D02*
X2892558Y-11431973D01*
X2892558Y-11431973D02*
X2883034Y-11441497D01*
X2883034Y-11441497D02*
X2873511Y-11431973D01*
X2873511Y-11431973D02*
X2883034Y-11422450D01*
X2883034Y-11422450D02*
X2883034Y-11441497D01*
D12*
X1230829Y-11864775D02*
X1250829Y-11884775D01*
X1250829Y-11864775D02*
X1230829Y-11884775D01*
D11*
X1549701Y-11766259D02*
X1568749Y-11766259D01*
X1568749Y-11766259D02*
X1587796Y-11775783D01*
X1587796Y-11775783D02*
X1597320Y-11785307D01*
X1597320Y-11785307D02*
X1606844Y-11804354D01*
X1606844Y-11804354D02*
X1616368Y-11842450D01*
X1616368Y-11842450D02*
X1616368Y-11890069D01*
X1616368Y-11890069D02*
X1606844Y-11928164D01*
X1606844Y-11928164D02*
X1597320Y-11947212D01*
X1597320Y-11947212D02*
X1587796Y-11956735D01*
X1587796Y-11956735D02*
X1568749Y-11966259D01*
X1568749Y-11966259D02*
X1549701Y-11966259D01*
X1549701Y-11966259D02*
X1530653Y-11956735D01*
X1530653Y-11956735D02*
X1521130Y-11947212D01*
X1521130Y-11947212D02*
X1511606Y-11928164D01*
X1511606Y-11928164D02*
X1502082Y-11890069D01*
X1502082Y-11890069D02*
X1502082Y-11842450D01*
X1502082Y-11842450D02*
X1511606Y-11804354D01*
X1511606Y-11804354D02*
X1521130Y-11785307D01*
X1521130Y-11785307D02*
X1530653Y-11775783D01*
X1530653Y-11775783D02*
X1549701Y-11766259D01*
X1702082Y-11947212D02*
X1711606Y-11956735D01*
X1711606Y-11956735D02*
X1702082Y-11966259D01*
X1702082Y-11966259D02*
X1692558Y-11956735D01*
X1692558Y-11956735D02*
X1702082Y-11947212D01*
X1702082Y-11947212D02*
X1702082Y-11966259D01*
X1787796Y-11785307D02*
X1797320Y-11775783D01*
X1797320Y-11775783D02*
X1816368Y-11766259D01*
X1816368Y-11766259D02*
X1863987Y-11766259D01*
X1863987Y-11766259D02*
X1883034Y-11775783D01*
X1883034Y-11775783D02*
X1892558Y-11785307D01*
X1892558Y-11785307D02*
X1902082Y-11804354D01*
X1902082Y-11804354D02*
X1902082Y-11823402D01*
X1902082Y-11823402D02*
X1892558Y-11851973D01*
X1892558Y-11851973D02*
X1778273Y-11966259D01*
X1778273Y-11966259D02*
X1902082Y-11966259D01*
X2025892Y-11766259D02*
X2044939Y-11766259D01*
X2044939Y-11766259D02*
X2063987Y-11775783D01*
X2063987Y-11775783D02*
X2073511Y-11785307D01*
X2073511Y-11785307D02*
X2083034Y-11804354D01*
X2083034Y-11804354D02*
X2092558Y-11842450D01*
X2092558Y-11842450D02*
X2092558Y-11890069D01*
X2092558Y-11890069D02*
X2083034Y-11928164D01*
X2083034Y-11928164D02*
X2073511Y-11947212D01*
X2073511Y-11947212D02*
X2063987Y-11956735D01*
X2063987Y-11956735D02*
X2044939Y-11966259D01*
X2044939Y-11966259D02*
X2025892Y-11966259D01*
X2025892Y-11966259D02*
X2006844Y-11956735D01*
X2006844Y-11956735D02*
X1997320Y-11947212D01*
X1997320Y-11947212D02*
X1987796Y-11928164D01*
X1987796Y-11928164D02*
X1978273Y-11890069D01*
X1978273Y-11890069D02*
X1978273Y-11842450D01*
X1978273Y-11842450D02*
X1987796Y-11804354D01*
X1987796Y-11804354D02*
X1997320Y-11785307D01*
X1997320Y-11785307D02*
X2006844Y-11775783D01*
X2006844Y-11775783D02*
X2025892Y-11766259D01*
X2216368Y-11766259D02*
X2235416Y-11766259D01*
X2235416Y-11766259D02*
X2254463Y-11775783D01*
X2254463Y-11775783D02*
X2263987Y-11785307D01*
X2263987Y-11785307D02*
X2273511Y-11804354D01*
X2273511Y-11804354D02*
X2283035Y-11842450D01*
X2283035Y-11842450D02*
X2283035Y-11890069D01*
X2283035Y-11890069D02*
X2273511Y-11928164D01*
X2273511Y-11928164D02*
X2263987Y-11947212D01*
X2263987Y-11947212D02*
X2254463Y-11956735D01*
X2254463Y-11956735D02*
X2235416Y-11966259D01*
X2235416Y-11966259D02*
X2216368Y-11966259D01*
X2216368Y-11966259D02*
X2197320Y-11956735D01*
X2197320Y-11956735D02*
X2187796Y-11947212D01*
X2187796Y-11947212D02*
X2178273Y-11928164D01*
X2178273Y-11928164D02*
X2168749Y-11890069D01*
X2168749Y-11890069D02*
X2168749Y-11842450D01*
X2168749Y-11842450D02*
X2178273Y-11804354D01*
X2178273Y-11804354D02*
X2187796Y-11785307D01*
X2187796Y-11785307D02*
X2197320Y-11775783D01*
X2197320Y-11775783D02*
X2216368Y-11766259D01*
X2368749Y-11966259D02*
X2368749Y-11832926D01*
X2368749Y-11851973D02*
X2378273Y-11842450D01*
X2378273Y-11842450D02*
X2397320Y-11832926D01*
X2397320Y-11832926D02*
X2425892Y-11832926D01*
X2425892Y-11832926D02*
X2444939Y-11842450D01*
X2444939Y-11842450D02*
X2454463Y-11861497D01*
X2454463Y-11861497D02*
X2454463Y-11966259D01*
X2454463Y-11861497D02*
X2463987Y-11842450D01*
X2463987Y-11842450D02*
X2483035Y-11832926D01*
X2483035Y-11832926D02*
X2511606Y-11832926D01*
X2511606Y-11832926D02*
X2530654Y-11842450D01*
X2530654Y-11842450D02*
X2540177Y-11861497D01*
X2540177Y-11861497D02*
X2540177Y-11966259D01*
X2635416Y-11966259D02*
X2635416Y-11832926D01*
X2635416Y-11851973D02*
X2644939Y-11842450D01*
X2644939Y-11842450D02*
X2663987Y-11832926D01*
X2663987Y-11832926D02*
X2692558Y-11832926D01*
X2692558Y-11832926D02*
X2711606Y-11842450D01*
X2711606Y-11842450D02*
X2721130Y-11861497D01*
X2721130Y-11861497D02*
X2721130Y-11966259D01*
X2721130Y-11861497D02*
X2730654Y-11842450D01*
X2730654Y-11842450D02*
X2749701Y-11832926D01*
X2749701Y-11832926D02*
X2778273Y-11832926D01*
X2778273Y-11832926D02*
X2797320Y-11842450D01*
X2797320Y-11842450D02*
X2806844Y-11861497D01*
X2806844Y-11861497D02*
X2806844Y-11966259D01*
X3197320Y-11756735D02*
X3025892Y-12013878D01*
X3454463Y-11766259D02*
X3473511Y-11766259D01*
X3473511Y-11766259D02*
X3492558Y-11775783D01*
X3492558Y-11775783D02*
X3502082Y-11785307D01*
X3502082Y-11785307D02*
X3511606Y-11804354D01*
X3511606Y-11804354D02*
X3521130Y-11842450D01*
X3521130Y-11842450D02*
X3521130Y-11890069D01*
X3521130Y-11890069D02*
X3511606Y-11928164D01*
X3511606Y-11928164D02*
X3502082Y-11947212D01*
X3502082Y-11947212D02*
X3492558Y-11956735D01*
X3492558Y-11956735D02*
X3473511Y-11966259D01*
X3473511Y-11966259D02*
X3454463Y-11966259D01*
X3454463Y-11966259D02*
X3435416Y-11956735D01*
X3435416Y-11956735D02*
X3425892Y-11947212D01*
X3425892Y-11947212D02*
X3416368Y-11928164D01*
X3416368Y-11928164D02*
X3406844Y-11890069D01*
X3406844Y-11890069D02*
X3406844Y-11842450D01*
X3406844Y-11842450D02*
X3416368Y-11804354D01*
X3416368Y-11804354D02*
X3425892Y-11785307D01*
X3425892Y-11785307D02*
X3435416Y-11775783D01*
X3435416Y-11775783D02*
X3454463Y-11766259D01*
X3606844Y-11947212D02*
X3616368Y-11956735D01*
X3616368Y-11956735D02*
X3606844Y-11966259D01*
X3606844Y-11966259D02*
X3597320Y-11956735D01*
X3597320Y-11956735D02*
X3606844Y-11947212D01*
X3606844Y-11947212D02*
X3606844Y-11966259D01*
X3740177Y-11766259D02*
X3759225Y-11766259D01*
X3759225Y-11766259D02*
X3778273Y-11775783D01*
X3778273Y-11775783D02*
X3787797Y-11785307D01*
X3787797Y-11785307D02*
X3797320Y-11804354D01*
X3797320Y-11804354D02*
X3806844Y-11842450D01*
X3806844Y-11842450D02*
X3806844Y-11890069D01*
X3806844Y-11890069D02*
X3797320Y-11928164D01*
X3797320Y-11928164D02*
X3787797Y-11947212D01*
X3787797Y-11947212D02*
X3778273Y-11956735D01*
X3778273Y-11956735D02*
X3759225Y-11966259D01*
X3759225Y-11966259D02*
X3740177Y-11966259D01*
X3740177Y-11966259D02*
X3721130Y-11956735D01*
X3721130Y-11956735D02*
X3711606Y-11947212D01*
X3711606Y-11947212D02*
X3702082Y-11928164D01*
X3702082Y-11928164D02*
X3692558Y-11890069D01*
X3692558Y-11890069D02*
X3692558Y-11842450D01*
X3692558Y-11842450D02*
X3702082Y-11804354D01*
X3702082Y-11804354D02*
X3711606Y-11785307D01*
X3711606Y-11785307D02*
X3721130Y-11775783D01*
X3721130Y-11775783D02*
X3740177Y-11766259D01*
X3930654Y-11766259D02*
X3949701Y-11766259D01*
X3949701Y-11766259D02*
X3968749Y-11775783D01*
X3968749Y-11775783D02*
X3978273Y-11785307D01*
X3978273Y-11785307D02*
X3987797Y-11804354D01*
X3987797Y-11804354D02*
X3997320Y-11842450D01*
X3997320Y-11842450D02*
X3997320Y-11890069D01*
X3997320Y-11890069D02*
X3987797Y-11928164D01*
X3987797Y-11928164D02*
X3978273Y-11947212D01*
X3978273Y-11947212D02*
X3968749Y-11956735D01*
X3968749Y-11956735D02*
X3949701Y-11966259D01*
X3949701Y-11966259D02*
X3930654Y-11966259D01*
X3930654Y-11966259D02*
X3911606Y-11956735D01*
X3911606Y-11956735D02*
X3902082Y-11947212D01*
X3902082Y-11947212D02*
X3892558Y-11928164D01*
X3892558Y-11928164D02*
X3883035Y-11890069D01*
X3883035Y-11890069D02*
X3883035Y-11842450D01*
X3883035Y-11842450D02*
X3892558Y-11804354D01*
X3892558Y-11804354D02*
X3902082Y-11785307D01*
X3902082Y-11785307D02*
X3911606Y-11775783D01*
X3911606Y-11775783D02*
X3930654Y-11766259D01*
X4063987Y-11766259D02*
X4197320Y-11766259D01*
X4197320Y-11766259D02*
X4111606Y-11966259D01*
X4283035Y-11966259D02*
X4321130Y-11966259D01*
X4321130Y-11966259D02*
X4340178Y-11956735D01*
X4340178Y-11956735D02*
X4349701Y-11947212D01*
X4349701Y-11947212D02*
X4368749Y-11918640D01*
X4368749Y-11918640D02*
X4378273Y-11880545D01*
X4378273Y-11880545D02*
X4378273Y-11804354D01*
X4378273Y-11804354D02*
X4368749Y-11785307D01*
X4368749Y-11785307D02*
X4359225Y-11775783D01*
X4359225Y-11775783D02*
X4340178Y-11766259D01*
X4340178Y-11766259D02*
X4302082Y-11766259D01*
X4302082Y-11766259D02*
X4283035Y-11775783D01*
X4283035Y-11775783D02*
X4273511Y-11785307D01*
X4273511Y-11785307D02*
X4263987Y-11804354D01*
X4263987Y-11804354D02*
X4263987Y-11851973D01*
X4263987Y-11851973D02*
X4273511Y-11871021D01*
X4273511Y-11871021D02*
X4283035Y-11880545D01*
X4283035Y-11880545D02*
X4302082Y-11890069D01*
X4302082Y-11890069D02*
X4340178Y-11890069D01*
X4340178Y-11890069D02*
X4359225Y-11880545D01*
X4359225Y-11880545D02*
X4368749Y-11871021D01*
X4368749Y-11871021D02*
X4378273Y-11851973D01*
X4454463Y-11766259D02*
X4454463Y-11804354D01*
X4530654Y-11766259D02*
X4530654Y-11804354D01*
X4825892Y-12042450D02*
X4816368Y-12032926D01*
X4816368Y-12032926D02*
X4797321Y-12004354D01*
X4797321Y-12004354D02*
X4787797Y-11985307D01*
X4787797Y-11985307D02*
X4778273Y-11956735D01*
X4778273Y-11956735D02*
X4768749Y-11909116D01*
X4768749Y-11909116D02*
X4768749Y-11871021D01*
X4768749Y-11871021D02*
X4778273Y-11823402D01*
X4778273Y-11823402D02*
X4787797Y-11794831D01*
X4787797Y-11794831D02*
X4797321Y-11775783D01*
X4797321Y-11775783D02*
X4816368Y-11747212D01*
X4816368Y-11747212D02*
X4825892Y-11737688D01*
X4987797Y-11766259D02*
X4949701Y-11766259D01*
X4949701Y-11766259D02*
X4930654Y-11775783D01*
X4930654Y-11775783D02*
X4921130Y-11785307D01*
X4921130Y-11785307D02*
X4902082Y-11813878D01*
X4902082Y-11813878D02*
X4892559Y-11851973D01*
X4892559Y-11851973D02*
X4892559Y-11928164D01*
X4892559Y-11928164D02*
X4902082Y-11947212D01*
X4902082Y-11947212D02*
X4911606Y-11956735D01*
X4911606Y-11956735D02*
X4930654Y-11966259D01*
X4930654Y-11966259D02*
X4968749Y-11966259D01*
X4968749Y-11966259D02*
X4987797Y-11956735D01*
X4987797Y-11956735D02*
X4997321Y-11947212D01*
X4997321Y-11947212D02*
X5006844Y-11928164D01*
X5006844Y-11928164D02*
X5006844Y-11880545D01*
X5006844Y-11880545D02*
X4997321Y-11861497D01*
X4997321Y-11861497D02*
X4987797Y-11851973D01*
X4987797Y-11851973D02*
X4968749Y-11842450D01*
X4968749Y-11842450D02*
X4930654Y-11842450D01*
X4930654Y-11842450D02*
X4911606Y-11851973D01*
X4911606Y-11851973D02*
X4902082Y-11861497D01*
X4902082Y-11861497D02*
X4892559Y-11880545D01*
X5178273Y-11766259D02*
X5140178Y-11766259D01*
X5140178Y-11766259D02*
X5121130Y-11775783D01*
X5121130Y-11775783D02*
X5111606Y-11785307D01*
X5111606Y-11785307D02*
X5092559Y-11813878D01*
X5092559Y-11813878D02*
X5083035Y-11851973D01*
X5083035Y-11851973D02*
X5083035Y-11928164D01*
X5083035Y-11928164D02*
X5092559Y-11947212D01*
X5092559Y-11947212D02*
X5102082Y-11956735D01*
X5102082Y-11956735D02*
X5121130Y-11966259D01*
X5121130Y-11966259D02*
X5159225Y-11966259D01*
X5159225Y-11966259D02*
X5178273Y-11956735D01*
X5178273Y-11956735D02*
X5187797Y-11947212D01*
X5187797Y-11947212D02*
X5197321Y-11928164D01*
X5197321Y-11928164D02*
X5197321Y-11880545D01*
X5197321Y-11880545D02*
X5187797Y-11861497D01*
X5187797Y-11861497D02*
X5178273Y-11851973D01*
X5178273Y-11851973D02*
X5159225Y-11842450D01*
X5159225Y-11842450D02*
X5121130Y-11842450D01*
X5121130Y-11842450D02*
X5102082Y-11851973D01*
X5102082Y-11851973D02*
X5092559Y-11861497D01*
X5092559Y-11861497D02*
X5083035Y-11880545D01*
X5435416Y-11966259D02*
X5435416Y-11766259D01*
X5521130Y-11966259D02*
X5521130Y-11861497D01*
X5521130Y-11861497D02*
X5511606Y-11842450D01*
X5511606Y-11842450D02*
X5492559Y-11832926D01*
X5492559Y-11832926D02*
X5463987Y-11832926D01*
X5463987Y-11832926D02*
X5444940Y-11842450D01*
X5444940Y-11842450D02*
X5435416Y-11851973D01*
X5644940Y-11966259D02*
X5625892Y-11956735D01*
X5625892Y-11956735D02*
X5616368Y-11947212D01*
X5616368Y-11947212D02*
X5606844Y-11928164D01*
X5606844Y-11928164D02*
X5606844Y-11871021D01*
X5606844Y-11871021D02*
X5616368Y-11851973D01*
X5616368Y-11851973D02*
X5625892Y-11842450D01*
X5625892Y-11842450D02*
X5644940Y-11832926D01*
X5644940Y-11832926D02*
X5673511Y-11832926D01*
X5673511Y-11832926D02*
X5692559Y-11842450D01*
X5692559Y-11842450D02*
X5702082Y-11851973D01*
X5702082Y-11851973D02*
X5711606Y-11871021D01*
X5711606Y-11871021D02*
X5711606Y-11928164D01*
X5711606Y-11928164D02*
X5702082Y-11947212D01*
X5702082Y-11947212D02*
X5692559Y-11956735D01*
X5692559Y-11956735D02*
X5673511Y-11966259D01*
X5673511Y-11966259D02*
X5644940Y-11966259D01*
X5825892Y-11966259D02*
X5806844Y-11956735D01*
X5806844Y-11956735D02*
X5797321Y-11937688D01*
X5797321Y-11937688D02*
X5797321Y-11766259D01*
X5978273Y-11956735D02*
X5959225Y-11966259D01*
X5959225Y-11966259D02*
X5921130Y-11966259D01*
X5921130Y-11966259D02*
X5902082Y-11956735D01*
X5902082Y-11956735D02*
X5892559Y-11937688D01*
X5892559Y-11937688D02*
X5892559Y-11861497D01*
X5892559Y-11861497D02*
X5902082Y-11842450D01*
X5902082Y-11842450D02*
X5921130Y-11832926D01*
X5921130Y-11832926D02*
X5959225Y-11832926D01*
X5959225Y-11832926D02*
X5978273Y-11842450D01*
X5978273Y-11842450D02*
X5987797Y-11861497D01*
X5987797Y-11861497D02*
X5987797Y-11880545D01*
X5987797Y-11880545D02*
X5892559Y-11899593D01*
X6063987Y-11956735D02*
X6083035Y-11966259D01*
X6083035Y-11966259D02*
X6121130Y-11966259D01*
X6121130Y-11966259D02*
X6140178Y-11956735D01*
X6140178Y-11956735D02*
X6149702Y-11937688D01*
X6149702Y-11937688D02*
X6149702Y-11928164D01*
X6149702Y-11928164D02*
X6140178Y-11909116D01*
X6140178Y-11909116D02*
X6121130Y-11899593D01*
X6121130Y-11899593D02*
X6092559Y-11899593D01*
X6092559Y-11899593D02*
X6073511Y-11890069D01*
X6073511Y-11890069D02*
X6063987Y-11871021D01*
X6063987Y-11871021D02*
X6063987Y-11861497D01*
X6063987Y-11861497D02*
X6073511Y-11842450D01*
X6073511Y-11842450D02*
X6092559Y-11832926D01*
X6092559Y-11832926D02*
X6121130Y-11832926D01*
X6121130Y-11832926D02*
X6140178Y-11842450D01*
X6216368Y-12042450D02*
X6225892Y-12032926D01*
X6225892Y-12032926D02*
X6244940Y-12004354D01*
X6244940Y-12004354D02*
X6254463Y-11985307D01*
X6254463Y-11985307D02*
X6263987Y-11956735D01*
X6263987Y-11956735D02*
X6273511Y-11909116D01*
X6273511Y-11909116D02*
X6273511Y-11871021D01*
X6273511Y-11871021D02*
X6263987Y-11823402D01*
X6263987Y-11823402D02*
X6254463Y-11794831D01*
X6254463Y-11794831D02*
X6244940Y-11775783D01*
X6244940Y-11775783D02*
X6225892Y-11747212D01*
X6225892Y-11747212D02*
X6216368Y-11737688D01*
D12*
X1250829Y-12138775D02*
G75*
G02*
X1230829Y-12138775I-10000J0D01*
G01*
X1230829Y-12138775D02*
G75*
G02*
X1250829Y-12138775I10000J0D01*
G01*
D11*
X1549701Y-12030259D02*
X1568749Y-12030259D01*
X1568749Y-12030259D02*
X1587796Y-12039783D01*
X1587796Y-12039783D02*
X1597320Y-12049307D01*
X1597320Y-12049307D02*
X1606844Y-12068354D01*
X1606844Y-12068354D02*
X1616368Y-12106450D01*
X1616368Y-12106450D02*
X1616368Y-12154069D01*
X1616368Y-12154069D02*
X1606844Y-12192164D01*
X1606844Y-12192164D02*
X1597320Y-12211212D01*
X1597320Y-12211212D02*
X1587796Y-12220735D01*
X1587796Y-12220735D02*
X1568749Y-12230259D01*
X1568749Y-12230259D02*
X1549701Y-12230259D01*
X1549701Y-12230259D02*
X1530653Y-12220735D01*
X1530653Y-12220735D02*
X1521130Y-12211212D01*
X1521130Y-12211212D02*
X1511606Y-12192164D01*
X1511606Y-12192164D02*
X1502082Y-12154069D01*
X1502082Y-12154069D02*
X1502082Y-12106450D01*
X1502082Y-12106450D02*
X1511606Y-12068354D01*
X1511606Y-12068354D02*
X1521130Y-12049307D01*
X1521130Y-12049307D02*
X1530653Y-12039783D01*
X1530653Y-12039783D02*
X1549701Y-12030259D01*
X1702082Y-12211212D02*
X1711606Y-12220735D01*
X1711606Y-12220735D02*
X1702082Y-12230259D01*
X1702082Y-12230259D02*
X1692558Y-12220735D01*
X1692558Y-12220735D02*
X1702082Y-12211212D01*
X1702082Y-12211212D02*
X1702082Y-12230259D01*
X1787796Y-12049307D02*
X1797320Y-12039783D01*
X1797320Y-12039783D02*
X1816368Y-12030259D01*
X1816368Y-12030259D02*
X1863987Y-12030259D01*
X1863987Y-12030259D02*
X1883034Y-12039783D01*
X1883034Y-12039783D02*
X1892558Y-12049307D01*
X1892558Y-12049307D02*
X1902082Y-12068354D01*
X1902082Y-12068354D02*
X1902082Y-12087402D01*
X1902082Y-12087402D02*
X1892558Y-12115973D01*
X1892558Y-12115973D02*
X1778273Y-12230259D01*
X1778273Y-12230259D02*
X1902082Y-12230259D01*
X2025892Y-12030259D02*
X2044939Y-12030259D01*
X2044939Y-12030259D02*
X2063987Y-12039783D01*
X2063987Y-12039783D02*
X2073511Y-12049307D01*
X2073511Y-12049307D02*
X2083034Y-12068354D01*
X2083034Y-12068354D02*
X2092558Y-12106450D01*
X2092558Y-12106450D02*
X2092558Y-12154069D01*
X2092558Y-12154069D02*
X2083034Y-12192164D01*
X2083034Y-12192164D02*
X2073511Y-12211212D01*
X2073511Y-12211212D02*
X2063987Y-12220735D01*
X2063987Y-12220735D02*
X2044939Y-12230259D01*
X2044939Y-12230259D02*
X2025892Y-12230259D01*
X2025892Y-12230259D02*
X2006844Y-12220735D01*
X2006844Y-12220735D02*
X1997320Y-12211212D01*
X1997320Y-12211212D02*
X1987796Y-12192164D01*
X1987796Y-12192164D02*
X1978273Y-12154069D01*
X1978273Y-12154069D02*
X1978273Y-12106450D01*
X1978273Y-12106450D02*
X1987796Y-12068354D01*
X1987796Y-12068354D02*
X1997320Y-12049307D01*
X1997320Y-12049307D02*
X2006844Y-12039783D01*
X2006844Y-12039783D02*
X2025892Y-12030259D01*
X2216368Y-12030259D02*
X2235416Y-12030259D01*
X2235416Y-12030259D02*
X2254463Y-12039783D01*
X2254463Y-12039783D02*
X2263987Y-12049307D01*
X2263987Y-12049307D02*
X2273511Y-12068354D01*
X2273511Y-12068354D02*
X2283035Y-12106450D01*
X2283035Y-12106450D02*
X2283035Y-12154069D01*
X2283035Y-12154069D02*
X2273511Y-12192164D01*
X2273511Y-12192164D02*
X2263987Y-12211212D01*
X2263987Y-12211212D02*
X2254463Y-12220735D01*
X2254463Y-12220735D02*
X2235416Y-12230259D01*
X2235416Y-12230259D02*
X2216368Y-12230259D01*
X2216368Y-12230259D02*
X2197320Y-12220735D01*
X2197320Y-12220735D02*
X2187796Y-12211212D01*
X2187796Y-12211212D02*
X2178273Y-12192164D01*
X2178273Y-12192164D02*
X2168749Y-12154069D01*
X2168749Y-12154069D02*
X2168749Y-12106450D01*
X2168749Y-12106450D02*
X2178273Y-12068354D01*
X2178273Y-12068354D02*
X2187796Y-12049307D01*
X2187796Y-12049307D02*
X2197320Y-12039783D01*
X2197320Y-12039783D02*
X2216368Y-12030259D01*
X2368749Y-12230259D02*
X2368749Y-12096926D01*
X2368749Y-12115973D02*
X2378273Y-12106450D01*
X2378273Y-12106450D02*
X2397320Y-12096926D01*
X2397320Y-12096926D02*
X2425892Y-12096926D01*
X2425892Y-12096926D02*
X2444939Y-12106450D01*
X2444939Y-12106450D02*
X2454463Y-12125497D01*
X2454463Y-12125497D02*
X2454463Y-12230259D01*
X2454463Y-12125497D02*
X2463987Y-12106450D01*
X2463987Y-12106450D02*
X2483035Y-12096926D01*
X2483035Y-12096926D02*
X2511606Y-12096926D01*
X2511606Y-12096926D02*
X2530654Y-12106450D01*
X2530654Y-12106450D02*
X2540177Y-12125497D01*
X2540177Y-12125497D02*
X2540177Y-12230259D01*
X2635416Y-12230259D02*
X2635416Y-12096926D01*
X2635416Y-12115973D02*
X2644939Y-12106450D01*
X2644939Y-12106450D02*
X2663987Y-12096926D01*
X2663987Y-12096926D02*
X2692558Y-12096926D01*
X2692558Y-12096926D02*
X2711606Y-12106450D01*
X2711606Y-12106450D02*
X2721130Y-12125497D01*
X2721130Y-12125497D02*
X2721130Y-12230259D01*
X2721130Y-12125497D02*
X2730654Y-12106450D01*
X2730654Y-12106450D02*
X2749701Y-12096926D01*
X2749701Y-12096926D02*
X2778273Y-12096926D01*
X2778273Y-12096926D02*
X2797320Y-12106450D01*
X2797320Y-12106450D02*
X2806844Y-12125497D01*
X2806844Y-12125497D02*
X2806844Y-12230259D01*
X3197320Y-12020735D02*
X3025892Y-12277878D01*
X3454463Y-12030259D02*
X3473511Y-12030259D01*
X3473511Y-12030259D02*
X3492558Y-12039783D01*
X3492558Y-12039783D02*
X3502082Y-12049307D01*
X3502082Y-12049307D02*
X3511606Y-12068354D01*
X3511606Y-12068354D02*
X3521130Y-12106450D01*
X3521130Y-12106450D02*
X3521130Y-12154069D01*
X3521130Y-12154069D02*
X3511606Y-12192164D01*
X3511606Y-12192164D02*
X3502082Y-12211212D01*
X3502082Y-12211212D02*
X3492558Y-12220735D01*
X3492558Y-12220735D02*
X3473511Y-12230259D01*
X3473511Y-12230259D02*
X3454463Y-12230259D01*
X3454463Y-12230259D02*
X3435416Y-12220735D01*
X3435416Y-12220735D02*
X3425892Y-12211212D01*
X3425892Y-12211212D02*
X3416368Y-12192164D01*
X3416368Y-12192164D02*
X3406844Y-12154069D01*
X3406844Y-12154069D02*
X3406844Y-12106450D01*
X3406844Y-12106450D02*
X3416368Y-12068354D01*
X3416368Y-12068354D02*
X3425892Y-12049307D01*
X3425892Y-12049307D02*
X3435416Y-12039783D01*
X3435416Y-12039783D02*
X3454463Y-12030259D01*
X3606844Y-12211212D02*
X3616368Y-12220735D01*
X3616368Y-12220735D02*
X3606844Y-12230259D01*
X3606844Y-12230259D02*
X3597320Y-12220735D01*
X3597320Y-12220735D02*
X3606844Y-12211212D01*
X3606844Y-12211212D02*
X3606844Y-12230259D01*
X3740177Y-12030259D02*
X3759225Y-12030259D01*
X3759225Y-12030259D02*
X3778273Y-12039783D01*
X3778273Y-12039783D02*
X3787797Y-12049307D01*
X3787797Y-12049307D02*
X3797320Y-12068354D01*
X3797320Y-12068354D02*
X3806844Y-12106450D01*
X3806844Y-12106450D02*
X3806844Y-12154069D01*
X3806844Y-12154069D02*
X3797320Y-12192164D01*
X3797320Y-12192164D02*
X3787797Y-12211212D01*
X3787797Y-12211212D02*
X3778273Y-12220735D01*
X3778273Y-12220735D02*
X3759225Y-12230259D01*
X3759225Y-12230259D02*
X3740177Y-12230259D01*
X3740177Y-12230259D02*
X3721130Y-12220735D01*
X3721130Y-12220735D02*
X3711606Y-12211212D01*
X3711606Y-12211212D02*
X3702082Y-12192164D01*
X3702082Y-12192164D02*
X3692558Y-12154069D01*
X3692558Y-12154069D02*
X3692558Y-12106450D01*
X3692558Y-12106450D02*
X3702082Y-12068354D01*
X3702082Y-12068354D02*
X3711606Y-12049307D01*
X3711606Y-12049307D02*
X3721130Y-12039783D01*
X3721130Y-12039783D02*
X3740177Y-12030259D01*
X3930654Y-12030259D02*
X3949701Y-12030259D01*
X3949701Y-12030259D02*
X3968749Y-12039783D01*
X3968749Y-12039783D02*
X3978273Y-12049307D01*
X3978273Y-12049307D02*
X3987797Y-12068354D01*
X3987797Y-12068354D02*
X3997320Y-12106450D01*
X3997320Y-12106450D02*
X3997320Y-12154069D01*
X3997320Y-12154069D02*
X3987797Y-12192164D01*
X3987797Y-12192164D02*
X3978273Y-12211212D01*
X3978273Y-12211212D02*
X3968749Y-12220735D01*
X3968749Y-12220735D02*
X3949701Y-12230259D01*
X3949701Y-12230259D02*
X3930654Y-12230259D01*
X3930654Y-12230259D02*
X3911606Y-12220735D01*
X3911606Y-12220735D02*
X3902082Y-12211212D01*
X3902082Y-12211212D02*
X3892558Y-12192164D01*
X3892558Y-12192164D02*
X3883035Y-12154069D01*
X3883035Y-12154069D02*
X3883035Y-12106450D01*
X3883035Y-12106450D02*
X3892558Y-12068354D01*
X3892558Y-12068354D02*
X3902082Y-12049307D01*
X3902082Y-12049307D02*
X3911606Y-12039783D01*
X3911606Y-12039783D02*
X3930654Y-12030259D01*
X4063987Y-12030259D02*
X4197320Y-12030259D01*
X4197320Y-12030259D02*
X4111606Y-12230259D01*
X4283035Y-12230259D02*
X4321130Y-12230259D01*
X4321130Y-12230259D02*
X4340178Y-12220735D01*
X4340178Y-12220735D02*
X4349701Y-12211212D01*
X4349701Y-12211212D02*
X4368749Y-12182640D01*
X4368749Y-12182640D02*
X4378273Y-12144545D01*
X4378273Y-12144545D02*
X4378273Y-12068354D01*
X4378273Y-12068354D02*
X4368749Y-12049307D01*
X4368749Y-12049307D02*
X4359225Y-12039783D01*
X4359225Y-12039783D02*
X4340178Y-12030259D01*
X4340178Y-12030259D02*
X4302082Y-12030259D01*
X4302082Y-12030259D02*
X4283035Y-12039783D01*
X4283035Y-12039783D02*
X4273511Y-12049307D01*
X4273511Y-12049307D02*
X4263987Y-12068354D01*
X4263987Y-12068354D02*
X4263987Y-12115973D01*
X4263987Y-12115973D02*
X4273511Y-12135021D01*
X4273511Y-12135021D02*
X4283035Y-12144545D01*
X4283035Y-12144545D02*
X4302082Y-12154069D01*
X4302082Y-12154069D02*
X4340178Y-12154069D01*
X4340178Y-12154069D02*
X4359225Y-12144545D01*
X4359225Y-12144545D02*
X4368749Y-12135021D01*
X4368749Y-12135021D02*
X4378273Y-12115973D01*
X4454463Y-12030259D02*
X4454463Y-12068354D01*
X4530654Y-12030259D02*
X4530654Y-12068354D01*
X4825892Y-12306450D02*
X4816368Y-12296926D01*
X4816368Y-12296926D02*
X4797321Y-12268354D01*
X4797321Y-12268354D02*
X4787797Y-12249307D01*
X4787797Y-12249307D02*
X4778273Y-12220735D01*
X4778273Y-12220735D02*
X4768749Y-12173116D01*
X4768749Y-12173116D02*
X4768749Y-12135021D01*
X4768749Y-12135021D02*
X4778273Y-12087402D01*
X4778273Y-12087402D02*
X4787797Y-12058831D01*
X4787797Y-12058831D02*
X4797321Y-12039783D01*
X4797321Y-12039783D02*
X4816368Y-12011212D01*
X4816368Y-12011212D02*
X4825892Y-12001688D01*
X5006844Y-12230259D02*
X4892559Y-12230259D01*
X4949701Y-12230259D02*
X4949701Y-12030259D01*
X4949701Y-12030259D02*
X4930654Y-12058831D01*
X4930654Y-12058831D02*
X4911606Y-12077878D01*
X4911606Y-12077878D02*
X4892559Y-12087402D01*
X5083035Y-12049307D02*
X5092559Y-12039783D01*
X5092559Y-12039783D02*
X5111606Y-12030259D01*
X5111606Y-12030259D02*
X5159225Y-12030259D01*
X5159225Y-12030259D02*
X5178273Y-12039783D01*
X5178273Y-12039783D02*
X5187797Y-12049307D01*
X5187797Y-12049307D02*
X5197321Y-12068354D01*
X5197321Y-12068354D02*
X5197321Y-12087402D01*
X5197321Y-12087402D02*
X5187797Y-12115973D01*
X5187797Y-12115973D02*
X5073511Y-12230259D01*
X5073511Y-12230259D02*
X5197321Y-12230259D01*
X5435416Y-12230259D02*
X5435416Y-12030259D01*
X5521130Y-12230259D02*
X5521130Y-12125497D01*
X5521130Y-12125497D02*
X5511606Y-12106450D01*
X5511606Y-12106450D02*
X5492559Y-12096926D01*
X5492559Y-12096926D02*
X5463987Y-12096926D01*
X5463987Y-12096926D02*
X5444940Y-12106450D01*
X5444940Y-12106450D02*
X5435416Y-12115973D01*
X5644940Y-12230259D02*
X5625892Y-12220735D01*
X5625892Y-12220735D02*
X5616368Y-12211212D01*
X5616368Y-12211212D02*
X5606844Y-12192164D01*
X5606844Y-12192164D02*
X5606844Y-12135021D01*
X5606844Y-12135021D02*
X5616368Y-12115973D01*
X5616368Y-12115973D02*
X5625892Y-12106450D01*
X5625892Y-12106450D02*
X5644940Y-12096926D01*
X5644940Y-12096926D02*
X5673511Y-12096926D01*
X5673511Y-12096926D02*
X5692559Y-12106450D01*
X5692559Y-12106450D02*
X5702082Y-12115973D01*
X5702082Y-12115973D02*
X5711606Y-12135021D01*
X5711606Y-12135021D02*
X5711606Y-12192164D01*
X5711606Y-12192164D02*
X5702082Y-12211212D01*
X5702082Y-12211212D02*
X5692559Y-12220735D01*
X5692559Y-12220735D02*
X5673511Y-12230259D01*
X5673511Y-12230259D02*
X5644940Y-12230259D01*
X5825892Y-12230259D02*
X5806844Y-12220735D01*
X5806844Y-12220735D02*
X5797321Y-12201688D01*
X5797321Y-12201688D02*
X5797321Y-12030259D01*
X5978273Y-12220735D02*
X5959225Y-12230259D01*
X5959225Y-12230259D02*
X5921130Y-12230259D01*
X5921130Y-12230259D02*
X5902082Y-12220735D01*
X5902082Y-12220735D02*
X5892559Y-12201688D01*
X5892559Y-12201688D02*
X5892559Y-12125497D01*
X5892559Y-12125497D02*
X5902082Y-12106450D01*
X5902082Y-12106450D02*
X5921130Y-12096926D01*
X5921130Y-12096926D02*
X5959225Y-12096926D01*
X5959225Y-12096926D02*
X5978273Y-12106450D01*
X5978273Y-12106450D02*
X5987797Y-12125497D01*
X5987797Y-12125497D02*
X5987797Y-12144545D01*
X5987797Y-12144545D02*
X5892559Y-12163593D01*
X6063987Y-12220735D02*
X6083035Y-12230259D01*
X6083035Y-12230259D02*
X6121130Y-12230259D01*
X6121130Y-12230259D02*
X6140178Y-12220735D01*
X6140178Y-12220735D02*
X6149702Y-12201688D01*
X6149702Y-12201688D02*
X6149702Y-12192164D01*
X6149702Y-12192164D02*
X6140178Y-12173116D01*
X6140178Y-12173116D02*
X6121130Y-12163593D01*
X6121130Y-12163593D02*
X6092559Y-12163593D01*
X6092559Y-12163593D02*
X6073511Y-12154069D01*
X6073511Y-12154069D02*
X6063987Y-12135021D01*
X6063987Y-12135021D02*
X6063987Y-12125497D01*
X6063987Y-12125497D02*
X6073511Y-12106450D01*
X6073511Y-12106450D02*
X6092559Y-12096926D01*
X6092559Y-12096926D02*
X6121130Y-12096926D01*
X6121130Y-12096926D02*
X6140178Y-12106450D01*
X6216368Y-12306450D02*
X6225892Y-12296926D01*
X6225892Y-12296926D02*
X6244940Y-12268354D01*
X6244940Y-12268354D02*
X6254463Y-12249307D01*
X6254463Y-12249307D02*
X6263987Y-12220735D01*
X6263987Y-12220735D02*
X6273511Y-12173116D01*
X6273511Y-12173116D02*
X6273511Y-12135021D01*
X6273511Y-12135021D02*
X6263987Y-12087402D01*
X6263987Y-12087402D02*
X6254463Y-12058831D01*
X6254463Y-12058831D02*
X6244940Y-12039783D01*
X6244940Y-12039783D02*
X6225892Y-12011212D01*
X6225892Y-12011212D02*
X6216368Y-12001688D01*
D12*
X1235829Y-12387775D02*
X1235829Y-12417775D01*
X1220829Y-12402775D02*
X1250829Y-12402775D01*
D11*
X1549701Y-12294259D02*
X1568749Y-12294259D01*
X1568749Y-12294259D02*
X1587796Y-12303783D01*
X1587796Y-12303783D02*
X1597320Y-12313307D01*
X1597320Y-12313307D02*
X1606844Y-12332354D01*
X1606844Y-12332354D02*
X1616368Y-12370450D01*
X1616368Y-12370450D02*
X1616368Y-12418069D01*
X1616368Y-12418069D02*
X1606844Y-12456164D01*
X1606844Y-12456164D02*
X1597320Y-12475212D01*
X1597320Y-12475212D02*
X1587796Y-12484735D01*
X1587796Y-12484735D02*
X1568749Y-12494259D01*
X1568749Y-12494259D02*
X1549701Y-12494259D01*
X1549701Y-12494259D02*
X1530653Y-12484735D01*
X1530653Y-12484735D02*
X1521130Y-12475212D01*
X1521130Y-12475212D02*
X1511606Y-12456164D01*
X1511606Y-12456164D02*
X1502082Y-12418069D01*
X1502082Y-12418069D02*
X1502082Y-12370450D01*
X1502082Y-12370450D02*
X1511606Y-12332354D01*
X1511606Y-12332354D02*
X1521130Y-12313307D01*
X1521130Y-12313307D02*
X1530653Y-12303783D01*
X1530653Y-12303783D02*
X1549701Y-12294259D01*
X1702082Y-12475212D02*
X1711606Y-12484735D01*
X1711606Y-12484735D02*
X1702082Y-12494259D01*
X1702082Y-12494259D02*
X1692558Y-12484735D01*
X1692558Y-12484735D02*
X1702082Y-12475212D01*
X1702082Y-12475212D02*
X1702082Y-12494259D01*
X1778273Y-12294259D02*
X1902082Y-12294259D01*
X1902082Y-12294259D02*
X1835415Y-12370450D01*
X1835415Y-12370450D02*
X1863987Y-12370450D01*
X1863987Y-12370450D02*
X1883034Y-12379973D01*
X1883034Y-12379973D02*
X1892558Y-12389497D01*
X1892558Y-12389497D02*
X1902082Y-12408545D01*
X1902082Y-12408545D02*
X1902082Y-12456164D01*
X1902082Y-12456164D02*
X1892558Y-12475212D01*
X1892558Y-12475212D02*
X1883034Y-12484735D01*
X1883034Y-12484735D02*
X1863987Y-12494259D01*
X1863987Y-12494259D02*
X1806844Y-12494259D01*
X1806844Y-12494259D02*
X1787796Y-12484735D01*
X1787796Y-12484735D02*
X1778273Y-12475212D01*
X2025892Y-12294259D02*
X2044939Y-12294259D01*
X2044939Y-12294259D02*
X2063987Y-12303783D01*
X2063987Y-12303783D02*
X2073511Y-12313307D01*
X2073511Y-12313307D02*
X2083034Y-12332354D01*
X2083034Y-12332354D02*
X2092558Y-12370450D01*
X2092558Y-12370450D02*
X2092558Y-12418069D01*
X2092558Y-12418069D02*
X2083034Y-12456164D01*
X2083034Y-12456164D02*
X2073511Y-12475212D01*
X2073511Y-12475212D02*
X2063987Y-12484735D01*
X2063987Y-12484735D02*
X2044939Y-12494259D01*
X2044939Y-12494259D02*
X2025892Y-12494259D01*
X2025892Y-12494259D02*
X2006844Y-12484735D01*
X2006844Y-12484735D02*
X1997320Y-12475212D01*
X1997320Y-12475212D02*
X1987796Y-12456164D01*
X1987796Y-12456164D02*
X1978273Y-12418069D01*
X1978273Y-12418069D02*
X1978273Y-12370450D01*
X1978273Y-12370450D02*
X1987796Y-12332354D01*
X1987796Y-12332354D02*
X1997320Y-12313307D01*
X1997320Y-12313307D02*
X2006844Y-12303783D01*
X2006844Y-12303783D02*
X2025892Y-12294259D01*
X2216368Y-12294259D02*
X2235416Y-12294259D01*
X2235416Y-12294259D02*
X2254463Y-12303783D01*
X2254463Y-12303783D02*
X2263987Y-12313307D01*
X2263987Y-12313307D02*
X2273511Y-12332354D01*
X2273511Y-12332354D02*
X2283035Y-12370450D01*
X2283035Y-12370450D02*
X2283035Y-12418069D01*
X2283035Y-12418069D02*
X2273511Y-12456164D01*
X2273511Y-12456164D02*
X2263987Y-12475212D01*
X2263987Y-12475212D02*
X2254463Y-12484735D01*
X2254463Y-12484735D02*
X2235416Y-12494259D01*
X2235416Y-12494259D02*
X2216368Y-12494259D01*
X2216368Y-12494259D02*
X2197320Y-12484735D01*
X2197320Y-12484735D02*
X2187796Y-12475212D01*
X2187796Y-12475212D02*
X2178273Y-12456164D01*
X2178273Y-12456164D02*
X2168749Y-12418069D01*
X2168749Y-12418069D02*
X2168749Y-12370450D01*
X2168749Y-12370450D02*
X2178273Y-12332354D01*
X2178273Y-12332354D02*
X2187796Y-12313307D01*
X2187796Y-12313307D02*
X2197320Y-12303783D01*
X2197320Y-12303783D02*
X2216368Y-12294259D01*
X2368749Y-12494259D02*
X2368749Y-12360926D01*
X2368749Y-12379973D02*
X2378273Y-12370450D01*
X2378273Y-12370450D02*
X2397320Y-12360926D01*
X2397320Y-12360926D02*
X2425892Y-12360926D01*
X2425892Y-12360926D02*
X2444939Y-12370450D01*
X2444939Y-12370450D02*
X2454463Y-12389497D01*
X2454463Y-12389497D02*
X2454463Y-12494259D01*
X2454463Y-12389497D02*
X2463987Y-12370450D01*
X2463987Y-12370450D02*
X2483035Y-12360926D01*
X2483035Y-12360926D02*
X2511606Y-12360926D01*
X2511606Y-12360926D02*
X2530654Y-12370450D01*
X2530654Y-12370450D02*
X2540177Y-12389497D01*
X2540177Y-12389497D02*
X2540177Y-12494259D01*
X2635416Y-12494259D02*
X2635416Y-12360926D01*
X2635416Y-12379973D02*
X2644939Y-12370450D01*
X2644939Y-12370450D02*
X2663987Y-12360926D01*
X2663987Y-12360926D02*
X2692558Y-12360926D01*
X2692558Y-12360926D02*
X2711606Y-12370450D01*
X2711606Y-12370450D02*
X2721130Y-12389497D01*
X2721130Y-12389497D02*
X2721130Y-12494259D01*
X2721130Y-12389497D02*
X2730654Y-12370450D01*
X2730654Y-12370450D02*
X2749701Y-12360926D01*
X2749701Y-12360926D02*
X2778273Y-12360926D01*
X2778273Y-12360926D02*
X2797320Y-12370450D01*
X2797320Y-12370450D02*
X2806844Y-12389497D01*
X2806844Y-12389497D02*
X2806844Y-12494259D01*
X3197320Y-12284735D02*
X3025892Y-12541878D01*
X3454463Y-12294259D02*
X3473511Y-12294259D01*
X3473511Y-12294259D02*
X3492558Y-12303783D01*
X3492558Y-12303783D02*
X3502082Y-12313307D01*
X3502082Y-12313307D02*
X3511606Y-12332354D01*
X3511606Y-12332354D02*
X3521130Y-12370450D01*
X3521130Y-12370450D02*
X3521130Y-12418069D01*
X3521130Y-12418069D02*
X3511606Y-12456164D01*
X3511606Y-12456164D02*
X3502082Y-12475212D01*
X3502082Y-12475212D02*
X3492558Y-12484735D01*
X3492558Y-12484735D02*
X3473511Y-12494259D01*
X3473511Y-12494259D02*
X3454463Y-12494259D01*
X3454463Y-12494259D02*
X3435416Y-12484735D01*
X3435416Y-12484735D02*
X3425892Y-12475212D01*
X3425892Y-12475212D02*
X3416368Y-12456164D01*
X3416368Y-12456164D02*
X3406844Y-12418069D01*
X3406844Y-12418069D02*
X3406844Y-12370450D01*
X3406844Y-12370450D02*
X3416368Y-12332354D01*
X3416368Y-12332354D02*
X3425892Y-12313307D01*
X3425892Y-12313307D02*
X3435416Y-12303783D01*
X3435416Y-12303783D02*
X3454463Y-12294259D01*
X3606844Y-12475212D02*
X3616368Y-12484735D01*
X3616368Y-12484735D02*
X3606844Y-12494259D01*
X3606844Y-12494259D02*
X3597320Y-12484735D01*
X3597320Y-12484735D02*
X3606844Y-12475212D01*
X3606844Y-12475212D02*
X3606844Y-12494259D01*
X3740177Y-12294259D02*
X3759225Y-12294259D01*
X3759225Y-12294259D02*
X3778273Y-12303783D01*
X3778273Y-12303783D02*
X3787797Y-12313307D01*
X3787797Y-12313307D02*
X3797320Y-12332354D01*
X3797320Y-12332354D02*
X3806844Y-12370450D01*
X3806844Y-12370450D02*
X3806844Y-12418069D01*
X3806844Y-12418069D02*
X3797320Y-12456164D01*
X3797320Y-12456164D02*
X3787797Y-12475212D01*
X3787797Y-12475212D02*
X3778273Y-12484735D01*
X3778273Y-12484735D02*
X3759225Y-12494259D01*
X3759225Y-12494259D02*
X3740177Y-12494259D01*
X3740177Y-12494259D02*
X3721130Y-12484735D01*
X3721130Y-12484735D02*
X3711606Y-12475212D01*
X3711606Y-12475212D02*
X3702082Y-12456164D01*
X3702082Y-12456164D02*
X3692558Y-12418069D01*
X3692558Y-12418069D02*
X3692558Y-12370450D01*
X3692558Y-12370450D02*
X3702082Y-12332354D01*
X3702082Y-12332354D02*
X3711606Y-12313307D01*
X3711606Y-12313307D02*
X3721130Y-12303783D01*
X3721130Y-12303783D02*
X3740177Y-12294259D01*
X3997320Y-12494259D02*
X3883035Y-12494259D01*
X3940177Y-12494259D02*
X3940177Y-12294259D01*
X3940177Y-12294259D02*
X3921130Y-12322831D01*
X3921130Y-12322831D02*
X3902082Y-12341878D01*
X3902082Y-12341878D02*
X3883035Y-12351402D01*
X4187797Y-12494259D02*
X4073511Y-12494259D01*
X4130654Y-12494259D02*
X4130654Y-12294259D01*
X4130654Y-12294259D02*
X4111606Y-12322831D01*
X4111606Y-12322831D02*
X4092558Y-12341878D01*
X4092558Y-12341878D02*
X4073511Y-12351402D01*
X4302082Y-12379973D02*
X4283035Y-12370450D01*
X4283035Y-12370450D02*
X4273511Y-12360926D01*
X4273511Y-12360926D02*
X4263987Y-12341878D01*
X4263987Y-12341878D02*
X4263987Y-12332354D01*
X4263987Y-12332354D02*
X4273511Y-12313307D01*
X4273511Y-12313307D02*
X4283035Y-12303783D01*
X4283035Y-12303783D02*
X4302082Y-12294259D01*
X4302082Y-12294259D02*
X4340178Y-12294259D01*
X4340178Y-12294259D02*
X4359225Y-12303783D01*
X4359225Y-12303783D02*
X4368749Y-12313307D01*
X4368749Y-12313307D02*
X4378273Y-12332354D01*
X4378273Y-12332354D02*
X4378273Y-12341878D01*
X4378273Y-12341878D02*
X4368749Y-12360926D01*
X4368749Y-12360926D02*
X4359225Y-12370450D01*
X4359225Y-12370450D02*
X4340178Y-12379973D01*
X4340178Y-12379973D02*
X4302082Y-12379973D01*
X4302082Y-12379973D02*
X4283035Y-12389497D01*
X4283035Y-12389497D02*
X4273511Y-12399021D01*
X4273511Y-12399021D02*
X4263987Y-12418069D01*
X4263987Y-12418069D02*
X4263987Y-12456164D01*
X4263987Y-12456164D02*
X4273511Y-12475212D01*
X4273511Y-12475212D02*
X4283035Y-12484735D01*
X4283035Y-12484735D02*
X4302082Y-12494259D01*
X4302082Y-12494259D02*
X4340178Y-12494259D01*
X4340178Y-12494259D02*
X4359225Y-12484735D01*
X4359225Y-12484735D02*
X4368749Y-12475212D01*
X4368749Y-12475212D02*
X4378273Y-12456164D01*
X4378273Y-12456164D02*
X4378273Y-12418069D01*
X4378273Y-12418069D02*
X4368749Y-12399021D01*
X4368749Y-12399021D02*
X4359225Y-12389497D01*
X4359225Y-12389497D02*
X4340178Y-12379973D01*
X4454463Y-12294259D02*
X4454463Y-12332354D01*
X4530654Y-12294259D02*
X4530654Y-12332354D01*
X4825892Y-12570450D02*
X4816368Y-12560926D01*
X4816368Y-12560926D02*
X4797321Y-12532354D01*
X4797321Y-12532354D02*
X4787797Y-12513307D01*
X4787797Y-12513307D02*
X4778273Y-12484735D01*
X4778273Y-12484735D02*
X4768749Y-12437116D01*
X4768749Y-12437116D02*
X4768749Y-12399021D01*
X4768749Y-12399021D02*
X4778273Y-12351402D01*
X4778273Y-12351402D02*
X4787797Y-12322831D01*
X4787797Y-12322831D02*
X4797321Y-12303783D01*
X4797321Y-12303783D02*
X4816368Y-12275212D01*
X4816368Y-12275212D02*
X4825892Y-12265688D01*
X5006844Y-12494259D02*
X4892559Y-12494259D01*
X4949701Y-12494259D02*
X4949701Y-12294259D01*
X4949701Y-12294259D02*
X4930654Y-12322831D01*
X4930654Y-12322831D02*
X4911606Y-12341878D01*
X4911606Y-12341878D02*
X4892559Y-12351402D01*
X5197321Y-12494259D02*
X5083035Y-12494259D01*
X5140178Y-12494259D02*
X5140178Y-12294259D01*
X5140178Y-12294259D02*
X5121130Y-12322831D01*
X5121130Y-12322831D02*
X5102082Y-12341878D01*
X5102082Y-12341878D02*
X5083035Y-12351402D01*
X5435416Y-12494259D02*
X5435416Y-12294259D01*
X5521130Y-12494259D02*
X5521130Y-12389497D01*
X5521130Y-12389497D02*
X5511606Y-12370450D01*
X5511606Y-12370450D02*
X5492559Y-12360926D01*
X5492559Y-12360926D02*
X5463987Y-12360926D01*
X5463987Y-12360926D02*
X5444940Y-12370450D01*
X5444940Y-12370450D02*
X5435416Y-12379973D01*
X5644940Y-12494259D02*
X5625892Y-12484735D01*
X5625892Y-12484735D02*
X5616368Y-12475212D01*
X5616368Y-12475212D02*
X5606844Y-12456164D01*
X5606844Y-12456164D02*
X5606844Y-12399021D01*
X5606844Y-12399021D02*
X5616368Y-12379973D01*
X5616368Y-12379973D02*
X5625892Y-12370450D01*
X5625892Y-12370450D02*
X5644940Y-12360926D01*
X5644940Y-12360926D02*
X5673511Y-12360926D01*
X5673511Y-12360926D02*
X5692559Y-12370450D01*
X5692559Y-12370450D02*
X5702082Y-12379973D01*
X5702082Y-12379973D02*
X5711606Y-12399021D01*
X5711606Y-12399021D02*
X5711606Y-12456164D01*
X5711606Y-12456164D02*
X5702082Y-12475212D01*
X5702082Y-12475212D02*
X5692559Y-12484735D01*
X5692559Y-12484735D02*
X5673511Y-12494259D01*
X5673511Y-12494259D02*
X5644940Y-12494259D01*
X5825892Y-12494259D02*
X5806844Y-12484735D01*
X5806844Y-12484735D02*
X5797321Y-12465688D01*
X5797321Y-12465688D02*
X5797321Y-12294259D01*
X5978273Y-12484735D02*
X5959225Y-12494259D01*
X5959225Y-12494259D02*
X5921130Y-12494259D01*
X5921130Y-12494259D02*
X5902082Y-12484735D01*
X5902082Y-12484735D02*
X5892559Y-12465688D01*
X5892559Y-12465688D02*
X5892559Y-12389497D01*
X5892559Y-12389497D02*
X5902082Y-12370450D01*
X5902082Y-12370450D02*
X5921130Y-12360926D01*
X5921130Y-12360926D02*
X5959225Y-12360926D01*
X5959225Y-12360926D02*
X5978273Y-12370450D01*
X5978273Y-12370450D02*
X5987797Y-12389497D01*
X5987797Y-12389497D02*
X5987797Y-12408545D01*
X5987797Y-12408545D02*
X5892559Y-12427593D01*
X6063987Y-12484735D02*
X6083035Y-12494259D01*
X6083035Y-12494259D02*
X6121130Y-12494259D01*
X6121130Y-12494259D02*
X6140178Y-12484735D01*
X6140178Y-12484735D02*
X6149702Y-12465688D01*
X6149702Y-12465688D02*
X6149702Y-12456164D01*
X6149702Y-12456164D02*
X6140178Y-12437116D01*
X6140178Y-12437116D02*
X6121130Y-12427593D01*
X6121130Y-12427593D02*
X6092559Y-12427593D01*
X6092559Y-12427593D02*
X6073511Y-12418069D01*
X6073511Y-12418069D02*
X6063987Y-12399021D01*
X6063987Y-12399021D02*
X6063987Y-12389497D01*
X6063987Y-12389497D02*
X6073511Y-12370450D01*
X6073511Y-12370450D02*
X6092559Y-12360926D01*
X6092559Y-12360926D02*
X6121130Y-12360926D01*
X6121130Y-12360926D02*
X6140178Y-12370450D01*
X6216368Y-12570450D02*
X6225892Y-12560926D01*
X6225892Y-12560926D02*
X6244940Y-12532354D01*
X6244940Y-12532354D02*
X6254463Y-12513307D01*
X6254463Y-12513307D02*
X6263987Y-12484735D01*
X6263987Y-12484735D02*
X6273511Y-12437116D01*
X6273511Y-12437116D02*
X6273511Y-12399021D01*
X6273511Y-12399021D02*
X6263987Y-12351402D01*
X6263987Y-12351402D02*
X6254463Y-12322831D01*
X6254463Y-12322831D02*
X6244940Y-12303783D01*
X6244940Y-12303783D02*
X6225892Y-12275212D01*
X6225892Y-12275212D02*
X6216368Y-12265688D01*
D12*
X1242043Y-12687989D02*
X1242043Y-12645562D01*
X1199616Y-12645562D01*
X1199616Y-12687989D01*
X1242043Y-12687989D01*
D11*
X1549701Y-12558259D02*
X1568749Y-12558259D01*
X1568749Y-12558259D02*
X1587796Y-12567783D01*
X1587796Y-12567783D02*
X1597320Y-12577307D01*
X1597320Y-12577307D02*
X1606844Y-12596354D01*
X1606844Y-12596354D02*
X1616368Y-12634450D01*
X1616368Y-12634450D02*
X1616368Y-12682069D01*
X1616368Y-12682069D02*
X1606844Y-12720164D01*
X1606844Y-12720164D02*
X1597320Y-12739212D01*
X1597320Y-12739212D02*
X1587796Y-12748735D01*
X1587796Y-12748735D02*
X1568749Y-12758259D01*
X1568749Y-12758259D02*
X1549701Y-12758259D01*
X1549701Y-12758259D02*
X1530653Y-12748735D01*
X1530653Y-12748735D02*
X1521130Y-12739212D01*
X1521130Y-12739212D02*
X1511606Y-12720164D01*
X1511606Y-12720164D02*
X1502082Y-12682069D01*
X1502082Y-12682069D02*
X1502082Y-12634450D01*
X1502082Y-12634450D02*
X1511606Y-12596354D01*
X1511606Y-12596354D02*
X1521130Y-12577307D01*
X1521130Y-12577307D02*
X1530653Y-12567783D01*
X1530653Y-12567783D02*
X1549701Y-12558259D01*
X1702082Y-12739212D02*
X1711606Y-12748735D01*
X1711606Y-12748735D02*
X1702082Y-12758259D01*
X1702082Y-12758259D02*
X1692558Y-12748735D01*
X1692558Y-12748735D02*
X1702082Y-12739212D01*
X1702082Y-12739212D02*
X1702082Y-12758259D01*
X1883034Y-12558259D02*
X1844939Y-12558259D01*
X1844939Y-12558259D02*
X1825892Y-12567783D01*
X1825892Y-12567783D02*
X1816368Y-12577307D01*
X1816368Y-12577307D02*
X1797320Y-12605878D01*
X1797320Y-12605878D02*
X1787796Y-12643973D01*
X1787796Y-12643973D02*
X1787796Y-12720164D01*
X1787796Y-12720164D02*
X1797320Y-12739212D01*
X1797320Y-12739212D02*
X1806844Y-12748735D01*
X1806844Y-12748735D02*
X1825892Y-12758259D01*
X1825892Y-12758259D02*
X1863987Y-12758259D01*
X1863987Y-12758259D02*
X1883034Y-12748735D01*
X1883034Y-12748735D02*
X1892558Y-12739212D01*
X1892558Y-12739212D02*
X1902082Y-12720164D01*
X1902082Y-12720164D02*
X1902082Y-12672545D01*
X1902082Y-12672545D02*
X1892558Y-12653497D01*
X1892558Y-12653497D02*
X1883034Y-12643973D01*
X1883034Y-12643973D02*
X1863987Y-12634450D01*
X1863987Y-12634450D02*
X1825892Y-12634450D01*
X1825892Y-12634450D02*
X1806844Y-12643973D01*
X1806844Y-12643973D02*
X1797320Y-12653497D01*
X1797320Y-12653497D02*
X1787796Y-12672545D01*
X2025892Y-12558259D02*
X2044939Y-12558259D01*
X2044939Y-12558259D02*
X2063987Y-12567783D01*
X2063987Y-12567783D02*
X2073511Y-12577307D01*
X2073511Y-12577307D02*
X2083034Y-12596354D01*
X2083034Y-12596354D02*
X2092558Y-12634450D01*
X2092558Y-12634450D02*
X2092558Y-12682069D01*
X2092558Y-12682069D02*
X2083034Y-12720164D01*
X2083034Y-12720164D02*
X2073511Y-12739212D01*
X2073511Y-12739212D02*
X2063987Y-12748735D01*
X2063987Y-12748735D02*
X2044939Y-12758259D01*
X2044939Y-12758259D02*
X2025892Y-12758259D01*
X2025892Y-12758259D02*
X2006844Y-12748735D01*
X2006844Y-12748735D02*
X1997320Y-12739212D01*
X1997320Y-12739212D02*
X1987796Y-12720164D01*
X1987796Y-12720164D02*
X1978273Y-12682069D01*
X1978273Y-12682069D02*
X1978273Y-12634450D01*
X1978273Y-12634450D02*
X1987796Y-12596354D01*
X1987796Y-12596354D02*
X1997320Y-12577307D01*
X1997320Y-12577307D02*
X2006844Y-12567783D01*
X2006844Y-12567783D02*
X2025892Y-12558259D01*
X2216368Y-12558259D02*
X2235416Y-12558259D01*
X2235416Y-12558259D02*
X2254463Y-12567783D01*
X2254463Y-12567783D02*
X2263987Y-12577307D01*
X2263987Y-12577307D02*
X2273511Y-12596354D01*
X2273511Y-12596354D02*
X2283035Y-12634450D01*
X2283035Y-12634450D02*
X2283035Y-12682069D01*
X2283035Y-12682069D02*
X2273511Y-12720164D01*
X2273511Y-12720164D02*
X2263987Y-12739212D01*
X2263987Y-12739212D02*
X2254463Y-12748735D01*
X2254463Y-12748735D02*
X2235416Y-12758259D01*
X2235416Y-12758259D02*
X2216368Y-12758259D01*
X2216368Y-12758259D02*
X2197320Y-12748735D01*
X2197320Y-12748735D02*
X2187796Y-12739212D01*
X2187796Y-12739212D02*
X2178273Y-12720164D01*
X2178273Y-12720164D02*
X2168749Y-12682069D01*
X2168749Y-12682069D02*
X2168749Y-12634450D01*
X2168749Y-12634450D02*
X2178273Y-12596354D01*
X2178273Y-12596354D02*
X2187796Y-12577307D01*
X2187796Y-12577307D02*
X2197320Y-12567783D01*
X2197320Y-12567783D02*
X2216368Y-12558259D01*
X2368749Y-12758259D02*
X2368749Y-12624926D01*
X2368749Y-12643973D02*
X2378273Y-12634450D01*
X2378273Y-12634450D02*
X2397320Y-12624926D01*
X2397320Y-12624926D02*
X2425892Y-12624926D01*
X2425892Y-12624926D02*
X2444939Y-12634450D01*
X2444939Y-12634450D02*
X2454463Y-12653497D01*
X2454463Y-12653497D02*
X2454463Y-12758259D01*
X2454463Y-12653497D02*
X2463987Y-12634450D01*
X2463987Y-12634450D02*
X2483035Y-12624926D01*
X2483035Y-12624926D02*
X2511606Y-12624926D01*
X2511606Y-12624926D02*
X2530654Y-12634450D01*
X2530654Y-12634450D02*
X2540177Y-12653497D01*
X2540177Y-12653497D02*
X2540177Y-12758259D01*
X2635416Y-12758259D02*
X2635416Y-12624926D01*
X2635416Y-12643973D02*
X2644939Y-12634450D01*
X2644939Y-12634450D02*
X2663987Y-12624926D01*
X2663987Y-12624926D02*
X2692558Y-12624926D01*
X2692558Y-12624926D02*
X2711606Y-12634450D01*
X2711606Y-12634450D02*
X2721130Y-12653497D01*
X2721130Y-12653497D02*
X2721130Y-12758259D01*
X2721130Y-12653497D02*
X2730654Y-12634450D01*
X2730654Y-12634450D02*
X2749701Y-12624926D01*
X2749701Y-12624926D02*
X2778273Y-12624926D01*
X2778273Y-12624926D02*
X2797320Y-12634450D01*
X2797320Y-12634450D02*
X2806844Y-12653497D01*
X2806844Y-12653497D02*
X2806844Y-12758259D01*
X3197320Y-12548735D02*
X3025892Y-12805878D01*
X3454463Y-12558259D02*
X3473511Y-12558259D01*
X3473511Y-12558259D02*
X3492558Y-12567783D01*
X3492558Y-12567783D02*
X3502082Y-12577307D01*
X3502082Y-12577307D02*
X3511606Y-12596354D01*
X3511606Y-12596354D02*
X3521130Y-12634450D01*
X3521130Y-12634450D02*
X3521130Y-12682069D01*
X3521130Y-12682069D02*
X3511606Y-12720164D01*
X3511606Y-12720164D02*
X3502082Y-12739212D01*
X3502082Y-12739212D02*
X3492558Y-12748735D01*
X3492558Y-12748735D02*
X3473511Y-12758259D01*
X3473511Y-12758259D02*
X3454463Y-12758259D01*
X3454463Y-12758259D02*
X3435416Y-12748735D01*
X3435416Y-12748735D02*
X3425892Y-12739212D01*
X3425892Y-12739212D02*
X3416368Y-12720164D01*
X3416368Y-12720164D02*
X3406844Y-12682069D01*
X3406844Y-12682069D02*
X3406844Y-12634450D01*
X3406844Y-12634450D02*
X3416368Y-12596354D01*
X3416368Y-12596354D02*
X3425892Y-12577307D01*
X3425892Y-12577307D02*
X3435416Y-12567783D01*
X3435416Y-12567783D02*
X3454463Y-12558259D01*
X3606844Y-12739212D02*
X3616368Y-12748735D01*
X3616368Y-12748735D02*
X3606844Y-12758259D01*
X3606844Y-12758259D02*
X3597320Y-12748735D01*
X3597320Y-12748735D02*
X3606844Y-12739212D01*
X3606844Y-12739212D02*
X3606844Y-12758259D01*
X3740177Y-12558259D02*
X3759225Y-12558259D01*
X3759225Y-12558259D02*
X3778273Y-12567783D01*
X3778273Y-12567783D02*
X3787797Y-12577307D01*
X3787797Y-12577307D02*
X3797320Y-12596354D01*
X3797320Y-12596354D02*
X3806844Y-12634450D01*
X3806844Y-12634450D02*
X3806844Y-12682069D01*
X3806844Y-12682069D02*
X3797320Y-12720164D01*
X3797320Y-12720164D02*
X3787797Y-12739212D01*
X3787797Y-12739212D02*
X3778273Y-12748735D01*
X3778273Y-12748735D02*
X3759225Y-12758259D01*
X3759225Y-12758259D02*
X3740177Y-12758259D01*
X3740177Y-12758259D02*
X3721130Y-12748735D01*
X3721130Y-12748735D02*
X3711606Y-12739212D01*
X3711606Y-12739212D02*
X3702082Y-12720164D01*
X3702082Y-12720164D02*
X3692558Y-12682069D01*
X3692558Y-12682069D02*
X3692558Y-12634450D01*
X3692558Y-12634450D02*
X3702082Y-12596354D01*
X3702082Y-12596354D02*
X3711606Y-12577307D01*
X3711606Y-12577307D02*
X3721130Y-12567783D01*
X3721130Y-12567783D02*
X3740177Y-12558259D01*
X3883035Y-12577307D02*
X3892558Y-12567783D01*
X3892558Y-12567783D02*
X3911606Y-12558259D01*
X3911606Y-12558259D02*
X3959225Y-12558259D01*
X3959225Y-12558259D02*
X3978273Y-12567783D01*
X3978273Y-12567783D02*
X3987797Y-12577307D01*
X3987797Y-12577307D02*
X3997320Y-12596354D01*
X3997320Y-12596354D02*
X3997320Y-12615402D01*
X3997320Y-12615402D02*
X3987797Y-12643973D01*
X3987797Y-12643973D02*
X3873511Y-12758259D01*
X3873511Y-12758259D02*
X3997320Y-12758259D01*
X4063987Y-12558259D02*
X4187797Y-12558259D01*
X4187797Y-12558259D02*
X4121130Y-12634450D01*
X4121130Y-12634450D02*
X4149701Y-12634450D01*
X4149701Y-12634450D02*
X4168749Y-12643973D01*
X4168749Y-12643973D02*
X4178273Y-12653497D01*
X4178273Y-12653497D02*
X4187797Y-12672545D01*
X4187797Y-12672545D02*
X4187797Y-12720164D01*
X4187797Y-12720164D02*
X4178273Y-12739212D01*
X4178273Y-12739212D02*
X4168749Y-12748735D01*
X4168749Y-12748735D02*
X4149701Y-12758259D01*
X4149701Y-12758259D02*
X4092558Y-12758259D01*
X4092558Y-12758259D02*
X4073511Y-12748735D01*
X4073511Y-12748735D02*
X4063987Y-12739212D01*
X4359225Y-12558259D02*
X4321130Y-12558259D01*
X4321130Y-12558259D02*
X4302082Y-12567783D01*
X4302082Y-12567783D02*
X4292559Y-12577307D01*
X4292559Y-12577307D02*
X4273511Y-12605878D01*
X4273511Y-12605878D02*
X4263987Y-12643973D01*
X4263987Y-12643973D02*
X4263987Y-12720164D01*
X4263987Y-12720164D02*
X4273511Y-12739212D01*
X4273511Y-12739212D02*
X4283035Y-12748735D01*
X4283035Y-12748735D02*
X4302082Y-12758259D01*
X4302082Y-12758259D02*
X4340178Y-12758259D01*
X4340178Y-12758259D02*
X4359225Y-12748735D01*
X4359225Y-12748735D02*
X4368749Y-12739212D01*
X4368749Y-12739212D02*
X4378273Y-12720164D01*
X4378273Y-12720164D02*
X4378273Y-12672545D01*
X4378273Y-12672545D02*
X4368749Y-12653497D01*
X4368749Y-12653497D02*
X4359225Y-12643973D01*
X4359225Y-12643973D02*
X4340178Y-12634450D01*
X4340178Y-12634450D02*
X4302082Y-12634450D01*
X4302082Y-12634450D02*
X4283035Y-12643973D01*
X4283035Y-12643973D02*
X4273511Y-12653497D01*
X4273511Y-12653497D02*
X4263987Y-12672545D01*
X4454463Y-12558259D02*
X4454463Y-12596354D01*
X4530654Y-12558259D02*
X4530654Y-12596354D01*
X4825892Y-12834450D02*
X4816368Y-12824926D01*
X4816368Y-12824926D02*
X4797321Y-12796354D01*
X4797321Y-12796354D02*
X4787797Y-12777307D01*
X4787797Y-12777307D02*
X4778273Y-12748735D01*
X4778273Y-12748735D02*
X4768749Y-12701116D01*
X4768749Y-12701116D02*
X4768749Y-12663021D01*
X4768749Y-12663021D02*
X4778273Y-12615402D01*
X4778273Y-12615402D02*
X4787797Y-12586831D01*
X4787797Y-12586831D02*
X4797321Y-12567783D01*
X4797321Y-12567783D02*
X4816368Y-12539212D01*
X4816368Y-12539212D02*
X4825892Y-12529688D01*
X4940178Y-12558259D02*
X4959225Y-12558259D01*
X4959225Y-12558259D02*
X4978273Y-12567783D01*
X4978273Y-12567783D02*
X4987797Y-12577307D01*
X4987797Y-12577307D02*
X4997321Y-12596354D01*
X4997321Y-12596354D02*
X5006844Y-12634450D01*
X5006844Y-12634450D02*
X5006844Y-12682069D01*
X5006844Y-12682069D02*
X4997321Y-12720164D01*
X4997321Y-12720164D02*
X4987797Y-12739212D01*
X4987797Y-12739212D02*
X4978273Y-12748735D01*
X4978273Y-12748735D02*
X4959225Y-12758259D01*
X4959225Y-12758259D02*
X4940178Y-12758259D01*
X4940178Y-12758259D02*
X4921130Y-12748735D01*
X4921130Y-12748735D02*
X4911606Y-12739212D01*
X4911606Y-12739212D02*
X4902082Y-12720164D01*
X4902082Y-12720164D02*
X4892559Y-12682069D01*
X4892559Y-12682069D02*
X4892559Y-12634450D01*
X4892559Y-12634450D02*
X4902082Y-12596354D01*
X4902082Y-12596354D02*
X4911606Y-12577307D01*
X4911606Y-12577307D02*
X4921130Y-12567783D01*
X4921130Y-12567783D02*
X4940178Y-12558259D01*
X5244940Y-12758259D02*
X5244940Y-12558259D01*
X5330654Y-12758259D02*
X5330654Y-12653497D01*
X5330654Y-12653497D02*
X5321130Y-12634450D01*
X5321130Y-12634450D02*
X5302083Y-12624926D01*
X5302083Y-12624926D02*
X5273511Y-12624926D01*
X5273511Y-12624926D02*
X5254463Y-12634450D01*
X5254463Y-12634450D02*
X5244940Y-12643973D01*
X5454463Y-12758259D02*
X5435416Y-12748735D01*
X5435416Y-12748735D02*
X5425892Y-12739212D01*
X5425892Y-12739212D02*
X5416368Y-12720164D01*
X5416368Y-12720164D02*
X5416368Y-12663021D01*
X5416368Y-12663021D02*
X5425892Y-12643973D01*
X5425892Y-12643973D02*
X5435416Y-12634450D01*
X5435416Y-12634450D02*
X5454463Y-12624926D01*
X5454463Y-12624926D02*
X5483035Y-12624926D01*
X5483035Y-12624926D02*
X5502083Y-12634450D01*
X5502083Y-12634450D02*
X5511606Y-12643973D01*
X5511606Y-12643973D02*
X5521130Y-12663021D01*
X5521130Y-12663021D02*
X5521130Y-12720164D01*
X5521130Y-12720164D02*
X5511606Y-12739212D01*
X5511606Y-12739212D02*
X5502083Y-12748735D01*
X5502083Y-12748735D02*
X5483035Y-12758259D01*
X5483035Y-12758259D02*
X5454463Y-12758259D01*
X5635416Y-12758259D02*
X5616368Y-12748735D01*
X5616368Y-12748735D02*
X5606844Y-12729688D01*
X5606844Y-12729688D02*
X5606844Y-12558259D01*
X5787797Y-12748735D02*
X5768749Y-12758259D01*
X5768749Y-12758259D02*
X5730654Y-12758259D01*
X5730654Y-12758259D02*
X5711606Y-12748735D01*
X5711606Y-12748735D02*
X5702082Y-12729688D01*
X5702082Y-12729688D02*
X5702082Y-12653497D01*
X5702082Y-12653497D02*
X5711606Y-12634450D01*
X5711606Y-12634450D02*
X5730654Y-12624926D01*
X5730654Y-12624926D02*
X5768749Y-12624926D01*
X5768749Y-12624926D02*
X5787797Y-12634450D01*
X5787797Y-12634450D02*
X5797321Y-12653497D01*
X5797321Y-12653497D02*
X5797321Y-12672545D01*
X5797321Y-12672545D02*
X5702082Y-12691593D01*
X5873511Y-12748735D02*
X5892559Y-12758259D01*
X5892559Y-12758259D02*
X5930654Y-12758259D01*
X5930654Y-12758259D02*
X5949702Y-12748735D01*
X5949702Y-12748735D02*
X5959225Y-12729688D01*
X5959225Y-12729688D02*
X5959225Y-12720164D01*
X5959225Y-12720164D02*
X5949702Y-12701116D01*
X5949702Y-12701116D02*
X5930654Y-12691593D01*
X5930654Y-12691593D02*
X5902082Y-12691593D01*
X5902082Y-12691593D02*
X5883035Y-12682069D01*
X5883035Y-12682069D02*
X5873511Y-12663021D01*
X5873511Y-12663021D02*
X5873511Y-12653497D01*
X5873511Y-12653497D02*
X5883035Y-12634450D01*
X5883035Y-12634450D02*
X5902082Y-12624926D01*
X5902082Y-12624926D02*
X5930654Y-12624926D01*
X5930654Y-12624926D02*
X5949702Y-12634450D01*
X6197321Y-12682069D02*
X6349702Y-12682069D01*
X6273511Y-12758259D02*
X6273511Y-12605878D01*
X6683035Y-12624926D02*
X6683035Y-12758259D01*
X6635416Y-12548735D02*
X6587797Y-12691593D01*
X6587797Y-12691593D02*
X6711606Y-12691593D01*
X6930654Y-12748735D02*
X6949702Y-12758259D01*
X6949702Y-12758259D02*
X6987797Y-12758259D01*
X6987797Y-12758259D02*
X7006845Y-12748735D01*
X7006845Y-12748735D02*
X7016368Y-12729688D01*
X7016368Y-12729688D02*
X7016368Y-12720164D01*
X7016368Y-12720164D02*
X7006845Y-12701116D01*
X7006845Y-12701116D02*
X6987797Y-12691593D01*
X6987797Y-12691593D02*
X6959225Y-12691593D01*
X6959225Y-12691593D02*
X6940178Y-12682069D01*
X6940178Y-12682069D02*
X6930654Y-12663021D01*
X6930654Y-12663021D02*
X6930654Y-12653497D01*
X6930654Y-12653497D02*
X6940178Y-12634450D01*
X6940178Y-12634450D02*
X6959225Y-12624926D01*
X6959225Y-12624926D02*
X6987797Y-12624926D01*
X6987797Y-12624926D02*
X7006845Y-12634450D01*
X7130654Y-12758259D02*
X7111606Y-12748735D01*
X7111606Y-12748735D02*
X7102083Y-12729688D01*
X7102083Y-12729688D02*
X7102083Y-12558259D01*
X7235416Y-12758259D02*
X7216368Y-12748735D01*
X7216368Y-12748735D02*
X7206845Y-12739212D01*
X7206845Y-12739212D02*
X7197321Y-12720164D01*
X7197321Y-12720164D02*
X7197321Y-12663021D01*
X7197321Y-12663021D02*
X7206845Y-12643973D01*
X7206845Y-12643973D02*
X7216368Y-12634450D01*
X7216368Y-12634450D02*
X7235416Y-12624926D01*
X7235416Y-12624926D02*
X7263987Y-12624926D01*
X7263987Y-12624926D02*
X7283035Y-12634450D01*
X7283035Y-12634450D02*
X7292559Y-12643973D01*
X7292559Y-12643973D02*
X7302083Y-12663021D01*
X7302083Y-12663021D02*
X7302083Y-12720164D01*
X7302083Y-12720164D02*
X7292559Y-12739212D01*
X7292559Y-12739212D02*
X7283035Y-12748735D01*
X7283035Y-12748735D02*
X7263987Y-12758259D01*
X7263987Y-12758259D02*
X7235416Y-12758259D01*
X7359226Y-12624926D02*
X7435416Y-12624926D01*
X7387797Y-12558259D02*
X7387797Y-12729688D01*
X7387797Y-12729688D02*
X7397321Y-12748735D01*
X7397321Y-12748735D02*
X7416368Y-12758259D01*
X7416368Y-12758259D02*
X7435416Y-12758259D01*
X7492559Y-12748735D02*
X7511606Y-12758259D01*
X7511606Y-12758259D02*
X7549702Y-12758259D01*
X7549702Y-12758259D02*
X7568749Y-12748735D01*
X7568749Y-12748735D02*
X7578273Y-12729688D01*
X7578273Y-12729688D02*
X7578273Y-12720164D01*
X7578273Y-12720164D02*
X7568749Y-12701116D01*
X7568749Y-12701116D02*
X7549702Y-12691593D01*
X7549702Y-12691593D02*
X7521130Y-12691593D01*
X7521130Y-12691593D02*
X7502083Y-12682069D01*
X7502083Y-12682069D02*
X7492559Y-12663021D01*
X7492559Y-12663021D02*
X7492559Y-12653497D01*
X7492559Y-12653497D02*
X7502083Y-12634450D01*
X7502083Y-12634450D02*
X7521130Y-12624926D01*
X7521130Y-12624926D02*
X7549702Y-12624926D01*
X7549702Y-12624926D02*
X7568749Y-12634450D01*
X7644940Y-12834450D02*
X7654464Y-12824926D01*
X7654464Y-12824926D02*
X7673511Y-12796354D01*
X7673511Y-12796354D02*
X7683035Y-12777307D01*
X7683035Y-12777307D02*
X7692559Y-12748735D01*
X7692559Y-12748735D02*
X7702083Y-12701116D01*
X7702083Y-12701116D02*
X7702083Y-12663021D01*
X7702083Y-12663021D02*
X7692559Y-12615402D01*
X7692559Y-12615402D02*
X7683035Y-12586831D01*
X7683035Y-12586831D02*
X7673511Y-12567783D01*
X7673511Y-12567783D02*
X7654464Y-12539212D01*
X7654464Y-12539212D02*
X7644940Y-12529688D01*
D12*
X1214329Y-12967275D02*
X1250829Y-12930775D01*
X1214329Y-12894275D01*
X1177829Y-12930775D01*
X1214329Y-12967275D01*
D11*
X1549701Y-12822259D02*
X1568749Y-12822259D01*
X1568749Y-12822259D02*
X1587796Y-12831783D01*
X1587796Y-12831783D02*
X1597320Y-12841307D01*
X1597320Y-12841307D02*
X1606844Y-12860354D01*
X1606844Y-12860354D02*
X1616368Y-12898450D01*
X1616368Y-12898450D02*
X1616368Y-12946069D01*
X1616368Y-12946069D02*
X1606844Y-12984164D01*
X1606844Y-12984164D02*
X1597320Y-13003212D01*
X1597320Y-13003212D02*
X1587796Y-13012735D01*
X1587796Y-13012735D02*
X1568749Y-13022259D01*
X1568749Y-13022259D02*
X1549701Y-13022259D01*
X1549701Y-13022259D02*
X1530653Y-13012735D01*
X1530653Y-13012735D02*
X1521130Y-13003212D01*
X1521130Y-13003212D02*
X1511606Y-12984164D01*
X1511606Y-12984164D02*
X1502082Y-12946069D01*
X1502082Y-12946069D02*
X1502082Y-12898450D01*
X1502082Y-12898450D02*
X1511606Y-12860354D01*
X1511606Y-12860354D02*
X1521130Y-12841307D01*
X1521130Y-12841307D02*
X1530653Y-12831783D01*
X1530653Y-12831783D02*
X1549701Y-12822259D01*
X1702082Y-13003212D02*
X1711606Y-13012735D01*
X1711606Y-13012735D02*
X1702082Y-13022259D01*
X1702082Y-13022259D02*
X1692558Y-13012735D01*
X1692558Y-13012735D02*
X1702082Y-13003212D01*
X1702082Y-13003212D02*
X1702082Y-13022259D01*
X1778273Y-12822259D02*
X1911606Y-12822259D01*
X1911606Y-12822259D02*
X1825892Y-13022259D01*
X1968749Y-12822259D02*
X2092558Y-12822259D01*
X2092558Y-12822259D02*
X2025892Y-12898450D01*
X2025892Y-12898450D02*
X2054463Y-12898450D01*
X2054463Y-12898450D02*
X2073511Y-12907973D01*
X2073511Y-12907973D02*
X2083034Y-12917497D01*
X2083034Y-12917497D02*
X2092558Y-12936545D01*
X2092558Y-12936545D02*
X2092558Y-12984164D01*
X2092558Y-12984164D02*
X2083034Y-13003212D01*
X2083034Y-13003212D02*
X2073511Y-13012735D01*
X2073511Y-13012735D02*
X2054463Y-13022259D01*
X2054463Y-13022259D02*
X1997320Y-13022259D01*
X1997320Y-13022259D02*
X1978273Y-13012735D01*
X1978273Y-13012735D02*
X1968749Y-13003212D01*
X2216368Y-12822259D02*
X2235416Y-12822259D01*
X2235416Y-12822259D02*
X2254463Y-12831783D01*
X2254463Y-12831783D02*
X2263987Y-12841307D01*
X2263987Y-12841307D02*
X2273511Y-12860354D01*
X2273511Y-12860354D02*
X2283035Y-12898450D01*
X2283035Y-12898450D02*
X2283035Y-12946069D01*
X2283035Y-12946069D02*
X2273511Y-12984164D01*
X2273511Y-12984164D02*
X2263987Y-13003212D01*
X2263987Y-13003212D02*
X2254463Y-13012735D01*
X2254463Y-13012735D02*
X2235416Y-13022259D01*
X2235416Y-13022259D02*
X2216368Y-13022259D01*
X2216368Y-13022259D02*
X2197320Y-13012735D01*
X2197320Y-13012735D02*
X2187796Y-13003212D01*
X2187796Y-13003212D02*
X2178273Y-12984164D01*
X2178273Y-12984164D02*
X2168749Y-12946069D01*
X2168749Y-12946069D02*
X2168749Y-12898450D01*
X2168749Y-12898450D02*
X2178273Y-12860354D01*
X2178273Y-12860354D02*
X2187796Y-12841307D01*
X2187796Y-12841307D02*
X2197320Y-12831783D01*
X2197320Y-12831783D02*
X2216368Y-12822259D01*
X2368749Y-13022259D02*
X2368749Y-12888926D01*
X2368749Y-12907973D02*
X2378273Y-12898450D01*
X2378273Y-12898450D02*
X2397320Y-12888926D01*
X2397320Y-12888926D02*
X2425892Y-12888926D01*
X2425892Y-12888926D02*
X2444939Y-12898450D01*
X2444939Y-12898450D02*
X2454463Y-12917497D01*
X2454463Y-12917497D02*
X2454463Y-13022259D01*
X2454463Y-12917497D02*
X2463987Y-12898450D01*
X2463987Y-12898450D02*
X2483035Y-12888926D01*
X2483035Y-12888926D02*
X2511606Y-12888926D01*
X2511606Y-12888926D02*
X2530654Y-12898450D01*
X2530654Y-12898450D02*
X2540177Y-12917497D01*
X2540177Y-12917497D02*
X2540177Y-13022259D01*
X2635416Y-13022259D02*
X2635416Y-12888926D01*
X2635416Y-12907973D02*
X2644939Y-12898450D01*
X2644939Y-12898450D02*
X2663987Y-12888926D01*
X2663987Y-12888926D02*
X2692558Y-12888926D01*
X2692558Y-12888926D02*
X2711606Y-12898450D01*
X2711606Y-12898450D02*
X2721130Y-12917497D01*
X2721130Y-12917497D02*
X2721130Y-13022259D01*
X2721130Y-12917497D02*
X2730654Y-12898450D01*
X2730654Y-12898450D02*
X2749701Y-12888926D01*
X2749701Y-12888926D02*
X2778273Y-12888926D01*
X2778273Y-12888926D02*
X2797320Y-12898450D01*
X2797320Y-12898450D02*
X2806844Y-12917497D01*
X2806844Y-12917497D02*
X2806844Y-13022259D01*
X3197320Y-12812735D02*
X3025892Y-13069878D01*
X3454463Y-12822259D02*
X3473511Y-12822259D01*
X3473511Y-12822259D02*
X3492558Y-12831783D01*
X3492558Y-12831783D02*
X3502082Y-12841307D01*
X3502082Y-12841307D02*
X3511606Y-12860354D01*
X3511606Y-12860354D02*
X3521130Y-12898450D01*
X3521130Y-12898450D02*
X3521130Y-12946069D01*
X3521130Y-12946069D02*
X3511606Y-12984164D01*
X3511606Y-12984164D02*
X3502082Y-13003212D01*
X3502082Y-13003212D02*
X3492558Y-13012735D01*
X3492558Y-13012735D02*
X3473511Y-13022259D01*
X3473511Y-13022259D02*
X3454463Y-13022259D01*
X3454463Y-13022259D02*
X3435416Y-13012735D01*
X3435416Y-13012735D02*
X3425892Y-13003212D01*
X3425892Y-13003212D02*
X3416368Y-12984164D01*
X3416368Y-12984164D02*
X3406844Y-12946069D01*
X3406844Y-12946069D02*
X3406844Y-12898450D01*
X3406844Y-12898450D02*
X3416368Y-12860354D01*
X3416368Y-12860354D02*
X3425892Y-12841307D01*
X3425892Y-12841307D02*
X3435416Y-12831783D01*
X3435416Y-12831783D02*
X3454463Y-12822259D01*
X3606844Y-13003212D02*
X3616368Y-13012735D01*
X3616368Y-13012735D02*
X3606844Y-13022259D01*
X3606844Y-13022259D02*
X3597320Y-13012735D01*
X3597320Y-13012735D02*
X3606844Y-13003212D01*
X3606844Y-13003212D02*
X3606844Y-13022259D01*
X3740177Y-12822259D02*
X3759225Y-12822259D01*
X3759225Y-12822259D02*
X3778273Y-12831783D01*
X3778273Y-12831783D02*
X3787797Y-12841307D01*
X3787797Y-12841307D02*
X3797320Y-12860354D01*
X3797320Y-12860354D02*
X3806844Y-12898450D01*
X3806844Y-12898450D02*
X3806844Y-12946069D01*
X3806844Y-12946069D02*
X3797320Y-12984164D01*
X3797320Y-12984164D02*
X3787797Y-13003212D01*
X3787797Y-13003212D02*
X3778273Y-13012735D01*
X3778273Y-13012735D02*
X3759225Y-13022259D01*
X3759225Y-13022259D02*
X3740177Y-13022259D01*
X3740177Y-13022259D02*
X3721130Y-13012735D01*
X3721130Y-13012735D02*
X3711606Y-13003212D01*
X3711606Y-13003212D02*
X3702082Y-12984164D01*
X3702082Y-12984164D02*
X3692558Y-12946069D01*
X3692558Y-12946069D02*
X3692558Y-12898450D01*
X3692558Y-12898450D02*
X3702082Y-12860354D01*
X3702082Y-12860354D02*
X3711606Y-12841307D01*
X3711606Y-12841307D02*
X3721130Y-12831783D01*
X3721130Y-12831783D02*
X3740177Y-12822259D01*
X3883035Y-12841307D02*
X3892558Y-12831783D01*
X3892558Y-12831783D02*
X3911606Y-12822259D01*
X3911606Y-12822259D02*
X3959225Y-12822259D01*
X3959225Y-12822259D02*
X3978273Y-12831783D01*
X3978273Y-12831783D02*
X3987797Y-12841307D01*
X3987797Y-12841307D02*
X3997320Y-12860354D01*
X3997320Y-12860354D02*
X3997320Y-12879402D01*
X3997320Y-12879402D02*
X3987797Y-12907973D01*
X3987797Y-12907973D02*
X3873511Y-13022259D01*
X3873511Y-13022259D02*
X3997320Y-13022259D01*
X4111606Y-12907973D02*
X4092558Y-12898450D01*
X4092558Y-12898450D02*
X4083035Y-12888926D01*
X4083035Y-12888926D02*
X4073511Y-12869878D01*
X4073511Y-12869878D02*
X4073511Y-12860354D01*
X4073511Y-12860354D02*
X4083035Y-12841307D01*
X4083035Y-12841307D02*
X4092558Y-12831783D01*
X4092558Y-12831783D02*
X4111606Y-12822259D01*
X4111606Y-12822259D02*
X4149701Y-12822259D01*
X4149701Y-12822259D02*
X4168749Y-12831783D01*
X4168749Y-12831783D02*
X4178273Y-12841307D01*
X4178273Y-12841307D02*
X4187797Y-12860354D01*
X4187797Y-12860354D02*
X4187797Y-12869878D01*
X4187797Y-12869878D02*
X4178273Y-12888926D01*
X4178273Y-12888926D02*
X4168749Y-12898450D01*
X4168749Y-12898450D02*
X4149701Y-12907973D01*
X4149701Y-12907973D02*
X4111606Y-12907973D01*
X4111606Y-12907973D02*
X4092558Y-12917497D01*
X4092558Y-12917497D02*
X4083035Y-12927021D01*
X4083035Y-12927021D02*
X4073511Y-12946069D01*
X4073511Y-12946069D02*
X4073511Y-12984164D01*
X4073511Y-12984164D02*
X4083035Y-13003212D01*
X4083035Y-13003212D02*
X4092558Y-13012735D01*
X4092558Y-13012735D02*
X4111606Y-13022259D01*
X4111606Y-13022259D02*
X4149701Y-13022259D01*
X4149701Y-13022259D02*
X4168749Y-13012735D01*
X4168749Y-13012735D02*
X4178273Y-13003212D01*
X4178273Y-13003212D02*
X4187797Y-12984164D01*
X4187797Y-12984164D02*
X4187797Y-12946069D01*
X4187797Y-12946069D02*
X4178273Y-12927021D01*
X4178273Y-12927021D02*
X4168749Y-12917497D01*
X4168749Y-12917497D02*
X4149701Y-12907973D01*
X4254463Y-12822259D02*
X4387797Y-12822259D01*
X4387797Y-12822259D02*
X4302082Y-13022259D01*
X4454463Y-12822259D02*
X4454463Y-12860354D01*
X4530654Y-12822259D02*
X4530654Y-12860354D01*
X4825892Y-13098450D02*
X4816368Y-13088926D01*
X4816368Y-13088926D02*
X4797321Y-13060354D01*
X4797321Y-13060354D02*
X4787797Y-13041307D01*
X4787797Y-13041307D02*
X4778273Y-13012735D01*
X4778273Y-13012735D02*
X4768749Y-12965116D01*
X4768749Y-12965116D02*
X4768749Y-12927021D01*
X4768749Y-12927021D02*
X4778273Y-12879402D01*
X4778273Y-12879402D02*
X4787797Y-12850831D01*
X4787797Y-12850831D02*
X4797321Y-12831783D01*
X4797321Y-12831783D02*
X4816368Y-12803212D01*
X4816368Y-12803212D02*
X4825892Y-12793688D01*
X4892559Y-12841307D02*
X4902082Y-12831783D01*
X4902082Y-12831783D02*
X4921130Y-12822259D01*
X4921130Y-12822259D02*
X4968749Y-12822259D01*
X4968749Y-12822259D02*
X4987797Y-12831783D01*
X4987797Y-12831783D02*
X4997321Y-12841307D01*
X4997321Y-12841307D02*
X5006844Y-12860354D01*
X5006844Y-12860354D02*
X5006844Y-12879402D01*
X5006844Y-12879402D02*
X4997321Y-12907973D01*
X4997321Y-12907973D02*
X4883035Y-13022259D01*
X4883035Y-13022259D02*
X5006844Y-13022259D01*
X5244940Y-13022259D02*
X5244940Y-12822259D01*
X5330654Y-13022259D02*
X5330654Y-12917497D01*
X5330654Y-12917497D02*
X5321130Y-12898450D01*
X5321130Y-12898450D02*
X5302083Y-12888926D01*
X5302083Y-12888926D02*
X5273511Y-12888926D01*
X5273511Y-12888926D02*
X5254463Y-12898450D01*
X5254463Y-12898450D02*
X5244940Y-12907973D01*
X5454463Y-13022259D02*
X5435416Y-13012735D01*
X5435416Y-13012735D02*
X5425892Y-13003212D01*
X5425892Y-13003212D02*
X5416368Y-12984164D01*
X5416368Y-12984164D02*
X5416368Y-12927021D01*
X5416368Y-12927021D02*
X5425892Y-12907973D01*
X5425892Y-12907973D02*
X5435416Y-12898450D01*
X5435416Y-12898450D02*
X5454463Y-12888926D01*
X5454463Y-12888926D02*
X5483035Y-12888926D01*
X5483035Y-12888926D02*
X5502083Y-12898450D01*
X5502083Y-12898450D02*
X5511606Y-12907973D01*
X5511606Y-12907973D02*
X5521130Y-12927021D01*
X5521130Y-12927021D02*
X5521130Y-12984164D01*
X5521130Y-12984164D02*
X5511606Y-13003212D01*
X5511606Y-13003212D02*
X5502083Y-13012735D01*
X5502083Y-13012735D02*
X5483035Y-13022259D01*
X5483035Y-13022259D02*
X5454463Y-13022259D01*
X5635416Y-13022259D02*
X5616368Y-13012735D01*
X5616368Y-13012735D02*
X5606844Y-12993688D01*
X5606844Y-12993688D02*
X5606844Y-12822259D01*
X5787797Y-13012735D02*
X5768749Y-13022259D01*
X5768749Y-13022259D02*
X5730654Y-13022259D01*
X5730654Y-13022259D02*
X5711606Y-13012735D01*
X5711606Y-13012735D02*
X5702082Y-12993688D01*
X5702082Y-12993688D02*
X5702082Y-12917497D01*
X5702082Y-12917497D02*
X5711606Y-12898450D01*
X5711606Y-12898450D02*
X5730654Y-12888926D01*
X5730654Y-12888926D02*
X5768749Y-12888926D01*
X5768749Y-12888926D02*
X5787797Y-12898450D01*
X5787797Y-12898450D02*
X5797321Y-12917497D01*
X5797321Y-12917497D02*
X5797321Y-12936545D01*
X5797321Y-12936545D02*
X5702082Y-12955593D01*
X5873511Y-13012735D02*
X5892559Y-13022259D01*
X5892559Y-13022259D02*
X5930654Y-13022259D01*
X5930654Y-13022259D02*
X5949702Y-13012735D01*
X5949702Y-13012735D02*
X5959225Y-12993688D01*
X5959225Y-12993688D02*
X5959225Y-12984164D01*
X5959225Y-12984164D02*
X5949702Y-12965116D01*
X5949702Y-12965116D02*
X5930654Y-12955593D01*
X5930654Y-12955593D02*
X5902082Y-12955593D01*
X5902082Y-12955593D02*
X5883035Y-12946069D01*
X5883035Y-12946069D02*
X5873511Y-12927021D01*
X5873511Y-12927021D02*
X5873511Y-12917497D01*
X5873511Y-12917497D02*
X5883035Y-12898450D01*
X5883035Y-12898450D02*
X5902082Y-12888926D01*
X5902082Y-12888926D02*
X5930654Y-12888926D01*
X5930654Y-12888926D02*
X5949702Y-12898450D01*
X6025892Y-13098450D02*
X6035416Y-13088926D01*
X6035416Y-13088926D02*
X6054463Y-13060354D01*
X6054463Y-13060354D02*
X6063987Y-13041307D01*
X6063987Y-13041307D02*
X6073511Y-13012735D01*
X6073511Y-13012735D02*
X6083035Y-12965116D01*
X6083035Y-12965116D02*
X6083035Y-12927021D01*
X6083035Y-12927021D02*
X6073511Y-12879402D01*
X6073511Y-12879402D02*
X6063987Y-12850831D01*
X6063987Y-12850831D02*
X6054463Y-12831783D01*
X6054463Y-12831783D02*
X6035416Y-12803212D01*
X6035416Y-12803212D02*
X6025892Y-12793688D01*
D12*
X1155829Y-13147275D02*
X1250829Y-13242275D01*
X1250829Y-13147275D02*
X1155829Y-13242275D01*
X1250829Y-13194775D02*
G75*
G02*
X1155829Y-13194775I-47500J0D01*
G01*
X1155829Y-13194775D02*
G75*
G02*
X1250829Y-13194775I47500J0D01*
G01*
D11*
X1549701Y-13086259D02*
X1568749Y-13086259D01*
X1568749Y-13086259D02*
X1587796Y-13095783D01*
X1587796Y-13095783D02*
X1597320Y-13105307D01*
X1597320Y-13105307D02*
X1606844Y-13124354D01*
X1606844Y-13124354D02*
X1616368Y-13162450D01*
X1616368Y-13162450D02*
X1616368Y-13210069D01*
X1616368Y-13210069D02*
X1606844Y-13248164D01*
X1606844Y-13248164D02*
X1597320Y-13267212D01*
X1597320Y-13267212D02*
X1587796Y-13276735D01*
X1587796Y-13276735D02*
X1568749Y-13286259D01*
X1568749Y-13286259D02*
X1549701Y-13286259D01*
X1549701Y-13286259D02*
X1530653Y-13276735D01*
X1530653Y-13276735D02*
X1521130Y-13267212D01*
X1521130Y-13267212D02*
X1511606Y-13248164D01*
X1511606Y-13248164D02*
X1502082Y-13210069D01*
X1502082Y-13210069D02*
X1502082Y-13162450D01*
X1502082Y-13162450D02*
X1511606Y-13124354D01*
X1511606Y-13124354D02*
X1521130Y-13105307D01*
X1521130Y-13105307D02*
X1530653Y-13095783D01*
X1530653Y-13095783D02*
X1549701Y-13086259D01*
X1702082Y-13267212D02*
X1711606Y-13276735D01*
X1711606Y-13276735D02*
X1702082Y-13286259D01*
X1702082Y-13286259D02*
X1692558Y-13276735D01*
X1692558Y-13276735D02*
X1702082Y-13267212D01*
X1702082Y-13267212D02*
X1702082Y-13286259D01*
X1806844Y-13286259D02*
X1844939Y-13286259D01*
X1844939Y-13286259D02*
X1863987Y-13276735D01*
X1863987Y-13276735D02*
X1873511Y-13267212D01*
X1873511Y-13267212D02*
X1892558Y-13238640D01*
X1892558Y-13238640D02*
X1902082Y-13200545D01*
X1902082Y-13200545D02*
X1902082Y-13124354D01*
X1902082Y-13124354D02*
X1892558Y-13105307D01*
X1892558Y-13105307D02*
X1883034Y-13095783D01*
X1883034Y-13095783D02*
X1863987Y-13086259D01*
X1863987Y-13086259D02*
X1825892Y-13086259D01*
X1825892Y-13086259D02*
X1806844Y-13095783D01*
X1806844Y-13095783D02*
X1797320Y-13105307D01*
X1797320Y-13105307D02*
X1787796Y-13124354D01*
X1787796Y-13124354D02*
X1787796Y-13171973D01*
X1787796Y-13171973D02*
X1797320Y-13191021D01*
X1797320Y-13191021D02*
X1806844Y-13200545D01*
X1806844Y-13200545D02*
X1825892Y-13210069D01*
X1825892Y-13210069D02*
X1863987Y-13210069D01*
X1863987Y-13210069D02*
X1883034Y-13200545D01*
X1883034Y-13200545D02*
X1892558Y-13191021D01*
X1892558Y-13191021D02*
X1902082Y-13171973D01*
X2083034Y-13086259D02*
X1987796Y-13086259D01*
X1987796Y-13086259D02*
X1978273Y-13181497D01*
X1978273Y-13181497D02*
X1987796Y-13171973D01*
X1987796Y-13171973D02*
X2006844Y-13162450D01*
X2006844Y-13162450D02*
X2054463Y-13162450D01*
X2054463Y-13162450D02*
X2073511Y-13171973D01*
X2073511Y-13171973D02*
X2083034Y-13181497D01*
X2083034Y-13181497D02*
X2092558Y-13200545D01*
X2092558Y-13200545D02*
X2092558Y-13248164D01*
X2092558Y-13248164D02*
X2083034Y-13267212D01*
X2083034Y-13267212D02*
X2073511Y-13276735D01*
X2073511Y-13276735D02*
X2054463Y-13286259D01*
X2054463Y-13286259D02*
X2006844Y-13286259D01*
X2006844Y-13286259D02*
X1987796Y-13276735D01*
X1987796Y-13276735D02*
X1978273Y-13267212D01*
X2216368Y-13086259D02*
X2235416Y-13086259D01*
X2235416Y-13086259D02*
X2254463Y-13095783D01*
X2254463Y-13095783D02*
X2263987Y-13105307D01*
X2263987Y-13105307D02*
X2273511Y-13124354D01*
X2273511Y-13124354D02*
X2283035Y-13162450D01*
X2283035Y-13162450D02*
X2283035Y-13210069D01*
X2283035Y-13210069D02*
X2273511Y-13248164D01*
X2273511Y-13248164D02*
X2263987Y-13267212D01*
X2263987Y-13267212D02*
X2254463Y-13276735D01*
X2254463Y-13276735D02*
X2235416Y-13286259D01*
X2235416Y-13286259D02*
X2216368Y-13286259D01*
X2216368Y-13286259D02*
X2197320Y-13276735D01*
X2197320Y-13276735D02*
X2187796Y-13267212D01*
X2187796Y-13267212D02*
X2178273Y-13248164D01*
X2178273Y-13248164D02*
X2168749Y-13210069D01*
X2168749Y-13210069D02*
X2168749Y-13162450D01*
X2168749Y-13162450D02*
X2178273Y-13124354D01*
X2178273Y-13124354D02*
X2187796Y-13105307D01*
X2187796Y-13105307D02*
X2197320Y-13095783D01*
X2197320Y-13095783D02*
X2216368Y-13086259D01*
X2368749Y-13286259D02*
X2368749Y-13152926D01*
X2368749Y-13171973D02*
X2378273Y-13162450D01*
X2378273Y-13162450D02*
X2397320Y-13152926D01*
X2397320Y-13152926D02*
X2425892Y-13152926D01*
X2425892Y-13152926D02*
X2444939Y-13162450D01*
X2444939Y-13162450D02*
X2454463Y-13181497D01*
X2454463Y-13181497D02*
X2454463Y-13286259D01*
X2454463Y-13181497D02*
X2463987Y-13162450D01*
X2463987Y-13162450D02*
X2483035Y-13152926D01*
X2483035Y-13152926D02*
X2511606Y-13152926D01*
X2511606Y-13152926D02*
X2530654Y-13162450D01*
X2530654Y-13162450D02*
X2540177Y-13181497D01*
X2540177Y-13181497D02*
X2540177Y-13286259D01*
X2635416Y-13286259D02*
X2635416Y-13152926D01*
X2635416Y-13171973D02*
X2644939Y-13162450D01*
X2644939Y-13162450D02*
X2663987Y-13152926D01*
X2663987Y-13152926D02*
X2692558Y-13152926D01*
X2692558Y-13152926D02*
X2711606Y-13162450D01*
X2711606Y-13162450D02*
X2721130Y-13181497D01*
X2721130Y-13181497D02*
X2721130Y-13286259D01*
X2721130Y-13181497D02*
X2730654Y-13162450D01*
X2730654Y-13162450D02*
X2749701Y-13152926D01*
X2749701Y-13152926D02*
X2778273Y-13152926D01*
X2778273Y-13152926D02*
X2797320Y-13162450D01*
X2797320Y-13162450D02*
X2806844Y-13181497D01*
X2806844Y-13181497D02*
X2806844Y-13286259D01*
X3197320Y-13076735D02*
X3025892Y-13333878D01*
X3454463Y-13086259D02*
X3473511Y-13086259D01*
X3473511Y-13086259D02*
X3492558Y-13095783D01*
X3492558Y-13095783D02*
X3502082Y-13105307D01*
X3502082Y-13105307D02*
X3511606Y-13124354D01*
X3511606Y-13124354D02*
X3521130Y-13162450D01*
X3521130Y-13162450D02*
X3521130Y-13210069D01*
X3521130Y-13210069D02*
X3511606Y-13248164D01*
X3511606Y-13248164D02*
X3502082Y-13267212D01*
X3502082Y-13267212D02*
X3492558Y-13276735D01*
X3492558Y-13276735D02*
X3473511Y-13286259D01*
X3473511Y-13286259D02*
X3454463Y-13286259D01*
X3454463Y-13286259D02*
X3435416Y-13276735D01*
X3435416Y-13276735D02*
X3425892Y-13267212D01*
X3425892Y-13267212D02*
X3416368Y-13248164D01*
X3416368Y-13248164D02*
X3406844Y-13210069D01*
X3406844Y-13210069D02*
X3406844Y-13162450D01*
X3406844Y-13162450D02*
X3416368Y-13124354D01*
X3416368Y-13124354D02*
X3425892Y-13105307D01*
X3425892Y-13105307D02*
X3435416Y-13095783D01*
X3435416Y-13095783D02*
X3454463Y-13086259D01*
X3606844Y-13267212D02*
X3616368Y-13276735D01*
X3616368Y-13276735D02*
X3606844Y-13286259D01*
X3606844Y-13286259D02*
X3597320Y-13276735D01*
X3597320Y-13276735D02*
X3606844Y-13267212D01*
X3606844Y-13267212D02*
X3606844Y-13286259D01*
X3740177Y-13086259D02*
X3759225Y-13086259D01*
X3759225Y-13086259D02*
X3778273Y-13095783D01*
X3778273Y-13095783D02*
X3787797Y-13105307D01*
X3787797Y-13105307D02*
X3797320Y-13124354D01*
X3797320Y-13124354D02*
X3806844Y-13162450D01*
X3806844Y-13162450D02*
X3806844Y-13210069D01*
X3806844Y-13210069D02*
X3797320Y-13248164D01*
X3797320Y-13248164D02*
X3787797Y-13267212D01*
X3787797Y-13267212D02*
X3778273Y-13276735D01*
X3778273Y-13276735D02*
X3759225Y-13286259D01*
X3759225Y-13286259D02*
X3740177Y-13286259D01*
X3740177Y-13286259D02*
X3721130Y-13276735D01*
X3721130Y-13276735D02*
X3711606Y-13267212D01*
X3711606Y-13267212D02*
X3702082Y-13248164D01*
X3702082Y-13248164D02*
X3692558Y-13210069D01*
X3692558Y-13210069D02*
X3692558Y-13162450D01*
X3692558Y-13162450D02*
X3702082Y-13124354D01*
X3702082Y-13124354D02*
X3711606Y-13105307D01*
X3711606Y-13105307D02*
X3721130Y-13095783D01*
X3721130Y-13095783D02*
X3740177Y-13086259D01*
X3873511Y-13086259D02*
X3997320Y-13086259D01*
X3997320Y-13086259D02*
X3930654Y-13162450D01*
X3930654Y-13162450D02*
X3959225Y-13162450D01*
X3959225Y-13162450D02*
X3978273Y-13171973D01*
X3978273Y-13171973D02*
X3987797Y-13181497D01*
X3987797Y-13181497D02*
X3997320Y-13200545D01*
X3997320Y-13200545D02*
X3997320Y-13248164D01*
X3997320Y-13248164D02*
X3987797Y-13267212D01*
X3987797Y-13267212D02*
X3978273Y-13276735D01*
X3978273Y-13276735D02*
X3959225Y-13286259D01*
X3959225Y-13286259D02*
X3902082Y-13286259D01*
X3902082Y-13286259D02*
X3883035Y-13276735D01*
X3883035Y-13276735D02*
X3873511Y-13267212D01*
X4063987Y-13086259D02*
X4197320Y-13086259D01*
X4197320Y-13086259D02*
X4111606Y-13286259D01*
X4359225Y-13152926D02*
X4359225Y-13286259D01*
X4311606Y-13076735D02*
X4263987Y-13219593D01*
X4263987Y-13219593D02*
X4387797Y-13219593D01*
X4454463Y-13086259D02*
X4454463Y-13124354D01*
X4530654Y-13086259D02*
X4530654Y-13124354D01*
X4825892Y-13362450D02*
X4816368Y-13352926D01*
X4816368Y-13352926D02*
X4797321Y-13324354D01*
X4797321Y-13324354D02*
X4787797Y-13305307D01*
X4787797Y-13305307D02*
X4778273Y-13276735D01*
X4778273Y-13276735D02*
X4768749Y-13229116D01*
X4768749Y-13229116D02*
X4768749Y-13191021D01*
X4768749Y-13191021D02*
X4778273Y-13143402D01*
X4778273Y-13143402D02*
X4787797Y-13114831D01*
X4787797Y-13114831D02*
X4797321Y-13095783D01*
X4797321Y-13095783D02*
X4816368Y-13067212D01*
X4816368Y-13067212D02*
X4825892Y-13057688D01*
X5006844Y-13286259D02*
X4892559Y-13286259D01*
X4949701Y-13286259D02*
X4949701Y-13086259D01*
X4949701Y-13086259D02*
X4930654Y-13114831D01*
X4930654Y-13114831D02*
X4911606Y-13133878D01*
X4911606Y-13133878D02*
X4892559Y-13143402D01*
X5178273Y-13086259D02*
X5140178Y-13086259D01*
X5140178Y-13086259D02*
X5121130Y-13095783D01*
X5121130Y-13095783D02*
X5111606Y-13105307D01*
X5111606Y-13105307D02*
X5092559Y-13133878D01*
X5092559Y-13133878D02*
X5083035Y-13171973D01*
X5083035Y-13171973D02*
X5083035Y-13248164D01*
X5083035Y-13248164D02*
X5092559Y-13267212D01*
X5092559Y-13267212D02*
X5102082Y-13276735D01*
X5102082Y-13276735D02*
X5121130Y-13286259D01*
X5121130Y-13286259D02*
X5159225Y-13286259D01*
X5159225Y-13286259D02*
X5178273Y-13276735D01*
X5178273Y-13276735D02*
X5187797Y-13267212D01*
X5187797Y-13267212D02*
X5197321Y-13248164D01*
X5197321Y-13248164D02*
X5197321Y-13200545D01*
X5197321Y-13200545D02*
X5187797Y-13181497D01*
X5187797Y-13181497D02*
X5178273Y-13171973D01*
X5178273Y-13171973D02*
X5159225Y-13162450D01*
X5159225Y-13162450D02*
X5121130Y-13162450D01*
X5121130Y-13162450D02*
X5102082Y-13171973D01*
X5102082Y-13171973D02*
X5092559Y-13181497D01*
X5092559Y-13181497D02*
X5083035Y-13200545D01*
X5435416Y-13286259D02*
X5435416Y-13086259D01*
X5521130Y-13286259D02*
X5521130Y-13181497D01*
X5521130Y-13181497D02*
X5511606Y-13162450D01*
X5511606Y-13162450D02*
X5492559Y-13152926D01*
X5492559Y-13152926D02*
X5463987Y-13152926D01*
X5463987Y-13152926D02*
X5444940Y-13162450D01*
X5444940Y-13162450D02*
X5435416Y-13171973D01*
X5644940Y-13286259D02*
X5625892Y-13276735D01*
X5625892Y-13276735D02*
X5616368Y-13267212D01*
X5616368Y-13267212D02*
X5606844Y-13248164D01*
X5606844Y-13248164D02*
X5606844Y-13191021D01*
X5606844Y-13191021D02*
X5616368Y-13171973D01*
X5616368Y-13171973D02*
X5625892Y-13162450D01*
X5625892Y-13162450D02*
X5644940Y-13152926D01*
X5644940Y-13152926D02*
X5673511Y-13152926D01*
X5673511Y-13152926D02*
X5692559Y-13162450D01*
X5692559Y-13162450D02*
X5702082Y-13171973D01*
X5702082Y-13171973D02*
X5711606Y-13191021D01*
X5711606Y-13191021D02*
X5711606Y-13248164D01*
X5711606Y-13248164D02*
X5702082Y-13267212D01*
X5702082Y-13267212D02*
X5692559Y-13276735D01*
X5692559Y-13276735D02*
X5673511Y-13286259D01*
X5673511Y-13286259D02*
X5644940Y-13286259D01*
X5825892Y-13286259D02*
X5806844Y-13276735D01*
X5806844Y-13276735D02*
X5797321Y-13257688D01*
X5797321Y-13257688D02*
X5797321Y-13086259D01*
X5978273Y-13276735D02*
X5959225Y-13286259D01*
X5959225Y-13286259D02*
X5921130Y-13286259D01*
X5921130Y-13286259D02*
X5902082Y-13276735D01*
X5902082Y-13276735D02*
X5892559Y-13257688D01*
X5892559Y-13257688D02*
X5892559Y-13181497D01*
X5892559Y-13181497D02*
X5902082Y-13162450D01*
X5902082Y-13162450D02*
X5921130Y-13152926D01*
X5921130Y-13152926D02*
X5959225Y-13152926D01*
X5959225Y-13152926D02*
X5978273Y-13162450D01*
X5978273Y-13162450D02*
X5987797Y-13181497D01*
X5987797Y-13181497D02*
X5987797Y-13200545D01*
X5987797Y-13200545D02*
X5892559Y-13219593D01*
X6063987Y-13276735D02*
X6083035Y-13286259D01*
X6083035Y-13286259D02*
X6121130Y-13286259D01*
X6121130Y-13286259D02*
X6140178Y-13276735D01*
X6140178Y-13276735D02*
X6149702Y-13257688D01*
X6149702Y-13257688D02*
X6149702Y-13248164D01*
X6149702Y-13248164D02*
X6140178Y-13229116D01*
X6140178Y-13229116D02*
X6121130Y-13219593D01*
X6121130Y-13219593D02*
X6092559Y-13219593D01*
X6092559Y-13219593D02*
X6073511Y-13210069D01*
X6073511Y-13210069D02*
X6063987Y-13191021D01*
X6063987Y-13191021D02*
X6063987Y-13181497D01*
X6063987Y-13181497D02*
X6073511Y-13162450D01*
X6073511Y-13162450D02*
X6092559Y-13152926D01*
X6092559Y-13152926D02*
X6121130Y-13152926D01*
X6121130Y-13152926D02*
X6140178Y-13162450D01*
X6216368Y-13362450D02*
X6225892Y-13352926D01*
X6225892Y-13352926D02*
X6244940Y-13324354D01*
X6244940Y-13324354D02*
X6254463Y-13305307D01*
X6254463Y-13305307D02*
X6263987Y-13276735D01*
X6263987Y-13276735D02*
X6273511Y-13229116D01*
X6273511Y-13229116D02*
X6273511Y-13191021D01*
X6273511Y-13191021D02*
X6263987Y-13143402D01*
X6263987Y-13143402D02*
X6254463Y-13114831D01*
X6254463Y-13114831D02*
X6244940Y-13095783D01*
X6244940Y-13095783D02*
X6225892Y-13067212D01*
X6225892Y-13067212D02*
X6216368Y-13057688D01*
D12*
X1150829Y-13408775D02*
X1250829Y-13508775D01*
X1250829Y-13408775D02*
X1150829Y-13508775D01*
X1200829Y-13408775D02*
X1200829Y-13508775D01*
X1150829Y-13458775D02*
X1250829Y-13458775D01*
D11*
X1616368Y-13550259D02*
X1502082Y-13550259D01*
X1559225Y-13550259D02*
X1559225Y-13350259D01*
X1559225Y-13350259D02*
X1540177Y-13378831D01*
X1540177Y-13378831D02*
X1521130Y-13397878D01*
X1521130Y-13397878D02*
X1502082Y-13407402D01*
X1702082Y-13531212D02*
X1711606Y-13540735D01*
X1711606Y-13540735D02*
X1702082Y-13550259D01*
X1702082Y-13550259D02*
X1692558Y-13540735D01*
X1692558Y-13540735D02*
X1702082Y-13531212D01*
X1702082Y-13531212D02*
X1702082Y-13550259D01*
X1835415Y-13350259D02*
X1854463Y-13350259D01*
X1854463Y-13350259D02*
X1873511Y-13359783D01*
X1873511Y-13359783D02*
X1883034Y-13369307D01*
X1883034Y-13369307D02*
X1892558Y-13388354D01*
X1892558Y-13388354D02*
X1902082Y-13426450D01*
X1902082Y-13426450D02*
X1902082Y-13474069D01*
X1902082Y-13474069D02*
X1892558Y-13512164D01*
X1892558Y-13512164D02*
X1883034Y-13531212D01*
X1883034Y-13531212D02*
X1873511Y-13540735D01*
X1873511Y-13540735D02*
X1854463Y-13550259D01*
X1854463Y-13550259D02*
X1835415Y-13550259D01*
X1835415Y-13550259D02*
X1816368Y-13540735D01*
X1816368Y-13540735D02*
X1806844Y-13531212D01*
X1806844Y-13531212D02*
X1797320Y-13512164D01*
X1797320Y-13512164D02*
X1787796Y-13474069D01*
X1787796Y-13474069D02*
X1787796Y-13426450D01*
X1787796Y-13426450D02*
X1797320Y-13388354D01*
X1797320Y-13388354D02*
X1806844Y-13369307D01*
X1806844Y-13369307D02*
X1816368Y-13359783D01*
X1816368Y-13359783D02*
X1835415Y-13350259D01*
X2025892Y-13350259D02*
X2044939Y-13350259D01*
X2044939Y-13350259D02*
X2063987Y-13359783D01*
X2063987Y-13359783D02*
X2073511Y-13369307D01*
X2073511Y-13369307D02*
X2083034Y-13388354D01*
X2083034Y-13388354D02*
X2092558Y-13426450D01*
X2092558Y-13426450D02*
X2092558Y-13474069D01*
X2092558Y-13474069D02*
X2083034Y-13512164D01*
X2083034Y-13512164D02*
X2073511Y-13531212D01*
X2073511Y-13531212D02*
X2063987Y-13540735D01*
X2063987Y-13540735D02*
X2044939Y-13550259D01*
X2044939Y-13550259D02*
X2025892Y-13550259D01*
X2025892Y-13550259D02*
X2006844Y-13540735D01*
X2006844Y-13540735D02*
X1997320Y-13531212D01*
X1997320Y-13531212D02*
X1987796Y-13512164D01*
X1987796Y-13512164D02*
X1978273Y-13474069D01*
X1978273Y-13474069D02*
X1978273Y-13426450D01*
X1978273Y-13426450D02*
X1987796Y-13388354D01*
X1987796Y-13388354D02*
X1997320Y-13369307D01*
X1997320Y-13369307D02*
X2006844Y-13359783D01*
X2006844Y-13359783D02*
X2025892Y-13350259D01*
X2216368Y-13350259D02*
X2235416Y-13350259D01*
X2235416Y-13350259D02*
X2254463Y-13359783D01*
X2254463Y-13359783D02*
X2263987Y-13369307D01*
X2263987Y-13369307D02*
X2273511Y-13388354D01*
X2273511Y-13388354D02*
X2283035Y-13426450D01*
X2283035Y-13426450D02*
X2283035Y-13474069D01*
X2283035Y-13474069D02*
X2273511Y-13512164D01*
X2273511Y-13512164D02*
X2263987Y-13531212D01*
X2263987Y-13531212D02*
X2254463Y-13540735D01*
X2254463Y-13540735D02*
X2235416Y-13550259D01*
X2235416Y-13550259D02*
X2216368Y-13550259D01*
X2216368Y-13550259D02*
X2197320Y-13540735D01*
X2197320Y-13540735D02*
X2187796Y-13531212D01*
X2187796Y-13531212D02*
X2178273Y-13512164D01*
X2178273Y-13512164D02*
X2168749Y-13474069D01*
X2168749Y-13474069D02*
X2168749Y-13426450D01*
X2168749Y-13426450D02*
X2178273Y-13388354D01*
X2178273Y-13388354D02*
X2187796Y-13369307D01*
X2187796Y-13369307D02*
X2197320Y-13359783D01*
X2197320Y-13359783D02*
X2216368Y-13350259D01*
X2368749Y-13550259D02*
X2368749Y-13416926D01*
X2368749Y-13435973D02*
X2378273Y-13426450D01*
X2378273Y-13426450D02*
X2397320Y-13416926D01*
X2397320Y-13416926D02*
X2425892Y-13416926D01*
X2425892Y-13416926D02*
X2444939Y-13426450D01*
X2444939Y-13426450D02*
X2454463Y-13445497D01*
X2454463Y-13445497D02*
X2454463Y-13550259D01*
X2454463Y-13445497D02*
X2463987Y-13426450D01*
X2463987Y-13426450D02*
X2483035Y-13416926D01*
X2483035Y-13416926D02*
X2511606Y-13416926D01*
X2511606Y-13416926D02*
X2530654Y-13426450D01*
X2530654Y-13426450D02*
X2540177Y-13445497D01*
X2540177Y-13445497D02*
X2540177Y-13550259D01*
X2635416Y-13550259D02*
X2635416Y-13416926D01*
X2635416Y-13435973D02*
X2644939Y-13426450D01*
X2644939Y-13426450D02*
X2663987Y-13416926D01*
X2663987Y-13416926D02*
X2692558Y-13416926D01*
X2692558Y-13416926D02*
X2711606Y-13426450D01*
X2711606Y-13426450D02*
X2721130Y-13445497D01*
X2721130Y-13445497D02*
X2721130Y-13550259D01*
X2721130Y-13445497D02*
X2730654Y-13426450D01*
X2730654Y-13426450D02*
X2749701Y-13416926D01*
X2749701Y-13416926D02*
X2778273Y-13416926D01*
X2778273Y-13416926D02*
X2797320Y-13426450D01*
X2797320Y-13426450D02*
X2806844Y-13445497D01*
X2806844Y-13445497D02*
X2806844Y-13550259D01*
X3197320Y-13340735D02*
X3025892Y-13597878D01*
X3454463Y-13350259D02*
X3473511Y-13350259D01*
X3473511Y-13350259D02*
X3492558Y-13359783D01*
X3492558Y-13359783D02*
X3502082Y-13369307D01*
X3502082Y-13369307D02*
X3511606Y-13388354D01*
X3511606Y-13388354D02*
X3521130Y-13426450D01*
X3521130Y-13426450D02*
X3521130Y-13474069D01*
X3521130Y-13474069D02*
X3511606Y-13512164D01*
X3511606Y-13512164D02*
X3502082Y-13531212D01*
X3502082Y-13531212D02*
X3492558Y-13540735D01*
X3492558Y-13540735D02*
X3473511Y-13550259D01*
X3473511Y-13550259D02*
X3454463Y-13550259D01*
X3454463Y-13550259D02*
X3435416Y-13540735D01*
X3435416Y-13540735D02*
X3425892Y-13531212D01*
X3425892Y-13531212D02*
X3416368Y-13512164D01*
X3416368Y-13512164D02*
X3406844Y-13474069D01*
X3406844Y-13474069D02*
X3406844Y-13426450D01*
X3406844Y-13426450D02*
X3416368Y-13388354D01*
X3416368Y-13388354D02*
X3425892Y-13369307D01*
X3425892Y-13369307D02*
X3435416Y-13359783D01*
X3435416Y-13359783D02*
X3454463Y-13350259D01*
X3606844Y-13531212D02*
X3616368Y-13540735D01*
X3616368Y-13540735D02*
X3606844Y-13550259D01*
X3606844Y-13550259D02*
X3597320Y-13540735D01*
X3597320Y-13540735D02*
X3606844Y-13531212D01*
X3606844Y-13531212D02*
X3606844Y-13550259D01*
X3740177Y-13350259D02*
X3759225Y-13350259D01*
X3759225Y-13350259D02*
X3778273Y-13359783D01*
X3778273Y-13359783D02*
X3787797Y-13369307D01*
X3787797Y-13369307D02*
X3797320Y-13388354D01*
X3797320Y-13388354D02*
X3806844Y-13426450D01*
X3806844Y-13426450D02*
X3806844Y-13474069D01*
X3806844Y-13474069D02*
X3797320Y-13512164D01*
X3797320Y-13512164D02*
X3787797Y-13531212D01*
X3787797Y-13531212D02*
X3778273Y-13540735D01*
X3778273Y-13540735D02*
X3759225Y-13550259D01*
X3759225Y-13550259D02*
X3740177Y-13550259D01*
X3740177Y-13550259D02*
X3721130Y-13540735D01*
X3721130Y-13540735D02*
X3711606Y-13531212D01*
X3711606Y-13531212D02*
X3702082Y-13512164D01*
X3702082Y-13512164D02*
X3692558Y-13474069D01*
X3692558Y-13474069D02*
X3692558Y-13426450D01*
X3692558Y-13426450D02*
X3702082Y-13388354D01*
X3702082Y-13388354D02*
X3711606Y-13369307D01*
X3711606Y-13369307D02*
X3721130Y-13359783D01*
X3721130Y-13359783D02*
X3740177Y-13350259D01*
X3873511Y-13350259D02*
X3997320Y-13350259D01*
X3997320Y-13350259D02*
X3930654Y-13426450D01*
X3930654Y-13426450D02*
X3959225Y-13426450D01*
X3959225Y-13426450D02*
X3978273Y-13435973D01*
X3978273Y-13435973D02*
X3987797Y-13445497D01*
X3987797Y-13445497D02*
X3997320Y-13464545D01*
X3997320Y-13464545D02*
X3997320Y-13512164D01*
X3997320Y-13512164D02*
X3987797Y-13531212D01*
X3987797Y-13531212D02*
X3978273Y-13540735D01*
X3978273Y-13540735D02*
X3959225Y-13550259D01*
X3959225Y-13550259D02*
X3902082Y-13550259D01*
X3902082Y-13550259D02*
X3883035Y-13540735D01*
X3883035Y-13540735D02*
X3873511Y-13531212D01*
X4092558Y-13550259D02*
X4130654Y-13550259D01*
X4130654Y-13550259D02*
X4149701Y-13540735D01*
X4149701Y-13540735D02*
X4159225Y-13531212D01*
X4159225Y-13531212D02*
X4178273Y-13502640D01*
X4178273Y-13502640D02*
X4187797Y-13464545D01*
X4187797Y-13464545D02*
X4187797Y-13388354D01*
X4187797Y-13388354D02*
X4178273Y-13369307D01*
X4178273Y-13369307D02*
X4168749Y-13359783D01*
X4168749Y-13359783D02*
X4149701Y-13350259D01*
X4149701Y-13350259D02*
X4111606Y-13350259D01*
X4111606Y-13350259D02*
X4092558Y-13359783D01*
X4092558Y-13359783D02*
X4083035Y-13369307D01*
X4083035Y-13369307D02*
X4073511Y-13388354D01*
X4073511Y-13388354D02*
X4073511Y-13435973D01*
X4073511Y-13435973D02*
X4083035Y-13455021D01*
X4083035Y-13455021D02*
X4092558Y-13464545D01*
X4092558Y-13464545D02*
X4111606Y-13474069D01*
X4111606Y-13474069D02*
X4149701Y-13474069D01*
X4149701Y-13474069D02*
X4168749Y-13464545D01*
X4168749Y-13464545D02*
X4178273Y-13455021D01*
X4178273Y-13455021D02*
X4187797Y-13435973D01*
X4359225Y-13416926D02*
X4359225Y-13550259D01*
X4311606Y-13340735D02*
X4263987Y-13483593D01*
X4263987Y-13483593D02*
X4387797Y-13483593D01*
X4454463Y-13350259D02*
X4454463Y-13388354D01*
X4530654Y-13350259D02*
X4530654Y-13388354D01*
X4825892Y-13626450D02*
X4816368Y-13616926D01*
X4816368Y-13616926D02*
X4797321Y-13588354D01*
X4797321Y-13588354D02*
X4787797Y-13569307D01*
X4787797Y-13569307D02*
X4778273Y-13540735D01*
X4778273Y-13540735D02*
X4768749Y-13493116D01*
X4768749Y-13493116D02*
X4768749Y-13455021D01*
X4768749Y-13455021D02*
X4778273Y-13407402D01*
X4778273Y-13407402D02*
X4787797Y-13378831D01*
X4787797Y-13378831D02*
X4797321Y-13359783D01*
X4797321Y-13359783D02*
X4816368Y-13331212D01*
X4816368Y-13331212D02*
X4825892Y-13321688D01*
X4892559Y-13369307D02*
X4902082Y-13359783D01*
X4902082Y-13359783D02*
X4921130Y-13350259D01*
X4921130Y-13350259D02*
X4968749Y-13350259D01*
X4968749Y-13350259D02*
X4987797Y-13359783D01*
X4987797Y-13359783D02*
X4997321Y-13369307D01*
X4997321Y-13369307D02*
X5006844Y-13388354D01*
X5006844Y-13388354D02*
X5006844Y-13407402D01*
X5006844Y-13407402D02*
X4997321Y-13435973D01*
X4997321Y-13435973D02*
X4883035Y-13550259D01*
X4883035Y-13550259D02*
X5006844Y-13550259D01*
X5102082Y-13550259D02*
X5140178Y-13550259D01*
X5140178Y-13550259D02*
X5159225Y-13540735D01*
X5159225Y-13540735D02*
X5168749Y-13531212D01*
X5168749Y-13531212D02*
X5187797Y-13502640D01*
X5187797Y-13502640D02*
X5197321Y-13464545D01*
X5197321Y-13464545D02*
X5197321Y-13388354D01*
X5197321Y-13388354D02*
X5187797Y-13369307D01*
X5187797Y-13369307D02*
X5178273Y-13359783D01*
X5178273Y-13359783D02*
X5159225Y-13350259D01*
X5159225Y-13350259D02*
X5121130Y-13350259D01*
X5121130Y-13350259D02*
X5102082Y-13359783D01*
X5102082Y-13359783D02*
X5092559Y-13369307D01*
X5092559Y-13369307D02*
X5083035Y-13388354D01*
X5083035Y-13388354D02*
X5083035Y-13435973D01*
X5083035Y-13435973D02*
X5092559Y-13455021D01*
X5092559Y-13455021D02*
X5102082Y-13464545D01*
X5102082Y-13464545D02*
X5121130Y-13474069D01*
X5121130Y-13474069D02*
X5159225Y-13474069D01*
X5159225Y-13474069D02*
X5178273Y-13464545D01*
X5178273Y-13464545D02*
X5187797Y-13455021D01*
X5187797Y-13455021D02*
X5197321Y-13435973D01*
X5435416Y-13550259D02*
X5435416Y-13350259D01*
X5521130Y-13550259D02*
X5521130Y-13445497D01*
X5521130Y-13445497D02*
X5511606Y-13426450D01*
X5511606Y-13426450D02*
X5492559Y-13416926D01*
X5492559Y-13416926D02*
X5463987Y-13416926D01*
X5463987Y-13416926D02*
X5444940Y-13426450D01*
X5444940Y-13426450D02*
X5435416Y-13435973D01*
X5644940Y-13550259D02*
X5625892Y-13540735D01*
X5625892Y-13540735D02*
X5616368Y-13531212D01*
X5616368Y-13531212D02*
X5606844Y-13512164D01*
X5606844Y-13512164D02*
X5606844Y-13455021D01*
X5606844Y-13455021D02*
X5616368Y-13435973D01*
X5616368Y-13435973D02*
X5625892Y-13426450D01*
X5625892Y-13426450D02*
X5644940Y-13416926D01*
X5644940Y-13416926D02*
X5673511Y-13416926D01*
X5673511Y-13416926D02*
X5692559Y-13426450D01*
X5692559Y-13426450D02*
X5702082Y-13435973D01*
X5702082Y-13435973D02*
X5711606Y-13455021D01*
X5711606Y-13455021D02*
X5711606Y-13512164D01*
X5711606Y-13512164D02*
X5702082Y-13531212D01*
X5702082Y-13531212D02*
X5692559Y-13540735D01*
X5692559Y-13540735D02*
X5673511Y-13550259D01*
X5673511Y-13550259D02*
X5644940Y-13550259D01*
X5825892Y-13550259D02*
X5806844Y-13540735D01*
X5806844Y-13540735D02*
X5797321Y-13521688D01*
X5797321Y-13521688D02*
X5797321Y-13350259D01*
X5978273Y-13540735D02*
X5959225Y-13550259D01*
X5959225Y-13550259D02*
X5921130Y-13550259D01*
X5921130Y-13550259D02*
X5902082Y-13540735D01*
X5902082Y-13540735D02*
X5892559Y-13521688D01*
X5892559Y-13521688D02*
X5892559Y-13445497D01*
X5892559Y-13445497D02*
X5902082Y-13426450D01*
X5902082Y-13426450D02*
X5921130Y-13416926D01*
X5921130Y-13416926D02*
X5959225Y-13416926D01*
X5959225Y-13416926D02*
X5978273Y-13426450D01*
X5978273Y-13426450D02*
X5987797Y-13445497D01*
X5987797Y-13445497D02*
X5987797Y-13464545D01*
X5987797Y-13464545D02*
X5892559Y-13483593D01*
X6063987Y-13540735D02*
X6083035Y-13550259D01*
X6083035Y-13550259D02*
X6121130Y-13550259D01*
X6121130Y-13550259D02*
X6140178Y-13540735D01*
X6140178Y-13540735D02*
X6149702Y-13521688D01*
X6149702Y-13521688D02*
X6149702Y-13512164D01*
X6149702Y-13512164D02*
X6140178Y-13493116D01*
X6140178Y-13493116D02*
X6121130Y-13483593D01*
X6121130Y-13483593D02*
X6092559Y-13483593D01*
X6092559Y-13483593D02*
X6073511Y-13474069D01*
X6073511Y-13474069D02*
X6063987Y-13455021D01*
X6063987Y-13455021D02*
X6063987Y-13445497D01*
X6063987Y-13445497D02*
X6073511Y-13426450D01*
X6073511Y-13426450D02*
X6092559Y-13416926D01*
X6092559Y-13416926D02*
X6121130Y-13416926D01*
X6121130Y-13416926D02*
X6140178Y-13426450D01*
X6216368Y-13626450D02*
X6225892Y-13616926D01*
X6225892Y-13616926D02*
X6244940Y-13588354D01*
X6244940Y-13588354D02*
X6254463Y-13569307D01*
X6254463Y-13569307D02*
X6263987Y-13540735D01*
X6263987Y-13540735D02*
X6273511Y-13493116D01*
X6273511Y-13493116D02*
X6273511Y-13455021D01*
X6273511Y-13455021D02*
X6263987Y-13407402D01*
X6263987Y-13407402D02*
X6254463Y-13378831D01*
X6254463Y-13378831D02*
X6244940Y-13359783D01*
X6244940Y-13359783D02*
X6225892Y-13331212D01*
X6225892Y-13331212D02*
X6216368Y-13321688D01*
D13*
X1140829Y-13667775D02*
X1250829Y-13777775D01*
X1250829Y-13667775D02*
X1140829Y-13777775D01*
X1234720Y-13761667D02*
X1234720Y-13683884D01*
X1156938Y-13683884D01*
X1156938Y-13761667D01*
X1234720Y-13761667D01*
D11*
X1616368Y-13814259D02*
X1502082Y-13814259D01*
X1559225Y-13814259D02*
X1559225Y-13614259D01*
X1559225Y-13614259D02*
X1540177Y-13642831D01*
X1540177Y-13642831D02*
X1521130Y-13661878D01*
X1521130Y-13661878D02*
X1502082Y-13671402D01*
X1702082Y-13795212D02*
X1711606Y-13804735D01*
X1711606Y-13804735D02*
X1702082Y-13814259D01*
X1702082Y-13814259D02*
X1692558Y-13804735D01*
X1692558Y-13804735D02*
X1702082Y-13795212D01*
X1702082Y-13795212D02*
X1702082Y-13814259D01*
X1902082Y-13814259D02*
X1787796Y-13814259D01*
X1844939Y-13814259D02*
X1844939Y-13614259D01*
X1844939Y-13614259D02*
X1825892Y-13642831D01*
X1825892Y-13642831D02*
X1806844Y-13661878D01*
X1806844Y-13661878D02*
X1787796Y-13671402D01*
X2025892Y-13614259D02*
X2044939Y-13614259D01*
X2044939Y-13614259D02*
X2063987Y-13623783D01*
X2063987Y-13623783D02*
X2073511Y-13633307D01*
X2073511Y-13633307D02*
X2083034Y-13652354D01*
X2083034Y-13652354D02*
X2092558Y-13690450D01*
X2092558Y-13690450D02*
X2092558Y-13738069D01*
X2092558Y-13738069D02*
X2083034Y-13776164D01*
X2083034Y-13776164D02*
X2073511Y-13795212D01*
X2073511Y-13795212D02*
X2063987Y-13804735D01*
X2063987Y-13804735D02*
X2044939Y-13814259D01*
X2044939Y-13814259D02*
X2025892Y-13814259D01*
X2025892Y-13814259D02*
X2006844Y-13804735D01*
X2006844Y-13804735D02*
X1997320Y-13795212D01*
X1997320Y-13795212D02*
X1987796Y-13776164D01*
X1987796Y-13776164D02*
X1978273Y-13738069D01*
X1978273Y-13738069D02*
X1978273Y-13690450D01*
X1978273Y-13690450D02*
X1987796Y-13652354D01*
X1987796Y-13652354D02*
X1997320Y-13633307D01*
X1997320Y-13633307D02*
X2006844Y-13623783D01*
X2006844Y-13623783D02*
X2025892Y-13614259D01*
X2216368Y-13614259D02*
X2235416Y-13614259D01*
X2235416Y-13614259D02*
X2254463Y-13623783D01*
X2254463Y-13623783D02*
X2263987Y-13633307D01*
X2263987Y-13633307D02*
X2273511Y-13652354D01*
X2273511Y-13652354D02*
X2283035Y-13690450D01*
X2283035Y-13690450D02*
X2283035Y-13738069D01*
X2283035Y-13738069D02*
X2273511Y-13776164D01*
X2273511Y-13776164D02*
X2263987Y-13795212D01*
X2263987Y-13795212D02*
X2254463Y-13804735D01*
X2254463Y-13804735D02*
X2235416Y-13814259D01*
X2235416Y-13814259D02*
X2216368Y-13814259D01*
X2216368Y-13814259D02*
X2197320Y-13804735D01*
X2197320Y-13804735D02*
X2187796Y-13795212D01*
X2187796Y-13795212D02*
X2178273Y-13776164D01*
X2178273Y-13776164D02*
X2168749Y-13738069D01*
X2168749Y-13738069D02*
X2168749Y-13690450D01*
X2168749Y-13690450D02*
X2178273Y-13652354D01*
X2178273Y-13652354D02*
X2187796Y-13633307D01*
X2187796Y-13633307D02*
X2197320Y-13623783D01*
X2197320Y-13623783D02*
X2216368Y-13614259D01*
X2368749Y-13814259D02*
X2368749Y-13680926D01*
X2368749Y-13699973D02*
X2378273Y-13690450D01*
X2378273Y-13690450D02*
X2397320Y-13680926D01*
X2397320Y-13680926D02*
X2425892Y-13680926D01*
X2425892Y-13680926D02*
X2444939Y-13690450D01*
X2444939Y-13690450D02*
X2454463Y-13709497D01*
X2454463Y-13709497D02*
X2454463Y-13814259D01*
X2454463Y-13709497D02*
X2463987Y-13690450D01*
X2463987Y-13690450D02*
X2483035Y-13680926D01*
X2483035Y-13680926D02*
X2511606Y-13680926D01*
X2511606Y-13680926D02*
X2530654Y-13690450D01*
X2530654Y-13690450D02*
X2540177Y-13709497D01*
X2540177Y-13709497D02*
X2540177Y-13814259D01*
X2635416Y-13814259D02*
X2635416Y-13680926D01*
X2635416Y-13699973D02*
X2644939Y-13690450D01*
X2644939Y-13690450D02*
X2663987Y-13680926D01*
X2663987Y-13680926D02*
X2692558Y-13680926D01*
X2692558Y-13680926D02*
X2711606Y-13690450D01*
X2711606Y-13690450D02*
X2721130Y-13709497D01*
X2721130Y-13709497D02*
X2721130Y-13814259D01*
X2721130Y-13709497D02*
X2730654Y-13690450D01*
X2730654Y-13690450D02*
X2749701Y-13680926D01*
X2749701Y-13680926D02*
X2778273Y-13680926D01*
X2778273Y-13680926D02*
X2797320Y-13690450D01*
X2797320Y-13690450D02*
X2806844Y-13709497D01*
X2806844Y-13709497D02*
X2806844Y-13814259D01*
X3197320Y-13604735D02*
X3025892Y-13861878D01*
X3454463Y-13614259D02*
X3473511Y-13614259D01*
X3473511Y-13614259D02*
X3492558Y-13623783D01*
X3492558Y-13623783D02*
X3502082Y-13633307D01*
X3502082Y-13633307D02*
X3511606Y-13652354D01*
X3511606Y-13652354D02*
X3521130Y-13690450D01*
X3521130Y-13690450D02*
X3521130Y-13738069D01*
X3521130Y-13738069D02*
X3511606Y-13776164D01*
X3511606Y-13776164D02*
X3502082Y-13795212D01*
X3502082Y-13795212D02*
X3492558Y-13804735D01*
X3492558Y-13804735D02*
X3473511Y-13814259D01*
X3473511Y-13814259D02*
X3454463Y-13814259D01*
X3454463Y-13814259D02*
X3435416Y-13804735D01*
X3435416Y-13804735D02*
X3425892Y-13795212D01*
X3425892Y-13795212D02*
X3416368Y-13776164D01*
X3416368Y-13776164D02*
X3406844Y-13738069D01*
X3406844Y-13738069D02*
X3406844Y-13690450D01*
X3406844Y-13690450D02*
X3416368Y-13652354D01*
X3416368Y-13652354D02*
X3425892Y-13633307D01*
X3425892Y-13633307D02*
X3435416Y-13623783D01*
X3435416Y-13623783D02*
X3454463Y-13614259D01*
X3606844Y-13795212D02*
X3616368Y-13804735D01*
X3616368Y-13804735D02*
X3606844Y-13814259D01*
X3606844Y-13814259D02*
X3597320Y-13804735D01*
X3597320Y-13804735D02*
X3606844Y-13795212D01*
X3606844Y-13795212D02*
X3606844Y-13814259D01*
X3740177Y-13614259D02*
X3759225Y-13614259D01*
X3759225Y-13614259D02*
X3778273Y-13623783D01*
X3778273Y-13623783D02*
X3787797Y-13633307D01*
X3787797Y-13633307D02*
X3797320Y-13652354D01*
X3797320Y-13652354D02*
X3806844Y-13690450D01*
X3806844Y-13690450D02*
X3806844Y-13738069D01*
X3806844Y-13738069D02*
X3797320Y-13776164D01*
X3797320Y-13776164D02*
X3787797Y-13795212D01*
X3787797Y-13795212D02*
X3778273Y-13804735D01*
X3778273Y-13804735D02*
X3759225Y-13814259D01*
X3759225Y-13814259D02*
X3740177Y-13814259D01*
X3740177Y-13814259D02*
X3721130Y-13804735D01*
X3721130Y-13804735D02*
X3711606Y-13795212D01*
X3711606Y-13795212D02*
X3702082Y-13776164D01*
X3702082Y-13776164D02*
X3692558Y-13738069D01*
X3692558Y-13738069D02*
X3692558Y-13690450D01*
X3692558Y-13690450D02*
X3702082Y-13652354D01*
X3702082Y-13652354D02*
X3711606Y-13633307D01*
X3711606Y-13633307D02*
X3721130Y-13623783D01*
X3721130Y-13623783D02*
X3740177Y-13614259D01*
X3978273Y-13680926D02*
X3978273Y-13814259D01*
X3930654Y-13604735D02*
X3883035Y-13747593D01*
X3883035Y-13747593D02*
X4006844Y-13747593D01*
X4063987Y-13614259D02*
X4187797Y-13614259D01*
X4187797Y-13614259D02*
X4121130Y-13690450D01*
X4121130Y-13690450D02*
X4149701Y-13690450D01*
X4149701Y-13690450D02*
X4168749Y-13699973D01*
X4168749Y-13699973D02*
X4178273Y-13709497D01*
X4178273Y-13709497D02*
X4187797Y-13728545D01*
X4187797Y-13728545D02*
X4187797Y-13776164D01*
X4187797Y-13776164D02*
X4178273Y-13795212D01*
X4178273Y-13795212D02*
X4168749Y-13804735D01*
X4168749Y-13804735D02*
X4149701Y-13814259D01*
X4149701Y-13814259D02*
X4092558Y-13814259D01*
X4092558Y-13814259D02*
X4073511Y-13804735D01*
X4073511Y-13804735D02*
X4063987Y-13795212D01*
X4254463Y-13614259D02*
X4378273Y-13614259D01*
X4378273Y-13614259D02*
X4311606Y-13690450D01*
X4311606Y-13690450D02*
X4340178Y-13690450D01*
X4340178Y-13690450D02*
X4359225Y-13699973D01*
X4359225Y-13699973D02*
X4368749Y-13709497D01*
X4368749Y-13709497D02*
X4378273Y-13728545D01*
X4378273Y-13728545D02*
X4378273Y-13776164D01*
X4378273Y-13776164D02*
X4368749Y-13795212D01*
X4368749Y-13795212D02*
X4359225Y-13804735D01*
X4359225Y-13804735D02*
X4340178Y-13814259D01*
X4340178Y-13814259D02*
X4283035Y-13814259D01*
X4283035Y-13814259D02*
X4263987Y-13804735D01*
X4263987Y-13804735D02*
X4254463Y-13795212D01*
X4454463Y-13614259D02*
X4454463Y-13652354D01*
X4530654Y-13614259D02*
X4530654Y-13652354D01*
X4825892Y-13890450D02*
X4816368Y-13880926D01*
X4816368Y-13880926D02*
X4797321Y-13852354D01*
X4797321Y-13852354D02*
X4787797Y-13833307D01*
X4787797Y-13833307D02*
X4778273Y-13804735D01*
X4778273Y-13804735D02*
X4768749Y-13757116D01*
X4768749Y-13757116D02*
X4768749Y-13719021D01*
X4768749Y-13719021D02*
X4778273Y-13671402D01*
X4778273Y-13671402D02*
X4787797Y-13642831D01*
X4787797Y-13642831D02*
X4797321Y-13623783D01*
X4797321Y-13623783D02*
X4816368Y-13595212D01*
X4816368Y-13595212D02*
X4825892Y-13585688D01*
X4987797Y-13680926D02*
X4987797Y-13814259D01*
X4940178Y-13604735D02*
X4892559Y-13747593D01*
X4892559Y-13747593D02*
X5016368Y-13747593D01*
X5244940Y-13814259D02*
X5244940Y-13614259D01*
X5330654Y-13814259D02*
X5330654Y-13709497D01*
X5330654Y-13709497D02*
X5321130Y-13690450D01*
X5321130Y-13690450D02*
X5302083Y-13680926D01*
X5302083Y-13680926D02*
X5273511Y-13680926D01*
X5273511Y-13680926D02*
X5254463Y-13690450D01*
X5254463Y-13690450D02*
X5244940Y-13699973D01*
X5454463Y-13814259D02*
X5435416Y-13804735D01*
X5435416Y-13804735D02*
X5425892Y-13795212D01*
X5425892Y-13795212D02*
X5416368Y-13776164D01*
X5416368Y-13776164D02*
X5416368Y-13719021D01*
X5416368Y-13719021D02*
X5425892Y-13699973D01*
X5425892Y-13699973D02*
X5435416Y-13690450D01*
X5435416Y-13690450D02*
X5454463Y-13680926D01*
X5454463Y-13680926D02*
X5483035Y-13680926D01*
X5483035Y-13680926D02*
X5502083Y-13690450D01*
X5502083Y-13690450D02*
X5511606Y-13699973D01*
X5511606Y-13699973D02*
X5521130Y-13719021D01*
X5521130Y-13719021D02*
X5521130Y-13776164D01*
X5521130Y-13776164D02*
X5511606Y-13795212D01*
X5511606Y-13795212D02*
X5502083Y-13804735D01*
X5502083Y-13804735D02*
X5483035Y-13814259D01*
X5483035Y-13814259D02*
X5454463Y-13814259D01*
X5635416Y-13814259D02*
X5616368Y-13804735D01*
X5616368Y-13804735D02*
X5606844Y-13785688D01*
X5606844Y-13785688D02*
X5606844Y-13614259D01*
X5787797Y-13804735D02*
X5768749Y-13814259D01*
X5768749Y-13814259D02*
X5730654Y-13814259D01*
X5730654Y-13814259D02*
X5711606Y-13804735D01*
X5711606Y-13804735D02*
X5702082Y-13785688D01*
X5702082Y-13785688D02*
X5702082Y-13709497D01*
X5702082Y-13709497D02*
X5711606Y-13690450D01*
X5711606Y-13690450D02*
X5730654Y-13680926D01*
X5730654Y-13680926D02*
X5768749Y-13680926D01*
X5768749Y-13680926D02*
X5787797Y-13690450D01*
X5787797Y-13690450D02*
X5797321Y-13709497D01*
X5797321Y-13709497D02*
X5797321Y-13728545D01*
X5797321Y-13728545D02*
X5702082Y-13747593D01*
X5873511Y-13804735D02*
X5892559Y-13814259D01*
X5892559Y-13814259D02*
X5930654Y-13814259D01*
X5930654Y-13814259D02*
X5949702Y-13804735D01*
X5949702Y-13804735D02*
X5959225Y-13785688D01*
X5959225Y-13785688D02*
X5959225Y-13776164D01*
X5959225Y-13776164D02*
X5949702Y-13757116D01*
X5949702Y-13757116D02*
X5930654Y-13747593D01*
X5930654Y-13747593D02*
X5902082Y-13747593D01*
X5902082Y-13747593D02*
X5883035Y-13738069D01*
X5883035Y-13738069D02*
X5873511Y-13719021D01*
X5873511Y-13719021D02*
X5873511Y-13709497D01*
X5873511Y-13709497D02*
X5883035Y-13690450D01*
X5883035Y-13690450D02*
X5902082Y-13680926D01*
X5902082Y-13680926D02*
X5930654Y-13680926D01*
X5930654Y-13680926D02*
X5949702Y-13690450D01*
X6025892Y-13890450D02*
X6035416Y-13880926D01*
X6035416Y-13880926D02*
X6054463Y-13852354D01*
X6054463Y-13852354D02*
X6063987Y-13833307D01*
X6063987Y-13833307D02*
X6073511Y-13804735D01*
X6073511Y-13804735D02*
X6083035Y-13757116D01*
X6083035Y-13757116D02*
X6083035Y-13719021D01*
X6083035Y-13719021D02*
X6073511Y-13671402D01*
X6073511Y-13671402D02*
X6063987Y-13642831D01*
X6063987Y-13642831D02*
X6054463Y-13623783D01*
X6054463Y-13623783D02*
X6035416Y-13595212D01*
X6035416Y-13595212D02*
X6025892Y-13585688D01*
X1050829Y-13886775D02*
X1250829Y-14086775D01*
X1250829Y-13886775D02*
X1050829Y-14086775D01*
X1150829Y-14086775D02*
X1250829Y-13986775D01*
X1150829Y-13886775D01*
X1050829Y-13986775D01*
X1150829Y-14086775D01*
X1502082Y-13897307D02*
X1511606Y-13887783D01*
X1511606Y-13887783D02*
X1530653Y-13878259D01*
X1530653Y-13878259D02*
X1578273Y-13878259D01*
X1578273Y-13878259D02*
X1597320Y-13887783D01*
X1597320Y-13887783D02*
X1606844Y-13897307D01*
X1606844Y-13897307D02*
X1616368Y-13916354D01*
X1616368Y-13916354D02*
X1616368Y-13935402D01*
X1616368Y-13935402D02*
X1606844Y-13963973D01*
X1606844Y-13963973D02*
X1492558Y-14078259D01*
X1492558Y-14078259D02*
X1616368Y-14078259D01*
X1702082Y-14059212D02*
X1711606Y-14068735D01*
X1711606Y-14068735D02*
X1702082Y-14078259D01*
X1702082Y-14078259D02*
X1692558Y-14068735D01*
X1692558Y-14068735D02*
X1702082Y-14059212D01*
X1702082Y-14059212D02*
X1702082Y-14078259D01*
X1892558Y-13878259D02*
X1797320Y-13878259D01*
X1797320Y-13878259D02*
X1787796Y-13973497D01*
X1787796Y-13973497D02*
X1797320Y-13963973D01*
X1797320Y-13963973D02*
X1816368Y-13954450D01*
X1816368Y-13954450D02*
X1863987Y-13954450D01*
X1863987Y-13954450D02*
X1883034Y-13963973D01*
X1883034Y-13963973D02*
X1892558Y-13973497D01*
X1892558Y-13973497D02*
X1902082Y-13992545D01*
X1902082Y-13992545D02*
X1902082Y-14040164D01*
X1902082Y-14040164D02*
X1892558Y-14059212D01*
X1892558Y-14059212D02*
X1883034Y-14068735D01*
X1883034Y-14068735D02*
X1863987Y-14078259D01*
X1863987Y-14078259D02*
X1816368Y-14078259D01*
X1816368Y-14078259D02*
X1797320Y-14068735D01*
X1797320Y-14068735D02*
X1787796Y-14059212D01*
X2025892Y-13878259D02*
X2044939Y-13878259D01*
X2044939Y-13878259D02*
X2063987Y-13887783D01*
X2063987Y-13887783D02*
X2073511Y-13897307D01*
X2073511Y-13897307D02*
X2083034Y-13916354D01*
X2083034Y-13916354D02*
X2092558Y-13954450D01*
X2092558Y-13954450D02*
X2092558Y-14002069D01*
X2092558Y-14002069D02*
X2083034Y-14040164D01*
X2083034Y-14040164D02*
X2073511Y-14059212D01*
X2073511Y-14059212D02*
X2063987Y-14068735D01*
X2063987Y-14068735D02*
X2044939Y-14078259D01*
X2044939Y-14078259D02*
X2025892Y-14078259D01*
X2025892Y-14078259D02*
X2006844Y-14068735D01*
X2006844Y-14068735D02*
X1997320Y-14059212D01*
X1997320Y-14059212D02*
X1987796Y-14040164D01*
X1987796Y-14040164D02*
X1978273Y-14002069D01*
X1978273Y-14002069D02*
X1978273Y-13954450D01*
X1978273Y-13954450D02*
X1987796Y-13916354D01*
X1987796Y-13916354D02*
X1997320Y-13897307D01*
X1997320Y-13897307D02*
X2006844Y-13887783D01*
X2006844Y-13887783D02*
X2025892Y-13878259D01*
X2216368Y-13878259D02*
X2235416Y-13878259D01*
X2235416Y-13878259D02*
X2254463Y-13887783D01*
X2254463Y-13887783D02*
X2263987Y-13897307D01*
X2263987Y-13897307D02*
X2273511Y-13916354D01*
X2273511Y-13916354D02*
X2283035Y-13954450D01*
X2283035Y-13954450D02*
X2283035Y-14002069D01*
X2283035Y-14002069D02*
X2273511Y-14040164D01*
X2273511Y-14040164D02*
X2263987Y-14059212D01*
X2263987Y-14059212D02*
X2254463Y-14068735D01*
X2254463Y-14068735D02*
X2235416Y-14078259D01*
X2235416Y-14078259D02*
X2216368Y-14078259D01*
X2216368Y-14078259D02*
X2197320Y-14068735D01*
X2197320Y-14068735D02*
X2187796Y-14059212D01*
X2187796Y-14059212D02*
X2178273Y-14040164D01*
X2178273Y-14040164D02*
X2168749Y-14002069D01*
X2168749Y-14002069D02*
X2168749Y-13954450D01*
X2168749Y-13954450D02*
X2178273Y-13916354D01*
X2178273Y-13916354D02*
X2187796Y-13897307D01*
X2187796Y-13897307D02*
X2197320Y-13887783D01*
X2197320Y-13887783D02*
X2216368Y-13878259D01*
X2368749Y-14078259D02*
X2368749Y-13944926D01*
X2368749Y-13963973D02*
X2378273Y-13954450D01*
X2378273Y-13954450D02*
X2397320Y-13944926D01*
X2397320Y-13944926D02*
X2425892Y-13944926D01*
X2425892Y-13944926D02*
X2444939Y-13954450D01*
X2444939Y-13954450D02*
X2454463Y-13973497D01*
X2454463Y-13973497D02*
X2454463Y-14078259D01*
X2454463Y-13973497D02*
X2463987Y-13954450D01*
X2463987Y-13954450D02*
X2483035Y-13944926D01*
X2483035Y-13944926D02*
X2511606Y-13944926D01*
X2511606Y-13944926D02*
X2530654Y-13954450D01*
X2530654Y-13954450D02*
X2540177Y-13973497D01*
X2540177Y-13973497D02*
X2540177Y-14078259D01*
X2635416Y-14078259D02*
X2635416Y-13944926D01*
X2635416Y-13963973D02*
X2644939Y-13954450D01*
X2644939Y-13954450D02*
X2663987Y-13944926D01*
X2663987Y-13944926D02*
X2692558Y-13944926D01*
X2692558Y-13944926D02*
X2711606Y-13954450D01*
X2711606Y-13954450D02*
X2721130Y-13973497D01*
X2721130Y-13973497D02*
X2721130Y-14078259D01*
X2721130Y-13973497D02*
X2730654Y-13954450D01*
X2730654Y-13954450D02*
X2749701Y-13944926D01*
X2749701Y-13944926D02*
X2778273Y-13944926D01*
X2778273Y-13944926D02*
X2797320Y-13954450D01*
X2797320Y-13954450D02*
X2806844Y-13973497D01*
X2806844Y-13973497D02*
X2806844Y-14078259D01*
X3197320Y-13868735D02*
X3025892Y-14125878D01*
X3454463Y-13878259D02*
X3473511Y-13878259D01*
X3473511Y-13878259D02*
X3492558Y-13887783D01*
X3492558Y-13887783D02*
X3502082Y-13897307D01*
X3502082Y-13897307D02*
X3511606Y-13916354D01*
X3511606Y-13916354D02*
X3521130Y-13954450D01*
X3521130Y-13954450D02*
X3521130Y-14002069D01*
X3521130Y-14002069D02*
X3511606Y-14040164D01*
X3511606Y-14040164D02*
X3502082Y-14059212D01*
X3502082Y-14059212D02*
X3492558Y-14068735D01*
X3492558Y-14068735D02*
X3473511Y-14078259D01*
X3473511Y-14078259D02*
X3454463Y-14078259D01*
X3454463Y-14078259D02*
X3435416Y-14068735D01*
X3435416Y-14068735D02*
X3425892Y-14059212D01*
X3425892Y-14059212D02*
X3416368Y-14040164D01*
X3416368Y-14040164D02*
X3406844Y-14002069D01*
X3406844Y-14002069D02*
X3406844Y-13954450D01*
X3406844Y-13954450D02*
X3416368Y-13916354D01*
X3416368Y-13916354D02*
X3425892Y-13897307D01*
X3425892Y-13897307D02*
X3435416Y-13887783D01*
X3435416Y-13887783D02*
X3454463Y-13878259D01*
X3606844Y-14059212D02*
X3616368Y-14068735D01*
X3616368Y-14068735D02*
X3606844Y-14078259D01*
X3606844Y-14078259D02*
X3597320Y-14068735D01*
X3597320Y-14068735D02*
X3606844Y-14059212D01*
X3606844Y-14059212D02*
X3606844Y-14078259D01*
X3740177Y-13878259D02*
X3759225Y-13878259D01*
X3759225Y-13878259D02*
X3778273Y-13887783D01*
X3778273Y-13887783D02*
X3787797Y-13897307D01*
X3787797Y-13897307D02*
X3797320Y-13916354D01*
X3797320Y-13916354D02*
X3806844Y-13954450D01*
X3806844Y-13954450D02*
X3806844Y-14002069D01*
X3806844Y-14002069D02*
X3797320Y-14040164D01*
X3797320Y-14040164D02*
X3787797Y-14059212D01*
X3787797Y-14059212D02*
X3778273Y-14068735D01*
X3778273Y-14068735D02*
X3759225Y-14078259D01*
X3759225Y-14078259D02*
X3740177Y-14078259D01*
X3740177Y-14078259D02*
X3721130Y-14068735D01*
X3721130Y-14068735D02*
X3711606Y-14059212D01*
X3711606Y-14059212D02*
X3702082Y-14040164D01*
X3702082Y-14040164D02*
X3692558Y-14002069D01*
X3692558Y-14002069D02*
X3692558Y-13954450D01*
X3692558Y-13954450D02*
X3702082Y-13916354D01*
X3702082Y-13916354D02*
X3711606Y-13897307D01*
X3711606Y-13897307D02*
X3721130Y-13887783D01*
X3721130Y-13887783D02*
X3740177Y-13878259D01*
X3902082Y-14078259D02*
X3940177Y-14078259D01*
X3940177Y-14078259D02*
X3959225Y-14068735D01*
X3959225Y-14068735D02*
X3968749Y-14059212D01*
X3968749Y-14059212D02*
X3987797Y-14030640D01*
X3987797Y-14030640D02*
X3997320Y-13992545D01*
X3997320Y-13992545D02*
X3997320Y-13916354D01*
X3997320Y-13916354D02*
X3987797Y-13897307D01*
X3987797Y-13897307D02*
X3978273Y-13887783D01*
X3978273Y-13887783D02*
X3959225Y-13878259D01*
X3959225Y-13878259D02*
X3921130Y-13878259D01*
X3921130Y-13878259D02*
X3902082Y-13887783D01*
X3902082Y-13887783D02*
X3892558Y-13897307D01*
X3892558Y-13897307D02*
X3883035Y-13916354D01*
X3883035Y-13916354D02*
X3883035Y-13963973D01*
X3883035Y-13963973D02*
X3892558Y-13983021D01*
X3892558Y-13983021D02*
X3902082Y-13992545D01*
X3902082Y-13992545D02*
X3921130Y-14002069D01*
X3921130Y-14002069D02*
X3959225Y-14002069D01*
X3959225Y-14002069D02*
X3978273Y-13992545D01*
X3978273Y-13992545D02*
X3987797Y-13983021D01*
X3987797Y-13983021D02*
X3997320Y-13963973D01*
X4111606Y-13963973D02*
X4092558Y-13954450D01*
X4092558Y-13954450D02*
X4083035Y-13944926D01*
X4083035Y-13944926D02*
X4073511Y-13925878D01*
X4073511Y-13925878D02*
X4073511Y-13916354D01*
X4073511Y-13916354D02*
X4083035Y-13897307D01*
X4083035Y-13897307D02*
X4092558Y-13887783D01*
X4092558Y-13887783D02*
X4111606Y-13878259D01*
X4111606Y-13878259D02*
X4149701Y-13878259D01*
X4149701Y-13878259D02*
X4168749Y-13887783D01*
X4168749Y-13887783D02*
X4178273Y-13897307D01*
X4178273Y-13897307D02*
X4187797Y-13916354D01*
X4187797Y-13916354D02*
X4187797Y-13925878D01*
X4187797Y-13925878D02*
X4178273Y-13944926D01*
X4178273Y-13944926D02*
X4168749Y-13954450D01*
X4168749Y-13954450D02*
X4149701Y-13963973D01*
X4149701Y-13963973D02*
X4111606Y-13963973D01*
X4111606Y-13963973D02*
X4092558Y-13973497D01*
X4092558Y-13973497D02*
X4083035Y-13983021D01*
X4083035Y-13983021D02*
X4073511Y-14002069D01*
X4073511Y-14002069D02*
X4073511Y-14040164D01*
X4073511Y-14040164D02*
X4083035Y-14059212D01*
X4083035Y-14059212D02*
X4092558Y-14068735D01*
X4092558Y-14068735D02*
X4111606Y-14078259D01*
X4111606Y-14078259D02*
X4149701Y-14078259D01*
X4149701Y-14078259D02*
X4168749Y-14068735D01*
X4168749Y-14068735D02*
X4178273Y-14059212D01*
X4178273Y-14059212D02*
X4187797Y-14040164D01*
X4187797Y-14040164D02*
X4187797Y-14002069D01*
X4187797Y-14002069D02*
X4178273Y-13983021D01*
X4178273Y-13983021D02*
X4168749Y-13973497D01*
X4168749Y-13973497D02*
X4149701Y-13963973D01*
X4359225Y-13944926D02*
X4359225Y-14078259D01*
X4311606Y-13868735D02*
X4263987Y-14011593D01*
X4263987Y-14011593D02*
X4387797Y-14011593D01*
X4454463Y-13878259D02*
X4454463Y-13916354D01*
X4530654Y-13878259D02*
X4530654Y-13916354D01*
X4825892Y-14154450D02*
X4816368Y-14144926D01*
X4816368Y-14144926D02*
X4797321Y-14116354D01*
X4797321Y-14116354D02*
X4787797Y-14097307D01*
X4787797Y-14097307D02*
X4778273Y-14068735D01*
X4778273Y-14068735D02*
X4768749Y-14021116D01*
X4768749Y-14021116D02*
X4768749Y-13983021D01*
X4768749Y-13983021D02*
X4778273Y-13935402D01*
X4778273Y-13935402D02*
X4787797Y-13906831D01*
X4787797Y-13906831D02*
X4797321Y-13887783D01*
X4797321Y-13887783D02*
X4816368Y-13859212D01*
X4816368Y-13859212D02*
X4825892Y-13849688D01*
X4987797Y-13944926D02*
X4987797Y-14078259D01*
X4940178Y-13868735D02*
X4892559Y-14011593D01*
X4892559Y-14011593D02*
X5016368Y-14011593D01*
X5244940Y-14078259D02*
X5244940Y-13878259D01*
X5330654Y-14078259D02*
X5330654Y-13973497D01*
X5330654Y-13973497D02*
X5321130Y-13954450D01*
X5321130Y-13954450D02*
X5302083Y-13944926D01*
X5302083Y-13944926D02*
X5273511Y-13944926D01*
X5273511Y-13944926D02*
X5254463Y-13954450D01*
X5254463Y-13954450D02*
X5244940Y-13963973D01*
X5454463Y-14078259D02*
X5435416Y-14068735D01*
X5435416Y-14068735D02*
X5425892Y-14059212D01*
X5425892Y-14059212D02*
X5416368Y-14040164D01*
X5416368Y-14040164D02*
X5416368Y-13983021D01*
X5416368Y-13983021D02*
X5425892Y-13963973D01*
X5425892Y-13963973D02*
X5435416Y-13954450D01*
X5435416Y-13954450D02*
X5454463Y-13944926D01*
X5454463Y-13944926D02*
X5483035Y-13944926D01*
X5483035Y-13944926D02*
X5502083Y-13954450D01*
X5502083Y-13954450D02*
X5511606Y-13963973D01*
X5511606Y-13963973D02*
X5521130Y-13983021D01*
X5521130Y-13983021D02*
X5521130Y-14040164D01*
X5521130Y-14040164D02*
X5511606Y-14059212D01*
X5511606Y-14059212D02*
X5502083Y-14068735D01*
X5502083Y-14068735D02*
X5483035Y-14078259D01*
X5483035Y-14078259D02*
X5454463Y-14078259D01*
X5635416Y-14078259D02*
X5616368Y-14068735D01*
X5616368Y-14068735D02*
X5606844Y-14049688D01*
X5606844Y-14049688D02*
X5606844Y-13878259D01*
X5787797Y-14068735D02*
X5768749Y-14078259D01*
X5768749Y-14078259D02*
X5730654Y-14078259D01*
X5730654Y-14078259D02*
X5711606Y-14068735D01*
X5711606Y-14068735D02*
X5702082Y-14049688D01*
X5702082Y-14049688D02*
X5702082Y-13973497D01*
X5702082Y-13973497D02*
X5711606Y-13954450D01*
X5711606Y-13954450D02*
X5730654Y-13944926D01*
X5730654Y-13944926D02*
X5768749Y-13944926D01*
X5768749Y-13944926D02*
X5787797Y-13954450D01*
X5787797Y-13954450D02*
X5797321Y-13973497D01*
X5797321Y-13973497D02*
X5797321Y-13992545D01*
X5797321Y-13992545D02*
X5702082Y-14011593D01*
X5873511Y-14068735D02*
X5892559Y-14078259D01*
X5892559Y-14078259D02*
X5930654Y-14078259D01*
X5930654Y-14078259D02*
X5949702Y-14068735D01*
X5949702Y-14068735D02*
X5959225Y-14049688D01*
X5959225Y-14049688D02*
X5959225Y-14040164D01*
X5959225Y-14040164D02*
X5949702Y-14021116D01*
X5949702Y-14021116D02*
X5930654Y-14011593D01*
X5930654Y-14011593D02*
X5902082Y-14011593D01*
X5902082Y-14011593D02*
X5883035Y-14002069D01*
X5883035Y-14002069D02*
X5873511Y-13983021D01*
X5873511Y-13983021D02*
X5873511Y-13973497D01*
X5873511Y-13973497D02*
X5883035Y-13954450D01*
X5883035Y-13954450D02*
X5902082Y-13944926D01*
X5902082Y-13944926D02*
X5930654Y-13944926D01*
X5930654Y-13944926D02*
X5949702Y-13954450D01*
X6025892Y-14154450D02*
X6035416Y-14144926D01*
X6035416Y-14144926D02*
X6054463Y-14116354D01*
X6054463Y-14116354D02*
X6063987Y-14097307D01*
X6063987Y-14097307D02*
X6073511Y-14068735D01*
X6073511Y-14068735D02*
X6083035Y-14021116D01*
X6083035Y-14021116D02*
X6083035Y-13983021D01*
X6083035Y-13983021D02*
X6073511Y-13935402D01*
X6073511Y-13935402D02*
X6063987Y-13906831D01*
X6063987Y-13906831D02*
X6054463Y-13887783D01*
X6054463Y-13887783D02*
X6035416Y-13859212D01*
X6035416Y-13859212D02*
X6025892Y-13849688D01*
X1150829Y-14206775D02*
X1150829Y-14406775D01*
X1050829Y-14306775D02*
X1250829Y-14306775D01*
X1250829Y-14306775D02*
G75*
G02*
X1050829Y-14306775I-100000J0D01*
G01*
X1050829Y-14306775D02*
G75*
G02*
X1250829Y-14306775I100000J0D01*
G01*
X1597320Y-14264926D02*
X1597320Y-14398259D01*
X1549701Y-14188735D02*
X1502082Y-14331593D01*
X1502082Y-14331593D02*
X1625892Y-14331593D01*
X1702082Y-14379212D02*
X1711606Y-14388735D01*
X1711606Y-14388735D02*
X1702082Y-14398259D01*
X1702082Y-14398259D02*
X1692558Y-14388735D01*
X1692558Y-14388735D02*
X1702082Y-14379212D01*
X1702082Y-14379212D02*
X1702082Y-14398259D01*
X1892558Y-14198259D02*
X1797320Y-14198259D01*
X1797320Y-14198259D02*
X1787796Y-14293497D01*
X1787796Y-14293497D02*
X1797320Y-14283973D01*
X1797320Y-14283973D02*
X1816368Y-14274450D01*
X1816368Y-14274450D02*
X1863987Y-14274450D01*
X1863987Y-14274450D02*
X1883034Y-14283973D01*
X1883034Y-14283973D02*
X1892558Y-14293497D01*
X1892558Y-14293497D02*
X1902082Y-14312545D01*
X1902082Y-14312545D02*
X1902082Y-14360164D01*
X1902082Y-14360164D02*
X1892558Y-14379212D01*
X1892558Y-14379212D02*
X1883034Y-14388735D01*
X1883034Y-14388735D02*
X1863987Y-14398259D01*
X1863987Y-14398259D02*
X1816368Y-14398259D01*
X1816368Y-14398259D02*
X1797320Y-14388735D01*
X1797320Y-14388735D02*
X1787796Y-14379212D01*
X2025892Y-14198259D02*
X2044939Y-14198259D01*
X2044939Y-14198259D02*
X2063987Y-14207783D01*
X2063987Y-14207783D02*
X2073511Y-14217307D01*
X2073511Y-14217307D02*
X2083034Y-14236354D01*
X2083034Y-14236354D02*
X2092558Y-14274450D01*
X2092558Y-14274450D02*
X2092558Y-14322069D01*
X2092558Y-14322069D02*
X2083034Y-14360164D01*
X2083034Y-14360164D02*
X2073511Y-14379212D01*
X2073511Y-14379212D02*
X2063987Y-14388735D01*
X2063987Y-14388735D02*
X2044939Y-14398259D01*
X2044939Y-14398259D02*
X2025892Y-14398259D01*
X2025892Y-14398259D02*
X2006844Y-14388735D01*
X2006844Y-14388735D02*
X1997320Y-14379212D01*
X1997320Y-14379212D02*
X1987796Y-14360164D01*
X1987796Y-14360164D02*
X1978273Y-14322069D01*
X1978273Y-14322069D02*
X1978273Y-14274450D01*
X1978273Y-14274450D02*
X1987796Y-14236354D01*
X1987796Y-14236354D02*
X1997320Y-14217307D01*
X1997320Y-14217307D02*
X2006844Y-14207783D01*
X2006844Y-14207783D02*
X2025892Y-14198259D01*
X2216368Y-14198259D02*
X2235416Y-14198259D01*
X2235416Y-14198259D02*
X2254463Y-14207783D01*
X2254463Y-14207783D02*
X2263987Y-14217307D01*
X2263987Y-14217307D02*
X2273511Y-14236354D01*
X2273511Y-14236354D02*
X2283035Y-14274450D01*
X2283035Y-14274450D02*
X2283035Y-14322069D01*
X2283035Y-14322069D02*
X2273511Y-14360164D01*
X2273511Y-14360164D02*
X2263987Y-14379212D01*
X2263987Y-14379212D02*
X2254463Y-14388735D01*
X2254463Y-14388735D02*
X2235416Y-14398259D01*
X2235416Y-14398259D02*
X2216368Y-14398259D01*
X2216368Y-14398259D02*
X2197320Y-14388735D01*
X2197320Y-14388735D02*
X2187796Y-14379212D01*
X2187796Y-14379212D02*
X2178273Y-14360164D01*
X2178273Y-14360164D02*
X2168749Y-14322069D01*
X2168749Y-14322069D02*
X2168749Y-14274450D01*
X2168749Y-14274450D02*
X2178273Y-14236354D01*
X2178273Y-14236354D02*
X2187796Y-14217307D01*
X2187796Y-14217307D02*
X2197320Y-14207783D01*
X2197320Y-14207783D02*
X2216368Y-14198259D01*
X2368749Y-14398259D02*
X2368749Y-14264926D01*
X2368749Y-14283973D02*
X2378273Y-14274450D01*
X2378273Y-14274450D02*
X2397320Y-14264926D01*
X2397320Y-14264926D02*
X2425892Y-14264926D01*
X2425892Y-14264926D02*
X2444939Y-14274450D01*
X2444939Y-14274450D02*
X2454463Y-14293497D01*
X2454463Y-14293497D02*
X2454463Y-14398259D01*
X2454463Y-14293497D02*
X2463987Y-14274450D01*
X2463987Y-14274450D02*
X2483035Y-14264926D01*
X2483035Y-14264926D02*
X2511606Y-14264926D01*
X2511606Y-14264926D02*
X2530654Y-14274450D01*
X2530654Y-14274450D02*
X2540177Y-14293497D01*
X2540177Y-14293497D02*
X2540177Y-14398259D01*
X2635416Y-14398259D02*
X2635416Y-14264926D01*
X2635416Y-14283973D02*
X2644939Y-14274450D01*
X2644939Y-14274450D02*
X2663987Y-14264926D01*
X2663987Y-14264926D02*
X2692558Y-14264926D01*
X2692558Y-14264926D02*
X2711606Y-14274450D01*
X2711606Y-14274450D02*
X2721130Y-14293497D01*
X2721130Y-14293497D02*
X2721130Y-14398259D01*
X2721130Y-14293497D02*
X2730654Y-14274450D01*
X2730654Y-14274450D02*
X2749701Y-14264926D01*
X2749701Y-14264926D02*
X2778273Y-14264926D01*
X2778273Y-14264926D02*
X2797320Y-14274450D01*
X2797320Y-14274450D02*
X2806844Y-14293497D01*
X2806844Y-14293497D02*
X2806844Y-14398259D01*
X3197320Y-14188735D02*
X3025892Y-14445878D01*
X3454463Y-14198259D02*
X3473511Y-14198259D01*
X3473511Y-14198259D02*
X3492558Y-14207783D01*
X3492558Y-14207783D02*
X3502082Y-14217307D01*
X3502082Y-14217307D02*
X3511606Y-14236354D01*
X3511606Y-14236354D02*
X3521130Y-14274450D01*
X3521130Y-14274450D02*
X3521130Y-14322069D01*
X3521130Y-14322069D02*
X3511606Y-14360164D01*
X3511606Y-14360164D02*
X3502082Y-14379212D01*
X3502082Y-14379212D02*
X3492558Y-14388735D01*
X3492558Y-14388735D02*
X3473511Y-14398259D01*
X3473511Y-14398259D02*
X3454463Y-14398259D01*
X3454463Y-14398259D02*
X3435416Y-14388735D01*
X3435416Y-14388735D02*
X3425892Y-14379212D01*
X3425892Y-14379212D02*
X3416368Y-14360164D01*
X3416368Y-14360164D02*
X3406844Y-14322069D01*
X3406844Y-14322069D02*
X3406844Y-14274450D01*
X3406844Y-14274450D02*
X3416368Y-14236354D01*
X3416368Y-14236354D02*
X3425892Y-14217307D01*
X3425892Y-14217307D02*
X3435416Y-14207783D01*
X3435416Y-14207783D02*
X3454463Y-14198259D01*
X3606844Y-14379212D02*
X3616368Y-14388735D01*
X3616368Y-14388735D02*
X3606844Y-14398259D01*
X3606844Y-14398259D02*
X3597320Y-14388735D01*
X3597320Y-14388735D02*
X3606844Y-14379212D01*
X3606844Y-14379212D02*
X3606844Y-14398259D01*
X3806844Y-14398259D02*
X3692558Y-14398259D01*
X3749701Y-14398259D02*
X3749701Y-14198259D01*
X3749701Y-14198259D02*
X3730654Y-14226831D01*
X3730654Y-14226831D02*
X3711606Y-14245878D01*
X3711606Y-14245878D02*
X3692558Y-14255402D01*
X3873511Y-14198259D02*
X4006844Y-14198259D01*
X4006844Y-14198259D02*
X3921130Y-14398259D01*
X4063987Y-14198259D02*
X4197320Y-14198259D01*
X4197320Y-14198259D02*
X4111606Y-14398259D01*
X4263987Y-14217307D02*
X4273511Y-14207783D01*
X4273511Y-14207783D02*
X4292559Y-14198259D01*
X4292559Y-14198259D02*
X4340178Y-14198259D01*
X4340178Y-14198259D02*
X4359225Y-14207783D01*
X4359225Y-14207783D02*
X4368749Y-14217307D01*
X4368749Y-14217307D02*
X4378273Y-14236354D01*
X4378273Y-14236354D02*
X4378273Y-14255402D01*
X4378273Y-14255402D02*
X4368749Y-14283973D01*
X4368749Y-14283973D02*
X4254463Y-14398259D01*
X4254463Y-14398259D02*
X4378273Y-14398259D01*
X4454463Y-14198259D02*
X4454463Y-14236354D01*
X4530654Y-14198259D02*
X4530654Y-14236354D01*
X4825892Y-14474450D02*
X4816368Y-14464926D01*
X4816368Y-14464926D02*
X4797321Y-14436354D01*
X4797321Y-14436354D02*
X4787797Y-14417307D01*
X4787797Y-14417307D02*
X4778273Y-14388735D01*
X4778273Y-14388735D02*
X4768749Y-14341116D01*
X4768749Y-14341116D02*
X4768749Y-14303021D01*
X4768749Y-14303021D02*
X4778273Y-14255402D01*
X4778273Y-14255402D02*
X4787797Y-14226831D01*
X4787797Y-14226831D02*
X4797321Y-14207783D01*
X4797321Y-14207783D02*
X4816368Y-14179212D01*
X4816368Y-14179212D02*
X4825892Y-14169688D01*
X4987797Y-14264926D02*
X4987797Y-14398259D01*
X4940178Y-14188735D02*
X4892559Y-14331593D01*
X4892559Y-14331593D02*
X5016368Y-14331593D01*
X5244940Y-14398259D02*
X5244940Y-14198259D01*
X5330654Y-14398259D02*
X5330654Y-14293497D01*
X5330654Y-14293497D02*
X5321130Y-14274450D01*
X5321130Y-14274450D02*
X5302083Y-14264926D01*
X5302083Y-14264926D02*
X5273511Y-14264926D01*
X5273511Y-14264926D02*
X5254463Y-14274450D01*
X5254463Y-14274450D02*
X5244940Y-14283973D01*
X5454463Y-14398259D02*
X5435416Y-14388735D01*
X5435416Y-14388735D02*
X5425892Y-14379212D01*
X5425892Y-14379212D02*
X5416368Y-14360164D01*
X5416368Y-14360164D02*
X5416368Y-14303021D01*
X5416368Y-14303021D02*
X5425892Y-14283973D01*
X5425892Y-14283973D02*
X5435416Y-14274450D01*
X5435416Y-14274450D02*
X5454463Y-14264926D01*
X5454463Y-14264926D02*
X5483035Y-14264926D01*
X5483035Y-14264926D02*
X5502083Y-14274450D01*
X5502083Y-14274450D02*
X5511606Y-14283973D01*
X5511606Y-14283973D02*
X5521130Y-14303021D01*
X5521130Y-14303021D02*
X5521130Y-14360164D01*
X5521130Y-14360164D02*
X5511606Y-14379212D01*
X5511606Y-14379212D02*
X5502083Y-14388735D01*
X5502083Y-14388735D02*
X5483035Y-14398259D01*
X5483035Y-14398259D02*
X5454463Y-14398259D01*
X5635416Y-14398259D02*
X5616368Y-14388735D01*
X5616368Y-14388735D02*
X5606844Y-14369688D01*
X5606844Y-14369688D02*
X5606844Y-14198259D01*
X5787797Y-14388735D02*
X5768749Y-14398259D01*
X5768749Y-14398259D02*
X5730654Y-14398259D01*
X5730654Y-14398259D02*
X5711606Y-14388735D01*
X5711606Y-14388735D02*
X5702082Y-14369688D01*
X5702082Y-14369688D02*
X5702082Y-14293497D01*
X5702082Y-14293497D02*
X5711606Y-14274450D01*
X5711606Y-14274450D02*
X5730654Y-14264926D01*
X5730654Y-14264926D02*
X5768749Y-14264926D01*
X5768749Y-14264926D02*
X5787797Y-14274450D01*
X5787797Y-14274450D02*
X5797321Y-14293497D01*
X5797321Y-14293497D02*
X5797321Y-14312545D01*
X5797321Y-14312545D02*
X5702082Y-14331593D01*
X5873511Y-14388735D02*
X5892559Y-14398259D01*
X5892559Y-14398259D02*
X5930654Y-14398259D01*
X5930654Y-14398259D02*
X5949702Y-14388735D01*
X5949702Y-14388735D02*
X5959225Y-14369688D01*
X5959225Y-14369688D02*
X5959225Y-14360164D01*
X5959225Y-14360164D02*
X5949702Y-14341116D01*
X5949702Y-14341116D02*
X5930654Y-14331593D01*
X5930654Y-14331593D02*
X5902082Y-14331593D01*
X5902082Y-14331593D02*
X5883035Y-14322069D01*
X5883035Y-14322069D02*
X5873511Y-14303021D01*
X5873511Y-14303021D02*
X5873511Y-14293497D01*
X5873511Y-14293497D02*
X5883035Y-14274450D01*
X5883035Y-14274450D02*
X5902082Y-14264926D01*
X5902082Y-14264926D02*
X5930654Y-14264926D01*
X5930654Y-14264926D02*
X5949702Y-14274450D01*
X6025892Y-14474450D02*
X6035416Y-14464926D01*
X6035416Y-14464926D02*
X6054463Y-14436354D01*
X6054463Y-14436354D02*
X6063987Y-14417307D01*
X6063987Y-14417307D02*
X6073511Y-14388735D01*
X6073511Y-14388735D02*
X6083035Y-14341116D01*
X6083035Y-14341116D02*
X6083035Y-14303021D01*
X6083035Y-14303021D02*
X6073511Y-14255402D01*
X6073511Y-14255402D02*
X6063987Y-14226831D01*
X6063987Y-14226831D02*
X6054463Y-14207783D01*
X6054463Y-14207783D02*
X6035416Y-14179212D01*
X6035416Y-14179212D02*
X6025892Y-14169688D01*
D12*
X1241310Y-14649757D02*
X1241310Y-14603794D01*
X1195348Y-14603794D01*
X1195348Y-14649757D01*
X1241310Y-14649757D01*
X1250829Y-14626775D02*
G75*
G02*
X1185829Y-14626775I-32500J0D01*
G01*
X1185829Y-14626775D02*
G75*
G02*
X1250829Y-14626775I32500J0D01*
G01*
D11*
X1549701Y-14518259D02*
X1568749Y-14518259D01*
X1568749Y-14518259D02*
X1587796Y-14527783D01*
X1587796Y-14527783D02*
X1597320Y-14537307D01*
X1597320Y-14537307D02*
X1606844Y-14556354D01*
X1606844Y-14556354D02*
X1616368Y-14594450D01*
X1616368Y-14594450D02*
X1616368Y-14642069D01*
X1616368Y-14642069D02*
X1606844Y-14680164D01*
X1606844Y-14680164D02*
X1597320Y-14699212D01*
X1597320Y-14699212D02*
X1587796Y-14708735D01*
X1587796Y-14708735D02*
X1568749Y-14718259D01*
X1568749Y-14718259D02*
X1549701Y-14718259D01*
X1549701Y-14718259D02*
X1530653Y-14708735D01*
X1530653Y-14708735D02*
X1521130Y-14699212D01*
X1521130Y-14699212D02*
X1511606Y-14680164D01*
X1511606Y-14680164D02*
X1502082Y-14642069D01*
X1502082Y-14642069D02*
X1502082Y-14594450D01*
X1502082Y-14594450D02*
X1511606Y-14556354D01*
X1511606Y-14556354D02*
X1521130Y-14537307D01*
X1521130Y-14537307D02*
X1530653Y-14527783D01*
X1530653Y-14527783D02*
X1549701Y-14518259D01*
X1702082Y-14699212D02*
X1711606Y-14708735D01*
X1711606Y-14708735D02*
X1702082Y-14718259D01*
X1702082Y-14718259D02*
X1692558Y-14708735D01*
X1692558Y-14708735D02*
X1702082Y-14699212D01*
X1702082Y-14699212D02*
X1702082Y-14718259D01*
X1883034Y-14518259D02*
X1844939Y-14518259D01*
X1844939Y-14518259D02*
X1825892Y-14527783D01*
X1825892Y-14527783D02*
X1816368Y-14537307D01*
X1816368Y-14537307D02*
X1797320Y-14565878D01*
X1797320Y-14565878D02*
X1787796Y-14603973D01*
X1787796Y-14603973D02*
X1787796Y-14680164D01*
X1787796Y-14680164D02*
X1797320Y-14699212D01*
X1797320Y-14699212D02*
X1806844Y-14708735D01*
X1806844Y-14708735D02*
X1825892Y-14718259D01*
X1825892Y-14718259D02*
X1863987Y-14718259D01*
X1863987Y-14718259D02*
X1883034Y-14708735D01*
X1883034Y-14708735D02*
X1892558Y-14699212D01*
X1892558Y-14699212D02*
X1902082Y-14680164D01*
X1902082Y-14680164D02*
X1902082Y-14632545D01*
X1902082Y-14632545D02*
X1892558Y-14613497D01*
X1892558Y-14613497D02*
X1883034Y-14603973D01*
X1883034Y-14603973D02*
X1863987Y-14594450D01*
X1863987Y-14594450D02*
X1825892Y-14594450D01*
X1825892Y-14594450D02*
X1806844Y-14603973D01*
X1806844Y-14603973D02*
X1797320Y-14613497D01*
X1797320Y-14613497D02*
X1787796Y-14632545D01*
X2083034Y-14518259D02*
X1987796Y-14518259D01*
X1987796Y-14518259D02*
X1978273Y-14613497D01*
X1978273Y-14613497D02*
X1987796Y-14603973D01*
X1987796Y-14603973D02*
X2006844Y-14594450D01*
X2006844Y-14594450D02*
X2054463Y-14594450D01*
X2054463Y-14594450D02*
X2073511Y-14603973D01*
X2073511Y-14603973D02*
X2083034Y-14613497D01*
X2083034Y-14613497D02*
X2092558Y-14632545D01*
X2092558Y-14632545D02*
X2092558Y-14680164D01*
X2092558Y-14680164D02*
X2083034Y-14699212D01*
X2083034Y-14699212D02*
X2073511Y-14708735D01*
X2073511Y-14708735D02*
X2054463Y-14718259D01*
X2054463Y-14718259D02*
X2006844Y-14718259D01*
X2006844Y-14718259D02*
X1987796Y-14708735D01*
X1987796Y-14708735D02*
X1978273Y-14699212D01*
X2216368Y-14518259D02*
X2235416Y-14518259D01*
X2235416Y-14518259D02*
X2254463Y-14527783D01*
X2254463Y-14527783D02*
X2263987Y-14537307D01*
X2263987Y-14537307D02*
X2273511Y-14556354D01*
X2273511Y-14556354D02*
X2283035Y-14594450D01*
X2283035Y-14594450D02*
X2283035Y-14642069D01*
X2283035Y-14642069D02*
X2273511Y-14680164D01*
X2273511Y-14680164D02*
X2263987Y-14699212D01*
X2263987Y-14699212D02*
X2254463Y-14708735D01*
X2254463Y-14708735D02*
X2235416Y-14718259D01*
X2235416Y-14718259D02*
X2216368Y-14718259D01*
X2216368Y-14718259D02*
X2197320Y-14708735D01*
X2197320Y-14708735D02*
X2187796Y-14699212D01*
X2187796Y-14699212D02*
X2178273Y-14680164D01*
X2178273Y-14680164D02*
X2168749Y-14642069D01*
X2168749Y-14642069D02*
X2168749Y-14594450D01*
X2168749Y-14594450D02*
X2178273Y-14556354D01*
X2178273Y-14556354D02*
X2187796Y-14537307D01*
X2187796Y-14537307D02*
X2197320Y-14527783D01*
X2197320Y-14527783D02*
X2216368Y-14518259D01*
X2368749Y-14718259D02*
X2368749Y-14584926D01*
X2368749Y-14603973D02*
X2378273Y-14594450D01*
X2378273Y-14594450D02*
X2397320Y-14584926D01*
X2397320Y-14584926D02*
X2425892Y-14584926D01*
X2425892Y-14584926D02*
X2444939Y-14594450D01*
X2444939Y-14594450D02*
X2454463Y-14613497D01*
X2454463Y-14613497D02*
X2454463Y-14718259D01*
X2454463Y-14613497D02*
X2463987Y-14594450D01*
X2463987Y-14594450D02*
X2483035Y-14584926D01*
X2483035Y-14584926D02*
X2511606Y-14584926D01*
X2511606Y-14584926D02*
X2530654Y-14594450D01*
X2530654Y-14594450D02*
X2540177Y-14613497D01*
X2540177Y-14613497D02*
X2540177Y-14718259D01*
X2635416Y-14718259D02*
X2635416Y-14584926D01*
X2635416Y-14603973D02*
X2644939Y-14594450D01*
X2644939Y-14594450D02*
X2663987Y-14584926D01*
X2663987Y-14584926D02*
X2692558Y-14584926D01*
X2692558Y-14584926D02*
X2711606Y-14594450D01*
X2711606Y-14594450D02*
X2721130Y-14613497D01*
X2721130Y-14613497D02*
X2721130Y-14718259D01*
X2721130Y-14613497D02*
X2730654Y-14594450D01*
X2730654Y-14594450D02*
X2749701Y-14584926D01*
X2749701Y-14584926D02*
X2778273Y-14584926D01*
X2778273Y-14584926D02*
X2797320Y-14594450D01*
X2797320Y-14594450D02*
X2806844Y-14613497D01*
X2806844Y-14613497D02*
X2806844Y-14718259D01*
X3197320Y-14508735D02*
X3025892Y-14765878D01*
X3454463Y-14518259D02*
X3473511Y-14518259D01*
X3473511Y-14518259D02*
X3492558Y-14527783D01*
X3492558Y-14527783D02*
X3502082Y-14537307D01*
X3502082Y-14537307D02*
X3511606Y-14556354D01*
X3511606Y-14556354D02*
X3521130Y-14594450D01*
X3521130Y-14594450D02*
X3521130Y-14642069D01*
X3521130Y-14642069D02*
X3511606Y-14680164D01*
X3511606Y-14680164D02*
X3502082Y-14699212D01*
X3502082Y-14699212D02*
X3492558Y-14708735D01*
X3492558Y-14708735D02*
X3473511Y-14718259D01*
X3473511Y-14718259D02*
X3454463Y-14718259D01*
X3454463Y-14718259D02*
X3435416Y-14708735D01*
X3435416Y-14708735D02*
X3425892Y-14699212D01*
X3425892Y-14699212D02*
X3416368Y-14680164D01*
X3416368Y-14680164D02*
X3406844Y-14642069D01*
X3406844Y-14642069D02*
X3406844Y-14594450D01*
X3406844Y-14594450D02*
X3416368Y-14556354D01*
X3416368Y-14556354D02*
X3425892Y-14537307D01*
X3425892Y-14537307D02*
X3435416Y-14527783D01*
X3435416Y-14527783D02*
X3454463Y-14518259D01*
X3606844Y-14699212D02*
X3616368Y-14708735D01*
X3616368Y-14708735D02*
X3606844Y-14718259D01*
X3606844Y-14718259D02*
X3597320Y-14708735D01*
X3597320Y-14708735D02*
X3606844Y-14699212D01*
X3606844Y-14699212D02*
X3606844Y-14718259D01*
X3740177Y-14518259D02*
X3759225Y-14518259D01*
X3759225Y-14518259D02*
X3778273Y-14527783D01*
X3778273Y-14527783D02*
X3787797Y-14537307D01*
X3787797Y-14537307D02*
X3797320Y-14556354D01*
X3797320Y-14556354D02*
X3806844Y-14594450D01*
X3806844Y-14594450D02*
X3806844Y-14642069D01*
X3806844Y-14642069D02*
X3797320Y-14680164D01*
X3797320Y-14680164D02*
X3787797Y-14699212D01*
X3787797Y-14699212D02*
X3778273Y-14708735D01*
X3778273Y-14708735D02*
X3759225Y-14718259D01*
X3759225Y-14718259D02*
X3740177Y-14718259D01*
X3740177Y-14718259D02*
X3721130Y-14708735D01*
X3721130Y-14708735D02*
X3711606Y-14699212D01*
X3711606Y-14699212D02*
X3702082Y-14680164D01*
X3702082Y-14680164D02*
X3692558Y-14642069D01*
X3692558Y-14642069D02*
X3692558Y-14594450D01*
X3692558Y-14594450D02*
X3702082Y-14556354D01*
X3702082Y-14556354D02*
X3711606Y-14537307D01*
X3711606Y-14537307D02*
X3721130Y-14527783D01*
X3721130Y-14527783D02*
X3740177Y-14518259D01*
X3883035Y-14537307D02*
X3892558Y-14527783D01*
X3892558Y-14527783D02*
X3911606Y-14518259D01*
X3911606Y-14518259D02*
X3959225Y-14518259D01*
X3959225Y-14518259D02*
X3978273Y-14527783D01*
X3978273Y-14527783D02*
X3987797Y-14537307D01*
X3987797Y-14537307D02*
X3997320Y-14556354D01*
X3997320Y-14556354D02*
X3997320Y-14575402D01*
X3997320Y-14575402D02*
X3987797Y-14603973D01*
X3987797Y-14603973D02*
X3873511Y-14718259D01*
X3873511Y-14718259D02*
X3997320Y-14718259D01*
X4178273Y-14518259D02*
X4083035Y-14518259D01*
X4083035Y-14518259D02*
X4073511Y-14613497D01*
X4073511Y-14613497D02*
X4083035Y-14603973D01*
X4083035Y-14603973D02*
X4102082Y-14594450D01*
X4102082Y-14594450D02*
X4149701Y-14594450D01*
X4149701Y-14594450D02*
X4168749Y-14603973D01*
X4168749Y-14603973D02*
X4178273Y-14613497D01*
X4178273Y-14613497D02*
X4187797Y-14632545D01*
X4187797Y-14632545D02*
X4187797Y-14680164D01*
X4187797Y-14680164D02*
X4178273Y-14699212D01*
X4178273Y-14699212D02*
X4168749Y-14708735D01*
X4168749Y-14708735D02*
X4149701Y-14718259D01*
X4149701Y-14718259D02*
X4102082Y-14718259D01*
X4102082Y-14718259D02*
X4083035Y-14708735D01*
X4083035Y-14708735D02*
X4073511Y-14699212D01*
X4359225Y-14518259D02*
X4321130Y-14518259D01*
X4321130Y-14518259D02*
X4302082Y-14527783D01*
X4302082Y-14527783D02*
X4292559Y-14537307D01*
X4292559Y-14537307D02*
X4273511Y-14565878D01*
X4273511Y-14565878D02*
X4263987Y-14603973D01*
X4263987Y-14603973D02*
X4263987Y-14680164D01*
X4263987Y-14680164D02*
X4273511Y-14699212D01*
X4273511Y-14699212D02*
X4283035Y-14708735D01*
X4283035Y-14708735D02*
X4302082Y-14718259D01*
X4302082Y-14718259D02*
X4340178Y-14718259D01*
X4340178Y-14718259D02*
X4359225Y-14708735D01*
X4359225Y-14708735D02*
X4368749Y-14699212D01*
X4368749Y-14699212D02*
X4378273Y-14680164D01*
X4378273Y-14680164D02*
X4378273Y-14632545D01*
X4378273Y-14632545D02*
X4368749Y-14613497D01*
X4368749Y-14613497D02*
X4359225Y-14603973D01*
X4359225Y-14603973D02*
X4340178Y-14594450D01*
X4340178Y-14594450D02*
X4302082Y-14594450D01*
X4302082Y-14594450D02*
X4283035Y-14603973D01*
X4283035Y-14603973D02*
X4273511Y-14613497D01*
X4273511Y-14613497D02*
X4263987Y-14632545D01*
X4454463Y-14518259D02*
X4454463Y-14556354D01*
X4530654Y-14518259D02*
X4530654Y-14556354D01*
X4825892Y-14794450D02*
X4816368Y-14784926D01*
X4816368Y-14784926D02*
X4797321Y-14756354D01*
X4797321Y-14756354D02*
X4787797Y-14737307D01*
X4787797Y-14737307D02*
X4778273Y-14708735D01*
X4778273Y-14708735D02*
X4768749Y-14661116D01*
X4768749Y-14661116D02*
X4768749Y-14623021D01*
X4768749Y-14623021D02*
X4778273Y-14575402D01*
X4778273Y-14575402D02*
X4787797Y-14546831D01*
X4787797Y-14546831D02*
X4797321Y-14527783D01*
X4797321Y-14527783D02*
X4816368Y-14499212D01*
X4816368Y-14499212D02*
X4825892Y-14489688D01*
X4892559Y-14537307D02*
X4902082Y-14527783D01*
X4902082Y-14527783D02*
X4921130Y-14518259D01*
X4921130Y-14518259D02*
X4968749Y-14518259D01*
X4968749Y-14518259D02*
X4987797Y-14527783D01*
X4987797Y-14527783D02*
X4997321Y-14537307D01*
X4997321Y-14537307D02*
X5006844Y-14556354D01*
X5006844Y-14556354D02*
X5006844Y-14575402D01*
X5006844Y-14575402D02*
X4997321Y-14603973D01*
X4997321Y-14603973D02*
X4883035Y-14718259D01*
X4883035Y-14718259D02*
X5006844Y-14718259D01*
X5244940Y-14718259D02*
X5244940Y-14518259D01*
X5330654Y-14718259D02*
X5330654Y-14613497D01*
X5330654Y-14613497D02*
X5321130Y-14594450D01*
X5321130Y-14594450D02*
X5302083Y-14584926D01*
X5302083Y-14584926D02*
X5273511Y-14584926D01*
X5273511Y-14584926D02*
X5254463Y-14594450D01*
X5254463Y-14594450D02*
X5244940Y-14603973D01*
X5454463Y-14718259D02*
X5435416Y-14708735D01*
X5435416Y-14708735D02*
X5425892Y-14699212D01*
X5425892Y-14699212D02*
X5416368Y-14680164D01*
X5416368Y-14680164D02*
X5416368Y-14623021D01*
X5416368Y-14623021D02*
X5425892Y-14603973D01*
X5425892Y-14603973D02*
X5435416Y-14594450D01*
X5435416Y-14594450D02*
X5454463Y-14584926D01*
X5454463Y-14584926D02*
X5483035Y-14584926D01*
X5483035Y-14584926D02*
X5502083Y-14594450D01*
X5502083Y-14594450D02*
X5511606Y-14603973D01*
X5511606Y-14603973D02*
X5521130Y-14623021D01*
X5521130Y-14623021D02*
X5521130Y-14680164D01*
X5521130Y-14680164D02*
X5511606Y-14699212D01*
X5511606Y-14699212D02*
X5502083Y-14708735D01*
X5502083Y-14708735D02*
X5483035Y-14718259D01*
X5483035Y-14718259D02*
X5454463Y-14718259D01*
X5635416Y-14718259D02*
X5616368Y-14708735D01*
X5616368Y-14708735D02*
X5606844Y-14689688D01*
X5606844Y-14689688D02*
X5606844Y-14518259D01*
X5787797Y-14708735D02*
X5768749Y-14718259D01*
X5768749Y-14718259D02*
X5730654Y-14718259D01*
X5730654Y-14718259D02*
X5711606Y-14708735D01*
X5711606Y-14708735D02*
X5702082Y-14689688D01*
X5702082Y-14689688D02*
X5702082Y-14613497D01*
X5702082Y-14613497D02*
X5711606Y-14594450D01*
X5711606Y-14594450D02*
X5730654Y-14584926D01*
X5730654Y-14584926D02*
X5768749Y-14584926D01*
X5768749Y-14584926D02*
X5787797Y-14594450D01*
X5787797Y-14594450D02*
X5797321Y-14613497D01*
X5797321Y-14613497D02*
X5797321Y-14632545D01*
X5797321Y-14632545D02*
X5702082Y-14651593D01*
X5873511Y-14708735D02*
X5892559Y-14718259D01*
X5892559Y-14718259D02*
X5930654Y-14718259D01*
X5930654Y-14718259D02*
X5949702Y-14708735D01*
X5949702Y-14708735D02*
X5959225Y-14689688D01*
X5959225Y-14689688D02*
X5959225Y-14680164D01*
X5959225Y-14680164D02*
X5949702Y-14661116D01*
X5949702Y-14661116D02*
X5930654Y-14651593D01*
X5930654Y-14651593D02*
X5902082Y-14651593D01*
X5902082Y-14651593D02*
X5883035Y-14642069D01*
X5883035Y-14642069D02*
X5873511Y-14623021D01*
X5873511Y-14623021D02*
X5873511Y-14613497D01*
X5873511Y-14613497D02*
X5883035Y-14594450D01*
X5883035Y-14594450D02*
X5902082Y-14584926D01*
X5902082Y-14584926D02*
X5930654Y-14584926D01*
X5930654Y-14584926D02*
X5949702Y-14594450D01*
X6025892Y-14794450D02*
X6035416Y-14784926D01*
X6035416Y-14784926D02*
X6054463Y-14756354D01*
X6054463Y-14756354D02*
X6063987Y-14737307D01*
X6063987Y-14737307D02*
X6073511Y-14708735D01*
X6073511Y-14708735D02*
X6083035Y-14661116D01*
X6083035Y-14661116D02*
X6083035Y-14623021D01*
X6083035Y-14623021D02*
X6073511Y-14575402D01*
X6073511Y-14575402D02*
X6063987Y-14546831D01*
X6063987Y-14546831D02*
X6054463Y-14527783D01*
X6054463Y-14527783D02*
X6035416Y-14499212D01*
X6035416Y-14499212D02*
X6025892Y-14489688D01*
X6387797Y-14794450D02*
X6378273Y-14784926D01*
X6378273Y-14784926D02*
X6359225Y-14756354D01*
X6359225Y-14756354D02*
X6349702Y-14737307D01*
X6349702Y-14737307D02*
X6340178Y-14708735D01*
X6340178Y-14708735D02*
X6330654Y-14661116D01*
X6330654Y-14661116D02*
X6330654Y-14623021D01*
X6330654Y-14623021D02*
X6340178Y-14575402D01*
X6340178Y-14575402D02*
X6349702Y-14546831D01*
X6349702Y-14546831D02*
X6359225Y-14527783D01*
X6359225Y-14527783D02*
X6378273Y-14499212D01*
X6378273Y-14499212D02*
X6387797Y-14489688D01*
X6463987Y-14584926D02*
X6463987Y-14718259D01*
X6463987Y-14603973D02*
X6473511Y-14594450D01*
X6473511Y-14594450D02*
X6492559Y-14584926D01*
X6492559Y-14584926D02*
X6521130Y-14584926D01*
X6521130Y-14584926D02*
X6540178Y-14594450D01*
X6540178Y-14594450D02*
X6549702Y-14613497D01*
X6549702Y-14613497D02*
X6549702Y-14718259D01*
X6673511Y-14718259D02*
X6654463Y-14708735D01*
X6654463Y-14708735D02*
X6644940Y-14699212D01*
X6644940Y-14699212D02*
X6635416Y-14680164D01*
X6635416Y-14680164D02*
X6635416Y-14623021D01*
X6635416Y-14623021D02*
X6644940Y-14603973D01*
X6644940Y-14603973D02*
X6654463Y-14594450D01*
X6654463Y-14594450D02*
X6673511Y-14584926D01*
X6673511Y-14584926D02*
X6702083Y-14584926D01*
X6702083Y-14584926D02*
X6721130Y-14594450D01*
X6721130Y-14594450D02*
X6730654Y-14603973D01*
X6730654Y-14603973D02*
X6740178Y-14623021D01*
X6740178Y-14623021D02*
X6740178Y-14680164D01*
X6740178Y-14680164D02*
X6730654Y-14699212D01*
X6730654Y-14699212D02*
X6721130Y-14708735D01*
X6721130Y-14708735D02*
X6702083Y-14718259D01*
X6702083Y-14718259D02*
X6673511Y-14718259D01*
X6797321Y-14584926D02*
X6873511Y-14584926D01*
X6825892Y-14518259D02*
X6825892Y-14689688D01*
X6825892Y-14689688D02*
X6835416Y-14708735D01*
X6835416Y-14708735D02*
X6854463Y-14718259D01*
X6854463Y-14718259D02*
X6873511Y-14718259D01*
X7092559Y-14584926D02*
X7092559Y-14784926D01*
X7092559Y-14594450D02*
X7111606Y-14584926D01*
X7111606Y-14584926D02*
X7149702Y-14584926D01*
X7149702Y-14584926D02*
X7168749Y-14594450D01*
X7168749Y-14594450D02*
X7178273Y-14603973D01*
X7178273Y-14603973D02*
X7187797Y-14623021D01*
X7187797Y-14623021D02*
X7187797Y-14680164D01*
X7187797Y-14680164D02*
X7178273Y-14699212D01*
X7178273Y-14699212D02*
X7168749Y-14708735D01*
X7168749Y-14708735D02*
X7149702Y-14718259D01*
X7149702Y-14718259D02*
X7111606Y-14718259D01*
X7111606Y-14718259D02*
X7092559Y-14708735D01*
X7302083Y-14718259D02*
X7283035Y-14708735D01*
X7283035Y-14708735D02*
X7273511Y-14689688D01*
X7273511Y-14689688D02*
X7273511Y-14518259D01*
X7463987Y-14718259D02*
X7463987Y-14613497D01*
X7463987Y-14613497D02*
X7454464Y-14594450D01*
X7454464Y-14594450D02*
X7435416Y-14584926D01*
X7435416Y-14584926D02*
X7397321Y-14584926D01*
X7397321Y-14584926D02*
X7378273Y-14594450D01*
X7463987Y-14708735D02*
X7444940Y-14718259D01*
X7444940Y-14718259D02*
X7397321Y-14718259D01*
X7397321Y-14718259D02*
X7378273Y-14708735D01*
X7378273Y-14708735D02*
X7368749Y-14689688D01*
X7368749Y-14689688D02*
X7368749Y-14670640D01*
X7368749Y-14670640D02*
X7378273Y-14651593D01*
X7378273Y-14651593D02*
X7397321Y-14642069D01*
X7397321Y-14642069D02*
X7444940Y-14642069D01*
X7444940Y-14642069D02*
X7463987Y-14632545D01*
X7530654Y-14584926D02*
X7606844Y-14584926D01*
X7559225Y-14518259D02*
X7559225Y-14689688D01*
X7559225Y-14689688D02*
X7568749Y-14708735D01*
X7568749Y-14708735D02*
X7587797Y-14718259D01*
X7587797Y-14718259D02*
X7606844Y-14718259D01*
X7749702Y-14708735D02*
X7730654Y-14718259D01*
X7730654Y-14718259D02*
X7692559Y-14718259D01*
X7692559Y-14718259D02*
X7673511Y-14708735D01*
X7673511Y-14708735D02*
X7663987Y-14689688D01*
X7663987Y-14689688D02*
X7663987Y-14613497D01*
X7663987Y-14613497D02*
X7673511Y-14594450D01*
X7673511Y-14594450D02*
X7692559Y-14584926D01*
X7692559Y-14584926D02*
X7730654Y-14584926D01*
X7730654Y-14584926D02*
X7749702Y-14594450D01*
X7749702Y-14594450D02*
X7759225Y-14613497D01*
X7759225Y-14613497D02*
X7759225Y-14632545D01*
X7759225Y-14632545D02*
X7663987Y-14651593D01*
X7930654Y-14718259D02*
X7930654Y-14518259D01*
X7930654Y-14708735D02*
X7911606Y-14718259D01*
X7911606Y-14718259D02*
X7873511Y-14718259D01*
X7873511Y-14718259D02*
X7854464Y-14708735D01*
X7854464Y-14708735D02*
X7844940Y-14699212D01*
X7844940Y-14699212D02*
X7835416Y-14680164D01*
X7835416Y-14680164D02*
X7835416Y-14623021D01*
X7835416Y-14623021D02*
X7844940Y-14603973D01*
X7844940Y-14603973D02*
X7854464Y-14594450D01*
X7854464Y-14594450D02*
X7873511Y-14584926D01*
X7873511Y-14584926D02*
X7911606Y-14584926D01*
X7911606Y-14584926D02*
X7930654Y-14594450D01*
X8006845Y-14794450D02*
X8016368Y-14784926D01*
X8016368Y-14784926D02*
X8035416Y-14756354D01*
X8035416Y-14756354D02*
X8044940Y-14737307D01*
X8044940Y-14737307D02*
X8054464Y-14708735D01*
X8054464Y-14708735D02*
X8063987Y-14661116D01*
X8063987Y-14661116D02*
X8063987Y-14623021D01*
X8063987Y-14623021D02*
X8054464Y-14575402D01*
X8054464Y-14575402D02*
X8044940Y-14546831D01*
X8044940Y-14546831D02*
X8035416Y-14527783D01*
X8035416Y-14527783D02*
X8016368Y-14499212D01*
X8016368Y-14499212D02*
X8006845Y-14489688D01*
D13*
X1195829Y-14945775D02*
X1250829Y-14890775D01*
X1195829Y-14835775D01*
X1140829Y-14890775D01*
X1195829Y-14945775D01*
X1250829Y-14890775D02*
G75*
G02*
X1140829Y-14890775I-55000J0D01*
G01*
X1140829Y-14890775D02*
G75*
G02*
X1250829Y-14890775I55000J0D01*
G01*
D11*
X1616368Y-14982259D02*
X1502082Y-14982259D01*
X1559225Y-14982259D02*
X1559225Y-14782259D01*
X1559225Y-14782259D02*
X1540177Y-14810831D01*
X1540177Y-14810831D02*
X1521130Y-14829878D01*
X1521130Y-14829878D02*
X1502082Y-14839402D01*
X1702082Y-14963212D02*
X1711606Y-14972735D01*
X1711606Y-14972735D02*
X1702082Y-14982259D01*
X1702082Y-14982259D02*
X1692558Y-14972735D01*
X1692558Y-14972735D02*
X1702082Y-14963212D01*
X1702082Y-14963212D02*
X1702082Y-14982259D01*
X1902082Y-14982259D02*
X1787796Y-14982259D01*
X1844939Y-14982259D02*
X1844939Y-14782259D01*
X1844939Y-14782259D02*
X1825892Y-14810831D01*
X1825892Y-14810831D02*
X1806844Y-14829878D01*
X1806844Y-14829878D02*
X1787796Y-14839402D01*
X2025892Y-14782259D02*
X2044939Y-14782259D01*
X2044939Y-14782259D02*
X2063987Y-14791783D01*
X2063987Y-14791783D02*
X2073511Y-14801307D01*
X2073511Y-14801307D02*
X2083034Y-14820354D01*
X2083034Y-14820354D02*
X2092558Y-14858450D01*
X2092558Y-14858450D02*
X2092558Y-14906069D01*
X2092558Y-14906069D02*
X2083034Y-14944164D01*
X2083034Y-14944164D02*
X2073511Y-14963212D01*
X2073511Y-14963212D02*
X2063987Y-14972735D01*
X2063987Y-14972735D02*
X2044939Y-14982259D01*
X2044939Y-14982259D02*
X2025892Y-14982259D01*
X2025892Y-14982259D02*
X2006844Y-14972735D01*
X2006844Y-14972735D02*
X1997320Y-14963212D01*
X1997320Y-14963212D02*
X1987796Y-14944164D01*
X1987796Y-14944164D02*
X1978273Y-14906069D01*
X1978273Y-14906069D02*
X1978273Y-14858450D01*
X1978273Y-14858450D02*
X1987796Y-14820354D01*
X1987796Y-14820354D02*
X1997320Y-14801307D01*
X1997320Y-14801307D02*
X2006844Y-14791783D01*
X2006844Y-14791783D02*
X2025892Y-14782259D01*
X2216368Y-14782259D02*
X2235416Y-14782259D01*
X2235416Y-14782259D02*
X2254463Y-14791783D01*
X2254463Y-14791783D02*
X2263987Y-14801307D01*
X2263987Y-14801307D02*
X2273511Y-14820354D01*
X2273511Y-14820354D02*
X2283035Y-14858450D01*
X2283035Y-14858450D02*
X2283035Y-14906069D01*
X2283035Y-14906069D02*
X2273511Y-14944164D01*
X2273511Y-14944164D02*
X2263987Y-14963212D01*
X2263987Y-14963212D02*
X2254463Y-14972735D01*
X2254463Y-14972735D02*
X2235416Y-14982259D01*
X2235416Y-14982259D02*
X2216368Y-14982259D01*
X2216368Y-14982259D02*
X2197320Y-14972735D01*
X2197320Y-14972735D02*
X2187796Y-14963212D01*
X2187796Y-14963212D02*
X2178273Y-14944164D01*
X2178273Y-14944164D02*
X2168749Y-14906069D01*
X2168749Y-14906069D02*
X2168749Y-14858450D01*
X2168749Y-14858450D02*
X2178273Y-14820354D01*
X2178273Y-14820354D02*
X2187796Y-14801307D01*
X2187796Y-14801307D02*
X2197320Y-14791783D01*
X2197320Y-14791783D02*
X2216368Y-14782259D01*
X2368749Y-14982259D02*
X2368749Y-14848926D01*
X2368749Y-14867973D02*
X2378273Y-14858450D01*
X2378273Y-14858450D02*
X2397320Y-14848926D01*
X2397320Y-14848926D02*
X2425892Y-14848926D01*
X2425892Y-14848926D02*
X2444939Y-14858450D01*
X2444939Y-14858450D02*
X2454463Y-14877497D01*
X2454463Y-14877497D02*
X2454463Y-14982259D01*
X2454463Y-14877497D02*
X2463987Y-14858450D01*
X2463987Y-14858450D02*
X2483035Y-14848926D01*
X2483035Y-14848926D02*
X2511606Y-14848926D01*
X2511606Y-14848926D02*
X2530654Y-14858450D01*
X2530654Y-14858450D02*
X2540177Y-14877497D01*
X2540177Y-14877497D02*
X2540177Y-14982259D01*
X2635416Y-14982259D02*
X2635416Y-14848926D01*
X2635416Y-14867973D02*
X2644939Y-14858450D01*
X2644939Y-14858450D02*
X2663987Y-14848926D01*
X2663987Y-14848926D02*
X2692558Y-14848926D01*
X2692558Y-14848926D02*
X2711606Y-14858450D01*
X2711606Y-14858450D02*
X2721130Y-14877497D01*
X2721130Y-14877497D02*
X2721130Y-14982259D01*
X2721130Y-14877497D02*
X2730654Y-14858450D01*
X2730654Y-14858450D02*
X2749701Y-14848926D01*
X2749701Y-14848926D02*
X2778273Y-14848926D01*
X2778273Y-14848926D02*
X2797320Y-14858450D01*
X2797320Y-14858450D02*
X2806844Y-14877497D01*
X2806844Y-14877497D02*
X2806844Y-14982259D01*
X3197320Y-14772735D02*
X3025892Y-15029878D01*
X3454463Y-14782259D02*
X3473511Y-14782259D01*
X3473511Y-14782259D02*
X3492558Y-14791783D01*
X3492558Y-14791783D02*
X3502082Y-14801307D01*
X3502082Y-14801307D02*
X3511606Y-14820354D01*
X3511606Y-14820354D02*
X3521130Y-14858450D01*
X3521130Y-14858450D02*
X3521130Y-14906069D01*
X3521130Y-14906069D02*
X3511606Y-14944164D01*
X3511606Y-14944164D02*
X3502082Y-14963212D01*
X3502082Y-14963212D02*
X3492558Y-14972735D01*
X3492558Y-14972735D02*
X3473511Y-14982259D01*
X3473511Y-14982259D02*
X3454463Y-14982259D01*
X3454463Y-14982259D02*
X3435416Y-14972735D01*
X3435416Y-14972735D02*
X3425892Y-14963212D01*
X3425892Y-14963212D02*
X3416368Y-14944164D01*
X3416368Y-14944164D02*
X3406844Y-14906069D01*
X3406844Y-14906069D02*
X3406844Y-14858450D01*
X3406844Y-14858450D02*
X3416368Y-14820354D01*
X3416368Y-14820354D02*
X3425892Y-14801307D01*
X3425892Y-14801307D02*
X3435416Y-14791783D01*
X3435416Y-14791783D02*
X3454463Y-14782259D01*
X3606844Y-14963212D02*
X3616368Y-14972735D01*
X3616368Y-14972735D02*
X3606844Y-14982259D01*
X3606844Y-14982259D02*
X3597320Y-14972735D01*
X3597320Y-14972735D02*
X3606844Y-14963212D01*
X3606844Y-14963212D02*
X3606844Y-14982259D01*
X3740177Y-14782259D02*
X3759225Y-14782259D01*
X3759225Y-14782259D02*
X3778273Y-14791783D01*
X3778273Y-14791783D02*
X3787797Y-14801307D01*
X3787797Y-14801307D02*
X3797320Y-14820354D01*
X3797320Y-14820354D02*
X3806844Y-14858450D01*
X3806844Y-14858450D02*
X3806844Y-14906069D01*
X3806844Y-14906069D02*
X3797320Y-14944164D01*
X3797320Y-14944164D02*
X3787797Y-14963212D01*
X3787797Y-14963212D02*
X3778273Y-14972735D01*
X3778273Y-14972735D02*
X3759225Y-14982259D01*
X3759225Y-14982259D02*
X3740177Y-14982259D01*
X3740177Y-14982259D02*
X3721130Y-14972735D01*
X3721130Y-14972735D02*
X3711606Y-14963212D01*
X3711606Y-14963212D02*
X3702082Y-14944164D01*
X3702082Y-14944164D02*
X3692558Y-14906069D01*
X3692558Y-14906069D02*
X3692558Y-14858450D01*
X3692558Y-14858450D02*
X3702082Y-14820354D01*
X3702082Y-14820354D02*
X3711606Y-14801307D01*
X3711606Y-14801307D02*
X3721130Y-14791783D01*
X3721130Y-14791783D02*
X3740177Y-14782259D01*
X3978273Y-14848926D02*
X3978273Y-14982259D01*
X3930654Y-14772735D02*
X3883035Y-14915593D01*
X3883035Y-14915593D02*
X4006844Y-14915593D01*
X4063987Y-14782259D02*
X4187797Y-14782259D01*
X4187797Y-14782259D02*
X4121130Y-14858450D01*
X4121130Y-14858450D02*
X4149701Y-14858450D01*
X4149701Y-14858450D02*
X4168749Y-14867973D01*
X4168749Y-14867973D02*
X4178273Y-14877497D01*
X4178273Y-14877497D02*
X4187797Y-14896545D01*
X4187797Y-14896545D02*
X4187797Y-14944164D01*
X4187797Y-14944164D02*
X4178273Y-14963212D01*
X4178273Y-14963212D02*
X4168749Y-14972735D01*
X4168749Y-14972735D02*
X4149701Y-14982259D01*
X4149701Y-14982259D02*
X4092558Y-14982259D01*
X4092558Y-14982259D02*
X4073511Y-14972735D01*
X4073511Y-14972735D02*
X4063987Y-14963212D01*
X4254463Y-14782259D02*
X4378273Y-14782259D01*
X4378273Y-14782259D02*
X4311606Y-14858450D01*
X4311606Y-14858450D02*
X4340178Y-14858450D01*
X4340178Y-14858450D02*
X4359225Y-14867973D01*
X4359225Y-14867973D02*
X4368749Y-14877497D01*
X4368749Y-14877497D02*
X4378273Y-14896545D01*
X4378273Y-14896545D02*
X4378273Y-14944164D01*
X4378273Y-14944164D02*
X4368749Y-14963212D01*
X4368749Y-14963212D02*
X4359225Y-14972735D01*
X4359225Y-14972735D02*
X4340178Y-14982259D01*
X4340178Y-14982259D02*
X4283035Y-14982259D01*
X4283035Y-14982259D02*
X4263987Y-14972735D01*
X4263987Y-14972735D02*
X4254463Y-14963212D01*
X4454463Y-14782259D02*
X4454463Y-14820354D01*
X4530654Y-14782259D02*
X4530654Y-14820354D01*
X4825892Y-15058450D02*
X4816368Y-15048926D01*
X4816368Y-15048926D02*
X4797321Y-15020354D01*
X4797321Y-15020354D02*
X4787797Y-15001307D01*
X4787797Y-15001307D02*
X4778273Y-14972735D01*
X4778273Y-14972735D02*
X4768749Y-14925116D01*
X4768749Y-14925116D02*
X4768749Y-14887021D01*
X4768749Y-14887021D02*
X4778273Y-14839402D01*
X4778273Y-14839402D02*
X4787797Y-14810831D01*
X4787797Y-14810831D02*
X4797321Y-14791783D01*
X4797321Y-14791783D02*
X4816368Y-14763212D01*
X4816368Y-14763212D02*
X4825892Y-14753688D01*
X4987797Y-14848926D02*
X4987797Y-14982259D01*
X4940178Y-14772735D02*
X4892559Y-14915593D01*
X4892559Y-14915593D02*
X5016368Y-14915593D01*
X5244940Y-14982259D02*
X5244940Y-14782259D01*
X5330654Y-14982259D02*
X5330654Y-14877497D01*
X5330654Y-14877497D02*
X5321130Y-14858450D01*
X5321130Y-14858450D02*
X5302083Y-14848926D01*
X5302083Y-14848926D02*
X5273511Y-14848926D01*
X5273511Y-14848926D02*
X5254463Y-14858450D01*
X5254463Y-14858450D02*
X5244940Y-14867973D01*
X5454463Y-14982259D02*
X5435416Y-14972735D01*
X5435416Y-14972735D02*
X5425892Y-14963212D01*
X5425892Y-14963212D02*
X5416368Y-14944164D01*
X5416368Y-14944164D02*
X5416368Y-14887021D01*
X5416368Y-14887021D02*
X5425892Y-14867973D01*
X5425892Y-14867973D02*
X5435416Y-14858450D01*
X5435416Y-14858450D02*
X5454463Y-14848926D01*
X5454463Y-14848926D02*
X5483035Y-14848926D01*
X5483035Y-14848926D02*
X5502083Y-14858450D01*
X5502083Y-14858450D02*
X5511606Y-14867973D01*
X5511606Y-14867973D02*
X5521130Y-14887021D01*
X5521130Y-14887021D02*
X5521130Y-14944164D01*
X5521130Y-14944164D02*
X5511606Y-14963212D01*
X5511606Y-14963212D02*
X5502083Y-14972735D01*
X5502083Y-14972735D02*
X5483035Y-14982259D01*
X5483035Y-14982259D02*
X5454463Y-14982259D01*
X5635416Y-14982259D02*
X5616368Y-14972735D01*
X5616368Y-14972735D02*
X5606844Y-14953688D01*
X5606844Y-14953688D02*
X5606844Y-14782259D01*
X5787797Y-14972735D02*
X5768749Y-14982259D01*
X5768749Y-14982259D02*
X5730654Y-14982259D01*
X5730654Y-14982259D02*
X5711606Y-14972735D01*
X5711606Y-14972735D02*
X5702082Y-14953688D01*
X5702082Y-14953688D02*
X5702082Y-14877497D01*
X5702082Y-14877497D02*
X5711606Y-14858450D01*
X5711606Y-14858450D02*
X5730654Y-14848926D01*
X5730654Y-14848926D02*
X5768749Y-14848926D01*
X5768749Y-14848926D02*
X5787797Y-14858450D01*
X5787797Y-14858450D02*
X5797321Y-14877497D01*
X5797321Y-14877497D02*
X5797321Y-14896545D01*
X5797321Y-14896545D02*
X5702082Y-14915593D01*
X5873511Y-14972735D02*
X5892559Y-14982259D01*
X5892559Y-14982259D02*
X5930654Y-14982259D01*
X5930654Y-14982259D02*
X5949702Y-14972735D01*
X5949702Y-14972735D02*
X5959225Y-14953688D01*
X5959225Y-14953688D02*
X5959225Y-14944164D01*
X5959225Y-14944164D02*
X5949702Y-14925116D01*
X5949702Y-14925116D02*
X5930654Y-14915593D01*
X5930654Y-14915593D02*
X5902082Y-14915593D01*
X5902082Y-14915593D02*
X5883035Y-14906069D01*
X5883035Y-14906069D02*
X5873511Y-14887021D01*
X5873511Y-14887021D02*
X5873511Y-14877497D01*
X5873511Y-14877497D02*
X5883035Y-14858450D01*
X5883035Y-14858450D02*
X5902082Y-14848926D01*
X5902082Y-14848926D02*
X5930654Y-14848926D01*
X5930654Y-14848926D02*
X5949702Y-14858450D01*
X6025892Y-15058450D02*
X6035416Y-15048926D01*
X6035416Y-15048926D02*
X6054463Y-15020354D01*
X6054463Y-15020354D02*
X6063987Y-15001307D01*
X6063987Y-15001307D02*
X6073511Y-14972735D01*
X6073511Y-14972735D02*
X6083035Y-14925116D01*
X6083035Y-14925116D02*
X6083035Y-14887021D01*
X6083035Y-14887021D02*
X6073511Y-14839402D01*
X6073511Y-14839402D02*
X6063987Y-14810831D01*
X6063987Y-14810831D02*
X6054463Y-14791783D01*
X6054463Y-14791783D02*
X6035416Y-14763212D01*
X6035416Y-14763212D02*
X6025892Y-14753688D01*
X6387797Y-15058450D02*
X6378273Y-15048926D01*
X6378273Y-15048926D02*
X6359225Y-15020354D01*
X6359225Y-15020354D02*
X6349702Y-15001307D01*
X6349702Y-15001307D02*
X6340178Y-14972735D01*
X6340178Y-14972735D02*
X6330654Y-14925116D01*
X6330654Y-14925116D02*
X6330654Y-14887021D01*
X6330654Y-14887021D02*
X6340178Y-14839402D01*
X6340178Y-14839402D02*
X6349702Y-14810831D01*
X6349702Y-14810831D02*
X6359225Y-14791783D01*
X6359225Y-14791783D02*
X6378273Y-14763212D01*
X6378273Y-14763212D02*
X6387797Y-14753688D01*
X6463987Y-14848926D02*
X6463987Y-14982259D01*
X6463987Y-14867973D02*
X6473511Y-14858450D01*
X6473511Y-14858450D02*
X6492559Y-14848926D01*
X6492559Y-14848926D02*
X6521130Y-14848926D01*
X6521130Y-14848926D02*
X6540178Y-14858450D01*
X6540178Y-14858450D02*
X6549702Y-14877497D01*
X6549702Y-14877497D02*
X6549702Y-14982259D01*
X6673511Y-14982259D02*
X6654463Y-14972735D01*
X6654463Y-14972735D02*
X6644940Y-14963212D01*
X6644940Y-14963212D02*
X6635416Y-14944164D01*
X6635416Y-14944164D02*
X6635416Y-14887021D01*
X6635416Y-14887021D02*
X6644940Y-14867973D01*
X6644940Y-14867973D02*
X6654463Y-14858450D01*
X6654463Y-14858450D02*
X6673511Y-14848926D01*
X6673511Y-14848926D02*
X6702083Y-14848926D01*
X6702083Y-14848926D02*
X6721130Y-14858450D01*
X6721130Y-14858450D02*
X6730654Y-14867973D01*
X6730654Y-14867973D02*
X6740178Y-14887021D01*
X6740178Y-14887021D02*
X6740178Y-14944164D01*
X6740178Y-14944164D02*
X6730654Y-14963212D01*
X6730654Y-14963212D02*
X6721130Y-14972735D01*
X6721130Y-14972735D02*
X6702083Y-14982259D01*
X6702083Y-14982259D02*
X6673511Y-14982259D01*
X6797321Y-14848926D02*
X6873511Y-14848926D01*
X6825892Y-14782259D02*
X6825892Y-14953688D01*
X6825892Y-14953688D02*
X6835416Y-14972735D01*
X6835416Y-14972735D02*
X6854463Y-14982259D01*
X6854463Y-14982259D02*
X6873511Y-14982259D01*
X7092559Y-14848926D02*
X7092559Y-15048926D01*
X7092559Y-14858450D02*
X7111606Y-14848926D01*
X7111606Y-14848926D02*
X7149702Y-14848926D01*
X7149702Y-14848926D02*
X7168749Y-14858450D01*
X7168749Y-14858450D02*
X7178273Y-14867973D01*
X7178273Y-14867973D02*
X7187797Y-14887021D01*
X7187797Y-14887021D02*
X7187797Y-14944164D01*
X7187797Y-14944164D02*
X7178273Y-14963212D01*
X7178273Y-14963212D02*
X7168749Y-14972735D01*
X7168749Y-14972735D02*
X7149702Y-14982259D01*
X7149702Y-14982259D02*
X7111606Y-14982259D01*
X7111606Y-14982259D02*
X7092559Y-14972735D01*
X7302083Y-14982259D02*
X7283035Y-14972735D01*
X7283035Y-14972735D02*
X7273511Y-14953688D01*
X7273511Y-14953688D02*
X7273511Y-14782259D01*
X7463987Y-14982259D02*
X7463987Y-14877497D01*
X7463987Y-14877497D02*
X7454464Y-14858450D01*
X7454464Y-14858450D02*
X7435416Y-14848926D01*
X7435416Y-14848926D02*
X7397321Y-14848926D01*
X7397321Y-14848926D02*
X7378273Y-14858450D01*
X7463987Y-14972735D02*
X7444940Y-14982259D01*
X7444940Y-14982259D02*
X7397321Y-14982259D01*
X7397321Y-14982259D02*
X7378273Y-14972735D01*
X7378273Y-14972735D02*
X7368749Y-14953688D01*
X7368749Y-14953688D02*
X7368749Y-14934640D01*
X7368749Y-14934640D02*
X7378273Y-14915593D01*
X7378273Y-14915593D02*
X7397321Y-14906069D01*
X7397321Y-14906069D02*
X7444940Y-14906069D01*
X7444940Y-14906069D02*
X7463987Y-14896545D01*
X7530654Y-14848926D02*
X7606844Y-14848926D01*
X7559225Y-14782259D02*
X7559225Y-14953688D01*
X7559225Y-14953688D02*
X7568749Y-14972735D01*
X7568749Y-14972735D02*
X7587797Y-14982259D01*
X7587797Y-14982259D02*
X7606844Y-14982259D01*
X7749702Y-14972735D02*
X7730654Y-14982259D01*
X7730654Y-14982259D02*
X7692559Y-14982259D01*
X7692559Y-14982259D02*
X7673511Y-14972735D01*
X7673511Y-14972735D02*
X7663987Y-14953688D01*
X7663987Y-14953688D02*
X7663987Y-14877497D01*
X7663987Y-14877497D02*
X7673511Y-14858450D01*
X7673511Y-14858450D02*
X7692559Y-14848926D01*
X7692559Y-14848926D02*
X7730654Y-14848926D01*
X7730654Y-14848926D02*
X7749702Y-14858450D01*
X7749702Y-14858450D02*
X7759225Y-14877497D01*
X7759225Y-14877497D02*
X7759225Y-14896545D01*
X7759225Y-14896545D02*
X7663987Y-14915593D01*
X7930654Y-14982259D02*
X7930654Y-14782259D01*
X7930654Y-14972735D02*
X7911606Y-14982259D01*
X7911606Y-14982259D02*
X7873511Y-14982259D01*
X7873511Y-14982259D02*
X7854464Y-14972735D01*
X7854464Y-14972735D02*
X7844940Y-14963212D01*
X7844940Y-14963212D02*
X7835416Y-14944164D01*
X7835416Y-14944164D02*
X7835416Y-14887021D01*
X7835416Y-14887021D02*
X7844940Y-14867973D01*
X7844940Y-14867973D02*
X7854464Y-14858450D01*
X7854464Y-14858450D02*
X7873511Y-14848926D01*
X7873511Y-14848926D02*
X7911606Y-14848926D01*
X7911606Y-14848926D02*
X7930654Y-14858450D01*
X8006845Y-15058450D02*
X8016368Y-15048926D01*
X8016368Y-15048926D02*
X8035416Y-15020354D01*
X8035416Y-15020354D02*
X8044940Y-15001307D01*
X8044940Y-15001307D02*
X8054464Y-14972735D01*
X8054464Y-14972735D02*
X8063987Y-14925116D01*
X8063987Y-14925116D02*
X8063987Y-14887021D01*
X8063987Y-14887021D02*
X8054464Y-14839402D01*
X8054464Y-14839402D02*
X8044940Y-14810831D01*
X8044940Y-14810831D02*
X8035416Y-14791783D01*
X8035416Y-14791783D02*
X8016368Y-14763212D01*
X8016368Y-14763212D02*
X8006845Y-14753688D01*
M02*
