%TF.GenerationSoftware,KiCad,Pcbnew,10.0.5-10.0.5~ubuntu24.04.1*%
%TF.CreationDate,2026-09-15T12:25:00-05:00*%
%TF.ProjectId,ORCA-BOARD,4f524341-2d42-44f4-9152-442e6b696361,rev?*%
%TF.SameCoordinates,Original*%
%TF.FileFunction,Copper,L1,Top*%
%TF.FilePolarity,Positive*%
%FSLAX46Y46*%
G04 Gerber Fmt 4.6, Leading zero omitted, Abs format (unit mm)*
G04 Created by KiCad (PCBNEW 10.0.5-10.0.5~ubuntu24.04.1) date 2026-09-15 12:25:00*
%MOMM*%
%LPD*%
G01*
G04 APERTURE LIST*
G04 Aperture macros list*
%AMRoundRect*
0 Rectangle with rounded corners*
0 $1 Rounding radius*
0 $2 $3 $4 $5 $6 $7 $8 $9 X,Y pos of 4 corners*
0 Add a 4 corners polygon primitive as box body*
4,1,4,$2,$3,$4,$5,$6,$7,$8,$9,$2,$3,0*
0 Add four circle primitives for the rounded corners*
1,1,$1+$1,$2,$3*
1,1,$1+$1,$4,$5*
1,1,$1+$1,$6,$7*
1,1,$1+$1,$8,$9*
0 Add four rect primitives between the rounded corners*
20,1,$1+$1,$2,$3,$4,$5,0*
20,1,$1+$1,$4,$5,$6,$7,0*
20,1,$1+$1,$6,$7,$8,$9,0*
20,1,$1+$1,$8,$9,$2,$3,0*%
G04 Aperture macros list end*
%TA.AperFunction,SMDPad,CuDef*%
%ADD10RoundRect,0.250000X1.400000X1.000000X-1.400000X1.000000X-1.400000X-1.000000X1.400000X-1.000000X0*%
%TD*%
%TA.AperFunction,SMDPad,CuDef*%
%ADD11RoundRect,0.237500X0.287500X0.237500X-0.287500X0.237500X-0.287500X-0.237500X0.287500X-0.237500X0*%
%TD*%
%TA.AperFunction,SMDPad,CuDef*%
%ADD12RoundRect,0.250000X-0.650000X1.500000X-0.650000X-1.500000X0.650000X-1.500000X0.650000X1.500000X0*%
%TD*%
%TA.AperFunction,ComponentPad*%
%ADD13RoundRect,1.500000X1.500000X1.500000X-1.500000X1.500000X-1.500000X-1.500000X1.500000X-1.500000X0*%
%TD*%
%TA.AperFunction,ComponentPad*%
%ADD14C,6.000000*%
%TD*%
%TA.AperFunction,ComponentPad*%
%ADD15RoundRect,0.250000X0.750000X-0.600000X0.750000X0.600000X-0.750000X0.600000X-0.750000X-0.600000X0*%
%TD*%
%TA.AperFunction,ComponentPad*%
%ADD16O,2.000000X1.700000*%
%TD*%
%TA.AperFunction,SMDPad,CuDef*%
%ADD17RoundRect,0.237500X-0.237500X0.300000X-0.237500X-0.300000X0.237500X-0.300000X0.237500X0.300000X0*%
%TD*%
%TA.AperFunction,SMDPad,CuDef*%
%ADD18RoundRect,0.237500X0.237500X-0.250000X0.237500X0.250000X-0.237500X0.250000X-0.237500X-0.250000X0*%
%TD*%
%TA.AperFunction,SMDPad,CuDef*%
%ADD19RoundRect,0.237500X0.300000X0.237500X-0.300000X0.237500X-0.300000X-0.237500X0.300000X-0.237500X0*%
%TD*%
%TA.AperFunction,SMDPad,CuDef*%
%ADD20RoundRect,0.237500X-0.300000X-0.237500X0.300000X-0.237500X0.300000X0.237500X-0.300000X0.237500X0*%
%TD*%
%TA.AperFunction,SMDPad,CuDef*%
%ADD21RoundRect,0.237500X-0.287500X-0.237500X0.287500X-0.237500X0.287500X0.237500X-0.287500X0.237500X0*%
%TD*%
%TA.AperFunction,SMDPad,CuDef*%
%ADD22R,1.500000X0.900000*%
%TD*%
%TA.AperFunction,SMDPad,CuDef*%
%ADD23R,0.900000X1.500000*%
%TD*%
%TA.AperFunction,HeatsinkPad*%
%ADD24C,0.600000*%
%TD*%
%TA.AperFunction,HeatsinkPad*%
%ADD25R,3.900000X3.900000*%
%TD*%
%TA.AperFunction,SMDPad,CuDef*%
%ADD26R,1.500000X2.200000*%
%TD*%
%TA.AperFunction,SMDPad,CuDef*%
%ADD27RoundRect,0.150000X-0.150000X0.825000X-0.150000X-0.825000X0.150000X-0.825000X0.150000X0.825000X0*%
%TD*%
%TA.AperFunction,ComponentPad*%
%ADD28RoundRect,0.249999X0.850001X-0.850001X0.850001X0.850001X-0.850001X0.850001X-0.850001X-0.850001X0*%
%TD*%
%TA.AperFunction,ComponentPad*%
%ADD29C,2.200000*%
%TD*%
%TA.AperFunction,SMDPad,CuDef*%
%ADD30RoundRect,0.051250X0.153750X-0.733750X0.153750X0.733750X-0.153750X0.733750X-0.153750X-0.733750X0*%
%TD*%
%TA.AperFunction,SMDPad,CuDef*%
%ADD31R,3.400000X2.480000*%
%TD*%
%TA.AperFunction,ComponentPad*%
%ADD32RoundRect,0.250000X0.725000X-0.600000X0.725000X0.600000X-0.725000X0.600000X-0.725000X-0.600000X0*%
%TD*%
%TA.AperFunction,ComponentPad*%
%ADD33O,1.950000X1.700000*%
%TD*%
%TA.AperFunction,SMDPad,CuDef*%
%ADD34RoundRect,0.237500X0.237500X-0.287500X0.237500X0.287500X-0.237500X0.287500X-0.237500X-0.287500X0*%
%TD*%
%TA.AperFunction,SMDPad,CuDef*%
%ADD35RoundRect,0.237500X0.237500X-0.300000X0.237500X0.300000X-0.237500X0.300000X-0.237500X-0.300000X0*%
%TD*%
%TA.AperFunction,SMDPad,CuDef*%
%ADD36R,1.181100X0.558800*%
%TD*%
%TA.AperFunction,ComponentPad*%
%ADD37R,1.700000X1.700000*%
%TD*%
%TA.AperFunction,ComponentPad*%
%ADD38C,1.700000*%
%TD*%
%TA.AperFunction,SMDPad,CuDef*%
%ADD39RoundRect,0.237500X-0.237500X0.250000X-0.237500X-0.250000X0.237500X-0.250000X0.237500X0.250000X0*%
%TD*%
%TA.AperFunction,SMDPad,CuDef*%
%ADD40RoundRect,0.237500X0.250000X0.237500X-0.250000X0.237500X-0.250000X-0.237500X0.250000X-0.237500X0*%
%TD*%
%TA.AperFunction,SMDPad,CuDef*%
%ADD41R,1.550000X1.300000*%
%TD*%
%TA.AperFunction,SMDPad,CuDef*%
%ADD42RoundRect,0.237500X-0.250000X-0.237500X0.250000X-0.237500X0.250000X0.237500X-0.250000X0.237500X0*%
%TD*%
%TA.AperFunction,SMDPad,CuDef*%
%ADD43RoundRect,0.150000X-0.425000X0.150000X-0.425000X-0.150000X0.425000X-0.150000X0.425000X0.150000X0*%
%TD*%
%TA.AperFunction,SMDPad,CuDef*%
%ADD44RoundRect,0.075000X-0.500000X0.075000X-0.500000X-0.075000X0.500000X-0.075000X0.500000X0.075000X0*%
%TD*%
%TA.AperFunction,ComponentPad*%
%ADD45O,2.100000X1.000000*%
%TD*%
%TA.AperFunction,ComponentPad*%
%ADD46O,1.800000X1.000000*%
%TD*%
%TA.AperFunction,SMDPad,CuDef*%
%ADD47RoundRect,0.250000X1.950000X1.000000X-1.950000X1.000000X-1.950000X-1.000000X1.950000X-1.000000X0*%
%TD*%
%TA.AperFunction,SMDPad,CuDef*%
%ADD48RoundRect,0.250000X-1.000000X1.950000X-1.000000X-1.950000X1.000000X-1.950000X1.000000X1.950000X0*%
%TD*%
%TA.AperFunction,SMDPad,CuDef*%
%ADD49RoundRect,0.250000X0.650000X-1.500000X0.650000X1.500000X-0.650000X1.500000X-0.650000X-1.500000X0*%
%TD*%
%TA.AperFunction,SMDPad,CuDef*%
%ADD50RoundRect,0.100000X0.100000X-0.637500X0.100000X0.637500X-0.100000X0.637500X-0.100000X-0.637500X0*%
%TD*%
%TA.AperFunction,SMDPad,CuDef*%
%ADD51RoundRect,0.250000X0.650000X-0.412500X0.650000X0.412500X-0.650000X0.412500X-0.650000X-0.412500X0*%
%TD*%
%TA.AperFunction,SMDPad,CuDef*%
%ADD52RoundRect,0.250000X-1.000000X-0.900000X1.000000X-0.900000X1.000000X0.900000X-1.000000X0.900000X0*%
%TD*%
%TA.AperFunction,SMDPad,CuDef*%
%ADD53RoundRect,0.375000X0.625000X0.375000X-0.625000X0.375000X-0.625000X-0.375000X0.625000X-0.375000X0*%
%TD*%
%TA.AperFunction,SMDPad,CuDef*%
%ADD54RoundRect,0.500000X0.500000X1.400000X-0.500000X1.400000X-0.500000X-1.400000X0.500000X-1.400000X0*%
%TD*%
%TA.AperFunction,SMDPad,CuDef*%
%ADD55RoundRect,0.051250X-0.153750X0.733750X-0.153750X-0.733750X0.153750X-0.733750X0.153750X0.733750X0*%
%TD*%
%TA.AperFunction,SMDPad,CuDef*%
%ADD56RoundRect,0.250000X-0.650000X0.412500X-0.650000X-0.412500X0.650000X-0.412500X0.650000X0.412500X0*%
%TD*%
%TA.AperFunction,ComponentPad*%
%ADD57RoundRect,0.250000X-0.615000X0.265000X-0.615000X-0.265000X0.615000X-0.265000X0.615000X0.265000X0*%
%TD*%
%TA.AperFunction,ComponentPad*%
%ADD58O,1.730000X1.030000*%
%TD*%
%TA.AperFunction,ComponentPad*%
%ADD59C,3.200000*%
%TD*%
%TA.AperFunction,ComponentPad*%
%ADD60C,1.778000*%
%TD*%
%TA.AperFunction,ComponentPad*%
%ADD61RoundRect,0.249999X-0.850001X0.850001X-0.850001X-0.850001X0.850001X-0.850001X0.850001X0.850001X0*%
%TD*%
%TA.AperFunction,ViaPad*%
%ADD62C,0.450000*%
%TD*%
%TA.AperFunction,ViaPad*%
%ADD63C,0.600000*%
%TD*%
%TA.AperFunction,Conductor*%
%ADD64C,0.200000*%
%TD*%
%TA.AperFunction,Conductor*%
%ADD65C,0.300000*%
%TD*%
%TA.AperFunction,Conductor*%
%ADD66C,1.500000*%
%TD*%
%TA.AperFunction,Conductor*%
%ADD67C,0.350000*%
%TD*%
%TA.AperFunction,Conductor*%
%ADD68C,0.700000*%
%TD*%
%TA.AperFunction,Conductor*%
%ADD69C,0.400000*%
%TD*%
%TA.AperFunction,Conductor*%
%ADD70C,0.500000*%
%TD*%
%TA.AperFunction,Conductor*%
%ADD71C,0.140000*%
%TD*%
%TA.AperFunction,Conductor*%
%ADD72C,0.180000*%
%TD*%
%TA.AperFunction,Conductor*%
%ADD73C,0.220000*%
%TD*%
%TA.AperFunction,Conductor*%
%ADD74C,0.260000*%
%TD*%
%TA.AperFunction,Conductor*%
%ADD75C,0.150000*%
%TD*%
%TA.AperFunction,Conductor*%
%ADD76C,1.000000*%
%TD*%
G04 APERTURE END LIST*
D10*
%TO.P,D_2,1,K_1*%
%TO.N,/2s-6s_to_5v/ph*%
X85475000Y-63362500D03*
%TO.P,D_2,2,A_2*%
%TO.N,GND*%
X85475000Y-56562500D03*
%TD*%
D11*
%TO.P,R6,1*%
%TO.N,Net-(U3-VO)*%
X75575000Y-76662500D03*
%TO.P,R6,2*%
%TO.N,+3V3*%
X73825000Y-76662500D03*
%TD*%
D12*
%TO.P,D2,1,K_1*%
%TO.N,/5V*%
X93400000Y-75812500D03*
%TO.P,D2,2,A_2*%
%TO.N,/5VUSB*%
X93400000Y-80812500D03*
%TD*%
D13*
%TO.P,J20,1,Pin_1_1*%
%TO.N,GND*%
X71450000Y-45875000D03*
D14*
%TO.P,J20,2,Pin_2_2*%
%TO.N,VM*%
X64250000Y-45875000D03*
%TD*%
D15*
%TO.P,J5,1,Pin_1_1*%
%TO.N,/UART_1_Tx*%
X54525000Y-46900000D03*
D16*
%TO.P,J5,2,Pin_2_2*%
%TO.N,/UART_1_Rx*%
X54525000Y-44400000D03*
%TD*%
D11*
%TO.P,R8,1*%
%TO.N,+3V3*%
X58575000Y-52300000D03*
%TO.P,R8,2*%
%TO.N,/EXT_I2C_SDA*%
X56825000Y-52300000D03*
%TD*%
D17*
%TO.P,C3,1*%
%TO.N,Net-(SW1-A)*%
X30800000Y-44637500D03*
%TO.P,C3,2*%
%TO.N,GND*%
X30800000Y-46362500D03*
%TD*%
D18*
%TO.P,R12,1*%
%TO.N,+3V3*%
X87875000Y-105937500D03*
%TO.P,R12,2*%
%TO.N,/Driver1/nFault*%
X87875000Y-104112500D03*
%TD*%
D19*
%TO.P,C8,1*%
%TO.N,/Driver/CPL*%
X27144000Y-89745000D03*
%TO.P,C8,2*%
%TO.N,/Driver/CPH*%
X25419000Y-89745000D03*
%TD*%
D20*
%TO.P,C_7,1*%
%TO.N,Net-(U8-COMP)*%
X76162500Y-66362500D03*
%TO.P,C_7,2*%
%TO.N,GND*%
X77887500Y-66362500D03*
%TD*%
D21*
%TO.P,R2,1*%
%TO.N,+3V3*%
X25625000Y-53500000D03*
%TO.P,R2,2*%
%TO.N,/OB_I2C_SCL*%
X27375000Y-53500000D03*
%TD*%
D22*
%TO.P,U2,1,GND_1*%
%TO.N,GND*%
X33400000Y-42100000D03*
%TO.P,U2,2,3V3_2*%
%TO.N,+3V3*%
X33400000Y-43370000D03*
%TO.P,U2,3,EN_3*%
%TO.N,Net-(SW1-A)*%
X33400000Y-44640000D03*
%TO.P,U2,4,IO4_4*%
%TO.N,unconnected-(U2-IO4-Pad4)*%
X33400000Y-45910000D03*
%TO.P,U2,5,IO5_5*%
%TO.N,unconnected-(U2-IO5-Pad5)*%
X33400000Y-47180000D03*
%TO.P,U2,6,IO6_6*%
%TO.N,/CAN_TX*%
X33400000Y-48450000D03*
%TO.P,U2,7,IO7_7*%
%TO.N,/CAN_RX*%
X33400000Y-49720000D03*
%TO.P,U2,8,IO15_8*%
%TO.N,/DRV1_IN2*%
X33400000Y-50990000D03*
%TO.P,U2,9,IO16_9*%
%TO.N,/DRV1_IN1*%
X33400000Y-52260000D03*
%TO.P,U2,10,IO17_10*%
%TO.N,/OB_I2C_SCL*%
X33400000Y-53530000D03*
%TO.P,U2,11,IO18_11*%
%TO.N,/OB_I2C_SDA*%
X33400000Y-54800000D03*
%TO.P,U2,12,IO8_12*%
%TO.N,unconnected-(U2-IO8-Pad12)*%
X33400000Y-56070000D03*
%TO.P,U2,13,USB_D-_13*%
%TO.N,/USB_N*%
X33400000Y-57340000D03*
%TO.P,U2,14,USB_D+_14*%
%TO.N,/USB_P*%
X33400000Y-58610000D03*
D23*
%TO.P,U2,15,IO3_15*%
%TO.N,unconnected-(U2-IO3-Pad15)*%
X35165000Y-59860000D03*
%TO.P,U2,16,IO46_16*%
%TO.N,unconnected-(U2-IO46-Pad16)*%
X36435000Y-59860000D03*
%TO.P,U2,17,IO9_17*%
%TO.N,unconnected-(U2-IO9-Pad17)*%
X37705000Y-59860000D03*
%TO.P,U2,18,IO10_18*%
%TO.N,unconnected-(U2-IO10-Pad18)*%
X38975000Y-59860000D03*
%TO.P,U2,19,IO11_19*%
%TO.N,/DRV2_PMode*%
X40245000Y-59860000D03*
%TO.P,U2,20,IO12_20*%
%TO.N,/DRV2_IN1*%
X41515000Y-59860000D03*
%TO.P,U2,21,IO13_21*%
%TO.N,/DRV2_IN2*%
X42785000Y-59860000D03*
%TO.P,U2,22,IO14_22*%
%TO.N,/DRV1_PMode*%
X44055000Y-59860000D03*
%TO.P,U2,23,IO21_23*%
%TO.N,unconnected-(U2-IO21-Pad23)*%
X45325000Y-59860000D03*
%TO.P,U2,24,IO47_24*%
%TO.N,/UART_1_Tx*%
X46595000Y-59860000D03*
%TO.P,U2,25,IO48_25*%
%TO.N,/UART_1_Rx*%
X47865000Y-59860000D03*
%TO.P,U2,26,IO45_26*%
%TO.N,unconnected-(U2-IO45-Pad26)*%
X49135000Y-59860000D03*
D22*
%TO.P,U2,27,IO0_27*%
%TO.N,Net-(SW2-A)*%
X50900000Y-58610000D03*
%TO.P,U2,28,IO35_28*%
%TO.N,unconnected-(U2-IO35-Pad28)*%
X50900000Y-57340000D03*
%TO.P,U2,29,IO36_29*%
%TO.N,unconnected-(U2-IO36-Pad29)*%
X50900000Y-56070000D03*
%TO.P,U2,30,IO37_30*%
%TO.N,unconnected-(U2-IO37-Pad30)*%
X50900000Y-54800000D03*
%TO.P,U2,31,IO38_31*%
%TO.N,/EXT_I2C_SCL*%
X50900000Y-53530000D03*
%TO.P,U2,32,IO39_32*%
%TO.N,/EXT_I2C_SDA*%
X50900000Y-52260000D03*
%TO.P,U2,33,IO40_33*%
%TO.N,/EXT_I2C_RST*%
X50900000Y-50990000D03*
%TO.P,U2,34,IO41_34*%
%TO.N,unconnected-(U2-IO41-Pad34)*%
X50900000Y-49720000D03*
%TO.P,U2,35,IO42_35*%
%TO.N,unconnected-(U2-IO42-Pad35)*%
X50900000Y-48450000D03*
%TO.P,U2,36,RXD0_36*%
%TO.N,unconnected-(U2-RXD0-Pad36)*%
X50900000Y-47180000D03*
%TO.P,U2,37,TXD0_37*%
%TO.N,unconnected-(U2-TXD0-Pad37)*%
X50900000Y-45910000D03*
%TO.P,U2,38,IO2_38*%
%TO.N,unconnected-(U2-IO2-Pad38)*%
X50900000Y-44640000D03*
%TO.P,U2,39,IO1_39*%
%TO.N,unconnected-(U2-IO1-Pad39)*%
X50900000Y-43370000D03*
%TO.P,U2,40,GND_40*%
%TO.N,GND*%
X50900000Y-42100000D03*
D24*
%TO.P,U2,41,GND_41*%
X39250000Y-49120000D03*
X39250000Y-50520000D03*
X39950000Y-48420000D03*
X39950000Y-49820000D03*
X39950000Y-51220000D03*
X40650000Y-49120000D03*
D25*
X40650000Y-49820000D03*
D24*
X40650000Y-50520000D03*
X41350000Y-48420000D03*
X41350000Y-49820000D03*
X41350000Y-51220000D03*
X42050000Y-49120000D03*
X42050000Y-50520000D03*
%TD*%
D18*
%TO.P,R_5,1*%
%TO.N,/5V_SERVOS*%
X74375000Y-72425000D03*
%TO.P,R_5,2*%
%TO.N,/2s-6s_to_5v/vsns*%
X74375000Y-70600000D03*
%TD*%
D26*
%TO.P,L1,1,1_1*%
%TO.N,/2s-6s_to_5v/ph*%
X82550000Y-69825000D03*
%TO.P,L1,2,2_2*%
%TO.N,/5V_SERVOS*%
X88950000Y-69825000D03*
%TD*%
D27*
%TO.P,U7,1,D_1*%
%TO.N,/CAN_TX*%
X23005000Y-51025000D03*
%TO.P,U7,2,GND_2*%
%TO.N,GND*%
X21735000Y-51025000D03*
%TO.P,U7,3,VCC_3*%
%TO.N,+3V3*%
X20465000Y-51025000D03*
%TO.P,U7,4,R_4*%
%TO.N,/CAN_RX*%
X19195000Y-51025000D03*
%TO.P,U7,5,Vref_5*%
%TO.N,unconnected-(U7-Vref-Pad5)*%
X19195000Y-55975000D03*
%TO.P,U7,6,CANL_6*%
%TO.N,Net-(J2-Pin_2)*%
X20465000Y-55975000D03*
%TO.P,U7,7,CANH_7*%
%TO.N,Net-(J2-Pin_1)*%
X21735000Y-55975000D03*
%TO.P,U7,8,Rs_8*%
%TO.N,Net-(U7-Rs)*%
X23005000Y-55975000D03*
%TD*%
D28*
%TO.P,J4,1,Pin_1_1*%
%TO.N,/Driver1/OUT1*%
X93875000Y-99675000D03*
D29*
%TO.P,J4,2,Pin_2_2*%
%TO.N,/Driver1/OUT2*%
X93875000Y-97135000D03*
%TD*%
D30*
%TO.P,U6,1,EN/IN1_1*%
%TO.N,/DRV2_IN1*%
X85063500Y-101165000D03*
%TO.P,U6,2,PH/IN2_2*%
%TO.N,/DRV2_IN2*%
X85713500Y-101165000D03*
%TO.P,U6,3,NSLEEP_3*%
%TO.N,/DRV2_PMode*%
X86363500Y-101165000D03*
%TO.P,U6,4,NFAULT_4*%
%TO.N,/Driver1/nFault*%
X87013500Y-101165000D03*
%TO.P,U6,5,VREF_5*%
%TO.N,+3V3*%
X87663500Y-101165000D03*
%TO.P,U6,6,IPROPI_6*%
%TO.N,Net-(U6-IPROPI)*%
X88313500Y-101165000D03*
%TO.P,U6,7,IMODE_7*%
%TO.N,GND*%
X88963500Y-101165000D03*
%TO.P,U6,8,OUT1_8*%
%TO.N,/Driver1/OUT1*%
X89613500Y-101165000D03*
%TO.P,U6,9,PGND_9*%
%TO.N,GND*%
X89613500Y-95425000D03*
%TO.P,U6,10,OUT2_10*%
%TO.N,/Driver1/OUT2*%
X88963500Y-95425000D03*
%TO.P,U6,11,VM_11*%
%TO.N,VM*%
X88313500Y-95425000D03*
%TO.P,U6,12,VCP_12*%
%TO.N,Net-(U6-VCP)*%
X87663500Y-95425000D03*
%TO.P,U6,13,CPH_13*%
%TO.N,/Driver1/CPH*%
X87013500Y-95425000D03*
%TO.P,U6,14,CPL_14*%
%TO.N,/Driver1/CPL*%
X86363500Y-95425000D03*
%TO.P,U6,15,GND_15*%
%TO.N,GND*%
X85713500Y-95425000D03*
%TO.P,U6,16,PMODE_16*%
X85063500Y-95425000D03*
D31*
%TO.P,U6,17*%
%TO.N,N/C*%
X87338500Y-98295000D03*
%TD*%
D32*
%TO.P,J17,1,Pin_1_1*%
%TO.N,GND*%
X69246667Y-106545000D03*
D33*
%TO.P,J17,2,Pin_2_2*%
%TO.N,+3V3*%
X69246667Y-104045000D03*
%TO.P,J17,3,Pin_3_3*%
%TO.N,/I2C_SDA_CH3*%
X69246667Y-101545000D03*
%TO.P,J17,4,Pin_4_4*%
%TO.N,/I2C_SCL_CH3*%
X69246667Y-99045000D03*
%TD*%
D34*
%TO.P,D1,1,K_1*%
%TO.N,GND*%
X73800000Y-80087500D03*
%TO.P,D1,2,A_2*%
%TO.N,+3V3*%
X73800000Y-78337500D03*
%TD*%
D21*
%TO.P,R3,1*%
%TO.N,+3V3*%
X29125000Y-54800000D03*
%TO.P,R3,2*%
%TO.N,/OB_I2C_SDA*%
X30875000Y-54800000D03*
%TD*%
D35*
%TO.P,Cout1,1*%
%TO.N,/5V_SERVOS*%
X90675000Y-61075000D03*
%TO.P,Cout1,2*%
%TO.N,GND*%
X90675000Y-59350000D03*
%TD*%
D20*
%TO.P,C12,1*%
%TO.N,VM*%
X90025000Y-89175000D03*
%TO.P,C12,2*%
%TO.N,GND*%
X91750000Y-89175000D03*
%TD*%
D36*
%TO.P,U10,1,IO1_1*%
%TO.N,/USB_N*%
X27245000Y-65760000D03*
%TO.P,U10,2,GND_2*%
%TO.N,GND*%
X27245000Y-66710001D03*
%TO.P,U10,3,IO2_3*%
%TO.N,/USB_P*%
X27245000Y-67660002D03*
%TO.P,U10,4,IO3_4*%
%TO.N,unconnected-(U10-IO3-Pad4)*%
X30178700Y-67660002D03*
%TO.P,U10,5,VCC_5*%
%TO.N,Net-(U10-VCC)*%
X30178700Y-66710001D03*
%TO.P,U10,6,IO4_6*%
%TO.N,unconnected-(U10-IO4-Pad6)*%
X30178700Y-65760000D03*
%TD*%
D37*
%TO.P,J7,1,Pin_1_1*%
%TO.N,GND*%
X38115000Y-102695000D03*
D38*
%TO.P,J7,2,Pin_2_2*%
%TO.N,/5V_SERVOS*%
X38115000Y-105235000D03*
%TO.P,J7,3,Pin_3_3*%
%TO.N,/MuxServos/pwm2*%
X38115000Y-107775000D03*
%TD*%
D39*
%TO.P,R10,1*%
%TO.N,+3V3*%
X24557500Y-76282500D03*
%TO.P,R10,2*%
%TO.N,/Driver/nFault*%
X24557500Y-78107500D03*
%TD*%
D40*
%TO.P,R14,1*%
%TO.N,GND*%
X92037500Y-105325000D03*
%TO.P,R14,2*%
%TO.N,Net-(U6-IPROPI)*%
X90212500Y-105325000D03*
%TD*%
D32*
%TO.P,J14,1,Pin_1_1*%
%TO.N,GND*%
X62813333Y-106545000D03*
D33*
%TO.P,J14,2,Pin_2_2*%
%TO.N,/5V*%
X62813333Y-104045000D03*
%TO.P,J14,3,Pin_3_3*%
%TO.N,/I2C_SDA_CH0*%
X62813333Y-101545000D03*
%TO.P,J14,4,Pin_4_4*%
%TO.N,/I2C_SCL_CH0*%
X62813333Y-99045000D03*
%TD*%
D27*
%TO.P,U8,1,BOOT_1*%
%TO.N,Net-(U8-BOOT)*%
X79130000Y-58387500D03*
%TO.P,U8,2,VIN_2*%
%TO.N,VBUS*%
X77860000Y-58387500D03*
%TO.P,U8,3,EN_3*%
%TO.N,Net-(U8-EN)*%
X76590000Y-58387500D03*
%TO.P,U8,4,SS_4*%
%TO.N,Net-(U8-SS)*%
X75320000Y-58387500D03*
%TO.P,U8,5,VSENSE_5*%
%TO.N,/2s-6s_to_5v/vsns*%
X75320000Y-63337500D03*
%TO.P,U8,6,COMP_6*%
%TO.N,Net-(U8-COMP)*%
X76590000Y-63337500D03*
%TO.P,U8,7,GND_7*%
%TO.N,GND*%
X77860000Y-63337500D03*
%TO.P,U8,8,PH_8*%
%TO.N,/2s-6s_to_5v/ph*%
X79130000Y-63337500D03*
%TD*%
D17*
%TO.P,C1,1*%
%TO.N,+3V3*%
X27600000Y-44637500D03*
%TO.P,C1,2*%
%TO.N,GND*%
X27600000Y-46362500D03*
%TD*%
D40*
%TO.P,R_1,1*%
%TO.N,VBUS*%
X76037500Y-52762500D03*
%TO.P,R_1,2*%
%TO.N,Net-(U8-EN)*%
X74212500Y-52762500D03*
%TD*%
D37*
%TO.P,J10,1,Pin_1_1*%
%TO.N,GND*%
X51885000Y-102695000D03*
D38*
%TO.P,J10,2,Pin_2_2*%
%TO.N,/5V_SERVOS*%
X51885000Y-105235000D03*
%TO.P,J10,3,Pin_3_3*%
%TO.N,/MuxServos/pwm5*%
X51885000Y-107775000D03*
%TD*%
D39*
%TO.P,R11,1*%
%TO.N,+3V3*%
X26069000Y-76270000D03*
%TO.P,R11,2*%
%TO.N,/DRV1_PMode*%
X26069000Y-78095000D03*
%TD*%
D20*
%TO.P,Chf1,1*%
%TO.N,VBUS*%
X77862500Y-55562500D03*
%TO.P,Chf1,2*%
%TO.N,GND*%
X79587500Y-55562500D03*
%TD*%
D41*
%TO.P,SW2,1,1_1*%
%TO.N,GND*%
X61720000Y-63100000D03*
%TO.P,SW2,2,2_2*%
X61720000Y-58600000D03*
%TO.P,SW2,3,K_3*%
%TO.N,Net-(SW2-A)*%
X53770000Y-58600000D03*
%TO.P,SW2,4,A_4*%
X53770000Y-63100000D03*
%TD*%
D19*
%TO.P,C_5,1*%
%TO.N,Net-(U8-SS)*%
X75287500Y-55562500D03*
%TO.P,C_5,2*%
%TO.N,GND*%
X73562500Y-55562500D03*
%TD*%
D42*
%TO.P,R_3,1*%
%TO.N,Net-(C_6-Pad2)*%
X76125000Y-68962500D03*
%TO.P,R_3,2*%
%TO.N,GND*%
X77950000Y-68962500D03*
%TD*%
D19*
%TO.P,C9,1*%
%TO.N,VM*%
X22407500Y-93045000D03*
%TO.P,C9,2*%
%TO.N,GND*%
X20682500Y-93045000D03*
%TD*%
D18*
%TO.P,R13,1*%
%TO.N,+3V3*%
X86363500Y-105950000D03*
%TO.P,R13,2*%
%TO.N,/DRV2_PMode*%
X86363500Y-104125000D03*
%TD*%
D43*
%TO.P,J1,A1,GND_A1*%
%TO.N,GND*%
X20155000Y-62300000D03*
%TO.P,J1,A4,VBUS_A4*%
%TO.N,/5VUSB*%
X20155000Y-63100000D03*
D44*
%TO.P,J1,A5,CC1_A5*%
%TO.N,Net-(J1-CC1)*%
X20155000Y-64250000D03*
%TO.P,J1,A6,D+_A6*%
%TO.N,/USB_P*%
X20155000Y-65250000D03*
%TO.P,J1,A7,D-_A7*%
%TO.N,/USB_N*%
X20155000Y-65750000D03*
%TO.P,J1,A8,SBU1_A8*%
%TO.N,unconnected-(J1-SBU1-PadA8)*%
X20155000Y-66750000D03*
D43*
%TO.P,J1,A9,VBUS_A9*%
%TO.N,/5VUSB*%
X20155000Y-67900000D03*
%TO.P,J1,A12,GND_A12*%
%TO.N,GND*%
X20155000Y-68700000D03*
%TO.P,J1,B1,GND_B1*%
X20155000Y-68700000D03*
%TO.P,J1,B4,VBUS_B4*%
%TO.N,/5VUSB*%
X20155000Y-67900000D03*
D44*
%TO.P,J1,B5,CC2_B5*%
%TO.N,Net-(J1-CC2)*%
X20155000Y-67250000D03*
%TO.P,J1,B6,D+_B6*%
%TO.N,/USB_P*%
X20155000Y-66250000D03*
%TO.P,J1,B7,D-_B7*%
%TO.N,/USB_N*%
X20155000Y-64750000D03*
%TO.P,J1,B8,SBU2_B8*%
%TO.N,unconnected-(J1-SBU2-PadB8)*%
X20155000Y-63750000D03*
D43*
%TO.P,J1,B9,VBUS_B9*%
%TO.N,/5VUSB*%
X20155000Y-63100000D03*
%TO.P,J1,B12,GND_B12*%
%TO.N,GND*%
X20155000Y-62300000D03*
D45*
%TO.P,J1,SH,SHIELD_SH*%
X19580000Y-61180000D03*
D46*
X15400000Y-61180000D03*
D45*
X19580000Y-69820000D03*
D46*
X15400000Y-69820000D03*
%TD*%
D11*
%TO.P,R7,1*%
%TO.N,+3V3*%
X55250000Y-53500000D03*
%TO.P,R7,2*%
%TO.N,/EXT_I2C_SCL*%
X53500000Y-53500000D03*
%TD*%
D20*
%TO.P,Cin1,1*%
%TO.N,VBUS*%
X78600000Y-52762500D03*
%TO.P,Cin1,2*%
%TO.N,GND*%
X80325000Y-52762500D03*
%TD*%
D47*
%TO.P,C10_Bulk1,1*%
%TO.N,VM*%
X82125000Y-89175000D03*
%TO.P,C10_Bulk1,2*%
%TO.N,GND*%
X73725000Y-89175000D03*
%TD*%
D48*
%TO.P,C10_Bulk2,1*%
%TO.N,VM*%
X24407500Y-96695000D03*
%TO.P,C10_Bulk2,2*%
%TO.N,GND*%
X24407500Y-105095000D03*
%TD*%
D20*
%TO.P,C10,1*%
%TO.N,/Driver1/CPL*%
X85288500Y-92475000D03*
%TO.P,C10,2*%
%TO.N,/Driver1/CPH*%
X87013500Y-92475000D03*
%TD*%
D49*
%TO.P,D3,1,K_1*%
%TO.N,/5V*%
X93275000Y-71112500D03*
%TO.P,D3,2,A_2*%
%TO.N,/5V_SERVOS*%
X93275000Y-66112500D03*
%TD*%
D50*
%TO.P,U9,1,A0_1*%
%TO.N,GND*%
X38050000Y-95625000D03*
%TO.P,U9,2,A1_2*%
X38700000Y-95625000D03*
%TO.P,U9,3,A2_3*%
X39350000Y-95625000D03*
%TO.P,U9,4,A3_4*%
X40000000Y-95625000D03*
%TO.P,U9,5,A4_5*%
X40650000Y-95625000D03*
%TO.P,U9,6,LED0_6*%
%TO.N,/MuxServos/pwm1*%
X41300000Y-95625000D03*
%TO.P,U9,7,LED1_7*%
%TO.N,/MuxServos/pwm2*%
X41950000Y-95625000D03*
%TO.P,U9,8,LED2_8*%
%TO.N,/MuxServos/pwm3*%
X42600000Y-95625000D03*
%TO.P,U9,9,LED3_9*%
%TO.N,/MuxServos/pwm4*%
X43250000Y-95625000D03*
%TO.P,U9,10,LED4_10*%
%TO.N,/MuxServos/pwm5*%
X43900000Y-95625000D03*
%TO.P,U9,11,LED5_11*%
%TO.N,unconnected-(U9-LED5-Pad11)*%
X44550000Y-95625000D03*
%TO.P,U9,12,LED6_12*%
%TO.N,unconnected-(U9-LED6-Pad12)*%
X45200000Y-95625000D03*
%TO.P,U9,13,LED7_13*%
%TO.N,unconnected-(U9-LED7-Pad13)*%
X45850000Y-95625000D03*
%TO.P,U9,14,VSS_14*%
%TO.N,GND*%
X46500000Y-95625000D03*
%TO.P,U9,15,LED8_15*%
%TO.N,unconnected-(U9-LED8-Pad15)*%
X46500000Y-89900000D03*
%TO.P,U9,16,LED9_16*%
%TO.N,unconnected-(U9-LED9-Pad16)*%
X45850000Y-89900000D03*
%TO.P,U9,17,LED10_17*%
%TO.N,unconnected-(U9-LED10-Pad17)*%
X45200000Y-89900000D03*
%TO.P,U9,18,LED11_18*%
%TO.N,unconnected-(U9-LED11-Pad18)*%
X44550000Y-89900000D03*
%TO.P,U9,19,LED12_19*%
%TO.N,unconnected-(U9-LED12-Pad19)*%
X43900000Y-89900000D03*
%TO.P,U9,20,LED13_20*%
%TO.N,unconnected-(U9-LED13-Pad20)*%
X43250000Y-89900000D03*
%TO.P,U9,21,LED14_21*%
%TO.N,unconnected-(U9-LED14-Pad21)*%
X42600000Y-89900000D03*
%TO.P,U9,22,LED15_22*%
%TO.N,unconnected-(U9-LED15-Pad22)*%
X41950000Y-89900000D03*
%TO.P,U9,23,~{OE}_23*%
%TO.N,GND*%
X41300000Y-89900000D03*
%TO.P,U9,24,A5_24*%
X40650000Y-89900000D03*
%TO.P,U9,25,EXTCLK_25*%
X40000000Y-89900000D03*
%TO.P,U9,26,SCL_26*%
%TO.N,/OB_I2C_SCL*%
X39350000Y-89900000D03*
%TO.P,U9,27,SDA_27*%
%TO.N,/OB_I2C_SDA*%
X38700000Y-89900000D03*
%TO.P,U9,28,VDD_28*%
%TO.N,+3V3*%
X38050000Y-89900000D03*
%TD*%
D13*
%TO.P,J19,1,Pin_1_1*%
%TO.N,GND*%
X91900000Y-45875000D03*
D14*
%TO.P,J19,2,Pin_2_2*%
%TO.N,VBUS*%
X84700000Y-45875000D03*
%TD*%
D51*
%TO.P,C6,1*%
%TO.N,GND*%
X77800000Y-79925000D03*
%TO.P,C6,2*%
%TO.N,Net-(U3-VO)*%
X77800000Y-76800000D03*
%TD*%
D37*
%TO.P,J9,1,Pin_1_1*%
%TO.N,GND*%
X47295000Y-102695000D03*
D38*
%TO.P,J9,2,Pin_2_2*%
%TO.N,/5V_SERVOS*%
X47295000Y-105235000D03*
%TO.P,J9,3,Pin_3_3*%
%TO.N,/MuxServos/pwm4*%
X47295000Y-107775000D03*
%TD*%
D34*
%TO.P,R1,1*%
%TO.N,+3V3*%
X29200000Y-46375000D03*
%TO.P,R1,2*%
%TO.N,Net-(SW1-A)*%
X29200000Y-44625000D03*
%TD*%
D11*
%TO.P,R15,1*%
%TO.N,Net-(J2-Pin_1)*%
X21240000Y-58180000D03*
%TO.P,R15,2*%
%TO.N,Net-(J2-Pin_2)*%
X19490000Y-58180000D03*
%TD*%
D19*
%TO.P,C4,1*%
%TO.N,GND*%
X55495000Y-56300000D03*
%TO.P,C4,2*%
%TO.N,Net-(SW2-A)*%
X53770000Y-56300000D03*
%TD*%
D52*
%TO.P,D4,1,K_1*%
%TO.N,/5VUSB*%
X26857500Y-71830000D03*
%TO.P,D4,2,A_2*%
%TO.N,GND*%
X31157500Y-71830000D03*
%TD*%
D21*
%TO.P,R16,1*%
%TO.N,Net-(U7-Rs)*%
X23010000Y-58180000D03*
%TO.P,R16,2*%
%TO.N,GND*%
X24760000Y-58180000D03*
%TD*%
D42*
%TO.P,R_6,1*%
%TO.N,/2s-6s_to_5v/vsns*%
X76112500Y-71362500D03*
%TO.P,R_6,2*%
%TO.N,GND*%
X77937500Y-71362500D03*
%TD*%
D20*
%TO.P,C13,1*%
%TO.N,Net-(U10-VCC)*%
X32555000Y-66710000D03*
%TO.P,C13,2*%
%TO.N,GND*%
X34280000Y-66710000D03*
%TD*%
D35*
%TO.P,Cout2,1*%
%TO.N,/5V_SERVOS*%
X94075000Y-61075000D03*
%TO.P,Cout2,2*%
%TO.N,GND*%
X94075000Y-59350000D03*
%TD*%
D40*
%TO.P,R_2,1*%
%TO.N,Net-(U8-EN)*%
X72437500Y-52762500D03*
%TO.P,R_2,2*%
%TO.N,GND*%
X70612500Y-52762500D03*
%TD*%
D35*
%TO.P,C11,1*%
%TO.N,Net-(U6-VCP)*%
X88025000Y-90887500D03*
%TO.P,C11,2*%
%TO.N,VM*%
X88025000Y-89162500D03*
%TD*%
D11*
%TO.P,R5,1*%
%TO.N,GND*%
X24675000Y-67890000D03*
%TO.P,R5,2*%
%TO.N,Net-(J1-CC2)*%
X22925000Y-67890000D03*
%TD*%
D17*
%TO.P,C7,1*%
%TO.N,Net-(U5-VCP)*%
X24407500Y-91332500D03*
%TO.P,C7,2*%
%TO.N,VM*%
X24407500Y-93057500D03*
%TD*%
D53*
%TO.P,U3,1,GND_1*%
%TO.N,GND*%
X86950000Y-80562500D03*
%TO.P,U3,2,VO_2*%
%TO.N,Net-(U3-VO)*%
X86950000Y-78262500D03*
D54*
X80650000Y-78262500D03*
D53*
%TO.P,U3,3,VI_3*%
%TO.N,/5V*%
X86950000Y-75962500D03*
%TD*%
D32*
%TO.P,J15,1,Pin_1_1*%
%TO.N,GND*%
X56380000Y-106545000D03*
D33*
%TO.P,J15,2,Pin_2_2*%
%TO.N,/5V*%
X56380000Y-104045000D03*
%TO.P,J15,3,Pin_3_3*%
%TO.N,/I2C_SDA_CH1*%
X56380000Y-101545000D03*
%TO.P,J15,4,Pin_4_4*%
%TO.N,/I2C_SCL_CH1*%
X56380000Y-99045000D03*
%TD*%
D41*
%TO.P,SW1,1,1_1*%
%TO.N,GND*%
X14840000Y-42780000D03*
%TO.P,SW1,2,2_2*%
X14840000Y-47280000D03*
%TO.P,SW1,3,K_3*%
%TO.N,Net-(SW1-A)*%
X22790000Y-47280000D03*
%TO.P,SW1,4,A_4*%
X22790000Y-42780000D03*
%TD*%
D37*
%TO.P,J8,1,Pin_1_1*%
%TO.N,GND*%
X42705000Y-102695000D03*
D38*
%TO.P,J8,2,Pin_2_2*%
%TO.N,/5V_SERVOS*%
X42705000Y-105235000D03*
%TO.P,J8,3,Pin_3_3*%
%TO.N,/MuxServos/pwm3*%
X42705000Y-107775000D03*
%TD*%
D42*
%TO.P,R9,1*%
%TO.N,GND*%
X20395000Y-76895000D03*
%TO.P,R9,2*%
%TO.N,Net-(U5-IPROPI)*%
X22220000Y-76895000D03*
%TD*%
D50*
%TO.P,U4,1,A0_1*%
%TO.N,GND*%
X62175000Y-93300000D03*
%TO.P,U4,2,A1_2*%
X62825000Y-93300000D03*
%TO.P,U4,3,~{RESET}_3*%
%TO.N,/EXT_I2C_RST*%
X63475000Y-93300000D03*
%TO.P,U4,4,SD0_4*%
%TO.N,/I2C_SCL_CH0*%
X64125000Y-93300000D03*
%TO.P,U4,5,SC0_5*%
%TO.N,/I2C_SDA_CH0*%
X64775000Y-93300000D03*
%TO.P,U4,6,SD1_6*%
%TO.N,/I2C_SCL_CH1*%
X65425000Y-93300000D03*
%TO.P,U4,7,SC1_7*%
%TO.N,/I2C_SDA_CH1*%
X66075000Y-93300000D03*
%TO.P,U4,8,SD2_8*%
%TO.N,/I2C_SCL_CH2*%
X66725000Y-93300000D03*
%TO.P,U4,9,SC2_9*%
%TO.N,/I2C_SDA_CH2*%
X67375000Y-93300000D03*
%TO.P,U4,10,SD3_10*%
%TO.N,/I2C_SCL_CH3*%
X68025000Y-93300000D03*
%TO.P,U4,11,SC3_11*%
%TO.N,/I2C_SDA_CH3*%
X68675000Y-93300000D03*
%TO.P,U4,12,GND_12*%
%TO.N,GND*%
X69325000Y-93300000D03*
%TO.P,U4,13,SD4_13*%
%TO.N,/I2C_SCL_CH4*%
X69325000Y-87575000D03*
%TO.P,U4,14,SC4_14*%
%TO.N,/I2C_SDA_CH4*%
X68675000Y-87575000D03*
%TO.P,U4,15,SD5_15*%
%TO.N,unconnected-(U4-SD5-Pad15)*%
X68025000Y-87575000D03*
%TO.P,U4,16,SC5_16*%
%TO.N,unconnected-(U4-SC5-Pad16)*%
X67375000Y-87575000D03*
%TO.P,U4,17,SD6_17*%
%TO.N,unconnected-(U4-SD6-Pad17)*%
X66725000Y-87575000D03*
%TO.P,U4,18,SC6_18*%
%TO.N,unconnected-(U4-SC6-Pad18)*%
X66075000Y-87575000D03*
%TO.P,U4,19,SD7_19*%
%TO.N,unconnected-(U4-SD7-Pad19)*%
X65425000Y-87575000D03*
%TO.P,U4,20,SC7_20*%
%TO.N,unconnected-(U4-SC7-Pad20)*%
X64775000Y-87575000D03*
%TO.P,U4,21,A2_21*%
%TO.N,GND*%
X64125000Y-87575000D03*
%TO.P,U4,22,SCL_22*%
%TO.N,/EXT_I2C_SCL*%
X63475000Y-87575000D03*
%TO.P,U4,23,SDA_23*%
%TO.N,/EXT_I2C_SDA*%
X62825000Y-87575000D03*
%TO.P,U4,24,VCC_24*%
%TO.N,+3V3*%
X62175000Y-87575000D03*
%TD*%
D55*
%TO.P,U5,1,EN/IN1_1*%
%TO.N,/DRV1_IN1*%
X27369000Y-81055000D03*
%TO.P,U5,2,PH/IN2_2*%
%TO.N,/DRV1_IN2*%
X26719000Y-81055000D03*
%TO.P,U5,3,NSLEEP_3*%
%TO.N,/DRV1_PMode*%
X26069000Y-81055000D03*
%TO.P,U5,4,NFAULT_4*%
%TO.N,/Driver/nFault*%
X25419000Y-81055000D03*
%TO.P,U5,5,VREF_5*%
%TO.N,+3V3*%
X24769000Y-81055000D03*
%TO.P,U5,6,IPROPI_6*%
%TO.N,Net-(U5-IPROPI)*%
X24119000Y-81055000D03*
%TO.P,U5,7,IMODE_7*%
%TO.N,GND*%
X23469000Y-81055000D03*
%TO.P,U5,8,OUT1_8*%
%TO.N,/Driver/OUT1*%
X22819000Y-81055000D03*
%TO.P,U5,9,PGND_9*%
%TO.N,GND*%
X22819000Y-86795000D03*
%TO.P,U5,10,OUT2_10*%
%TO.N,/Driver/OUT2*%
X23469000Y-86795000D03*
%TO.P,U5,11,VM_11*%
%TO.N,VM*%
X24119000Y-86795000D03*
%TO.P,U5,12,VCP_12*%
%TO.N,Net-(U5-VCP)*%
X24769000Y-86795000D03*
%TO.P,U5,13,CPH_13*%
%TO.N,/Driver/CPH*%
X25419000Y-86795000D03*
%TO.P,U5,14,CPL_14*%
%TO.N,/Driver/CPL*%
X26069000Y-86795000D03*
%TO.P,U5,15,GND_15*%
%TO.N,GND*%
X26719000Y-86795000D03*
%TO.P,U5,16,PMODE_16*%
X27369000Y-86795000D03*
D31*
%TO.P,U5,17*%
%TO.N,N/C*%
X25094000Y-83925000D03*
%TD*%
D37*
%TO.P,J6,1,Pin_1_1*%
%TO.N,GND*%
X33525000Y-102695000D03*
D38*
%TO.P,J6,2,Pin_2_2*%
%TO.N,/5V_SERVOS*%
X33525000Y-105235000D03*
%TO.P,J6,3,Pin_3_3*%
%TO.N,/MuxServos/pwm1*%
X33525000Y-107775000D03*
%TD*%
D56*
%TO.P,C5,1*%
%TO.N,/5V*%
X89800000Y-76750000D03*
%TO.P,C5,2*%
%TO.N,GND*%
X89800000Y-79875000D03*
%TD*%
D57*
%TO.P,J2,1,Pin_1_1*%
%TO.N,Net-(J2-Pin_1)*%
X15310000Y-52310000D03*
D58*
%TO.P,J2,2,Pin_2_2*%
%TO.N,Net-(J2-Pin_2)*%
X15310000Y-53810000D03*
%TD*%
D59*
%TO.P,U1,*%
%TO.N,*%
X58560000Y-85190000D03*
X58560000Y-67410000D03*
X38240000Y-85190000D03*
X38240000Y-67410000D03*
D60*
%TO.P,U1,1,VIN_1*%
%TO.N,+3V3*%
X54750000Y-67410000D03*
%TO.P,U1,2,3Vo_2*%
%TO.N,unconnected-(U1-3Vo-Pad2)*%
X52210000Y-67410000D03*
%TO.P,U1,3,GND_3*%
%TO.N,GND*%
X49670000Y-67410000D03*
%TO.P,U1,4,SCL_4*%
%TO.N,/OB_I2C_SCL*%
X47130000Y-67410000D03*
%TO.P,U1,5,SDA_5*%
%TO.N,/OB_I2C_SDA*%
X44590000Y-67410000D03*
%TO.P,U1,6,INT_6*%
%TO.N,unconnected-(U1-INT-Pad6)*%
X42050000Y-67410000D03*
%TO.P,U1,7,~{BT}_7*%
%TO.N,unconnected-(U1-~{BT}-Pad7)*%
X54750000Y-85190000D03*
%TO.P,U1,8,P0_8*%
%TO.N,unconnected-(U1-P0-Pad8)*%
X52210000Y-85190000D03*
%TO.P,U1,9,P1_9*%
%TO.N,unconnected-(U1-P1-Pad9)*%
X49670000Y-85190000D03*
%TO.P,U1,10,~{RST}_10*%
%TO.N,unconnected-(U1-~{RST}-Pad10)*%
X47130000Y-85190000D03*
%TO.P,U1,11,DI_11*%
%TO.N,unconnected-(U1-DI-Pad11)*%
X44590000Y-85190000D03*
%TO.P,U1,12,~{CS}_12*%
%TO.N,unconnected-(U1-~{CS}-Pad12)*%
X42050000Y-85190000D03*
%TD*%
D11*
%TO.P,R4,1*%
%TO.N,GND*%
X24675000Y-64250000D03*
%TO.P,R4,2*%
%TO.N,Net-(J1-CC1)*%
X22925000Y-64250000D03*
%TD*%
D17*
%TO.P,C_6,1*%
%TO.N,Net-(U8-COMP)*%
X74362500Y-66800000D03*
%TO.P,C_6,2*%
%TO.N,Net-(C_6-Pad2)*%
X74362500Y-68525000D03*
%TD*%
D61*
%TO.P,J3,1,Pin_1_1*%
%TO.N,/Driver/OUT1*%
X18307500Y-82605000D03*
D29*
%TO.P,J3,2,Pin_2_2*%
%TO.N,/Driver/OUT2*%
X18307500Y-85145000D03*
%TD*%
D32*
%TO.P,J16,1,Pin_1_1*%
%TO.N,GND*%
X75680000Y-106545000D03*
D33*
%TO.P,J16,2,Pin_2_2*%
%TO.N,+3V3*%
X75680000Y-104045000D03*
%TO.P,J16,3,Pin_3_3*%
%TO.N,/I2C_SDA_CH2*%
X75680000Y-101545000D03*
%TO.P,J16,4,Pin_4_4*%
%TO.N,/I2C_SCL_CH2*%
X75680000Y-99045000D03*
%TD*%
D35*
%TO.P,C_4,1*%
%TO.N,/2s-6s_to_5v/ph*%
X80625000Y-66475000D03*
%TO.P,C_4,2*%
%TO.N,Net-(U8-BOOT)*%
X80625000Y-64750000D03*
%TD*%
D56*
%TO.P,C2,1*%
%TO.N,+3V3*%
X25500000Y-44662500D03*
%TO.P,C2,2*%
%TO.N,GND*%
X25500000Y-47787500D03*
%TD*%
D62*
%TO.N,+3V3*%
X57800000Y-87600000D03*
X56200000Y-78250000D03*
X33400000Y-43400000D03*
%TO.N,/5V*%
X93300000Y-72800000D03*
X93300000Y-74200000D03*
X78900000Y-84800000D03*
X66800000Y-96900000D03*
%TO.N,/5V_SERVOS*%
X69600000Y-77300000D03*
X53800000Y-93000000D03*
%TO.N,VM*%
X37300000Y-96700000D03*
X64200000Y-83900000D03*
%TO.N,/OB_I2C_SDA*%
X32000000Y-56700000D03*
X32000000Y-59300000D03*
%TO.N,+3V3*%
X58300000Y-52300000D03*
X29200000Y-46400000D03*
X86400000Y-106000000D03*
X55400000Y-54600000D03*
X73800000Y-76700000D03*
X25600000Y-53500000D03*
X25800000Y-76000000D03*
X62200000Y-83700000D03*
X53800000Y-91000000D03*
%TO.N,GND*%
X40100000Y-89900000D03*
X33400000Y-42100000D03*
X30800000Y-46400000D03*
X25500000Y-47800000D03*
X14800000Y-47300000D03*
X21700000Y-51000000D03*
X24800000Y-58200000D03*
X34300000Y-66700000D03*
X27300000Y-66700000D03*
X24700000Y-67900000D03*
X91800000Y-89200000D03*
X64100000Y-86500000D03*
X62700000Y-93300000D03*
X26800000Y-86800000D03*
X85600000Y-95400000D03*
X38000000Y-95600000D03*
X69400000Y-93300000D03*
X55500000Y-56300000D03*
X73700000Y-89100000D03*
X61700000Y-58600000D03*
X50900000Y-42100000D03*
%TO.N,/OB_I2C_SCL*%
X40600000Y-81500000D03*
X40800000Y-80100000D03*
X38700000Y-58600000D03*
%TO.N,/DRV2_PMode*%
X40200000Y-71000000D03*
X38100000Y-81600000D03*
%TO.N,/EXT_I2C_RST*%
X63500000Y-94400000D03*
X63500000Y-91600000D03*
X61000000Y-80100000D03*
X63400000Y-66400000D03*
%TO.N,/5VUSB*%
X71500000Y-76500000D03*
X52900000Y-80800000D03*
X39300000Y-80800000D03*
X38100000Y-80800000D03*
X28700000Y-73600000D03*
X27900000Y-72800000D03*
%TO.N,/EXT_I2C_SDA*%
X62800000Y-67400000D03*
X57100000Y-55700000D03*
%TO.N,/DRV1_PMode*%
X39400000Y-58400000D03*
X26800000Y-77200000D03*
%TO.N,/DRV1_IN2*%
X26700000Y-68600000D03*
X31900000Y-52000000D03*
%TO.N,/EXT_I2C_SCL*%
X57900000Y-61700000D03*
X57100000Y-60900000D03*
D63*
%TO.N,GND*%
X19107500Y-93045000D03*
X70525000Y-54400000D03*
X72612500Y-80087500D03*
X21157500Y-88045000D03*
X21657500Y-78445000D03*
X84975000Y-52850000D03*
X91275000Y-94175000D03*
X90775000Y-103775000D03*
X24407500Y-109995000D03*
X90662500Y-56687500D03*
X94062500Y-56687500D03*
%TD*%
%TO.N,/DRV1_IN1*%
D64*
X24900000Y-75300000D02*
X25000000Y-75400000D01*
X24800000Y-75300000D02*
X24900000Y-75300000D01*
X32117463Y-52525000D02*
X31682537Y-52525000D01*
X25000000Y-75400000D02*
X26500000Y-75400000D01*
X24500000Y-75100000D02*
X24600000Y-75100000D01*
X23900000Y-74500000D02*
X24500000Y-75100000D01*
X23800000Y-74500000D02*
X23900000Y-74500000D01*
X23100000Y-73800000D02*
X23800000Y-74500000D01*
X17225000Y-69225000D02*
X21800000Y-73800000D01*
X17225000Y-61875000D02*
X17225000Y-69225000D01*
X18230000Y-60870000D02*
X17225000Y-61875000D01*
X21800000Y-73800000D02*
X23100000Y-73800000D01*
X18230000Y-60848629D02*
X18230000Y-60870000D01*
X18698629Y-60380000D02*
X18230000Y-60848629D01*
X18720000Y-60380000D02*
X18698629Y-60380000D01*
X19350000Y-59750000D02*
X18720000Y-60380000D01*
X33400000Y-52300000D02*
X33375000Y-52275000D01*
X33400000Y-52260000D02*
X33400000Y-52300000D01*
X24600000Y-75100000D02*
X24800000Y-75300000D01*
X33375000Y-52275000D02*
X32367463Y-52275000D01*
X32367463Y-52275000D02*
X32117463Y-52525000D01*
X31682537Y-52525000D02*
X31432537Y-52275000D01*
X24625000Y-52775000D02*
X24625000Y-54225000D01*
X25125000Y-52275000D02*
X24625000Y-52775000D01*
X24550000Y-59750000D02*
X19350000Y-59750000D01*
X31432537Y-52275000D02*
X25125000Y-52275000D01*
X24625000Y-54225000D02*
X27300000Y-56900000D01*
X27300000Y-56900000D02*
X27400000Y-56900000D01*
X27400000Y-56900000D02*
X24550000Y-59750000D01*
X26500000Y-75400000D02*
X27400000Y-76300000D01*
X27400000Y-76300000D02*
X27400000Y-81100000D01*
X27400000Y-81100000D02*
X27369000Y-81055000D01*
%TO.N,/MuxServos/pwm1*%
X41300000Y-95625000D02*
X41300000Y-95600000D01*
X41300000Y-95600000D02*
X41200000Y-95700000D01*
X41200000Y-95700000D02*
X41200000Y-97400000D01*
X41200000Y-97400000D02*
X35825000Y-102775000D01*
X35825000Y-102775000D02*
X35825000Y-107250000D01*
X35825000Y-107250000D02*
X35275000Y-107800000D01*
X35275000Y-107800000D02*
X33500000Y-107800000D01*
%TO.N,/MuxServos/pwm2*%
X38100000Y-107800000D02*
X39425000Y-107800000D01*
X39425000Y-107800000D02*
X41100000Y-106125000D01*
X41100000Y-106125000D02*
X41100000Y-101600000D01*
X41100000Y-101600000D02*
X42000000Y-100700000D01*
X42000000Y-100700000D02*
X42000000Y-95600000D01*
X42000000Y-95600000D02*
X41950000Y-95625000D01*
%TO.N,/MuxServos/pwm3*%
X42600000Y-95625000D02*
X42600000Y-95600000D01*
X42600000Y-95600000D02*
X42700000Y-95700000D01*
X42700000Y-95700000D02*
X42700000Y-100500000D01*
X42700000Y-100500000D02*
X42400000Y-100800000D01*
X42400000Y-100800000D02*
X42400000Y-100865686D01*
X42400000Y-100865686D02*
X41500000Y-101765686D01*
X41500000Y-101765686D02*
X41500000Y-107125000D01*
X41500000Y-107125000D02*
X42175000Y-107800000D01*
X42175000Y-107800000D02*
X42700000Y-107800000D01*
%TO.N,/MuxServos/pwm4*%
X43250000Y-95625000D02*
X43200000Y-95600000D01*
X43200000Y-95600000D02*
X43300000Y-95700000D01*
X43300000Y-95700000D02*
X43300000Y-96400000D01*
X43300000Y-96400000D02*
X48500000Y-101600000D01*
X48500000Y-101600000D02*
X48500000Y-107550000D01*
X48500000Y-107550000D02*
X48250000Y-107800000D01*
X48250000Y-107800000D02*
X47300000Y-107800000D01*
%TO.N,/MuxServos/pwm5*%
X51900000Y-107800000D02*
X48900000Y-104800000D01*
X48900000Y-104800000D02*
X48900000Y-101434314D01*
X48900000Y-101434314D02*
X43900000Y-96434314D01*
X43900000Y-96434314D02*
X43900000Y-95625000D01*
%TO.N,/DRV2_PMode*%
X86363500Y-104125000D02*
X86400000Y-104100000D01*
X82600000Y-107700000D02*
X53600000Y-107700000D01*
X86400000Y-104100000D02*
X86200000Y-104100000D01*
X86200000Y-104100000D02*
X82600000Y-107700000D01*
X36300000Y-89600000D02*
X36300000Y-83400000D01*
X53600000Y-107700000D02*
X52400000Y-106500000D01*
X49300000Y-104550000D02*
X49300000Y-97000000D01*
X49300000Y-97000000D02*
X43700000Y-91400000D01*
X52400000Y-106500000D02*
X51250000Y-106500000D01*
X51250000Y-106500000D02*
X49300000Y-104550000D01*
X36300000Y-83400000D02*
X38100000Y-81600000D01*
X43700000Y-91400000D02*
X38100000Y-91400000D01*
X38100000Y-91400000D02*
X36300000Y-89600000D01*
%TO.N,/DRV2_IN1*%
X62000000Y-105100000D02*
X62100000Y-105100000D01*
X62100000Y-105100000D02*
X62200000Y-105200000D01*
X60100000Y-103200000D02*
X62000000Y-105100000D01*
X57600000Y-103200000D02*
X60100000Y-103200000D01*
X56000000Y-102800000D02*
X57134314Y-102800000D01*
X55900000Y-102700000D02*
X56000000Y-102800000D01*
X54400000Y-101400000D02*
X55700000Y-102700000D01*
X55700000Y-102700000D02*
X55900000Y-102700000D01*
X54400000Y-90050000D02*
X54400000Y-101400000D01*
X56575000Y-87875000D02*
X54400000Y-90050000D01*
X56575000Y-83125000D02*
X56575000Y-87875000D01*
X41500000Y-59900000D02*
X41900000Y-60300000D01*
X85100000Y-101200000D02*
X85063500Y-101165000D01*
X41900000Y-60300000D02*
X41900000Y-60700000D01*
X42035000Y-60835000D02*
X42035000Y-60910000D01*
X41900000Y-60700000D02*
X42035000Y-60835000D01*
X42035000Y-60910000D02*
X42110000Y-60910000D01*
X42110000Y-60910000D02*
X47400000Y-66200000D01*
X47400000Y-66200000D02*
X48134314Y-66200000D01*
X48400000Y-67800000D02*
X48500000Y-67900000D01*
X48500000Y-67900000D02*
X48500000Y-68000000D01*
X48500000Y-68000000D02*
X53450000Y-72950000D01*
X57434314Y-103100000D02*
X57500000Y-103100000D01*
X57134314Y-102800000D02*
X57434314Y-103100000D01*
X48134314Y-66200000D02*
X48400000Y-66465686D01*
X41515000Y-59860000D02*
X41500000Y-59900000D01*
X48400000Y-66465686D02*
X48400000Y-67800000D01*
X57500000Y-103100000D02*
X57600000Y-103200000D01*
X53450000Y-80000000D02*
X56575000Y-83125000D01*
X53450000Y-72950000D02*
X53450000Y-80000000D01*
X62200000Y-105200000D02*
X81100000Y-105200000D01*
X81100000Y-105200000D02*
X85100000Y-101200000D01*
%TO.N,/5VUSB*%
D65*
X71500000Y-76500000D02*
X74500000Y-73500000D01*
X74500000Y-73500000D02*
X94300000Y-73500000D01*
X94300000Y-73500000D02*
X94800000Y-74000000D01*
X94800000Y-74000000D02*
X94800000Y-77300000D01*
%TO.N,+3V3*%
D64*
X88825000Y-104775000D02*
X88825000Y-103525000D01*
X87700000Y-105900000D02*
X88825000Y-104775000D01*
%TO.N,/Driver/OUT2*%
D66*
X18307500Y-88295000D02*
X20957500Y-90945000D01*
X18307500Y-85145000D02*
X18307500Y-88295000D01*
D67*
X23469000Y-88433500D02*
X23469000Y-86795000D01*
X21932500Y-89970000D02*
X23469000Y-88433500D01*
%TO.N,Net-(U8-BOOT)*%
D64*
X80625000Y-59882500D02*
X80625000Y-64750000D01*
X79130000Y-58387500D02*
X80625000Y-59882500D01*
%TO.N,/Driver1/OUT2*%
D67*
X88963500Y-93786500D02*
X90500000Y-92250000D01*
X88963500Y-95425000D02*
X88963500Y-93786500D01*
%TO.N,/2s-6s_to_5v/vsns*%
D64*
X75320000Y-63967500D02*
X75320000Y-63337500D01*
X73425000Y-65862500D02*
X75320000Y-63967500D01*
X73425000Y-69650000D02*
X73425000Y-65862500D01*
X74375000Y-70600000D02*
X73425000Y-69650000D01*
%TO.N,/CAN_TX*%
X24560000Y-49470000D02*
X29030000Y-49470000D01*
X23005000Y-51025000D02*
X24560000Y-49470000D01*
%TO.N,VBUS*%
D68*
X84175000Y-45962500D02*
X84175000Y-45875000D01*
X77375000Y-52762500D02*
X84175000Y-45962500D01*
%TO.N,Net-(SW1-A)*%
D64*
X24510000Y-49000000D02*
X28533278Y-49000000D01*
X22790000Y-47280000D02*
X24510000Y-49000000D01*
%TO.N,+3V3*%
X26925000Y-54800000D02*
X29125000Y-54800000D01*
X25625000Y-53500000D02*
X26925000Y-54800000D01*
X28867500Y-43370000D02*
X33400000Y-43370000D01*
X27600000Y-44637500D02*
X28867500Y-43370000D01*
%TO.N,GND*%
D68*
X86587500Y-80925000D02*
X86950000Y-80562500D01*
X77800000Y-80925000D02*
X86587500Y-80925000D01*
D64*
X92037500Y-105037500D02*
X92037500Y-105325000D01*
X90775000Y-103775000D02*
X92037500Y-105037500D01*
X90863500Y-94175000D02*
X91275000Y-94175000D01*
X89613500Y-95425000D02*
X90863500Y-94175000D01*
X22407500Y-86795000D02*
X22819000Y-86795000D01*
X21157500Y-88045000D02*
X22407500Y-86795000D01*
X21657500Y-78157500D02*
X21657500Y-78445000D01*
X20395000Y-76895000D02*
X21657500Y-78157500D01*
%TO.N,+3V3*%
X23607500Y-78695000D02*
X23607500Y-76260714D01*
%TO.N,/5V*%
D65*
X93300000Y-71100000D02*
X93275000Y-71112500D01*
X93300000Y-72800000D02*
X93300000Y-71100000D01*
X93300000Y-75800000D02*
X93300000Y-74200000D01*
X89300000Y-76700000D02*
X89345192Y-76700000D01*
X92000000Y-79400000D02*
X89300000Y-76700000D01*
X92000000Y-79800000D02*
X92000000Y-79400000D01*
X90700000Y-81100000D02*
X92000000Y-79800000D01*
D64*
X88700000Y-81100000D02*
X90700000Y-81100000D01*
D65*
X87900000Y-81900000D02*
X88700000Y-81100000D01*
D64*
X84500000Y-81900000D02*
X87900000Y-81900000D01*
D65*
X83800000Y-82600000D02*
X84500000Y-81900000D01*
X81100000Y-82600000D02*
X83800000Y-82600000D01*
X78900000Y-84800000D02*
X81100000Y-82600000D01*
X66800000Y-100100000D02*
X66800000Y-96900000D01*
X63600000Y-103300000D02*
X66800000Y-100100000D01*
X63500000Y-103300000D02*
X63600000Y-103300000D01*
X62800000Y-104000000D02*
X63500000Y-103300000D01*
%TO.N,/5V_SERVOS*%
D69*
X86257500Y-72400000D02*
X87655000Y-71002500D01*
X75500000Y-72400000D02*
X86257500Y-72400000D01*
X53800000Y-103300000D02*
X53800000Y-93000000D01*
X51900000Y-105200000D02*
X53800000Y-103300000D01*
X75100000Y-72000000D02*
X75500000Y-72400000D01*
X74800000Y-72000000D02*
X75100000Y-72000000D01*
X74400000Y-72400000D02*
X74800000Y-72000000D01*
X74400000Y-72400000D02*
X74375000Y-72425000D01*
X74400000Y-72500000D02*
X74400000Y-72400000D01*
X69600000Y-77300000D02*
X74400000Y-72500000D01*
X51885000Y-105235000D02*
X51900000Y-105200000D01*
%TO.N,VM*%
D70*
X37300000Y-96700000D02*
X24400000Y-96700000D01*
X64200000Y-73100000D02*
X64200000Y-83900000D01*
X64200000Y-45900000D02*
X64250000Y-45875000D01*
X64200000Y-73100000D02*
X64200000Y-45900000D01*
X72000000Y-80900000D02*
X64200000Y-73100000D01*
X72100000Y-80900000D02*
X72000000Y-80900000D01*
X72300000Y-81100000D02*
X72100000Y-80900000D01*
X72500000Y-81100000D02*
X72300000Y-81100000D01*
X72700000Y-81300000D02*
X72500000Y-81100000D01*
X72900000Y-81300000D02*
X72700000Y-81300000D01*
X73100000Y-81500000D02*
X72900000Y-81300000D01*
X73200000Y-81500000D02*
X73100000Y-81500000D01*
X73400000Y-81700000D02*
X73200000Y-81500000D01*
X74600000Y-81700000D02*
X73400000Y-81700000D01*
X82100000Y-89200000D02*
X74600000Y-81700000D01*
X82125000Y-89175000D02*
X82100000Y-89200000D01*
%TO.N,/OB_I2C_SDA*%
D64*
X32000000Y-63000000D02*
X32000000Y-59300000D01*
X35200000Y-66200000D02*
X32000000Y-63000000D01*
X35200000Y-67000000D02*
X35200000Y-66200000D01*
X37500000Y-69300000D02*
X35200000Y-67000000D01*
X40100000Y-84200000D02*
X40100000Y-86000000D01*
X38700000Y-82800000D02*
X40100000Y-84200000D01*
X32000000Y-56700000D02*
X32000000Y-54800000D01*
X37600000Y-69300000D02*
X37500000Y-69300000D01*
X39900000Y-71600000D02*
X37600000Y-69300000D01*
X40000000Y-71600000D02*
X39900000Y-71600000D01*
X40100000Y-71700000D02*
X40000000Y-71600000D01*
X40300000Y-71700000D02*
X40100000Y-71700000D01*
X38700000Y-87500000D02*
X38700000Y-89900000D01*
X40000000Y-86200000D02*
X38700000Y-87500000D01*
X40000000Y-86100000D02*
X40000000Y-86200000D01*
X40100000Y-86000000D02*
X40000000Y-86100000D01*
X38700000Y-73300000D02*
X38700000Y-82800000D01*
X44600000Y-67400000D02*
X38700000Y-73300000D01*
%TO.N,+3V3*%
D65*
X24560700Y-76260700D02*
X23607500Y-76260714D01*
X24600000Y-76300000D02*
X24560700Y-76260700D01*
X87900000Y-105900000D02*
X87875000Y-105937500D01*
X86500000Y-105900000D02*
X87900000Y-105900000D01*
X86400000Y-106000000D02*
X86500000Y-105900000D01*
X24600000Y-76300000D02*
X24557500Y-76282500D01*
X25500000Y-76300000D02*
X24600000Y-76300000D01*
X25800000Y-76000000D02*
X25500000Y-76300000D01*
X58600000Y-52300000D02*
X58575000Y-52300000D01*
X58300000Y-52300000D02*
X58600000Y-52300000D01*
X27600000Y-44600000D02*
X27600000Y-44637500D01*
X29200000Y-46200000D02*
X27600000Y-44600000D01*
X29200000Y-46400000D02*
X29200000Y-46200000D01*
X29200000Y-46400000D02*
X29200000Y-46375000D01*
X86400000Y-106000000D02*
X86363500Y-105950000D01*
X55200000Y-53500000D02*
X55250000Y-53500000D01*
X55200000Y-54400000D02*
X55200000Y-53500000D01*
X55400000Y-54600000D02*
X55200000Y-54400000D01*
X73800000Y-76700000D02*
X73800000Y-76687500D01*
X25600000Y-53500000D02*
X25625000Y-53500000D01*
X38000000Y-89900000D02*
X38050000Y-89900000D01*
X38050000Y-89900000D02*
X38000000Y-89900000D01*
X26100000Y-76300000D02*
X26069000Y-76270000D01*
X25800000Y-76000000D02*
X26100000Y-76300000D01*
D64*
X62200000Y-87600000D02*
X62175000Y-87575000D01*
X62200000Y-85135355D02*
X62200000Y-87600000D01*
D71*
X62200000Y-85015742D02*
X62200000Y-85135355D01*
D72*
X62200000Y-84896129D02*
X62200000Y-85015742D01*
D73*
X62200000Y-84776517D02*
X62200000Y-84896129D01*
D74*
X62200000Y-84656904D02*
X62200000Y-84776517D01*
D65*
X62200000Y-83700000D02*
X62200000Y-84656904D01*
D64*
X38400000Y-91000000D02*
X53800000Y-91000000D01*
X38100000Y-90700000D02*
X38400000Y-91000000D01*
X38100000Y-90000000D02*
X38100000Y-90700000D01*
X38000000Y-89900000D02*
X38100000Y-90000000D01*
X38050000Y-89900000D02*
X38000000Y-89900000D01*
%TO.N,GND*%
D65*
X85100000Y-95400000D02*
X85063500Y-95425000D01*
X85600000Y-95400000D02*
X85100000Y-95400000D01*
D75*
X40600000Y-89900000D02*
X41300000Y-89900000D01*
X46500000Y-95600000D02*
X46500000Y-95625000D01*
X46500000Y-94800000D02*
X46500000Y-95600000D01*
X46100000Y-94400000D02*
X46500000Y-94800000D01*
X41000000Y-94400000D02*
X46100000Y-94400000D01*
X40600000Y-94800000D02*
X41000000Y-94400000D01*
X40600000Y-95600000D02*
X40600000Y-94800000D01*
X40600000Y-95600000D02*
X40650000Y-95625000D01*
X40000000Y-95600000D02*
X40600000Y-95600000D01*
D65*
X40600000Y-89900000D02*
X40650000Y-89900000D01*
X40100000Y-89900000D02*
X40600000Y-89900000D01*
D75*
X40100000Y-89900000D02*
X40000000Y-89900000D01*
D65*
X40000000Y-95600000D02*
X40000000Y-95625000D01*
X39400000Y-95600000D02*
X40000000Y-95600000D01*
X39400000Y-95600000D02*
X39350000Y-95625000D01*
X38700000Y-95600000D02*
X39400000Y-95600000D01*
X27400000Y-86800000D02*
X27369000Y-86795000D01*
X26800000Y-86800000D02*
X27400000Y-86800000D01*
X62200000Y-93300000D02*
X62175000Y-93300000D01*
X62700000Y-93300000D02*
X62200000Y-93300000D01*
X38700000Y-95600000D02*
X38700000Y-95625000D01*
X38000000Y-95600000D02*
X38700000Y-95600000D01*
X30800000Y-46400000D02*
X30800000Y-46362500D01*
X27600000Y-46400000D02*
X27600000Y-46362500D01*
X26900000Y-46400000D02*
X27600000Y-46400000D01*
X25500000Y-47800000D02*
X26900000Y-46400000D01*
X14800000Y-42800000D02*
X14840000Y-42780000D01*
X14800000Y-47300000D02*
X14800000Y-42800000D01*
X25500000Y-47800000D02*
X25500000Y-47787500D01*
X14800000Y-47300000D02*
X14840000Y-47280000D01*
D64*
X21700000Y-51000000D02*
X21735000Y-51025000D01*
D65*
X24800000Y-58200000D02*
X24760000Y-58180000D01*
X24700000Y-64200000D02*
X24675000Y-64250000D01*
X22700000Y-62200000D02*
X24700000Y-64200000D01*
X20600000Y-62200000D02*
X22700000Y-62200000D01*
D64*
X20500000Y-62300000D02*
X20600000Y-62200000D01*
D65*
X20200000Y-62300000D02*
X20500000Y-62300000D01*
X31200000Y-71800000D02*
X31157500Y-71830000D01*
X31200000Y-69800000D02*
X31200000Y-71800000D01*
X34300000Y-66700000D02*
X31200000Y-69800000D01*
X34300000Y-66700000D02*
X34280000Y-66710000D01*
X27200000Y-66700000D02*
X27245000Y-66710001D01*
D64*
X27300000Y-66700000D02*
X27200000Y-66700000D01*
D65*
X24700000Y-67900000D02*
X24675000Y-67890000D01*
X20200000Y-68700000D02*
X20155000Y-68700000D01*
X20200000Y-69200000D02*
X20200000Y-68700000D01*
X19600000Y-69800000D02*
X20200000Y-69200000D01*
X19580000Y-69820000D02*
X19600000Y-69800000D01*
X20200000Y-62300000D02*
X20155000Y-62300000D01*
X20200000Y-61800000D02*
X20200000Y-62300000D01*
X19600000Y-61200000D02*
X20200000Y-61800000D01*
X19580000Y-61180000D02*
X19600000Y-61200000D01*
X61700000Y-63100000D02*
X61720000Y-63100000D01*
X61700000Y-58600000D02*
X61700000Y-63100000D01*
X91800000Y-89200000D02*
X91750000Y-89175000D01*
D64*
X64100000Y-87600000D02*
X64125000Y-87575000D01*
X64100000Y-86500000D02*
X64100000Y-87600000D01*
D75*
X62800000Y-93300000D02*
X62825000Y-93300000D01*
X62700000Y-93300000D02*
X62800000Y-93300000D01*
X26700000Y-86800000D02*
X26719000Y-86795000D01*
X26800000Y-86800000D02*
X26700000Y-86800000D01*
X85700000Y-95400000D02*
X85713500Y-95425000D01*
X85600000Y-95400000D02*
X85700000Y-95400000D01*
D65*
X38000000Y-95600000D02*
X38050000Y-95625000D01*
D75*
X69300000Y-93300000D02*
X69325000Y-93300000D01*
X69400000Y-93300000D02*
X69300000Y-93300000D01*
D65*
X73700000Y-89200000D02*
X73725000Y-89175000D01*
X73700000Y-89100000D02*
X73700000Y-89200000D01*
X61700000Y-58600000D02*
X61720000Y-58600000D01*
%TO.N,/OB_I2C_SCL*%
D64*
X40600000Y-86100000D02*
X39400000Y-87300000D01*
X40600000Y-81500000D02*
X40600000Y-86100000D01*
X40800000Y-73700000D02*
X40800000Y-80100000D01*
X47100000Y-67400000D02*
X40800000Y-73700000D01*
X38700000Y-58500000D02*
X38700000Y-58600000D01*
X34200000Y-54000000D02*
X38700000Y-58500000D01*
X39400000Y-89900000D02*
X39350000Y-89900000D01*
X39400000Y-87300000D02*
X39400000Y-89900000D01*
X34100000Y-53900000D02*
X34200000Y-54000000D01*
X33800000Y-53900000D02*
X34100000Y-53900000D01*
X33400000Y-53500000D02*
X33800000Y-53900000D01*
X33370000Y-53500000D02*
X33400000Y-53500000D01*
%TO.N,/DRV2_PMode*%
X40200000Y-59900000D02*
X40245000Y-59860000D01*
X40200000Y-71000000D02*
X40200000Y-59900000D01*
%TO.N,/EXT_I2C_RST*%
X63400000Y-53500000D02*
X63400000Y-66400000D01*
X55600000Y-45700000D02*
X63400000Y-53500000D01*
X63500000Y-93300000D02*
X63475000Y-93300000D01*
X63500000Y-94400000D02*
X63500000Y-93300000D01*
X63500000Y-90800000D02*
X63500000Y-91600000D01*
X61200000Y-88500000D02*
X63500000Y-90800000D01*
X61200000Y-80300000D02*
X61200000Y-88500000D01*
X61000000Y-80100000D02*
X61200000Y-80300000D01*
X53500000Y-45700000D02*
X55600000Y-45700000D01*
X53100000Y-46100000D02*
X53500000Y-45700000D01*
X53100000Y-49300000D02*
X53100000Y-46100000D01*
X51400000Y-51000000D02*
X53100000Y-49300000D01*
X50900000Y-51000000D02*
X51400000Y-51000000D01*
%TO.N,/5VUSB*%
D65*
X93400000Y-79100000D02*
X93400000Y-80800000D01*
X94800000Y-77700000D02*
X93400000Y-79100000D01*
X94800000Y-77600000D02*
X94800000Y-77700000D01*
X94900000Y-77500000D02*
X94800000Y-77600000D01*
X94900000Y-77400000D02*
X94900000Y-77500000D01*
D64*
X94800000Y-77300000D02*
X94900000Y-77400000D01*
D65*
X39300000Y-80800000D02*
X52900000Y-80800000D01*
X35900000Y-80800000D02*
X38100000Y-80800000D01*
X28700000Y-73600000D02*
X35900000Y-80800000D01*
X26900000Y-71800000D02*
X27900000Y-72800000D01*
X26857500Y-71830000D02*
X26900000Y-71800000D01*
%TO.N,/I2C_SDA_CH2*%
D64*
X67400000Y-101400000D02*
X68800000Y-102800000D01*
X67400000Y-93300000D02*
X67400000Y-101400000D01*
X74400000Y-102800000D02*
X75700000Y-101500000D01*
X68800000Y-102800000D02*
X74400000Y-102800000D01*
X67375000Y-93300000D02*
X67400000Y-93300000D01*
%TO.N,/EXT_I2C_SDA*%
X57100000Y-52600000D02*
X57100000Y-55700000D01*
X56800000Y-52300000D02*
X57100000Y-52600000D01*
X62800000Y-87600000D02*
X62825000Y-87575000D01*
X62800000Y-67400000D02*
X62800000Y-87600000D01*
X56825000Y-52300000D02*
X56800000Y-52300000D01*
%TO.N,/DRV1_PMode*%
X44100000Y-59900000D02*
X44055000Y-59860000D01*
X44100000Y-59400000D02*
X44100000Y-59900000D01*
X43500000Y-58800000D02*
X44100000Y-59400000D01*
X43400000Y-58800000D02*
X43500000Y-58800000D01*
X43300000Y-58700000D02*
X43400000Y-58800000D01*
X39700000Y-58700000D02*
X43300000Y-58700000D01*
X39400000Y-58400000D02*
X39700000Y-58700000D01*
X26800000Y-77400000D02*
X26800000Y-77200000D01*
X26100000Y-78100000D02*
X26800000Y-77400000D01*
X26069000Y-78095000D02*
X26100000Y-78100000D01*
%TO.N,/I2C_SCL_CH2*%
X75700000Y-98300000D02*
X75700000Y-99000000D01*
X69600000Y-92200000D02*
X75700000Y-98300000D01*
X67100000Y-92200000D02*
X69600000Y-92200000D01*
X66800000Y-92500000D02*
X67100000Y-92200000D01*
X66800000Y-93200000D02*
X66800000Y-92500000D01*
X66700000Y-93300000D02*
X66800000Y-93200000D01*
X66725000Y-93300000D02*
X66700000Y-93300000D01*
%TO.N,/DRV2_IN2*%
X61600000Y-76000000D02*
X61600000Y-88400000D01*
X53600000Y-68000000D02*
X61600000Y-76000000D01*
X53600000Y-67100000D02*
X53600000Y-68000000D01*
X52700000Y-66200000D02*
X53600000Y-67100000D01*
X48900000Y-66200000D02*
X52700000Y-66200000D01*
X48800000Y-66300000D02*
X48900000Y-66200000D01*
X85700000Y-101200000D02*
X85713500Y-101165000D01*
X85700000Y-100300000D02*
X85700000Y-101200000D01*
X85400000Y-100000000D02*
X85700000Y-100300000D01*
X84500000Y-100000000D02*
X85400000Y-100000000D01*
X76300000Y-91800000D02*
X84500000Y-100000000D01*
X65000000Y-91800000D02*
X76300000Y-91800000D01*
X61600000Y-88400000D02*
X65000000Y-91800000D01*
X43200000Y-60700000D02*
X48800000Y-66300000D01*
X43200000Y-60300000D02*
X43200000Y-60700000D01*
X42800000Y-59900000D02*
X43200000Y-60300000D01*
X42785000Y-59860000D02*
X42800000Y-59900000D01*
%TO.N,/DRV1_IN2*%
X28000000Y-73500000D02*
X28000000Y-81900000D01*
X28400000Y-73100000D02*
X28000000Y-73500000D01*
X28400000Y-70300000D02*
X28400000Y-73100000D01*
X26700000Y-68600000D02*
X28400000Y-70300000D01*
X26700000Y-81100000D02*
X26719000Y-81055000D01*
X26700000Y-81900000D02*
X26700000Y-81100000D01*
X27000000Y-82200000D02*
X26700000Y-81900000D01*
X27700000Y-82200000D02*
X27000000Y-82200000D01*
X28000000Y-81900000D02*
X27700000Y-82200000D01*
X32500000Y-51400000D02*
X31900000Y-52000000D01*
X33000000Y-51400000D02*
X32500000Y-51400000D01*
X33400000Y-51000000D02*
X33000000Y-51400000D01*
%TO.N,/UART_1_Rx*%
X47900000Y-59900000D02*
X47865000Y-59860000D01*
X47900000Y-43400000D02*
X47900000Y-59900000D01*
X50000000Y-41300000D02*
X47900000Y-43400000D01*
X52000000Y-41300000D02*
X50000000Y-41300000D01*
X52800000Y-42100000D02*
X52000000Y-41300000D01*
X52800000Y-42700000D02*
X52800000Y-42100000D01*
X54500000Y-44400000D02*
X52800000Y-42700000D01*
%TO.N,/I2C_SDA_CH1*%
X57600000Y-102700000D02*
X56400000Y-101500000D01*
X63500000Y-102700000D02*
X57600000Y-102700000D01*
X64200000Y-102000000D02*
X63500000Y-102700000D01*
X64200000Y-100600000D02*
X64200000Y-102000000D01*
X65200000Y-99600000D02*
X64200000Y-100600000D01*
X65200000Y-94900000D02*
X65200000Y-99600000D01*
X66000000Y-94100000D02*
X65200000Y-94900000D01*
X66000000Y-93400000D02*
X66000000Y-94100000D01*
X66100000Y-93300000D02*
X66000000Y-93400000D01*
X66075000Y-93300000D02*
X66100000Y-93300000D01*
%TO.N,/I2C_SCL_CH1*%
X65400000Y-93300000D02*
X65425000Y-93300000D01*
X65400000Y-92500000D02*
X65400000Y-93300000D01*
X65100000Y-92200000D02*
X65400000Y-92500000D01*
X61900000Y-92200000D02*
X65100000Y-92200000D01*
X61600000Y-92500000D02*
X61900000Y-92200000D01*
X61600000Y-93800000D02*
X61600000Y-92500000D01*
X56400000Y-99000000D02*
X61600000Y-93800000D01*
%TO.N,/I2C_SDA_CH3*%
X70500000Y-99700000D02*
X70500000Y-98500000D01*
X69000000Y-101200000D02*
X70500000Y-99700000D01*
X68700000Y-93300000D02*
X68675000Y-93300000D01*
X68700000Y-96600000D02*
X68700000Y-93300000D01*
X70400000Y-98300000D02*
X68700000Y-96600000D01*
X70400000Y-98400000D02*
X70400000Y-98300000D01*
X70500000Y-98500000D02*
X70400000Y-98400000D01*
%TO.N,/EXT_I2C_SCL*%
X57100000Y-56600000D02*
X57100000Y-60900000D01*
X55900000Y-55400000D02*
X57100000Y-56600000D01*
X63500000Y-87600000D02*
X63475000Y-87575000D01*
X63500000Y-67300000D02*
X63500000Y-87600000D01*
X57900000Y-61700000D02*
X63500000Y-67300000D01*
X55400000Y-55400000D02*
X55900000Y-55400000D01*
X53500000Y-53500000D02*
X55400000Y-55400000D01*
%TO.N,/UART_1_Tx*%
X46600000Y-59900000D02*
X46595000Y-59860000D01*
X46600000Y-60300000D02*
X46600000Y-59900000D01*
X47300000Y-61000000D02*
X46600000Y-60300000D01*
X47700000Y-61000000D02*
X47300000Y-61000000D01*
X50800000Y-64100000D02*
X47700000Y-61000000D01*
X54700000Y-64100000D02*
X50800000Y-64100000D01*
X57700000Y-61100000D02*
X54700000Y-64100000D01*
X57700000Y-50300000D02*
X57700000Y-61100000D01*
X54500000Y-47100000D02*
X57700000Y-50300000D01*
%TO.N,/I2C_SDA_CH0*%
X64800000Y-93300000D02*
X64775000Y-93300000D01*
X64800000Y-99500000D02*
X64800000Y-93300000D01*
X62800000Y-101500000D02*
X64800000Y-99500000D01*
%TO.N,/I2C_SCL_CH0*%
X64100000Y-93300000D02*
X64125000Y-93300000D01*
X64100000Y-97700000D02*
X64100000Y-93300000D01*
X62800000Y-99000000D02*
X64100000Y-97700000D01*
%TO.N,/I2C_SCL_CH3*%
X68000000Y-93300000D02*
X68025000Y-93300000D01*
X68000000Y-97800000D02*
X68000000Y-93300000D01*
X69200000Y-99000000D02*
X68000000Y-97800000D01*
%TO.N,/2s-6s_to_5v/vsns*%
X76100000Y-71400000D02*
X76112500Y-71362500D01*
X75200000Y-71400000D02*
X76100000Y-71400000D01*
X74400000Y-70600000D02*
X75200000Y-71400000D01*
X74375000Y-70600000D02*
X74400000Y-70600000D01*
%TO.N,GND*%
D68*
X72612500Y-80087500D02*
X73325000Y-80087500D01*
D64*
X22819000Y-86795000D02*
X22819000Y-82683500D01*
D68*
X88700000Y-79825000D02*
X89850000Y-79825000D01*
X73800000Y-80087500D02*
X72612500Y-80087500D01*
D64*
X89613500Y-95425000D02*
X89613500Y-99536500D01*
D67*
X20682500Y-93045000D02*
X19107500Y-93045000D01*
D68*
X77800000Y-79925000D02*
X77800000Y-80925000D01*
X73800000Y-80087500D02*
X75887500Y-80087500D01*
D64*
X23469000Y-82033500D02*
X23469000Y-81055000D01*
D68*
X89850000Y-79825000D02*
X90700000Y-79825000D01*
D64*
X89613500Y-99536500D02*
X88963500Y-100186500D01*
D68*
X76050000Y-79925000D02*
X77800000Y-79925000D01*
X86950000Y-80562500D02*
X87962500Y-80562500D01*
X87962500Y-80562500D02*
X88700000Y-79825000D01*
D64*
X22819000Y-82683500D02*
X23469000Y-82033500D01*
D67*
X24407500Y-105095000D02*
X24407500Y-109995000D01*
D68*
X75887500Y-80087500D02*
X76050000Y-79925000D01*
D64*
X88963500Y-100186500D02*
X88963500Y-101165000D01*
%TO.N,Net-(U3-VO)*%
D68*
X79150000Y-76912500D02*
X79037500Y-76800000D01*
X79550000Y-78262500D02*
X79150000Y-77862500D01*
X77662500Y-76662500D02*
X77800000Y-76800000D01*
X80650000Y-78262500D02*
X86950000Y-78262500D01*
X75575000Y-76662500D02*
X77662500Y-76662500D01*
X80650000Y-78262500D02*
X79550000Y-78262500D01*
X79037500Y-76800000D02*
X77800000Y-76800000D01*
X79150000Y-77862500D02*
X79150000Y-76912500D01*
%TO.N,+3V3*%
D64*
X24769000Y-81055000D02*
X24769000Y-79856500D01*
X20465000Y-42315000D02*
X21390000Y-41390000D01*
X24490000Y-41390000D02*
X25500000Y-42400000D01*
X21390000Y-41390000D02*
X24490000Y-41390000D01*
X24769000Y-79856500D02*
X23607500Y-78695000D01*
D68*
X73800000Y-76687500D02*
X73825000Y-76662500D01*
D64*
X87663500Y-102363500D02*
X88825000Y-103525000D01*
X27600000Y-44637500D02*
X25525000Y-44637500D01*
X87663500Y-101165000D02*
X87663500Y-102363500D01*
X20465000Y-51025000D02*
X20465000Y-42315000D01*
X25525000Y-44637500D02*
X25500000Y-44662500D01*
X32855000Y-43075000D02*
X32875000Y-43055000D01*
X25500000Y-42400000D02*
X25500000Y-44662500D01*
D68*
X73800000Y-78337500D02*
X73800000Y-76687500D01*
%TO.N,/5V*%
X89850000Y-76700000D02*
X90962500Y-76700000D01*
X91850000Y-75812500D02*
X93400000Y-75812500D01*
X90962500Y-76700000D02*
X91850000Y-75812500D01*
X86950000Y-75962500D02*
X87800000Y-75962500D01*
X87800000Y-75962500D02*
X88537500Y-76700000D01*
X88537500Y-76700000D02*
X89850000Y-76700000D01*
%TO.N,/5VUSB*%
D64*
X19359594Y-67715000D02*
X19544594Y-67900000D01*
X18685000Y-63959594D02*
X18685000Y-67045000D01*
X21255000Y-67900000D02*
X20155000Y-67900000D01*
X25185000Y-71830000D02*
X21255000Y-67900000D01*
X26857500Y-71830000D02*
X25185000Y-71830000D01*
X19544594Y-67900000D02*
X20155000Y-67900000D01*
X19544594Y-63100000D02*
X18685000Y-63959594D01*
X20155000Y-63100000D02*
X19544594Y-63100000D01*
X18685000Y-67045000D02*
X19355000Y-67715000D01*
%TO.N,/EXT_I2C_SDA*%
X56825000Y-52300000D02*
X50940000Y-52300000D01*
X50940000Y-52300000D02*
X50900000Y-52260000D01*
%TO.N,Net-(SW1-A)*%
X28533278Y-49000000D02*
X29663278Y-47870000D01*
X30800000Y-44637500D02*
X33397500Y-44637500D01*
X31340000Y-47870000D02*
X31800000Y-47410000D01*
X31800000Y-45100000D02*
X32260000Y-44640000D01*
X22790000Y-42780000D02*
X22790000Y-47280000D01*
X30800000Y-44637500D02*
X29212500Y-44637500D01*
X29663278Y-47870000D02*
X31340000Y-47870000D01*
X31800000Y-47410000D02*
X31800000Y-45100000D01*
%TO.N,/Driver1/nFault*%
X87875000Y-103325000D02*
X87013500Y-102463500D01*
X87013500Y-102463500D02*
X87013500Y-101165000D01*
X87875000Y-104112500D02*
X87875000Y-103325000D01*
%TO.N,/Driver/CPL*%
X27144000Y-89031500D02*
X26069000Y-87956500D01*
X26069000Y-87956500D02*
X26069000Y-86795000D01*
X27144000Y-89745000D02*
X27144000Y-89031500D01*
%TO.N,/Driver/CPH*%
X25419000Y-89745000D02*
X25419000Y-86795000D01*
%TO.N,Net-(U8-COMP)*%
X76162500Y-66362500D02*
X75525000Y-66362500D01*
X76162500Y-65025000D02*
X76162500Y-66362500D01*
X76590000Y-64597500D02*
X76162500Y-65025000D01*
X75087500Y-66800000D02*
X74362500Y-66800000D01*
X76590000Y-63337500D02*
X76590000Y-64597500D01*
X75525000Y-66362500D02*
X75087500Y-66800000D01*
%TO.N,/OB_I2C_SCL*%
X33370000Y-53500000D02*
X33400000Y-53530000D01*
X27375000Y-53500000D02*
X33370000Y-53500000D01*
%TO.N,/CAN_TX*%
X29030000Y-49470000D02*
X30050000Y-48450000D01*
X30050000Y-48450000D02*
X33400000Y-48450000D01*
%TO.N,/CAN_RX*%
X29700000Y-50500000D02*
X30480000Y-49720000D01*
X30480000Y-49720000D02*
X33400000Y-49720000D01*
X19470000Y-52530000D02*
X24170000Y-52530000D01*
X26200000Y-50500000D02*
X29700000Y-50500000D01*
X24170000Y-52530000D02*
X26200000Y-50500000D01*
X19195000Y-51025000D02*
X19195000Y-52255000D01*
X19195000Y-52255000D02*
X19470000Y-52530000D01*
%TO.N,/OB_I2C_SDA*%
X33400000Y-54800000D02*
X30875000Y-54800000D01*
%TO.N,/USB_N*%
X27235000Y-65750000D02*
X20155000Y-65750000D01*
X32150000Y-57340000D02*
X28430000Y-61060000D01*
X28120000Y-65760000D02*
X27245000Y-65760000D01*
X20155000Y-64750000D02*
X21055000Y-64750000D01*
X28430000Y-61060000D02*
X28430000Y-65450000D01*
X33400000Y-57340000D02*
X32150000Y-57340000D01*
X28430000Y-65450000D02*
X28120000Y-65760000D01*
X21055000Y-64750000D02*
X22055000Y-65750000D01*
%TO.N,/USB_P*%
X19445000Y-66250000D02*
X20155000Y-66250000D01*
X27864949Y-67660002D02*
X27245000Y-67660002D01*
X29000000Y-61470000D02*
X29000000Y-66524951D01*
X26155002Y-67660002D02*
X27245000Y-67660002D01*
X29000000Y-66524951D02*
X27864949Y-67660002D01*
X31860000Y-58610000D02*
X29000000Y-61470000D01*
X19135000Y-65550000D02*
X19135000Y-65940000D01*
X33400000Y-58610000D02*
X31860000Y-58610000D01*
X20155000Y-65250000D02*
X19435000Y-65250000D01*
X24745000Y-66250000D02*
X26155002Y-67660002D01*
X20155000Y-66250000D02*
X24745000Y-66250000D01*
X19135000Y-65940000D02*
X19445000Y-66250000D01*
X19435000Y-65250000D02*
X19135000Y-65550000D01*
%TO.N,/DRV2_PMode*%
X86363500Y-104125000D02*
X86363500Y-101165000D01*
%TO.N,/DRV1_PMode*%
X26069000Y-78095000D02*
X26069000Y-81055000D01*
%TO.N,Net-(SW2-A)*%
X53770000Y-56300000D02*
X53770000Y-58600000D01*
X53770000Y-58600000D02*
X53770000Y-63100000D01*
X50900000Y-58610000D02*
X53760000Y-58610000D01*
%TO.N,/EXT_I2C_SCL*%
X53500000Y-53500000D02*
X50930000Y-53500000D01*
X50930000Y-53500000D02*
X50900000Y-53530000D01*
%TO.N,Net-(J2-Pin_2)*%
X19740000Y-53810000D02*
X20465000Y-54535000D01*
X20465000Y-57025000D02*
X20100000Y-57390000D01*
X20465000Y-55975000D02*
X20465000Y-57025000D01*
X19490000Y-57630000D02*
X19490000Y-58180000D01*
X20465000Y-54535000D02*
X20465000Y-55975000D01*
X20100000Y-57390000D02*
X19730000Y-57390000D01*
X15310000Y-53810000D02*
X19740000Y-53810000D01*
X19730000Y-57390000D02*
X19490000Y-57630000D01*
%TO.N,Net-(J2-Pin_1)*%
X21240000Y-57560000D02*
X21240000Y-58180000D01*
X15310000Y-52310000D02*
X17670000Y-52310000D01*
X18650000Y-53290000D02*
X20690000Y-53290000D01*
X20690000Y-53290000D02*
X21735000Y-54335000D01*
X21740000Y-55980000D02*
X21740000Y-57060000D01*
X21740000Y-57060000D02*
X21240000Y-57560000D01*
X17670000Y-52310000D02*
X18650000Y-53290000D01*
X21735000Y-54335000D02*
X21735000Y-55975000D01*
%TO.N,Net-(U7-Rs)*%
X23010000Y-58180000D02*
X23010000Y-55980000D01*
X23010000Y-55980000D02*
X23005000Y-55975000D01*
%TO.N,/Driver1/OUT1*%
D66*
X90875000Y-101275000D02*
X90168500Y-101275000D01*
X92475000Y-99675000D02*
X90875000Y-101275000D01*
X93875000Y-99675000D02*
X92475000Y-99675000D01*
%TO.N,/Driver1/OUT2*%
X93875000Y-93925000D02*
X93875000Y-97135000D01*
X92200000Y-92250000D02*
X93875000Y-93925000D01*
X90500000Y-92250000D02*
X92200000Y-92250000D01*
%TO.N,Net-(U6-IPROPI)*%
D64*
X88313500Y-102377104D02*
X88313500Y-101165000D01*
X89275000Y-104575000D02*
X89275000Y-103338604D01*
X90025000Y-105325000D02*
X89275000Y-104575000D01*
X89275000Y-103338604D02*
X88313500Y-102377104D01*
X90212500Y-105325000D02*
X90025000Y-105325000D01*
%TO.N,VM*%
X24119000Y-88597104D02*
X23457500Y-89258604D01*
X88975000Y-92961396D02*
X88975000Y-91525000D01*
D70*
X88012500Y-89175000D02*
X88025000Y-89162500D01*
D76*
X24407500Y-93057500D02*
X22420000Y-93057500D01*
X88025000Y-89162500D02*
X90012500Y-89162500D01*
D64*
X22407500Y-91745000D02*
X22407500Y-93045000D01*
D76*
X24407500Y-96695000D02*
X24407500Y-93057500D01*
D64*
X88313500Y-93622896D02*
X88975000Y-92961396D01*
X23457500Y-89258604D02*
X23457500Y-90695000D01*
X90025000Y-90475000D02*
X90025000Y-89175000D01*
X24119000Y-86795000D02*
X24119000Y-88597104D01*
X88975000Y-91525000D02*
X90025000Y-90475000D01*
X88313500Y-95425000D02*
X88313500Y-93622896D01*
D76*
X90012500Y-89162500D02*
X90025000Y-89175000D01*
D64*
X23457500Y-90695000D02*
X22407500Y-91745000D01*
D70*
X82125000Y-89175000D02*
X88012500Y-89175000D01*
D76*
X22420000Y-93057500D02*
X22407500Y-93045000D01*
%TO.N,Net-(U6-VCP)*%
D64*
X88025000Y-90887500D02*
X88025000Y-93275000D01*
X88025000Y-93275000D02*
X87663500Y-93636500D01*
X87925000Y-90887500D02*
X88025000Y-90887500D01*
X87663500Y-93636500D02*
X87663500Y-95425000D01*
%TO.N,/Driver1/CPH*%
X87013500Y-92475000D02*
X87013500Y-95425000D01*
%TO.N,/Driver1/CPL*%
X86363500Y-94263500D02*
X86363500Y-95425000D01*
X85288500Y-93188500D02*
X86363500Y-94263500D01*
X85288500Y-92475000D02*
X85288500Y-93188500D01*
%TO.N,Net-(U10-VCC)*%
X32555000Y-66710000D02*
X30178700Y-66710001D01*
%TO.N,/Driver/nFault*%
X24557500Y-78107500D02*
X24557500Y-78895000D01*
X25419000Y-79756500D02*
X25419000Y-81055000D01*
X24557500Y-78895000D02*
X25419000Y-79756500D01*
%TO.N,VBUS*%
D68*
X76037500Y-52762500D02*
X76937500Y-52762500D01*
X77862500Y-52800000D02*
X77900000Y-52762500D01*
X77860000Y-58387500D02*
X77860000Y-55565000D01*
X77862500Y-55562500D02*
X77862500Y-52800000D01*
X76937500Y-52762500D02*
X77900000Y-52762500D01*
%TO.N,Net-(U8-EN)*%
D64*
X72437500Y-52762500D02*
X74212500Y-52762500D01*
X74212500Y-53350000D02*
X75025000Y-54162500D01*
X75025000Y-54162500D02*
X76025000Y-54162500D01*
X76025000Y-54162500D02*
X76590000Y-54727500D01*
X76590000Y-54727500D02*
X76590000Y-58387500D01*
X74212500Y-52762500D02*
X74212500Y-53350000D01*
%TO.N,Net-(U8-SS)*%
X75320000Y-58387500D02*
X75320000Y-55595000D01*
X75320000Y-55595000D02*
X75287500Y-55562500D01*
%TO.N,Net-(C_6-Pad2)*%
X74887500Y-68525000D02*
X75325000Y-68962500D01*
X74362500Y-68525000D02*
X74887500Y-68525000D01*
X75325000Y-68962500D02*
X76125000Y-68962500D01*
%TO.N,Net-(J1-CC1)*%
X22925000Y-64250000D02*
X20155000Y-64250000D01*
%TO.N,Net-(J1-CC2)*%
X21335000Y-67250000D02*
X21975000Y-67890000D01*
X20155000Y-67250000D02*
X21335000Y-67250000D01*
X21975000Y-67890000D02*
X22925000Y-67890000D01*
%TO.N,Net-(U5-VCP)*%
X24407500Y-88945000D02*
X24769000Y-88583500D01*
X24507500Y-91332500D02*
X24407500Y-91332500D01*
X24769000Y-88583500D02*
X24769000Y-86795000D01*
X24407500Y-91332500D02*
X24407500Y-88945000D01*
%TO.N,Net-(U5-IPROPI)*%
X23157500Y-77645000D02*
X23157500Y-78881396D01*
X23157500Y-78881396D02*
X24119000Y-79842896D01*
X22220000Y-76895000D02*
X22407500Y-76895000D01*
X22407500Y-76895000D02*
X23157500Y-77645000D01*
X24119000Y-79842896D02*
X24119000Y-81055000D01*
%TO.N,/Driver/OUT1*%
D66*
X19897500Y-82605000D02*
X21557500Y-80945000D01*
X18307500Y-82605000D02*
X19897500Y-82605000D01*
X21557500Y-80945000D02*
X22264000Y-80945000D01*
%TO.N,/Driver/OUT2*%
X20957500Y-90945000D02*
X21932500Y-89970000D01*
%TD*%
%TA.AperFunction,Conductor*%
%TO.N,/5V_SERVOS*%
G36*
X89692571Y-60382185D02*
G01*
X89738326Y-60434989D01*
X89748270Y-60504147D01*
X89743238Y-60525504D01*
X89710319Y-60624847D01*
X89700000Y-60725845D01*
X89700000Y-60825000D01*
X91649999Y-60825000D01*
X91649999Y-60725860D01*
X91649998Y-60725845D01*
X91639680Y-60624847D01*
X91606762Y-60525504D01*
X91604360Y-60455675D01*
X91640092Y-60395633D01*
X91702613Y-60364441D01*
X91724468Y-60362500D01*
X93025532Y-60362500D01*
X93092571Y-60382185D01*
X93138326Y-60434989D01*
X93148270Y-60504147D01*
X93143238Y-60525504D01*
X93110319Y-60624847D01*
X93100000Y-60725845D01*
X93100000Y-60825000D01*
X95049999Y-60825000D01*
X95049999Y-60725860D01*
X95049998Y-60725845D01*
X95039680Y-60624847D01*
X95006762Y-60525504D01*
X95004360Y-60455675D01*
X95040092Y-60395633D01*
X95102613Y-60364441D01*
X95124468Y-60362500D01*
X96701000Y-60362500D01*
X96768039Y-60382185D01*
X96813794Y-60434989D01*
X96825000Y-60486500D01*
X96825000Y-68238500D01*
X96805315Y-68305539D01*
X96752511Y-68351294D01*
X96701000Y-68362500D01*
X94535023Y-68362500D01*
X94467984Y-68342815D01*
X94422229Y-68290011D01*
X94412285Y-68220853D01*
X94441310Y-68157297D01*
X94447342Y-68150819D01*
X94517315Y-68080845D01*
X94609356Y-67931624D01*
X94609358Y-67931619D01*
X94664505Y-67765197D01*
X94664506Y-67765190D01*
X94674999Y-67662486D01*
X94675000Y-67662473D01*
X94675000Y-66362500D01*
X91875001Y-66362500D01*
X91875001Y-67662486D01*
X91885494Y-67765197D01*
X91940641Y-67931619D01*
X91940643Y-67931624D01*
X92032684Y-68080845D01*
X92102658Y-68150819D01*
X92136143Y-68212142D01*
X92131159Y-68281834D01*
X92089287Y-68337767D01*
X92023823Y-68362184D01*
X92014977Y-68362500D01*
X90091366Y-68362500D01*
X90024327Y-68342815D01*
X90017055Y-68337766D01*
X89942093Y-68281649D01*
X89942086Y-68281645D01*
X89807379Y-68231403D01*
X89807372Y-68231401D01*
X89747844Y-68225000D01*
X89200000Y-68225000D01*
X89200000Y-69701000D01*
X89180315Y-69768039D01*
X89127511Y-69813794D01*
X89076000Y-69825000D01*
X88950000Y-69825000D01*
X88950000Y-69951000D01*
X88930315Y-70018039D01*
X88877511Y-70063794D01*
X88826000Y-70075000D01*
X87700000Y-70075000D01*
X87700000Y-70972844D01*
X87706401Y-71032372D01*
X87706403Y-71032379D01*
X87756645Y-71167086D01*
X87756647Y-71167089D01*
X87829336Y-71264188D01*
X87853754Y-71329653D01*
X87838903Y-71397926D01*
X87789498Y-71447332D01*
X87730070Y-71462500D01*
X87299000Y-71462500D01*
X87231961Y-71442815D01*
X87186206Y-71390011D01*
X87175000Y-71338500D01*
X87175000Y-68677155D01*
X87700000Y-68677155D01*
X87700000Y-69575000D01*
X88700000Y-69575000D01*
X88700000Y-68225000D01*
X88152155Y-68225000D01*
X88092627Y-68231401D01*
X88092620Y-68231403D01*
X87957913Y-68281645D01*
X87957906Y-68281649D01*
X87842812Y-68367809D01*
X87842809Y-68367812D01*
X87756649Y-68482906D01*
X87756645Y-68482913D01*
X87706403Y-68617620D01*
X87706401Y-68617627D01*
X87700000Y-68677155D01*
X87175000Y-68677155D01*
X87175000Y-67786500D01*
X87194685Y-67719461D01*
X87247489Y-67673706D01*
X87299000Y-67662500D01*
X87925000Y-67662500D01*
X87925000Y-64562513D01*
X91875000Y-64562513D01*
X91875000Y-65862500D01*
X93025000Y-65862500D01*
X93525000Y-65862500D01*
X94674999Y-65862500D01*
X94674999Y-64562528D01*
X94674998Y-64562513D01*
X94664505Y-64459802D01*
X94609358Y-64293380D01*
X94609356Y-64293375D01*
X94517315Y-64144154D01*
X94393345Y-64020184D01*
X94244124Y-63928143D01*
X94244119Y-63928141D01*
X94077697Y-63872994D01*
X94077690Y-63872993D01*
X93974986Y-63862500D01*
X93525000Y-63862500D01*
X93525000Y-65862500D01*
X93025000Y-65862500D01*
X93025000Y-63862500D01*
X92575028Y-63862500D01*
X92575012Y-63862501D01*
X92472302Y-63872994D01*
X92305880Y-63928141D01*
X92305875Y-63928143D01*
X92156654Y-64020184D01*
X92032684Y-64144154D01*
X91940643Y-64293375D01*
X91940641Y-64293380D01*
X91885494Y-64459802D01*
X91885493Y-64459809D01*
X91875000Y-64562513D01*
X87925000Y-64562513D01*
X87925000Y-61424154D01*
X89700001Y-61424154D01*
X89710319Y-61525152D01*
X89764546Y-61688800D01*
X89764551Y-61688811D01*
X89855052Y-61835534D01*
X89855055Y-61835538D01*
X89976961Y-61957444D01*
X89976965Y-61957447D01*
X90123688Y-62047948D01*
X90123699Y-62047953D01*
X90287347Y-62102180D01*
X90388352Y-62112499D01*
X90425000Y-62112499D01*
X90925000Y-62112499D01*
X90961640Y-62112499D01*
X90961654Y-62112498D01*
X91062652Y-62102180D01*
X91226300Y-62047953D01*
X91226311Y-62047948D01*
X91373034Y-61957447D01*
X91373038Y-61957444D01*
X91494944Y-61835538D01*
X91494947Y-61835534D01*
X91585448Y-61688811D01*
X91585453Y-61688800D01*
X91639680Y-61525152D01*
X91649999Y-61424154D01*
X93100001Y-61424154D01*
X93110319Y-61525152D01*
X93164546Y-61688800D01*
X93164551Y-61688811D01*
X93255052Y-61835534D01*
X93255055Y-61835538D01*
X93376961Y-61957444D01*
X93376965Y-61957447D01*
X93523688Y-62047948D01*
X93523699Y-62047953D01*
X93687347Y-62102180D01*
X93788352Y-62112499D01*
X93825000Y-62112499D01*
X94325000Y-62112499D01*
X94361640Y-62112499D01*
X94361654Y-62112498D01*
X94462652Y-62102180D01*
X94626300Y-62047953D01*
X94626311Y-62047948D01*
X94773034Y-61957447D01*
X94773038Y-61957444D01*
X94894944Y-61835538D01*
X94894947Y-61835534D01*
X94985448Y-61688811D01*
X94985453Y-61688800D01*
X95039680Y-61525152D01*
X95049999Y-61424154D01*
X95050000Y-61424141D01*
X95050000Y-61325000D01*
X94325000Y-61325000D01*
X94325000Y-62112499D01*
X93825000Y-62112499D01*
X93825000Y-61325000D01*
X93100001Y-61325000D01*
X93100001Y-61424154D01*
X91649999Y-61424154D01*
X91650000Y-61424141D01*
X91650000Y-61325000D01*
X90925000Y-61325000D01*
X90925000Y-62112499D01*
X90425000Y-62112499D01*
X90425000Y-61325000D01*
X89700001Y-61325000D01*
X89700001Y-61424154D01*
X87925000Y-61424154D01*
X87925000Y-60486500D01*
X87944685Y-60419461D01*
X87997489Y-60373706D01*
X88049000Y-60362500D01*
X89625532Y-60362500D01*
X89692571Y-60382185D01*
G37*
%TD.AperFunction*%
%TD*%
%TA.AperFunction,Conductor*%
%TO.N,GND*%
G36*
X96999912Y-41296400D02*
G01*
X97046858Y-41348148D01*
X97059267Y-41402216D01*
X97059267Y-42195441D01*
X97059249Y-42197558D01*
X96902117Y-51400970D01*
X96881291Y-51467663D01*
X96860196Y-51485319D01*
X96862088Y-51487244D01*
X96825000Y-51523690D01*
X96825000Y-51523691D01*
X88300000Y-51375000D01*
X88300000Y-48155014D01*
X88319685Y-48087975D01*
X88372489Y-48042220D01*
X88441647Y-48032276D01*
X88505203Y-48061301D01*
X88540182Y-48111681D01*
X88576089Y-48207953D01*
X88576091Y-48207957D01*
X88713191Y-48459038D01*
X88713192Y-48459039D01*
X88884639Y-48688065D01*
X88884649Y-48688077D01*
X89086922Y-48890350D01*
X89086934Y-48890360D01*
X89315960Y-49061807D01*
X89315961Y-49061808D01*
X89567042Y-49198908D01*
X89567041Y-49198908D01*
X89835104Y-49298890D01*
X90114637Y-49359699D01*
X90328563Y-49374999D01*
X90328566Y-49375000D01*
X91650000Y-49375000D01*
X91650000Y-48111502D01*
X91752527Y-48125000D01*
X92047473Y-48125000D01*
X92150000Y-48111502D01*
X92150000Y-49375000D01*
X93471434Y-49375000D01*
X93471436Y-49374999D01*
X93685362Y-49359699D01*
X93964895Y-49298890D01*
X94232958Y-49198908D01*
X94484038Y-49061808D01*
X94484039Y-49061807D01*
X94713065Y-48890360D01*
X94713077Y-48890350D01*
X94915350Y-48688077D01*
X94915360Y-48688065D01*
X95086807Y-48459039D01*
X95086808Y-48459038D01*
X95223908Y-48207958D01*
X95323890Y-47939895D01*
X95384699Y-47660362D01*
X95399999Y-47446436D01*
X95400000Y-47446434D01*
X95400000Y-46125000D01*
X94136502Y-46125000D01*
X94150000Y-46022473D01*
X94150000Y-45727527D01*
X94136502Y-45625000D01*
X95400000Y-45625000D01*
X95400000Y-44303566D01*
X95399999Y-44303563D01*
X95384699Y-44089637D01*
X95323890Y-43810104D01*
X95223908Y-43542041D01*
X95086808Y-43290961D01*
X95086807Y-43290960D01*
X94915360Y-43061934D01*
X94915350Y-43061922D01*
X94713077Y-42859649D01*
X94713065Y-42859639D01*
X94484039Y-42688192D01*
X94484038Y-42688191D01*
X94232957Y-42551091D01*
X94232958Y-42551091D01*
X93964895Y-42451109D01*
X93685362Y-42390300D01*
X93471436Y-42375000D01*
X92150000Y-42375000D01*
X92150000Y-43638497D01*
X92047473Y-43625000D01*
X91752527Y-43625000D01*
X91650000Y-43638497D01*
X91650000Y-42375000D01*
X90328563Y-42375000D01*
X90114637Y-42390300D01*
X89835104Y-42451109D01*
X89567041Y-42551091D01*
X89315961Y-42688191D01*
X89315960Y-42688192D01*
X89086934Y-42859639D01*
X89086922Y-42859649D01*
X88884649Y-43061922D01*
X88884639Y-43061934D01*
X88713192Y-43290960D01*
X88713191Y-43290961D01*
X88576091Y-43542042D01*
X88540182Y-43638319D01*
X88498310Y-43694252D01*
X88432846Y-43718669D01*
X88364573Y-43703817D01*
X88315168Y-43654412D01*
X88300000Y-43594985D01*
X88300000Y-41596206D01*
X88319685Y-41529167D01*
X88372489Y-41483412D01*
X88421174Y-41472238D01*
X96932446Y-41278249D01*
X96999912Y-41296400D01*
G37*
%TD.AperFunction*%
%TD*%
%TA.AperFunction,Conductor*%
%TO.N,GND*%
G36*
X88300000Y-51375000D02*
G01*
X96825000Y-51523691D01*
X96825000Y-51523690D01*
X96825004Y-59000869D01*
X96825005Y-59733000D01*
X96805320Y-59800039D01*
X96752517Y-59845794D01*
X96701005Y-59857000D01*
X95171187Y-59857000D01*
X95104148Y-59837315D01*
X95058393Y-59784511D01*
X95047829Y-59720397D01*
X95048612Y-59712719D01*
X95049999Y-59699154D01*
X95050000Y-59699141D01*
X95050000Y-59600000D01*
X93100001Y-59600000D01*
X93100001Y-59699163D01*
X93102171Y-59720398D01*
X93089401Y-59789091D01*
X93041521Y-59839975D01*
X92978813Y-59857000D01*
X91771187Y-59857000D01*
X91704148Y-59837315D01*
X91658393Y-59784511D01*
X91647829Y-59720397D01*
X91648612Y-59712719D01*
X91649999Y-59699154D01*
X91650000Y-59699141D01*
X91650000Y-59600000D01*
X89700001Y-59600000D01*
X89700001Y-59699163D01*
X89702171Y-59720398D01*
X89689401Y-59789091D01*
X89641521Y-59839975D01*
X89578813Y-59857000D01*
X88049010Y-59857000D01*
X88049000Y-59857000D01*
X88048991Y-59857000D01*
X88048990Y-59857001D01*
X87941549Y-59868552D01*
X87941537Y-59868554D01*
X87890027Y-59879760D01*
X87787502Y-59913883D01*
X87787496Y-59913886D01*
X87664683Y-59992815D01*
X87597644Y-60012500D01*
X87597643Y-60012500D01*
X81925190Y-60012505D01*
X81924999Y-60012505D01*
X81367136Y-60011647D01*
X81332206Y-60006569D01*
X81317216Y-60002142D01*
X81258528Y-59964312D01*
X81258522Y-59964305D01*
X81257308Y-59962900D01*
X81229931Y-59908065D01*
X81228311Y-59900589D01*
X81225500Y-59874337D01*
X81225500Y-59803445D01*
X81225500Y-59803443D01*
X81188802Y-59666483D01*
X81188802Y-59666482D01*
X81184576Y-59650710D01*
X81154654Y-59598889D01*
X81154643Y-59598870D01*
X81105520Y-59513784D01*
X80993716Y-59401980D01*
X80993715Y-59401979D01*
X80989385Y-59397649D01*
X80988363Y-59396627D01*
X80988320Y-59396585D01*
X80592574Y-59000839D01*
X89700000Y-59000839D01*
X89700000Y-59000842D01*
X89700000Y-59000845D01*
X89700000Y-59100000D01*
X90425000Y-59100000D01*
X90925000Y-59100000D01*
X91649999Y-59100000D01*
X91649999Y-59000861D01*
X91649998Y-59000844D01*
X91649997Y-59000839D01*
X93100000Y-59000839D01*
X93100000Y-59000842D01*
X93100000Y-59000845D01*
X93100000Y-59100000D01*
X93825000Y-59100000D01*
X94325000Y-59100000D01*
X95049999Y-59100000D01*
X95049999Y-59000860D01*
X95049998Y-59000845D01*
X95039680Y-58899847D01*
X94985453Y-58736199D01*
X94985448Y-58736188D01*
X94939645Y-58661931D01*
X94894957Y-58589480D01*
X94894952Y-58589473D01*
X94894947Y-58589465D01*
X94894944Y-58589461D01*
X94894941Y-58589458D01*
X94894939Y-58589455D01*
X94773043Y-58467559D01*
X94773040Y-58467557D01*
X94773038Y-58467555D01*
X94773034Y-58467552D01*
X94773028Y-58467548D01*
X94773018Y-58467541D01*
X94663439Y-58399952D01*
X94626311Y-58377051D01*
X94626309Y-58377050D01*
X94626295Y-58377043D01*
X94462650Y-58322818D01*
X94361659Y-58312500D01*
X94361654Y-58312500D01*
X94325000Y-58312500D01*
X94325000Y-59100000D01*
X93825000Y-59100000D01*
X93825000Y-58312500D01*
X93788363Y-58312500D01*
X93788361Y-58312500D01*
X93788343Y-58312501D01*
X93788332Y-58312502D01*
X93788319Y-58312503D01*
X93687345Y-58322819D01*
X93523701Y-58377045D01*
X93523689Y-58377050D01*
X93523686Y-58377052D01*
X93376980Y-58467541D01*
X93376958Y-58467557D01*
X93376955Y-58467559D01*
X93255059Y-58589455D01*
X93255057Y-58589458D01*
X93255041Y-58589480D01*
X93164552Y-58736186D01*
X93164550Y-58736189D01*
X93164543Y-58736203D01*
X93110318Y-58899848D01*
X93100000Y-59000839D01*
X91649997Y-59000839D01*
X91639680Y-58899847D01*
X91585453Y-58736199D01*
X91585448Y-58736188D01*
X91539645Y-58661931D01*
X91494957Y-58589480D01*
X91494952Y-58589473D01*
X91494947Y-58589465D01*
X91494944Y-58589461D01*
X91494941Y-58589458D01*
X91494939Y-58589455D01*
X91373043Y-58467559D01*
X91373040Y-58467557D01*
X91373038Y-58467555D01*
X91373034Y-58467552D01*
X91373028Y-58467548D01*
X91373018Y-58467541D01*
X91263439Y-58399952D01*
X91226311Y-58377051D01*
X91226309Y-58377050D01*
X91226295Y-58377043D01*
X91062650Y-58322818D01*
X90961659Y-58312500D01*
X90961654Y-58312500D01*
X90925000Y-58312500D01*
X90925000Y-59100000D01*
X90425000Y-59100000D01*
X90425000Y-58312500D01*
X90388363Y-58312500D01*
X90388361Y-58312500D01*
X90388343Y-58312501D01*
X90388332Y-58312502D01*
X90388319Y-58312503D01*
X90287345Y-58322819D01*
X90123701Y-58377045D01*
X90123689Y-58377050D01*
X90123686Y-58377052D01*
X89976980Y-58467541D01*
X89976958Y-58467557D01*
X89976955Y-58467559D01*
X89855059Y-58589455D01*
X89855057Y-58589458D01*
X89855041Y-58589480D01*
X89764552Y-58736186D01*
X89764550Y-58736189D01*
X89764543Y-58736203D01*
X89710318Y-58899848D01*
X89700000Y-59000839D01*
X80592574Y-59000839D01*
X80471112Y-58879377D01*
X80449961Y-58851124D01*
X80437368Y-58828061D01*
X80422202Y-58768446D01*
X80422478Y-58589465D01*
X80423980Y-57612495D01*
X83325001Y-57612495D01*
X83335493Y-57715194D01*
X83335493Y-57715195D01*
X83335494Y-57715197D01*
X83390641Y-57881619D01*
X83390643Y-57881624D01*
X83482684Y-58030845D01*
X83606654Y-58154815D01*
X83755875Y-58246856D01*
X83755880Y-58246858D01*
X83922299Y-58302004D01*
X83922300Y-58302004D01*
X83922302Y-58302005D01*
X83922309Y-58302006D01*
X84025019Y-58312499D01*
X85224999Y-58312499D01*
X85725000Y-58312499D01*
X86924960Y-58312499D01*
X86924972Y-58312499D01*
X86924986Y-58312498D01*
X87027697Y-58302005D01*
X87194119Y-58246858D01*
X87194124Y-58246856D01*
X87343345Y-58154815D01*
X87467315Y-58030845D01*
X87559356Y-57881624D01*
X87559358Y-57881619D01*
X87614505Y-57715197D01*
X87614506Y-57715190D01*
X87624999Y-57612486D01*
X87625000Y-57612473D01*
X87625000Y-56812500D01*
X85725000Y-56812500D01*
X85725000Y-58312499D01*
X85224999Y-58312499D01*
X85225000Y-58312498D01*
X85225000Y-56812500D01*
X83325001Y-56812500D01*
X83325001Y-57612495D01*
X80423980Y-57612495D01*
X80425210Y-56812500D01*
X78916830Y-56812500D01*
X78881889Y-56807475D01*
X78866890Y-56803070D01*
X78808144Y-56765327D01*
X78806957Y-56763958D01*
X78779477Y-56709083D01*
X78777832Y-56701521D01*
X78775000Y-56675168D01*
X78775000Y-56590399D01*
X78780022Y-56555466D01*
X78783933Y-56542147D01*
X78821706Y-56483370D01*
X78885258Y-56454345D01*
X78885933Y-56454248D01*
X78945838Y-56460413D01*
X78952118Y-56462690D01*
X78969489Y-56471085D01*
X78969619Y-56470836D01*
X78973688Y-56472948D01*
X78973690Y-56472949D01*
X78973692Y-56472950D01*
X78973699Y-56472953D01*
X79137347Y-56527180D01*
X79238351Y-56537499D01*
X79837500Y-56537499D01*
X79936628Y-56537499D01*
X79936640Y-56537499D01*
X79936654Y-56537498D01*
X80037652Y-56527180D01*
X80201300Y-56472953D01*
X80201311Y-56472948D01*
X80348034Y-56382447D01*
X80348038Y-56382444D01*
X80469944Y-56260538D01*
X80469947Y-56260534D01*
X80560448Y-56113811D01*
X80560453Y-56113800D01*
X80614680Y-55950152D01*
X80624999Y-55849154D01*
X80625000Y-55849141D01*
X80625000Y-55812500D01*
X79837500Y-55812500D01*
X79837500Y-56537499D01*
X79238351Y-56537499D01*
X79337500Y-56537498D01*
X79337500Y-55704329D01*
X79342523Y-55669393D01*
X79346927Y-55654395D01*
X79356569Y-55639386D01*
X79357185Y-55637290D01*
X79358834Y-55635860D01*
X79384672Y-55595644D01*
X79386041Y-55594457D01*
X79440920Y-55566977D01*
X79448479Y-55565333D01*
X79474832Y-55562500D01*
X79587500Y-55562500D01*
X79587500Y-55512507D01*
X83325000Y-55512507D01*
X83325000Y-55512510D01*
X83325000Y-55512513D01*
X83325000Y-56312500D01*
X85225000Y-56312500D01*
X85725000Y-56312500D01*
X87624999Y-56312500D01*
X87624999Y-55512528D01*
X87624998Y-55512513D01*
X87614505Y-55409802D01*
X87559358Y-55243380D01*
X87559356Y-55243375D01*
X87467315Y-55094154D01*
X87343345Y-54970184D01*
X87194124Y-54878143D01*
X87194119Y-54878141D01*
X87194110Y-54878138D01*
X87027699Y-54822994D01*
X87027694Y-54822993D01*
X86924991Y-54812500D01*
X86924986Y-54812500D01*
X85725000Y-54812500D01*
X85725000Y-56312500D01*
X85225000Y-56312500D01*
X85225000Y-54812500D01*
X84025037Y-54812500D01*
X84025028Y-54812500D01*
X84025012Y-54812501D01*
X84025002Y-54812501D01*
X84025002Y-54812502D01*
X83922304Y-54822993D01*
X83922302Y-54822994D01*
X83755887Y-54878138D01*
X83755879Y-54878141D01*
X83755877Y-54878142D01*
X83755875Y-54878143D01*
X83656394Y-54939503D01*
X83606652Y-54970185D01*
X83482685Y-55094152D01*
X83390641Y-55243379D01*
X83390638Y-55243388D01*
X83335494Y-55409799D01*
X83335493Y-55409804D01*
X83325000Y-55512507D01*
X79587500Y-55512507D01*
X79587500Y-55454329D01*
X79592523Y-55419393D01*
X79596927Y-55404395D01*
X79606569Y-55389386D01*
X79607185Y-55387290D01*
X79608834Y-55385860D01*
X79634672Y-55345644D01*
X79636041Y-55344457D01*
X79690920Y-55316977D01*
X79698479Y-55315333D01*
X79724832Y-55312500D01*
X80624999Y-55312500D01*
X80624999Y-55275864D01*
X80624999Y-55275860D01*
X80624998Y-55275845D01*
X80614680Y-55174847D01*
X80560453Y-55011199D01*
X80560448Y-55011188D01*
X80478381Y-54878138D01*
X80469957Y-54864480D01*
X80469952Y-54864473D01*
X80469947Y-54864465D01*
X80469944Y-54864461D01*
X80469941Y-54864458D01*
X80469939Y-54864455D01*
X80348043Y-54742559D01*
X80348040Y-54742557D01*
X80348038Y-54742555D01*
X80348034Y-54742552D01*
X80348028Y-54742548D01*
X80348018Y-54742541D01*
X80238439Y-54674952D01*
X80201311Y-54652051D01*
X80201309Y-54652050D01*
X80201295Y-54652043D01*
X80037650Y-54597818D01*
X79936659Y-54587500D01*
X79936654Y-54587500D01*
X79866830Y-54587500D01*
X79831889Y-54582475D01*
X79816890Y-54578070D01*
X79758144Y-54540327D01*
X79756957Y-54538958D01*
X79729477Y-54484083D01*
X79727832Y-54476521D01*
X79725000Y-54450168D01*
X79725000Y-53866285D01*
X79730022Y-53831352D01*
X79733933Y-53818033D01*
X79771706Y-53759256D01*
X79835260Y-53730231D01*
X79849023Y-53728251D01*
X79879264Y-53727631D01*
X79975851Y-53737499D01*
X80575000Y-53737499D01*
X80674128Y-53737499D01*
X80674140Y-53737499D01*
X80674154Y-53737498D01*
X80775152Y-53727180D01*
X80938800Y-53672953D01*
X80938811Y-53672948D01*
X81085534Y-53582447D01*
X81085538Y-53582444D01*
X81207444Y-53460538D01*
X81207447Y-53460534D01*
X81297948Y-53313811D01*
X81297953Y-53313800D01*
X81352180Y-53150152D01*
X81362499Y-53049154D01*
X81362500Y-53049141D01*
X81362500Y-53012500D01*
X80575000Y-53012500D01*
X80575000Y-53737499D01*
X79975851Y-53737499D01*
X80075000Y-53737498D01*
X80075000Y-52512500D01*
X80575000Y-52512500D01*
X81362499Y-52512500D01*
X81362499Y-52475860D01*
X81362498Y-52475845D01*
X81352180Y-52374847D01*
X81297953Y-52211199D01*
X81297948Y-52211188D01*
X81252145Y-52136931D01*
X81207457Y-52064480D01*
X81207452Y-52064473D01*
X81207447Y-52064465D01*
X81207444Y-52064461D01*
X81207441Y-52064458D01*
X81207439Y-52064455D01*
X81085543Y-51942559D01*
X81085540Y-51942557D01*
X81085538Y-51942555D01*
X81085534Y-51942552D01*
X81085528Y-51942548D01*
X81085518Y-51942541D01*
X80975939Y-51874952D01*
X80938811Y-51852051D01*
X80938809Y-51852050D01*
X80938795Y-51852043D01*
X80775150Y-51797818D01*
X80674159Y-51787500D01*
X80674154Y-51787500D01*
X80575000Y-51787500D01*
X80575000Y-52512500D01*
X80075000Y-52512500D01*
X80075000Y-51787499D01*
X80075000Y-51787498D01*
X79975868Y-51787499D01*
X79975848Y-51787500D01*
X79975844Y-51787501D01*
X79975835Y-51787501D01*
X79975834Y-51787502D01*
X79885925Y-51796687D01*
X79864047Y-51796982D01*
X79843451Y-51795437D01*
X79778072Y-51770792D01*
X79736395Y-51714714D01*
X79731653Y-51645005D01*
X79733743Y-51636872D01*
X79737435Y-51624299D01*
X79768728Y-51571559D01*
X80578864Y-50761423D01*
X80607114Y-50740275D01*
X80630206Y-50727667D01*
X80689631Y-50712500D01*
X88300000Y-50712500D01*
X88300000Y-51375000D01*
G37*
%TD.AperFunction*%
%TD*%
%TA.AperFunction,Conductor*%
%TO.N,GND*%
G36*
X70805539Y-52782185D02*
G01*
X70851294Y-52834989D01*
X70862500Y-52886500D01*
X70862500Y-53737499D01*
X70911640Y-53737499D01*
X70911654Y-53737498D01*
X71012652Y-53727180D01*
X71176300Y-53672953D01*
X71176311Y-53672948D01*
X71323034Y-53582447D01*
X71323038Y-53582444D01*
X71363319Y-53542164D01*
X71424642Y-53508679D01*
X71494334Y-53513663D01*
X71550267Y-53555535D01*
X71574684Y-53620999D01*
X71575000Y-53629845D01*
X71575000Y-54100000D01*
X74061903Y-54100000D01*
X74128942Y-54119685D01*
X74149584Y-54136319D01*
X74188681Y-54175416D01*
X74222166Y-54236739D01*
X74225000Y-54263097D01*
X74225000Y-54496463D01*
X74205315Y-54563502D01*
X74152511Y-54609257D01*
X74083353Y-54619201D01*
X74061998Y-54614170D01*
X74012651Y-54597818D01*
X73911654Y-54587500D01*
X73812500Y-54587500D01*
X73812500Y-56537499D01*
X73911640Y-56537499D01*
X73911654Y-56537498D01*
X74012652Y-56527180D01*
X74061996Y-56510830D01*
X74131825Y-56508428D01*
X74191866Y-56544160D01*
X74223059Y-56606680D01*
X74225000Y-56628536D01*
X74225000Y-59900000D01*
X79051000Y-59900000D01*
X79118039Y-59919685D01*
X79163794Y-59972489D01*
X79175000Y-60024000D01*
X79175000Y-61626000D01*
X79155315Y-61693039D01*
X79102511Y-61738794D01*
X79051000Y-61750000D01*
X78575000Y-61750000D01*
X78575000Y-61874082D01*
X78555315Y-61941121D01*
X78502511Y-61986876D01*
X78433353Y-61996820D01*
X78387879Y-61980814D01*
X78270196Y-61911217D01*
X78270193Y-61911216D01*
X78112494Y-61865400D01*
X78112497Y-61865400D01*
X78110000Y-61865203D01*
X78110000Y-64809795D01*
X78110001Y-64809795D01*
X78112486Y-64809600D01*
X78270198Y-64763781D01*
X78387879Y-64694185D01*
X78455603Y-64677002D01*
X78521865Y-64699162D01*
X78565629Y-64753628D01*
X78575000Y-64800917D01*
X78575000Y-65304748D01*
X78555315Y-65371787D01*
X78502511Y-65417542D01*
X78433353Y-65427486D01*
X78411996Y-65422454D01*
X78337652Y-65397819D01*
X78236654Y-65387500D01*
X78137500Y-65387500D01*
X78137500Y-67337499D01*
X78236640Y-67337499D01*
X78236654Y-67337498D01*
X78337650Y-67327181D01*
X78411995Y-67302545D01*
X78481823Y-67300143D01*
X78541866Y-67335874D01*
X78573059Y-67398394D01*
X78575000Y-67420251D01*
X78575000Y-67900606D01*
X78555315Y-67967645D01*
X78502511Y-68013400D01*
X78433353Y-68023344D01*
X78411996Y-68018312D01*
X78350152Y-67997819D01*
X78249154Y-67987500D01*
X78200000Y-67987500D01*
X78200000Y-69937499D01*
X78249140Y-69937499D01*
X78249154Y-69937498D01*
X78350150Y-69927181D01*
X78411995Y-69906687D01*
X78481823Y-69904285D01*
X78541865Y-69940016D01*
X78573058Y-70002536D01*
X78575000Y-70024393D01*
X78575000Y-70304748D01*
X78555315Y-70371787D01*
X78502511Y-70417542D01*
X78433353Y-70427486D01*
X78411996Y-70422454D01*
X78337652Y-70397819D01*
X78236654Y-70387500D01*
X78187500Y-70387500D01*
X78187500Y-71238500D01*
X78167815Y-71305539D01*
X78115011Y-71351294D01*
X78063500Y-71362500D01*
X77811500Y-71362500D01*
X77744461Y-71342815D01*
X77698706Y-71290011D01*
X77687500Y-71238500D01*
X77687500Y-70387500D01*
X77687499Y-70387499D01*
X77638361Y-70387500D01*
X77638343Y-70387501D01*
X77537347Y-70397819D01*
X77373699Y-70452046D01*
X77373694Y-70452048D01*
X77314097Y-70488809D01*
X77246704Y-70507249D01*
X77180041Y-70486326D01*
X77135271Y-70432684D01*
X77125000Y-70383270D01*
X77125000Y-69934019D01*
X77144685Y-69866980D01*
X77197489Y-69821225D01*
X77266647Y-69811281D01*
X77314098Y-69828481D01*
X77386192Y-69872950D01*
X77386199Y-69872953D01*
X77549847Y-69927180D01*
X77650851Y-69937499D01*
X77699999Y-69937498D01*
X77700000Y-69937498D01*
X77700000Y-67987500D01*
X77699999Y-67987499D01*
X77650861Y-67987500D01*
X77650843Y-67987501D01*
X77549847Y-67997819D01*
X77386199Y-68052046D01*
X77386194Y-68052048D01*
X77314097Y-68096519D01*
X77246704Y-68114959D01*
X77180041Y-68094036D01*
X77135271Y-68040394D01*
X77125000Y-67990980D01*
X77125000Y-67395399D01*
X77144685Y-67328360D01*
X77197489Y-67282605D01*
X77266647Y-67272661D01*
X77288004Y-67277693D01*
X77437348Y-67327180D01*
X77538351Y-67337499D01*
X77637500Y-67337498D01*
X77637500Y-65387499D01*
X77538360Y-65387500D01*
X77538344Y-65387501D01*
X77437346Y-65397819D01*
X77288003Y-65447306D01*
X77218175Y-65449708D01*
X77158133Y-65413976D01*
X77126941Y-65351455D01*
X77125000Y-65329600D01*
X77125000Y-65224000D01*
X77144685Y-65156961D01*
X77197489Y-65111206D01*
X77249000Y-65100000D01*
X77325000Y-65100000D01*
X77325000Y-64892676D01*
X77344685Y-64825637D01*
X77397489Y-64779882D01*
X77466647Y-64769938D01*
X77483595Y-64773600D01*
X77607505Y-64809599D01*
X77607511Y-64809600D01*
X77609998Y-64809795D01*
X77610000Y-64809795D01*
X77610000Y-61865203D01*
X77607507Y-61865400D01*
X77483594Y-61901400D01*
X77413725Y-61901200D01*
X77355055Y-61863257D01*
X77326212Y-61799619D01*
X77325000Y-61782323D01*
X77325000Y-61750000D01*
X69749000Y-61750000D01*
X69681961Y-61730315D01*
X69636206Y-61677511D01*
X69625000Y-61626000D01*
X69625000Y-55849154D01*
X72525001Y-55849154D01*
X72535319Y-55950152D01*
X72589546Y-56113800D01*
X72589551Y-56113811D01*
X72680052Y-56260534D01*
X72680055Y-56260538D01*
X72801961Y-56382444D01*
X72801965Y-56382447D01*
X72948688Y-56472948D01*
X72948699Y-56472953D01*
X73112347Y-56527180D01*
X73213351Y-56537499D01*
X73312500Y-56537498D01*
X73312500Y-55812500D01*
X72525001Y-55812500D01*
X72525001Y-55849154D01*
X69625000Y-55849154D01*
X69625000Y-55275845D01*
X72525000Y-55275845D01*
X72525000Y-55312500D01*
X73312500Y-55312500D01*
X73312500Y-54587499D01*
X73213360Y-54587500D01*
X73213344Y-54587501D01*
X73112347Y-54597819D01*
X72948699Y-54652046D01*
X72948688Y-54652051D01*
X72801965Y-54742552D01*
X72801961Y-54742555D01*
X72680055Y-54864461D01*
X72680052Y-54864465D01*
X72589551Y-55011188D01*
X72589546Y-55011199D01*
X72535319Y-55174847D01*
X72525000Y-55275845D01*
X69625000Y-55275845D01*
X69625000Y-53604845D01*
X69644685Y-53537806D01*
X69697489Y-53492051D01*
X69766647Y-53482107D01*
X69830203Y-53511132D01*
X69836681Y-53517164D01*
X69901961Y-53582444D01*
X69901965Y-53582447D01*
X70048688Y-53672948D01*
X70048699Y-53672953D01*
X70212347Y-53727180D01*
X70313351Y-53737499D01*
X70362499Y-53737498D01*
X70362500Y-53737498D01*
X70362500Y-52886500D01*
X70382185Y-52819461D01*
X70434989Y-52773706D01*
X70486500Y-52762500D01*
X70738500Y-52762500D01*
X70805539Y-52782185D01*
G37*
%TD.AperFunction*%
%TD*%
%TA.AperFunction,Conductor*%
%TO.N,/2s-6s_to_5v/ph*%
G36*
X87362539Y-61282185D02*
G01*
X87408294Y-61334989D01*
X87419500Y-61386500D01*
X87419500Y-61594982D01*
X87399815Y-61662021D01*
X87347011Y-61707776D01*
X87277853Y-61717720D01*
X87230405Y-61700522D01*
X87194124Y-61678143D01*
X87194119Y-61678141D01*
X87194110Y-61678138D01*
X87027699Y-61622994D01*
X87027694Y-61622993D01*
X86924991Y-61612500D01*
X86924986Y-61612500D01*
X85725000Y-61612500D01*
X85725000Y-65112499D01*
X86924960Y-65112499D01*
X86924972Y-65112499D01*
X86924986Y-65112498D01*
X87027697Y-65102005D01*
X87194119Y-65046858D01*
X87194124Y-65046856D01*
X87230406Y-65024476D01*
X87297794Y-65006037D01*
X87364457Y-65026958D01*
X87409228Y-65080600D01*
X87419500Y-65130016D01*
X87419500Y-66038500D01*
X87399815Y-66105539D01*
X87347011Y-66151294D01*
X87295500Y-66162500D01*
X84275000Y-66162500D01*
X84275000Y-71370670D01*
X84269975Y-71405614D01*
X84265570Y-71420612D01*
X84227827Y-71479355D01*
X84226458Y-71480542D01*
X84171597Y-71508018D01*
X84164039Y-71509663D01*
X84137668Y-71512500D01*
X83739920Y-71512500D01*
X83704985Y-71507477D01*
X83694131Y-71504290D01*
X83635353Y-71466516D01*
X83606328Y-71402960D01*
X83616265Y-71333817D01*
X83617681Y-71330716D01*
X83651370Y-71288905D01*
X83650921Y-71288456D01*
X83655098Y-71284278D01*
X83656165Y-71282954D01*
X83657190Y-71282187D01*
X83743350Y-71167093D01*
X83743354Y-71167086D01*
X83793596Y-71032379D01*
X83793598Y-71032372D01*
X83795069Y-71018689D01*
X83799998Y-70972860D01*
X83800000Y-70972821D01*
X83800000Y-70075000D01*
X81300000Y-70075000D01*
X81300000Y-70972852D01*
X81306400Y-71032370D01*
X81306402Y-71032377D01*
X81356646Y-71167088D01*
X81356655Y-71167101D01*
X81442807Y-71282185D01*
X81449078Y-71288456D01*
X81448467Y-71289067D01*
X81462904Y-71303504D01*
X81469683Y-71312560D01*
X81494099Y-71378025D01*
X81479246Y-71446298D01*
X81429856Y-71495693D01*
X81426870Y-71497324D01*
X81367429Y-71512500D01*
X79067330Y-71512500D01*
X79032389Y-71507475D01*
X79017390Y-71503070D01*
X78958644Y-71465327D01*
X78957457Y-71463958D01*
X78929980Y-71409094D01*
X78929223Y-71405614D01*
X78928334Y-71401528D01*
X78925499Y-71375175D01*
X78925499Y-71075831D01*
X78925498Y-71075812D01*
X78915174Y-70974747D01*
X78914538Y-70972827D01*
X78876418Y-70857792D01*
X78874017Y-70787965D01*
X78900413Y-70737586D01*
X78980564Y-70645087D01*
X78980567Y-70645084D01*
X79040338Y-70514207D01*
X79060023Y-70447168D01*
X79060024Y-70447164D01*
X79080500Y-70304748D01*
X79080500Y-70024393D01*
X79080500Y-70024385D01*
X79078517Y-69979661D01*
X79076575Y-69957812D01*
X79076574Y-69957798D01*
X79070643Y-69913434D01*
X79025385Y-69776857D01*
X78994192Y-69714337D01*
X78994190Y-69714334D01*
X78994185Y-69714326D01*
X78907241Y-69588753D01*
X78908710Y-69587735D01*
X78882320Y-69534841D01*
X78886672Y-69473986D01*
X78927674Y-69350253D01*
X78938000Y-69249177D01*
X78937999Y-68677146D01*
X81300000Y-68677146D01*
X81300000Y-68677155D01*
X81300000Y-69575000D01*
X82300000Y-69575000D01*
X82800000Y-69575000D01*
X83800000Y-69575000D01*
X83800000Y-68677172D01*
X83799999Y-68677155D01*
X83799998Y-68677146D01*
X83799998Y-68677138D01*
X83793598Y-68617628D01*
X83793596Y-68617618D01*
X83770560Y-68555858D01*
X83743354Y-68482913D01*
X83743350Y-68482906D01*
X83665068Y-68378336D01*
X83657191Y-68367813D01*
X83657185Y-68367807D01*
X83598871Y-68324153D01*
X83542093Y-68281649D01*
X83542088Y-68281646D01*
X83542089Y-68281646D01*
X83407377Y-68231402D01*
X83407370Y-68231400D01*
X83347852Y-68225000D01*
X83347844Y-68225000D01*
X82800000Y-68225000D01*
X82800000Y-69575000D01*
X82300000Y-69575000D01*
X82300000Y-68225000D01*
X81752146Y-68225000D01*
X81692628Y-68231400D01*
X81692621Y-68231402D01*
X81557910Y-68281646D01*
X81557907Y-68281648D01*
X81442813Y-68367807D01*
X81442807Y-68367813D01*
X81356648Y-68482907D01*
X81356646Y-68482910D01*
X81306403Y-68617618D01*
X81306400Y-68617628D01*
X81300000Y-68677146D01*
X78937999Y-68677146D01*
X78937999Y-68675824D01*
X78932053Y-68617620D01*
X78927674Y-68574747D01*
X78884467Y-68444360D01*
X78882066Y-68374533D01*
X78908460Y-68324156D01*
X78980567Y-68240942D01*
X79040338Y-68110065D01*
X79060023Y-68043026D01*
X79060024Y-68043022D01*
X79080500Y-67900606D01*
X79080500Y-67420251D01*
X79080500Y-67420241D01*
X79078519Y-67375547D01*
X79078465Y-67374948D01*
X79076577Y-67353679D01*
X79070644Y-67309292D01*
X79025386Y-67172715D01*
X78994193Y-67110195D01*
X78994192Y-67110194D01*
X78994163Y-67110135D01*
X78993555Y-67109275D01*
X78912287Y-66991900D01*
X78912283Y-66991897D01*
X78906255Y-66985405D01*
X78908682Y-66983150D01*
X78896147Y-66973581D01*
X78889506Y-66955249D01*
X78878408Y-66939221D01*
X78877595Y-66922368D01*
X78872350Y-66907889D01*
X78875664Y-66882339D01*
X78875200Y-66872710D01*
X78876523Y-66866893D01*
X78890682Y-66824163D01*
X79650001Y-66824163D01*
X79660319Y-66925153D01*
X79714545Y-67088797D01*
X79714550Y-67088809D01*
X79714552Y-67088812D01*
X79805041Y-67235518D01*
X79805048Y-67235528D01*
X79805052Y-67235534D01*
X79805055Y-67235538D01*
X79805057Y-67235540D01*
X79805059Y-67235543D01*
X79926955Y-67357439D01*
X79926958Y-67357441D01*
X79926961Y-67357444D01*
X79926965Y-67357447D01*
X79926973Y-67357452D01*
X79926980Y-67357457D01*
X79956291Y-67375536D01*
X80073688Y-67447948D01*
X80073699Y-67447953D01*
X80237347Y-67502180D01*
X80338352Y-67512499D01*
X80375000Y-67512499D01*
X80875000Y-67512499D01*
X80911628Y-67512499D01*
X80911640Y-67512499D01*
X80911654Y-67512498D01*
X81012652Y-67502180D01*
X81176300Y-67447953D01*
X81176311Y-67447948D01*
X81323034Y-67357447D01*
X81323038Y-67357444D01*
X81444944Y-67235538D01*
X81444947Y-67235534D01*
X81535448Y-67088811D01*
X81535453Y-67088800D01*
X81589680Y-66925152D01*
X81599999Y-66824154D01*
X81600000Y-66824141D01*
X81600000Y-66725000D01*
X80875000Y-66725000D01*
X80875000Y-67512499D01*
X80375000Y-67512499D01*
X80375000Y-66725000D01*
X79650001Y-66725000D01*
X79650001Y-66824163D01*
X78890682Y-66824163D01*
X78915174Y-66750253D01*
X78925500Y-66649177D01*
X78925499Y-66075824D01*
X78921686Y-66038500D01*
X78915174Y-65974747D01*
X78876418Y-65857792D01*
X78874017Y-65787965D01*
X78900413Y-65737586D01*
X78980564Y-65645087D01*
X78980567Y-65645084D01*
X79040338Y-65514207D01*
X79060023Y-65447168D01*
X79060024Y-65447164D01*
X79080500Y-65304748D01*
X79080500Y-64800917D01*
X79070858Y-64702656D01*
X79061487Y-64655367D01*
X79032924Y-64560845D01*
X78959682Y-64437002D01*
X78915918Y-64382536D01*
X78915917Y-64382535D01*
X78915913Y-64382530D01*
X78913118Y-64379519D01*
X78881937Y-64316992D01*
X78880000Y-64295160D01*
X78880000Y-63479329D01*
X78881599Y-63473881D01*
X78880490Y-63468311D01*
X78885023Y-63444393D01*
X78889427Y-63429395D01*
X78899069Y-63414386D01*
X78899685Y-63412290D01*
X78901334Y-63410860D01*
X78927172Y-63370644D01*
X78928541Y-63369457D01*
X78983420Y-63341977D01*
X78990979Y-63340333D01*
X79017332Y-63337500D01*
X79238170Y-63337500D01*
X79273106Y-63342523D01*
X79288104Y-63346927D01*
X79300348Y-63354793D01*
X79314498Y-63358133D01*
X79329119Y-63373277D01*
X79346855Y-63384672D01*
X79348042Y-63386041D01*
X79355155Y-63400245D01*
X79363028Y-63408399D01*
X79365530Y-63420959D01*
X79375518Y-63440902D01*
X79377163Y-63448460D01*
X79380000Y-63474831D01*
X79380000Y-64809795D01*
X79380001Y-64809795D01*
X79382488Y-64809600D01*
X79382494Y-64809599D01*
X79473788Y-64783076D01*
X79508734Y-64778153D01*
X79522616Y-64778193D01*
X79589598Y-64798070D01*
X79635196Y-64850997D01*
X79638438Y-64858149D01*
X79649500Y-64909344D01*
X79649500Y-65099175D01*
X79649502Y-65099199D01*
X79659825Y-65200249D01*
X79659828Y-65200257D01*
X79659895Y-65200460D01*
X79665580Y-65217616D01*
X79670290Y-65236865D01*
X79673416Y-65256236D01*
X79675000Y-65275991D01*
X79675000Y-65612500D01*
X79687146Y-65624647D01*
X79687148Y-65624648D01*
X79687150Y-65624650D01*
X79687152Y-65624650D01*
X79700542Y-65632595D01*
X79698615Y-65635842D01*
X79734971Y-65659207D01*
X79763996Y-65722762D01*
X79764001Y-65722795D01*
X79764096Y-65723457D01*
X79757927Y-65783337D01*
X79755649Y-65789620D01*
X79744612Y-65812453D01*
X79714552Y-65861185D01*
X79714550Y-65861188D01*
X79714543Y-65861205D01*
X79660318Y-66024848D01*
X79650000Y-66125839D01*
X79650000Y-66125842D01*
X79650000Y-66125845D01*
X79650000Y-66225000D01*
X81599999Y-66225000D01*
X81599999Y-66125860D01*
X81599998Y-66125845D01*
X81589680Y-66024847D01*
X81535453Y-65861199D01*
X81535450Y-65861192D01*
X81508049Y-65816770D01*
X81493986Y-65784405D01*
X81490322Y-65771013D01*
X81491614Y-65701158D01*
X81530465Y-65643092D01*
X81531020Y-65642629D01*
X81585205Y-65616454D01*
X81591750Y-65615094D01*
X81616981Y-65612500D01*
X81675000Y-65612500D01*
X81675000Y-64412495D01*
X83325001Y-64412495D01*
X83335493Y-64515194D01*
X83335493Y-64515195D01*
X83335494Y-64515197D01*
X83390641Y-64681619D01*
X83390643Y-64681624D01*
X83482684Y-64830845D01*
X83606654Y-64954815D01*
X83755875Y-65046856D01*
X83755880Y-65046858D01*
X83922299Y-65102004D01*
X83922300Y-65102004D01*
X83922302Y-65102005D01*
X83922309Y-65102006D01*
X84025019Y-65112499D01*
X85224999Y-65112499D01*
X85225000Y-65112498D01*
X85225000Y-63612500D01*
X83325001Y-63612500D01*
X83325001Y-64412495D01*
X81675000Y-64412495D01*
X81675000Y-63054329D01*
X81680023Y-63019393D01*
X81684427Y-63004395D01*
X81722172Y-62945644D01*
X81723541Y-62944457D01*
X81778420Y-62916977D01*
X81785979Y-62915333D01*
X81812332Y-62912500D01*
X82675000Y-62912500D01*
X82675000Y-62312507D01*
X83325000Y-62312507D01*
X83325000Y-62312513D01*
X83325000Y-63112500D01*
X85225000Y-63112500D01*
X85225000Y-61612500D01*
X84025037Y-61612500D01*
X84025028Y-61612500D01*
X84025012Y-61612501D01*
X84025002Y-61612501D01*
X84025002Y-61612502D01*
X83922304Y-61622993D01*
X83922302Y-61622994D01*
X83755887Y-61678138D01*
X83755879Y-61678141D01*
X83755877Y-61678142D01*
X83755875Y-61678143D01*
X83719595Y-61700521D01*
X83606652Y-61770185D01*
X83482685Y-61894152D01*
X83390641Y-62043379D01*
X83390638Y-62043388D01*
X83335494Y-62209799D01*
X83335493Y-62209804D01*
X83325000Y-62312507D01*
X82675000Y-62312507D01*
X82675000Y-61404329D01*
X82680023Y-61369393D01*
X82684427Y-61354395D01*
X82722172Y-61295644D01*
X82723541Y-61294457D01*
X82778420Y-61266977D01*
X82785979Y-61265333D01*
X82812332Y-61262500D01*
X87295500Y-61262500D01*
X87362539Y-61282185D01*
G37*
%TD.AperFunction*%
%TD*%
%TA.AperFunction,Conductor*%
%TO.N,/Driver/OUT2*%
G36*
X23479192Y-86831792D02*
G01*
X23480270Y-86834393D01*
X23663070Y-87489574D01*
X23663500Y-87492718D01*
X23663500Y-87573804D01*
X23665942Y-87594864D01*
X23665941Y-87597572D01*
X23645210Y-87774660D01*
X23640844Y-87782479D01*
X23633589Y-87785000D01*
X23304410Y-87785000D01*
X23296137Y-87781573D01*
X23292789Y-87774660D01*
X23271740Y-87594864D01*
X23264267Y-87531032D01*
X23264617Y-87526536D01*
X23457730Y-86834392D01*
X23463255Y-86827345D01*
X23472144Y-86826267D01*
X23479192Y-86831792D01*
G37*
%TD.AperFunction*%
%TD*%
M02*
