%TF.GenerationSoftware,KiCad,Pcbnew,10.0.5-10.0.5~ubuntu24.04.1*%
%TF.CreationDate,2026-09-15T12:25:00-05:00*%
%TF.ProjectId,ORCA-BOARD,4f524341-2d42-44f4-9152-442e6b696361,rev?*%
%TF.SameCoordinates,Original*%
%TF.FileFunction,Legend,Top*%
%TF.FilePolarity,Positive*%
%FSLAX46Y46*%
G04 Gerber Fmt 4.6, Leading zero omitted, Abs format (unit mm)*
G04 Created by KiCad (PCBNEW 10.0.5-10.0.5~ubuntu24.04.1) date 2026-09-15 12:25:00*
%MOMM*%
%LPD*%
G01*
G04 APERTURE LIST*
%ADD10C,0.102953*%
%ADD11C,0.150000*%
%ADD12C,0.142240*%
%ADD13C,0.220980*%
%ADD14C,0.120000*%
%ADD15C,0.127000*%
%ADD16C,0.200000*%
%ADD17C,0.152400*%
G04 APERTURE END LIST*
D10*
X12559767Y-40296279D02*
X97559767Y-40296279D01*
X97559767Y-112296279D01*
X12559767Y-112296279D01*
X12559767Y-40296279D01*
D11*
X81829819Y-61081547D02*
X80829819Y-61081547D01*
X80829819Y-61081547D02*
X80829819Y-60843452D01*
X80829819Y-60843452D02*
X80877438Y-60700595D01*
X80877438Y-60700595D02*
X80972676Y-60605357D01*
X80972676Y-60605357D02*
X81067914Y-60557738D01*
X81067914Y-60557738D02*
X81258390Y-60510119D01*
X81258390Y-60510119D02*
X81401247Y-60510119D01*
X81401247Y-60510119D02*
X81591723Y-60557738D01*
X81591723Y-60557738D02*
X81686961Y-60605357D01*
X81686961Y-60605357D02*
X81782200Y-60700595D01*
X81782200Y-60700595D02*
X81829819Y-60843452D01*
X81829819Y-60843452D02*
X81829819Y-61081547D01*
X81925057Y-60319643D02*
X81925057Y-59557738D01*
X80925057Y-59367261D02*
X80877438Y-59319642D01*
X80877438Y-59319642D02*
X80829819Y-59224404D01*
X80829819Y-59224404D02*
X80829819Y-58986309D01*
X80829819Y-58986309D02*
X80877438Y-58891071D01*
X80877438Y-58891071D02*
X80925057Y-58843452D01*
X80925057Y-58843452D02*
X81020295Y-58795833D01*
X81020295Y-58795833D02*
X81115533Y-58795833D01*
X81115533Y-58795833D02*
X81258390Y-58843452D01*
X81258390Y-58843452D02*
X81829819Y-59414880D01*
X81829819Y-59414880D02*
X81829819Y-58795833D01*
X74533333Y-78547319D02*
X74200000Y-78071128D01*
X73961905Y-78547319D02*
X73961905Y-77547319D01*
X73961905Y-77547319D02*
X74342857Y-77547319D01*
X74342857Y-77547319D02*
X74438095Y-77594938D01*
X74438095Y-77594938D02*
X74485714Y-77642557D01*
X74485714Y-77642557D02*
X74533333Y-77737795D01*
X74533333Y-77737795D02*
X74533333Y-77880652D01*
X74533333Y-77880652D02*
X74485714Y-77975890D01*
X74485714Y-77975890D02*
X74438095Y-78023509D01*
X74438095Y-78023509D02*
X74342857Y-78071128D01*
X74342857Y-78071128D02*
X73961905Y-78071128D01*
X75390476Y-77547319D02*
X75200000Y-77547319D01*
X75200000Y-77547319D02*
X75104762Y-77594938D01*
X75104762Y-77594938D02*
X75057143Y-77642557D01*
X75057143Y-77642557D02*
X74961905Y-77785414D01*
X74961905Y-77785414D02*
X74914286Y-77975890D01*
X74914286Y-77975890D02*
X74914286Y-78356842D01*
X74914286Y-78356842D02*
X74961905Y-78452080D01*
X74961905Y-78452080D02*
X75009524Y-78499700D01*
X75009524Y-78499700D02*
X75104762Y-78547319D01*
X75104762Y-78547319D02*
X75295238Y-78547319D01*
X75295238Y-78547319D02*
X75390476Y-78499700D01*
X75390476Y-78499700D02*
X75438095Y-78452080D01*
X75438095Y-78452080D02*
X75485714Y-78356842D01*
X75485714Y-78356842D02*
X75485714Y-78118747D01*
X75485714Y-78118747D02*
X75438095Y-78023509D01*
X75438095Y-78023509D02*
X75390476Y-77975890D01*
X75390476Y-77975890D02*
X75295238Y-77928271D01*
X75295238Y-77928271D02*
X75104762Y-77928271D01*
X75104762Y-77928271D02*
X75009524Y-77975890D01*
X75009524Y-77975890D02*
X74961905Y-78023509D01*
X74961905Y-78023509D02*
X74914286Y-78118747D01*
X96354819Y-79050594D02*
X95354819Y-79050594D01*
X95354819Y-79050594D02*
X95354819Y-78812499D01*
X95354819Y-78812499D02*
X95402438Y-78669642D01*
X95402438Y-78669642D02*
X95497676Y-78574404D01*
X95497676Y-78574404D02*
X95592914Y-78526785D01*
X95592914Y-78526785D02*
X95783390Y-78479166D01*
X95783390Y-78479166D02*
X95926247Y-78479166D01*
X95926247Y-78479166D02*
X96116723Y-78526785D01*
X96116723Y-78526785D02*
X96211961Y-78574404D01*
X96211961Y-78574404D02*
X96307200Y-78669642D01*
X96307200Y-78669642D02*
X96354819Y-78812499D01*
X96354819Y-78812499D02*
X96354819Y-79050594D01*
X95450057Y-78098213D02*
X95402438Y-78050594D01*
X95402438Y-78050594D02*
X95354819Y-77955356D01*
X95354819Y-77955356D02*
X95354819Y-77717261D01*
X95354819Y-77717261D02*
X95402438Y-77622023D01*
X95402438Y-77622023D02*
X95450057Y-77574404D01*
X95450057Y-77574404D02*
X95545295Y-77526785D01*
X95545295Y-77526785D02*
X95640533Y-77526785D01*
X95640533Y-77526785D02*
X95783390Y-77574404D01*
X95783390Y-77574404D02*
X96354819Y-78145832D01*
X96354819Y-78145832D02*
X96354819Y-77526785D01*
X67040476Y-50629819D02*
X67040476Y-51344104D01*
X67040476Y-51344104D02*
X66992857Y-51486961D01*
X66992857Y-51486961D02*
X66897619Y-51582200D01*
X66897619Y-51582200D02*
X66754762Y-51629819D01*
X66754762Y-51629819D02*
X66659524Y-51629819D01*
X67469048Y-50725057D02*
X67516667Y-50677438D01*
X67516667Y-50677438D02*
X67611905Y-50629819D01*
X67611905Y-50629819D02*
X67850000Y-50629819D01*
X67850000Y-50629819D02*
X67945238Y-50677438D01*
X67945238Y-50677438D02*
X67992857Y-50725057D01*
X67992857Y-50725057D02*
X68040476Y-50820295D01*
X68040476Y-50820295D02*
X68040476Y-50915533D01*
X68040476Y-50915533D02*
X67992857Y-51058390D01*
X67992857Y-51058390D02*
X67421429Y-51629819D01*
X67421429Y-51629819D02*
X68040476Y-51629819D01*
X68659524Y-50629819D02*
X68754762Y-50629819D01*
X68754762Y-50629819D02*
X68850000Y-50677438D01*
X68850000Y-50677438D02*
X68897619Y-50725057D01*
X68897619Y-50725057D02*
X68945238Y-50820295D01*
X68945238Y-50820295D02*
X68992857Y-51010771D01*
X68992857Y-51010771D02*
X68992857Y-51248866D01*
X68992857Y-51248866D02*
X68945238Y-51439342D01*
X68945238Y-51439342D02*
X68897619Y-51534580D01*
X68897619Y-51534580D02*
X68850000Y-51582200D01*
X68850000Y-51582200D02*
X68754762Y-51629819D01*
X68754762Y-51629819D02*
X68659524Y-51629819D01*
X68659524Y-51629819D02*
X68564286Y-51582200D01*
X68564286Y-51582200D02*
X68516667Y-51534580D01*
X68516667Y-51534580D02*
X68469048Y-51439342D01*
X68469048Y-51439342D02*
X68421429Y-51248866D01*
X68421429Y-51248866D02*
X68421429Y-51010771D01*
X68421429Y-51010771D02*
X68469048Y-50820295D01*
X68469048Y-50820295D02*
X68516667Y-50725057D01*
X68516667Y-50725057D02*
X68564286Y-50677438D01*
X68564286Y-50677438D02*
X68659524Y-50629819D01*
X51179819Y-45983333D02*
X51894104Y-45983333D01*
X51894104Y-45983333D02*
X52036961Y-46030952D01*
X52036961Y-46030952D02*
X52132200Y-46126190D01*
X52132200Y-46126190D02*
X52179819Y-46269047D01*
X52179819Y-46269047D02*
X52179819Y-46364285D01*
X51179819Y-45030952D02*
X51179819Y-45507142D01*
X51179819Y-45507142D02*
X51656009Y-45554761D01*
X51656009Y-45554761D02*
X51608390Y-45507142D01*
X51608390Y-45507142D02*
X51560771Y-45411904D01*
X51560771Y-45411904D02*
X51560771Y-45173809D01*
X51560771Y-45173809D02*
X51608390Y-45078571D01*
X51608390Y-45078571D02*
X51656009Y-45030952D01*
X51656009Y-45030952D02*
X51751247Y-44983333D01*
X51751247Y-44983333D02*
X51989342Y-44983333D01*
X51989342Y-44983333D02*
X52084580Y-45030952D01*
X52084580Y-45030952D02*
X52132200Y-45078571D01*
X52132200Y-45078571D02*
X52179819Y-45173809D01*
X52179819Y-45173809D02*
X52179819Y-45411904D01*
X52179819Y-45411904D02*
X52132200Y-45507142D01*
X52132200Y-45507142D02*
X52084580Y-45554761D01*
X57533333Y-54184819D02*
X57200000Y-53708628D01*
X56961905Y-54184819D02*
X56961905Y-53184819D01*
X56961905Y-53184819D02*
X57342857Y-53184819D01*
X57342857Y-53184819D02*
X57438095Y-53232438D01*
X57438095Y-53232438D02*
X57485714Y-53280057D01*
X57485714Y-53280057D02*
X57533333Y-53375295D01*
X57533333Y-53375295D02*
X57533333Y-53518152D01*
X57533333Y-53518152D02*
X57485714Y-53613390D01*
X57485714Y-53613390D02*
X57438095Y-53661009D01*
X57438095Y-53661009D02*
X57342857Y-53708628D01*
X57342857Y-53708628D02*
X56961905Y-53708628D01*
X58104762Y-53613390D02*
X58009524Y-53565771D01*
X58009524Y-53565771D02*
X57961905Y-53518152D01*
X57961905Y-53518152D02*
X57914286Y-53422914D01*
X57914286Y-53422914D02*
X57914286Y-53375295D01*
X57914286Y-53375295D02*
X57961905Y-53280057D01*
X57961905Y-53280057D02*
X58009524Y-53232438D01*
X58009524Y-53232438D02*
X58104762Y-53184819D01*
X58104762Y-53184819D02*
X58295238Y-53184819D01*
X58295238Y-53184819D02*
X58390476Y-53232438D01*
X58390476Y-53232438D02*
X58438095Y-53280057D01*
X58438095Y-53280057D02*
X58485714Y-53375295D01*
X58485714Y-53375295D02*
X58485714Y-53422914D01*
X58485714Y-53422914D02*
X58438095Y-53518152D01*
X58438095Y-53518152D02*
X58390476Y-53565771D01*
X58390476Y-53565771D02*
X58295238Y-53613390D01*
X58295238Y-53613390D02*
X58104762Y-53613390D01*
X58104762Y-53613390D02*
X58009524Y-53661009D01*
X58009524Y-53661009D02*
X57961905Y-53708628D01*
X57961905Y-53708628D02*
X57914286Y-53803866D01*
X57914286Y-53803866D02*
X57914286Y-53994342D01*
X57914286Y-53994342D02*
X57961905Y-54089580D01*
X57961905Y-54089580D02*
X58009524Y-54137200D01*
X58009524Y-54137200D02*
X58104762Y-54184819D01*
X58104762Y-54184819D02*
X58295238Y-54184819D01*
X58295238Y-54184819D02*
X58390476Y-54137200D01*
X58390476Y-54137200D02*
X58438095Y-54089580D01*
X58438095Y-54089580D02*
X58485714Y-53994342D01*
X58485714Y-53994342D02*
X58485714Y-53803866D01*
X58485714Y-53803866D02*
X58438095Y-53708628D01*
X58438095Y-53708628D02*
X58390476Y-53661009D01*
X58390476Y-53661009D02*
X58295238Y-53613390D01*
X30533333Y-43459580D02*
X30485714Y-43507200D01*
X30485714Y-43507200D02*
X30342857Y-43554819D01*
X30342857Y-43554819D02*
X30247619Y-43554819D01*
X30247619Y-43554819D02*
X30104762Y-43507200D01*
X30104762Y-43507200D02*
X30009524Y-43411961D01*
X30009524Y-43411961D02*
X29961905Y-43316723D01*
X29961905Y-43316723D02*
X29914286Y-43126247D01*
X29914286Y-43126247D02*
X29914286Y-42983390D01*
X29914286Y-42983390D02*
X29961905Y-42792914D01*
X29961905Y-42792914D02*
X30009524Y-42697676D01*
X30009524Y-42697676D02*
X30104762Y-42602438D01*
X30104762Y-42602438D02*
X30247619Y-42554819D01*
X30247619Y-42554819D02*
X30342857Y-42554819D01*
X30342857Y-42554819D02*
X30485714Y-42602438D01*
X30485714Y-42602438D02*
X30533333Y-42650057D01*
X30866667Y-42554819D02*
X31485714Y-42554819D01*
X31485714Y-42554819D02*
X31152381Y-42935771D01*
X31152381Y-42935771D02*
X31295238Y-42935771D01*
X31295238Y-42935771D02*
X31390476Y-42983390D01*
X31390476Y-42983390D02*
X31438095Y-43031009D01*
X31438095Y-43031009D02*
X31485714Y-43126247D01*
X31485714Y-43126247D02*
X31485714Y-43364342D01*
X31485714Y-43364342D02*
X31438095Y-43459580D01*
X31438095Y-43459580D02*
X31390476Y-43507200D01*
X31390476Y-43507200D02*
X31295238Y-43554819D01*
X31295238Y-43554819D02*
X31009524Y-43554819D01*
X31009524Y-43554819D02*
X30914286Y-43507200D01*
X30914286Y-43507200D02*
X30866667Y-43459580D01*
X86899819Y-105667857D02*
X86423628Y-106001190D01*
X86899819Y-106239285D02*
X85899819Y-106239285D01*
X85899819Y-106239285D02*
X85899819Y-105858333D01*
X85899819Y-105858333D02*
X85947438Y-105763095D01*
X85947438Y-105763095D02*
X85995057Y-105715476D01*
X85995057Y-105715476D02*
X86090295Y-105667857D01*
X86090295Y-105667857D02*
X86233152Y-105667857D01*
X86233152Y-105667857D02*
X86328390Y-105715476D01*
X86328390Y-105715476D02*
X86376009Y-105763095D01*
X86376009Y-105763095D02*
X86423628Y-105858333D01*
X86423628Y-105858333D02*
X86423628Y-106239285D01*
X86899819Y-104715476D02*
X86899819Y-105286904D01*
X86899819Y-105001190D02*
X85899819Y-105001190D01*
X85899819Y-105001190D02*
X86042676Y-105096428D01*
X86042676Y-105096428D02*
X86137914Y-105191666D01*
X86137914Y-105191666D02*
X86185533Y-105286904D01*
X85995057Y-104334523D02*
X85947438Y-104286904D01*
X85947438Y-104286904D02*
X85899819Y-104191666D01*
X85899819Y-104191666D02*
X85899819Y-103953571D01*
X85899819Y-103953571D02*
X85947438Y-103858333D01*
X85947438Y-103858333D02*
X85995057Y-103810714D01*
X85995057Y-103810714D02*
X86090295Y-103763095D01*
X86090295Y-103763095D02*
X86185533Y-103763095D01*
X86185533Y-103763095D02*
X86328390Y-103810714D01*
X86328390Y-103810714D02*
X86899819Y-104382142D01*
X86899819Y-104382142D02*
X86899819Y-103763095D01*
X26114833Y-91534580D02*
X26067214Y-91582200D01*
X26067214Y-91582200D02*
X25924357Y-91629819D01*
X25924357Y-91629819D02*
X25829119Y-91629819D01*
X25829119Y-91629819D02*
X25686262Y-91582200D01*
X25686262Y-91582200D02*
X25591024Y-91486961D01*
X25591024Y-91486961D02*
X25543405Y-91391723D01*
X25543405Y-91391723D02*
X25495786Y-91201247D01*
X25495786Y-91201247D02*
X25495786Y-91058390D01*
X25495786Y-91058390D02*
X25543405Y-90867914D01*
X25543405Y-90867914D02*
X25591024Y-90772676D01*
X25591024Y-90772676D02*
X25686262Y-90677438D01*
X25686262Y-90677438D02*
X25829119Y-90629819D01*
X25829119Y-90629819D02*
X25924357Y-90629819D01*
X25924357Y-90629819D02*
X26067214Y-90677438D01*
X26067214Y-90677438D02*
X26114833Y-90725057D01*
X26686262Y-91058390D02*
X26591024Y-91010771D01*
X26591024Y-91010771D02*
X26543405Y-90963152D01*
X26543405Y-90963152D02*
X26495786Y-90867914D01*
X26495786Y-90867914D02*
X26495786Y-90820295D01*
X26495786Y-90820295D02*
X26543405Y-90725057D01*
X26543405Y-90725057D02*
X26591024Y-90677438D01*
X26591024Y-90677438D02*
X26686262Y-90629819D01*
X26686262Y-90629819D02*
X26876738Y-90629819D01*
X26876738Y-90629819D02*
X26971976Y-90677438D01*
X26971976Y-90677438D02*
X27019595Y-90725057D01*
X27019595Y-90725057D02*
X27067214Y-90820295D01*
X27067214Y-90820295D02*
X27067214Y-90867914D01*
X27067214Y-90867914D02*
X27019595Y-90963152D01*
X27019595Y-90963152D02*
X26971976Y-91010771D01*
X26971976Y-91010771D02*
X26876738Y-91058390D01*
X26876738Y-91058390D02*
X26686262Y-91058390D01*
X26686262Y-91058390D02*
X26591024Y-91106009D01*
X26591024Y-91106009D02*
X26543405Y-91153628D01*
X26543405Y-91153628D02*
X26495786Y-91248866D01*
X26495786Y-91248866D02*
X26495786Y-91439342D01*
X26495786Y-91439342D02*
X26543405Y-91534580D01*
X26543405Y-91534580D02*
X26591024Y-91582200D01*
X26591024Y-91582200D02*
X26686262Y-91629819D01*
X26686262Y-91629819D02*
X26876738Y-91629819D01*
X26876738Y-91629819D02*
X26971976Y-91582200D01*
X26971976Y-91582200D02*
X27019595Y-91534580D01*
X27019595Y-91534580D02*
X27067214Y-91439342D01*
X27067214Y-91439342D02*
X27067214Y-91248866D01*
X27067214Y-91248866D02*
X27019595Y-91153628D01*
X27019595Y-91153628D02*
X26971976Y-91106009D01*
X26971976Y-91106009D02*
X26876738Y-91058390D01*
X76477380Y-65292080D02*
X76429761Y-65339700D01*
X76429761Y-65339700D02*
X76286904Y-65387319D01*
X76286904Y-65387319D02*
X76191666Y-65387319D01*
X76191666Y-65387319D02*
X76048809Y-65339700D01*
X76048809Y-65339700D02*
X75953571Y-65244461D01*
X75953571Y-65244461D02*
X75905952Y-65149223D01*
X75905952Y-65149223D02*
X75858333Y-64958747D01*
X75858333Y-64958747D02*
X75858333Y-64815890D01*
X75858333Y-64815890D02*
X75905952Y-64625414D01*
X75905952Y-64625414D02*
X75953571Y-64530176D01*
X75953571Y-64530176D02*
X76048809Y-64434938D01*
X76048809Y-64434938D02*
X76191666Y-64387319D01*
X76191666Y-64387319D02*
X76286904Y-64387319D01*
X76286904Y-64387319D02*
X76429761Y-64434938D01*
X76429761Y-64434938D02*
X76477380Y-64482557D01*
X76667857Y-65482557D02*
X77429761Y-65482557D01*
X77572619Y-64387319D02*
X78239285Y-64387319D01*
X78239285Y-64387319D02*
X77810714Y-65387319D01*
X26308333Y-52554819D02*
X25975000Y-52078628D01*
X25736905Y-52554819D02*
X25736905Y-51554819D01*
X25736905Y-51554819D02*
X26117857Y-51554819D01*
X26117857Y-51554819D02*
X26213095Y-51602438D01*
X26213095Y-51602438D02*
X26260714Y-51650057D01*
X26260714Y-51650057D02*
X26308333Y-51745295D01*
X26308333Y-51745295D02*
X26308333Y-51888152D01*
X26308333Y-51888152D02*
X26260714Y-51983390D01*
X26260714Y-51983390D02*
X26213095Y-52031009D01*
X26213095Y-52031009D02*
X26117857Y-52078628D01*
X26117857Y-52078628D02*
X25736905Y-52078628D01*
X26689286Y-51650057D02*
X26736905Y-51602438D01*
X26736905Y-51602438D02*
X26832143Y-51554819D01*
X26832143Y-51554819D02*
X27070238Y-51554819D01*
X27070238Y-51554819D02*
X27165476Y-51602438D01*
X27165476Y-51602438D02*
X27213095Y-51650057D01*
X27213095Y-51650057D02*
X27260714Y-51745295D01*
X27260714Y-51745295D02*
X27260714Y-51840533D01*
X27260714Y-51840533D02*
X27213095Y-51983390D01*
X27213095Y-51983390D02*
X26641667Y-52554819D01*
X26641667Y-52554819D02*
X27260714Y-52554819D01*
X31104819Y-59521904D02*
X31914342Y-59521904D01*
X31914342Y-59521904D02*
X32009580Y-59474285D01*
X32009580Y-59474285D02*
X32057200Y-59426666D01*
X32057200Y-59426666D02*
X32104819Y-59331428D01*
X32104819Y-59331428D02*
X32104819Y-59140952D01*
X32104819Y-59140952D02*
X32057200Y-59045714D01*
X32057200Y-59045714D02*
X32009580Y-58998095D01*
X32009580Y-58998095D02*
X31914342Y-58950476D01*
X31914342Y-58950476D02*
X31104819Y-58950476D01*
X31200057Y-58521904D02*
X31152438Y-58474285D01*
X31152438Y-58474285D02*
X31104819Y-58379047D01*
X31104819Y-58379047D02*
X31104819Y-58140952D01*
X31104819Y-58140952D02*
X31152438Y-58045714D01*
X31152438Y-58045714D02*
X31200057Y-57998095D01*
X31200057Y-57998095D02*
X31295295Y-57950476D01*
X31295295Y-57950476D02*
X31390533Y-57950476D01*
X31390533Y-57950476D02*
X31533390Y-57998095D01*
X31533390Y-57998095D02*
X32104819Y-58569523D01*
X32104819Y-58569523D02*
X32104819Y-57950476D01*
X73399819Y-72060119D02*
X72923628Y-72393452D01*
X73399819Y-72631547D02*
X72399819Y-72631547D01*
X72399819Y-72631547D02*
X72399819Y-72250595D01*
X72399819Y-72250595D02*
X72447438Y-72155357D01*
X72447438Y-72155357D02*
X72495057Y-72107738D01*
X72495057Y-72107738D02*
X72590295Y-72060119D01*
X72590295Y-72060119D02*
X72733152Y-72060119D01*
X72733152Y-72060119D02*
X72828390Y-72107738D01*
X72828390Y-72107738D02*
X72876009Y-72155357D01*
X72876009Y-72155357D02*
X72923628Y-72250595D01*
X72923628Y-72250595D02*
X72923628Y-72631547D01*
X73495057Y-71869643D02*
X73495057Y-71107738D01*
X72399819Y-70393452D02*
X72399819Y-70869642D01*
X72399819Y-70869642D02*
X72876009Y-70917261D01*
X72876009Y-70917261D02*
X72828390Y-70869642D01*
X72828390Y-70869642D02*
X72780771Y-70774404D01*
X72780771Y-70774404D02*
X72780771Y-70536309D01*
X72780771Y-70536309D02*
X72828390Y-70441071D01*
X72828390Y-70441071D02*
X72876009Y-70393452D01*
X72876009Y-70393452D02*
X72971247Y-70345833D01*
X72971247Y-70345833D02*
X73209342Y-70345833D01*
X73209342Y-70345833D02*
X73304580Y-70393452D01*
X73304580Y-70393452D02*
X73352200Y-70441071D01*
X73352200Y-70441071D02*
X73399819Y-70536309D01*
X73399819Y-70536309D02*
X73399819Y-70774404D01*
X73399819Y-70774404D02*
X73352200Y-70869642D01*
X73352200Y-70869642D02*
X73304580Y-70917261D01*
X85583333Y-65829819D02*
X85107143Y-65829819D01*
X85107143Y-65829819D02*
X85107143Y-64829819D01*
X86440476Y-65829819D02*
X85869048Y-65829819D01*
X86154762Y-65829819D02*
X86154762Y-64829819D01*
X86154762Y-64829819D02*
X86059524Y-64972676D01*
X86059524Y-64972676D02*
X85964286Y-65067914D01*
X85964286Y-65067914D02*
X85869048Y-65115533D01*
X23954819Y-54261904D02*
X24764342Y-54261904D01*
X24764342Y-54261904D02*
X24859580Y-54214285D01*
X24859580Y-54214285D02*
X24907200Y-54166666D01*
X24907200Y-54166666D02*
X24954819Y-54071428D01*
X24954819Y-54071428D02*
X24954819Y-53880952D01*
X24954819Y-53880952D02*
X24907200Y-53785714D01*
X24907200Y-53785714D02*
X24859580Y-53738095D01*
X24859580Y-53738095D02*
X24764342Y-53690476D01*
X24764342Y-53690476D02*
X23954819Y-53690476D01*
X23954819Y-53309523D02*
X23954819Y-52642857D01*
X23954819Y-52642857D02*
X24954819Y-53071428D01*
X89109819Y-98738333D02*
X89824104Y-98738333D01*
X89824104Y-98738333D02*
X89966961Y-98785952D01*
X89966961Y-98785952D02*
X90062200Y-98881190D01*
X90062200Y-98881190D02*
X90109819Y-99024047D01*
X90109819Y-99024047D02*
X90109819Y-99119285D01*
X89443152Y-97833571D02*
X90109819Y-97833571D01*
X89062200Y-98071666D02*
X89776485Y-98309761D01*
X89776485Y-98309761D02*
X89776485Y-97690714D01*
X83415795Y-100184523D02*
X84063414Y-100184523D01*
X84063414Y-100184523D02*
X84139604Y-100146428D01*
X84139604Y-100146428D02*
X84177700Y-100108333D01*
X84177700Y-100108333D02*
X84215795Y-100032142D01*
X84215795Y-100032142D02*
X84215795Y-99879761D01*
X84215795Y-99879761D02*
X84177700Y-99803571D01*
X84177700Y-99803571D02*
X84139604Y-99765476D01*
X84139604Y-99765476D02*
X84063414Y-99727380D01*
X84063414Y-99727380D02*
X83415795Y-99727380D01*
X83415795Y-99003571D02*
X83415795Y-99155952D01*
X83415795Y-99155952D02*
X83453890Y-99232143D01*
X83453890Y-99232143D02*
X83491985Y-99270238D01*
X83491985Y-99270238D02*
X83606271Y-99346428D01*
X83606271Y-99346428D02*
X83758652Y-99384524D01*
X83758652Y-99384524D02*
X84063414Y-99384524D01*
X84063414Y-99384524D02*
X84139604Y-99346428D01*
X84139604Y-99346428D02*
X84177700Y-99308333D01*
X84177700Y-99308333D02*
X84215795Y-99232143D01*
X84215795Y-99232143D02*
X84215795Y-99079762D01*
X84215795Y-99079762D02*
X84177700Y-99003571D01*
X84177700Y-99003571D02*
X84139604Y-98965476D01*
X84139604Y-98965476D02*
X84063414Y-98927381D01*
X84063414Y-98927381D02*
X83872938Y-98927381D01*
X83872938Y-98927381D02*
X83796747Y-98965476D01*
X83796747Y-98965476D02*
X83758652Y-99003571D01*
X83758652Y-99003571D02*
X83720557Y-99079762D01*
X83720557Y-99079762D02*
X83720557Y-99232143D01*
X83720557Y-99232143D02*
X83758652Y-99308333D01*
X83758652Y-99308333D02*
X83796747Y-99346428D01*
X83796747Y-99346428D02*
X83872938Y-99384524D01*
X65901486Y-103604523D02*
X66615771Y-103604523D01*
X66615771Y-103604523D02*
X66758628Y-103652142D01*
X66758628Y-103652142D02*
X66853867Y-103747380D01*
X66853867Y-103747380D02*
X66901486Y-103890237D01*
X66901486Y-103890237D02*
X66901486Y-103985475D01*
X66901486Y-102604523D02*
X66901486Y-103175951D01*
X66901486Y-102890237D02*
X65901486Y-102890237D01*
X65901486Y-102890237D02*
X66044343Y-102985475D01*
X66044343Y-102985475D02*
X66139581Y-103080713D01*
X66139581Y-103080713D02*
X66187200Y-103175951D01*
X65901486Y-102271189D02*
X65901486Y-101604523D01*
X65901486Y-101604523D02*
X66901486Y-102033094D01*
X72842319Y-79600594D02*
X71842319Y-79600594D01*
X71842319Y-79600594D02*
X71842319Y-79362499D01*
X71842319Y-79362499D02*
X71889938Y-79219642D01*
X71889938Y-79219642D02*
X71985176Y-79124404D01*
X71985176Y-79124404D02*
X72080414Y-79076785D01*
X72080414Y-79076785D02*
X72270890Y-79029166D01*
X72270890Y-79029166D02*
X72413747Y-79029166D01*
X72413747Y-79029166D02*
X72604223Y-79076785D01*
X72604223Y-79076785D02*
X72699461Y-79124404D01*
X72699461Y-79124404D02*
X72794700Y-79219642D01*
X72794700Y-79219642D02*
X72842319Y-79362499D01*
X72842319Y-79362499D02*
X72842319Y-79600594D01*
X72842319Y-78076785D02*
X72842319Y-78648213D01*
X72842319Y-78362499D02*
X71842319Y-78362499D01*
X71842319Y-78362499D02*
X71985176Y-78457737D01*
X71985176Y-78457737D02*
X72080414Y-78552975D01*
X72080414Y-78552975D02*
X72128033Y-78648213D01*
X29823333Y-53784819D02*
X29490000Y-53308628D01*
X29251905Y-53784819D02*
X29251905Y-52784819D01*
X29251905Y-52784819D02*
X29632857Y-52784819D01*
X29632857Y-52784819D02*
X29728095Y-52832438D01*
X29728095Y-52832438D02*
X29775714Y-52880057D01*
X29775714Y-52880057D02*
X29823333Y-52975295D01*
X29823333Y-52975295D02*
X29823333Y-53118152D01*
X29823333Y-53118152D02*
X29775714Y-53213390D01*
X29775714Y-53213390D02*
X29728095Y-53261009D01*
X29728095Y-53261009D02*
X29632857Y-53308628D01*
X29632857Y-53308628D02*
X29251905Y-53308628D01*
X30156667Y-52784819D02*
X30775714Y-52784819D01*
X30775714Y-52784819D02*
X30442381Y-53165771D01*
X30442381Y-53165771D02*
X30585238Y-53165771D01*
X30585238Y-53165771D02*
X30680476Y-53213390D01*
X30680476Y-53213390D02*
X30728095Y-53261009D01*
X30728095Y-53261009D02*
X30775714Y-53356247D01*
X30775714Y-53356247D02*
X30775714Y-53594342D01*
X30775714Y-53594342D02*
X30728095Y-53689580D01*
X30728095Y-53689580D02*
X30680476Y-53737200D01*
X30680476Y-53737200D02*
X30585238Y-53784819D01*
X30585238Y-53784819D02*
X30299524Y-53784819D01*
X30299524Y-53784819D02*
X30204286Y-53737200D01*
X30204286Y-53737200D02*
X30156667Y-53689580D01*
X89604580Y-61569643D02*
X89652200Y-61617262D01*
X89652200Y-61617262D02*
X89699819Y-61760119D01*
X89699819Y-61760119D02*
X89699819Y-61855357D01*
X89699819Y-61855357D02*
X89652200Y-61998214D01*
X89652200Y-61998214D02*
X89556961Y-62093452D01*
X89556961Y-62093452D02*
X89461723Y-62141071D01*
X89461723Y-62141071D02*
X89271247Y-62188690D01*
X89271247Y-62188690D02*
X89128390Y-62188690D01*
X89128390Y-62188690D02*
X88937914Y-62141071D01*
X88937914Y-62141071D02*
X88842676Y-62093452D01*
X88842676Y-62093452D02*
X88747438Y-61998214D01*
X88747438Y-61998214D02*
X88699819Y-61855357D01*
X88699819Y-61855357D02*
X88699819Y-61760119D01*
X88699819Y-61760119D02*
X88747438Y-61617262D01*
X88747438Y-61617262D02*
X88795057Y-61569643D01*
X89699819Y-60998214D02*
X89652200Y-61093452D01*
X89652200Y-61093452D02*
X89604580Y-61141071D01*
X89604580Y-61141071D02*
X89509342Y-61188690D01*
X89509342Y-61188690D02*
X89223628Y-61188690D01*
X89223628Y-61188690D02*
X89128390Y-61141071D01*
X89128390Y-61141071D02*
X89080771Y-61093452D01*
X89080771Y-61093452D02*
X89033152Y-60998214D01*
X89033152Y-60998214D02*
X89033152Y-60855357D01*
X89033152Y-60855357D02*
X89080771Y-60760119D01*
X89080771Y-60760119D02*
X89128390Y-60712500D01*
X89128390Y-60712500D02*
X89223628Y-60664881D01*
X89223628Y-60664881D02*
X89509342Y-60664881D01*
X89509342Y-60664881D02*
X89604580Y-60712500D01*
X89604580Y-60712500D02*
X89652200Y-60760119D01*
X89652200Y-60760119D02*
X89699819Y-60855357D01*
X89699819Y-60855357D02*
X89699819Y-60998214D01*
X89033152Y-59807738D02*
X89699819Y-59807738D01*
X89033152Y-60236309D02*
X89556961Y-60236309D01*
X89556961Y-60236309D02*
X89652200Y-60188690D01*
X89652200Y-60188690D02*
X89699819Y-60093452D01*
X89699819Y-60093452D02*
X89699819Y-59950595D01*
X89699819Y-59950595D02*
X89652200Y-59855357D01*
X89652200Y-59855357D02*
X89604580Y-59807738D01*
X89033152Y-59474404D02*
X89033152Y-59093452D01*
X88699819Y-59331547D02*
X89556961Y-59331547D01*
X89556961Y-59331547D02*
X89652200Y-59283928D01*
X89652200Y-59283928D02*
X89699819Y-59188690D01*
X89699819Y-59188690D02*
X89699819Y-59093452D01*
X89699819Y-58236309D02*
X89699819Y-58807737D01*
X89699819Y-58522023D02*
X88699819Y-58522023D01*
X88699819Y-58522023D02*
X88842676Y-58617261D01*
X88842676Y-58617261D02*
X88937914Y-58712499D01*
X88937914Y-58712499D02*
X88985533Y-58807737D01*
X90244642Y-88104580D02*
X90197023Y-88152200D01*
X90197023Y-88152200D02*
X90054166Y-88199819D01*
X90054166Y-88199819D02*
X89958928Y-88199819D01*
X89958928Y-88199819D02*
X89816071Y-88152200D01*
X89816071Y-88152200D02*
X89720833Y-88056961D01*
X89720833Y-88056961D02*
X89673214Y-87961723D01*
X89673214Y-87961723D02*
X89625595Y-87771247D01*
X89625595Y-87771247D02*
X89625595Y-87628390D01*
X89625595Y-87628390D02*
X89673214Y-87437914D01*
X89673214Y-87437914D02*
X89720833Y-87342676D01*
X89720833Y-87342676D02*
X89816071Y-87247438D01*
X89816071Y-87247438D02*
X89958928Y-87199819D01*
X89958928Y-87199819D02*
X90054166Y-87199819D01*
X90054166Y-87199819D02*
X90197023Y-87247438D01*
X90197023Y-87247438D02*
X90244642Y-87295057D01*
X91197023Y-88199819D02*
X90625595Y-88199819D01*
X90911309Y-88199819D02*
X90911309Y-87199819D01*
X90911309Y-87199819D02*
X90816071Y-87342676D01*
X90816071Y-87342676D02*
X90720833Y-87437914D01*
X90720833Y-87437914D02*
X90625595Y-87485533D01*
X91577976Y-87295057D02*
X91625595Y-87247438D01*
X91625595Y-87247438D02*
X91720833Y-87199819D01*
X91720833Y-87199819D02*
X91958928Y-87199819D01*
X91958928Y-87199819D02*
X92054166Y-87247438D01*
X92054166Y-87247438D02*
X92101785Y-87295057D01*
X92101785Y-87295057D02*
X92149404Y-87390295D01*
X92149404Y-87390295D02*
X92149404Y-87485533D01*
X92149404Y-87485533D02*
X92101785Y-87628390D01*
X92101785Y-87628390D02*
X91530357Y-88199819D01*
X91530357Y-88199819D02*
X92149404Y-88199819D01*
X27473755Y-66164820D02*
X27473755Y-66974343D01*
X27473755Y-66974343D02*
X27521374Y-67069581D01*
X27521374Y-67069581D02*
X27568993Y-67117201D01*
X27568993Y-67117201D02*
X27664231Y-67164820D01*
X27664231Y-67164820D02*
X27854707Y-67164820D01*
X27854707Y-67164820D02*
X27949945Y-67117201D01*
X27949945Y-67117201D02*
X27997564Y-67069581D01*
X27997564Y-67069581D02*
X28045183Y-66974343D01*
X28045183Y-66974343D02*
X28045183Y-66164820D01*
X29045183Y-67164820D02*
X28473755Y-67164820D01*
X28759469Y-67164820D02*
X28759469Y-66164820D01*
X28759469Y-66164820D02*
X28664231Y-66307677D01*
X28664231Y-66307677D02*
X28568993Y-66402915D01*
X28568993Y-66402915D02*
X28473755Y-66450534D01*
X29664231Y-66164820D02*
X29759469Y-66164820D01*
X29759469Y-66164820D02*
X29854707Y-66212439D01*
X29854707Y-66212439D02*
X29902326Y-66260058D01*
X29902326Y-66260058D02*
X29949945Y-66355296D01*
X29949945Y-66355296D02*
X29997564Y-66545772D01*
X29997564Y-66545772D02*
X29997564Y-66783867D01*
X29997564Y-66783867D02*
X29949945Y-66974343D01*
X29949945Y-66974343D02*
X29902326Y-67069581D01*
X29902326Y-67069581D02*
X29854707Y-67117201D01*
X29854707Y-67117201D02*
X29759469Y-67164820D01*
X29759469Y-67164820D02*
X29664231Y-67164820D01*
X29664231Y-67164820D02*
X29568993Y-67117201D01*
X29568993Y-67117201D02*
X29521374Y-67069581D01*
X29521374Y-67069581D02*
X29473755Y-66974343D01*
X29473755Y-66974343D02*
X29426136Y-66783867D01*
X29426136Y-66783867D02*
X29426136Y-66545772D01*
X29426136Y-66545772D02*
X29473755Y-66355296D01*
X29473755Y-66355296D02*
X29521374Y-66260058D01*
X29521374Y-66260058D02*
X29568993Y-66212439D01*
X29568993Y-66212439D02*
X29664231Y-66164820D01*
X26991000Y-63513020D02*
X26991000Y-63751115D01*
X26752905Y-63655877D02*
X26991000Y-63751115D01*
X26991000Y-63751115D02*
X27229095Y-63655877D01*
X26848143Y-63941591D02*
X26991000Y-63751115D01*
X26991000Y-63751115D02*
X27133857Y-63941591D01*
X26991000Y-63513020D02*
X26991000Y-63751115D01*
X26752905Y-63655877D02*
X26991000Y-63751115D01*
X26991000Y-63751115D02*
X27229095Y-63655877D01*
X26848143Y-63941591D02*
X26991000Y-63751115D01*
X26991000Y-63751115D02*
X27133857Y-63941591D01*
X37781666Y-99769819D02*
X37781666Y-100484104D01*
X37781666Y-100484104D02*
X37734047Y-100626961D01*
X37734047Y-100626961D02*
X37638809Y-100722200D01*
X37638809Y-100722200D02*
X37495952Y-100769819D01*
X37495952Y-100769819D02*
X37400714Y-100769819D01*
X38162619Y-99769819D02*
X38829285Y-99769819D01*
X38829285Y-99769819D02*
X38400714Y-100769819D01*
X26442319Y-77837857D02*
X25966128Y-78171190D01*
X26442319Y-78409285D02*
X25442319Y-78409285D01*
X25442319Y-78409285D02*
X25442319Y-78028333D01*
X25442319Y-78028333D02*
X25489938Y-77933095D01*
X25489938Y-77933095D02*
X25537557Y-77885476D01*
X25537557Y-77885476D02*
X25632795Y-77837857D01*
X25632795Y-77837857D02*
X25775652Y-77837857D01*
X25775652Y-77837857D02*
X25870890Y-77885476D01*
X25870890Y-77885476D02*
X25918509Y-77933095D01*
X25918509Y-77933095D02*
X25966128Y-78028333D01*
X25966128Y-78028333D02*
X25966128Y-78409285D01*
X26442319Y-76885476D02*
X26442319Y-77456904D01*
X26442319Y-77171190D02*
X25442319Y-77171190D01*
X25442319Y-77171190D02*
X25585176Y-77266428D01*
X25585176Y-77266428D02*
X25680414Y-77361666D01*
X25680414Y-77361666D02*
X25728033Y-77456904D01*
X25442319Y-76266428D02*
X25442319Y-76171190D01*
X25442319Y-76171190D02*
X25489938Y-76075952D01*
X25489938Y-76075952D02*
X25537557Y-76028333D01*
X25537557Y-76028333D02*
X25632795Y-75980714D01*
X25632795Y-75980714D02*
X25823271Y-75933095D01*
X25823271Y-75933095D02*
X26061366Y-75933095D01*
X26061366Y-75933095D02*
X26251842Y-75980714D01*
X26251842Y-75980714D02*
X26347080Y-76028333D01*
X26347080Y-76028333D02*
X26394700Y-76075952D01*
X26394700Y-76075952D02*
X26442319Y-76171190D01*
X26442319Y-76171190D02*
X26442319Y-76266428D01*
X26442319Y-76266428D02*
X26394700Y-76361666D01*
X26394700Y-76361666D02*
X26347080Y-76409285D01*
X26347080Y-76409285D02*
X26251842Y-76456904D01*
X26251842Y-76456904D02*
X26061366Y-76504523D01*
X26061366Y-76504523D02*
X25823271Y-76504523D01*
X25823271Y-76504523D02*
X25632795Y-76456904D01*
X25632795Y-76456904D02*
X25537557Y-76409285D01*
X25537557Y-76409285D02*
X25489938Y-76361666D01*
X25489938Y-76361666D02*
X25442319Y-76266428D01*
X90482142Y-107209819D02*
X90148809Y-106733628D01*
X89910714Y-107209819D02*
X89910714Y-106209819D01*
X89910714Y-106209819D02*
X90291666Y-106209819D01*
X90291666Y-106209819D02*
X90386904Y-106257438D01*
X90386904Y-106257438D02*
X90434523Y-106305057D01*
X90434523Y-106305057D02*
X90482142Y-106400295D01*
X90482142Y-106400295D02*
X90482142Y-106543152D01*
X90482142Y-106543152D02*
X90434523Y-106638390D01*
X90434523Y-106638390D02*
X90386904Y-106686009D01*
X90386904Y-106686009D02*
X90291666Y-106733628D01*
X90291666Y-106733628D02*
X89910714Y-106733628D01*
X91434523Y-107209819D02*
X90863095Y-107209819D01*
X91148809Y-107209819D02*
X91148809Y-106209819D01*
X91148809Y-106209819D02*
X91053571Y-106352676D01*
X91053571Y-106352676D02*
X90958333Y-106447914D01*
X90958333Y-106447914D02*
X90863095Y-106495533D01*
X92291666Y-106543152D02*
X92291666Y-107209819D01*
X92053571Y-106162200D02*
X91815476Y-106876485D01*
X91815476Y-106876485D02*
X92434523Y-106876485D01*
X59468152Y-103604523D02*
X60182437Y-103604523D01*
X60182437Y-103604523D02*
X60325294Y-103652142D01*
X60325294Y-103652142D02*
X60420533Y-103747380D01*
X60420533Y-103747380D02*
X60468152Y-103890237D01*
X60468152Y-103890237D02*
X60468152Y-103985475D01*
X60468152Y-102604523D02*
X60468152Y-103175951D01*
X60468152Y-102890237D02*
X59468152Y-102890237D01*
X59468152Y-102890237D02*
X59611009Y-102985475D01*
X59611009Y-102985475D02*
X59706247Y-103080713D01*
X59706247Y-103080713D02*
X59753866Y-103175951D01*
X59801485Y-101747380D02*
X60468152Y-101747380D01*
X59420533Y-101985475D02*
X60134818Y-102223570D01*
X60134818Y-102223570D02*
X60134818Y-101604523D01*
X80079819Y-61624404D02*
X80889342Y-61624404D01*
X80889342Y-61624404D02*
X80984580Y-61576785D01*
X80984580Y-61576785D02*
X81032200Y-61529166D01*
X81032200Y-61529166D02*
X81079819Y-61433928D01*
X81079819Y-61433928D02*
X81079819Y-61243452D01*
X81079819Y-61243452D02*
X81032200Y-61148214D01*
X81032200Y-61148214D02*
X80984580Y-61100595D01*
X80984580Y-61100595D02*
X80889342Y-61052976D01*
X80889342Y-61052976D02*
X80079819Y-61052976D01*
X80508390Y-60433928D02*
X80460771Y-60529166D01*
X80460771Y-60529166D02*
X80413152Y-60576785D01*
X80413152Y-60576785D02*
X80317914Y-60624404D01*
X80317914Y-60624404D02*
X80270295Y-60624404D01*
X80270295Y-60624404D02*
X80175057Y-60576785D01*
X80175057Y-60576785D02*
X80127438Y-60529166D01*
X80127438Y-60529166D02*
X80079819Y-60433928D01*
X80079819Y-60433928D02*
X80079819Y-60243452D01*
X80079819Y-60243452D02*
X80127438Y-60148214D01*
X80127438Y-60148214D02*
X80175057Y-60100595D01*
X80175057Y-60100595D02*
X80270295Y-60052976D01*
X80270295Y-60052976D02*
X80317914Y-60052976D01*
X80317914Y-60052976D02*
X80413152Y-60100595D01*
X80413152Y-60100595D02*
X80460771Y-60148214D01*
X80460771Y-60148214D02*
X80508390Y-60243452D01*
X80508390Y-60243452D02*
X80508390Y-60433928D01*
X80508390Y-60433928D02*
X80556009Y-60529166D01*
X80556009Y-60529166D02*
X80603628Y-60576785D01*
X80603628Y-60576785D02*
X80698866Y-60624404D01*
X80698866Y-60624404D02*
X80889342Y-60624404D01*
X80889342Y-60624404D02*
X80984580Y-60576785D01*
X80984580Y-60576785D02*
X81032200Y-60529166D01*
X81032200Y-60529166D02*
X81079819Y-60433928D01*
X81079819Y-60433928D02*
X81079819Y-60243452D01*
X81079819Y-60243452D02*
X81032200Y-60148214D01*
X81032200Y-60148214D02*
X80984580Y-60100595D01*
X80984580Y-60100595D02*
X80889342Y-60052976D01*
X80889342Y-60052976D02*
X80698866Y-60052976D01*
X80698866Y-60052976D02*
X80603628Y-60100595D01*
X80603628Y-60100595D02*
X80556009Y-60148214D01*
X80556009Y-60148214D02*
X80508390Y-60243452D01*
X26459580Y-45666666D02*
X26507200Y-45714285D01*
X26507200Y-45714285D02*
X26554819Y-45857142D01*
X26554819Y-45857142D02*
X26554819Y-45952380D01*
X26554819Y-45952380D02*
X26507200Y-46095237D01*
X26507200Y-46095237D02*
X26411961Y-46190475D01*
X26411961Y-46190475D02*
X26316723Y-46238094D01*
X26316723Y-46238094D02*
X26126247Y-46285713D01*
X26126247Y-46285713D02*
X25983390Y-46285713D01*
X25983390Y-46285713D02*
X25792914Y-46238094D01*
X25792914Y-46238094D02*
X25697676Y-46190475D01*
X25697676Y-46190475D02*
X25602438Y-46095237D01*
X25602438Y-46095237D02*
X25554819Y-45952380D01*
X25554819Y-45952380D02*
X25554819Y-45857142D01*
X25554819Y-45857142D02*
X25602438Y-45714285D01*
X25602438Y-45714285D02*
X25650057Y-45666666D01*
X26554819Y-44714285D02*
X26554819Y-45285713D01*
X26554819Y-44999999D02*
X25554819Y-44999999D01*
X25554819Y-44999999D02*
X25697676Y-45095237D01*
X25697676Y-45095237D02*
X25792914Y-45190475D01*
X25792914Y-45190475D02*
X25840533Y-45285713D01*
X74577380Y-54647319D02*
X74244047Y-54171128D01*
X74005952Y-54647319D02*
X74005952Y-53647319D01*
X74005952Y-53647319D02*
X74386904Y-53647319D01*
X74386904Y-53647319D02*
X74482142Y-53694938D01*
X74482142Y-53694938D02*
X74529761Y-53742557D01*
X74529761Y-53742557D02*
X74577380Y-53837795D01*
X74577380Y-53837795D02*
X74577380Y-53980652D01*
X74577380Y-53980652D02*
X74529761Y-54075890D01*
X74529761Y-54075890D02*
X74482142Y-54123509D01*
X74482142Y-54123509D02*
X74386904Y-54171128D01*
X74386904Y-54171128D02*
X74005952Y-54171128D01*
X74767857Y-54742557D02*
X75529761Y-54742557D01*
X76291666Y-54647319D02*
X75720238Y-54647319D01*
X76005952Y-54647319D02*
X76005952Y-53647319D01*
X76005952Y-53647319D02*
X75910714Y-53790176D01*
X75910714Y-53790176D02*
X75815476Y-53885414D01*
X75815476Y-53885414D02*
X75720238Y-53933033D01*
X51075476Y-99769819D02*
X51075476Y-100484104D01*
X51075476Y-100484104D02*
X51027857Y-100626961D01*
X51027857Y-100626961D02*
X50932619Y-100722200D01*
X50932619Y-100722200D02*
X50789762Y-100769819D01*
X50789762Y-100769819D02*
X50694524Y-100769819D01*
X52075476Y-100769819D02*
X51504048Y-100769819D01*
X51789762Y-100769819D02*
X51789762Y-99769819D01*
X51789762Y-99769819D02*
X51694524Y-99912676D01*
X51694524Y-99912676D02*
X51599286Y-100007914D01*
X51599286Y-100007914D02*
X51504048Y-100055533D01*
X52694524Y-99769819D02*
X52789762Y-99769819D01*
X52789762Y-99769819D02*
X52885000Y-99817438D01*
X52885000Y-99817438D02*
X52932619Y-99865057D01*
X52932619Y-99865057D02*
X52980238Y-99960295D01*
X52980238Y-99960295D02*
X53027857Y-100150771D01*
X53027857Y-100150771D02*
X53027857Y-100388866D01*
X53027857Y-100388866D02*
X52980238Y-100579342D01*
X52980238Y-100579342D02*
X52932619Y-100674580D01*
X52932619Y-100674580D02*
X52885000Y-100722200D01*
X52885000Y-100722200D02*
X52789762Y-100769819D01*
X52789762Y-100769819D02*
X52694524Y-100769819D01*
X52694524Y-100769819D02*
X52599286Y-100722200D01*
X52599286Y-100722200D02*
X52551667Y-100674580D01*
X52551667Y-100674580D02*
X52504048Y-100579342D01*
X52504048Y-100579342D02*
X52456429Y-100388866D01*
X52456429Y-100388866D02*
X52456429Y-100150771D01*
X52456429Y-100150771D02*
X52504048Y-99960295D01*
X52504048Y-99960295D02*
X52551667Y-99865057D01*
X52551667Y-99865057D02*
X52599286Y-99817438D01*
X52599286Y-99817438D02*
X52694524Y-99769819D01*
X27953819Y-77825357D02*
X27477628Y-78158690D01*
X27953819Y-78396785D02*
X26953819Y-78396785D01*
X26953819Y-78396785D02*
X26953819Y-78015833D01*
X26953819Y-78015833D02*
X27001438Y-77920595D01*
X27001438Y-77920595D02*
X27049057Y-77872976D01*
X27049057Y-77872976D02*
X27144295Y-77825357D01*
X27144295Y-77825357D02*
X27287152Y-77825357D01*
X27287152Y-77825357D02*
X27382390Y-77872976D01*
X27382390Y-77872976D02*
X27430009Y-77920595D01*
X27430009Y-77920595D02*
X27477628Y-78015833D01*
X27477628Y-78015833D02*
X27477628Y-78396785D01*
X27953819Y-76872976D02*
X27953819Y-77444404D01*
X27953819Y-77158690D02*
X26953819Y-77158690D01*
X26953819Y-77158690D02*
X27096676Y-77253928D01*
X27096676Y-77253928D02*
X27191914Y-77349166D01*
X27191914Y-77349166D02*
X27239533Y-77444404D01*
X27953819Y-75920595D02*
X27953819Y-76492023D01*
X27953819Y-76206309D02*
X26953819Y-76206309D01*
X26953819Y-76206309D02*
X27096676Y-76301547D01*
X27096676Y-76301547D02*
X27191914Y-76396785D01*
X27191914Y-76396785D02*
X27239533Y-76492023D01*
X77782737Y-54322080D02*
X77735118Y-54369700D01*
X77735118Y-54369700D02*
X77592261Y-54417319D01*
X77592261Y-54417319D02*
X77497023Y-54417319D01*
X77497023Y-54417319D02*
X77354166Y-54369700D01*
X77354166Y-54369700D02*
X77258928Y-54274461D01*
X77258928Y-54274461D02*
X77211309Y-54179223D01*
X77211309Y-54179223D02*
X77163690Y-53988747D01*
X77163690Y-53988747D02*
X77163690Y-53845890D01*
X77163690Y-53845890D02*
X77211309Y-53655414D01*
X77211309Y-53655414D02*
X77258928Y-53560176D01*
X77258928Y-53560176D02*
X77354166Y-53464938D01*
X77354166Y-53464938D02*
X77497023Y-53417319D01*
X77497023Y-53417319D02*
X77592261Y-53417319D01*
X77592261Y-53417319D02*
X77735118Y-53464938D01*
X77735118Y-53464938D02*
X77782737Y-53512557D01*
X78211309Y-54417319D02*
X78211309Y-53417319D01*
X78639880Y-54417319D02*
X78639880Y-53893509D01*
X78639880Y-53893509D02*
X78592261Y-53798271D01*
X78592261Y-53798271D02*
X78497023Y-53750652D01*
X78497023Y-53750652D02*
X78354166Y-53750652D01*
X78354166Y-53750652D02*
X78258928Y-53798271D01*
X78258928Y-53798271D02*
X78211309Y-53845890D01*
X78973214Y-53750652D02*
X79354166Y-53750652D01*
X79116071Y-54417319D02*
X79116071Y-53560176D01*
X79116071Y-53560176D02*
X79163690Y-53464938D01*
X79163690Y-53464938D02*
X79258928Y-53417319D01*
X79258928Y-53417319D02*
X79354166Y-53417319D01*
X80211309Y-54417319D02*
X79639881Y-54417319D01*
X79925595Y-54417319D02*
X79925595Y-53417319D01*
X79925595Y-53417319D02*
X79830357Y-53560176D01*
X79830357Y-53560176D02*
X79735119Y-53655414D01*
X79735119Y-53655414D02*
X79639881Y-53703033D01*
X56411667Y-65757200D02*
X56554524Y-65804819D01*
X56554524Y-65804819D02*
X56792619Y-65804819D01*
X56792619Y-65804819D02*
X56887857Y-65757200D01*
X56887857Y-65757200D02*
X56935476Y-65709580D01*
X56935476Y-65709580D02*
X56983095Y-65614342D01*
X56983095Y-65614342D02*
X56983095Y-65519104D01*
X56983095Y-65519104D02*
X56935476Y-65423866D01*
X56935476Y-65423866D02*
X56887857Y-65376247D01*
X56887857Y-65376247D02*
X56792619Y-65328628D01*
X56792619Y-65328628D02*
X56602143Y-65281009D01*
X56602143Y-65281009D02*
X56506905Y-65233390D01*
X56506905Y-65233390D02*
X56459286Y-65185771D01*
X56459286Y-65185771D02*
X56411667Y-65090533D01*
X56411667Y-65090533D02*
X56411667Y-64995295D01*
X56411667Y-64995295D02*
X56459286Y-64900057D01*
X56459286Y-64900057D02*
X56506905Y-64852438D01*
X56506905Y-64852438D02*
X56602143Y-64804819D01*
X56602143Y-64804819D02*
X56840238Y-64804819D01*
X56840238Y-64804819D02*
X56983095Y-64852438D01*
X57316429Y-64804819D02*
X57554524Y-65804819D01*
X57554524Y-65804819D02*
X57745000Y-65090533D01*
X57745000Y-65090533D02*
X57935476Y-65804819D01*
X57935476Y-65804819D02*
X58173572Y-64804819D01*
X58506905Y-64900057D02*
X58554524Y-64852438D01*
X58554524Y-64852438D02*
X58649762Y-64804819D01*
X58649762Y-64804819D02*
X58887857Y-64804819D01*
X58887857Y-64804819D02*
X58983095Y-64852438D01*
X58983095Y-64852438D02*
X59030714Y-64900057D01*
X59030714Y-64900057D02*
X59078333Y-64995295D01*
X59078333Y-64995295D02*
X59078333Y-65090533D01*
X59078333Y-65090533D02*
X59030714Y-65233390D01*
X59030714Y-65233390D02*
X58459286Y-65804819D01*
X58459286Y-65804819D02*
X59078333Y-65804819D01*
X73877380Y-57352080D02*
X73829761Y-57399700D01*
X73829761Y-57399700D02*
X73686904Y-57447319D01*
X73686904Y-57447319D02*
X73591666Y-57447319D01*
X73591666Y-57447319D02*
X73448809Y-57399700D01*
X73448809Y-57399700D02*
X73353571Y-57304461D01*
X73353571Y-57304461D02*
X73305952Y-57209223D01*
X73305952Y-57209223D02*
X73258333Y-57018747D01*
X73258333Y-57018747D02*
X73258333Y-56875890D01*
X73258333Y-56875890D02*
X73305952Y-56685414D01*
X73305952Y-56685414D02*
X73353571Y-56590176D01*
X73353571Y-56590176D02*
X73448809Y-56494938D01*
X73448809Y-56494938D02*
X73591666Y-56447319D01*
X73591666Y-56447319D02*
X73686904Y-56447319D01*
X73686904Y-56447319D02*
X73829761Y-56494938D01*
X73829761Y-56494938D02*
X73877380Y-56542557D01*
X74067857Y-57542557D02*
X74829761Y-57542557D01*
X75544047Y-56447319D02*
X75067857Y-56447319D01*
X75067857Y-56447319D02*
X75020238Y-56923509D01*
X75020238Y-56923509D02*
X75067857Y-56875890D01*
X75067857Y-56875890D02*
X75163095Y-56828271D01*
X75163095Y-56828271D02*
X75401190Y-56828271D01*
X75401190Y-56828271D02*
X75496428Y-56875890D01*
X75496428Y-56875890D02*
X75544047Y-56923509D01*
X75544047Y-56923509D02*
X75591666Y-57018747D01*
X75591666Y-57018747D02*
X75591666Y-57256842D01*
X75591666Y-57256842D02*
X75544047Y-57352080D01*
X75544047Y-57352080D02*
X75496428Y-57399700D01*
X75496428Y-57399700D02*
X75401190Y-57447319D01*
X75401190Y-57447319D02*
X75163095Y-57447319D01*
X75163095Y-57447319D02*
X75067857Y-57399700D01*
X75067857Y-57399700D02*
X75020238Y-57352080D01*
X76489880Y-67987319D02*
X76156547Y-67511128D01*
X75918452Y-67987319D02*
X75918452Y-66987319D01*
X75918452Y-66987319D02*
X76299404Y-66987319D01*
X76299404Y-66987319D02*
X76394642Y-67034938D01*
X76394642Y-67034938D02*
X76442261Y-67082557D01*
X76442261Y-67082557D02*
X76489880Y-67177795D01*
X76489880Y-67177795D02*
X76489880Y-67320652D01*
X76489880Y-67320652D02*
X76442261Y-67415890D01*
X76442261Y-67415890D02*
X76394642Y-67463509D01*
X76394642Y-67463509D02*
X76299404Y-67511128D01*
X76299404Y-67511128D02*
X75918452Y-67511128D01*
X76680357Y-68082557D02*
X77442261Y-68082557D01*
X77585119Y-66987319D02*
X78204166Y-66987319D01*
X78204166Y-66987319D02*
X77870833Y-67368271D01*
X77870833Y-67368271D02*
X78013690Y-67368271D01*
X78013690Y-67368271D02*
X78108928Y-67415890D01*
X78108928Y-67415890D02*
X78156547Y-67463509D01*
X78156547Y-67463509D02*
X78204166Y-67558747D01*
X78204166Y-67558747D02*
X78204166Y-67796842D01*
X78204166Y-67796842D02*
X78156547Y-67892080D01*
X78156547Y-67892080D02*
X78108928Y-67939700D01*
X78108928Y-67939700D02*
X78013690Y-67987319D01*
X78013690Y-67987319D02*
X77727976Y-67987319D01*
X77727976Y-67987319D02*
X77632738Y-67939700D01*
X77632738Y-67939700D02*
X77585119Y-67892080D01*
X21378333Y-94834580D02*
X21330714Y-94882200D01*
X21330714Y-94882200D02*
X21187857Y-94929819D01*
X21187857Y-94929819D02*
X21092619Y-94929819D01*
X21092619Y-94929819D02*
X20949762Y-94882200D01*
X20949762Y-94882200D02*
X20854524Y-94786961D01*
X20854524Y-94786961D02*
X20806905Y-94691723D01*
X20806905Y-94691723D02*
X20759286Y-94501247D01*
X20759286Y-94501247D02*
X20759286Y-94358390D01*
X20759286Y-94358390D02*
X20806905Y-94167914D01*
X20806905Y-94167914D02*
X20854524Y-94072676D01*
X20854524Y-94072676D02*
X20949762Y-93977438D01*
X20949762Y-93977438D02*
X21092619Y-93929819D01*
X21092619Y-93929819D02*
X21187857Y-93929819D01*
X21187857Y-93929819D02*
X21330714Y-93977438D01*
X21330714Y-93977438D02*
X21378333Y-94025057D01*
X21854524Y-94929819D02*
X22045000Y-94929819D01*
X22045000Y-94929819D02*
X22140238Y-94882200D01*
X22140238Y-94882200D02*
X22187857Y-94834580D01*
X22187857Y-94834580D02*
X22283095Y-94691723D01*
X22283095Y-94691723D02*
X22330714Y-94501247D01*
X22330714Y-94501247D02*
X22330714Y-94120295D01*
X22330714Y-94120295D02*
X22283095Y-94025057D01*
X22283095Y-94025057D02*
X22235476Y-93977438D01*
X22235476Y-93977438D02*
X22140238Y-93929819D01*
X22140238Y-93929819D02*
X21949762Y-93929819D01*
X21949762Y-93929819D02*
X21854524Y-93977438D01*
X21854524Y-93977438D02*
X21806905Y-94025057D01*
X21806905Y-94025057D02*
X21759286Y-94120295D01*
X21759286Y-94120295D02*
X21759286Y-94358390D01*
X21759286Y-94358390D02*
X21806905Y-94453628D01*
X21806905Y-94453628D02*
X21854524Y-94501247D01*
X21854524Y-94501247D02*
X21949762Y-94548866D01*
X21949762Y-94548866D02*
X22140238Y-94548866D01*
X22140238Y-94548866D02*
X22235476Y-94501247D01*
X22235476Y-94501247D02*
X22283095Y-94453628D01*
X22283095Y-94453628D02*
X22330714Y-94358390D01*
X85388319Y-105680357D02*
X84912128Y-106013690D01*
X85388319Y-106251785D02*
X84388319Y-106251785D01*
X84388319Y-106251785D02*
X84388319Y-105870833D01*
X84388319Y-105870833D02*
X84435938Y-105775595D01*
X84435938Y-105775595D02*
X84483557Y-105727976D01*
X84483557Y-105727976D02*
X84578795Y-105680357D01*
X84578795Y-105680357D02*
X84721652Y-105680357D01*
X84721652Y-105680357D02*
X84816890Y-105727976D01*
X84816890Y-105727976D02*
X84864509Y-105775595D01*
X84864509Y-105775595D02*
X84912128Y-105870833D01*
X84912128Y-105870833D02*
X84912128Y-106251785D01*
X85388319Y-104727976D02*
X85388319Y-105299404D01*
X85388319Y-105013690D02*
X84388319Y-105013690D01*
X84388319Y-105013690D02*
X84531176Y-105108928D01*
X84531176Y-105108928D02*
X84626414Y-105204166D01*
X84626414Y-105204166D02*
X84674033Y-105299404D01*
X84388319Y-104394642D02*
X84388319Y-103775595D01*
X84388319Y-103775595D02*
X84769271Y-104108928D01*
X84769271Y-104108928D02*
X84769271Y-103966071D01*
X84769271Y-103966071D02*
X84816890Y-103870833D01*
X84816890Y-103870833D02*
X84864509Y-103823214D01*
X84864509Y-103823214D02*
X84959747Y-103775595D01*
X84959747Y-103775595D02*
X85197842Y-103775595D01*
X85197842Y-103775595D02*
X85293080Y-103823214D01*
X85293080Y-103823214D02*
X85340700Y-103870833D01*
X85340700Y-103870833D02*
X85388319Y-103966071D01*
X85388319Y-103966071D02*
X85388319Y-104251785D01*
X85388319Y-104251785D02*
X85340700Y-104347023D01*
X85340700Y-104347023D02*
X85293080Y-104394642D01*
X22520180Y-65166666D02*
X21805895Y-65166666D01*
X21805895Y-65166666D02*
X21663038Y-65119047D01*
X21663038Y-65119047D02*
X21567800Y-65023809D01*
X21567800Y-65023809D02*
X21520180Y-64880952D01*
X21520180Y-64880952D02*
X21520180Y-64785714D01*
X21520180Y-66166666D02*
X21520180Y-65595238D01*
X21520180Y-65880952D02*
X22520180Y-65880952D01*
X22520180Y-65880952D02*
X22377323Y-65785714D01*
X22377323Y-65785714D02*
X22282085Y-65690476D01*
X22282085Y-65690476D02*
X22234466Y-65595238D01*
X54208333Y-55384819D02*
X53875000Y-54908628D01*
X53636905Y-55384819D02*
X53636905Y-54384819D01*
X53636905Y-54384819D02*
X54017857Y-54384819D01*
X54017857Y-54384819D02*
X54113095Y-54432438D01*
X54113095Y-54432438D02*
X54160714Y-54480057D01*
X54160714Y-54480057D02*
X54208333Y-54575295D01*
X54208333Y-54575295D02*
X54208333Y-54718152D01*
X54208333Y-54718152D02*
X54160714Y-54813390D01*
X54160714Y-54813390D02*
X54113095Y-54861009D01*
X54113095Y-54861009D02*
X54017857Y-54908628D01*
X54017857Y-54908628D02*
X53636905Y-54908628D01*
X54541667Y-54384819D02*
X55208333Y-54384819D01*
X55208333Y-54384819D02*
X54779762Y-55384819D01*
X78605357Y-51692080D02*
X78557738Y-51739700D01*
X78557738Y-51739700D02*
X78414881Y-51787319D01*
X78414881Y-51787319D02*
X78319643Y-51787319D01*
X78319643Y-51787319D02*
X78176786Y-51739700D01*
X78176786Y-51739700D02*
X78081548Y-51644461D01*
X78081548Y-51644461D02*
X78033929Y-51549223D01*
X78033929Y-51549223D02*
X77986310Y-51358747D01*
X77986310Y-51358747D02*
X77986310Y-51215890D01*
X77986310Y-51215890D02*
X78033929Y-51025414D01*
X78033929Y-51025414D02*
X78081548Y-50930176D01*
X78081548Y-50930176D02*
X78176786Y-50834938D01*
X78176786Y-50834938D02*
X78319643Y-50787319D01*
X78319643Y-50787319D02*
X78414881Y-50787319D01*
X78414881Y-50787319D02*
X78557738Y-50834938D01*
X78557738Y-50834938D02*
X78605357Y-50882557D01*
X79033929Y-51787319D02*
X79033929Y-51120652D01*
X79033929Y-50787319D02*
X78986310Y-50834938D01*
X78986310Y-50834938D02*
X79033929Y-50882557D01*
X79033929Y-50882557D02*
X79081548Y-50834938D01*
X79081548Y-50834938D02*
X79033929Y-50787319D01*
X79033929Y-50787319D02*
X79033929Y-50882557D01*
X79510119Y-51120652D02*
X79510119Y-51787319D01*
X79510119Y-51215890D02*
X79557738Y-51168271D01*
X79557738Y-51168271D02*
X79652976Y-51120652D01*
X79652976Y-51120652D02*
X79795833Y-51120652D01*
X79795833Y-51120652D02*
X79891071Y-51168271D01*
X79891071Y-51168271D02*
X79938690Y-51263509D01*
X79938690Y-51263509D02*
X79938690Y-51787319D01*
X80938690Y-51787319D02*
X80367262Y-51787319D01*
X80652976Y-51787319D02*
X80652976Y-50787319D01*
X80652976Y-50787319D02*
X80557738Y-50930176D01*
X80557738Y-50930176D02*
X80462500Y-51025414D01*
X80462500Y-51025414D02*
X80367262Y-51073033D01*
X74805951Y-95834580D02*
X74758332Y-95882200D01*
X74758332Y-95882200D02*
X74615475Y-95929819D01*
X74615475Y-95929819D02*
X74520237Y-95929819D01*
X74520237Y-95929819D02*
X74377380Y-95882200D01*
X74377380Y-95882200D02*
X74282142Y-95786961D01*
X74282142Y-95786961D02*
X74234523Y-95691723D01*
X74234523Y-95691723D02*
X74186904Y-95501247D01*
X74186904Y-95501247D02*
X74186904Y-95358390D01*
X74186904Y-95358390D02*
X74234523Y-95167914D01*
X74234523Y-95167914D02*
X74282142Y-95072676D01*
X74282142Y-95072676D02*
X74377380Y-94977438D01*
X74377380Y-94977438D02*
X74520237Y-94929819D01*
X74520237Y-94929819D02*
X74615475Y-94929819D01*
X74615475Y-94929819D02*
X74758332Y-94977438D01*
X74758332Y-94977438D02*
X74805951Y-95025057D01*
X75758332Y-95929819D02*
X75186904Y-95929819D01*
X75472618Y-95929819D02*
X75472618Y-94929819D01*
X75472618Y-94929819D02*
X75377380Y-95072676D01*
X75377380Y-95072676D02*
X75282142Y-95167914D01*
X75282142Y-95167914D02*
X75186904Y-95215533D01*
X76377380Y-94929819D02*
X76472618Y-94929819D01*
X76472618Y-94929819D02*
X76567856Y-94977438D01*
X76567856Y-94977438D02*
X76615475Y-95025057D01*
X76615475Y-95025057D02*
X76663094Y-95120295D01*
X76663094Y-95120295D02*
X76710713Y-95310771D01*
X76710713Y-95310771D02*
X76710713Y-95548866D01*
X76710713Y-95548866D02*
X76663094Y-95739342D01*
X76663094Y-95739342D02*
X76615475Y-95834580D01*
X76615475Y-95834580D02*
X76567856Y-95882200D01*
X76567856Y-95882200D02*
X76472618Y-95929819D01*
X76472618Y-95929819D02*
X76377380Y-95929819D01*
X76377380Y-95929819D02*
X76282142Y-95882200D01*
X76282142Y-95882200D02*
X76234523Y-95834580D01*
X76234523Y-95834580D02*
X76186904Y-95739342D01*
X76186904Y-95739342D02*
X76139285Y-95548866D01*
X76139285Y-95548866D02*
X76139285Y-95310771D01*
X76139285Y-95310771D02*
X76186904Y-95120295D01*
X76186904Y-95120295D02*
X76234523Y-95025057D01*
X76234523Y-95025057D02*
X76282142Y-94977438D01*
X76282142Y-94977438D02*
X76377380Y-94929819D01*
X76901190Y-96025057D02*
X77663094Y-96025057D01*
X78234523Y-95406009D02*
X78377380Y-95453628D01*
X78377380Y-95453628D02*
X78424999Y-95501247D01*
X78424999Y-95501247D02*
X78472618Y-95596485D01*
X78472618Y-95596485D02*
X78472618Y-95739342D01*
X78472618Y-95739342D02*
X78424999Y-95834580D01*
X78424999Y-95834580D02*
X78377380Y-95882200D01*
X78377380Y-95882200D02*
X78282142Y-95929819D01*
X78282142Y-95929819D02*
X77901190Y-95929819D01*
X77901190Y-95929819D02*
X77901190Y-94929819D01*
X77901190Y-94929819D02*
X78234523Y-94929819D01*
X78234523Y-94929819D02*
X78329761Y-94977438D01*
X78329761Y-94977438D02*
X78377380Y-95025057D01*
X78377380Y-95025057D02*
X78424999Y-95120295D01*
X78424999Y-95120295D02*
X78424999Y-95215533D01*
X78424999Y-95215533D02*
X78377380Y-95310771D01*
X78377380Y-95310771D02*
X78329761Y-95358390D01*
X78329761Y-95358390D02*
X78234523Y-95406009D01*
X78234523Y-95406009D02*
X77901190Y-95406009D01*
X79329761Y-95263152D02*
X79329761Y-95929819D01*
X78901190Y-95263152D02*
X78901190Y-95786961D01*
X78901190Y-95786961D02*
X78948809Y-95882200D01*
X78948809Y-95882200D02*
X79044047Y-95929819D01*
X79044047Y-95929819D02*
X79186904Y-95929819D01*
X79186904Y-95929819D02*
X79282142Y-95882200D01*
X79282142Y-95882200D02*
X79329761Y-95834580D01*
X79948809Y-95929819D02*
X79853571Y-95882200D01*
X79853571Y-95882200D02*
X79805952Y-95786961D01*
X79805952Y-95786961D02*
X79805952Y-94929819D01*
X80329762Y-95929819D02*
X80329762Y-94929819D01*
X80425000Y-95548866D02*
X80710714Y-95929819D01*
X80710714Y-95263152D02*
X80329762Y-95644104D01*
X81663095Y-95929819D02*
X81091667Y-95929819D01*
X81377381Y-95929819D02*
X81377381Y-94929819D01*
X81377381Y-94929819D02*
X81282143Y-95072676D01*
X81282143Y-95072676D02*
X81186905Y-95167914D01*
X81186905Y-95167914D02*
X81091667Y-95215533D01*
X31067080Y-104014048D02*
X31114700Y-104061667D01*
X31114700Y-104061667D02*
X31162319Y-104204524D01*
X31162319Y-104204524D02*
X31162319Y-104299762D01*
X31162319Y-104299762D02*
X31114700Y-104442619D01*
X31114700Y-104442619D02*
X31019461Y-104537857D01*
X31019461Y-104537857D02*
X30924223Y-104585476D01*
X30924223Y-104585476D02*
X30733747Y-104633095D01*
X30733747Y-104633095D02*
X30590890Y-104633095D01*
X30590890Y-104633095D02*
X30400414Y-104585476D01*
X30400414Y-104585476D02*
X30305176Y-104537857D01*
X30305176Y-104537857D02*
X30209938Y-104442619D01*
X30209938Y-104442619D02*
X30162319Y-104299762D01*
X30162319Y-104299762D02*
X30162319Y-104204524D01*
X30162319Y-104204524D02*
X30209938Y-104061667D01*
X30209938Y-104061667D02*
X30257557Y-104014048D01*
X31162319Y-103061667D02*
X31162319Y-103633095D01*
X31162319Y-103347381D02*
X30162319Y-103347381D01*
X30162319Y-103347381D02*
X30305176Y-103442619D01*
X30305176Y-103442619D02*
X30400414Y-103537857D01*
X30400414Y-103537857D02*
X30448033Y-103633095D01*
X30162319Y-102442619D02*
X30162319Y-102347381D01*
X30162319Y-102347381D02*
X30209938Y-102252143D01*
X30209938Y-102252143D02*
X30257557Y-102204524D01*
X30257557Y-102204524D02*
X30352795Y-102156905D01*
X30352795Y-102156905D02*
X30543271Y-102109286D01*
X30543271Y-102109286D02*
X30781366Y-102109286D01*
X30781366Y-102109286D02*
X30971842Y-102156905D01*
X30971842Y-102156905D02*
X31067080Y-102204524D01*
X31067080Y-102204524D02*
X31114700Y-102252143D01*
X31114700Y-102252143D02*
X31162319Y-102347381D01*
X31162319Y-102347381D02*
X31162319Y-102442619D01*
X31162319Y-102442619D02*
X31114700Y-102537857D01*
X31114700Y-102537857D02*
X31067080Y-102585476D01*
X31067080Y-102585476D02*
X30971842Y-102633095D01*
X30971842Y-102633095D02*
X30781366Y-102680714D01*
X30781366Y-102680714D02*
X30543271Y-102680714D01*
X30543271Y-102680714D02*
X30352795Y-102633095D01*
X30352795Y-102633095D02*
X30257557Y-102585476D01*
X30257557Y-102585476D02*
X30209938Y-102537857D01*
X30209938Y-102537857D02*
X30162319Y-102442619D01*
X31257557Y-101918810D02*
X31257557Y-101156905D01*
X30638509Y-100585476D02*
X30686128Y-100442619D01*
X30686128Y-100442619D02*
X30733747Y-100395000D01*
X30733747Y-100395000D02*
X30828985Y-100347381D01*
X30828985Y-100347381D02*
X30971842Y-100347381D01*
X30971842Y-100347381D02*
X31067080Y-100395000D01*
X31067080Y-100395000D02*
X31114700Y-100442619D01*
X31114700Y-100442619D02*
X31162319Y-100537857D01*
X31162319Y-100537857D02*
X31162319Y-100918809D01*
X31162319Y-100918809D02*
X30162319Y-100918809D01*
X30162319Y-100918809D02*
X30162319Y-100585476D01*
X30162319Y-100585476D02*
X30209938Y-100490238D01*
X30209938Y-100490238D02*
X30257557Y-100442619D01*
X30257557Y-100442619D02*
X30352795Y-100395000D01*
X30352795Y-100395000D02*
X30448033Y-100395000D01*
X30448033Y-100395000D02*
X30543271Y-100442619D01*
X30543271Y-100442619D02*
X30590890Y-100490238D01*
X30590890Y-100490238D02*
X30638509Y-100585476D01*
X30638509Y-100585476D02*
X30638509Y-100918809D01*
X30495652Y-99490238D02*
X31162319Y-99490238D01*
X30495652Y-99918809D02*
X31019461Y-99918809D01*
X31019461Y-99918809D02*
X31114700Y-99871190D01*
X31114700Y-99871190D02*
X31162319Y-99775952D01*
X31162319Y-99775952D02*
X31162319Y-99633095D01*
X31162319Y-99633095D02*
X31114700Y-99537857D01*
X31114700Y-99537857D02*
X31067080Y-99490238D01*
X31162319Y-98871190D02*
X31114700Y-98966428D01*
X31114700Y-98966428D02*
X31019461Y-99014047D01*
X31019461Y-99014047D02*
X30162319Y-99014047D01*
X31162319Y-98490237D02*
X30162319Y-98490237D01*
X30781366Y-98394999D02*
X31162319Y-98109285D01*
X30495652Y-98109285D02*
X30876604Y-98490237D01*
X30257557Y-97728332D02*
X30209938Y-97680713D01*
X30209938Y-97680713D02*
X30162319Y-97585475D01*
X30162319Y-97585475D02*
X30162319Y-97347380D01*
X30162319Y-97347380D02*
X30209938Y-97252142D01*
X30209938Y-97252142D02*
X30257557Y-97204523D01*
X30257557Y-97204523D02*
X30352795Y-97156904D01*
X30352795Y-97156904D02*
X30448033Y-97156904D01*
X30448033Y-97156904D02*
X30590890Y-97204523D01*
X30590890Y-97204523D02*
X31162319Y-97775951D01*
X31162319Y-97775951D02*
X31162319Y-97156904D01*
X85508142Y-91404580D02*
X85460523Y-91452200D01*
X85460523Y-91452200D02*
X85317666Y-91499819D01*
X85317666Y-91499819D02*
X85222428Y-91499819D01*
X85222428Y-91499819D02*
X85079571Y-91452200D01*
X85079571Y-91452200D02*
X84984333Y-91356961D01*
X84984333Y-91356961D02*
X84936714Y-91261723D01*
X84936714Y-91261723D02*
X84889095Y-91071247D01*
X84889095Y-91071247D02*
X84889095Y-90928390D01*
X84889095Y-90928390D02*
X84936714Y-90737914D01*
X84936714Y-90737914D02*
X84984333Y-90642676D01*
X84984333Y-90642676D02*
X85079571Y-90547438D01*
X85079571Y-90547438D02*
X85222428Y-90499819D01*
X85222428Y-90499819D02*
X85317666Y-90499819D01*
X85317666Y-90499819D02*
X85460523Y-90547438D01*
X85460523Y-90547438D02*
X85508142Y-90595057D01*
X86460523Y-91499819D02*
X85889095Y-91499819D01*
X86174809Y-91499819D02*
X86174809Y-90499819D01*
X86174809Y-90499819D02*
X86079571Y-90642676D01*
X86079571Y-90642676D02*
X85984333Y-90737914D01*
X85984333Y-90737914D02*
X85889095Y-90785533D01*
X87079571Y-90499819D02*
X87174809Y-90499819D01*
X87174809Y-90499819D02*
X87270047Y-90547438D01*
X87270047Y-90547438D02*
X87317666Y-90595057D01*
X87317666Y-90595057D02*
X87365285Y-90690295D01*
X87365285Y-90690295D02*
X87412904Y-90880771D01*
X87412904Y-90880771D02*
X87412904Y-91118866D01*
X87412904Y-91118866D02*
X87365285Y-91309342D01*
X87365285Y-91309342D02*
X87317666Y-91404580D01*
X87317666Y-91404580D02*
X87270047Y-91452200D01*
X87270047Y-91452200D02*
X87174809Y-91499819D01*
X87174809Y-91499819D02*
X87079571Y-91499819D01*
X87079571Y-91499819D02*
X86984333Y-91452200D01*
X86984333Y-91452200D02*
X86936714Y-91404580D01*
X86936714Y-91404580D02*
X86889095Y-91309342D01*
X86889095Y-91309342D02*
X86841476Y-91118866D01*
X86841476Y-91118866D02*
X86841476Y-90880771D01*
X86841476Y-90880771D02*
X86889095Y-90690295D01*
X86889095Y-90690295D02*
X86936714Y-90595057D01*
X86936714Y-90595057D02*
X86984333Y-90547438D01*
X86984333Y-90547438D02*
X87079571Y-90499819D01*
X91229819Y-69350594D02*
X90229819Y-69350594D01*
X90229819Y-69350594D02*
X90229819Y-69112499D01*
X90229819Y-69112499D02*
X90277438Y-68969642D01*
X90277438Y-68969642D02*
X90372676Y-68874404D01*
X90372676Y-68874404D02*
X90467914Y-68826785D01*
X90467914Y-68826785D02*
X90658390Y-68779166D01*
X90658390Y-68779166D02*
X90801247Y-68779166D01*
X90801247Y-68779166D02*
X90991723Y-68826785D01*
X90991723Y-68826785D02*
X91086961Y-68874404D01*
X91086961Y-68874404D02*
X91182200Y-68969642D01*
X91182200Y-68969642D02*
X91229819Y-69112499D01*
X91229819Y-69112499D02*
X91229819Y-69350594D01*
X90229819Y-68445832D02*
X90229819Y-67826785D01*
X90229819Y-67826785D02*
X90610771Y-68160118D01*
X90610771Y-68160118D02*
X90610771Y-68017261D01*
X90610771Y-68017261D02*
X90658390Y-67922023D01*
X90658390Y-67922023D02*
X90706009Y-67874404D01*
X90706009Y-67874404D02*
X90801247Y-67826785D01*
X90801247Y-67826785D02*
X91039342Y-67826785D01*
X91039342Y-67826785D02*
X91134580Y-67874404D01*
X91134580Y-67874404D02*
X91182200Y-67922023D01*
X91182200Y-67922023D02*
X91229819Y-68017261D01*
X91229819Y-68017261D02*
X91229819Y-68302975D01*
X91229819Y-68302975D02*
X91182200Y-68398213D01*
X91182200Y-68398213D02*
X91134580Y-68445832D01*
X35929819Y-93524404D02*
X36739342Y-93524404D01*
X36739342Y-93524404D02*
X36834580Y-93476785D01*
X36834580Y-93476785D02*
X36882200Y-93429166D01*
X36882200Y-93429166D02*
X36929819Y-93333928D01*
X36929819Y-93333928D02*
X36929819Y-93143452D01*
X36929819Y-93143452D02*
X36882200Y-93048214D01*
X36882200Y-93048214D02*
X36834580Y-93000595D01*
X36834580Y-93000595D02*
X36739342Y-92952976D01*
X36739342Y-92952976D02*
X35929819Y-92952976D01*
X36929819Y-92429166D02*
X36929819Y-92238690D01*
X36929819Y-92238690D02*
X36882200Y-92143452D01*
X36882200Y-92143452D02*
X36834580Y-92095833D01*
X36834580Y-92095833D02*
X36691723Y-92000595D01*
X36691723Y-92000595D02*
X36501247Y-91952976D01*
X36501247Y-91952976D02*
X36120295Y-91952976D01*
X36120295Y-91952976D02*
X36025057Y-92000595D01*
X36025057Y-92000595D02*
X35977438Y-92048214D01*
X35977438Y-92048214D02*
X35929819Y-92143452D01*
X35929819Y-92143452D02*
X35929819Y-92333928D01*
X35929819Y-92333928D02*
X35977438Y-92429166D01*
X35977438Y-92429166D02*
X36025057Y-92476785D01*
X36025057Y-92476785D02*
X36120295Y-92524404D01*
X36120295Y-92524404D02*
X36358390Y-92524404D01*
X36358390Y-92524404D02*
X36453628Y-92476785D01*
X36453628Y-92476785D02*
X36501247Y-92429166D01*
X36501247Y-92429166D02*
X36548866Y-92333928D01*
X36548866Y-92333928D02*
X36548866Y-92143452D01*
X36548866Y-92143452D02*
X36501247Y-92048214D01*
X36501247Y-92048214D02*
X36453628Y-92000595D01*
X36453628Y-92000595D02*
X36358390Y-91952976D01*
X87490476Y-50629819D02*
X87490476Y-51344104D01*
X87490476Y-51344104D02*
X87442857Y-51486961D01*
X87442857Y-51486961D02*
X87347619Y-51582200D01*
X87347619Y-51582200D02*
X87204762Y-51629819D01*
X87204762Y-51629819D02*
X87109524Y-51629819D01*
X88490476Y-51629819D02*
X87919048Y-51629819D01*
X88204762Y-51629819D02*
X88204762Y-50629819D01*
X88204762Y-50629819D02*
X88109524Y-50772676D01*
X88109524Y-50772676D02*
X88014286Y-50867914D01*
X88014286Y-50867914D02*
X87919048Y-50915533D01*
X88966667Y-51629819D02*
X89157143Y-51629819D01*
X89157143Y-51629819D02*
X89252381Y-51582200D01*
X89252381Y-51582200D02*
X89300000Y-51534580D01*
X89300000Y-51534580D02*
X89395238Y-51391723D01*
X89395238Y-51391723D02*
X89442857Y-51201247D01*
X89442857Y-51201247D02*
X89442857Y-50820295D01*
X89442857Y-50820295D02*
X89395238Y-50725057D01*
X89395238Y-50725057D02*
X89347619Y-50677438D01*
X89347619Y-50677438D02*
X89252381Y-50629819D01*
X89252381Y-50629819D02*
X89061905Y-50629819D01*
X89061905Y-50629819D02*
X88966667Y-50677438D01*
X88966667Y-50677438D02*
X88919048Y-50725057D01*
X88919048Y-50725057D02*
X88871429Y-50820295D01*
X88871429Y-50820295D02*
X88871429Y-51058390D01*
X88871429Y-51058390D02*
X88919048Y-51153628D01*
X88919048Y-51153628D02*
X88966667Y-51201247D01*
X88966667Y-51201247D02*
X89061905Y-51248866D01*
X89061905Y-51248866D02*
X89252381Y-51248866D01*
X89252381Y-51248866D02*
X89347619Y-51201247D01*
X89347619Y-51201247D02*
X89395238Y-51153628D01*
X89395238Y-51153628D02*
X89442857Y-51058390D01*
X76309580Y-78529166D02*
X76357200Y-78576785D01*
X76357200Y-78576785D02*
X76404819Y-78719642D01*
X76404819Y-78719642D02*
X76404819Y-78814880D01*
X76404819Y-78814880D02*
X76357200Y-78957737D01*
X76357200Y-78957737D02*
X76261961Y-79052975D01*
X76261961Y-79052975D02*
X76166723Y-79100594D01*
X76166723Y-79100594D02*
X75976247Y-79148213D01*
X75976247Y-79148213D02*
X75833390Y-79148213D01*
X75833390Y-79148213D02*
X75642914Y-79100594D01*
X75642914Y-79100594D02*
X75547676Y-79052975D01*
X75547676Y-79052975D02*
X75452438Y-78957737D01*
X75452438Y-78957737D02*
X75404819Y-78814880D01*
X75404819Y-78814880D02*
X75404819Y-78719642D01*
X75404819Y-78719642D02*
X75452438Y-78576785D01*
X75452438Y-78576785D02*
X75500057Y-78529166D01*
X75404819Y-77672023D02*
X75404819Y-77862499D01*
X75404819Y-77862499D02*
X75452438Y-77957737D01*
X75452438Y-77957737D02*
X75500057Y-78005356D01*
X75500057Y-78005356D02*
X75642914Y-78100594D01*
X75642914Y-78100594D02*
X75833390Y-78148213D01*
X75833390Y-78148213D02*
X76214342Y-78148213D01*
X76214342Y-78148213D02*
X76309580Y-78100594D01*
X76309580Y-78100594D02*
X76357200Y-78052975D01*
X76357200Y-78052975D02*
X76404819Y-77957737D01*
X76404819Y-77957737D02*
X76404819Y-77767261D01*
X76404819Y-77767261D02*
X76357200Y-77672023D01*
X76357200Y-77672023D02*
X76309580Y-77624404D01*
X76309580Y-77624404D02*
X76214342Y-77576785D01*
X76214342Y-77576785D02*
X75976247Y-77576785D01*
X75976247Y-77576785D02*
X75881009Y-77624404D01*
X75881009Y-77624404D02*
X75833390Y-77672023D01*
X75833390Y-77672023D02*
X75785771Y-77767261D01*
X75785771Y-77767261D02*
X75785771Y-77957737D01*
X75785771Y-77957737D02*
X75833390Y-78052975D01*
X75833390Y-78052975D02*
X75881009Y-78100594D01*
X75881009Y-78100594D02*
X75976247Y-78148213D01*
X46961666Y-99769819D02*
X46961666Y-100484104D01*
X46961666Y-100484104D02*
X46914047Y-100626961D01*
X46914047Y-100626961D02*
X46818809Y-100722200D01*
X46818809Y-100722200D02*
X46675952Y-100769819D01*
X46675952Y-100769819D02*
X46580714Y-100769819D01*
X47485476Y-100769819D02*
X47675952Y-100769819D01*
X47675952Y-100769819D02*
X47771190Y-100722200D01*
X47771190Y-100722200D02*
X47818809Y-100674580D01*
X47818809Y-100674580D02*
X47914047Y-100531723D01*
X47914047Y-100531723D02*
X47961666Y-100341247D01*
X47961666Y-100341247D02*
X47961666Y-99960295D01*
X47961666Y-99960295D02*
X47914047Y-99865057D01*
X47914047Y-99865057D02*
X47866428Y-99817438D01*
X47866428Y-99817438D02*
X47771190Y-99769819D01*
X47771190Y-99769819D02*
X47580714Y-99769819D01*
X47580714Y-99769819D02*
X47485476Y-99817438D01*
X47485476Y-99817438D02*
X47437857Y-99865057D01*
X47437857Y-99865057D02*
X47390238Y-99960295D01*
X47390238Y-99960295D02*
X47390238Y-100198390D01*
X47390238Y-100198390D02*
X47437857Y-100293628D01*
X47437857Y-100293628D02*
X47485476Y-100341247D01*
X47485476Y-100341247D02*
X47580714Y-100388866D01*
X47580714Y-100388866D02*
X47771190Y-100388866D01*
X47771190Y-100388866D02*
X47866428Y-100341247D01*
X47866428Y-100341247D02*
X47914047Y-100293628D01*
X47914047Y-100293628D02*
X47961666Y-100198390D01*
X29654819Y-45666666D02*
X29178628Y-45999999D01*
X29654819Y-46238094D02*
X28654819Y-46238094D01*
X28654819Y-46238094D02*
X28654819Y-45857142D01*
X28654819Y-45857142D02*
X28702438Y-45761904D01*
X28702438Y-45761904D02*
X28750057Y-45714285D01*
X28750057Y-45714285D02*
X28845295Y-45666666D01*
X28845295Y-45666666D02*
X28988152Y-45666666D01*
X28988152Y-45666666D02*
X29083390Y-45714285D01*
X29083390Y-45714285D02*
X29131009Y-45761904D01*
X29131009Y-45761904D02*
X29178628Y-45857142D01*
X29178628Y-45857142D02*
X29178628Y-46238094D01*
X29654819Y-44714285D02*
X29654819Y-45285713D01*
X29654819Y-44999999D02*
X28654819Y-44999999D01*
X28654819Y-44999999D02*
X28797676Y-45095237D01*
X28797676Y-45095237D02*
X28892914Y-45190475D01*
X28892914Y-45190475D02*
X28940533Y-45285713D01*
X19722142Y-60064819D02*
X19388809Y-59588628D01*
X19150714Y-60064819D02*
X19150714Y-59064819D01*
X19150714Y-59064819D02*
X19531666Y-59064819D01*
X19531666Y-59064819D02*
X19626904Y-59112438D01*
X19626904Y-59112438D02*
X19674523Y-59160057D01*
X19674523Y-59160057D02*
X19722142Y-59255295D01*
X19722142Y-59255295D02*
X19722142Y-59398152D01*
X19722142Y-59398152D02*
X19674523Y-59493390D01*
X19674523Y-59493390D02*
X19626904Y-59541009D01*
X19626904Y-59541009D02*
X19531666Y-59588628D01*
X19531666Y-59588628D02*
X19150714Y-59588628D01*
X20674523Y-60064819D02*
X20103095Y-60064819D01*
X20388809Y-60064819D02*
X20388809Y-59064819D01*
X20388809Y-59064819D02*
X20293571Y-59207676D01*
X20293571Y-59207676D02*
X20198333Y-59302914D01*
X20198333Y-59302914D02*
X20103095Y-59350533D01*
X21579285Y-59064819D02*
X21103095Y-59064819D01*
X21103095Y-59064819D02*
X21055476Y-59541009D01*
X21055476Y-59541009D02*
X21103095Y-59493390D01*
X21103095Y-59493390D02*
X21198333Y-59445771D01*
X21198333Y-59445771D02*
X21436428Y-59445771D01*
X21436428Y-59445771D02*
X21531666Y-59493390D01*
X21531666Y-59493390D02*
X21579285Y-59541009D01*
X21579285Y-59541009D02*
X21626904Y-59636247D01*
X21626904Y-59636247D02*
X21626904Y-59874342D01*
X21626904Y-59874342D02*
X21579285Y-59969580D01*
X21579285Y-59969580D02*
X21531666Y-60017200D01*
X21531666Y-60017200D02*
X21436428Y-60064819D01*
X21436428Y-60064819D02*
X21198333Y-60064819D01*
X21198333Y-60064819D02*
X21103095Y-60017200D01*
X21103095Y-60017200D02*
X21055476Y-59969580D01*
X54465833Y-58089580D02*
X54418214Y-58137200D01*
X54418214Y-58137200D02*
X54275357Y-58184819D01*
X54275357Y-58184819D02*
X54180119Y-58184819D01*
X54180119Y-58184819D02*
X54037262Y-58137200D01*
X54037262Y-58137200D02*
X53942024Y-58041961D01*
X53942024Y-58041961D02*
X53894405Y-57946723D01*
X53894405Y-57946723D02*
X53846786Y-57756247D01*
X53846786Y-57756247D02*
X53846786Y-57613390D01*
X53846786Y-57613390D02*
X53894405Y-57422914D01*
X53894405Y-57422914D02*
X53942024Y-57327676D01*
X53942024Y-57327676D02*
X54037262Y-57232438D01*
X54037262Y-57232438D02*
X54180119Y-57184819D01*
X54180119Y-57184819D02*
X54275357Y-57184819D01*
X54275357Y-57184819D02*
X54418214Y-57232438D01*
X54418214Y-57232438D02*
X54465833Y-57280057D01*
X55322976Y-57518152D02*
X55322976Y-58184819D01*
X55084881Y-57137200D02*
X54846786Y-57851485D01*
X54846786Y-57851485D02*
X55465833Y-57851485D01*
X26061905Y-75569819D02*
X26061905Y-74569819D01*
X26061905Y-74569819D02*
X26300000Y-74569819D01*
X26300000Y-74569819D02*
X26442857Y-74617438D01*
X26442857Y-74617438D02*
X26538095Y-74712676D01*
X26538095Y-74712676D02*
X26585714Y-74807914D01*
X26585714Y-74807914D02*
X26633333Y-74998390D01*
X26633333Y-74998390D02*
X26633333Y-75141247D01*
X26633333Y-75141247D02*
X26585714Y-75331723D01*
X26585714Y-75331723D02*
X26538095Y-75426961D01*
X26538095Y-75426961D02*
X26442857Y-75522200D01*
X26442857Y-75522200D02*
X26300000Y-75569819D01*
X26300000Y-75569819D02*
X26061905Y-75569819D01*
X27490476Y-74903152D02*
X27490476Y-75569819D01*
X27252381Y-74522200D02*
X27014286Y-75236485D01*
X27014286Y-75236485D02*
X27633333Y-75236485D01*
X23279642Y-60164819D02*
X22946309Y-59688628D01*
X22708214Y-60164819D02*
X22708214Y-59164819D01*
X22708214Y-59164819D02*
X23089166Y-59164819D01*
X23089166Y-59164819D02*
X23184404Y-59212438D01*
X23184404Y-59212438D02*
X23232023Y-59260057D01*
X23232023Y-59260057D02*
X23279642Y-59355295D01*
X23279642Y-59355295D02*
X23279642Y-59498152D01*
X23279642Y-59498152D02*
X23232023Y-59593390D01*
X23232023Y-59593390D02*
X23184404Y-59641009D01*
X23184404Y-59641009D02*
X23089166Y-59688628D01*
X23089166Y-59688628D02*
X22708214Y-59688628D01*
X24232023Y-60164819D02*
X23660595Y-60164819D01*
X23946309Y-60164819D02*
X23946309Y-59164819D01*
X23946309Y-59164819D02*
X23851071Y-59307676D01*
X23851071Y-59307676D02*
X23755833Y-59402914D01*
X23755833Y-59402914D02*
X23660595Y-59450533D01*
X25089166Y-59164819D02*
X24898690Y-59164819D01*
X24898690Y-59164819D02*
X24803452Y-59212438D01*
X24803452Y-59212438D02*
X24755833Y-59260057D01*
X24755833Y-59260057D02*
X24660595Y-59402914D01*
X24660595Y-59402914D02*
X24612976Y-59593390D01*
X24612976Y-59593390D02*
X24612976Y-59974342D01*
X24612976Y-59974342D02*
X24660595Y-60069580D01*
X24660595Y-60069580D02*
X24708214Y-60117200D01*
X24708214Y-60117200D02*
X24803452Y-60164819D01*
X24803452Y-60164819D02*
X24993928Y-60164819D01*
X24993928Y-60164819D02*
X25089166Y-60117200D01*
X25089166Y-60117200D02*
X25136785Y-60069580D01*
X25136785Y-60069580D02*
X25184404Y-59974342D01*
X25184404Y-59974342D02*
X25184404Y-59736247D01*
X25184404Y-59736247D02*
X25136785Y-59641009D01*
X25136785Y-59641009D02*
X25089166Y-59593390D01*
X25089166Y-59593390D02*
X24993928Y-59545771D01*
X24993928Y-59545771D02*
X24803452Y-59545771D01*
X24803452Y-59545771D02*
X24708214Y-59593390D01*
X24708214Y-59593390D02*
X24660595Y-59641009D01*
X24660595Y-59641009D02*
X24612976Y-59736247D01*
X76477380Y-70387319D02*
X76144047Y-69911128D01*
X75905952Y-70387319D02*
X75905952Y-69387319D01*
X75905952Y-69387319D02*
X76286904Y-69387319D01*
X76286904Y-69387319D02*
X76382142Y-69434938D01*
X76382142Y-69434938D02*
X76429761Y-69482557D01*
X76429761Y-69482557D02*
X76477380Y-69577795D01*
X76477380Y-69577795D02*
X76477380Y-69720652D01*
X76477380Y-69720652D02*
X76429761Y-69815890D01*
X76429761Y-69815890D02*
X76382142Y-69863509D01*
X76382142Y-69863509D02*
X76286904Y-69911128D01*
X76286904Y-69911128D02*
X75905952Y-69911128D01*
X76667857Y-70482557D02*
X77429761Y-70482557D01*
X78096428Y-69387319D02*
X77905952Y-69387319D01*
X77905952Y-69387319D02*
X77810714Y-69434938D01*
X77810714Y-69434938D02*
X77763095Y-69482557D01*
X77763095Y-69482557D02*
X77667857Y-69625414D01*
X77667857Y-69625414D02*
X77620238Y-69815890D01*
X77620238Y-69815890D02*
X77620238Y-70196842D01*
X77620238Y-70196842D02*
X77667857Y-70292080D01*
X77667857Y-70292080D02*
X77715476Y-70339700D01*
X77715476Y-70339700D02*
X77810714Y-70387319D01*
X77810714Y-70387319D02*
X78001190Y-70387319D01*
X78001190Y-70387319D02*
X78096428Y-70339700D01*
X78096428Y-70339700D02*
X78144047Y-70292080D01*
X78144047Y-70292080D02*
X78191666Y-70196842D01*
X78191666Y-70196842D02*
X78191666Y-69958747D01*
X78191666Y-69958747D02*
X78144047Y-69863509D01*
X78144047Y-69863509D02*
X78096428Y-69815890D01*
X78096428Y-69815890D02*
X78001190Y-69768271D01*
X78001190Y-69768271D02*
X77810714Y-69768271D01*
X77810714Y-69768271D02*
X77715476Y-69815890D01*
X77715476Y-69815890D02*
X77667857Y-69863509D01*
X77667857Y-69863509D02*
X77620238Y-69958747D01*
X32774642Y-65639580D02*
X32727023Y-65687200D01*
X32727023Y-65687200D02*
X32584166Y-65734819D01*
X32584166Y-65734819D02*
X32488928Y-65734819D01*
X32488928Y-65734819D02*
X32346071Y-65687200D01*
X32346071Y-65687200D02*
X32250833Y-65591961D01*
X32250833Y-65591961D02*
X32203214Y-65496723D01*
X32203214Y-65496723D02*
X32155595Y-65306247D01*
X32155595Y-65306247D02*
X32155595Y-65163390D01*
X32155595Y-65163390D02*
X32203214Y-64972914D01*
X32203214Y-64972914D02*
X32250833Y-64877676D01*
X32250833Y-64877676D02*
X32346071Y-64782438D01*
X32346071Y-64782438D02*
X32488928Y-64734819D01*
X32488928Y-64734819D02*
X32584166Y-64734819D01*
X32584166Y-64734819D02*
X32727023Y-64782438D01*
X32727023Y-64782438D02*
X32774642Y-64830057D01*
X33727023Y-65734819D02*
X33155595Y-65734819D01*
X33441309Y-65734819D02*
X33441309Y-64734819D01*
X33441309Y-64734819D02*
X33346071Y-64877676D01*
X33346071Y-64877676D02*
X33250833Y-64972914D01*
X33250833Y-64972914D02*
X33155595Y-65020533D01*
X34060357Y-64734819D02*
X34679404Y-64734819D01*
X34679404Y-64734819D02*
X34346071Y-65115771D01*
X34346071Y-65115771D02*
X34488928Y-65115771D01*
X34488928Y-65115771D02*
X34584166Y-65163390D01*
X34584166Y-65163390D02*
X34631785Y-65211009D01*
X34631785Y-65211009D02*
X34679404Y-65306247D01*
X34679404Y-65306247D02*
X34679404Y-65544342D01*
X34679404Y-65544342D02*
X34631785Y-65639580D01*
X34631785Y-65639580D02*
X34584166Y-65687200D01*
X34584166Y-65687200D02*
X34488928Y-65734819D01*
X34488928Y-65734819D02*
X34203214Y-65734819D01*
X34203214Y-65734819D02*
X34107976Y-65687200D01*
X34107976Y-65687200D02*
X34060357Y-65639580D01*
X93004580Y-61569643D02*
X93052200Y-61617262D01*
X93052200Y-61617262D02*
X93099819Y-61760119D01*
X93099819Y-61760119D02*
X93099819Y-61855357D01*
X93099819Y-61855357D02*
X93052200Y-61998214D01*
X93052200Y-61998214D02*
X92956961Y-62093452D01*
X92956961Y-62093452D02*
X92861723Y-62141071D01*
X92861723Y-62141071D02*
X92671247Y-62188690D01*
X92671247Y-62188690D02*
X92528390Y-62188690D01*
X92528390Y-62188690D02*
X92337914Y-62141071D01*
X92337914Y-62141071D02*
X92242676Y-62093452D01*
X92242676Y-62093452D02*
X92147438Y-61998214D01*
X92147438Y-61998214D02*
X92099819Y-61855357D01*
X92099819Y-61855357D02*
X92099819Y-61760119D01*
X92099819Y-61760119D02*
X92147438Y-61617262D01*
X92147438Y-61617262D02*
X92195057Y-61569643D01*
X93099819Y-60998214D02*
X93052200Y-61093452D01*
X93052200Y-61093452D02*
X93004580Y-61141071D01*
X93004580Y-61141071D02*
X92909342Y-61188690D01*
X92909342Y-61188690D02*
X92623628Y-61188690D01*
X92623628Y-61188690D02*
X92528390Y-61141071D01*
X92528390Y-61141071D02*
X92480771Y-61093452D01*
X92480771Y-61093452D02*
X92433152Y-60998214D01*
X92433152Y-60998214D02*
X92433152Y-60855357D01*
X92433152Y-60855357D02*
X92480771Y-60760119D01*
X92480771Y-60760119D02*
X92528390Y-60712500D01*
X92528390Y-60712500D02*
X92623628Y-60664881D01*
X92623628Y-60664881D02*
X92909342Y-60664881D01*
X92909342Y-60664881D02*
X93004580Y-60712500D01*
X93004580Y-60712500D02*
X93052200Y-60760119D01*
X93052200Y-60760119D02*
X93099819Y-60855357D01*
X93099819Y-60855357D02*
X93099819Y-60998214D01*
X92433152Y-59807738D02*
X93099819Y-59807738D01*
X92433152Y-60236309D02*
X92956961Y-60236309D01*
X92956961Y-60236309D02*
X93052200Y-60188690D01*
X93052200Y-60188690D02*
X93099819Y-60093452D01*
X93099819Y-60093452D02*
X93099819Y-59950595D01*
X93099819Y-59950595D02*
X93052200Y-59855357D01*
X93052200Y-59855357D02*
X93004580Y-59807738D01*
X92433152Y-59474404D02*
X92433152Y-59093452D01*
X92099819Y-59331547D02*
X92956961Y-59331547D01*
X92956961Y-59331547D02*
X93052200Y-59283928D01*
X93052200Y-59283928D02*
X93099819Y-59188690D01*
X93099819Y-59188690D02*
X93099819Y-59093452D01*
X92195057Y-58807737D02*
X92147438Y-58760118D01*
X92147438Y-58760118D02*
X92099819Y-58664880D01*
X92099819Y-58664880D02*
X92099819Y-58426785D01*
X92099819Y-58426785D02*
X92147438Y-58331547D01*
X92147438Y-58331547D02*
X92195057Y-58283928D01*
X92195057Y-58283928D02*
X92290295Y-58236309D01*
X92290295Y-58236309D02*
X92385533Y-58236309D01*
X92385533Y-58236309D02*
X92528390Y-58283928D01*
X92528390Y-58283928D02*
X93099819Y-58855356D01*
X93099819Y-58855356D02*
X93099819Y-58236309D01*
X71014880Y-56992319D02*
X70681547Y-56516128D01*
X70443452Y-56992319D02*
X70443452Y-55992319D01*
X70443452Y-55992319D02*
X70824404Y-55992319D01*
X70824404Y-55992319D02*
X70919642Y-56039938D01*
X70919642Y-56039938D02*
X70967261Y-56087557D01*
X70967261Y-56087557D02*
X71014880Y-56182795D01*
X71014880Y-56182795D02*
X71014880Y-56325652D01*
X71014880Y-56325652D02*
X70967261Y-56420890D01*
X70967261Y-56420890D02*
X70919642Y-56468509D01*
X70919642Y-56468509D02*
X70824404Y-56516128D01*
X70824404Y-56516128D02*
X70443452Y-56516128D01*
X71205357Y-57087557D02*
X71967261Y-57087557D01*
X72157738Y-56087557D02*
X72205357Y-56039938D01*
X72205357Y-56039938D02*
X72300595Y-55992319D01*
X72300595Y-55992319D02*
X72538690Y-55992319D01*
X72538690Y-55992319D02*
X72633928Y-56039938D01*
X72633928Y-56039938D02*
X72681547Y-56087557D01*
X72681547Y-56087557D02*
X72729166Y-56182795D01*
X72729166Y-56182795D02*
X72729166Y-56278033D01*
X72729166Y-56278033D02*
X72681547Y-56420890D01*
X72681547Y-56420890D02*
X72110119Y-56992319D01*
X72110119Y-56992319D02*
X72729166Y-56992319D01*
X87084580Y-90167857D02*
X87132200Y-90215476D01*
X87132200Y-90215476D02*
X87179819Y-90358333D01*
X87179819Y-90358333D02*
X87179819Y-90453571D01*
X87179819Y-90453571D02*
X87132200Y-90596428D01*
X87132200Y-90596428D02*
X87036961Y-90691666D01*
X87036961Y-90691666D02*
X86941723Y-90739285D01*
X86941723Y-90739285D02*
X86751247Y-90786904D01*
X86751247Y-90786904D02*
X86608390Y-90786904D01*
X86608390Y-90786904D02*
X86417914Y-90739285D01*
X86417914Y-90739285D02*
X86322676Y-90691666D01*
X86322676Y-90691666D02*
X86227438Y-90596428D01*
X86227438Y-90596428D02*
X86179819Y-90453571D01*
X86179819Y-90453571D02*
X86179819Y-90358333D01*
X86179819Y-90358333D02*
X86227438Y-90215476D01*
X86227438Y-90215476D02*
X86275057Y-90167857D01*
X87179819Y-89215476D02*
X87179819Y-89786904D01*
X87179819Y-89501190D02*
X86179819Y-89501190D01*
X86179819Y-89501190D02*
X86322676Y-89596428D01*
X86322676Y-89596428D02*
X86417914Y-89691666D01*
X86417914Y-89691666D02*
X86465533Y-89786904D01*
X87179819Y-88263095D02*
X87179819Y-88834523D01*
X87179819Y-88548809D02*
X86179819Y-88548809D01*
X86179819Y-88548809D02*
X86322676Y-88644047D01*
X86322676Y-88644047D02*
X86417914Y-88739285D01*
X86417914Y-88739285D02*
X86465533Y-88834523D01*
X23618333Y-69874819D02*
X23285000Y-69398628D01*
X23046905Y-69874819D02*
X23046905Y-68874819D01*
X23046905Y-68874819D02*
X23427857Y-68874819D01*
X23427857Y-68874819D02*
X23523095Y-68922438D01*
X23523095Y-68922438D02*
X23570714Y-68970057D01*
X23570714Y-68970057D02*
X23618333Y-69065295D01*
X23618333Y-69065295D02*
X23618333Y-69208152D01*
X23618333Y-69208152D02*
X23570714Y-69303390D01*
X23570714Y-69303390D02*
X23523095Y-69351009D01*
X23523095Y-69351009D02*
X23427857Y-69398628D01*
X23427857Y-69398628D02*
X23046905Y-69398628D01*
X24523095Y-68874819D02*
X24046905Y-68874819D01*
X24046905Y-68874819D02*
X23999286Y-69351009D01*
X23999286Y-69351009D02*
X24046905Y-69303390D01*
X24046905Y-69303390D02*
X24142143Y-69255771D01*
X24142143Y-69255771D02*
X24380238Y-69255771D01*
X24380238Y-69255771D02*
X24475476Y-69303390D01*
X24475476Y-69303390D02*
X24523095Y-69351009D01*
X24523095Y-69351009D02*
X24570714Y-69446247D01*
X24570714Y-69446247D02*
X24570714Y-69684342D01*
X24570714Y-69684342D02*
X24523095Y-69779580D01*
X24523095Y-69779580D02*
X24475476Y-69827200D01*
X24475476Y-69827200D02*
X24380238Y-69874819D01*
X24380238Y-69874819D02*
X24142143Y-69874819D01*
X24142143Y-69874819D02*
X24046905Y-69827200D01*
X24046905Y-69827200D02*
X23999286Y-69779580D01*
X26067080Y-92861666D02*
X26114700Y-92909285D01*
X26114700Y-92909285D02*
X26162319Y-93052142D01*
X26162319Y-93052142D02*
X26162319Y-93147380D01*
X26162319Y-93147380D02*
X26114700Y-93290237D01*
X26114700Y-93290237D02*
X26019461Y-93385475D01*
X26019461Y-93385475D02*
X25924223Y-93433094D01*
X25924223Y-93433094D02*
X25733747Y-93480713D01*
X25733747Y-93480713D02*
X25590890Y-93480713D01*
X25590890Y-93480713D02*
X25400414Y-93433094D01*
X25400414Y-93433094D02*
X25305176Y-93385475D01*
X25305176Y-93385475D02*
X25209938Y-93290237D01*
X25209938Y-93290237D02*
X25162319Y-93147380D01*
X25162319Y-93147380D02*
X25162319Y-93052142D01*
X25162319Y-93052142D02*
X25209938Y-92909285D01*
X25209938Y-92909285D02*
X25257557Y-92861666D01*
X25162319Y-92528332D02*
X25162319Y-91861666D01*
X25162319Y-91861666D02*
X26162319Y-92290237D01*
X83038095Y-82217319D02*
X83038095Y-83026842D01*
X83038095Y-83026842D02*
X83085714Y-83122080D01*
X83085714Y-83122080D02*
X83133333Y-83169700D01*
X83133333Y-83169700D02*
X83228571Y-83217319D01*
X83228571Y-83217319D02*
X83419047Y-83217319D01*
X83419047Y-83217319D02*
X83514285Y-83169700D01*
X83514285Y-83169700D02*
X83561904Y-83122080D01*
X83561904Y-83122080D02*
X83609523Y-83026842D01*
X83609523Y-83026842D02*
X83609523Y-82217319D01*
X83990476Y-82217319D02*
X84609523Y-82217319D01*
X84609523Y-82217319D02*
X84276190Y-82598271D01*
X84276190Y-82598271D02*
X84419047Y-82598271D01*
X84419047Y-82598271D02*
X84514285Y-82645890D01*
X84514285Y-82645890D02*
X84561904Y-82693509D01*
X84561904Y-82693509D02*
X84609523Y-82788747D01*
X84609523Y-82788747D02*
X84609523Y-83026842D01*
X84609523Y-83026842D02*
X84561904Y-83122080D01*
X84561904Y-83122080D02*
X84514285Y-83169700D01*
X84514285Y-83169700D02*
X84419047Y-83217319D01*
X84419047Y-83217319D02*
X84133333Y-83217319D01*
X84133333Y-83217319D02*
X84038095Y-83169700D01*
X84038095Y-83169700D02*
X83990476Y-83122080D01*
X53034819Y-103604523D02*
X53749104Y-103604523D01*
X53749104Y-103604523D02*
X53891961Y-103652142D01*
X53891961Y-103652142D02*
X53987200Y-103747380D01*
X53987200Y-103747380D02*
X54034819Y-103890237D01*
X54034819Y-103890237D02*
X54034819Y-103985475D01*
X54034819Y-102604523D02*
X54034819Y-103175951D01*
X54034819Y-102890237D02*
X53034819Y-102890237D01*
X53034819Y-102890237D02*
X53177676Y-102985475D01*
X53177676Y-102985475D02*
X53272914Y-103080713D01*
X53272914Y-103080713D02*
X53320533Y-103175951D01*
X53034819Y-101699761D02*
X53034819Y-102175951D01*
X53034819Y-102175951D02*
X53511009Y-102223570D01*
X53511009Y-102223570D02*
X53463390Y-102175951D01*
X53463390Y-102175951D02*
X53415771Y-102080713D01*
X53415771Y-102080713D02*
X53415771Y-101842618D01*
X53415771Y-101842618D02*
X53463390Y-101747380D01*
X53463390Y-101747380D02*
X53511009Y-101699761D01*
X53511009Y-101699761D02*
X53606247Y-101652142D01*
X53606247Y-101652142D02*
X53844342Y-101652142D01*
X53844342Y-101652142D02*
X53939580Y-101699761D01*
X53939580Y-101699761D02*
X53987200Y-101747380D01*
X53987200Y-101747380D02*
X54034819Y-101842618D01*
X54034819Y-101842618D02*
X54034819Y-102080713D01*
X54034819Y-102080713D02*
X53987200Y-102175951D01*
X53987200Y-102175951D02*
X53939580Y-102223570D01*
X17481667Y-40937200D02*
X17624524Y-40984819D01*
X17624524Y-40984819D02*
X17862619Y-40984819D01*
X17862619Y-40984819D02*
X17957857Y-40937200D01*
X17957857Y-40937200D02*
X18005476Y-40889580D01*
X18005476Y-40889580D02*
X18053095Y-40794342D01*
X18053095Y-40794342D02*
X18053095Y-40699104D01*
X18053095Y-40699104D02*
X18005476Y-40603866D01*
X18005476Y-40603866D02*
X17957857Y-40556247D01*
X17957857Y-40556247D02*
X17862619Y-40508628D01*
X17862619Y-40508628D02*
X17672143Y-40461009D01*
X17672143Y-40461009D02*
X17576905Y-40413390D01*
X17576905Y-40413390D02*
X17529286Y-40365771D01*
X17529286Y-40365771D02*
X17481667Y-40270533D01*
X17481667Y-40270533D02*
X17481667Y-40175295D01*
X17481667Y-40175295D02*
X17529286Y-40080057D01*
X17529286Y-40080057D02*
X17576905Y-40032438D01*
X17576905Y-40032438D02*
X17672143Y-39984819D01*
X17672143Y-39984819D02*
X17910238Y-39984819D01*
X17910238Y-39984819D02*
X18053095Y-40032438D01*
X18386429Y-39984819D02*
X18624524Y-40984819D01*
X18624524Y-40984819D02*
X18815000Y-40270533D01*
X18815000Y-40270533D02*
X19005476Y-40984819D01*
X19005476Y-40984819D02*
X19243572Y-39984819D01*
X20148333Y-40984819D02*
X19576905Y-40984819D01*
X19862619Y-40984819D02*
X19862619Y-39984819D01*
X19862619Y-39984819D02*
X19767381Y-40127676D01*
X19767381Y-40127676D02*
X19672143Y-40222914D01*
X19672143Y-40222914D02*
X19576905Y-40270533D01*
X42371666Y-99769819D02*
X42371666Y-100484104D01*
X42371666Y-100484104D02*
X42324047Y-100626961D01*
X42324047Y-100626961D02*
X42228809Y-100722200D01*
X42228809Y-100722200D02*
X42085952Y-100769819D01*
X42085952Y-100769819D02*
X41990714Y-100769819D01*
X42990714Y-100198390D02*
X42895476Y-100150771D01*
X42895476Y-100150771D02*
X42847857Y-100103152D01*
X42847857Y-100103152D02*
X42800238Y-100007914D01*
X42800238Y-100007914D02*
X42800238Y-99960295D01*
X42800238Y-99960295D02*
X42847857Y-99865057D01*
X42847857Y-99865057D02*
X42895476Y-99817438D01*
X42895476Y-99817438D02*
X42990714Y-99769819D01*
X42990714Y-99769819D02*
X43181190Y-99769819D01*
X43181190Y-99769819D02*
X43276428Y-99817438D01*
X43276428Y-99817438D02*
X43324047Y-99865057D01*
X43324047Y-99865057D02*
X43371666Y-99960295D01*
X43371666Y-99960295D02*
X43371666Y-100007914D01*
X43371666Y-100007914D02*
X43324047Y-100103152D01*
X43324047Y-100103152D02*
X43276428Y-100150771D01*
X43276428Y-100150771D02*
X43181190Y-100198390D01*
X43181190Y-100198390D02*
X42990714Y-100198390D01*
X42990714Y-100198390D02*
X42895476Y-100246009D01*
X42895476Y-100246009D02*
X42847857Y-100293628D01*
X42847857Y-100293628D02*
X42800238Y-100388866D01*
X42800238Y-100388866D02*
X42800238Y-100579342D01*
X42800238Y-100579342D02*
X42847857Y-100674580D01*
X42847857Y-100674580D02*
X42895476Y-100722200D01*
X42895476Y-100722200D02*
X42990714Y-100769819D01*
X42990714Y-100769819D02*
X43181190Y-100769819D01*
X43181190Y-100769819D02*
X43276428Y-100722200D01*
X43276428Y-100722200D02*
X43324047Y-100674580D01*
X43324047Y-100674580D02*
X43371666Y-100579342D01*
X43371666Y-100579342D02*
X43371666Y-100388866D01*
X43371666Y-100388866D02*
X43324047Y-100293628D01*
X43324047Y-100293628D02*
X43276428Y-100246009D01*
X43276428Y-100246009D02*
X43181190Y-100198390D01*
X21140833Y-75919819D02*
X20807500Y-75443628D01*
X20569405Y-75919819D02*
X20569405Y-74919819D01*
X20569405Y-74919819D02*
X20950357Y-74919819D01*
X20950357Y-74919819D02*
X21045595Y-74967438D01*
X21045595Y-74967438D02*
X21093214Y-75015057D01*
X21093214Y-75015057D02*
X21140833Y-75110295D01*
X21140833Y-75110295D02*
X21140833Y-75253152D01*
X21140833Y-75253152D02*
X21093214Y-75348390D01*
X21093214Y-75348390D02*
X21045595Y-75396009D01*
X21045595Y-75396009D02*
X20950357Y-75443628D01*
X20950357Y-75443628D02*
X20569405Y-75443628D01*
X21617024Y-75919819D02*
X21807500Y-75919819D01*
X21807500Y-75919819D02*
X21902738Y-75872200D01*
X21902738Y-75872200D02*
X21950357Y-75824580D01*
X21950357Y-75824580D02*
X22045595Y-75681723D01*
X22045595Y-75681723D02*
X22093214Y-75491247D01*
X22093214Y-75491247D02*
X22093214Y-75110295D01*
X22093214Y-75110295D02*
X22045595Y-75015057D01*
X22045595Y-75015057D02*
X21997976Y-74967438D01*
X21997976Y-74967438D02*
X21902738Y-74919819D01*
X21902738Y-74919819D02*
X21712262Y-74919819D01*
X21712262Y-74919819D02*
X21617024Y-74967438D01*
X21617024Y-74967438D02*
X21569405Y-75015057D01*
X21569405Y-75015057D02*
X21521786Y-75110295D01*
X21521786Y-75110295D02*
X21521786Y-75348390D01*
X21521786Y-75348390D02*
X21569405Y-75443628D01*
X21569405Y-75443628D02*
X21617024Y-75491247D01*
X21617024Y-75491247D02*
X21712262Y-75538866D01*
X21712262Y-75538866D02*
X21902738Y-75538866D01*
X21902738Y-75538866D02*
X21997976Y-75491247D01*
X21997976Y-75491247D02*
X22045595Y-75443628D01*
X22045595Y-75443628D02*
X22093214Y-75348390D01*
X60354819Y-91199404D02*
X61164342Y-91199404D01*
X61164342Y-91199404D02*
X61259580Y-91151785D01*
X61259580Y-91151785D02*
X61307200Y-91104166D01*
X61307200Y-91104166D02*
X61354819Y-91008928D01*
X61354819Y-91008928D02*
X61354819Y-90818452D01*
X61354819Y-90818452D02*
X61307200Y-90723214D01*
X61307200Y-90723214D02*
X61259580Y-90675595D01*
X61259580Y-90675595D02*
X61164342Y-90627976D01*
X61164342Y-90627976D02*
X60354819Y-90627976D01*
X60688152Y-89723214D02*
X61354819Y-89723214D01*
X60307200Y-89961309D02*
X61021485Y-90199404D01*
X61021485Y-90199404D02*
X61021485Y-89580357D01*
X28141295Y-83254523D02*
X28788914Y-83254523D01*
X28788914Y-83254523D02*
X28865104Y-83216428D01*
X28865104Y-83216428D02*
X28903200Y-83178333D01*
X28903200Y-83178333D02*
X28941295Y-83102142D01*
X28941295Y-83102142D02*
X28941295Y-82949761D01*
X28941295Y-82949761D02*
X28903200Y-82873571D01*
X28903200Y-82873571D02*
X28865104Y-82835476D01*
X28865104Y-82835476D02*
X28788914Y-82797380D01*
X28788914Y-82797380D02*
X28141295Y-82797380D01*
X28141295Y-82035476D02*
X28141295Y-82416428D01*
X28141295Y-82416428D02*
X28522247Y-82454524D01*
X28522247Y-82454524D02*
X28484152Y-82416428D01*
X28484152Y-82416428D02*
X28446057Y-82340238D01*
X28446057Y-82340238D02*
X28446057Y-82149762D01*
X28446057Y-82149762D02*
X28484152Y-82073571D01*
X28484152Y-82073571D02*
X28522247Y-82035476D01*
X28522247Y-82035476D02*
X28598438Y-81997381D01*
X28598438Y-81997381D02*
X28788914Y-81997381D01*
X28788914Y-81997381D02*
X28865104Y-82035476D01*
X28865104Y-82035476D02*
X28903200Y-82073571D01*
X28903200Y-82073571D02*
X28941295Y-82149762D01*
X28941295Y-82149762D02*
X28941295Y-82340238D01*
X28941295Y-82340238D02*
X28903200Y-82416428D01*
X28903200Y-82416428D02*
X28865104Y-82454524D01*
X33191666Y-99769819D02*
X33191666Y-100484104D01*
X33191666Y-100484104D02*
X33144047Y-100626961D01*
X33144047Y-100626961D02*
X33048809Y-100722200D01*
X33048809Y-100722200D02*
X32905952Y-100769819D01*
X32905952Y-100769819D02*
X32810714Y-100769819D01*
X34096428Y-99769819D02*
X33905952Y-99769819D01*
X33905952Y-99769819D02*
X33810714Y-99817438D01*
X33810714Y-99817438D02*
X33763095Y-99865057D01*
X33763095Y-99865057D02*
X33667857Y-100007914D01*
X33667857Y-100007914D02*
X33620238Y-100198390D01*
X33620238Y-100198390D02*
X33620238Y-100579342D01*
X33620238Y-100579342D02*
X33667857Y-100674580D01*
X33667857Y-100674580D02*
X33715476Y-100722200D01*
X33715476Y-100722200D02*
X33810714Y-100769819D01*
X33810714Y-100769819D02*
X34001190Y-100769819D01*
X34001190Y-100769819D02*
X34096428Y-100722200D01*
X34096428Y-100722200D02*
X34144047Y-100674580D01*
X34144047Y-100674580D02*
X34191666Y-100579342D01*
X34191666Y-100579342D02*
X34191666Y-100341247D01*
X34191666Y-100341247D02*
X34144047Y-100246009D01*
X34144047Y-100246009D02*
X34096428Y-100198390D01*
X34096428Y-100198390D02*
X34001190Y-100150771D01*
X34001190Y-100150771D02*
X33810714Y-100150771D01*
X33810714Y-100150771D02*
X33715476Y-100198390D01*
X33715476Y-100198390D02*
X33667857Y-100246009D01*
X33667857Y-100246009D02*
X33620238Y-100341247D01*
X92009580Y-78479166D02*
X92057200Y-78526785D01*
X92057200Y-78526785D02*
X92104819Y-78669642D01*
X92104819Y-78669642D02*
X92104819Y-78764880D01*
X92104819Y-78764880D02*
X92057200Y-78907737D01*
X92057200Y-78907737D02*
X91961961Y-79002975D01*
X91961961Y-79002975D02*
X91866723Y-79050594D01*
X91866723Y-79050594D02*
X91676247Y-79098213D01*
X91676247Y-79098213D02*
X91533390Y-79098213D01*
X91533390Y-79098213D02*
X91342914Y-79050594D01*
X91342914Y-79050594D02*
X91247676Y-79002975D01*
X91247676Y-79002975D02*
X91152438Y-78907737D01*
X91152438Y-78907737D02*
X91104819Y-78764880D01*
X91104819Y-78764880D02*
X91104819Y-78669642D01*
X91104819Y-78669642D02*
X91152438Y-78526785D01*
X91152438Y-78526785D02*
X91200057Y-78479166D01*
X91104819Y-77574404D02*
X91104819Y-78050594D01*
X91104819Y-78050594D02*
X91581009Y-78098213D01*
X91581009Y-78098213D02*
X91533390Y-78050594D01*
X91533390Y-78050594D02*
X91485771Y-77955356D01*
X91485771Y-77955356D02*
X91485771Y-77717261D01*
X91485771Y-77717261D02*
X91533390Y-77622023D01*
X91533390Y-77622023D02*
X91581009Y-77574404D01*
X91581009Y-77574404D02*
X91676247Y-77526785D01*
X91676247Y-77526785D02*
X91914342Y-77526785D01*
X91914342Y-77526785D02*
X92009580Y-77574404D01*
X92009580Y-77574404D02*
X92057200Y-77622023D01*
X92057200Y-77622023D02*
X92104819Y-77717261D01*
X92104819Y-77717261D02*
X92104819Y-77955356D01*
X92104819Y-77955356D02*
X92057200Y-78050594D01*
X92057200Y-78050594D02*
X92009580Y-78098213D01*
X17264819Y-53393333D02*
X17979104Y-53393333D01*
X17979104Y-53393333D02*
X18121961Y-53440952D01*
X18121961Y-53440952D02*
X18217200Y-53536190D01*
X18217200Y-53536190D02*
X18264819Y-53679047D01*
X18264819Y-53679047D02*
X18264819Y-53774285D01*
X17360057Y-52964761D02*
X17312438Y-52917142D01*
X17312438Y-52917142D02*
X17264819Y-52821904D01*
X17264819Y-52821904D02*
X17264819Y-52583809D01*
X17264819Y-52583809D02*
X17312438Y-52488571D01*
X17312438Y-52488571D02*
X17360057Y-52440952D01*
X17360057Y-52440952D02*
X17455295Y-52393333D01*
X17455295Y-52393333D02*
X17550533Y-52393333D01*
X17550533Y-52393333D02*
X17693390Y-52440952D01*
X17693390Y-52440952D02*
X18264819Y-53012380D01*
X18264819Y-53012380D02*
X18264819Y-52393333D01*
D12*
X42205544Y-65362178D02*
X42205544Y-66235938D01*
X41789468Y-65362178D02*
X41789468Y-66235938D01*
X41789468Y-66235938D02*
X41290177Y-65362178D01*
X41290177Y-65362178D02*
X41290177Y-66235938D01*
X40998923Y-66235938D02*
X40499632Y-66235938D01*
X40749278Y-65362178D02*
X40749278Y-66235938D01*
X42132126Y-86527393D02*
X42173734Y-86485786D01*
X42173734Y-86485786D02*
X42298556Y-86444178D01*
X42298556Y-86444178D02*
X42381772Y-86444178D01*
X42381772Y-86444178D02*
X42506595Y-86485786D01*
X42506595Y-86485786D02*
X42589810Y-86569001D01*
X42589810Y-86569001D02*
X42631417Y-86652216D01*
X42631417Y-86652216D02*
X42673025Y-86818646D01*
X42673025Y-86818646D02*
X42673025Y-86943469D01*
X42673025Y-86943469D02*
X42631417Y-87109900D01*
X42631417Y-87109900D02*
X42589810Y-87193115D01*
X42589810Y-87193115D02*
X42506595Y-87276330D01*
X42506595Y-87276330D02*
X42381772Y-87317938D01*
X42381772Y-87317938D02*
X42298556Y-87317938D01*
X42298556Y-87317938D02*
X42173734Y-87276330D01*
X42173734Y-87276330D02*
X42132126Y-87234723D01*
X41799265Y-86485786D02*
X41674442Y-86444178D01*
X41674442Y-86444178D02*
X41466404Y-86444178D01*
X41466404Y-86444178D02*
X41383189Y-86485786D01*
X41383189Y-86485786D02*
X41341581Y-86527393D01*
X41341581Y-86527393D02*
X41299974Y-86610608D01*
X41299974Y-86610608D02*
X41299974Y-86693824D01*
X41299974Y-86693824D02*
X41341581Y-86777039D01*
X41341581Y-86777039D02*
X41383189Y-86818646D01*
X41383189Y-86818646D02*
X41466404Y-86860254D01*
X41466404Y-86860254D02*
X41632835Y-86901862D01*
X41632835Y-86901862D02*
X41716050Y-86943469D01*
X41716050Y-86943469D02*
X41757657Y-86985077D01*
X41757657Y-86985077D02*
X41799265Y-87068292D01*
X41799265Y-87068292D02*
X41799265Y-87151507D01*
X41799265Y-87151507D02*
X41757657Y-87234723D01*
X41757657Y-87234723D02*
X41716050Y-87276330D01*
X41716050Y-87276330D02*
X41632835Y-87317938D01*
X41632835Y-87317938D02*
X41424796Y-87317938D01*
X41424796Y-87317938D02*
X41299974Y-87276330D01*
X44963379Y-86444178D02*
X44963379Y-87317938D01*
X44963379Y-87317938D02*
X44755341Y-87317938D01*
X44755341Y-87317938D02*
X44630518Y-87276330D01*
X44630518Y-87276330D02*
X44547303Y-87193115D01*
X44547303Y-87193115D02*
X44505696Y-87109900D01*
X44505696Y-87109900D02*
X44464088Y-86943469D01*
X44464088Y-86943469D02*
X44464088Y-86818646D01*
X44464088Y-86818646D02*
X44505696Y-86652216D01*
X44505696Y-86652216D02*
X44547303Y-86569001D01*
X44547303Y-86569001D02*
X44630518Y-86485786D01*
X44630518Y-86485786D02*
X44755341Y-86444178D01*
X44755341Y-86444178D02*
X44963379Y-86444178D01*
X44089619Y-86444178D02*
X44089619Y-87317938D01*
X45650993Y-65403786D02*
X45526170Y-65362178D01*
X45526170Y-65362178D02*
X45318132Y-65362178D01*
X45318132Y-65362178D02*
X45234917Y-65403786D01*
X45234917Y-65403786D02*
X45193309Y-65445393D01*
X45193309Y-65445393D02*
X45151702Y-65528608D01*
X45151702Y-65528608D02*
X45151702Y-65611824D01*
X45151702Y-65611824D02*
X45193309Y-65695039D01*
X45193309Y-65695039D02*
X45234917Y-65736646D01*
X45234917Y-65736646D02*
X45318132Y-65778254D01*
X45318132Y-65778254D02*
X45484563Y-65819862D01*
X45484563Y-65819862D02*
X45567778Y-65861469D01*
X45567778Y-65861469D02*
X45609385Y-65903077D01*
X45609385Y-65903077D02*
X45650993Y-65986292D01*
X45650993Y-65986292D02*
X45650993Y-66069507D01*
X45650993Y-66069507D02*
X45609385Y-66152723D01*
X45609385Y-66152723D02*
X45567778Y-66194330D01*
X45567778Y-66194330D02*
X45484563Y-66235938D01*
X45484563Y-66235938D02*
X45276524Y-66235938D01*
X45276524Y-66235938D02*
X45151702Y-66194330D01*
X44777233Y-65362178D02*
X44777233Y-66235938D01*
X44777233Y-66235938D02*
X44569195Y-66235938D01*
X44569195Y-66235938D02*
X44444372Y-66194330D01*
X44444372Y-66194330D02*
X44361157Y-66111115D01*
X44361157Y-66111115D02*
X44319550Y-66027900D01*
X44319550Y-66027900D02*
X44277942Y-65861469D01*
X44277942Y-65861469D02*
X44277942Y-65736646D01*
X44277942Y-65736646D02*
X44319550Y-65570216D01*
X44319550Y-65570216D02*
X44361157Y-65487001D01*
X44361157Y-65487001D02*
X44444372Y-65403786D01*
X44444372Y-65403786D02*
X44569195Y-65362178D01*
X44569195Y-65362178D02*
X44777233Y-65362178D01*
X43945081Y-65611824D02*
X43529005Y-65611824D01*
X44028296Y-65362178D02*
X43737043Y-66235938D01*
X43737043Y-66235938D02*
X43445790Y-65362178D01*
X48043190Y-68642286D02*
X47918367Y-68600678D01*
X47918367Y-68600678D02*
X47710329Y-68600678D01*
X47710329Y-68600678D02*
X47627114Y-68642286D01*
X47627114Y-68642286D02*
X47585506Y-68683893D01*
X47585506Y-68683893D02*
X47543899Y-68767108D01*
X47543899Y-68767108D02*
X47543899Y-68850324D01*
X47543899Y-68850324D02*
X47585506Y-68933539D01*
X47585506Y-68933539D02*
X47627114Y-68975146D01*
X47627114Y-68975146D02*
X47710329Y-69016754D01*
X47710329Y-69016754D02*
X47876760Y-69058362D01*
X47876760Y-69058362D02*
X47959975Y-69099969D01*
X47959975Y-69099969D02*
X48001582Y-69141577D01*
X48001582Y-69141577D02*
X48043190Y-69224792D01*
X48043190Y-69224792D02*
X48043190Y-69308007D01*
X48043190Y-69308007D02*
X48001582Y-69391223D01*
X48001582Y-69391223D02*
X47959975Y-69432830D01*
X47959975Y-69432830D02*
X47876760Y-69474438D01*
X47876760Y-69474438D02*
X47668721Y-69474438D01*
X47668721Y-69474438D02*
X47543899Y-69432830D01*
X46670139Y-68683893D02*
X46711747Y-68642286D01*
X46711747Y-68642286D02*
X46836569Y-68600678D01*
X46836569Y-68600678D02*
X46919785Y-68600678D01*
X46919785Y-68600678D02*
X47044608Y-68642286D01*
X47044608Y-68642286D02*
X47127823Y-68725501D01*
X47127823Y-68725501D02*
X47169430Y-68808716D01*
X47169430Y-68808716D02*
X47211038Y-68975146D01*
X47211038Y-68975146D02*
X47211038Y-69099969D01*
X47211038Y-69099969D02*
X47169430Y-69266400D01*
X47169430Y-69266400D02*
X47127823Y-69349615D01*
X47127823Y-69349615D02*
X47044608Y-69432830D01*
X47044608Y-69432830D02*
X46919785Y-69474438D01*
X46919785Y-69474438D02*
X46836569Y-69474438D01*
X46836569Y-69474438D02*
X46711747Y-69432830D01*
X46711747Y-69432830D02*
X46670139Y-69391223D01*
X45879594Y-68600678D02*
X46295670Y-68600678D01*
X46295670Y-68600678D02*
X46295670Y-69474438D01*
X47481487Y-86444178D02*
X47772740Y-86860254D01*
X47980778Y-86444178D02*
X47980778Y-87317938D01*
X47980778Y-87317938D02*
X47647917Y-87317938D01*
X47647917Y-87317938D02*
X47564702Y-87276330D01*
X47564702Y-87276330D02*
X47523095Y-87234723D01*
X47523095Y-87234723D02*
X47481487Y-87151507D01*
X47481487Y-87151507D02*
X47481487Y-87026685D01*
X47481487Y-87026685D02*
X47523095Y-86943469D01*
X47523095Y-86943469D02*
X47564702Y-86901862D01*
X47564702Y-86901862D02*
X47647917Y-86860254D01*
X47647917Y-86860254D02*
X47980778Y-86860254D01*
X47148626Y-86485786D02*
X47023803Y-86444178D01*
X47023803Y-86444178D02*
X46815765Y-86444178D01*
X46815765Y-86444178D02*
X46732550Y-86485786D01*
X46732550Y-86485786D02*
X46690942Y-86527393D01*
X46690942Y-86527393D02*
X46649335Y-86610608D01*
X46649335Y-86610608D02*
X46649335Y-86693824D01*
X46649335Y-86693824D02*
X46690942Y-86777039D01*
X46690942Y-86777039D02*
X46732550Y-86818646D01*
X46732550Y-86818646D02*
X46815765Y-86860254D01*
X46815765Y-86860254D02*
X46982196Y-86901862D01*
X46982196Y-86901862D02*
X47065411Y-86943469D01*
X47065411Y-86943469D02*
X47107018Y-86985077D01*
X47107018Y-86985077D02*
X47148626Y-87068292D01*
X47148626Y-87068292D02*
X47148626Y-87151507D01*
X47148626Y-87151507D02*
X47107018Y-87234723D01*
X47107018Y-87234723D02*
X47065411Y-87276330D01*
X47065411Y-87276330D02*
X46982196Y-87317938D01*
X46982196Y-87317938D02*
X46774157Y-87317938D01*
X46774157Y-87317938D02*
X46649335Y-87276330D01*
X46399689Y-87317938D02*
X45900398Y-87317938D01*
X46150044Y-86444178D02*
X46150044Y-87317938D01*
D13*
X55249617Y-76198114D02*
X55070729Y-76138484D01*
X55070729Y-76138484D02*
X55011099Y-76078855D01*
X55011099Y-76078855D02*
X54951470Y-75959596D01*
X54951470Y-75959596D02*
X54951470Y-75780707D01*
X54951470Y-75780707D02*
X55011099Y-75661448D01*
X55011099Y-75661448D02*
X55070729Y-75601819D01*
X55070729Y-75601819D02*
X55189988Y-75542189D01*
X55189988Y-75542189D02*
X55667024Y-75542189D01*
X55667024Y-75542189D02*
X55667024Y-76794409D01*
X55667024Y-76794409D02*
X55249617Y-76794409D01*
X55249617Y-76794409D02*
X55130358Y-76734779D01*
X55130358Y-76734779D02*
X55070729Y-76675150D01*
X55070729Y-76675150D02*
X55011099Y-76555891D01*
X55011099Y-76555891D02*
X55011099Y-76436632D01*
X55011099Y-76436632D02*
X55070729Y-76317373D01*
X55070729Y-76317373D02*
X55130358Y-76257743D01*
X55130358Y-76257743D02*
X55249617Y-76198114D01*
X55249617Y-76198114D02*
X55667024Y-76198114D01*
X54414804Y-75542189D02*
X54414804Y-76794409D01*
X54414804Y-76794409D02*
X53699250Y-75542189D01*
X53699250Y-75542189D02*
X53699250Y-76794409D01*
X52864436Y-76794409D02*
X52625918Y-76794409D01*
X52625918Y-76794409D02*
X52506659Y-76734779D01*
X52506659Y-76734779D02*
X52387400Y-76615520D01*
X52387400Y-76615520D02*
X52327770Y-76377002D01*
X52327770Y-76377002D02*
X52327770Y-75959596D01*
X52327770Y-75959596D02*
X52387400Y-75721078D01*
X52387400Y-75721078D02*
X52506659Y-75601819D01*
X52506659Y-75601819D02*
X52625918Y-75542189D01*
X52625918Y-75542189D02*
X52864436Y-75542189D01*
X52864436Y-75542189D02*
X52983695Y-75601819D01*
X52983695Y-75601819D02*
X53102954Y-75721078D01*
X53102954Y-75721078D02*
X53162583Y-75959596D01*
X53162583Y-75959596D02*
X53162583Y-76377002D01*
X53162583Y-76377002D02*
X53102954Y-76615520D01*
X53102954Y-76615520D02*
X52983695Y-76734779D01*
X52983695Y-76734779D02*
X52864436Y-76794409D01*
X51552586Y-76794409D02*
X51433327Y-76794409D01*
X51433327Y-76794409D02*
X51314068Y-76734779D01*
X51314068Y-76734779D02*
X51254438Y-76675150D01*
X51254438Y-76675150D02*
X51194809Y-76555891D01*
X51194809Y-76555891D02*
X51135179Y-76317373D01*
X51135179Y-76317373D02*
X51135179Y-76019225D01*
X51135179Y-76019225D02*
X51194809Y-75780707D01*
X51194809Y-75780707D02*
X51254438Y-75661448D01*
X51254438Y-75661448D02*
X51314068Y-75601819D01*
X51314068Y-75601819D02*
X51433327Y-75542189D01*
X51433327Y-75542189D02*
X51552586Y-75542189D01*
X51552586Y-75542189D02*
X51671845Y-75601819D01*
X51671845Y-75601819D02*
X51731474Y-75661448D01*
X51731474Y-75661448D02*
X51791104Y-75780707D01*
X51791104Y-75780707D02*
X51850733Y-76019225D01*
X51850733Y-76019225D02*
X51850733Y-76317373D01*
X51850733Y-76317373D02*
X51791104Y-76555891D01*
X51791104Y-76555891D02*
X51731474Y-76675150D01*
X51731474Y-76675150D02*
X51671845Y-76734779D01*
X51671845Y-76734779D02*
X51552586Y-76794409D01*
X50419625Y-76257743D02*
X50538884Y-76317373D01*
X50538884Y-76317373D02*
X50598514Y-76377002D01*
X50598514Y-76377002D02*
X50658143Y-76496261D01*
X50658143Y-76496261D02*
X50658143Y-76555891D01*
X50658143Y-76555891D02*
X50598514Y-76675150D01*
X50598514Y-76675150D02*
X50538884Y-76734779D01*
X50538884Y-76734779D02*
X50419625Y-76794409D01*
X50419625Y-76794409D02*
X50181107Y-76794409D01*
X50181107Y-76794409D02*
X50061848Y-76734779D01*
X50061848Y-76734779D02*
X50002219Y-76675150D01*
X50002219Y-76675150D02*
X49942589Y-76555891D01*
X49942589Y-76555891D02*
X49942589Y-76496261D01*
X49942589Y-76496261D02*
X50002219Y-76377002D01*
X50002219Y-76377002D02*
X50061848Y-76317373D01*
X50061848Y-76317373D02*
X50181107Y-76257743D01*
X50181107Y-76257743D02*
X50419625Y-76257743D01*
X50419625Y-76257743D02*
X50538884Y-76198114D01*
X50538884Y-76198114D02*
X50598514Y-76138484D01*
X50598514Y-76138484D02*
X50658143Y-76019225D01*
X50658143Y-76019225D02*
X50658143Y-75780707D01*
X50658143Y-75780707D02*
X50598514Y-75661448D01*
X50598514Y-75661448D02*
X50538884Y-75601819D01*
X50538884Y-75601819D02*
X50419625Y-75542189D01*
X50419625Y-75542189D02*
X50181107Y-75542189D01*
X50181107Y-75542189D02*
X50061848Y-75601819D01*
X50061848Y-75601819D02*
X50002219Y-75661448D01*
X50002219Y-75661448D02*
X49942589Y-75780707D01*
X49942589Y-75780707D02*
X49942589Y-76019225D01*
X49942589Y-76019225D02*
X50002219Y-76138484D01*
X50002219Y-76138484D02*
X50061848Y-76198114D01*
X50061848Y-76198114D02*
X50181107Y-76257743D01*
X49525183Y-75542189D02*
X48869258Y-76377002D01*
X49525183Y-76377002D02*
X48869258Y-75542189D01*
X47378520Y-75542189D02*
X47140002Y-75542189D01*
X47140002Y-75542189D02*
X47020743Y-75601819D01*
X47020743Y-75601819D02*
X46961114Y-75661448D01*
X46961114Y-75661448D02*
X46841855Y-75840337D01*
X46841855Y-75840337D02*
X46782225Y-76078855D01*
X46782225Y-76078855D02*
X46782225Y-76555891D01*
X46782225Y-76555891D02*
X46841855Y-76675150D01*
X46841855Y-76675150D02*
X46901484Y-76734779D01*
X46901484Y-76734779D02*
X47020743Y-76794409D01*
X47020743Y-76794409D02*
X47259261Y-76794409D01*
X47259261Y-76794409D02*
X47378520Y-76734779D01*
X47378520Y-76734779D02*
X47438150Y-76675150D01*
X47438150Y-76675150D02*
X47497779Y-76555891D01*
X47497779Y-76555891D02*
X47497779Y-76257743D01*
X47497779Y-76257743D02*
X47438150Y-76138484D01*
X47438150Y-76138484D02*
X47378520Y-76078855D01*
X47378520Y-76078855D02*
X47259261Y-76019225D01*
X47259261Y-76019225D02*
X47020743Y-76019225D01*
X47020743Y-76019225D02*
X46901484Y-76078855D01*
X46901484Y-76078855D02*
X46841855Y-76138484D01*
X46841855Y-76138484D02*
X46782225Y-76257743D01*
X46245560Y-76019225D02*
X45291488Y-76019225D01*
X44695192Y-75542189D02*
X44695192Y-76794409D01*
X44695192Y-76794409D02*
X44397044Y-76794409D01*
X44397044Y-76794409D02*
X44218156Y-76734779D01*
X44218156Y-76734779D02*
X44098897Y-76615520D01*
X44098897Y-76615520D02*
X44039267Y-76496261D01*
X44039267Y-76496261D02*
X43979638Y-76257743D01*
X43979638Y-76257743D02*
X43979638Y-76078855D01*
X43979638Y-76078855D02*
X44039267Y-75840337D01*
X44039267Y-75840337D02*
X44098897Y-75721078D01*
X44098897Y-75721078D02*
X44218156Y-75601819D01*
X44218156Y-75601819D02*
X44397044Y-75542189D01*
X44397044Y-75542189D02*
X44695192Y-75542189D01*
X43264083Y-75542189D02*
X43383342Y-75601819D01*
X43383342Y-75601819D02*
X43442972Y-75661448D01*
X43442972Y-75661448D02*
X43502601Y-75780707D01*
X43502601Y-75780707D02*
X43502601Y-76138484D01*
X43502601Y-76138484D02*
X43442972Y-76257743D01*
X43442972Y-76257743D02*
X43383342Y-76317373D01*
X43383342Y-76317373D02*
X43264083Y-76377002D01*
X43264083Y-76377002D02*
X43085195Y-76377002D01*
X43085195Y-76377002D02*
X42965936Y-76317373D01*
X42965936Y-76317373D02*
X42906306Y-76257743D01*
X42906306Y-76257743D02*
X42846677Y-76138484D01*
X42846677Y-76138484D02*
X42846677Y-75780707D01*
X42846677Y-75780707D02*
X42906306Y-75661448D01*
X42906306Y-75661448D02*
X42965936Y-75601819D01*
X42965936Y-75601819D02*
X43085195Y-75542189D01*
X43085195Y-75542189D02*
X43264083Y-75542189D01*
X41892604Y-76198114D02*
X42310011Y-76198114D01*
X42310011Y-75542189D02*
X42310011Y-76794409D01*
X42310011Y-76794409D02*
X41713716Y-76794409D01*
D12*
X50187917Y-86444178D02*
X50187917Y-87317938D01*
X50187917Y-87317938D02*
X49855056Y-87317938D01*
X49855056Y-87317938D02*
X49771841Y-87276330D01*
X49771841Y-87276330D02*
X49730234Y-87234723D01*
X49730234Y-87234723D02*
X49688626Y-87151507D01*
X49688626Y-87151507D02*
X49688626Y-87026685D01*
X49688626Y-87026685D02*
X49730234Y-86943469D01*
X49730234Y-86943469D02*
X49771841Y-86901862D01*
X49771841Y-86901862D02*
X49855056Y-86860254D01*
X49855056Y-86860254D02*
X50187917Y-86860254D01*
X48856474Y-86444178D02*
X49355765Y-86444178D01*
X49106119Y-86444178D02*
X49106119Y-87317938D01*
X49106119Y-87317938D02*
X49189335Y-87193115D01*
X49189335Y-87193115D02*
X49272550Y-87109900D01*
X49272550Y-87109900D02*
X49355765Y-87068292D01*
X50335722Y-66194330D02*
X50418937Y-66235938D01*
X50418937Y-66235938D02*
X50543760Y-66235938D01*
X50543760Y-66235938D02*
X50668583Y-66194330D01*
X50668583Y-66194330D02*
X50751798Y-66111115D01*
X50751798Y-66111115D02*
X50793405Y-66027900D01*
X50793405Y-66027900D02*
X50835013Y-65861469D01*
X50835013Y-65861469D02*
X50835013Y-65736646D01*
X50835013Y-65736646D02*
X50793405Y-65570216D01*
X50793405Y-65570216D02*
X50751798Y-65487001D01*
X50751798Y-65487001D02*
X50668583Y-65403786D01*
X50668583Y-65403786D02*
X50543760Y-65362178D01*
X50543760Y-65362178D02*
X50460544Y-65362178D01*
X50460544Y-65362178D02*
X50335722Y-65403786D01*
X50335722Y-65403786D02*
X50294114Y-65445393D01*
X50294114Y-65445393D02*
X50294114Y-65736646D01*
X50294114Y-65736646D02*
X50460544Y-65736646D01*
X49919645Y-65362178D02*
X49919645Y-66235938D01*
X49919645Y-66235938D02*
X49420354Y-65362178D01*
X49420354Y-65362178D02*
X49420354Y-66235938D01*
X49004277Y-65362178D02*
X49004277Y-66235938D01*
X49004277Y-66235938D02*
X48796239Y-66235938D01*
X48796239Y-66235938D02*
X48671416Y-66194330D01*
X48671416Y-66194330D02*
X48588201Y-66111115D01*
X48588201Y-66111115D02*
X48546594Y-66027900D01*
X48546594Y-66027900D02*
X48504986Y-65861469D01*
X48504986Y-65861469D02*
X48504986Y-65736646D01*
X48504986Y-65736646D02*
X48546594Y-65570216D01*
X48546594Y-65570216D02*
X48588201Y-65487001D01*
X48588201Y-65487001D02*
X48671416Y-65403786D01*
X48671416Y-65403786D02*
X48796239Y-65362178D01*
X48796239Y-65362178D02*
X49004277Y-65362178D01*
X53143994Y-69537938D02*
X52603095Y-69537938D01*
X52603095Y-69537938D02*
X52894348Y-69205077D01*
X52894348Y-69205077D02*
X52769525Y-69205077D01*
X52769525Y-69205077D02*
X52686310Y-69163469D01*
X52686310Y-69163469D02*
X52644702Y-69121862D01*
X52644702Y-69121862D02*
X52603095Y-69038646D01*
X52603095Y-69038646D02*
X52603095Y-68830608D01*
X52603095Y-68830608D02*
X52644702Y-68747393D01*
X52644702Y-68747393D02*
X52686310Y-68705786D01*
X52686310Y-68705786D02*
X52769525Y-68664178D01*
X52769525Y-68664178D02*
X53019171Y-68664178D01*
X53019171Y-68664178D02*
X53102386Y-68705786D01*
X53102386Y-68705786D02*
X53143994Y-68747393D01*
X52353449Y-69537938D02*
X52062196Y-68664178D01*
X52062196Y-68664178D02*
X51770943Y-69537938D01*
X51354867Y-68664178D02*
X51438082Y-68705786D01*
X51438082Y-68705786D02*
X51479689Y-68747393D01*
X51479689Y-68747393D02*
X51521297Y-68830608D01*
X51521297Y-68830608D02*
X51521297Y-69080254D01*
X51521297Y-69080254D02*
X51479689Y-69163469D01*
X51479689Y-69163469D02*
X51438082Y-69205077D01*
X51438082Y-69205077D02*
X51354867Y-69246685D01*
X51354867Y-69246685D02*
X51230044Y-69246685D01*
X51230044Y-69246685D02*
X51146828Y-69205077D01*
X51146828Y-69205077D02*
X51105221Y-69163469D01*
X51105221Y-69163469D02*
X51063613Y-69080254D01*
X51063613Y-69080254D02*
X51063613Y-68830608D01*
X51063613Y-68830608D02*
X51105221Y-68747393D01*
X51105221Y-68747393D02*
X51146828Y-68705786D01*
X51146828Y-68705786D02*
X51230044Y-68664178D01*
X51230044Y-68664178D02*
X51354867Y-68664178D01*
X52880317Y-86393378D02*
X52880317Y-87267138D01*
X52880317Y-87267138D02*
X52547456Y-87267138D01*
X52547456Y-87267138D02*
X52464241Y-87225530D01*
X52464241Y-87225530D02*
X52422634Y-87183923D01*
X52422634Y-87183923D02*
X52381026Y-87100707D01*
X52381026Y-87100707D02*
X52381026Y-86975885D01*
X52381026Y-86975885D02*
X52422634Y-86892669D01*
X52422634Y-86892669D02*
X52464241Y-86851062D01*
X52464241Y-86851062D02*
X52547456Y-86809454D01*
X52547456Y-86809454D02*
X52880317Y-86809454D01*
X51840127Y-87267138D02*
X51756912Y-87267138D01*
X51756912Y-87267138D02*
X51673696Y-87225530D01*
X51673696Y-87225530D02*
X51632089Y-87183923D01*
X51632089Y-87183923D02*
X51590481Y-87100707D01*
X51590481Y-87100707D02*
X51548874Y-86934277D01*
X51548874Y-86934277D02*
X51548874Y-86726239D01*
X51548874Y-86726239D02*
X51590481Y-86559808D01*
X51590481Y-86559808D02*
X51632089Y-86476593D01*
X51632089Y-86476593D02*
X51673696Y-86434986D01*
X51673696Y-86434986D02*
X51756912Y-86393378D01*
X51756912Y-86393378D02*
X51840127Y-86393378D01*
X51840127Y-86393378D02*
X51923342Y-86434986D01*
X51923342Y-86434986D02*
X51964950Y-86476593D01*
X51964950Y-86476593D02*
X52006557Y-86559808D01*
X52006557Y-86559808D02*
X52048165Y-86726239D01*
X52048165Y-86726239D02*
X52048165Y-86934277D01*
X52048165Y-86934277D02*
X52006557Y-87100707D01*
X52006557Y-87100707D02*
X51964950Y-87183923D01*
X51964950Y-87183923D02*
X51923342Y-87225530D01*
X51923342Y-87225530D02*
X51840127Y-87267138D01*
X54918849Y-86851062D02*
X54794026Y-86809454D01*
X54794026Y-86809454D02*
X54752419Y-86767846D01*
X54752419Y-86767846D02*
X54710811Y-86684631D01*
X54710811Y-86684631D02*
X54710811Y-86559808D01*
X54710811Y-86559808D02*
X54752419Y-86476593D01*
X54752419Y-86476593D02*
X54794026Y-86434986D01*
X54794026Y-86434986D02*
X54877241Y-86393378D01*
X54877241Y-86393378D02*
X55210102Y-86393378D01*
X55210102Y-86393378D02*
X55210102Y-87267138D01*
X55210102Y-87267138D02*
X54918849Y-87267138D01*
X54918849Y-87267138D02*
X54835634Y-87225530D01*
X54835634Y-87225530D02*
X54794026Y-87183923D01*
X54794026Y-87183923D02*
X54752419Y-87100707D01*
X54752419Y-87100707D02*
X54752419Y-87017492D01*
X54752419Y-87017492D02*
X54794026Y-86934277D01*
X54794026Y-86934277D02*
X54835634Y-86892669D01*
X54835634Y-86892669D02*
X54918849Y-86851062D01*
X54918849Y-86851062D02*
X55210102Y-86851062D01*
X54461165Y-87267138D02*
X53961874Y-87267138D01*
X54211520Y-86393378D02*
X54211520Y-87267138D01*
X55706974Y-66235938D02*
X55415721Y-65362178D01*
X55415721Y-65362178D02*
X55124468Y-66235938D01*
X54833214Y-65362178D02*
X54833214Y-66235938D01*
X54417138Y-65362178D02*
X54417138Y-66235938D01*
X54417138Y-66235938D02*
X53917847Y-65362178D01*
X53917847Y-65362178D02*
X53917847Y-66235938D01*
D11*
X23618333Y-63254819D02*
X23285000Y-62778628D01*
X23046905Y-63254819D02*
X23046905Y-62254819D01*
X23046905Y-62254819D02*
X23427857Y-62254819D01*
X23427857Y-62254819D02*
X23523095Y-62302438D01*
X23523095Y-62302438D02*
X23570714Y-62350057D01*
X23570714Y-62350057D02*
X23618333Y-62445295D01*
X23618333Y-62445295D02*
X23618333Y-62588152D01*
X23618333Y-62588152D02*
X23570714Y-62683390D01*
X23570714Y-62683390D02*
X23523095Y-62731009D01*
X23523095Y-62731009D02*
X23427857Y-62778628D01*
X23427857Y-62778628D02*
X23046905Y-62778628D01*
X24475476Y-62588152D02*
X24475476Y-63254819D01*
X24237381Y-62207200D02*
X23999286Y-62921485D01*
X23999286Y-62921485D02*
X24618333Y-62921485D01*
X76152080Y-68210119D02*
X76199700Y-68257738D01*
X76199700Y-68257738D02*
X76247319Y-68400595D01*
X76247319Y-68400595D02*
X76247319Y-68495833D01*
X76247319Y-68495833D02*
X76199700Y-68638690D01*
X76199700Y-68638690D02*
X76104461Y-68733928D01*
X76104461Y-68733928D02*
X76009223Y-68781547D01*
X76009223Y-68781547D02*
X75818747Y-68829166D01*
X75818747Y-68829166D02*
X75675890Y-68829166D01*
X75675890Y-68829166D02*
X75485414Y-68781547D01*
X75485414Y-68781547D02*
X75390176Y-68733928D01*
X75390176Y-68733928D02*
X75294938Y-68638690D01*
X75294938Y-68638690D02*
X75247319Y-68495833D01*
X75247319Y-68495833D02*
X75247319Y-68400595D01*
X75247319Y-68400595D02*
X75294938Y-68257738D01*
X75294938Y-68257738D02*
X75342557Y-68210119D01*
X76342557Y-68019643D02*
X76342557Y-67257738D01*
X75247319Y-66591071D02*
X75247319Y-66781547D01*
X75247319Y-66781547D02*
X75294938Y-66876785D01*
X75294938Y-66876785D02*
X75342557Y-66924404D01*
X75342557Y-66924404D02*
X75485414Y-67019642D01*
X75485414Y-67019642D02*
X75675890Y-67067261D01*
X75675890Y-67067261D02*
X76056842Y-67067261D01*
X76056842Y-67067261D02*
X76152080Y-67019642D01*
X76152080Y-67019642D02*
X76199700Y-66972023D01*
X76199700Y-66972023D02*
X76247319Y-66876785D01*
X76247319Y-66876785D02*
X76247319Y-66686309D01*
X76247319Y-66686309D02*
X76199700Y-66591071D01*
X76199700Y-66591071D02*
X76152080Y-66543452D01*
X76152080Y-66543452D02*
X76056842Y-66495833D01*
X76056842Y-66495833D02*
X75818747Y-66495833D01*
X75818747Y-66495833D02*
X75723509Y-66543452D01*
X75723509Y-66543452D02*
X75675890Y-66591071D01*
X75675890Y-66591071D02*
X75628271Y-66686309D01*
X75628271Y-66686309D02*
X75628271Y-66876785D01*
X75628271Y-66876785D02*
X75675890Y-66972023D01*
X75675890Y-66972023D02*
X75723509Y-67019642D01*
X75723509Y-67019642D02*
X75818747Y-67067261D01*
X21982319Y-84208333D02*
X22696604Y-84208333D01*
X22696604Y-84208333D02*
X22839461Y-84255952D01*
X22839461Y-84255952D02*
X22934700Y-84351190D01*
X22934700Y-84351190D02*
X22982319Y-84494047D01*
X22982319Y-84494047D02*
X22982319Y-84589285D01*
X21982319Y-83827380D02*
X21982319Y-83208333D01*
X21982319Y-83208333D02*
X22363271Y-83541666D01*
X22363271Y-83541666D02*
X22363271Y-83398809D01*
X22363271Y-83398809D02*
X22410890Y-83303571D01*
X22410890Y-83303571D02*
X22458509Y-83255952D01*
X22458509Y-83255952D02*
X22553747Y-83208333D01*
X22553747Y-83208333D02*
X22791842Y-83208333D01*
X22791842Y-83208333D02*
X22887080Y-83255952D01*
X22887080Y-83255952D02*
X22934700Y-83303571D01*
X22934700Y-83303571D02*
X22982319Y-83398809D01*
X22982319Y-83398809D02*
X22982319Y-83684523D01*
X22982319Y-83684523D02*
X22934700Y-83779761D01*
X22934700Y-83779761D02*
X22887080Y-83827380D01*
X72334819Y-103604523D02*
X73049104Y-103604523D01*
X73049104Y-103604523D02*
X73191961Y-103652142D01*
X73191961Y-103652142D02*
X73287200Y-103747380D01*
X73287200Y-103747380D02*
X73334819Y-103890237D01*
X73334819Y-103890237D02*
X73334819Y-103985475D01*
X73334819Y-102604523D02*
X73334819Y-103175951D01*
X73334819Y-102890237D02*
X72334819Y-102890237D01*
X72334819Y-102890237D02*
X72477676Y-102985475D01*
X72477676Y-102985475D02*
X72572914Y-103080713D01*
X72572914Y-103080713D02*
X72620533Y-103175951D01*
X72334819Y-101747380D02*
X72334819Y-101937856D01*
X72334819Y-101937856D02*
X72382438Y-102033094D01*
X72382438Y-102033094D02*
X72430057Y-102080713D01*
X72430057Y-102080713D02*
X72572914Y-102175951D01*
X72572914Y-102175951D02*
X72763390Y-102223570D01*
X72763390Y-102223570D02*
X73144342Y-102223570D01*
X73144342Y-102223570D02*
X73239580Y-102175951D01*
X73239580Y-102175951D02*
X73287200Y-102128332D01*
X73287200Y-102128332D02*
X73334819Y-102033094D01*
X73334819Y-102033094D02*
X73334819Y-101842618D01*
X73334819Y-101842618D02*
X73287200Y-101747380D01*
X73287200Y-101747380D02*
X73239580Y-101699761D01*
X73239580Y-101699761D02*
X73144342Y-101652142D01*
X73144342Y-101652142D02*
X72906247Y-101652142D01*
X72906247Y-101652142D02*
X72811009Y-101699761D01*
X72811009Y-101699761D02*
X72763390Y-101747380D01*
X72763390Y-101747380D02*
X72715771Y-101842618D01*
X72715771Y-101842618D02*
X72715771Y-102033094D01*
X72715771Y-102033094D02*
X72763390Y-102128332D01*
X72763390Y-102128332D02*
X72811009Y-102175951D01*
X72811009Y-102175951D02*
X72906247Y-102223570D01*
X79554580Y-66160119D02*
X79602200Y-66207738D01*
X79602200Y-66207738D02*
X79649819Y-66350595D01*
X79649819Y-66350595D02*
X79649819Y-66445833D01*
X79649819Y-66445833D02*
X79602200Y-66588690D01*
X79602200Y-66588690D02*
X79506961Y-66683928D01*
X79506961Y-66683928D02*
X79411723Y-66731547D01*
X79411723Y-66731547D02*
X79221247Y-66779166D01*
X79221247Y-66779166D02*
X79078390Y-66779166D01*
X79078390Y-66779166D02*
X78887914Y-66731547D01*
X78887914Y-66731547D02*
X78792676Y-66683928D01*
X78792676Y-66683928D02*
X78697438Y-66588690D01*
X78697438Y-66588690D02*
X78649819Y-66445833D01*
X78649819Y-66445833D02*
X78649819Y-66350595D01*
X78649819Y-66350595D02*
X78697438Y-66207738D01*
X78697438Y-66207738D02*
X78745057Y-66160119D01*
X79745057Y-65969643D02*
X79745057Y-65207738D01*
X78983152Y-64541071D02*
X79649819Y-64541071D01*
X78602200Y-64779166D02*
X79316485Y-65017261D01*
X79316485Y-65017261D02*
X79316485Y-64398214D01*
X27709580Y-46391666D02*
X27757200Y-46439285D01*
X27757200Y-46439285D02*
X27804819Y-46582142D01*
X27804819Y-46582142D02*
X27804819Y-46677380D01*
X27804819Y-46677380D02*
X27757200Y-46820237D01*
X27757200Y-46820237D02*
X27661961Y-46915475D01*
X27661961Y-46915475D02*
X27566723Y-46963094D01*
X27566723Y-46963094D02*
X27376247Y-47010713D01*
X27376247Y-47010713D02*
X27233390Y-47010713D01*
X27233390Y-47010713D02*
X27042914Y-46963094D01*
X27042914Y-46963094D02*
X26947676Y-46915475D01*
X26947676Y-46915475D02*
X26852438Y-46820237D01*
X26852438Y-46820237D02*
X26804819Y-46677380D01*
X26804819Y-46677380D02*
X26804819Y-46582142D01*
X26804819Y-46582142D02*
X26852438Y-46439285D01*
X26852438Y-46439285D02*
X26900057Y-46391666D01*
X26900057Y-46010713D02*
X26852438Y-45963094D01*
X26852438Y-45963094D02*
X26804819Y-45867856D01*
X26804819Y-45867856D02*
X26804819Y-45629761D01*
X26804819Y-45629761D02*
X26852438Y-45534523D01*
X26852438Y-45534523D02*
X26900057Y-45486904D01*
X26900057Y-45486904D02*
X26995295Y-45439285D01*
X26995295Y-45439285D02*
X27090533Y-45439285D01*
X27090533Y-45439285D02*
X27233390Y-45486904D01*
X27233390Y-45486904D02*
X27804819Y-46058332D01*
X27804819Y-46058332D02*
X27804819Y-45439285D01*
%TO.C,D_2*%
D14*
X82225000Y-64872500D02*
X82225000Y-56362500D01*
X88725000Y-64872500D02*
X82225000Y-64872500D01*
X88725000Y-64872500D02*
X88725000Y-56362500D01*
%TO.C,R6*%
X73900000Y-77397500D02*
X76360000Y-77397500D01*
X76360000Y-75927500D02*
X73900000Y-75927500D01*
X76360000Y-77397500D02*
X76360000Y-75927500D01*
%TO.C,D2*%
X91750000Y-73802500D02*
X91750000Y-80812500D01*
X95050000Y-73802500D02*
X91750000Y-73802500D01*
X95050000Y-73802500D02*
X95050000Y-80812500D01*
%TO.C,J20*%
X60000000Y-41725000D02*
X60000000Y-50025000D01*
X60000000Y-50025000D02*
X72850000Y-50025000D01*
X72850000Y-41725000D02*
X60000000Y-41725000D01*
X72850000Y-50025000D02*
X75700000Y-47475000D01*
X75700000Y-44325000D02*
X72850000Y-41725000D01*
X75700000Y-47475000D02*
X75700000Y-44325000D01*
%TO.C,J5*%
X53315000Y-42290000D02*
X54525000Y-42290000D01*
X53315000Y-49010000D02*
X53315000Y-42290000D01*
X54525000Y-42290000D02*
X54525000Y-41790000D01*
X54525000Y-49010000D02*
X53315000Y-49010000D01*
X54525000Y-49510000D02*
X54525000Y-49010000D01*
X54635000Y-49810000D02*
X57135000Y-49810000D01*
X55335000Y-41790000D02*
X55335000Y-42790000D01*
X55335000Y-42790000D02*
X56835000Y-42790000D01*
X55335000Y-48510000D02*
X56835000Y-48510000D01*
X55335000Y-49510000D02*
X55335000Y-48510000D01*
X57135000Y-49810000D02*
X57135000Y-47310000D01*
X52815000Y-41790000D02*
X56835000Y-41790000D01*
X56835000Y-49510000D01*
X52815000Y-49510000D01*
X52815000Y-41790000D01*
%TO.C,R8*%
X56900000Y-53035000D02*
X59360000Y-53035000D01*
X59360000Y-51565000D02*
X56900000Y-51565000D01*
X59360000Y-53035000D02*
X59360000Y-51565000D01*
%TO.C,C3*%
X30290000Y-45353733D02*
X30290000Y-45646267D01*
X31310000Y-45353733D02*
X31310000Y-45646267D01*
%TO.C,R12*%
X87352500Y-105279724D02*
X87352500Y-104770276D01*
X88397500Y-105279724D02*
X88397500Y-104770276D01*
%TO.C,C8*%
X26427767Y-89235000D02*
X26135233Y-89235000D01*
X26427767Y-90255000D02*
X26135233Y-90255000D01*
%TO.C,C_7*%
X76878733Y-65852500D02*
X77171267Y-65852500D01*
X76878733Y-66872500D02*
X77171267Y-66872500D01*
%TO.C,R2*%
X24840000Y-52765000D02*
X24840000Y-54235000D01*
X24840000Y-54235000D02*
X27300000Y-54235000D01*
X27300000Y-52765000D02*
X24840000Y-52765000D01*
%TO.C,U2*%
X32950000Y-34460000D02*
X32950000Y-40660000D01*
X32950000Y-34460000D02*
X51350000Y-34460000D01*
X32950000Y-59310000D02*
X32950000Y-60310000D01*
X32950000Y-60310000D02*
X34450000Y-60310000D01*
X51350000Y-34460000D02*
X51350000Y-40660000D01*
X51350000Y-60310000D02*
X49850000Y-60310000D01*
X51350000Y-60310000D02*
X51350000Y-59310000D01*
X32950000Y-41335000D02*
X32450000Y-41335000D01*
X32950000Y-40835000D01*
X32950000Y-41335000D01*
G36*
X32950000Y-41335000D02*
G01*
X32450000Y-41335000D01*
X32950000Y-40835000D01*
X32950000Y-41335000D01*
G37*
%TO.C,R_5*%
X73852500Y-71767224D02*
X73852500Y-71257776D01*
X74897500Y-71767224D02*
X74897500Y-71257776D01*
%TO.C,L1*%
X82050000Y-66125000D02*
X89450000Y-66125000D01*
X82050000Y-68425000D02*
X82050000Y-66125000D01*
X82050000Y-73525000D02*
X82050000Y-71225000D01*
X89450000Y-66125000D02*
X89450000Y-68425000D01*
X89450000Y-71225000D02*
X89450000Y-73525000D01*
X89450000Y-73525000D02*
X82050000Y-73525000D01*
%TO.C,U7*%
X18540000Y-51440000D02*
X18635000Y-51440000D01*
X18540000Y-55560000D02*
X18540000Y-51440000D01*
X18635000Y-55560000D02*
X18540000Y-55560000D01*
X23565000Y-51440000D02*
X23660000Y-51440000D01*
X23660000Y-51440000D02*
X23660000Y-55560000D01*
X23660000Y-55560000D02*
X23565000Y-55560000D01*
X23570000Y-50900000D02*
X23900000Y-50660000D01*
X23900000Y-51140000D01*
X23570000Y-50900000D01*
G36*
X23900000Y-51140000D02*
G01*
X23570000Y-50900000D01*
X23900000Y-50660000D01*
X23900000Y-51140000D01*
G37*
%TO.C,J4*%
X90655000Y-95515000D02*
X97095000Y-95515000D01*
X90655000Y-101295000D02*
X90655000Y-95515000D01*
X91175000Y-101295000D02*
X91175000Y-95515000D01*
X96475000Y-96105000D02*
X96475000Y-95515000D01*
X96475000Y-98645000D02*
X96475000Y-98165000D01*
X96475000Y-101295000D02*
X96475000Y-100705000D01*
X97095000Y-95515000D02*
X97095000Y-96105000D01*
X97095000Y-98165000D02*
X97095000Y-98645000D01*
X97095000Y-100705000D02*
X97095000Y-101295000D01*
X97095000Y-101295000D02*
X90655000Y-101295000D01*
X97445000Y-99675000D02*
X98055000Y-99235000D01*
X98055000Y-100115000D01*
X97445000Y-99675000D01*
G36*
X98055000Y-100115000D02*
G01*
X97445000Y-99675000D01*
X98055000Y-99235000D01*
X98055000Y-100115000D01*
G37*
%TO.C,U6*%
D15*
X84538500Y-100495000D02*
X84538500Y-96095000D01*
X90138500Y-100495000D02*
X90138500Y-96095000D01*
D16*
X85038500Y-102495000D02*
G75*
G02*
X84838500Y-102495000I-100000J0D01*
G01*
X84838500Y-102495000D02*
G75*
G02*
X85038500Y-102495000I100000J0D01*
G01*
%TO.C,J17*%
D14*
X68036667Y-96935000D02*
X69246667Y-96935000D01*
X68036667Y-108655000D02*
X68036667Y-96935000D01*
X69246667Y-96935000D02*
X69246667Y-96435000D01*
X69246667Y-108655000D02*
X68036667Y-108655000D01*
X69246667Y-109155000D02*
X69246667Y-108655000D01*
X69356667Y-109455000D02*
X71856667Y-109455000D01*
X70056667Y-96435000D02*
X70056667Y-97435000D01*
X70056667Y-97435000D02*
X71556667Y-97435000D01*
X70056667Y-108155000D02*
X71556667Y-108155000D01*
X70056667Y-109155000D02*
X70056667Y-108155000D01*
X71856667Y-109455000D02*
X71856667Y-106955000D01*
X67536667Y-96435000D02*
X71556667Y-96435000D01*
X71556667Y-109155000D01*
X67536667Y-109155000D01*
X67536667Y-96435000D01*
%TO.C,D1*%
X73065000Y-78412500D02*
X73065000Y-80872500D01*
X73065000Y-80872500D02*
X74535000Y-80872500D01*
X74535000Y-80872500D02*
X74535000Y-78412500D01*
%TO.C,R3*%
X28340000Y-54065000D02*
X28340000Y-55535000D01*
X28340000Y-55535000D02*
X30800000Y-55535000D01*
X30800000Y-54065000D02*
X28340000Y-54065000D01*
%TO.C,Cout1*%
X90165000Y-60358767D02*
X90165000Y-60066233D01*
X91185000Y-60358767D02*
X91185000Y-60066233D01*
%TO.C,C12*%
X90741233Y-88665000D02*
X91033767Y-88665000D01*
X90741233Y-89685000D02*
X91033767Y-89685000D01*
%TO.C,U10*%
D17*
X27708550Y-68361001D02*
X29715150Y-68361001D01*
X29715150Y-65059001D02*
X27708550Y-65059001D01*
%TO.C,J7*%
D14*
X36735000Y-101315000D02*
X38115000Y-101315000D01*
X36735000Y-102695000D02*
X36735000Y-101315000D01*
X36735000Y-103965000D02*
X36735000Y-109155000D01*
X36735000Y-103965000D02*
X39495000Y-103965000D01*
X36735000Y-109155000D02*
X39495000Y-109155000D01*
X39495000Y-103965000D02*
X39495000Y-109155000D01*
%TO.C,R10*%
X24035000Y-76940276D02*
X24035000Y-77449724D01*
X25080000Y-76940276D02*
X25080000Y-77449724D01*
%TO.C,R14*%
X91379724Y-104802500D02*
X90870276Y-104802500D01*
X91379724Y-105847500D02*
X90870276Y-105847500D01*
%TO.C,J14*%
X61603333Y-96935000D02*
X62813333Y-96935000D01*
X61603333Y-108655000D02*
X61603333Y-96935000D01*
X62813333Y-96935000D02*
X62813333Y-96435000D01*
X62813333Y-108655000D02*
X61603333Y-108655000D01*
X62813333Y-109155000D02*
X62813333Y-108655000D01*
X62923333Y-109455000D02*
X65423333Y-109455000D01*
X63623333Y-96435000D02*
X63623333Y-97435000D01*
X63623333Y-97435000D02*
X65123333Y-97435000D01*
X63623333Y-108155000D02*
X65123333Y-108155000D01*
X63623333Y-109155000D02*
X63623333Y-108155000D01*
X65423333Y-109455000D02*
X65423333Y-106955000D01*
X61103333Y-96435000D02*
X65123333Y-96435000D01*
X65123333Y-109155000D01*
X61103333Y-109155000D01*
X61103333Y-96435000D01*
%TO.C,U8*%
X74665000Y-58802500D02*
X74760000Y-58802500D01*
X74665000Y-62922500D02*
X74665000Y-58802500D01*
X74760000Y-62922500D02*
X74665000Y-62922500D01*
X79690000Y-58802500D02*
X79785000Y-58802500D01*
X79785000Y-58802500D02*
X79785000Y-62922500D01*
X79785000Y-62922500D02*
X79690000Y-62922500D01*
X79695000Y-58262500D02*
X80025000Y-58022500D01*
X80025000Y-58502500D01*
X79695000Y-58262500D01*
G36*
X80025000Y-58502500D02*
G01*
X79695000Y-58262500D01*
X80025000Y-58022500D01*
X80025000Y-58502500D01*
G37*
%TO.C,C1*%
X27090000Y-45353733D02*
X27090000Y-45646267D01*
X28110000Y-45353733D02*
X28110000Y-45646267D01*
%TO.C,R_1*%
X75379724Y-52240000D02*
X74870276Y-52240000D01*
X75379724Y-53285000D02*
X74870276Y-53285000D01*
%TO.C,J10*%
X50505000Y-101315000D02*
X51885000Y-101315000D01*
X50505000Y-102695000D02*
X50505000Y-101315000D01*
X50505000Y-103965000D02*
X50505000Y-109155000D01*
X50505000Y-103965000D02*
X53265000Y-103965000D01*
X50505000Y-109155000D02*
X53265000Y-109155000D01*
X53265000Y-103965000D02*
X53265000Y-109155000D01*
%TO.C,R11*%
X25546500Y-76927776D02*
X25546500Y-77437224D01*
X26591500Y-76927776D02*
X26591500Y-77437224D01*
%TO.C,Chf1*%
X78578733Y-55052500D02*
X78871267Y-55052500D01*
X78578733Y-56072500D02*
X78871267Y-56072500D01*
%TO.C,SW2*%
X54595000Y-57400000D02*
X60895000Y-57400000D01*
X54595000Y-57650000D02*
X54595000Y-57400000D01*
X54595000Y-62150000D02*
X54595000Y-59550000D01*
X54595000Y-64300000D02*
X54595000Y-64050000D01*
X60895000Y-57400000D02*
X60895000Y-57650000D01*
X60895000Y-59550000D02*
X60895000Y-62150000D01*
X60895000Y-64050000D02*
X60895000Y-64300000D01*
X60895000Y-64300000D02*
X54595000Y-64300000D01*
%TO.C,C_5*%
X74571267Y-55052500D02*
X74278733Y-55052500D01*
X74571267Y-56072500D02*
X74278733Y-56072500D01*
%TO.C,R_3*%
X76782776Y-68440000D02*
X77292224Y-68440000D01*
X76782776Y-69485000D02*
X77292224Y-69485000D01*
%TO.C,C9*%
X21691267Y-92535000D02*
X21398733Y-92535000D01*
X21691267Y-93555000D02*
X21398733Y-93555000D01*
%TO.C,R13*%
X85841000Y-105292224D02*
X85841000Y-104782776D01*
X86886000Y-105292224D02*
X86886000Y-104782776D01*
%TO.C,J1*%
X16575000Y-60830000D02*
X18275000Y-60830000D01*
X16575000Y-70170000D02*
X18275000Y-70170000D01*
%TO.C,R7*%
X53575000Y-54235000D02*
X56035000Y-54235000D01*
X56035000Y-52765000D02*
X53575000Y-52765000D01*
X56035000Y-54235000D02*
X56035000Y-52765000D01*
%TO.C,Cin1*%
X79316233Y-52252500D02*
X79608767Y-52252500D01*
X79316233Y-53272500D02*
X79608767Y-53272500D01*
%TO.C,C10_Bulk1*%
X72565000Y-83815000D02*
X72565000Y-87665000D01*
X72565000Y-94535000D02*
X72565000Y-90685000D01*
X82220563Y-83815000D02*
X72565000Y-83815000D01*
X82220563Y-94535000D02*
X72565000Y-94535000D01*
X83285000Y-84879437D02*
X82220563Y-83815000D01*
X83285000Y-84879437D02*
X83285000Y-87665000D01*
X83285000Y-93470563D02*
X82220563Y-94535000D01*
X83285000Y-93470563D02*
X83285000Y-90685000D01*
X84150000Y-92560000D02*
X84150000Y-91310000D01*
X84775000Y-91935000D02*
X83525000Y-91935000D01*
%TO.C,C10_Bulk2*%
X19047500Y-96599437D02*
X19047500Y-106255000D01*
X19047500Y-106255000D02*
X22897500Y-106255000D01*
X20111937Y-95535000D02*
X19047500Y-96599437D01*
X20111937Y-95535000D02*
X22897500Y-95535000D01*
X27167500Y-94045000D02*
X27167500Y-95295000D01*
X27792500Y-94670000D02*
X26542500Y-94670000D01*
X28703063Y-95535000D02*
X25917500Y-95535000D01*
X28703063Y-95535000D02*
X29767500Y-96599437D01*
X29767500Y-96599437D02*
X29767500Y-106255000D01*
X29767500Y-106255000D02*
X25917500Y-106255000D01*
%TO.C,C10*%
X86004733Y-91965000D02*
X86297267Y-91965000D01*
X86004733Y-92985000D02*
X86297267Y-92985000D01*
%TO.C,D3*%
X91625000Y-73122500D02*
X91625000Y-66112500D01*
X91625000Y-73122500D02*
X94925000Y-73122500D01*
X94925000Y-73122500D02*
X94925000Y-66112500D01*
%TO.C,U9*%
X37315000Y-90452500D02*
X37590000Y-90452500D01*
X37315000Y-95072500D02*
X37315000Y-90452500D01*
X37590000Y-95072500D02*
X37315000Y-95072500D01*
X46960000Y-90452500D02*
X47235000Y-90452500D01*
X47235000Y-90452500D02*
X47235000Y-95072500D01*
X47235000Y-95072500D02*
X46960000Y-95072500D01*
X37585000Y-95712500D02*
X37115000Y-96052500D01*
X37115000Y-95372500D01*
X37585000Y-95712500D01*
G36*
X37585000Y-95712500D02*
G01*
X37115000Y-96052500D01*
X37115000Y-95372500D01*
X37585000Y-95712500D01*
G37*
%TO.C,J19*%
X80450000Y-41725000D02*
X80450000Y-50025000D01*
X80450000Y-50025000D02*
X93300000Y-50025000D01*
X93300000Y-41725000D02*
X80450000Y-41725000D01*
X93300000Y-50025000D02*
X96150000Y-47475000D01*
X96150000Y-44325000D02*
X93300000Y-41725000D01*
X96150000Y-47475000D02*
X96150000Y-44325000D01*
%TO.C,C6*%
X76890000Y-79073752D02*
X76890000Y-77651248D01*
X78710000Y-79073752D02*
X78710000Y-77651248D01*
%TO.C,J9*%
X45915000Y-101315000D02*
X47295000Y-101315000D01*
X45915000Y-102695000D02*
X45915000Y-101315000D01*
X45915000Y-103965000D02*
X45915000Y-109155000D01*
X45915000Y-103965000D02*
X48675000Y-103965000D01*
X45915000Y-109155000D02*
X48675000Y-109155000D01*
X48675000Y-103965000D02*
X48675000Y-109155000D01*
%TO.C,R1*%
X28465000Y-44700000D02*
X28465000Y-47160000D01*
X28465000Y-47160000D02*
X29935000Y-47160000D01*
X29935000Y-47160000D02*
X29935000Y-44700000D01*
%TO.C,R15*%
X19565000Y-58915000D02*
X22025000Y-58915000D01*
X22025000Y-57445000D02*
X19565000Y-57445000D01*
X22025000Y-58915000D02*
X22025000Y-57445000D01*
%TO.C,C4*%
X54778767Y-55790000D02*
X54486233Y-55790000D01*
X54778767Y-56810000D02*
X54486233Y-56810000D01*
%TO.C,D4*%
X25347500Y-69680000D02*
X25347500Y-73980000D01*
X25347500Y-69680000D02*
X31157500Y-69680000D01*
X25347500Y-73980000D02*
X31157500Y-73980000D01*
%TO.C,R16*%
X22225000Y-57445000D02*
X22225000Y-58915000D01*
X22225000Y-58915000D02*
X24685000Y-58915000D01*
X24685000Y-57445000D02*
X22225000Y-57445000D01*
%TO.C,R_6*%
X76770276Y-70840000D02*
X77279724Y-70840000D01*
X76770276Y-71885000D02*
X77279724Y-71885000D01*
%TO.C,C13*%
X33271233Y-66200000D02*
X33563767Y-66200000D01*
X33271233Y-67220000D02*
X33563767Y-67220000D01*
%TO.C,Cout2*%
X93565000Y-60358767D02*
X93565000Y-60066233D01*
X94585000Y-60358767D02*
X94585000Y-60066233D01*
%TO.C,R_2*%
X71779724Y-52240000D02*
X71270276Y-52240000D01*
X71779724Y-53285000D02*
X71270276Y-53285000D01*
%TO.C,C11*%
X87515000Y-90171267D02*
X87515000Y-89878733D01*
X88535000Y-90171267D02*
X88535000Y-89878733D01*
%TO.C,R5*%
X23000000Y-68625000D02*
X25460000Y-68625000D01*
X25460000Y-67155000D02*
X23000000Y-67155000D01*
X25460000Y-68625000D02*
X25460000Y-67155000D01*
%TO.C,C7*%
X23897500Y-92048733D02*
X23897500Y-92341267D01*
X24917500Y-92048733D02*
X24917500Y-92341267D01*
%TO.C,U3*%
X81890000Y-74852500D02*
X81890000Y-76112500D01*
X81890000Y-81672500D02*
X81890000Y-80412500D01*
X85650000Y-74852500D02*
X81890000Y-74852500D01*
X85650000Y-81672500D02*
X81890000Y-81672500D01*
X86930000Y-81572500D02*
X87170000Y-81902500D01*
X86690000Y-81902500D01*
X86930000Y-81572500D01*
G36*
X87170000Y-81902500D02*
G01*
X86690000Y-81902500D01*
X86930000Y-81572500D01*
X87170000Y-81902500D01*
G37*
%TO.C,J15*%
X55170000Y-96935000D02*
X56380000Y-96935000D01*
X55170000Y-108655000D02*
X55170000Y-96935000D01*
X56380000Y-96935000D02*
X56380000Y-96435000D01*
X56380000Y-108655000D02*
X55170000Y-108655000D01*
X56380000Y-109155000D02*
X56380000Y-108655000D01*
X56490000Y-109455000D02*
X58990000Y-109455000D01*
X57190000Y-96435000D02*
X57190000Y-97435000D01*
X57190000Y-97435000D02*
X58690000Y-97435000D01*
X57190000Y-108155000D02*
X58690000Y-108155000D01*
X57190000Y-109155000D02*
X57190000Y-108155000D01*
X58990000Y-109455000D02*
X58990000Y-106955000D01*
X54670000Y-96435000D02*
X58690000Y-96435000D01*
X58690000Y-109155000D01*
X54670000Y-109155000D01*
X54670000Y-96435000D01*
%TO.C,SW1*%
X15665000Y-41580000D02*
X21965000Y-41580000D01*
X15665000Y-41830000D02*
X15665000Y-41580000D01*
X15665000Y-46330000D02*
X15665000Y-43730000D01*
X15665000Y-48480000D02*
X15665000Y-48230000D01*
X21965000Y-41580000D02*
X21965000Y-41830000D01*
X21965000Y-43730000D02*
X21965000Y-46330000D01*
X21965000Y-48230000D02*
X21965000Y-48480000D01*
X21965000Y-48480000D02*
X15665000Y-48480000D01*
%TO.C,J8*%
X41325000Y-101315000D02*
X42705000Y-101315000D01*
X41325000Y-102695000D02*
X41325000Y-101315000D01*
X41325000Y-103965000D02*
X41325000Y-109155000D01*
X41325000Y-103965000D02*
X44085000Y-103965000D01*
X41325000Y-109155000D02*
X44085000Y-109155000D01*
X44085000Y-103965000D02*
X44085000Y-109155000D01*
%TO.C,R9*%
X21052776Y-76372500D02*
X21562224Y-76372500D01*
X21052776Y-77417500D02*
X21562224Y-77417500D01*
%TO.C,U4*%
X61715000Y-92747500D02*
X61715000Y-88127500D01*
X69785000Y-88127500D02*
X69785000Y-92747500D01*
X62170000Y-94297500D02*
X62410000Y-94627500D01*
X61930000Y-94627500D01*
X62170000Y-94297500D01*
G36*
X62410000Y-94627500D02*
G01*
X61930000Y-94627500D01*
X62170000Y-94297500D01*
X62410000Y-94627500D01*
G37*
%TO.C,U5*%
D15*
X22294000Y-81725000D02*
X22294000Y-86125000D01*
X27894000Y-81725000D02*
X27894000Y-86125000D01*
D16*
X27594000Y-79725000D02*
G75*
G02*
X27394000Y-79725000I-100000J0D01*
G01*
X27394000Y-79725000D02*
G75*
G02*
X27594000Y-79725000I100000J0D01*
G01*
%TO.C,J6*%
D14*
X32145000Y-101315000D02*
X33525000Y-101315000D01*
X32145000Y-102695000D02*
X32145000Y-101315000D01*
X32145000Y-103965000D02*
X32145000Y-109155000D01*
X32145000Y-103965000D02*
X34905000Y-103965000D01*
X32145000Y-109155000D02*
X34905000Y-109155000D01*
X34905000Y-103965000D02*
X34905000Y-109155000D01*
%TO.C,C5*%
X88890000Y-77601248D02*
X88890000Y-79023752D01*
X90710000Y-77601248D02*
X90710000Y-79023752D01*
%TO.C,J2*%
X13400000Y-52960000D02*
X13800000Y-52960000D01*
X13400000Y-53060000D02*
X13800000Y-53060000D01*
X13800000Y-52960000D02*
X13800000Y-53160000D01*
X13800000Y-53160000D02*
X13400000Y-53160000D01*
X14810000Y-50700000D02*
X14810000Y-51100000D01*
X14810000Y-55420000D02*
X14810000Y-55020000D01*
X15810000Y-50700000D02*
X15810000Y-51100000D01*
X15810000Y-55420000D02*
X15810000Y-55020000D01*
X16720000Y-52010000D02*
X16920000Y-52010000D01*
X16820000Y-52010000D02*
X16820000Y-51710000D01*
X16920000Y-50500000D02*
X16120000Y-50500000D01*
X16920000Y-51300000D02*
X16920000Y-50500000D01*
X16920000Y-51710000D02*
X16720000Y-51710000D01*
X16920000Y-52010000D02*
X16920000Y-51710000D01*
X13400000Y-51100000D02*
X16320000Y-51100000D01*
X16320000Y-55020000D01*
X13400000Y-55020000D01*
X13400000Y-51100000D01*
X13000000Y-50700000D02*
X16720000Y-50700000D01*
X16720000Y-55420000D01*
X13000000Y-55420000D01*
X13000000Y-50700000D01*
%TO.C,U1*%
D16*
X35700000Y-67410000D02*
X35700000Y-85190000D01*
X38240000Y-87730000D02*
X58560000Y-87730000D01*
X58560000Y-64870000D02*
X38240000Y-64870000D01*
X61100000Y-85190000D02*
X61100000Y-67410000D01*
X35700000Y-67410000D02*
G75*
G02*
X38240000Y-64870000I2540000J0D01*
G01*
X38240000Y-87730000D02*
G75*
G02*
X35700000Y-85190000I0J2540000D01*
G01*
X58560000Y-64870000D02*
G75*
G02*
X61100000Y-67410000I-1J-2540001D01*
G01*
X61100000Y-85190000D02*
G75*
G02*
X58560000Y-87730000I-2540001J1D01*
G01*
%TO.C,R4*%
D14*
X23000000Y-64985000D02*
X25460000Y-64985000D01*
X25460000Y-63515000D02*
X23000000Y-63515000D01*
X25460000Y-64985000D02*
X25460000Y-63515000D01*
%TO.C,C_6*%
X73852500Y-67516233D02*
X73852500Y-67808767D01*
X74872500Y-67516233D02*
X74872500Y-67808767D01*
%TO.C,J3*%
X15087500Y-80985000D02*
X21527500Y-80985000D01*
X15087500Y-81575000D02*
X15087500Y-80985000D01*
X15087500Y-84115000D02*
X15087500Y-83635000D01*
X15087500Y-86765000D02*
X15087500Y-86175000D01*
X15707500Y-80985000D02*
X15707500Y-81575000D01*
X15707500Y-83635000D02*
X15707500Y-84115000D01*
X15707500Y-86175000D02*
X15707500Y-86765000D01*
X21007500Y-80985000D02*
X21007500Y-86765000D01*
X21527500Y-80985000D02*
X21527500Y-86765000D01*
X21527500Y-86765000D02*
X15087500Y-86765000D01*
X14737500Y-82605000D02*
X14127500Y-83045000D01*
X14127500Y-82165000D01*
X14737500Y-82605000D01*
G36*
X14737500Y-82605000D02*
G01*
X14127500Y-83045000D01*
X14127500Y-82165000D01*
X14737500Y-82605000D01*
G37*
%TO.C,J16*%
X74470000Y-96935000D02*
X75680000Y-96935000D01*
X74470000Y-108655000D02*
X74470000Y-96935000D01*
X75680000Y-96935000D02*
X75680000Y-96435000D01*
X75680000Y-108655000D02*
X74470000Y-108655000D01*
X75680000Y-109155000D02*
X75680000Y-108655000D01*
X75790000Y-109455000D02*
X78290000Y-109455000D01*
X76490000Y-96435000D02*
X76490000Y-97435000D01*
X76490000Y-97435000D02*
X77990000Y-97435000D01*
X76490000Y-108155000D02*
X77990000Y-108155000D01*
X76490000Y-109155000D02*
X76490000Y-108155000D01*
X78290000Y-109455000D02*
X78290000Y-106955000D01*
X73970000Y-96435000D02*
X77990000Y-96435000D01*
X77990000Y-109155000D01*
X73970000Y-109155000D01*
X73970000Y-96435000D01*
%TO.C,C_4*%
X80115000Y-65758767D02*
X80115000Y-65466233D01*
X81135000Y-65758767D02*
X81135000Y-65466233D01*
%TO.C,C2*%
X24590000Y-45513748D02*
X24590000Y-46936252D01*
X26410000Y-45513748D02*
X26410000Y-46936252D01*
%TD*%
M02*
