%TF.GenerationSoftware,KiCad,Pcbnew,10.0.5-10.0.5~ubuntu24.04.1*%
%TF.CreationDate,2026-09-15T12:25:00-05:00*%
%TF.ProjectId,ORCA-BOARD,4f524341-2d42-44f4-9152-442e6b696361,rev?*%
%TF.SameCoordinates,Original*%
%TF.FileFunction,Soldermask,Top*%
%TF.FilePolarity,Negative*%
%FSLAX46Y46*%
G04 Gerber Fmt 4.6, Leading zero omitted, Abs format (unit mm)*
G04 Created by KiCad (PCBNEW 10.0.5-10.0.5~ubuntu24.04.1) date 2026-09-15 12:25:00*
%MOMM*%
%LPD*%
G01*
G04 APERTURE LIST*
G04 Aperture macros list*
%AMRoundRect*
0 Rectangle with rounded corners*
0 $1 Rounding radius*
0 $2 $3 $4 $5 $6 $7 $8 $9 X,Y pos of 4 corners*
0 Add a 4 corners polygon primitive as box body*
4,1,4,$2,$3,$4,$5,$6,$7,$8,$9,$2,$3,0*
0 Add four circle primitives for the rounded corners*
1,1,$1+$1,$2,$3*
1,1,$1+$1,$4,$5*
1,1,$1+$1,$6,$7*
1,1,$1+$1,$8,$9*
0 Add four rect primitives between the rounded corners*
20,1,$1+$1,$2,$3,$4,$5,0*
20,1,$1+$1,$4,$5,$6,$7,0*
20,1,$1+$1,$6,$7,$8,$9,0*
20,1,$1+$1,$8,$9,$2,$3,0*%
G04 Aperture macros list end*
%ADD10RoundRect,0.250000X1.400000X1.000000X-1.400000X1.000000X-1.400000X-1.000000X1.400000X-1.000000X0*%
%ADD11RoundRect,0.237500X0.287500X0.237500X-0.287500X0.237500X-0.287500X-0.237500X0.287500X-0.237500X0*%
%ADD12RoundRect,0.250000X-0.650000X1.500000X-0.650000X-1.500000X0.650000X-1.500000X0.650000X1.500000X0*%
%ADD13RoundRect,1.500000X1.500000X1.500000X-1.500000X1.500000X-1.500000X-1.500000X1.500000X-1.500000X0*%
%ADD14C,6.000000*%
%ADD15RoundRect,0.250000X0.750000X-0.600000X0.750000X0.600000X-0.750000X0.600000X-0.750000X-0.600000X0*%
%ADD16O,2.000000X1.700000*%
%ADD17RoundRect,0.237500X-0.237500X0.300000X-0.237500X-0.300000X0.237500X-0.300000X0.237500X0.300000X0*%
%ADD18RoundRect,0.237500X0.237500X-0.250000X0.237500X0.250000X-0.237500X0.250000X-0.237500X-0.250000X0*%
%ADD19RoundRect,0.237500X0.300000X0.237500X-0.300000X0.237500X-0.300000X-0.237500X0.300000X-0.237500X0*%
%ADD20RoundRect,0.237500X-0.300000X-0.237500X0.300000X-0.237500X0.300000X0.237500X-0.300000X0.237500X0*%
%ADD21RoundRect,0.237500X-0.287500X-0.237500X0.287500X-0.237500X0.287500X0.237500X-0.287500X0.237500X0*%
%ADD22R,1.500000X0.900000*%
%ADD23R,0.900000X1.500000*%
%ADD24C,0.600000*%
%ADD25R,3.900000X3.900000*%
%ADD26R,1.500000X2.200000*%
%ADD27RoundRect,0.150000X-0.150000X0.825000X-0.150000X-0.825000X0.150000X-0.825000X0.150000X0.825000X0*%
%ADD28C,1.100000*%
%ADD29RoundRect,0.249999X0.850001X-0.850001X0.850001X0.850001X-0.850001X0.850001X-0.850001X-0.850001X0*%
%ADD30C,2.200000*%
%ADD31RoundRect,0.153250X0.153750X-0.733750X0.153750X0.733750X-0.153750X0.733750X-0.153750X-0.733750X0*%
%ADD32RoundRect,0.102000X1.700000X-1.240000X1.700000X1.240000X-1.700000X1.240000X-1.700000X-1.240000X0*%
%ADD33RoundRect,0.250000X0.725000X-0.600000X0.725000X0.600000X-0.725000X0.600000X-0.725000X-0.600000X0*%
%ADD34O,1.950000X1.700000*%
%ADD35RoundRect,0.237500X0.237500X-0.287500X0.237500X0.287500X-0.237500X0.287500X-0.237500X-0.287500X0*%
%ADD36RoundRect,0.237500X0.237500X-0.300000X0.237500X0.300000X-0.237500X0.300000X-0.237500X-0.300000X0*%
%ADD37R,1.181100X0.558800*%
%ADD38R,1.700000X1.700000*%
%ADD39C,1.700000*%
%ADD40RoundRect,0.237500X-0.237500X0.250000X-0.237500X-0.250000X0.237500X-0.250000X0.237500X0.250000X0*%
%ADD41RoundRect,0.237500X0.250000X0.237500X-0.250000X0.237500X-0.250000X-0.237500X0.250000X-0.237500X0*%
%ADD42R,1.550000X1.300000*%
%ADD43RoundRect,0.237500X-0.250000X-0.237500X0.250000X-0.237500X0.250000X0.237500X-0.250000X0.237500X0*%
%ADD44C,0.650000*%
%ADD45RoundRect,0.150000X-0.425000X0.150000X-0.425000X-0.150000X0.425000X-0.150000X0.425000X0.150000X0*%
%ADD46RoundRect,0.075000X-0.500000X0.075000X-0.500000X-0.075000X0.500000X-0.075000X0.500000X0.075000X0*%
%ADD47O,2.100000X1.000000*%
%ADD48O,1.800000X1.000000*%
%ADD49RoundRect,0.250000X1.950000X1.000000X-1.950000X1.000000X-1.950000X-1.000000X1.950000X-1.000000X0*%
%ADD50RoundRect,0.250000X-1.000000X1.950000X-1.000000X-1.950000X1.000000X-1.950000X1.000000X1.950000X0*%
%ADD51RoundRect,0.250000X0.650000X-1.500000X0.650000X1.500000X-0.650000X1.500000X-0.650000X-1.500000X0*%
%ADD52RoundRect,0.100000X0.100000X-0.637500X0.100000X0.637500X-0.100000X0.637500X-0.100000X-0.637500X0*%
%ADD53RoundRect,0.250000X0.650000X-0.412500X0.650000X0.412500X-0.650000X0.412500X-0.650000X-0.412500X0*%
%ADD54RoundRect,0.250000X-1.000000X-0.900000X1.000000X-0.900000X1.000000X0.900000X-1.000000X0.900000X0*%
%ADD55RoundRect,0.375000X0.625000X0.375000X-0.625000X0.375000X-0.625000X-0.375000X0.625000X-0.375000X0*%
%ADD56RoundRect,0.500000X0.500000X1.400000X-0.500000X1.400000X-0.500000X-1.400000X0.500000X-1.400000X0*%
%ADD57RoundRect,0.153250X-0.153750X0.733750X-0.153750X-0.733750X0.153750X-0.733750X0.153750X0.733750X0*%
%ADD58RoundRect,0.102000X-1.700000X1.240000X-1.700000X-1.240000X1.700000X-1.240000X1.700000X1.240000X0*%
%ADD59RoundRect,0.250000X-0.650000X0.412500X-0.650000X-0.412500X0.650000X-0.412500X0.650000X0.412500X0*%
%ADD60RoundRect,0.250000X-0.615000X0.265000X-0.615000X-0.265000X0.615000X-0.265000X0.615000X0.265000X0*%
%ADD61O,1.730000X1.030000*%
%ADD62C,3.301600*%
%ADD63C,1.879600*%
%ADD64RoundRect,0.249999X-0.850001X0.850001X-0.850001X-0.850001X0.850001X-0.850001X0.850001X0.850001X0*%
G04 APERTURE END LIST*
D10*
%TO.C,D_2*%
X85475000Y-63362500D03*
X85475000Y-56562500D03*
%TD*%
D11*
%TO.C,R6*%
X75575000Y-76662500D03*
X73825000Y-76662500D03*
%TD*%
D12*
%TO.C,D2*%
X93400000Y-75812500D03*
X93400000Y-80812500D03*
%TD*%
D13*
%TO.C,J20*%
X71450000Y-45875000D03*
D14*
X64250000Y-45875000D03*
%TD*%
D15*
%TO.C,J5*%
X54525000Y-46900000D03*
D16*
X54525000Y-44400000D03*
%TD*%
D11*
%TO.C,R8*%
X58575000Y-52300000D03*
X56825000Y-52300000D03*
%TD*%
D17*
%TO.C,C3*%
X30800000Y-44637500D03*
X30800000Y-46362500D03*
%TD*%
D18*
%TO.C,R12*%
X87875000Y-105937500D03*
X87875000Y-104112500D03*
%TD*%
D19*
%TO.C,C8*%
X27144000Y-89745000D03*
X25419000Y-89745000D03*
%TD*%
D20*
%TO.C,C_7*%
X76162500Y-66362500D03*
X77887500Y-66362500D03*
%TD*%
D21*
%TO.C,R2*%
X25625000Y-53500000D03*
X27375000Y-53500000D03*
%TD*%
D22*
%TO.C,U2*%
X33400000Y-42100000D03*
X33400000Y-43370000D03*
X33400000Y-44640000D03*
X33400000Y-45910000D03*
X33400000Y-47180000D03*
X33400000Y-48450000D03*
X33400000Y-49720000D03*
X33400000Y-50990000D03*
X33400000Y-52260000D03*
X33400000Y-53530000D03*
X33400000Y-54800000D03*
X33400000Y-56070000D03*
X33400000Y-57340000D03*
X33400000Y-58610000D03*
D23*
X35165000Y-59860000D03*
X36435000Y-59860000D03*
X37705000Y-59860000D03*
X38975000Y-59860000D03*
X40245000Y-59860000D03*
X41515000Y-59860000D03*
X42785000Y-59860000D03*
X44055000Y-59860000D03*
X45325000Y-59860000D03*
X46595000Y-59860000D03*
X47865000Y-59860000D03*
X49135000Y-59860000D03*
D22*
X50900000Y-58610000D03*
X50900000Y-57340000D03*
X50900000Y-56070000D03*
X50900000Y-54800000D03*
X50900000Y-53530000D03*
X50900000Y-52260000D03*
X50900000Y-50990000D03*
X50900000Y-49720000D03*
X50900000Y-48450000D03*
X50900000Y-47180000D03*
X50900000Y-45910000D03*
X50900000Y-44640000D03*
X50900000Y-43370000D03*
X50900000Y-42100000D03*
D24*
X39250000Y-49120000D03*
X39250000Y-50520000D03*
X39950000Y-48420000D03*
X39950000Y-49820000D03*
X39950000Y-51220000D03*
X40650000Y-49120000D03*
D25*
X40650000Y-49820000D03*
D24*
X40650000Y-50520000D03*
X41350000Y-48420000D03*
X41350000Y-49820000D03*
X41350000Y-51220000D03*
X42050000Y-49120000D03*
X42050000Y-50520000D03*
%TD*%
D18*
%TO.C,R_5*%
X74375000Y-72425000D03*
X74375000Y-70600000D03*
%TD*%
D26*
%TO.C,L1*%
X82550000Y-69825000D03*
X88950000Y-69825000D03*
%TD*%
D27*
%TO.C,U7*%
X23005000Y-51025000D03*
X21735000Y-51025000D03*
X20465000Y-51025000D03*
X19195000Y-51025000D03*
X19195000Y-55975000D03*
X20465000Y-55975000D03*
X21735000Y-55975000D03*
X23005000Y-55975000D03*
%TD*%
D28*
%TO.C,J4*%
X96415000Y-99675000D03*
X96415000Y-97135000D03*
D29*
X93875000Y-99675000D03*
D30*
X93875000Y-97135000D03*
%TD*%
D31*
%TO.C,U6*%
X85063500Y-101165000D03*
X85713500Y-101165000D03*
X86363500Y-101165000D03*
X87013500Y-101165000D03*
X87663500Y-101165000D03*
X88313500Y-101165000D03*
X88963500Y-101165000D03*
X89613500Y-101165000D03*
X89613500Y-95425000D03*
X88963500Y-95425000D03*
X88313500Y-95425000D03*
X87663500Y-95425000D03*
X87013500Y-95425000D03*
X86363500Y-95425000D03*
X85713500Y-95425000D03*
X85063500Y-95425000D03*
D32*
X87338500Y-98295000D03*
%TD*%
D33*
%TO.C,J17*%
X69246667Y-106545000D03*
D34*
X69246667Y-104045000D03*
X69246667Y-101545000D03*
X69246667Y-99045000D03*
%TD*%
D35*
%TO.C,D1*%
X73800000Y-80087500D03*
X73800000Y-78337500D03*
%TD*%
D21*
%TO.C,R3*%
X29125000Y-54800000D03*
X30875000Y-54800000D03*
%TD*%
D36*
%TO.C,Cout1*%
X90675000Y-61075000D03*
X90675000Y-59350000D03*
%TD*%
D20*
%TO.C,C12*%
X90025000Y-89175000D03*
X91750000Y-89175000D03*
%TD*%
D37*
%TO.C,U10*%
X27245000Y-65760000D03*
X27245000Y-66710001D03*
X27245000Y-67660002D03*
X30178700Y-67660002D03*
X30178700Y-66710001D03*
X30178700Y-65760000D03*
%TD*%
D38*
%TO.C,J7*%
X38115000Y-102695000D03*
D39*
X38115000Y-105235000D03*
X38115000Y-107775000D03*
%TD*%
D40*
%TO.C,R10*%
X24557500Y-76282500D03*
X24557500Y-78107500D03*
%TD*%
D41*
%TO.C,R14*%
X92037500Y-105325000D03*
X90212500Y-105325000D03*
%TD*%
D33*
%TO.C,J14*%
X62813333Y-106545000D03*
D34*
X62813333Y-104045000D03*
X62813333Y-101545000D03*
X62813333Y-99045000D03*
%TD*%
D27*
%TO.C,U8*%
X79130000Y-58387500D03*
X77860000Y-58387500D03*
X76590000Y-58387500D03*
X75320000Y-58387500D03*
X75320000Y-63337500D03*
X76590000Y-63337500D03*
X77860000Y-63337500D03*
X79130000Y-63337500D03*
%TD*%
D17*
%TO.C,C1*%
X27600000Y-44637500D03*
X27600000Y-46362500D03*
%TD*%
D41*
%TO.C,R_1*%
X76037500Y-52762500D03*
X74212500Y-52762500D03*
%TD*%
D38*
%TO.C,J10*%
X51885000Y-102695000D03*
D39*
X51885000Y-105235000D03*
X51885000Y-107775000D03*
%TD*%
D40*
%TO.C,R11*%
X26069000Y-76270000D03*
X26069000Y-78095000D03*
%TD*%
D20*
%TO.C,Chf1*%
X77862500Y-55562500D03*
X79587500Y-55562500D03*
%TD*%
D42*
%TO.C,SW2*%
X61720000Y-63100000D03*
X61720000Y-58600000D03*
X53770000Y-58600000D03*
X53770000Y-63100000D03*
%TD*%
D19*
%TO.C,C_5*%
X75287500Y-55562500D03*
X73562500Y-55562500D03*
%TD*%
D43*
%TO.C,R_3*%
X76125000Y-68962500D03*
X77950000Y-68962500D03*
%TD*%
D19*
%TO.C,C9*%
X22407500Y-93045000D03*
X20682500Y-93045000D03*
%TD*%
D18*
%TO.C,R13*%
X86363500Y-105950000D03*
X86363500Y-104125000D03*
%TD*%
D44*
%TO.C,J1*%
X19080000Y-62610000D03*
X19080000Y-68390000D03*
D45*
X20155000Y-62300000D03*
X20155000Y-63100000D03*
D46*
X20155000Y-64250000D03*
X20155000Y-65250000D03*
X20155000Y-65750000D03*
X20155000Y-66750000D03*
D45*
X20155000Y-67900000D03*
X20155000Y-68700000D03*
X20155000Y-68700000D03*
X20155000Y-67900000D03*
D46*
X20155000Y-67250000D03*
X20155000Y-66250000D03*
X20155000Y-64750000D03*
X20155000Y-63750000D03*
D45*
X20155000Y-63100000D03*
X20155000Y-62300000D03*
D47*
X19580000Y-61180000D03*
D48*
X15400000Y-61180000D03*
D47*
X19580000Y-69820000D03*
D48*
X15400000Y-69820000D03*
%TD*%
D11*
%TO.C,R7*%
X55250000Y-53500000D03*
X53500000Y-53500000D03*
%TD*%
D20*
%TO.C,Cin1*%
X78600000Y-52762500D03*
X80325000Y-52762500D03*
%TD*%
D49*
%TO.C,C10_Bulk1*%
X82125000Y-89175000D03*
X73725000Y-89175000D03*
%TD*%
D50*
%TO.C,C10_Bulk2*%
X24407500Y-96695000D03*
X24407500Y-105095000D03*
%TD*%
D20*
%TO.C,C10*%
X85288500Y-92475000D03*
X87013500Y-92475000D03*
%TD*%
D51*
%TO.C,D3*%
X93275000Y-71112500D03*
X93275000Y-66112500D03*
%TD*%
D52*
%TO.C,U9*%
X38050000Y-95625000D03*
X38700000Y-95625000D03*
X39350000Y-95625000D03*
X40000000Y-95625000D03*
X40650000Y-95625000D03*
X41300000Y-95625000D03*
X41950000Y-95625000D03*
X42600000Y-95625000D03*
X43250000Y-95625000D03*
X43900000Y-95625000D03*
X44550000Y-95625000D03*
X45200000Y-95625000D03*
X45850000Y-95625000D03*
X46500000Y-95625000D03*
X46500000Y-89900000D03*
X45850000Y-89900000D03*
X45200000Y-89900000D03*
X44550000Y-89900000D03*
X43900000Y-89900000D03*
X43250000Y-89900000D03*
X42600000Y-89900000D03*
X41950000Y-89900000D03*
X41300000Y-89900000D03*
X40650000Y-89900000D03*
X40000000Y-89900000D03*
X39350000Y-89900000D03*
X38700000Y-89900000D03*
X38050000Y-89900000D03*
%TD*%
D13*
%TO.C,J19*%
X91900000Y-45875000D03*
D14*
X84700000Y-45875000D03*
%TD*%
D53*
%TO.C,C6*%
X77800000Y-79925000D03*
X77800000Y-76800000D03*
%TD*%
D38*
%TO.C,J9*%
X47295000Y-102695000D03*
D39*
X47295000Y-105235000D03*
X47295000Y-107775000D03*
%TD*%
D35*
%TO.C,R1*%
X29200000Y-46375000D03*
X29200000Y-44625000D03*
%TD*%
D11*
%TO.C,R15*%
X21240000Y-58180000D03*
X19490000Y-58180000D03*
%TD*%
D19*
%TO.C,C4*%
X55495000Y-56300000D03*
X53770000Y-56300000D03*
%TD*%
D54*
%TO.C,D4*%
X26857500Y-71830000D03*
X31157500Y-71830000D03*
%TD*%
D21*
%TO.C,R16*%
X23010000Y-58180000D03*
X24760000Y-58180000D03*
%TD*%
D43*
%TO.C,R_6*%
X76112500Y-71362500D03*
X77937500Y-71362500D03*
%TD*%
D20*
%TO.C,C13*%
X32555000Y-66710000D03*
X34280000Y-66710000D03*
%TD*%
D36*
%TO.C,Cout2*%
X94075000Y-61075000D03*
X94075000Y-59350000D03*
%TD*%
D41*
%TO.C,R_2*%
X72437500Y-52762500D03*
X70612500Y-52762500D03*
%TD*%
D36*
%TO.C,C11*%
X88025000Y-90887500D03*
X88025000Y-89162500D03*
%TD*%
D11*
%TO.C,R5*%
X24675000Y-67890000D03*
X22925000Y-67890000D03*
%TD*%
D17*
%TO.C,C7*%
X24407500Y-91332500D03*
X24407500Y-93057500D03*
%TD*%
D55*
%TO.C,U3*%
X86950000Y-80562500D03*
X86950000Y-78262500D03*
D56*
X80650000Y-78262500D03*
D55*
X86950000Y-75962500D03*
%TD*%
D33*
%TO.C,J15*%
X56380000Y-106545000D03*
D34*
X56380000Y-104045000D03*
X56380000Y-101545000D03*
X56380000Y-99045000D03*
%TD*%
D42*
%TO.C,SW1*%
X14840000Y-42780000D03*
X14840000Y-47280000D03*
X22790000Y-47280000D03*
X22790000Y-42780000D03*
%TD*%
D38*
%TO.C,J8*%
X42705000Y-102695000D03*
D39*
X42705000Y-105235000D03*
X42705000Y-107775000D03*
%TD*%
D43*
%TO.C,R9*%
X20395000Y-76895000D03*
X22220000Y-76895000D03*
%TD*%
D52*
%TO.C,U4*%
X62175000Y-93300000D03*
X62825000Y-93300000D03*
X63475000Y-93300000D03*
X64125000Y-93300000D03*
X64775000Y-93300000D03*
X65425000Y-93300000D03*
X66075000Y-93300000D03*
X66725000Y-93300000D03*
X67375000Y-93300000D03*
X68025000Y-93300000D03*
X68675000Y-93300000D03*
X69325000Y-93300000D03*
X69325000Y-87575000D03*
X68675000Y-87575000D03*
X68025000Y-87575000D03*
X67375000Y-87575000D03*
X66725000Y-87575000D03*
X66075000Y-87575000D03*
X65425000Y-87575000D03*
X64775000Y-87575000D03*
X64125000Y-87575000D03*
X63475000Y-87575000D03*
X62825000Y-87575000D03*
X62175000Y-87575000D03*
%TD*%
D57*
%TO.C,U5*%
X27369000Y-81055000D03*
X26719000Y-81055000D03*
X26069000Y-81055000D03*
X25419000Y-81055000D03*
X24769000Y-81055000D03*
X24119000Y-81055000D03*
X23469000Y-81055000D03*
X22819000Y-81055000D03*
X22819000Y-86795000D03*
X23469000Y-86795000D03*
X24119000Y-86795000D03*
X24769000Y-86795000D03*
X25419000Y-86795000D03*
X26069000Y-86795000D03*
X26719000Y-86795000D03*
X27369000Y-86795000D03*
D58*
X25094000Y-83925000D03*
%TD*%
D38*
%TO.C,J6*%
X33525000Y-102695000D03*
D39*
X33525000Y-105235000D03*
X33525000Y-107775000D03*
%TD*%
D59*
%TO.C,C5*%
X89800000Y-76750000D03*
X89800000Y-79875000D03*
%TD*%
D60*
%TO.C,J2*%
X15310000Y-52310000D03*
D61*
X15310000Y-53810000D03*
%TD*%
D62*
%TO.C,U1*%
X58560000Y-85190000D03*
X58560000Y-67410000D03*
X38240000Y-85190000D03*
X38240000Y-67410000D03*
D63*
X54750000Y-67410000D03*
X52210000Y-67410000D03*
X49670000Y-67410000D03*
X47130000Y-67410000D03*
X44590000Y-67410000D03*
X42050000Y-67410000D03*
X54750000Y-85190000D03*
X52210000Y-85190000D03*
X49670000Y-85190000D03*
X47130000Y-85190000D03*
X44590000Y-85190000D03*
X42050000Y-85190000D03*
%TD*%
D11*
%TO.C,R4*%
X24675000Y-64250000D03*
X22925000Y-64250000D03*
%TD*%
D17*
%TO.C,C_6*%
X74362500Y-66800000D03*
X74362500Y-68525000D03*
%TD*%
D28*
%TO.C,J3*%
X15767500Y-82605000D03*
X15767500Y-85145000D03*
D64*
X18307500Y-82605000D03*
D30*
X18307500Y-85145000D03*
%TD*%
D33*
%TO.C,J16*%
X75680000Y-106545000D03*
D34*
X75680000Y-104045000D03*
X75680000Y-101545000D03*
X75680000Y-99045000D03*
%TD*%
D36*
%TO.C,C_4*%
X80625000Y-66475000D03*
X80625000Y-64750000D03*
%TD*%
D59*
%TO.C,C2*%
X25500000Y-44662500D03*
X25500000Y-47787500D03*
%TD*%
M02*
