ISO-10303-21;
HEADER;
FILE_DESCRIPTION (( 'STEP AP214' ),
    '1' );
FILE_NAME ('CSR2512JT60L0.STEP',
    '2020-12-18T20:53:21',
    ( '' ),
    ( '' ),
    'SwSTEP 2.0',
    'SolidWorks 2018',
    '' );
FILE_SCHEMA (( 'AUTOMOTIVE_DESIGN' ));
ENDSEC;

DATA;
#1 = ORIENTED_EDGE ( 'NONE', *, *, #568, .T. ) ;
#2 = DIRECTION ( 'NONE',  ( 0.000000000000000000, 0.000000000000000000, 1.000000000000000000 ) ) ;
#3 = VERTEX_POINT ( 'NONE', #673 ) ;
#4 = VERTEX_POINT ( 'NONE', #604 ) ;
#5 = VECTOR ( 'NONE', #424, 1000.000000000000000 ) ;
#6 = DIRECTION ( 'NONE',  ( -0.000000000000000000, 1.000000000000000000, -0.000000000000000000 ) ) ;
#7 = EDGE_LOOP ( 'NONE', ( #70, #408, #374, #397 ) ) ;
#8 = VERTEX_POINT ( 'NONE', #154 ) ;
#9 = DIRECTION ( 'NONE',  ( 1.000000000000000000, -1.184201401986594914E-16, 0.000000000000000000 ) ) ;
#10 = CARTESIAN_POINT ( 'NONE',  ( -3.174999999999999378, -3.888253587292845588E-16, 1.574999999999999956 ) ) ;
#11 = DIRECTION ( 'NONE',  ( 1.000000000000000000, -8.260587980841941245E-17, 0.000000000000000000 ) ) ;
#12 = FACE_OUTER_BOUND ( 'NONE', #105, .T. ) ;
#13 = CARTESIAN_POINT ( 'NONE',  ( -2.625000000000000000, -5.457499489587565478, -1.574999999999999956 ) ) ;
#14 = FACE_OUTER_BOUND ( 'NONE', #615, .T. ) ;
#15 = EDGE_CURVE ( 'NONE', #811, #324, #823, .T. ) ;
#16 = LINE ( 'NONE', #920, #785 ) ;
#17 = ORIENTED_EDGE ( 'NONE', *, *, #245, .T. ) ;
#18 = VERTEX_POINT ( 'NONE', #64 ) ;
#19 = AXIS2_PLACEMENT_3D ( 'NONE', #142, #150, #359 ) ;
#20 = FACE_OUTER_BOUND ( 'NONE', #753, .T. ) ;
#21 = AXIS2_PLACEMENT_3D ( 'NONE', #741, #602, #219 ) ;
#22 = ORIENTED_EDGE ( 'NONE', *, *, #810, .T. ) ;
#23 = CARTESIAN_POINT ( 'NONE',  ( -3.139999999999999680, 0.03499999999999975353, 1.574999999999999956 ) ) ;
#24 = ORIENTED_EDGE ( 'NONE', *, *, #67, .F. ) ;
#25 = ORIENTED_EDGE ( 'NONE', *, *, #175, .T. ) ;
#26 = ORIENTED_EDGE ( 'NONE', *, *, #351, .F. ) ;
#27 = LINE ( 'NONE', #516, #916 ) ;
#28 = SURFACE_SIDE_STYLE ('',( #802 ) ) ;
#29 = EDGE_CURVE ( 'NONE', #467, #587, #642, .T. ) ;
#30 = ORIENTED_EDGE ( 'NONE', *, *, #234, .F. ) ;
#31 = CARTESIAN_POINT ( 'NONE',  ( 2.624999999999999112, -5.457499489587566366, 1.574999999999999956 ) ) ;
#32 = ORIENTED_EDGE ( 'NONE', *, *, #603, .F. ) ;
#33 = ORIENTED_EDGE ( 'NONE', *, *, #457, .T. ) ;
#34 = CARTESIAN_POINT ( 'NONE',  ( 2.624999999999999556, 0.6649999999999995914, 1.574999999999999956 ) ) ;
#35 = ADVANCED_FACE ( 'NONE', ( #608 ), #597, .F. ) ;
#36 = PLANE ( 'NONE',  #42 ) ;
#37 = EDGE_CURVE ( 'NONE', #379, #751, #242, .T. ) ;
#38 = DIRECTION ( 'NONE',  ( -0.000000000000000000, -0.000000000000000000, -1.000000000000000000 ) ) ;
#39 = FACE_OUTER_BOUND ( 'NONE', #918, .T. ) ;
#40 = ADVANCED_FACE ( 'NONE', ( #891 ), #144, .T. ) ;
#41 = LINE ( 'NONE', #507, #814 ) ;
#42 = AXIS2_PLACEMENT_3D ( 'NONE', #430, #571, #112 ) ;
#43 = PLANE ( 'NONE',  #181 ) ;
#44 = ORIENTED_EDGE ( 'NONE', *, *, #182, .T. ) ;
#45 = ADVANCED_FACE ( 'NONE', ( #933 ), #752, .F. ) ;
#46 = FILL_AREA_STYLE ('',( #412 ) ) ;
#47 = DIRECTION ( 'NONE',  ( -1.000000000000000000, 0.000000000000000000, 0.000000000000000000 ) ) ;
#48 = ORIENTED_EDGE ( 'NONE', *, *, #383, .F. ) ;
#49 = CARTESIAN_POINT ( 'NONE',  ( 2.624999999999999556, 0.6649999999999980371, 1.574999999999999956 ) ) ;
#50 = CLOSED_SHELL ( 'NONE', ( #864, #115, #938, #417, #192, #35, #923, #338, #411, #780 ) ) ;
#51 = VERTEX_POINT ( 'NONE', #310 ) ;
#52 = ORIENTED_EDGE ( 'NONE', *, *, #104, .T. ) ;
#53 = DIRECTION ( 'NONE',  ( 2.753529326947312927E-16, 0.000000000000000000, 1.000000000000000000 ) ) ;
#54 = VECTOR ( 'NONE', #164, 1000.000000000000000 ) ;
#55 = VECTOR ( 'NONE', #11, 1000.000000000000000 ) ;
#56 = VECTOR ( 'NONE', #398, 1000.000000000000000 ) ;
#57 = CARTESIAN_POINT ( 'NONE',  ( -3.174999999999999378, 0.6999999999999995115, -1.574999999999999956 ) ) ;
#58 = EDGE_LOOP ( 'NONE', ( #667, #26, #777, #392 ) ) ;
#59 = CARTESIAN_POINT ( 'NONE',  ( -2.624999999999998668, 0.6999999999999997335, 1.574999999999999956 ) ) ;
#60 = EDGE_CURVE ( 'NONE', #360, #750, #547, .T. ) ;
#61 = FILL_AREA_STYLE ('',( #128 ) ) ;
#62 = PRODUCT_DEFINITION_CONTEXT ( 'detailed design', #666, 'design' ) ;
#63 = CARTESIAN_POINT ( 'NONE',  ( -3.174999999999999378, -3.888253587292845588E-16, 1.574999999999999956 ) ) ;
#64 = CARTESIAN_POINT ( 'NONE',  ( -3.174999999999999378, -3.888253587292845588E-16, -1.574999999999999956 ) ) ;
#65 = ORIENTED_EDGE ( 'NONE', *, *, #234, .T. ) ;
#66 =( GEOMETRIC_REPRESENTATION_CONTEXT ( 3 ) GLOBAL_UNCERTAINTY_ASSIGNED_CONTEXT ( ( #946 ) ) GLOBAL_UNIT_ASSIGNED_CONTEXT ( ( #681, #189, #352 ) ) REPRESENTATION_CONTEXT ( 'NONE', 'WORKASPACE' ) );
#67 = EDGE_CURVE ( 'NONE', #467, #903, #218, .T. ) ;
#68 = PLANE ( 'NONE',  #21 ) ;
#69 = LINE ( 'NONE', #212, #223 ) ;
#70 = ORIENTED_EDGE ( 'NONE', *, *, #537, .F. ) ;
#71 = PRESENTATION_STYLE_ASSIGNMENT (( #569 ) ) ;
#72 = FACE_OUTER_BOUND ( 'NONE', #832, .T. ) ;
#73 = CARTESIAN_POINT ( 'NONE',  ( 3.174999999999999378, 0.6999999999999995115, 1.574999999999999956 ) ) ;
#74 = EDGE_CURVE ( 'NONE', #915, #809, #672, .T. ) ;
#75 = DIRECTION ( 'NONE',  ( -1.000000000000000000, -1.184201401986594914E-16, 0.000000000000000000 ) ) ;
#76 = ORIENTED_EDGE ( 'NONE', *, *, #300, .F. ) ;
#77 = DIRECTION ( 'NONE',  ( 0.000000000000000000, 0.000000000000000000, -1.000000000000000000 ) ) ;
#78 = VERTEX_POINT ( 'NONE', #257 ) ;
#79 = CARTESIAN_POINT ( 'NONE',  ( 3.139999999999999680, 0.6649999999999995914, 1.574999999999999956 ) ) ;
#80 = ORIENTED_EDGE ( 'NONE', *, *, #882, .F. ) ;
#81 = AXIS2_PLACEMENT_3D ( 'NONE', #796, #874, #290 ) ;
#82 = EDGE_CURVE ( 'NONE', #635, #51, #522, .T. ) ;
#83 = VECTOR ( 'NONE', #873, 1000.000000000000000 ) ;
#84 = LINE ( 'NONE', #729, #708 ) ;
#85 = SURFACE_SIDE_STYLE ('',( #857 ) ) ;
#86 =( NAMED_UNIT ( * ) SI_UNIT ( $, .STERADIAN. ) SOLID_ANGLE_UNIT ( ) );
#87 = CARTESIAN_POINT ( 'NONE',  ( 2.624999999999999556, 0.6999999999999995115, 1.574999999999999956 ) ) ;
#88 = EDGE_LOOP ( 'NONE', ( #838, #558, #1, #625 ) ) ;
#89 = EDGE_CURVE ( 'NONE', #252, #688, #771, .T. ) ;
#90 = DIRECTION ( 'NONE',  ( 0.000000000000000000, 0.000000000000000000, -1.000000000000000000 ) ) ;
#91 = ORIENTED_EDGE ( 'NONE', *, *, #366, .F. ) ;
#92 = CARTESIAN_POINT ( 'NONE',  ( 3.139999999999999680, 0.03499999999999975353, -7.886521211245351992 ) ) ;
#93 = DIRECTION ( 'NONE',  ( 9.856383386231860060E-17, 1.000000000000000000, 0.000000000000000000 ) ) ;
#94 = LINE ( 'NONE', #902, #676 ) ;
#95 = CARTESIAN_POINT ( 'NONE',  ( 3.139999999999999680, 0.6649999999999995914, 1.574999999999999956 ) ) ;
#96 = EDGE_CURVE ( 'NONE', #481, #903, #270, .T. ) ;
#97 = VECTOR ( 'NONE', #339, 1000.000000000000000 ) ;
#98 = LINE ( 'NONE', #691, #206 ) ;
#99 = ORIENTED_EDGE ( 'NONE', *, *, #383, .T. ) ;
#100 = ORIENTED_EDGE ( 'NONE', *, *, #592, .T. ) ;
#101 = LINE ( 'NONE', #614, #532 ) ;
#102 = DIRECTION ( 'NONE',  ( -0.000000000000000000, 0.000000000000000000, 1.000000000000000000 ) ) ;
#103 = ORIENTED_EDGE ( 'NONE', *, *, #618, .T. ) ;
#104 = EDGE_CURVE ( 'NONE', #903, #264, #884, .T. ) ;
#105 = EDGE_LOOP ( 'NONE', ( #17, #940, #844, #654 ) ) ;
#106 = CARTESIAN_POINT ( 'NONE',  ( 3.139999999999999680, 0.03499999999999975353, 1.574999999999999956 ) ) ;
#107 = MECHANICAL_DESIGN_GEOMETRIC_PRESENTATION_REPRESENTATION (  '', ( #184 ), #831 ) ;
#108 = ORIENTED_EDGE ( 'NONE', *, *, #260, .T. ) ;
#109 = VECTOR ( 'NONE', #905, 1000.000000000000000 ) ;
#110 = PRESENTATION_STYLE_ASSIGNMENT (( #730 ) ) ;
#111 = VECTOR ( 'NONE', #9, 1000.000000000000000 ) ;
#112 = DIRECTION ( 'NONE',  ( 0.000000000000000000, 0.000000000000000000, 1.000000000000000000 ) ) ;
#113 = PRODUCT_DEFINITION ( 'UNKNOWN', '', #171, #62 ) ;
#114 = CARTESIAN_POINT ( 'NONE',  ( -3.139999999999999680, 0.03499999999999975353, -1.574999999999999956 ) ) ;
#115 = ADVANCED_FACE ( 'NONE', ( #317 ), #202, .F. ) ;
#116 = ORIENTED_EDGE ( 'NONE', *, *, #227, .T. ) ;
#117 = CARTESIAN_POINT ( 'NONE',  ( -3.174999999999999378, 0.6999999999999995115, 1.574999999999999956 ) ) ;
#118 = FILL_AREA_STYLE_COLOUR ( '', #583 ) ;
#119 = MANIFOLD_SOLID_BREP ( 'Mirror2', #50 ) ;
#120 = PLANE ( 'NONE',  #862 ) ;
#121 = ORIENTED_EDGE ( 'NONE', *, *, #82, .T. ) ;
#122 = DIRECTION ( 'NONE',  ( 0.000000000000000000, 0.000000000000000000, 1.000000000000000000 ) ) ;
#123 = EDGE_CURVE ( 'NONE', #327, #8, #147, .T. ) ;
#124 =( NAMED_UNIT ( * ) PLANE_ANGLE_UNIT ( ) SI_UNIT ( $, .RADIAN. ) );
#125 = ORIENTED_EDGE ( 'NONE', *, *, #537, .T. ) ;
#126 = CARTESIAN_POINT ( 'NONE',  ( -2.624999999999999556, 0.000000000000000000, -1.574999999999999956 ) ) ;
#127 = VECTOR ( 'NONE', #155, 1000.000000000000000 ) ;
#128 = FILL_AREA_STYLE_COLOUR ( '', #157 ) ;
#129 = SHAPE_DEFINITION_REPRESENTATION ( #904, #301 ) ;
#130 = CARTESIAN_POINT ( 'NONE',  ( 2.624999999999999556, 0.6999999999999995115, 1.574999999999999956 ) ) ;
#131 = ADVANCED_FACE ( 'NONE', ( #624 ), #330, .T. ) ;
#132 = DIRECTION ( 'NONE',  ( -0.000000000000000000, 1.000000000000000000, -0.000000000000000000 ) ) ;
#133 = EDGE_CURVE ( 'NONE', #3, #549, #942, .T. ) ;
#134 = ORIENTED_EDGE ( 'NONE', *, *, #450, .T. ) ;
#135 = CARTESIAN_POINT ( 'NONE',  ( -2.624999999999999556, 0.6999999999999997335, -1.574999999999999956 ) ) ;
#136 = ORIENTED_EDGE ( 'NONE', *, *, #133, .F. ) ;
#137 = AXIS2_PLACEMENT_3D ( 'NONE', #358, #790, #434 ) ;
#138 = CARTESIAN_POINT ( 'NONE',  ( -2.624999999999999556, 0.6999999999999995115, 1.574999999999999956 ) ) ;
#139 = CARTESIAN_POINT ( 'NONE',  ( -3.174999999999999378, 0.6999999999999995115, 1.574999999999999956 ) ) ;
#140 =( LENGTH_UNIT ( ) NAMED_UNIT ( * ) SI_UNIT ( .MILLI., .METRE. ) );
#141 = ORIENTED_EDGE ( 'NONE', *, *, #519, .T. ) ;
#142 = CARTESIAN_POINT ( 'NONE',  ( -3.139999999999999680, 0.6649999999999995914, -7.886521211245351992 ) ) ;
#143 = ORIENTED_EDGE ( 'NONE', *, *, #450, .F. ) ;
#144 = PLANE ( 'NONE',  #939 ) ;
#145 = ORIENTED_EDGE ( 'NONE', *, *, #629, .T. ) ;
#146 = LINE ( 'NONE', #958, #611 ) ;
#147 = LINE ( 'NONE', #23, #56 ) ;
#148 = LINE ( 'NONE', #460, #613 ) ;
#149 = DIRECTION ( 'NONE',  ( -0.000000000000000000, -1.000000000000000000, -0.000000000000000000 ) ) ;
#150 = DIRECTION ( 'NONE',  ( 0.000000000000000000, 1.000000000000000000, 0.000000000000000000 ) ) ;
#151 = EDGE_CURVE ( 'NONE', #936, #514, #827, .T. ) ;
#152 = VERTEX_POINT ( 'NONE', #485 ) ;
#153 = DIRECTION ( 'NONE',  ( -7.069551976896086653E-16, 1.000000000000000000, 0.000000000000000000 ) ) ;
#154 = CARTESIAN_POINT ( 'NONE',  ( -3.139999999999999680, 0.6649999999999995914, 1.574999999999999956 ) ) ;
#155 = DIRECTION ( 'NONE',  ( 0.000000000000000000, -0.000000000000000000, -1.000000000000000000 ) ) ;
#156 = CARTESIAN_POINT ( 'NONE',  ( 2.624999999999999112, 0.6649999999999998135, -1.574999999999999956 ) ) ;
#157 = COLOUR_RGB ( '',0.7921568627450980005, 0.8196078431372548767, 0.9333333333333333481 ) ;
#158 = UNCERTAINTY_MEASURE_WITH_UNIT (LENGTH_MEASURE( 1.000000000000000082E-05 ), #140, 'distance_accuracy_value', 'NONE');
#159 = DIRECTION ( 'NONE',  ( 9.856383386231860060E-17, 1.000000000000000000, 0.000000000000000000 ) ) ;
#160 = ORIENTED_EDGE ( 'NONE', *, *, #618, .F. ) ;
#161 = VERTEX_POINT ( 'NONE', #106 ) ;
#162 = FILL_AREA_STYLE ('',( #743 ) ) ;
#163 = VERTEX_POINT ( 'NONE', #34 ) ;
#164 = DIRECTION ( 'NONE',  ( 0.000000000000000000, -0.000000000000000000, -1.000000000000000000 ) ) ;
#165 = EDGE_CURVE ( 'NONE', #549, #527, #630, .T. ) ;
#166 = VECTOR ( 'NONE', #668, 1000.000000000000000 ) ;
#167 = FACE_OUTER_BOUND ( 'NONE', #7, .T. ) ;
#168 = AXIS2_PLACEMENT_3D ( 'NONE', #675, #153, #679 ) ;
#169 = DIRECTION ( 'NONE',  ( 1.000000000000000000, 0.000000000000000000, 0.000000000000000000 ) ) ;
#170 = EDGE_LOOP ( 'NONE', ( #65, #407, #447, #552 ) ) ;
#171 = PRODUCT_DEFINITION_FORMATION_WITH_SPECIFIED_SOURCE ( 'ANY', '', #560, .NOT_KNOWN. ) ;
#172 = ORIENTED_EDGE ( 'NONE', *, *, #406, .F. ) ;
#173 = ORIENTED_EDGE ( 'NONE', *, *, #931, .T. ) ;
#174 = ORIENTED_EDGE ( 'NONE', *, *, #175, .F. ) ;
#175 = EDGE_CURVE ( 'NONE', #896, #429, #247, .T. ) ;
#176 = PRESENTATION_STYLE_ASSIGNMENT (( #735 ) ) ;
#177 = LINE ( 'NONE', #423, #772 ) ;
#178 = ORIENTED_EDGE ( 'NONE', *, *, #314, .T. ) ;
#179 = ORIENTED_EDGE ( 'NONE', *, *, #123, .T. ) ;
#180 = VERTEX_POINT ( 'NONE', #354 ) ;
#181 = AXIS2_PLACEMENT_3D ( 'NONE', #361, #205, #935 ) ;
#182 = EDGE_CURVE ( 'NONE', #557, #251, #678, .T. ) ;
#183 = CARTESIAN_POINT ( 'NONE',  ( 2.624999999999999556, 0.6999999999999995115, 1.574999999999999956 ) ) ;
#184 = STYLED_ITEM ( 'NONE', ( #176 ), #254 ) ;
#185 = ORIENTED_EDGE ( 'NONE', *, *, #294, .T. ) ;
#186 = VERTEX_POINT ( 'NONE', #774 ) ;
#187 = VECTOR ( 'NONE', #149, 1000.000000000000000 ) ;
#188 = VECTOR ( 'NONE', #660, 1000.000000000000000 ) ;
#189 =( NAMED_UNIT ( * ) PLANE_ANGLE_UNIT ( ) SI_UNIT ( $, .RADIAN. ) );
#190 = VECTOR ( 'NONE', #870, 1000.000000000000000 ) ;
#191 = DIRECTION ( 'NONE',  ( 0.000000000000000000, 1.000000000000000000, 0.000000000000000000 ) ) ;
#192 = ADVANCED_FACE ( 'NONE', ( #545 ), #586, .F. ) ;
#193 = DIRECTION ( 'NONE',  ( 1.000000000000000000, 1.184201401986594914E-16, 0.000000000000000000 ) ) ;
#194 = ORIENTED_EDGE ( 'NONE', *, *, #133, .T. ) ;
#195 = FILL_AREA_STYLE ('',( #636 ) ) ;
#196 = CARTESIAN_POINT ( 'NONE',  ( -3.139999999999999680, 0.6649999999999995914, -7.886521211245351992 ) ) ;
#197 = VERTEX_POINT ( 'NONE', #937 ) ;
#198 = EDGE_CURVE ( 'NONE', #180, #78, #709, .T. ) ;
#199 = ADVANCED_FACE ( 'NONE', ( #758 ), #949, .T. ) ;
#200 = VERTEX_POINT ( 'NONE', #722 ) ;
#201 = ORIENTED_EDGE ( 'NONE', *, *, #165, .F. ) ;
#202 = PLANE ( 'NONE',  #767 ) ;
#203 = ORIENTED_EDGE ( 'NONE', *, *, #37, .F. ) ;
#204 = CARTESIAN_POINT ( 'NONE',  ( 3.174999999999999378, 0.6999999999999995115, 1.574999999999999956 ) ) ;
#205 = DIRECTION ( 'NONE',  ( 1.000000000000000000, 0.000000000000000000, -0.000000000000000000 ) ) ;
#206 = VECTOR ( 'NONE', #344, 1000.000000000000000 ) ;
#207 = CARTESIAN_POINT ( 'NONE',  ( 3.174999999999999378, -3.888253587292845588E-16, -1.574999999999999956 ) ) ;
#208 = PRESENTATION_LAYER_ASSIGNMENT (  '', '', ( #184 ) ) ;
#209 = DIRECTION ( 'NONE',  ( -0.000000000000000000, -0.000000000000000000, -1.000000000000000000 ) ) ;
#210 = ORIENTED_EDGE ( 'NONE', *, *, #198, .T. ) ;
#211 = ORIENTED_EDGE ( 'NONE', *, *, #60, .F. ) ;
#212 = CARTESIAN_POINT ( 'NONE',  ( 2.624999999999999556, 0.000000000000000000, 1.574999999999999956 ) ) ;
#213 = DIRECTION ( 'NONE',  ( 0.000000000000000000, 0.000000000000000000, -1.000000000000000000 ) ) ;
#214 = ORIENTED_EDGE ( 'NONE', *, *, #829, .F. ) ;
#215 = DIRECTION ( 'NONE',  ( 0.000000000000000000, 0.000000000000000000, 1.000000000000000000 ) ) ;
#216 = EDGE_LOOP ( 'NONE', ( #534, #475, #373, #145 ) ) ;
#217 = DIRECTION ( 'NONE',  ( 0.000000000000000000, -1.000000000000000000, 0.000000000000000000 ) ) ;
#218 = LINE ( 'NONE', #183, #499 ) ;
#219 = DIRECTION ( 'NONE',  ( -1.376764663473656463E-16, 0.000000000000000000, -1.000000000000000000 ) ) ;
#220 = APPLICATION_CONTEXT ( 'automotive_design' ) ;
#221 = FACE_OUTER_BOUND ( 'NONE', #531, .T. ) ;
#222 = CARTESIAN_POINT ( 'NONE',  ( 3.174999999999999378, -3.888253587292845588E-16, 1.574999999999999956 ) ) ;
#223 = VECTOR ( 'NONE', #226, 1000.000000000000000 ) ;
#224 = CARTESIAN_POINT ( 'NONE',  ( -3.139999999999999680, 0.03499999999999975353, -1.574999999999999956 ) ) ;
#225 = FACE_OUTER_BOUND ( 'NONE', #216, .T. ) ;
#226 = DIRECTION ( 'NONE',  ( -1.000000000000000000, 7.069551976896086653E-16, 0.000000000000000000 ) ) ;
#227 = EDGE_CURVE ( 'NONE', #4, #327, #859, .T. ) ;
#228 = CARTESIAN_POINT ( 'NONE',  ( 0.000000000000000000, 0.000000000000000000, 1.574999999999999956 ) ) ;
#229 = AXIS2_PLACEMENT_3D ( 'NONE', #658, #852, #491 ) ;
#230 = DIRECTION ( 'NONE',  ( 1.000000000000000000, 0.000000000000000000, 0.000000000000000000 ) ) ;
#231 = VECTOR ( 'NONE', #954, 1000.000000000000000 ) ;
#232 = ORIENTED_EDGE ( 'NONE', *, *, #744, .F. ) ;
#233 = LINE ( 'NONE', #860, #419 ) ;
#234 = EDGE_CURVE ( 'NONE', #889, #690, #451, .T. ) ;
#235 = DIRECTION ( 'NONE',  ( -1.000000000000000000, 0.000000000000000000, -0.000000000000000000 ) ) ;
#236 =( NAMED_UNIT ( * ) PLANE_ANGLE_UNIT ( ) SI_UNIT ( $, .RADIAN. ) );
#237 =( GEOMETRIC_REPRESENTATION_CONTEXT ( 3 ) GLOBAL_UNCERTAINTY_ASSIGNED_CONTEXT ( ( #914 ) ) GLOBAL_UNIT_ASSIGNED_CONTEXT ( ( #794, #124, #347 ) ) REPRESENTATION_CONTEXT ( 'NONE', 'WORKASPACE' ) );
#238 = LINE ( 'NONE', #503, #188 ) ;
#239 = VECTOR ( 'NONE', #559, 1000.000000000000000 ) ;
#240 = SURFACE_STYLE_USAGE ( .BOTH. , #822 ) ;
#241 = ORIENTED_EDGE ( 'NONE', *, *, #740, .T. ) ;
#242 = LINE ( 'NONE', #895, #405 ) ;
#243 = ORIENTED_EDGE ( 'NONE', *, *, #568, .F. ) ;
#244 = CARTESIAN_POINT ( 'NONE',  ( -3.139999999999999680, 0.03499999999999975353, 1.574999999999999956 ) ) ;
#245 = EDGE_CURVE ( 'NONE', #18, #607, #402, .T. ) ;
#246 = VECTOR ( 'NONE', #132, 1000.000000000000000 ) ;
#247 = LINE ( 'NONE', #631, #239 ) ;
#248 = AXIS2_PLACEMENT_3D ( 'NONE', #130, #662, #656 ) ;
#249 = CARTESIAN_POINT ( 'NONE',  ( -2.624999999999999556, 0.03499999999999981598, 1.574999999999999956 ) ) ;
#250 = EDGE_LOOP ( 'NONE', ( #376, #418, #626, #80 ) ) ;
#251 = VERTEX_POINT ( 'NONE', #288 ) ;
#252 = VERTEX_POINT ( 'NONE', #49 ) ;
#253 = ORIENTED_EDGE ( 'NONE', *, *, #198, .F. ) ;
#254 = MANIFOLD_SOLID_BREP ( 'Boss-Extrude3', #570 ) ;
#255 = VECTOR ( 'NONE', #847, 1000.000000000000000 ) ;
#256 = FACE_OUTER_BOUND ( 'NONE', #841, .T. ) ;
#257 = CARTESIAN_POINT ( 'NONE',  ( -2.624999999999999556, 0.6649999999999995914, -1.574999999999999956 ) ) ;
#258 = ORIENTED_EDGE ( 'NONE', *, *, #550, .T. ) ;
#259 = VERTEX_POINT ( 'NONE', #508 ) ;
#260 = EDGE_CURVE ( 'NONE', #152, #889, #909, .T. ) ;
#261 = CARTESIAN_POINT ( 'NONE',  ( -3.174999999999999378, 0.6999999999999995115, 1.574999999999999956 ) ) ;
#262 = PLANE ( 'NONE',  #229 ) ;
#263 = ORIENTED_EDGE ( 'NONE', *, *, #577, .F. ) ;
#264 = VERTEX_POINT ( 'NONE', #590 ) ;
#265 = CARTESIAN_POINT ( 'NONE',  ( 3.174999999999999378, 0.6999999999999995115, -1.574999999999999956 ) ) ;
#266 = ADVANCED_FACE ( 'NONE', ( #256 ), #593, .T. ) ;
#267 = ORIENTED_EDGE ( 'NONE', *, *, #332, .F. ) ;
#268 = CARTESIAN_POINT ( 'NONE',  ( 3.139999999999999680, 0.03499999999999975353, -1.574999999999999956 ) ) ;
#269 = SURFACE_STYLE_FILL_AREA ( #162 ) ;
#270 = LINE ( 'NONE', #409, #367 ) ;
#271 = FACE_OUTER_BOUND ( 'NONE', #348, .T. ) ;
#272 = CARTESIAN_POINT ( 'NONE',  ( 0.000000000000000000, 0.000000000000000000, -1.574999999999999956 ) ) ;
#273 = CARTESIAN_POINT ( 'NONE',  ( -3.174999999999999378, -3.888253587292845588E-16, 1.574999999999999956 ) ) ;
#274 = ADVANCED_FACE ( 'NONE', ( #842 ), #425, .T. ) ;
#275 = DIRECTION ( 'NONE',  ( 0.000000000000000000, 0.000000000000000000, 1.000000000000000000 ) ) ;
#276 = STYLED_ITEM ( 'NONE', ( #71 ), #119 ) ;
#277 = CARTESIAN_POINT ( 'NONE',  ( 2.624999999999999556, 0.6649999999999995914, 1.574999999999999956 ) ) ;
#278 = VERTEX_POINT ( 'NONE', #138 ) ;
#279 = CARTESIAN_POINT ( 'NONE',  ( -3.139999999999999680, 0.6649999999999995914, -7.886521211245351992 ) ) ;
#280 = SURFACE_SIDE_STYLE ('',( #452 ) ) ;
#281 = ORIENTED_EDGE ( 'NONE', *, *, #472, .T. ) ;
#282 = DIRECTION ( 'NONE',  ( -1.000000000000000000, 0.000000000000000000, 0.000000000000000000 ) ) ;
#283 = ORIENTED_EDGE ( 'NONE', *, *, #761, .F. ) ;
#284 = FACE_OUTER_BOUND ( 'NONE', #313, .T. ) ;
#285 = DIRECTION ( 'NONE',  ( -0.000000000000000000, -0.000000000000000000, -1.000000000000000000 ) ) ;
#286 = MECHANICAL_DESIGN_GEOMETRIC_PRESENTATION_REPRESENTATION (  '', ( #276 ), #853 ) ;
#287 = CARTESIAN_POINT ( 'NONE',  ( 2.624999999999999556, 0.000000000000000000, -1.574999999999999956 ) ) ;
#288 = CARTESIAN_POINT ( 'NONE',  ( -2.624999999999999556, 0.000000000000000000, 1.574999999999999956 ) ) ;
#289 = EDGE_LOOP ( 'NONE', ( #898, #329, #821, #556 ) ) ;
#290 = DIRECTION ( 'NONE',  ( 1.000000000000000000, 0.000000000000000000, 0.000000000000000000 ) ) ;
#291 = ORIENTED_EDGE ( 'NONE', *, *, #351, .T. ) ;
#292 = CARTESIAN_POINT ( 'NONE',  ( -3.139999999999999680, 0.03499999999999975353, -7.886521211245351992 ) ) ;
#293 = VERTEX_POINT ( 'NONE', #224 ) ;
#294 = EDGE_CURVE ( 'NONE', #702, #200, #565, .T. ) ;
#295 = PLANE ( 'NONE',  #721 ) ;
#296 = VECTOR ( 'NONE', #610, 1000.000000000000000 ) ;
#297 = VECTOR ( 'NONE', #38, 1000.000000000000000 ) ;
#298 = CARTESIAN_POINT ( 'NONE',  ( -3.139999999999999680, 0.6649999999999995914, -1.574999999999999956 ) ) ;
#299 = FACE_OUTER_BOUND ( 'NONE', #442, .T. ) ;
#300 = EDGE_CURVE ( 'NONE', #186, #514, #924, .T. ) ;
#301 = ADVANCED_BREP_SHAPE_REPRESENTATION ( 'CSR2512JT60L0', ( #652, #119, #433, #254, #319 ), #237 ) ;
#302 = ORIENTED_EDGE ( 'NONE', *, *, #740, .F. ) ;
#303 = ORIENTED_EDGE ( 'NONE', *, *, #245, .F. ) ;
#304 = EDGE_CURVE ( 'NONE', #936, #557, #461, .T. ) ;
#305 = DIRECTION ( 'NONE',  ( 1.000000000000000000, -0.000000000000000000, -0.000000000000000000 ) ) ;
#306 = ORIENTED_EDGE ( 'NONE', *, *, #603, .T. ) ;
#307 = CARTESIAN_POINT ( 'NONE',  ( -3.174999999999999378, 0.6999999999999995115, -1.574999999999999956 ) ) ;
#308 = LINE ( 'NONE', #600, #594 ) ;
#309 = VECTOR ( 'NONE', #93, 1000.000000000000000 ) ;
#310 = CARTESIAN_POINT ( 'NONE',  ( 3.139999999999999680, 0.6649999999999995914, -1.574999999999999956 ) ) ;
#311 = ORIENTED_EDGE ( 'NONE', *, *, #67, .T. ) ;
#312 = DIRECTION ( 'NONE',  ( 1.000000000000000000, 0.000000000000000000, 0.000000000000000000 ) ) ;
#313 = EDGE_LOOP ( 'NONE', ( #474, #174, #509, #99 ) ) ;
#314 = EDGE_CURVE ( 'NONE', #161, #635, #334, .T. ) ;
#315 = PLANE ( 'NONE',  #776 ) ;
#316 = VECTOR ( 'NONE', #871, 1000.000000000000000 ) ;
#317 = FACE_OUTER_BOUND ( 'NONE', #517, .T. ) ;
#318 = COLOUR_RGB ( '',0.7921568627450980005, 0.8196078431372548767, 0.9333333333333333481 ) ;
#319 = AXIS2_PLACEMENT_3D ( 'NONE', #589, #122, #725 ) ;
#320 = ORIENTED_EDGE ( 'NONE', *, *, #550, .F. ) ;
#321 = AXIS2_PLACEMENT_3D ( 'NONE', #73, #817, #682 ) ;
#322 = PRESENTATION_STYLE_ASSIGNMENT (( #240 ) ) ;
#323 = UNCERTAINTY_MEASURE_WITH_UNIT (LENGTH_MEASURE( 1.000000000000000082E-05 ), #778, 'distance_accuracy_value', 'NONE');
#324 = VERTEX_POINT ( 'NONE', #738 ) ;
#325 = ORIENTED_EDGE ( 'NONE', *, *, #680, .T. ) ;
#326 = STYLED_ITEM ( 'NONE', ( #110 ), #301 ) ;
#327 = VERTEX_POINT ( 'NONE', #364 ) ;
#328 = PLANE ( 'NONE',  #930 ) ;
#329 = ORIENTED_EDGE ( 'NONE', *, *, #343, .F. ) ;
#330 = PLANE ( 'NONE',  #674 ) ;
#331 = EDGE_LOOP ( 'NONE', ( #356, #788, #573, #325 ) ) ;
#332 = EDGE_CURVE ( 'NONE', #607, #811, #308, .T. ) ;
#333 = ORIENTED_EDGE ( 'NONE', *, *, #912, .T. ) ;
#334 = LINE ( 'NONE', #887, #127 ) ;
#335 = CARTESIAN_POINT ( 'NONE',  ( -2.624999999999999556, 0.000000000000000000, 1.574999999999999956 ) ) ;
#336 = LINE ( 'NONE', #204, #885 ) ;
#337 = DIRECTION ( 'NONE',  ( 0.000000000000000000, 1.000000000000000000, 0.000000000000000000 ) ) ;
#338 = ADVANCED_FACE ( 'NONE', ( #284 ), #598, .F. ) ;
#339 = DIRECTION ( 'NONE',  ( 0.000000000000000000, 1.000000000000000000, 0.000000000000000000 ) ) ;
#340 = ORIENTED_EDGE ( 'NONE', *, *, #395, .T. ) ;
#341 = DIRECTION ( 'NONE',  ( 0.000000000000000000, 0.000000000000000000, 1.000000000000000000 ) ) ;
#342 = ORIENTED_EDGE ( 'NONE', *, *, #744, .T. ) ;
#343 = EDGE_CURVE ( 'NONE', #557, #18, #907, .T. ) ;
#344 = DIRECTION ( 'NONE',  ( 1.376764663473656463E-16, 0.000000000000000000, 1.000000000000000000 ) ) ;
#345 = DIRECTION ( 'NONE',  ( 0.000000000000000000, -0.000000000000000000, -1.000000000000000000 ) ) ;
#346 = ADVANCED_FACE ( 'NONE', ( #12 ), #530, .F. ) ;
#347 =( NAMED_UNIT ( * ) SI_UNIT ( $, .STERADIAN. ) SOLID_ANGLE_UNIT ( ) );
#348 = EDGE_LOOP ( 'NONE', ( #845, #291, #108, #601 ) ) ;
#349 = DIRECTION ( 'NONE',  ( 1.000000000000000000, -0.000000000000000000, 0.000000000000000000 ) ) ;
#350 = AXIS2_PLACEMENT_3D ( 'NONE', #755, #663, #215 ) ;
#351 = EDGE_CURVE ( 'NONE', #512, #152, #449, .T. ) ;
#352 =( NAMED_UNIT ( * ) SI_UNIT ( $, .STERADIAN. ) SOLID_ANGLE_UNIT ( ) );
#353 = VECTOR ( 'NONE', #588, 1000.000000000000000 ) ;
#354 = CARTESIAN_POINT ( 'NONE',  ( -2.624999999999999556, 0.6649999999999995914, 1.574999999999999956 ) ) ;
#355 = CARTESIAN_POINT ( 'NONE',  ( -3.174999999999999378, 0.6999999999999995115, 1.574999999999999956 ) ) ;
#356 = ORIENTED_EDGE ( 'NONE', *, *, #74, .T. ) ;
#357 = ORIENTED_EDGE ( 'NONE', *, *, #123, .F. ) ;
#358 = CARTESIAN_POINT ( 'NONE',  ( -3.139999999999999680, 0.03499999999999975353, -7.886521211245351992 ) ) ;
#359 = DIRECTION ( 'NONE',  ( 0.000000000000000000, -0.000000000000000000, 1.000000000000000000 ) ) ;
#360 = VERTEX_POINT ( 'NONE', #671 ) ;
#361 = CARTESIAN_POINT ( 'NONE',  ( 3.139999999999999680, 0.03499999999999975353, 1.574999999999999956 ) ) ;
#362 = CARTESIAN_POINT ( 'NONE',  ( -3.139999999999999680, 0.6649999999999995914, 1.574999999999999956 ) ) ;
#363 = ORIENTED_EDGE ( 'NONE', *, *, #29, .T. ) ;
#364 = CARTESIAN_POINT ( 'NONE',  ( -3.139999999999999680, 0.03499999999999975353, 1.574999999999999956 ) ) ;
#365 = LINE ( 'NONE', #391, #109 ) ;
#366 = EDGE_CURVE ( 'NONE', #200, #915, #521, .T. ) ;
#367 = VECTOR ( 'NONE', #482, 1000.000000000000000 ) ;
#368 = CARTESIAN_POINT ( 'NONE',  ( 3.174999999999999378, -3.888253587292845588E-16, -1.574999999999999956 ) ) ;
#369 = DIRECTION ( 'NONE',  ( -0.000000000000000000, 1.000000000000000000, -0.000000000000000000 ) ) ;
#370 = DIRECTION ( 'NONE',  ( -0.000000000000000000, -0.000000000000000000, -1.000000000000000000 ) ) ;
#371 = ORIENTED_EDGE ( 'NONE', *, *, #457, .F. ) ;
#372 = ORIENTED_EDGE ( 'NONE', *, *, #699, .F. ) ;
#373 = ORIENTED_EDGE ( 'NONE', *, *, #227, .F. ) ;
#374 = ORIENTED_EDGE ( 'NONE', *, *, #502, .F. ) ;
#375 = DIRECTION ( 'NONE',  ( 0.000000000000000000, 1.000000000000000000, 0.000000000000000000 ) ) ;
#376 = ORIENTED_EDGE ( 'NONE', *, *, #931, .F. ) ;
#377 = LINE ( 'NONE', #563, #956 ) ;
#378 = CARTESIAN_POINT ( 'NONE',  ( 2.624999999999999556, 0.6649999999999995914, -1.574999999999999956 ) ) ;
#379 = VERTEX_POINT ( 'NONE', #156 ) ;
#380 = CARTESIAN_POINT ( 'NONE',  ( -3.139999999999999680, 0.6649999999999995914, 1.574999999999999956 ) ) ;
#381 = DIRECTION ( 'NONE',  ( -1.000000000000000000, 0.000000000000000000, 0.000000000000000000 ) ) ;
#382 = PRESENTATION_LAYER_ASSIGNMENT (  '', '', ( #536 ) ) ;
#383 = EDGE_CURVE ( 'NONE', #3, #197, #685, .T. ) ;
#384 = CARTESIAN_POINT ( 'NONE',  ( -2.624999999999999556, 0.000000000000000000, 1.574999999999999956 ) ) ;
#385 = EDGE_LOOP ( 'NONE', ( #463, #32, #357, #414 ) ) ;
#386 = AXIS2_PLACEMENT_3D ( 'NONE', #292, #217, #345 ) ;
#387 = PLANE ( 'NONE',  #555 ) ;
#388 = VECTOR ( 'NONE', #453, 1000.000000000000000 ) ;
#389 = FACE_OUTER_BOUND ( 'NONE', #399, .T. ) ;
#390 = VECTOR ( 'NONE', #548, 1000.000000000000000 ) ;
#391 = CARTESIAN_POINT ( 'NONE',  ( 3.139999999999999680, 0.03499999999999975353, 1.574999999999999956 ) ) ;
#392 = ORIENTED_EDGE ( 'NONE', *, *, #622, .F. ) ;
#393 = CARTESIAN_POINT ( 'NONE',  ( 3.139999999999999680, 0.6649999999999995914, -1.574999999999999956 ) ) ;
#394 = ORIENTED_EDGE ( 'NONE', *, *, #875, .F. ) ;
#395 = EDGE_CURVE ( 'NONE', #152, #293, #856, .T. ) ;
#396 = EDGE_CURVE ( 'NONE', #197, #527, #146, .T. ) ;
#397 = ORIENTED_EDGE ( 'NONE', *, *, #89, .F. ) ;
#398 = DIRECTION ( 'NONE',  ( 0.000000000000000000, 1.000000000000000000, 0.000000000000000000 ) ) ;
#399 = EDGE_LOOP ( 'NONE', ( #921, #48, #194, #900 ) ) ;
#400 = VECTOR ( 'NONE', #880, 1000.000000000000000 ) ;
#401 = VECTOR ( 'NONE', #945, 1000.000000000000000 ) ;
#402 = LINE ( 'NONE', #126, #812 ) ;
#403 = VECTOR ( 'NONE', #849, 1000.000000000000000 ) ;
#404 = VECTOR ( 'NONE', #703, 1000.000000000000000 ) ;
#405 = VECTOR ( 'NONE', #159, 1000.000000000000000 ) ;
#406 = EDGE_CURVE ( 'NONE', #527, #635, #825, .T. ) ;
#407 = ORIENTED_EDGE ( 'NONE', *, *, #415, .T. ) ;
#408 = ORIENTED_EDGE ( 'NONE', *, *, #37, .T. ) ;
#409 = CARTESIAN_POINT ( 'NONE',  ( 2.624999999999999556, 0.6999999999999995115, -1.574999999999999956 ) ) ;
#410 = AXIS2_PLACEMENT_3D ( 'NONE', #228, #448, #230 ) ;
#411 = ADVANCED_FACE ( 'NONE', ( #476 ), #456, .F. ) ;
#412 = FILL_AREA_STYLE_COLOUR ( '', #318 ) ;
#413 = ORIENTED_EDGE ( 'NONE', *, *, #680, .F. ) ;
#414 = ORIENTED_EDGE ( 'NONE', *, *, #528, .T. ) ;
#415 = EDGE_CURVE ( 'NONE', #690, #360, #27, .T. ) ;
#416 = VECTOR ( 'NONE', #305, 1000.000000000000000 ) ;
#417 = ADVANCED_FACE ( 'NONE', ( #644 ), #295, .F. ) ;
#418 = ORIENTED_EDGE ( 'NONE', *, *, #89, .T. ) ;
#419 = VECTOR ( 'NONE', #665, 1000.000000000000000 ) ;
#420 = CARTESIAN_POINT ( 'NONE',  ( -3.139999999999999680, 0.03499999999999975353, 1.574999999999999956 ) ) ;
#421 = SURFACE_STYLE_FILL_AREA ( #498 ) ;
#422 = LINE ( 'NONE', #641, #554 ) ;
#423 = CARTESIAN_POINT ( 'NONE',  ( -3.139999999999999680, 0.03499999999999975353, -1.574999999999999956 ) ) ;
#424 = DIRECTION ( 'NONE',  ( 0.000000000000000000, 1.000000000000000000, 0.000000000000000000 ) ) ;
#425 = PLANE ( 'NONE',  #386 ) ;
#426 =( LENGTH_UNIT ( ) NAMED_UNIT ( * ) SI_UNIT ( .MILLI., .METRE. ) );
#427 = CARTESIAN_POINT ( 'NONE',  ( 3.174999999999999378, -3.888253587292845588E-16, 1.574999999999999956 ) ) ;
#428 = CARTESIAN_POINT ( 'NONE',  ( -2.624999999999999556, 0.6649999999999995914, 1.574999999999999956 ) ) ;
#429 = VERTEX_POINT ( 'NONE', #368 ) ;
#430 = CARTESIAN_POINT ( 'NONE',  ( -2.624999999999999556, 0.03499999999999981598, 1.574999999999999956 ) ) ;
#431 = ADVANCED_FACE ( 'NONE', ( #221 ), #813, .T. ) ;
#432 = DIRECTION ( 'NONE',  ( 0.000000000000000000, 0.000000000000000000, 1.000000000000000000 ) ) ;
#433 = MANIFOLD_SOLID_BREP ( 'Boss-Extrude2', #797 ) ;
#434 = DIRECTION ( 'NONE',  ( 0.000000000000000000, 0.000000000000000000, 1.000000000000000000 ) ) ;
#435 = CARTESIAN_POINT ( 'NONE',  ( 3.139999999999999680, 0.6649999999999995914, 1.574999999999999956 ) ) ;
#436 = AXIS2_PLACEMENT_3D ( 'NONE', #222, #282, #213 ) ;
#437 = EDGE_CURVE ( 'NONE', #161, #520, #365, .T. ) ;
#438 = APPLICATION_PROTOCOL_DEFINITION ( 'draft international standard', 'automotive_design', 1998, #666 ) ;
#439 = VECTOR ( 'NONE', #806, 1000.000000000000000 ) ;
#440 = CARTESIAN_POINT ( 'NONE',  ( -2.624999999999999556, 0.03499999999999981598, 1.574999999999999956 ) ) ;
#441 = EDGE_LOOP ( 'NONE', ( #697, #320, #855, #25 ) ) ;
#442 = EDGE_LOOP ( 'NONE', ( #342, #116, #179, #687, #484, #950, #818, #44 ) ) ;
#443 = CARTESIAN_POINT ( 'NONE',  ( 2.624999999999999556, 0.000000000000000000, 1.574999999999999956 ) ) ;
#444 = ORIENTED_EDGE ( 'NONE', *, *, #15, .F. ) ;
#445 = DIRECTION ( 'NONE',  ( 0.000000000000000000, 1.000000000000000000, 0.000000000000000000 ) ) ;
#446 = CARTESIAN_POINT ( 'NONE',  ( 5.782411586589356160E-17, 0.6999999999999995115, -1.592203988415372985E-32 ) ) ;
#447 = ORIENTED_EDGE ( 'NONE', *, *, #60, .T. ) ;
#448 = DIRECTION ( 'NONE',  ( 0.000000000000000000, 0.000000000000000000, -1.000000000000000000 ) ) ;
#449 = LINE ( 'NONE', #298, #400 ) ;
#450 = EDGE_CURVE ( 'NONE', #520, #51, #542, .T. ) ;
#451 = LINE ( 'NONE', #420, #190 ) ;
#452 = SURFACE_STYLE_FILL_AREA ( #46 ) ;
#453 = DIRECTION ( 'NONE',  ( 0.000000000000000000, -1.000000000000000000, 0.000000000000000000 ) ) ;
#454 = ORIENTED_EDGE ( 'NONE', *, *, #151, .F. ) ;
#455 = EDGE_LOOP ( 'NONE', ( #241, #394, #727, #210 ) ) ;
#456 = PLANE ( 'NONE',  #410 ) ;
#457 = EDGE_CURVE ( 'NONE', #51, #481, #694, .T. ) ;
#458 = EDGE_LOOP ( 'NONE', ( #947, #454, #762, #919 ) ) ;
#459 = DIRECTION ( 'NONE',  ( 0.000000000000000000, -0.000000000000000000, 1.000000000000000000 ) ) ;
#460 = CARTESIAN_POINT ( 'NONE',  ( -3.139999999999999680, 0.03499999999999975353, 1.574999999999999956 ) ) ;
#461 = LINE ( 'NONE', #529, #187 ) ;
#462 = PLANE ( 'NONE',  #692 ) ;
#463 = ORIENTED_EDGE ( 'NONE', *, *, #577, .T. ) ;
#464 = DIRECTION ( 'NONE',  ( -1.000000000000000000, 0.000000000000000000, 0.000000000000000000 ) ) ;
#465 = EDGE_CURVE ( 'NONE', #293, #690, #101, .T. ) ;
#466 = DIRECTION ( 'NONE',  ( 0.000000000000000000, 0.000000000000000000, 1.000000000000000000 ) ) ;
#467 = VERTEX_POINT ( 'NONE', #543 ) ;
#468 = VECTOR ( 'NONE', #370, 1000.000000000000000 ) ;
#469 = LINE ( 'NONE', #277, #401 ) ;
#470 = VECTOR ( 'NONE', #766, 1000.000000000000000 ) ;
#471 = PRODUCT_RELATED_PRODUCT_CATEGORY ( 'part', '', ( #560 ) ) ;
#472 = EDGE_CURVE ( 'NONE', #520, #163, #505, .T. ) ;
#473 = UNCERTAINTY_MEASURE_WITH_UNIT (LENGTH_MEASURE( 1.000000000000000082E-05 ), #617, 'distance_accuracy_value', 'NONE');
#474 = ORIENTED_EDGE ( 'NONE', *, *, #961, .F. ) ;
#475 = ORIENTED_EDGE ( 'NONE', *, *, #528, .F. ) ;
#476 = FACE_OUTER_BOUND ( 'NONE', #830, .T. ) ;
#477 = FACE_OUTER_BOUND ( 'NONE', #455, .T. ) ;
#478 = DIRECTION ( 'NONE',  ( 1.000000000000000000, -0.000000000000000000, -0.000000000000000000 ) ) ;
#479 = AXIS2_PLACEMENT_3D ( 'NONE', #196, #337, #943 ) ;
#480 = EDGE_CURVE ( 'NONE', #846, #78, #94, .T. ) ;
#481 = VERTEX_POINT ( 'NONE', #378 ) ;
#482 = DIRECTION ( 'NONE',  ( 0.000000000000000000, 1.000000000000000000, 0.000000000000000000 ) ) ;
#483 = DIRECTION ( 'NONE',  ( -1.000000000000000000, 0.000000000000000000, -0.000000000000000000 ) ) ;
#484 = ORIENTED_EDGE ( 'NONE', *, *, #843, .T. ) ;
#485 = CARTESIAN_POINT ( 'NONE',  ( -3.139999999999999680, 0.6649999999999995914, -1.574999999999999956 ) ) ;
#486 = AXIS2_PLACEMENT_3D ( 'NONE', #784, #47, #432 ) ;
#487 = ORIENTED_EDGE ( 'NONE', *, *, #74, .F. ) ;
#488 = CARTESIAN_POINT ( 'NONE',  ( -2.624999999999999556, 0.000000000000000000, -1.574999999999999956 ) ) ;
#489 = ADVANCED_FACE ( 'NONE', ( #701 ), #387, .T. ) ;
#490 =( NAMED_UNIT ( * ) SI_UNIT ( $, .STERADIAN. ) SOLID_ANGLE_UNIT ( ) );
#491 = DIRECTION ( 'NONE',  ( -1.000000000000000000, 0.000000000000000000, -0.000000000000000000 ) ) ;
#492 = VECTOR ( 'NONE', #464, 1000.000000000000000 ) ;
#493 = FACE_OUTER_BOUND ( 'NONE', #170, .T. ) ;
#494 = CARTESIAN_POINT ( 'NONE',  ( 2.624999999999999556, 0.03499999999999981598, 1.574999999999999956 ) ) ;
#495 = ADVANCED_FACE ( 'NONE', ( #869 ), #462, .F. ) ;
#496 = SURFACE_STYLE_USAGE ( .BOTH. , #280 ) ;
#497 = EDGE_CURVE ( 'NONE', #514, #18, #739, .T. ) ;
#498 = FILL_AREA_STYLE ('',( #118 ) ) ;
#499 = VECTOR ( 'NONE', #704, 1000.000000000000000 ) ;
#500 = CARTESIAN_POINT ( 'NONE',  ( 2.624999999999999556, 0.03499999999999981598, 1.574999999999999956 ) ) ;
#501 = ADVANCED_FACE ( 'NONE', ( #836 ), #315, .F. ) ;
#502 = EDGE_CURVE ( 'NONE', #688, #751, #711, .T. ) ;
#503 = CARTESIAN_POINT ( 'NONE',  ( -2.624999999999999112, 0.6649999999999998135, 1.574999999999999956 ) ) ;
#504 = VECTOR ( 'NONE', #75, 1000.000000000000000 ) ;
#505 = LINE ( 'NONE', #95, #296 ) ;
#506 = LINE ( 'NONE', #518, #246 ) ;
#507 = CARTESIAN_POINT ( 'NONE',  ( -2.624999999999999556, 0.6999999999999997335, -1.574999999999999956 ) ) ;
#508 = CARTESIAN_POINT ( 'NONE',  ( 3.139999999999999680, 0.03499999999999975353, -1.574999999999999956 ) ) ;
#509 = ORIENTED_EDGE ( 'NONE', *, *, #761, .T. ) ;
#510 = DIRECTION ( 'NONE',  ( 0.000000000000000000, -1.000000000000000000, -0.000000000000000000 ) ) ;
#511 = DIRECTION ( 'NONE',  ( 1.000000000000000000, 7.069551976896086653E-16, -0.000000000000000000 ) ) ;
#512 = VERTEX_POINT ( 'NONE', #393 ) ;
#513 = PLANE ( 'NONE',  #81 ) ;
#514 = VERTEX_POINT ( 'NONE', #307 ) ;
#515 = ORIENTED_EDGE ( 'NONE', *, *, #260, .F. ) ;
#516 = CARTESIAN_POINT ( 'NONE',  ( -3.139999999999999680, 0.03499999999999975353, 1.574999999999999956 ) ) ;
#517 = EDGE_LOOP ( 'NONE', ( #172, #201, #141, #178 ) ) ;
#518 = CARTESIAN_POINT ( 'NONE',  ( -2.624999999999999556, 0.6999999999999995115, 1.574999999999999956 ) ) ;
#519 = EDGE_CURVE ( 'NONE', #549, #161, #546, .T. ) ;
#520 = VERTEX_POINT ( 'NONE', #79 ) ;
#521 = LINE ( 'NONE', #742, #723 ) ;
#522 = LINE ( 'NONE', #712, #97 ) ;
#523 = CARTESIAN_POINT ( 'NONE',  ( 3.139999999999999680, 0.6649999999999995914, 1.574999999999999956 ) ) ;
#524 = VECTOR ( 'NONE', #768, 1000.000000000000000 ) ;
#525 = CARTESIAN_POINT ( 'NONE',  ( -3.139999999999999680, 0.6649999999999995914, 1.574999999999999956 ) ) ;
#526 = DIRECTION ( 'NONE',  ( 0.000000000000000000, 1.000000000000000000, 0.000000000000000000 ) ) ;
#527 = VERTEX_POINT ( 'NONE', #819 ) ;
#528 = EDGE_CURVE ( 'NONE', #327, #324, #148, .T. ) ;
#529 = CARTESIAN_POINT ( 'NONE',  ( -3.174999999999999378, -3.888253587292845588E-16, 1.574999999999999956 ) ) ;
#530 = PLANE ( 'NONE',  #168 ) ;
#531 = EDGE_LOOP ( 'NONE', ( #160, #714, #413, #203 ) ) ;
#532 = VECTOR ( 'NONE', #466, 1000.000000000000000 ) ;
#533 = DIRECTION ( 'NONE',  ( -0.000000000000000000, -0.000000000000000000, -1.000000000000000000 ) ) ;
#534 = ORIENTED_EDGE ( 'NONE', *, *, #15, .T. ) ;
#535 = DIRECTION ( 'NONE',  ( 0.000000000000000000, 0.000000000000000000, -1.000000000000000000 ) ) ;
#536 = STYLED_ITEM ( 'NONE', ( #910 ), #652 ) ;
#537 = EDGE_CURVE ( 'NONE', #379, #252, #98, .T. ) ;
#538 = PLANE ( 'NONE',  #19 ) ;
#539 = ORIENTED_EDGE ( 'NONE', *, *, #314, .F. ) ;
#540 = DIRECTION ( 'NONE',  ( 0.000000000000000000, 0.000000000000000000, 1.000000000000000000 ) ) ;
#541 = PRESENTATION_LAYER_ASSIGNMENT (  '', '', ( #326 ) ) ;
#542 = LINE ( 'NONE', #897, #54 ) ;
#543 = CARTESIAN_POINT ( 'NONE',  ( 2.624999999999999556, 0.6999999999999995115, 1.574999999999999956 ) ) ;
#544 = ORIENTED_EDGE ( 'NONE', *, *, #437, .F. ) ;
#545 = FACE_OUTER_BOUND ( 'NONE', #775, .T. ) ;
#546 = LINE ( 'NONE', #693, #111 ) ;
#547 = LINE ( 'NONE', #574, #255 ) ;
#548 = DIRECTION ( 'NONE',  ( -1.376764663473656463E-16, -0.000000000000000000, -1.000000000000000000 ) ) ;
#549 = VERTEX_POINT ( 'NONE', #500 ) ;
#550 = EDGE_CURVE ( 'NONE', #587, #264, #336, .T. ) ;
#551 = ORIENTED_EDGE ( 'NONE', *, *, #961, .T. ) ;
#552 = ORIENTED_EDGE ( 'NONE', *, *, #749, .T. ) ;
#553 = EDGE_LOOP ( 'NONE', ( #959, #24, #363, #258 ) ) ;
#554 = VECTOR ( 'NONE', #341, 1000.000000000000000 ) ;
#555 = AXIS2_PLACEMENT_3D ( 'NONE', #92, #312, #90 ) ;
#556 = ORIENTED_EDGE ( 'NONE', *, *, #151, .T. ) ;
#557 = VERTEX_POINT ( 'NONE', #273 ) ;
#558 = ORIENTED_EDGE ( 'NONE', *, *, #622, .T. ) ;
#559 = DIRECTION ( 'NONE',  ( 0.000000000000000000, -0.000000000000000000, -1.000000000000000000 ) ) ;
#560 = PRODUCT ( 'CSR2512JT60L0', 'CSR2512JT60L0', '', ( #876 ) ) ;
#561 = ORIENTED_EDGE ( 'NONE', *, *, #912, .F. ) ;
#562 = CARTESIAN_POINT ( 'NONE',  ( -2.624999999999999112, -5.457499489587565478, 1.574999999999999956 ) ) ;
#563 = CARTESIAN_POINT ( 'NONE',  ( -2.625000000000000000, 0.6649999999999998135, -1.574999999999999956 ) ) ;
#564 = VECTOR ( 'NONE', #877, 1000.000000000000000 ) ;
#565 = LINE ( 'NONE', #941, #83 ) ;
#566 = ADVANCED_FACE ( 'NONE', ( #225 ), #773, .F. ) ;
#567 = LINE ( 'NONE', #572, #524 ) ;
#568 = EDGE_CURVE ( 'NONE', #259, #360, #567, .T. ) ;
#569 = SURFACE_STYLE_USAGE ( .BOTH. , #28 ) ;
#570 = CLOSED_SHELL ( 'NONE', ( #266, #431, #850, #131, #786, #793 ) ) ;
#571 = DIRECTION ( 'NONE',  ( -1.000000000000000000, 0.000000000000000000, 0.000000000000000000 ) ) ;
#572 = CARTESIAN_POINT ( 'NONE',  ( 3.139999999999999680, 0.03499999999999975353, -7.886521211245351992 ) ) ;
#573 = ORIENTED_EDGE ( 'NONE', *, *, #502, .T. ) ;
#574 = CARTESIAN_POINT ( 'NONE',  ( 3.139999999999999680, 0.03499999999999975353, 1.574999999999999956 ) ) ;
#575 = CARTESIAN_POINT ( 'NONE',  ( -3.139999999999999680, 0.6649999999999995914, 1.574999999999999956 ) ) ;
#576 = MECHANICAL_DESIGN_GEOMETRIC_PRESENTATION_REPRESENTATION (  '', ( #637 ), #659 ) ;
#577 = EDGE_CURVE ( 'NONE', #324, #846, #585, .T. ) ;
#578 = DIRECTION ( 'NONE',  ( 0.000000000000000000, -0.000000000000000000, -1.000000000000000000 ) ) ;
#579 = DIRECTION ( 'NONE',  ( -1.000000000000000000, -0.000000000000000000, -0.000000000000000000 ) ) ;
#580 = DIRECTION ( 'NONE',  ( 1.000000000000000000, 7.069551976896086653E-16, -0.000000000000000000 ) ) ;
#581 = ADVANCED_FACE ( 'NONE', ( #493 ), #328, .F. ) ;
#582 = CARTESIAN_POINT ( 'NONE',  ( 2.624999999999999556, 0.6999999999999992895, 1.574999999999999956 ) ) ;
#583 = COLOUR_RGB ( '',0.2509803921568627416, 0.2509803921568627416, 0.2509803921568627416 ) ;
#584 = DIRECTION ( 'NONE',  ( 0.000000000000000000, -1.000000000000000000, -0.000000000000000000 ) ) ;
#585 = LINE ( 'NONE', #114, #403 ) ;
#586 = PLANE ( 'NONE',  #248 ) ;
#587 = VERTEX_POINT ( 'NONE', #779 ) ;
#588 = DIRECTION ( 'NONE',  ( 1.000000000000000000, 0.000000000000000000, 0.000000000000000000 ) ) ;
#589 = CARTESIAN_POINT ( 'NONE',  ( 0.000000000000000000, 0.000000000000000000, 0.000000000000000000 ) ) ;
#590 = CARTESIAN_POINT ( 'NONE',  ( 3.174999999999999378, 0.6999999999999995115, -1.574999999999999956 ) ) ;
#591 = CARTESIAN_POINT ( 'NONE',  ( -3.139999999999999680, 0.6649999999999995914, -1.574999999999999956 ) ) ;
#592 = EDGE_CURVE ( 'NONE', #259, #512, #696, .T. ) ;
#593 = PLANE ( 'NONE',  #816 ) ;
#594 = VECTOR ( 'NONE', #6, 1000.000000000000000 ) ;
#595 = VECTOR ( 'NONE', #579, 1000.000000000000000 ) ;
#596 = LINE ( 'NONE', #249, #747 ) ;
#597 = PLANE ( 'NONE',  #321 ) ;
#598 = PLANE ( 'NONE',  #632 ) ;
#599 = AXIS2_PLACEMENT_3D ( 'NONE', #13, #535, #892 ) ;
#600 = CARTESIAN_POINT ( 'NONE',  ( -2.624999999999999556, 0.03499999999999981598, -1.574999999999999956 ) ) ;
#601 = ORIENTED_EDGE ( 'NONE', *, *, #749, .F. ) ;
#602 = DIRECTION ( 'NONE',  ( 1.000000000000000000, -9.856383386231860060E-17, -1.376764663473656463E-16 ) ) ;
#603 = EDGE_CURVE ( 'NONE', #8, #846, #16, .T. ) ;
#604 = CARTESIAN_POINT ( 'NONE',  ( -2.624999999999999556, 0.03499999999999981598, 1.574999999999999956 ) ) ;
#605 = DIRECTION ( 'NONE',  ( 9.856383386231860060E-17, 1.000000000000000000, 0.000000000000000000 ) ) ;
#606 = LINE ( 'NONE', #440, #623 ) ;
#607 = VERTEX_POINT ( 'NONE', #488 ) ;
#608 = FACE_OUTER_BOUND ( 'NONE', #553, .T. ) ;
#609 = CARTESIAN_POINT ( 'NONE',  ( 3.139999999999999680, 0.6649999999999995914, -1.574999999999999956 ) ) ;
#610 = DIRECTION ( 'NONE',  ( -1.000000000000000000, 0.000000000000000000, 0.000000000000000000 ) ) ;
#611 = VECTOR ( 'NONE', #526, 1000.000000000000000 ) ;
#612 = LINE ( 'NONE', #731, #309 ) ;
#613 = VECTOR ( 'NONE', #533, 1000.000000000000000 ) ;
#614 = CARTESIAN_POINT ( 'NONE',  ( -3.139999999999999680, 0.03499999999999975353, -7.886521211245351992 ) ) ;
#615 = EDGE_LOOP ( 'NONE', ( #185, #103, #125, #173 ) ) ;
#616 = CLOSED_SHELL ( 'NONE', ( #717, #566, #495, #45, #944, #657, #501, #346, #710, #651 ) ) ;
#617 =( LENGTH_UNIT ( ) NAMED_UNIT ( * ) SI_UNIT ( .MILLI., .METRE. ) );
#618 = EDGE_CURVE ( 'NONE', #200, #379, #377, .T. ) ;
#619 = ORIENTED_EDGE ( 'NONE', *, *, #472, .F. ) ;
#620 = CARTESIAN_POINT ( 'NONE',  ( -3.174999999999999378, -3.888253587292845588E-16, -1.574999999999999956 ) ) ;
#621 = EDGE_LOOP ( 'NONE', ( #371, #143, #281, #333 ) ) ;
#622 = EDGE_CURVE ( 'NONE', #293, #259, #177, .T. ) ;
#623 = VECTOR ( 'NONE', #369, 1000.000000000000000 ) ;
#624 = FACE_OUTER_BOUND ( 'NONE', #250, .T. ) ;
#625 = ORIENTED_EDGE ( 'NONE', *, *, #415, .F. ) ;
#626 = ORIENTED_EDGE ( 'NONE', *, *, #782, .F. ) ;
#627 = CARTESIAN_POINT ( 'NONE',  ( 2.624999999999999556, 0.03499999999999981598, 1.574999999999999956 ) ) ;
#628 = COLOUR_RGB ( '',1.000000000000000000, 1.000000000000000000, 1.000000000000000000 ) ;
#629 = EDGE_CURVE ( 'NONE', #4, #811, #596, .T. ) ;
#630 = LINE ( 'NONE', #627, #470 ) ;
#631 = CARTESIAN_POINT ( 'NONE',  ( 3.174999999999999378, -3.888253587292845588E-16, 1.574999999999999956 ) ) ;
#632 = AXIS2_PLACEMENT_3D ( 'NONE', #443, #808, #890 ) ;
#633 = ORIENTED_EDGE ( 'NONE', *, *, #837, .F. ) ;
#634 = ORIENTED_EDGE ( 'NONE', *, *, #497, .F. ) ;
#635 = VERTEX_POINT ( 'NONE', #268 ) ;
#636 = FILL_AREA_STYLE_COLOUR ( '', #695 ) ;
#637 = STYLED_ITEM ( 'NONE', ( #322 ), #433 ) ;
#638 = DIRECTION ( 'NONE',  ( 1.184201401986594914E-16, -1.000000000000000000, 0.000000000000000000 ) ) ;
#639 = ADVANCED_FACE ( 'NONE', ( #271 ), #934, .T. ) ;
#640 = ORIENTED_EDGE ( 'NONE', *, *, #629, .F. ) ;
#641 = CARTESIAN_POINT ( 'NONE',  ( 3.139999999999999680, 0.6649999999999995914, -7.886521211245351992 ) ) ;
#642 = LINE ( 'NONE', #745, #416 ) ;
#643 = CARTESIAN_POINT ( 'NONE',  ( 0.000000000000000000, 0.000000000000000000, 1.574999999999999956 ) ) ;
#644 = FACE_OUTER_BOUND ( 'NONE', #621, .T. ) ;
#645 = LINE ( 'NONE', #824, #55 ) ;
#646 = VECTOR ( 'NONE', #953, 1000.000000000000000 ) ;
#647 = LINE ( 'NONE', #575, #353 ) ;
#648 = DIRECTION ( 'NONE',  ( -1.000000000000000000, 0.000000000000000000, -0.000000000000000000 ) ) ;
#649 = AXIS2_PLACEMENT_3D ( 'NONE', #380, #820, #459 ) ;
#650 = CARTESIAN_POINT ( 'NONE',  ( 3.139999999999999680, 0.03499999999999975353, -1.574999999999999956 ) ) ;
#651 = ADVANCED_FACE ( 'NONE', ( #72 ), #707, .T. ) ;
#652 = MANIFOLD_SOLID_BREP ( 'Boss-Extrude1', #616 ) ;
#653 = CARTESIAN_POINT ( 'NONE',  ( -2.624999999999999556, 0.03499999999999981598, 1.574999999999999956 ) ) ;
#654 = ORIENTED_EDGE ( 'NONE', *, *, #343, .T. ) ;
#655 = CARTESIAN_POINT ( 'NONE',  ( -2.624999999999999112, 0.6649999999999998135, 1.574999999999999956 ) ) ;
#656 = DIRECTION ( 'NONE',  ( 0.000000000000000000, 0.000000000000000000, 1.000000000000000000 ) ) ;
#657 = ADVANCED_FACE ( 'NONE', ( #927 ), #120, .F. ) ;
#658 = CARTESIAN_POINT ( 'NONE',  ( 0.000000000000000000, 0.000000000000000000, 1.574999999999999956 ) ) ;
#659 =( GEOMETRIC_REPRESENTATION_CONTEXT ( 3 ) GLOBAL_UNCERTAINTY_ASSIGNED_CONTEXT ( ( #473 ) ) GLOBAL_UNIT_ASSIGNED_CONTEXT ( ( #617, #236, #86 ) ) REPRESENTATION_CONTEXT ( 'NONE', 'WORKASPACE' ) );
#660 = DIRECTION ( 'NONE',  ( -1.000000000000000000, 0.000000000000000000, -0.000000000000000000 ) ) ;
#661 = ORIENTED_EDGE ( 'NONE', *, *, #732, .T. ) ;
#662 = DIRECTION ( 'NONE',  ( 1.000000000000000000, 0.000000000000000000, -0.000000000000000000 ) ) ;
#663 = DIRECTION ( 'NONE',  ( 1.000000000000000000, 0.000000000000000000, -0.000000000000000000 ) ) ;
#664 = VECTOR ( 'NONE', #886, 1000.000000000000000 ) ;
#665 = DIRECTION ( 'NONE',  ( -0.000000000000000000, 1.000000000000000000, -0.000000000000000000 ) ) ;
#666 = APPLICATION_CONTEXT ( 'automotive_design' ) ;
#667 = ORIENTED_EDGE ( 'NONE', *, *, #395, .F. ) ;
#668 = DIRECTION ( 'NONE',  ( -1.000000000000000000, -0.000000000000000000, -0.000000000000000000 ) ) ;
#669 = ORIENTED_EDGE ( 'NONE', *, *, #396, .T. ) ;
#670 = DIRECTION ( 'NONE',  ( -1.000000000000000000, 8.260587980841941245E-17, 0.000000000000000000 ) ) ;
#671 = CARTESIAN_POINT ( 'NONE',  ( 3.139999999999999680, 0.03499999999999975353, 1.574999999999999956 ) ) ;
#672 = LINE ( 'NONE', #770, #404 ) ;
#673 = CARTESIAN_POINT ( 'NONE',  ( 2.624999999999999556, 0.000000000000000000, 1.574999999999999956 ) ) ;
#674 = AXIS2_PLACEMENT_3D ( 'NONE', #562, #102, #932 ) ;
#675 = CARTESIAN_POINT ( 'NONE',  ( -2.624999999999999556, 0.000000000000000000, 1.574999999999999956 ) ) ;
#676 = VECTOR ( 'NONE', #828, 1000.000000000000000 ) ;
#677 = PLANE ( 'NONE',  #350 ) ;
#678 = LINE ( 'NONE', #335, #783 ) ;
#679 = DIRECTION ( 'NONE',  ( -1.000000000000000000, -7.069551976896086653E-16, 0.000000000000000000 ) ) ;
#680 = EDGE_CURVE ( 'NONE', #751, #915, #41, .T. ) ;
#681 =( LENGTH_UNIT ( ) NAMED_UNIT ( * ) SI_UNIT ( .MILLI., .METRE. ) );
#682 = DIRECTION ( 'NONE',  ( -0.000000000000000000, 0.000000000000000000, -1.000000000000000000 ) ) ;
#683 = CARTESIAN_POINT ( 'NONE',  ( -3.139999999999999680, 0.03499999999999975353, -1.574999999999999956 ) ) ;
#684 = CARTESIAN_POINT ( 'NONE',  ( 0.000000000000000000, 0.000000000000000000, -1.574999999999999956 ) ) ;
#685 = LINE ( 'NONE', #746, #664 ) ;
#686 = FACE_OUTER_BOUND ( 'NONE', #698, .T. ) ;
#687 = ORIENTED_EDGE ( 'NONE', *, *, #699, .T. ) ;
#688 = VERTEX_POINT ( 'NONE', #582 ) ;
#689 = PRESENTATION_LAYER_ASSIGNMENT (  '', '', ( #276 ) ) ;
#690 = VERTEX_POINT ( 'NONE', #929 ) ;
#691 = CARTESIAN_POINT ( 'NONE',  ( 2.624999999999999112, 0.6649999999999998135, -1.574999999999999956 ) ) ;
#692 = AXIS2_PLACEMENT_3D ( 'NONE', #244, #381, #540 ) ;
#693 = CARTESIAN_POINT ( 'NONE',  ( 2.624999999999999556, 0.03499999999999981598, 1.574999999999999956 ) ) ;
#694 = LINE ( 'NONE', #609, #492 ) ;
#695 = COLOUR_RGB ( '',0.7921568627450980005, 0.8196078431372548767, 0.9333333333333333481 ) ;
#696 = LINE ( 'NONE', #650, #5 ) ;
#697 = ORIENTED_EDGE ( 'NONE', *, *, #901, .F. ) ;
#698 = EDGE_LOOP ( 'NONE', ( #848, #539, #733, #134 ) ) ;
#699 = EDGE_CURVE ( 'NONE', #8, #180, #647, .T. ) ;
#700 = MECHANICAL_DESIGN_GEOMETRIC_PRESENTATION_REPRESENTATION (  '', ( #536 ), #815 ) ;
#701 = FACE_OUTER_BOUND ( 'NONE', #705, .T. ) ;
#702 = VERTEX_POINT ( 'NONE', #655 ) ;
#703 = DIRECTION ( 'NONE',  ( 2.753529326947312927E-16, 0.000000000000000000, 1.000000000000000000 ) ) ;
#704 = DIRECTION ( 'NONE',  ( 0.000000000000000000, -0.000000000000000000, -1.000000000000000000 ) ) ;
#705 = EDGE_LOOP ( 'NONE', ( #243, #100, #661, #211 ) ) ;
#706 = DIRECTION ( 'NONE',  ( -1.000000000000000000, 1.184201401986594914E-16, 0.000000000000000000 ) ) ;
#707 = PLANE ( 'NONE',  #763 ) ;
#708 = VECTOR ( 'NONE', #285, 1000.000000000000000 ) ;
#709 = LINE ( 'NONE', #428, #835 ) ;
#710 = ADVANCED_FACE ( 'NONE', ( #299 ), #262, .F. ) ;
#711 = LINE ( 'NONE', #911, #390 ) ;
#712 = CARTESIAN_POINT ( 'NONE',  ( 3.139999999999999680, 0.03499999999999975353, -1.574999999999999956 ) ) ;
#713 = DIRECTION ( 'NONE',  ( 1.000000000000000000, 0.000000000000000000, 0.000000000000000000 ) ) ;
#714 = ORIENTED_EDGE ( 'NONE', *, *, #366, .T. ) ;
#715 = ORIENTED_EDGE ( 'NONE', *, *, #519, .F. ) ;
#716 = DIRECTION ( 'NONE',  ( 9.856383386231860060E-17, 1.000000000000000000, 0.000000000000000000 ) ) ;
#717 = ADVANCED_FACE ( 'NONE', ( #39 ), #36, .F. ) ;
#718 =( NAMED_UNIT ( * ) PLANE_ANGLE_UNIT ( ) SI_UNIT ( $, .RADIAN. ) );
#719 = DIRECTION ( 'NONE',  ( -0.000000000000000000, -0.000000000000000000, -1.000000000000000000 ) ) ;
#720 =( NAMED_UNIT ( * ) SI_UNIT ( $, .STERADIAN. ) SOLID_ANGLE_UNIT ( ) );
#721 = AXIS2_PLACEMENT_3D ( 'NONE', #523, #375, #2 ) ;
#722 = CARTESIAN_POINT ( 'NONE',  ( -2.625000000000000000, 0.6649999999999998135, -1.574999999999999956 ) ) ;
#723 = VECTOR ( 'NONE', #605, 1000.000000000000000 ) ;
#724 = VECTOR ( 'NONE', #445, 1000.000000000000000 ) ;
#725 = DIRECTION ( 'NONE',  ( 1.000000000000000000, 0.000000000000000000, 0.000000000000000000 ) ) ;
#726 = CARTESIAN_POINT ( 'NONE',  ( 2.624999999999999556, 0.6999999999999995115, -1.574999999999999956 ) ) ;
#727 = ORIENTED_EDGE ( 'NONE', *, *, #843, .F. ) ;
#728 = ORIENTED_EDGE ( 'NONE', *, *, #882, .T. ) ;
#729 = CARTESIAN_POINT ( 'NONE',  ( -2.624999999999999556, 0.6999999999999995115, 1.574999999999999956 ) ) ;
#730 = SURFACE_STYLE_USAGE ( .BOTH. , #85 ) ;
#731 = CARTESIAN_POINT ( 'NONE',  ( -2.624999999999999112, -5.457499489587565478, 1.574999999999999956 ) ) ;
#732 = EDGE_CURVE ( 'NONE', #512, #750, #422, .T. ) ;
#733 = ORIENTED_EDGE ( 'NONE', *, *, #437, .T. ) ;
#734 = PLANE ( 'NONE',  #436 ) ;
#735 = SURFACE_STYLE_USAGE ( .BOTH. , #861 ) ;
#736 = CARTESIAN_POINT ( 'NONE',  ( -2.624999999999999556, 0.03499999999999981598, -1.574999999999999956 ) ) ;
#737 = VECTOR ( 'NONE', #478, 1000.000000000000000 ) ;
#738 = CARTESIAN_POINT ( 'NONE',  ( -3.139999999999999680, 0.03499999999999975353, -1.574999999999999956 ) ) ;
#739 = LINE ( 'NONE', #620, #759 ) ;
#740 = EDGE_CURVE ( 'NONE', #78, #186, #233, .T. ) ;
#741 = CARTESIAN_POINT ( 'NONE',  ( 2.624999999999998668, -5.457499489587566366, -1.574999999999999956 ) ) ;
#742 = CARTESIAN_POINT ( 'NONE',  ( -2.625000000000000000, -5.457499489587565478, -1.574999999999999956 ) ) ;
#743 = FILL_AREA_STYLE_COLOUR ( '', #628 ) ;
#744 = EDGE_CURVE ( 'NONE', #251, #4, #606, .T. ) ;
#745 = CARTESIAN_POINT ( 'NONE',  ( 3.174999999999999378, 0.6999999999999995115, 1.574999999999999956 ) ) ;
#746 = CARTESIAN_POINT ( 'NONE',  ( 2.624999999999999556, 0.000000000000000000, 1.574999999999999956 ) ) ;
#747 = VECTOR ( 'NONE', #791, 1000.000000000000000 ) ;
#748 = DIRECTION ( 'NONE',  ( 1.000000000000000000, 0.000000000000000000, 0.000000000000000000 ) ) ;
#749 = EDGE_CURVE ( 'NONE', #750, #889, #803, .T. ) ;
#750 = VERTEX_POINT ( 'NONE', #435 ) ;
#751 = VERTEX_POINT ( 'NONE', #879 ) ;
#752 = PLANE ( 'NONE',  #649 ) ;
#753 = EDGE_LOOP ( 'NONE', ( #669, #833, #121, #33, #807, #52, #798, #551 ) ) ;
#754 = DIRECTION ( 'NONE',  ( 0.000000000000000000, 0.000000000000000000, -1.000000000000000000 ) ) ;
#755 = CARTESIAN_POINT ( 'NONE',  ( 2.624999999999999556, 0.03499999999999981598, 1.574999999999999956 ) ) ;
#756 = VECTOR ( 'NONE', #275, 1000.000000000000000 ) ;
#757 = LINE ( 'NONE', #287, #316 ) ;
#758 = FACE_OUTER_BOUND ( 'NONE', #764, .T. ) ;
#759 = VECTOR ( 'NONE', #760, 1000.000000000000000 ) ;
#760 = DIRECTION ( 'NONE',  ( -0.000000000000000000, -1.000000000000000000, -0.000000000000000000 ) ) ;
#761 = EDGE_CURVE ( 'NONE', #896, #3, #69, .T. ) ;
#762 = ORIENTED_EDGE ( 'NONE', *, *, #888, .F. ) ;
#763 = AXIS2_PLACEMENT_3D ( 'NONE', #272, #781, #648 ) ;
#764 = EDGE_LOOP ( 'NONE', ( #515, #340, #805, #30 ) ) ;
#765 = VECTOR ( 'NONE', #716, 1000.000000000000000 ) ;
#766 = DIRECTION ( 'NONE',  ( 0.000000000000000000, -0.000000000000000000, -1.000000000000000000 ) ) ;
#767 = AXIS2_PLACEMENT_3D ( 'NONE', #851, #928, #706 ) ;
#768 = DIRECTION ( 'NONE',  ( 0.000000000000000000, 0.000000000000000000, 1.000000000000000000 ) ) ;
#769 = LINE ( 'NONE', #139, #595 ) ;
#770 = CARTESIAN_POINT ( 'NONE',  ( -2.624999999999999556, 0.6999999999999997335, -1.574999999999999956 ) ) ;
#771 = LINE ( 'NONE', #31, #765 ) ;
#772 = VECTOR ( 'NONE', #713, 1000.000000000000000 ) ;
#773 = PLANE ( 'NONE',  #792 ) ;
#774 = CARTESIAN_POINT ( 'NONE',  ( -2.624999999999999556, 0.6999999999999995115, -1.574999999999999956 ) ) ;
#775 = EDGE_LOOP ( 'NONE', ( #872, #561, #922, #311 ) ) ;
#776 = AXIS2_PLACEMENT_3D ( 'NONE', #10, #169, #754 ) ;
#777 = ORIENTED_EDGE ( 'NONE', *, *, #592, .F. ) ;
#778 =( LENGTH_UNIT ( ) NAMED_UNIT ( * ) SI_UNIT ( .MILLI., .METRE. ) );
#779 = CARTESIAN_POINT ( 'NONE',  ( 3.174999999999999378, 0.6999999999999995115, 1.574999999999999956 ) ) ;
#780 = ADVANCED_FACE ( 'NONE', ( #20 ), #513, .T. ) ;
#781 = DIRECTION ( 'NONE',  ( 0.000000000000000000, 0.000000000000000000, -1.000000000000000000 ) ) ;
#782 = EDGE_CURVE ( 'NONE', #809, #688, #645, .T. ) ;
#783 = VECTOR ( 'NONE', #580, 1000.000000000000000 ) ;
#784 = CARTESIAN_POINT ( 'NONE',  ( -2.624999999999999556, 0.6999999999999995115, 1.574999999999999956 ) ) ;
#785 = VECTOR ( 'NONE', #719, 1000.000000000000000 ) ;
#786 = ADVANCED_FACE ( 'NONE', ( #955 ), #883, .T. ) ;
#787 = DIRECTION ( 'NONE',  ( 0.000000000000000000, -1.000000000000000000, 0.000000000000000000 ) ) ;
#788 = ORIENTED_EDGE ( 'NONE', *, *, #782, .T. ) ;
#789 = EDGE_LOOP ( 'NONE', ( #867, #253, #372, #306 ) ) ;
#790 = DIRECTION ( 'NONE',  ( -1.000000000000000000, 0.000000000000000000, 0.000000000000000000 ) ) ;
#791 = DIRECTION ( 'NONE',  ( -0.000000000000000000, -0.000000000000000000, -1.000000000000000000 ) ) ;
#792 = AXIS2_PLACEMENT_3D ( 'NONE', #854, #638, #193 ) ;
#793 = ADVANCED_FACE ( 'NONE', ( #14 ), #538, .F. ) ;
#794 =( LENGTH_UNIT ( ) NAMED_UNIT ( * ) SI_UNIT ( .MILLI., .METRE. ) );
#795 = CARTESIAN_POINT ( 'NONE',  ( -2.625000000000000000, -5.457499489587565478, -1.574999999999999956 ) ) ;
#796 = CARTESIAN_POINT ( 'NONE',  ( 0.000000000000000000, 0.000000000000000000, -1.574999999999999956 ) ) ;
#797 = CLOSED_SHELL ( 'NONE', ( #40, #581, #274, #489, #639, #199 ) ) ;
#798 = ORIENTED_EDGE ( 'NONE', *, *, #901, .T. ) ;
#799 =( NAMED_UNIT ( * ) PLANE_ANGLE_UNIT ( ) SI_UNIT ( $, .RADIAN. ) );
#800 = ORIENTED_EDGE ( 'NONE', *, *, #480, .F. ) ;
#801 = LINE ( 'NONE', #384, #439 ) ;
#802 = SURFACE_STYLE_FILL_AREA ( #195 ) ;
#803 = LINE ( 'NONE', #525, #231 ) ;
#804 = CARTESIAN_POINT ( 'NONE',  ( 2.624999999999999556, 0.03499999999999981598, -1.574999999999999956 ) ) ;
#805 = ORIENTED_EDGE ( 'NONE', *, *, #465, .T. ) ;
#806 = DIRECTION ( 'NONE',  ( -0.000000000000000000, -0.000000000000000000, -1.000000000000000000 ) ) ;
#807 = ORIENTED_EDGE ( 'NONE', *, *, #96, .T. ) ;
#808 = DIRECTION ( 'NONE',  ( 7.069551976896086653E-16, 1.000000000000000000, 0.000000000000000000 ) ) ;
#809 = VERTEX_POINT ( 'NONE', #59 ) ;
#810 = EDGE_CURVE ( 'NONE', #251, #607, #801, .T. ) ;
#811 = VERTEX_POINT ( 'NONE', #899 ) ;
#812 = VECTOR ( 'NONE', #511, 1000.000000000000000 ) ;
#813 = PLANE ( 'NONE',  #599 ) ;
#814 = VECTOR ( 'NONE', #868, 1000.000000000000000 ) ;
#815 =( GEOMETRIC_REPRESENTATION_CONTEXT ( 3 ) GLOBAL_UNCERTAINTY_ASSIGNED_CONTEXT ( ( #839 ) ) GLOBAL_UNIT_ASSIGNED_CONTEXT ( ( #426, #718, #948 ) ) REPRESENTATION_CONTEXT ( 'NONE', 'WORKASPACE' ) );
#816 = AXIS2_PLACEMENT_3D ( 'NONE', #795, #865, #53 ) ;
#817 = DIRECTION ( 'NONE',  ( 0.000000000000000000, -1.000000000000000000, -0.000000000000000000 ) ) ;
#818 = ORIENTED_EDGE ( 'NONE', *, *, #304, .T. ) ;
#819 = CARTESIAN_POINT ( 'NONE',  ( 2.624999999999999556, 0.03499999999999981598, -1.574999999999999956 ) ) ;
#820 = DIRECTION ( 'NONE',  ( 0.000000000000000000, 1.000000000000000000, 0.000000000000000000 ) ) ;
#821 = ORIENTED_EDGE ( 'NONE', *, *, #304, .F. ) ;
#822 = SURFACE_SIDE_STYLE ('',( #269 ) ) ;
#823 = LINE ( 'NONE', #736, #504 ) ;
#824 = CARTESIAN_POINT ( 'NONE',  ( -2.624999999999998668, 0.6999999999999997335, 1.574999999999999956 ) ) ;
#825 = LINE ( 'NONE', #804, #564 ) ;
#826 = LINE ( 'NONE', #207, #893 ) ;
#827 = LINE ( 'NONE', #261, #297 ) ;
#828 = DIRECTION ( 'NONE',  ( 1.000000000000000000, 0.000000000000000000, 0.000000000000000000 ) ) ;
#829 = EDGE_CURVE ( 'NONE', #587, #896, #908, .T. ) ;
#830 = EDGE_LOOP ( 'NONE', ( #136, #283, #214, #906, #633, #619, #544, #715 ) ) ;
#831 =( GEOMETRIC_REPRESENTATION_CONTEXT ( 3 ) GLOBAL_UNCERTAINTY_ASSIGNED_CONTEXT ( ( #158 ) ) GLOBAL_UNIT_ASSIGNED_CONTEXT ( ( #140, #799, #720 ) ) REPRESENTATION_CONTEXT ( 'NONE', 'WORKASPACE' ) );
#832 = EDGE_LOOP ( 'NONE', ( #267, #303, #634, #76, #302, #800, #263, #444 ) ) ;
#833 = ORIENTED_EDGE ( 'NONE', *, *, #406, .T. ) ;
#834 = LINE ( 'NONE', #87, #724 ) ;
#835 = VECTOR ( 'NONE', #209, 1000.000000000000000 ) ;
#836 = FACE_OUTER_BOUND ( 'NONE', #289, .T. ) ;
#837 = EDGE_CURVE ( 'NONE', #163, #467, #834, .T. ) ;
#838 = ORIENTED_EDGE ( 'NONE', *, *, #465, .F. ) ;
#839 = UNCERTAINTY_MEASURE_WITH_UNIT (LENGTH_MEASURE( 1.000000000000000082E-05 ), #426, 'distance_accuracy_value', 'NONE');
#840 = AXIS2_PLACEMENT_3D ( 'NONE', #446, #960, #670 ) ;
#841 = EDGE_LOOP ( 'NONE', ( #913, #728, #487, #91 ) ) ;
#842 = FACE_OUTER_BOUND ( 'NONE', #88, .T. ) ;
#843 = EDGE_CURVE ( 'NONE', #180, #278, #506, .T. ) ;
#844 = ORIENTED_EDGE ( 'NONE', *, *, #182, .F. ) ;
#845 = ORIENTED_EDGE ( 'NONE', *, *, #732, .F. ) ;
#846 = VERTEX_POINT ( 'NONE', #591 ) ;
#847 = DIRECTION ( 'NONE',  ( 0.000000000000000000, 1.000000000000000000, 0.000000000000000000 ) ) ;
#848 = ORIENTED_EDGE ( 'NONE', *, *, #82, .F. ) ;
#849 = DIRECTION ( 'NONE',  ( 0.000000000000000000, 1.000000000000000000, 0.000000000000000000 ) ) ;
#850 = ADVANCED_FACE ( 'NONE', ( #167 ), #68, .T. ) ;
#851 = CARTESIAN_POINT ( 'NONE',  ( 2.624999999999999556, 0.03499999999999981598, 1.574999999999999956 ) ) ;
#852 = DIRECTION ( 'NONE',  ( 0.000000000000000000, 0.000000000000000000, -1.000000000000000000 ) ) ;
#853 =( GEOMETRIC_REPRESENTATION_CONTEXT ( 3 ) GLOBAL_UNCERTAINTY_ASSIGNED_CONTEXT ( ( #323 ) ) GLOBAL_UNIT_ASSIGNED_CONTEXT ( ( #778, #858, #490 ) ) REPRESENTATION_CONTEXT ( 'NONE', 'WORKASPACE' ) );
#854 = CARTESIAN_POINT ( 'NONE',  ( -2.624999999999999556, 0.03499999999999981598, 1.574999999999999956 ) ) ;
#855 = ORIENTED_EDGE ( 'NONE', *, *, #829, .T. ) ;
#856 = LINE ( 'NONE', #683, #388 ) ;
#857 = SURFACE_STYLE_FILL_AREA ( #61 ) ;
#858 =( NAMED_UNIT ( * ) PLANE_ANGLE_UNIT ( ) SI_UNIT ( $, .RADIAN. ) );
#859 = LINE ( 'NONE', #653, #646 ) ;
#860 = CARTESIAN_POINT ( 'NONE',  ( -2.624999999999999556, 0.6999999999999995115, -1.574999999999999956 ) ) ;
#861 = SURFACE_SIDE_STYLE ('',( #421 ) ) ;
#862 = AXIS2_PLACEMENT_3D ( 'NONE', #355, #787, #866 ) ;
#863 = DIRECTION ( 'NONE',  ( 0.000000000000000000, 0.000000000000000000, -1.000000000000000000 ) ) ;
#864 = ADVANCED_FACE ( 'NONE', ( #389 ), #677, .F. ) ;
#865 = DIRECTION ( 'NONE',  ( -1.000000000000000000, 9.856383386231860060E-17, 2.753529326947312927E-16 ) ) ;
#866 = DIRECTION ( 'NONE',  ( 0.000000000000000000, -0.000000000000000000, -1.000000000000000000 ) ) ;
#867 = ORIENTED_EDGE ( 'NONE', *, *, #480, .T. ) ;
#868 = DIRECTION ( 'NONE',  ( -1.000000000000000000, 8.260587980841940012E-17, -0.000000000000000000 ) ) ;
#869 = FACE_OUTER_BOUND ( 'NONE', #385, .T. ) ;
#870 = DIRECTION ( 'NONE',  ( -0.000000000000000000, -1.000000000000000000, -0.000000000000000000 ) ) ;
#871 = DIRECTION ( 'NONE',  ( -1.000000000000000000, 7.069551976896086653E-16, 0.000000000000000000 ) ) ;
#872 = ORIENTED_EDGE ( 'NONE', *, *, #96, .F. ) ;
#873 = DIRECTION ( 'NONE',  ( -2.753529326947312927E-16, 0.000000000000000000, -1.000000000000000000 ) ) ;
#874 = DIRECTION ( 'NONE',  ( 0.000000000000000000, 0.000000000000000000, -1.000000000000000000 ) ) ;
#875 = EDGE_CURVE ( 'NONE', #278, #186, #84, .T. ) ;
#876 = PRODUCT_CONTEXT ( 'NONE', #220, 'mechanical' ) ;
#877 = DIRECTION ( 'NONE',  ( 1.000000000000000000, -1.184201401986594914E-16, 0.000000000000000000 ) ) ;
#878 = ORIENTED_EDGE ( 'NONE', *, *, #332, .T. ) ;
#879 = CARTESIAN_POINT ( 'NONE',  ( 2.624999999999999112, 0.6999999999999992895, -1.574999999999999956 ) ) ;
#880 = DIRECTION ( 'NONE',  ( -1.000000000000000000, 0.000000000000000000, 0.000000000000000000 ) ) ;
#881 = MECHANICAL_DESIGN_GEOMETRIC_PRESENTATION_REPRESENTATION (  '', ( #326 ), #66 ) ;
#882 = EDGE_CURVE ( 'NONE', #702, #809, #612, .T. ) ;
#883 = PLANE ( 'NONE',  #840 ) ;
#884 = LINE ( 'NONE', #265, #737 ) ;
#885 = VECTOR ( 'NONE', #578, 1000.000000000000000 ) ;
#886 = DIRECTION ( 'NONE',  ( 0.000000000000000000, -0.000000000000000000, -1.000000000000000000 ) ) ;
#887 = CARTESIAN_POINT ( 'NONE',  ( 3.139999999999999680, 0.03499999999999975353, 1.574999999999999956 ) ) ;
#888 = EDGE_CURVE ( 'NONE', #278, #936, #769, .T. ) ;
#889 = VERTEX_POINT ( 'NONE', #362 ) ;
#890 = DIRECTION ( 'NONE',  ( 1.000000000000000000, -7.069551976896086653E-16, 0.000000000000000000 ) ) ;
#891 = FACE_OUTER_BOUND ( 'NONE', #58, .T. ) ;
#892 = DIRECTION ( 'NONE',  ( -1.000000000000000000, 0.000000000000000000, -0.000000000000000000 ) ) ;
#893 = VECTOR ( 'NONE', #584, 1000.000000000000000 ) ;
#894 = PRESENTATION_LAYER_ASSIGNMENT (  '', '', ( #637 ) ) ;
#895 = CARTESIAN_POINT ( 'NONE',  ( 2.624999999999998668, -5.457499489587566366, -1.574999999999999956 ) ) ;
#896 = VERTEX_POINT ( 'NONE', #427 ) ;
#897 = CARTESIAN_POINT ( 'NONE',  ( 3.139999999999999680, 0.6649999999999995914, 1.574999999999999956 ) ) ;
#898 = ORIENTED_EDGE ( 'NONE', *, *, #497, .T. ) ;
#899 = CARTESIAN_POINT ( 'NONE',  ( -2.624999999999999556, 0.03499999999999981598, -1.574999999999999956 ) ) ;
#900 = ORIENTED_EDGE ( 'NONE', *, *, #165, .T. ) ;
#901 = EDGE_CURVE ( 'NONE', #264, #429, #826, .T. ) ;
#902 = CARTESIAN_POINT ( 'NONE',  ( -3.139999999999999680, 0.6649999999999995914, -1.574999999999999956 ) ) ;
#903 = VERTEX_POINT ( 'NONE', #726 ) ;
#904 = PRODUCT_DEFINITION_SHAPE ( 'NONE', 'NONE',  #113 ) ;
#905 = DIRECTION ( 'NONE',  ( 0.000000000000000000, 1.000000000000000000, 0.000000000000000000 ) ) ;
#906 = ORIENTED_EDGE ( 'NONE', *, *, #29, .F. ) ;
#907 = LINE ( 'NONE', #63, #468 ) ;
#908 = LINE ( 'NONE', #957, #925 ) ;
#909 = LINE ( 'NONE', #279, #756 ) ;
#910 = PRESENTATION_STYLE_ASSIGNMENT (( #496 ) ) ;
#911 = CARTESIAN_POINT ( 'NONE',  ( 2.624999999999999112, 0.6999999999999992895, -1.574999999999999956 ) ) ;
#912 = EDGE_CURVE ( 'NONE', #163, #481, #469, .T. ) ;
#913 = ORIENTED_EDGE ( 'NONE', *, *, #294, .F. ) ;
#914 = UNCERTAINTY_MEASURE_WITH_UNIT (LENGTH_MEASURE( 1.000000000000000082E-05 ), #794, 'distance_accuracy_value', 'NONE');
#915 = VERTEX_POINT ( 'NONE', #135 ) ;
#916 = VECTOR ( 'NONE', #748, 1000.000000000000000 ) ;
#917 = FACE_OUTER_BOUND ( 'NONE', #441, .T. ) ;
#918 = EDGE_LOOP ( 'NONE', ( #878, #640, #232, #22 ) ) ;
#919 = ORIENTED_EDGE ( 'NONE', *, *, #875, .T. ) ;
#920 = CARTESIAN_POINT ( 'NONE',  ( -3.139999999999999680, 0.6649999999999995914, 1.574999999999999956 ) ) ;
#921 = ORIENTED_EDGE ( 'NONE', *, *, #396, .F. ) ;
#922 = ORIENTED_EDGE ( 'NONE', *, *, #837, .T. ) ;
#923 = ADVANCED_FACE ( 'NONE', ( #917 ), #734, .F. ) ;
#924 = LINE ( 'NONE', #57, #166 ) ;
#925 = VECTOR ( 'NONE', #510, 1000.000000000000000 ) ;
#926 = VECTOR ( 'NONE', #191, 1000.000000000000000 ) ;
#927 = FACE_OUTER_BOUND ( 'NONE', #458, .T. ) ;
#928 = DIRECTION ( 'NONE',  ( -1.184201401986594914E-16, -1.000000000000000000, 0.000000000000000000 ) ) ;
#929 = CARTESIAN_POINT ( 'NONE',  ( -3.139999999999999680, 0.03499999999999975353, 1.574999999999999956 ) ) ;
#930 = AXIS2_PLACEMENT_3D ( 'NONE', #643, #863, #483 ) ;
#931 = EDGE_CURVE ( 'NONE', #252, #702, #238, .T. ) ;
#932 = DIRECTION ( 'NONE',  ( 1.000000000000000000, 0.000000000000000000, 0.000000000000000000 ) ) ;
#933 = FACE_OUTER_BOUND ( 'NONE', #789, .T. ) ;
#934 = PLANE ( 'NONE',  #479 ) ;
#935 = DIRECTION ( 'NONE',  ( 0.000000000000000000, 0.000000000000000000, 1.000000000000000000 ) ) ;
#936 = VERTEX_POINT ( 'NONE', #117 ) ;
#937 = CARTESIAN_POINT ( 'NONE',  ( 2.624999999999999556, 0.000000000000000000, -1.574999999999999956 ) ) ;
#938 = ADVANCED_FACE ( 'NONE', ( #686 ), #43, .F. ) ;
#939 = AXIS2_PLACEMENT_3D ( 'NONE', #684, #77, #235 ) ;
#940 = ORIENTED_EDGE ( 'NONE', *, *, #810, .F. ) ;
#941 = CARTESIAN_POINT ( 'NONE',  ( -2.624999999999999556, 0.6649999999999998135, -1.574999999999999956 ) ) ;
#942 = LINE ( 'NONE', #494, #926 ) ;
#943 = DIRECTION ( 'NONE',  ( 0.000000000000000000, -0.000000000000000000, 1.000000000000000000 ) ) ;
#944 = ADVANCED_FACE ( 'NONE', ( #477 ), #952, .F. ) ;
#945 = DIRECTION ( 'NONE',  ( 0.000000000000000000, -0.000000000000000000, -1.000000000000000000 ) ) ;
#946 = UNCERTAINTY_MEASURE_WITH_UNIT (LENGTH_MEASURE( 1.000000000000000082E-05 ), #681, 'distance_accuracy_value', 'NONE');
#947 = ORIENTED_EDGE ( 'NONE', *, *, #300, .T. ) ;
#948 =( NAMED_UNIT ( * ) SI_UNIT ( $, .STERADIAN. ) SOLID_ANGLE_UNIT ( ) );
#949 = PLANE ( 'NONE',  #137 ) ;
#950 = ORIENTED_EDGE ( 'NONE', *, *, #888, .T. ) ;
#951 = APPLICATION_PROTOCOL_DEFINITION ( 'draft international standard', 'automotive_design', 1998, #220 ) ;
#952 = PLANE ( 'NONE',  #486 ) ;
#953 = DIRECTION ( 'NONE',  ( -1.000000000000000000, -1.184201401986594914E-16, 0.000000000000000000 ) ) ;
#954 = DIRECTION ( 'NONE',  ( -1.000000000000000000, -0.000000000000000000, -0.000000000000000000 ) ) ;
#955 = FACE_OUTER_BOUND ( 'NONE', #331, .T. ) ;
#956 = VECTOR ( 'NONE', #349, 1000.000000000000000 ) ;
#957 = CARTESIAN_POINT ( 'NONE',  ( 3.174999999999999378, -3.888253587292845588E-16, 1.574999999999999956 ) ) ;
#958 = CARTESIAN_POINT ( 'NONE',  ( 2.624999999999999556, 0.03499999999999981598, -1.574999999999999956 ) ) ;
#959 = ORIENTED_EDGE ( 'NONE', *, *, #104, .F. ) ;
#960 = DIRECTION ( 'NONE',  ( 8.260587980841941245E-17, 1.000000000000000000, -2.274577126307677335E-32 ) ) ;
#961 = EDGE_CURVE ( 'NONE', #429, #197, #757, .T. ) ;
ENDSEC;
END-ISO-10303-21;
