M48
; DRILL file KiCad 10.0.1 date 2026-09-24T01:02:54
; FORMAT={-:-/ absolute / metric / decimal}
; #@! TF.CreationDate,2026-09-24T01:02:54-05:00
; #@! TF.GenerationSoftware,Kicad,Pcbnew,10.0.1
; #@! TF.FileFunction,Plated,1,4,PTH
FMAT,2
METRIC
; #@! TA.AperFunction,Plated,PTH,ViaDrill
T1C0.300
; #@! TA.AperFunction,Plated,PTH,ComponentDrill
T2C0.300
; #@! TA.AperFunction,Plated,PTH,ViaDrill
T3C0.600
; #@! TA.AperFunction,Plated,PTH,ComponentDrill
T4C0.800
; #@! TA.AperFunction,Plated,PTH,ComponentDrill
T5C4.500
%
G90
G05
T1
X45.541Y-45.85
T2
X41.83Y-50.05
X41.83Y-51.35
X41.83Y-52.65
X43.13Y-50.05
X43.13Y-51.35
X43.13Y-52.65
X44.43Y-50.05
X44.43Y-51.35
X44.43Y-52.65
X45.73Y-50.05
X45.73Y-51.35
X45.73Y-52.65
X47.03Y-50.05
X47.03Y-51.35
X47.03Y-52.65
X48.33Y-50.05
X48.33Y-51.35
X48.33Y-52.65
X49.63Y-50.05
X49.63Y-51.35
X49.63Y-52.65
T3
X14.6Y-27.12
X14.6Y-29.12
X14.6Y-31.12
X14.6Y-33.12
X14.6Y-35.12
X14.6Y-37.12
X15.99Y-44.68
X16.1Y-27.12
X16.1Y-29.12
X16.1Y-31.12
X16.1Y-33.12
X16.1Y-35.12
X16.1Y-37.12
X16.73Y-62.85
X16.98Y-56.85
X17.23Y-51.1
X17.6Y-27.12
X17.6Y-29.12
X17.6Y-31.12
X17.6Y-33.12
X17.6Y-35.12
X17.6Y-37.12
X18.94Y-44.72
X20.98Y-56.6
X21.355Y-52.225
X24.48Y-37.85
X24.73Y-54.8
X27.48Y-55.6
X28.46Y-53.4
X29.98Y-57.6
X31.73Y-61.35
X32.73Y-44.1
X33.48Y-51.35
X34.98Y-58.85
X35.4Y-50.34
X35.889Y-46.059
X36.39Y-38.3
X36.73Y-52.6
X37.23Y-48.45
X37.48Y-55.35
X37.48Y-57.1
X39.48Y-45.35
X40.98Y-41.6
X41.23Y-39.1
X42.126Y-45.145
X43.792Y-45.138
X45.23Y-59.6
X45.349Y-44.811
X45.38Y-29.77
X45.39Y-38.58
X46.451Y-45.027
X47.33Y-55.85
X47.86Y-45.076
X49.73Y-38.85
X50.13Y-41.45
X50.48Y-60.1
X50.98Y-58.35
X51.23Y-46.1
X52.83Y-45.25
X54.73Y-45.25
X54.89Y-38.3
X55.73Y-55.1
X56.29Y-43.45
X58.53Y-40.05
X58.626Y-43.906
X61.23Y-51.1
X66.73Y-55.35
X67.23Y-60.1
X68.23Y-43.1
X68.23Y-51.1
X68.36Y-28.45
X68.36Y-29.95
X68.36Y-31.45
X68.36Y-33.16
X68.36Y-34.66
X68.36Y-36.16
X68.36Y-37.66
X69.86Y-28.45
X69.86Y-29.95
X69.86Y-31.45
X69.86Y-33.16
X69.86Y-34.66
X69.86Y-36.16
X69.86Y-37.66
X71.36Y-34.66
X71.36Y-36.16
X71.36Y-37.66
X74.73Y-51.1
T4
X20.877Y-30.65
X24.377Y-30.65
X59.743Y-31.33
X63.243Y-31.33
X70.73Y-54.81
X70.73Y-57.35
X70.73Y-59.89
X73.08Y-31.33
X76.58Y-31.33
T5
X19.03Y-21.45
X26.23Y-21.45
X65.03Y-21.35
X72.23Y-21.35
M30
