%TF.GenerationSoftware,KiCad,Pcbnew,10.0.1*%
%TF.CreationDate,2026-09-24T01:01:45-05:00*%
%TF.ProjectId,ORCA-BOARD,4f524341-2d42-44f4-9152-442e6b696361,rev?*%
%TF.SameCoordinates,Original*%
%TF.FileFunction,Copper,L2,Inr*%
%TF.FilePolarity,Positive*%
%FSLAX46Y46*%
G04 Gerber Fmt 4.6, Leading zero omitted, Abs format (unit mm)*
G04 Created by KiCad (PCBNEW 10.0.1) date 2026-09-24 01:01:45*
%MOMM*%
%LPD*%
G01*
G04 APERTURE LIST*
G04 Aperture macros list*
%AMRoundRect*
0 Rectangle with rounded corners*
0 $1 Rounding radius*
0 $2 $3 $4 $5 $6 $7 $8 $9 X,Y pos of 4 corners*
0 Add a 4 corners polygon primitive as box body*
4,1,4,$2,$3,$4,$5,$6,$7,$8,$9,$2,$3,0*
0 Add four circle primitives for the rounded corners*
1,1,$1+$1,$2,$3*
1,1,$1+$1,$4,$5*
1,1,$1+$1,$6,$7*
1,1,$1+$1,$8,$9*
0 Add four rect primitives between the rounded corners*
20,1,$1+$1,$2,$3,$4,$5,0*
20,1,$1+$1,$4,$5,$6,$7,0*
20,1,$1+$1,$6,$7,$8,$9,0*
20,1,$1+$1,$8,$9,$2,$3,0*%
G04 Aperture macros list end*
%TA.AperFunction,ComponentPad*%
%ADD10C,0.600000*%
%TD*%
%TA.AperFunction,ComponentPad*%
%ADD11RoundRect,0.250000X-0.550000X-0.550000X0.550000X-0.550000X0.550000X0.550000X-0.550000X0.550000X0*%
%TD*%
%TA.AperFunction,ComponentPad*%
%ADD12C,1.600000*%
%TD*%
%TA.AperFunction,ComponentPad*%
%ADD13RoundRect,1.500000X1.500000X1.500000X-1.500000X1.500000X-1.500000X-1.500000X1.500000X-1.500000X0*%
%TD*%
%TA.AperFunction,ComponentPad*%
%ADD14C,6.000000*%
%TD*%
%TA.AperFunction,ComponentPad*%
%ADD15RoundRect,0.250000X0.550000X0.550000X-0.550000X0.550000X-0.550000X-0.550000X0.550000X-0.550000X0*%
%TD*%
%TA.AperFunction,ComponentPad*%
%ADD16C,1.440000*%
%TD*%
%TA.AperFunction,ViaPad*%
%ADD17C,0.800000*%
%TD*%
%TA.AperFunction,ViaPad*%
%ADD18C,0.600000*%
%TD*%
%TA.AperFunction,Conductor*%
%ADD19C,2.000000*%
%TD*%
%TA.AperFunction,Conductor*%
%ADD20C,0.200000*%
%TD*%
%TA.AperFunction,Conductor*%
%ADD21C,0.300000*%
%TD*%
G04 APERTURE END LIST*
D10*
%TO.N,GNDA*%
%TO.C,U1*%
X41830000Y-52650000D03*
X43130000Y-52650000D03*
X44430000Y-52650000D03*
X45730000Y-52650000D03*
X47030000Y-52650000D03*
X48330000Y-52650000D03*
X49630000Y-52650000D03*
X41830000Y-51350000D03*
X43130000Y-51350000D03*
X44430000Y-51350000D03*
X45730000Y-51350000D03*
X47030000Y-51350000D03*
X48330000Y-51350000D03*
X49630000Y-51350000D03*
X41830000Y-50050000D03*
X43130000Y-50050000D03*
X44430000Y-50050000D03*
X45730000Y-50050000D03*
X47030000Y-50050000D03*
X48330000Y-50050000D03*
X49630000Y-50050000D03*
%TD*%
D11*
%TO.N,VBUS*%
%TO.C,C2*%
X20877349Y-30650000D03*
D12*
%TO.N,GND*%
X24377349Y-30650000D03*
%TD*%
D13*
%TO.N,GND*%
%TO.C,J1*%
X26230000Y-21450000D03*
D14*
%TO.N,VBUS*%
X19030000Y-21450000D03*
%TD*%
D15*
%TO.N,/VOUT*%
%TO.C,C19*%
X63242651Y-31330000D03*
D12*
%TO.N,GND*%
X59742651Y-31330000D03*
%TD*%
D11*
%TO.N,/VOUT*%
%TO.C,C20*%
X73080000Y-31330000D03*
D12*
%TO.N,GND*%
X76580000Y-31330000D03*
%TD*%
D16*
%TO.N,Net-(R14-Pad2)*%
%TO.C,RV1*%
X70730000Y-54810000D03*
%TO.N,GNDA*%
X70730000Y-57350000D03*
X70730000Y-59890000D03*
%TD*%
D13*
%TO.N,GND*%
%TO.C,J2*%
X72230000Y-21350000D03*
D14*
%TO.N,/VOUT*%
X65030000Y-21350000D03*
%TD*%
D17*
%TO.N,GND*%
X74730000Y-51100000D03*
X68230000Y-51100000D03*
X28460000Y-53399900D03*
D18*
X45540659Y-45850000D03*
D17*
X68230000Y-43100000D03*
X61230000Y-51100000D03*
X45390000Y-38580000D03*
X18940000Y-44720000D03*
X15990000Y-44680000D03*
X45380000Y-29770000D03*
X58626041Y-43906041D03*
%TO.N,VBUS*%
X14600000Y-31120000D03*
X16100000Y-27120000D03*
X17600000Y-33120000D03*
X17600000Y-37120000D03*
X16100000Y-37120000D03*
X14600000Y-29120000D03*
X14600000Y-35120000D03*
X17600000Y-31120000D03*
X14600000Y-27120000D03*
X17600000Y-29120000D03*
X14600000Y-37120000D03*
X16100000Y-35120000D03*
X14600000Y-33120000D03*
X37480000Y-57100000D03*
X17600000Y-27120000D03*
X16100000Y-33120000D03*
X16100000Y-29120000D03*
X17600000Y-35120000D03*
X16100000Y-31120000D03*
%TO.N,GNDA*%
X47330000Y-55850000D03*
X24730000Y-54800000D03*
%TO.N,/FB*%
X55730000Y-55100000D03*
X50480000Y-60100000D03*
%TO.N,/EN*%
X36730000Y-52600000D03*
X21355000Y-52225000D03*
%TO.N,Net-(U1-VIN)*%
X37480000Y-55350000D03*
X20980000Y-56600000D03*
%TO.N,/MODE*%
X17230000Y-51100000D03*
X27480000Y-55600000D03*
%TO.N,/DITH*%
X29980000Y-57600000D03*
X16980000Y-56850000D03*
%TO.N,/RT*%
X34980000Y-58850000D03*
X16730000Y-62850000D03*
%TO.N,/SS*%
X31730000Y-61350000D03*
X45230000Y-59600000D03*
%TO.N,/VOUT*%
X68360000Y-29950000D03*
X71360000Y-34660000D03*
X71360000Y-37660000D03*
X69860000Y-33160000D03*
X69860000Y-28450000D03*
X50980000Y-58350000D03*
X71360000Y-36160000D03*
X68360000Y-37660000D03*
X68360000Y-33160000D03*
X68360000Y-31450000D03*
X69860000Y-34660000D03*
X68360000Y-34660000D03*
X69860000Y-29950000D03*
X66730000Y-55350000D03*
X43792377Y-45137700D03*
X67230000Y-60100000D03*
X69860000Y-37660000D03*
X69860000Y-36160000D03*
X68360000Y-28450000D03*
X68360000Y-36160000D03*
X69860000Y-31450000D03*
%TO.N,/SW2*%
X54890000Y-38300000D03*
X51230000Y-46100000D03*
%TO.N,/HDRV2*%
X52830000Y-45250000D03*
X58530000Y-40050000D03*
%TO.N,/BOOT2*%
X49730000Y-38850000D03*
X35400000Y-50340000D03*
X47860137Y-45076000D03*
%TO.N,/LDRV2*%
X56290000Y-43450000D03*
X46450522Y-45026870D03*
%TO.N,/VCC*%
X35889314Y-46059314D03*
X45348916Y-44810812D03*
%TO.N,/LDRV1*%
X40980000Y-41600000D03*
X42125666Y-45145000D03*
%TO.N,/BOOT1*%
X33480000Y-51350000D03*
X41230000Y-39100000D03*
X39480000Y-45350000D03*
%TO.N,/HDRV1*%
X32730000Y-44100000D03*
X24480000Y-37850000D03*
%TO.N,/SW1*%
X36390000Y-38300000D03*
X37230000Y-48450000D03*
%TO.N,Net-(Q2-S-Pad1)*%
X54730000Y-45250000D03*
X50130000Y-41450000D03*
%TD*%
%TO.N,VBUS*%
D19*
X34980000Y-57100000D02*
X28480000Y-50600000D01*
X28480000Y-50600000D02*
X28480000Y-42100000D01*
X37480000Y-57100000D02*
X34980000Y-57100000D01*
%TO.N,/VOUT*%
X72730000Y-34850000D02*
X77730000Y-39850000D01*
X69480000Y-62350000D02*
X56480000Y-62350000D01*
X76730000Y-53100000D02*
X76730000Y-59850000D01*
X43717533Y-44332703D02*
X43717533Y-43862467D01*
D20*
X68980000Y-53100000D02*
X76730000Y-53100000D01*
D19*
X43717533Y-43862467D02*
X47570000Y-40010000D01*
D20*
X66730000Y-55350000D02*
X68980000Y-53100000D01*
D19*
X56480000Y-62350000D02*
X52480000Y-58350000D01*
X52480000Y-58350000D02*
X50980000Y-58350000D01*
X72730000Y-30850000D02*
X72730000Y-34850000D01*
X56230000Y-16600000D02*
X58980000Y-19350000D01*
X76730000Y-59850000D02*
X74230000Y-62350000D01*
X47570000Y-40010000D02*
X47570000Y-17010000D01*
X74230000Y-62350000D02*
X69480000Y-62350000D01*
X47570000Y-17010000D02*
X47980000Y-16600000D01*
X58980000Y-19350000D02*
X60980000Y-19350000D01*
D20*
X67230000Y-60100000D02*
X69480000Y-62350000D01*
D19*
X77730000Y-52100000D02*
X76730000Y-53100000D01*
X68230000Y-39350000D02*
X68230000Y-38350000D01*
X77730000Y-39850000D02*
X77730000Y-52100000D01*
X47980000Y-16600000D02*
X56230000Y-16600000D01*
%TO.N,/SW2*%
D20*
X51730000Y-45600000D02*
X51730000Y-40850000D01*
X51230000Y-46100000D02*
X51730000Y-45600000D01*
X51730000Y-40850000D02*
X52730000Y-39850000D01*
%TO.N,/VCC*%
D21*
X44180000Y-46150000D02*
X35980000Y-46150000D01*
X45348916Y-44810812D02*
X45348916Y-44981084D01*
X45348916Y-44981084D02*
X44180000Y-46150000D01*
X35980000Y-46150000D02*
X35889314Y-46059314D01*
%TO.N,/SW1*%
D20*
X34989314Y-46432107D02*
X34989314Y-38340686D01*
X37230000Y-48450000D02*
X37007207Y-48450000D01*
X37007207Y-48450000D02*
X34989314Y-46432107D01*
%TD*%
%TA.AperFunction,Conductor*%
%TO.N,VBUS*%
G36*
X22367683Y-13375523D02*
G01*
X22382681Y-13379927D01*
X22397670Y-13389555D01*
X22414740Y-13394560D01*
X22441423Y-13417661D01*
X22442697Y-13419130D01*
X22470133Y-13473778D01*
X22471743Y-13481110D01*
X22474628Y-13507209D01*
X22500766Y-20041693D01*
X22495884Y-20076642D01*
X22493411Y-20085192D01*
X22485519Y-20097581D01*
X22482169Y-20111886D01*
X22467126Y-20126458D01*
X22455875Y-20144123D01*
X22442537Y-20150279D01*
X22431986Y-20160501D01*
X22411453Y-20164627D01*
X22392437Y-20173405D01*
X22377886Y-20171372D01*
X22363485Y-20174267D01*
X22343982Y-20166637D01*
X22323239Y-20163741D01*
X22310948Y-20153716D01*
X22298417Y-20148814D01*
X22273860Y-20123464D01*
X22270826Y-20119274D01*
X22256699Y-20094002D01*
X22253050Y-20085192D01*
X22197780Y-19951758D01*
X22197773Y-19951744D01*
X22035677Y-19648481D01*
X22035666Y-19648463D01*
X21844622Y-19362546D01*
X21844612Y-19362533D01*
X21676213Y-19157339D01*
X21676212Y-19157338D01*
X20885446Y-19948103D01*
X20824123Y-19981588D01*
X20754431Y-19976604D01*
X20710084Y-19948103D01*
X20531894Y-19769913D01*
X20498409Y-19708590D01*
X20503393Y-19638898D01*
X20531894Y-19594551D01*
X21322660Y-18803786D01*
X21322660Y-18803785D01*
X21117480Y-18635398D01*
X21117467Y-18635387D01*
X21117453Y-18635377D01*
X20831536Y-18444333D01*
X20831518Y-18444322D01*
X20528255Y-18282226D01*
X20528241Y-18282219D01*
X20369390Y-18216421D01*
X20210541Y-18150623D01*
X19881433Y-18050789D01*
X19880839Y-18050650D01*
X19879529Y-18050411D01*
X19544207Y-17983712D01*
X19544192Y-17983709D01*
X19544158Y-17983704D01*
X19393295Y-17968846D01*
X19201941Y-17950000D01*
X19201937Y-17950000D01*
X18858063Y-17950000D01*
X18858059Y-17950000D01*
X18690173Y-17966534D01*
X18515840Y-17983704D01*
X18515806Y-17983709D01*
X18515791Y-17983712D01*
X18180469Y-18050411D01*
X18179158Y-18050650D01*
X18178565Y-18050789D01*
X17849457Y-18150623D01*
X17531758Y-18282219D01*
X17531744Y-18282226D01*
X17387781Y-18359175D01*
X17228480Y-18444322D01*
X17228465Y-18444331D01*
X17036976Y-18572280D01*
X16942546Y-18635377D01*
X16942532Y-18635387D01*
X16942524Y-18635392D01*
X16942518Y-18635398D01*
X16737337Y-18803786D01*
X17528104Y-19594552D01*
X17561589Y-19655875D01*
X17556605Y-19725566D01*
X17528104Y-19769914D01*
X17349914Y-19948104D01*
X17288591Y-19981589D01*
X17218899Y-19976605D01*
X17174552Y-19948104D01*
X16383786Y-19157337D01*
X16215398Y-19362518D01*
X16215387Y-19362532D01*
X16215377Y-19362546D01*
X16152280Y-19456976D01*
X16024331Y-19648465D01*
X16024322Y-19648480D01*
X15967531Y-19754731D01*
X15864173Y-19948103D01*
X15862219Y-19951758D01*
X15730623Y-20269457D01*
X15630789Y-20598565D01*
X15630650Y-20599158D01*
X15630411Y-20600469D01*
X15563712Y-20935791D01*
X15563709Y-20935806D01*
X15563704Y-20935840D01*
X15530000Y-21278063D01*
X15530000Y-21621935D01*
X15563704Y-21964158D01*
X15563709Y-21964192D01*
X15563712Y-21964207D01*
X15630411Y-22299529D01*
X15630650Y-22300839D01*
X15630789Y-22301433D01*
X15730623Y-22630541D01*
X15775253Y-22738287D01*
X15862219Y-22948241D01*
X15862226Y-22948255D01*
X16024322Y-23251518D01*
X16024333Y-23251536D01*
X16215377Y-23537453D01*
X16215387Y-23537467D01*
X16383785Y-23742659D01*
X16383786Y-23742660D01*
X16383787Y-23742660D01*
X17174551Y-22951894D01*
X17235874Y-22918409D01*
X17305565Y-22923393D01*
X17349913Y-22951894D01*
X17528103Y-23130084D01*
X17561588Y-23191407D01*
X17556604Y-23261099D01*
X17528103Y-23305446D01*
X16737338Y-24096211D01*
X16737338Y-24096212D01*
X16737339Y-24096213D01*
X16942533Y-24264612D01*
X16942546Y-24264622D01*
X17228463Y-24455666D01*
X17228481Y-24455677D01*
X17531744Y-24617773D01*
X17531758Y-24617780D01*
X17849459Y-24749376D01*
X18178556Y-24849207D01*
X18178561Y-24849207D01*
X18178565Y-24849209D01*
X18179148Y-24849345D01*
X18180448Y-24849583D01*
X18515792Y-24916286D01*
X18515806Y-24916289D01*
X18515809Y-24916289D01*
X18515817Y-24916291D01*
X18515834Y-24916294D01*
X18858059Y-24950000D01*
X19201938Y-24950000D01*
X19201941Y-24950000D01*
X19544165Y-24916294D01*
X19544182Y-24916291D01*
X19879562Y-24849580D01*
X19880855Y-24849344D01*
X19881433Y-24849209D01*
X19881434Y-24849208D01*
X19881437Y-24849208D01*
X19881443Y-24849207D01*
X20210540Y-24749376D01*
X20528241Y-24617780D01*
X20528255Y-24617773D01*
X20831518Y-24455677D01*
X20831536Y-24455666D01*
X21117453Y-24264622D01*
X21117466Y-24264612D01*
X21322659Y-24096213D01*
X21322659Y-24096212D01*
X20531895Y-23305448D01*
X20498410Y-23244125D01*
X20503394Y-23174433D01*
X20531895Y-23130086D01*
X20710086Y-22951895D01*
X20771409Y-22918410D01*
X20841101Y-22923394D01*
X20885448Y-22951895D01*
X21676212Y-23742659D01*
X21676213Y-23742659D01*
X21844612Y-23537466D01*
X21844622Y-23537453D01*
X22035666Y-23251536D01*
X22035677Y-23251518D01*
X22197773Y-22948255D01*
X22197783Y-22948234D01*
X22266467Y-22782414D01*
X22267227Y-22781470D01*
X22267380Y-22780268D01*
X22284472Y-22752066D01*
X22290177Y-22744985D01*
X22304823Y-22734816D01*
X22310307Y-22728011D01*
X22324890Y-22720881D01*
X22347567Y-22705136D01*
X22417392Y-22702638D01*
X22477482Y-22738287D01*
X22507350Y-22794025D01*
X22508527Y-22798963D01*
X22509367Y-22805985D01*
X22510330Y-22808003D01*
X22509958Y-22810933D01*
X22511907Y-22827224D01*
X22519997Y-24849587D01*
X22529996Y-27349000D01*
X22529999Y-27350000D01*
X22530000Y-27351000D01*
X22530000Y-38850000D01*
X23974104Y-38850000D01*
X24003050Y-38853426D01*
X24021329Y-38857814D01*
X24030756Y-38860077D01*
X24055882Y-38869062D01*
X24056433Y-38869329D01*
X24058411Y-38870312D01*
X24062164Y-38871370D01*
X24222299Y-38923402D01*
X24393389Y-38950500D01*
X24393390Y-38950500D01*
X24566610Y-38950500D01*
X24566611Y-38950500D01*
X24737701Y-38923402D01*
X24902445Y-38869873D01*
X24902449Y-38869871D01*
X24902575Y-38869806D01*
X24902665Y-38869762D01*
X24903117Y-38869596D01*
X24906734Y-38868115D01*
X24906792Y-38868256D01*
X24929183Y-38860092D01*
X24929246Y-38860077D01*
X24939221Y-38857681D01*
X24956949Y-38853426D01*
X24985896Y-38850000D01*
X27248326Y-38850000D01*
X27315365Y-38869685D01*
X27317382Y-38871008D01*
X27335507Y-38883161D01*
X27363593Y-38899429D01*
X27446533Y-38940457D01*
X27446538Y-38940459D01*
X27446544Y-38940462D01*
X27537147Y-38978102D01*
X27537157Y-38978106D01*
X27624752Y-39007925D01*
X27624768Y-39007929D01*
X27624781Y-39007933D01*
X27656092Y-39016346D01*
X27656096Y-39016347D01*
X27746835Y-39034446D01*
X27852274Y-39048365D01*
X27898316Y-39052913D01*
X27914543Y-39053980D01*
X27947218Y-39055052D01*
X27960828Y-39055500D01*
X27960833Y-39055500D01*
X30692449Y-39055500D01*
X30692462Y-39055500D01*
X30738615Y-39053989D01*
X30754799Y-39052928D01*
X30800736Y-39048403D01*
X30905902Y-39034557D01*
X30996409Y-39016553D01*
X31001454Y-39015201D01*
X31021440Y-39015676D01*
X31040925Y-39011194D01*
X31055656Y-39016489D01*
X31071304Y-39016862D01*
X31087861Y-39028067D01*
X31106675Y-39034831D01*
X31126592Y-39054279D01*
X31129168Y-39056023D01*
X31131927Y-39059489D01*
X31148126Y-39080600D01*
X31157137Y-39094086D01*
X31165194Y-39108041D01*
X31172368Y-39122589D01*
X31203603Y-39197998D01*
X31208815Y-39213351D01*
X31212988Y-39228922D01*
X31216154Y-39244836D01*
X31228409Y-39337921D01*
X31229204Y-39345982D01*
X31229734Y-39354080D01*
X31230000Y-39362178D01*
X31230000Y-43587819D01*
X31229734Y-43595938D01*
X31229204Y-43604015D01*
X31228409Y-43612082D01*
X31216154Y-43705163D01*
X31212988Y-43721074D01*
X31212988Y-43721076D01*
X31208815Y-43736647D01*
X31203603Y-43752000D01*
X31172368Y-43827409D01*
X31165194Y-43841957D01*
X31157137Y-43855912D01*
X31148126Y-43869398D01*
X31098437Y-43934154D01*
X31087742Y-43946349D01*
X31076349Y-43957742D01*
X31064154Y-43968437D01*
X30999398Y-44018126D01*
X30985912Y-44027137D01*
X30971957Y-44035194D01*
X30957409Y-44042368D01*
X30882000Y-44073603D01*
X30866647Y-44078815D01*
X30851076Y-44082988D01*
X30835163Y-44086154D01*
X30751084Y-44097224D01*
X30749398Y-44097446D01*
X30748060Y-44097622D01*
X30742063Y-44098411D01*
X30734015Y-44099204D01*
X30733484Y-44099238D01*
X30725919Y-44099734D01*
X30717819Y-44100000D01*
X25992179Y-44100000D01*
X25984073Y-44099734D01*
X25975996Y-44099204D01*
X25967931Y-44098410D01*
X25958921Y-44097224D01*
X25958918Y-44097224D01*
X25874835Y-44086154D01*
X25858922Y-44082988D01*
X25843351Y-44078815D01*
X25827998Y-44073603D01*
X25752589Y-44042368D01*
X25738041Y-44035194D01*
X25724086Y-44027137D01*
X25710600Y-44018126D01*
X25645844Y-43968437D01*
X25633649Y-43957742D01*
X25622256Y-43946349D01*
X25611561Y-43934154D01*
X25561872Y-43869398D01*
X25552861Y-43855912D01*
X25544804Y-43841957D01*
X25537630Y-43827410D01*
X25506394Y-43752000D01*
X25501181Y-43736643D01*
X25497010Y-43721076D01*
X25497007Y-43721065D01*
X25493846Y-43705173D01*
X25481589Y-43612074D01*
X25480796Y-43604030D01*
X25480264Y-43595905D01*
X25480000Y-43587820D01*
X25480000Y-41600000D01*
X24980000Y-41600000D01*
X13372330Y-41600000D01*
X13372325Y-41599999D01*
X13372323Y-41600000D01*
X13337389Y-41594975D01*
X13322390Y-41590570D01*
X13263644Y-41552827D01*
X13263615Y-41552793D01*
X13263614Y-41552793D01*
X13263613Y-41552791D01*
X13262457Y-41551458D01*
X13234977Y-41496583D01*
X13233332Y-41489021D01*
X13230500Y-41462668D01*
X13230500Y-30050007D01*
X19577349Y-30050007D01*
X19577349Y-30050010D01*
X19577349Y-30050013D01*
X19577349Y-30400000D01*
X20368626Y-30400000D01*
X20435665Y-30419685D01*
X20481420Y-30472489D01*
X20491364Y-30541647D01*
X20488401Y-30556093D01*
X20477349Y-30597339D01*
X20477349Y-30702660D01*
X20488401Y-30743907D01*
X20486738Y-30813757D01*
X20447575Y-30871619D01*
X20383347Y-30899123D01*
X20368626Y-30900000D01*
X19577350Y-30900000D01*
X19577350Y-31249995D01*
X19587842Y-31352694D01*
X19587842Y-31352695D01*
X19587843Y-31352697D01*
X19642990Y-31519119D01*
X19642992Y-31519124D01*
X19735033Y-31668345D01*
X19859003Y-31792315D01*
X20008224Y-31884356D01*
X20008229Y-31884358D01*
X20174648Y-31939504D01*
X20174649Y-31939504D01*
X20174651Y-31939505D01*
X20174658Y-31939506D01*
X20277368Y-31949999D01*
X20627348Y-31949999D01*
X20627349Y-31949998D01*
X20627349Y-31158722D01*
X20647034Y-31091683D01*
X20699838Y-31045928D01*
X20768996Y-31035984D01*
X20783431Y-31038945D01*
X20824688Y-31050000D01*
X20930008Y-31050000D01*
X20930010Y-31050000D01*
X20971256Y-31038948D01*
X21041104Y-31040609D01*
X21098967Y-31079771D01*
X21126472Y-31143999D01*
X21127349Y-31158722D01*
X21127349Y-31949999D01*
X21477309Y-31949999D01*
X21477321Y-31949999D01*
X21477335Y-31949998D01*
X21580046Y-31939505D01*
X21746468Y-31884358D01*
X21746473Y-31884356D01*
X21895694Y-31792315D01*
X22019664Y-31668345D01*
X22111705Y-31519124D01*
X22111707Y-31519119D01*
X22166854Y-31352697D01*
X22166855Y-31352690D01*
X22177348Y-31249986D01*
X22177349Y-31249973D01*
X22177349Y-30900000D01*
X21386072Y-30900000D01*
X21319033Y-30880315D01*
X21273278Y-30827511D01*
X21263334Y-30758353D01*
X21266297Y-30743907D01*
X21277349Y-30702661D01*
X21277349Y-30597339D01*
X21266297Y-30556092D01*
X21267960Y-30486243D01*
X21307123Y-30428381D01*
X21371351Y-30400877D01*
X21386072Y-30400000D01*
X22177348Y-30400000D01*
X22177348Y-30050032D01*
X22177348Y-30050028D01*
X22177347Y-30050013D01*
X22166854Y-29947302D01*
X22111707Y-29780880D01*
X22111705Y-29780875D01*
X22019664Y-29631654D01*
X21895694Y-29507684D01*
X21746473Y-29415643D01*
X21746468Y-29415641D01*
X21746459Y-29415638D01*
X21580048Y-29360494D01*
X21580043Y-29360493D01*
X21477340Y-29350000D01*
X21477335Y-29350000D01*
X21127349Y-29350000D01*
X21127349Y-30141277D01*
X21107664Y-30208316D01*
X21054860Y-30254071D01*
X20985702Y-30264015D01*
X20971260Y-30261052D01*
X20930010Y-30250000D01*
X20930009Y-30250000D01*
X20824688Y-30250000D01*
X20783441Y-30261051D01*
X20713592Y-30259389D01*
X20655730Y-30220226D01*
X20628226Y-30155998D01*
X20627349Y-30141277D01*
X20627349Y-29350000D01*
X20277377Y-29350000D01*
X20277361Y-29350001D01*
X20277351Y-29350001D01*
X20277351Y-29350002D01*
X20174653Y-29360493D01*
X20174651Y-29360494D01*
X20008236Y-29415638D01*
X20008228Y-29415641D01*
X20008226Y-29415642D01*
X20008224Y-29415643D01*
X19908743Y-29477003D01*
X19859001Y-29507685D01*
X19735034Y-29631652D01*
X19642990Y-29780879D01*
X19642987Y-29780888D01*
X19587843Y-29947299D01*
X19587842Y-29947304D01*
X19577349Y-30050007D01*
X13230500Y-30050007D01*
X13230500Y-13512329D01*
X13235523Y-13477393D01*
X13239927Y-13462395D01*
X13277672Y-13403644D01*
X13277700Y-13403619D01*
X13277699Y-13403619D01*
X13279041Y-13402456D01*
X13333920Y-13374977D01*
X13341479Y-13373333D01*
X13367832Y-13370500D01*
X22332747Y-13370500D01*
X22367683Y-13375523D01*
G37*
%TD.AperFunction*%
%TD*%
%TA.AperFunction,Conductor*%
%TO.N,/VOUT*%
G36*
X68373106Y-13375523D02*
G01*
X68388104Y-13379927D01*
X68403094Y-13389557D01*
X68420175Y-13394567D01*
X68446855Y-13417672D01*
X68448042Y-13419041D01*
X68475518Y-13473902D01*
X68477163Y-13481460D01*
X68480000Y-13507831D01*
X68480000Y-19891876D01*
X68474976Y-19926816D01*
X68472441Y-19935448D01*
X68464567Y-19947697D01*
X68461220Y-19961866D01*
X68446058Y-19976496D01*
X68434664Y-19994225D01*
X68421418Y-20000273D01*
X68410942Y-20010383D01*
X68390275Y-20014494D01*
X68371107Y-20023247D01*
X68356695Y-20021174D01*
X68342415Y-20024015D01*
X68322805Y-20016299D01*
X68301949Y-20013300D01*
X68289764Y-20003300D01*
X68277396Y-19998434D01*
X68252888Y-19973036D01*
X68249891Y-19968880D01*
X68235909Y-19943808D01*
X68197780Y-19851758D01*
X68197773Y-19851744D01*
X68035677Y-19548481D01*
X68035666Y-19548463D01*
X67844622Y-19262546D01*
X67844612Y-19262533D01*
X67676213Y-19057339D01*
X67676212Y-19057338D01*
X66885446Y-19848103D01*
X66824123Y-19881588D01*
X66754431Y-19876604D01*
X66710084Y-19848103D01*
X66531894Y-19669913D01*
X66498409Y-19608590D01*
X66503393Y-19538898D01*
X66531894Y-19494551D01*
X67322660Y-18703786D01*
X67322660Y-18703785D01*
X67117480Y-18535398D01*
X67117467Y-18535387D01*
X67117453Y-18535377D01*
X66831536Y-18344333D01*
X66831518Y-18344322D01*
X66528255Y-18182226D01*
X66528241Y-18182219D01*
X66369390Y-18116421D01*
X66210541Y-18050623D01*
X65881433Y-17950789D01*
X65880839Y-17950650D01*
X65879529Y-17950411D01*
X65544207Y-17883712D01*
X65544192Y-17883709D01*
X65544158Y-17883704D01*
X65393295Y-17868846D01*
X65201941Y-17850000D01*
X65201937Y-17850000D01*
X64858063Y-17850000D01*
X64858059Y-17850000D01*
X64690173Y-17866534D01*
X64515840Y-17883704D01*
X64515806Y-17883709D01*
X64515791Y-17883712D01*
X64180469Y-17950411D01*
X64179158Y-17950650D01*
X64178565Y-17950789D01*
X63849457Y-18050623D01*
X63531758Y-18182219D01*
X63531744Y-18182226D01*
X63387781Y-18259175D01*
X63228480Y-18344322D01*
X63228465Y-18344331D01*
X63036976Y-18472280D01*
X62942546Y-18535377D01*
X62942532Y-18535387D01*
X62942524Y-18535392D01*
X62942518Y-18535398D01*
X62737337Y-18703786D01*
X63528104Y-19494552D01*
X63561589Y-19555875D01*
X63556605Y-19625566D01*
X63528104Y-19669914D01*
X63349914Y-19848104D01*
X63288591Y-19881589D01*
X63218899Y-19876605D01*
X63174552Y-19848104D01*
X62383786Y-19057337D01*
X62215398Y-19262518D01*
X62215387Y-19262532D01*
X62215377Y-19262546D01*
X62152280Y-19356976D01*
X62024331Y-19548465D01*
X62024322Y-19548480D01*
X61967531Y-19654731D01*
X61864173Y-19848103D01*
X61862219Y-19851758D01*
X61730623Y-20169457D01*
X61630789Y-20498565D01*
X61630650Y-20499158D01*
X61630411Y-20500469D01*
X61563712Y-20835791D01*
X61563709Y-20835806D01*
X61563704Y-20835840D01*
X61530000Y-21178063D01*
X61530000Y-21521935D01*
X61563704Y-21864158D01*
X61563709Y-21864192D01*
X61563712Y-21864207D01*
X61630411Y-22199529D01*
X61630650Y-22200839D01*
X61630789Y-22201433D01*
X61630791Y-22201442D01*
X61630792Y-22201443D01*
X61730623Y-22530540D01*
X61862219Y-22848241D01*
X61862226Y-22848255D01*
X62024322Y-23151518D01*
X62024333Y-23151536D01*
X62215377Y-23437453D01*
X62215387Y-23437467D01*
X62383785Y-23642659D01*
X62383786Y-23642660D01*
X62383787Y-23642660D01*
X63174551Y-22851894D01*
X63235874Y-22818409D01*
X63305565Y-22823393D01*
X63349913Y-22851894D01*
X63528103Y-23030084D01*
X63561588Y-23091407D01*
X63556604Y-23161099D01*
X63528103Y-23205446D01*
X62737338Y-23996211D01*
X62737338Y-23996212D01*
X62737339Y-23996213D01*
X62942533Y-24164612D01*
X62942546Y-24164622D01*
X63228463Y-24355666D01*
X63228481Y-24355677D01*
X63531744Y-24517773D01*
X63531758Y-24517780D01*
X63849459Y-24649376D01*
X64178556Y-24749207D01*
X64178561Y-24749207D01*
X64178565Y-24749209D01*
X64179148Y-24749345D01*
X64180448Y-24749583D01*
X64515792Y-24816286D01*
X64515806Y-24816289D01*
X64515809Y-24816289D01*
X64515817Y-24816291D01*
X64515834Y-24816294D01*
X64858059Y-24850000D01*
X65201938Y-24850000D01*
X65201941Y-24850000D01*
X65544165Y-24816294D01*
X65544182Y-24816291D01*
X65879562Y-24749580D01*
X65880855Y-24749344D01*
X65881433Y-24749209D01*
X65881434Y-24749208D01*
X65881437Y-24749208D01*
X65881443Y-24749207D01*
X66210540Y-24649376D01*
X66528241Y-24517780D01*
X66528255Y-24517773D01*
X66831518Y-24355677D01*
X66831536Y-24355666D01*
X67117453Y-24164622D01*
X67117466Y-24164612D01*
X67322659Y-23996213D01*
X67322659Y-23996212D01*
X66531895Y-23205448D01*
X66498410Y-23144125D01*
X66503394Y-23074433D01*
X66531895Y-23030086D01*
X66710086Y-22851895D01*
X66771409Y-22818410D01*
X66841101Y-22823394D01*
X66885448Y-22851895D01*
X67676212Y-23642659D01*
X67676213Y-23642659D01*
X67844612Y-23437466D01*
X67844622Y-23437453D01*
X68035666Y-23151536D01*
X68035677Y-23151518D01*
X68197773Y-22848255D01*
X68197780Y-22848241D01*
X68234617Y-22759307D01*
X68235987Y-22757608D01*
X68236295Y-22755442D01*
X68252624Y-22728959D01*
X68258276Y-22721946D01*
X68272912Y-22711784D01*
X68278456Y-22704906D01*
X68292566Y-22698140D01*
X68315668Y-22682102D01*
X68385494Y-22679612D01*
X68445580Y-22715268D01*
X68475495Y-22771230D01*
X68476674Y-22776217D01*
X68477649Y-22784583D01*
X68478708Y-22786891D01*
X68478274Y-22789943D01*
X68480000Y-22804746D01*
X68480000Y-26100000D01*
X73967821Y-26100000D01*
X73975903Y-26100264D01*
X73984033Y-26100797D01*
X73992074Y-26101589D01*
X74085173Y-26113846D01*
X74101065Y-26117007D01*
X74116645Y-26121181D01*
X74131995Y-26126392D01*
X74207411Y-26157630D01*
X74221953Y-26164802D01*
X74235914Y-26172862D01*
X74249403Y-26181875D01*
X74314154Y-26231561D01*
X74326348Y-26242255D01*
X74337742Y-26253649D01*
X74348437Y-26265844D01*
X74398126Y-26330600D01*
X74407137Y-26344086D01*
X74415194Y-26358041D01*
X74422368Y-26372589D01*
X74453603Y-26447998D01*
X74458815Y-26463351D01*
X74462988Y-26478922D01*
X74466154Y-26494836D01*
X74478409Y-26587921D01*
X74479204Y-26595982D01*
X74479734Y-26604080D01*
X74480000Y-26612178D01*
X74480000Y-30274358D01*
X74474976Y-30309296D01*
X74471789Y-30320149D01*
X74464586Y-30331356D01*
X74463701Y-30337128D01*
X74453324Y-30348878D01*
X74434014Y-30378926D01*
X74421913Y-30384451D01*
X74417454Y-30389502D01*
X74400048Y-30394436D01*
X74370457Y-30407949D01*
X74358464Y-30406224D01*
X74350233Y-30408558D01*
X74328259Y-30401881D01*
X74301304Y-30398006D01*
X74299885Y-30397358D01*
X74290820Y-30390506D01*
X74283381Y-30388246D01*
X74256925Y-30364885D01*
X74256573Y-30364471D01*
X74245504Y-30349247D01*
X74234468Y-30331356D01*
X74222319Y-30311659D01*
X74222316Y-30311655D01*
X74098345Y-30187684D01*
X73949124Y-30095643D01*
X73949119Y-30095641D01*
X73949110Y-30095638D01*
X73782699Y-30040494D01*
X73782694Y-30040493D01*
X73679991Y-30030000D01*
X73679986Y-30030000D01*
X73330000Y-30030000D01*
X73330000Y-30821277D01*
X73310315Y-30888316D01*
X73257511Y-30934071D01*
X73188353Y-30944015D01*
X73173911Y-30941052D01*
X73132661Y-30930000D01*
X73132660Y-30930000D01*
X73027339Y-30930000D01*
X72986092Y-30941051D01*
X72916243Y-30939389D01*
X72858381Y-30900226D01*
X72830877Y-30835998D01*
X72830000Y-30821277D01*
X72830000Y-30030000D01*
X72480028Y-30030000D01*
X72480012Y-30030001D01*
X72480002Y-30030001D01*
X72480002Y-30030002D01*
X72377304Y-30040493D01*
X72377302Y-30040494D01*
X72210887Y-30095638D01*
X72210879Y-30095641D01*
X72210877Y-30095642D01*
X72210875Y-30095643D01*
X72111394Y-30157003D01*
X72061652Y-30187685D01*
X71937685Y-30311652D01*
X71921971Y-30337128D01*
X71878289Y-30407949D01*
X71845641Y-30460879D01*
X71845638Y-30460888D01*
X71790494Y-30627299D01*
X71790493Y-30627304D01*
X71780000Y-30730007D01*
X71780000Y-30730012D01*
X71780000Y-30730013D01*
X71780000Y-31080000D01*
X72571277Y-31080000D01*
X72638316Y-31099685D01*
X72684071Y-31152489D01*
X72694015Y-31221647D01*
X72691052Y-31236093D01*
X72680000Y-31277339D01*
X72680000Y-31382660D01*
X72691052Y-31423907D01*
X72689389Y-31493757D01*
X72650226Y-31551619D01*
X72585998Y-31579123D01*
X72571277Y-31580000D01*
X71780001Y-31580000D01*
X71780001Y-31929995D01*
X71790493Y-32032694D01*
X71790493Y-32032695D01*
X71790494Y-32032697D01*
X71845641Y-32199119D01*
X71845643Y-32199124D01*
X71937684Y-32348345D01*
X72061654Y-32472315D01*
X72210875Y-32564356D01*
X72210880Y-32564358D01*
X72377299Y-32619504D01*
X72377300Y-32619504D01*
X72377302Y-32619505D01*
X72377309Y-32619506D01*
X72480019Y-32629999D01*
X72829999Y-32629999D01*
X72830000Y-32629998D01*
X72830000Y-31838722D01*
X72849685Y-31771683D01*
X72902489Y-31725928D01*
X72971647Y-31715984D01*
X72986082Y-31718945D01*
X73027339Y-31730000D01*
X73132659Y-31730000D01*
X73132661Y-31730000D01*
X73173907Y-31718948D01*
X73243755Y-31720609D01*
X73301618Y-31759771D01*
X73329123Y-31823999D01*
X73330000Y-31838722D01*
X73330000Y-32629999D01*
X73679960Y-32629999D01*
X73679972Y-32629999D01*
X73679986Y-32629998D01*
X73782697Y-32619505D01*
X73949119Y-32564358D01*
X73949124Y-32564356D01*
X74098345Y-32472315D01*
X74222317Y-32348343D01*
X74241102Y-32317887D01*
X74250467Y-32308553D01*
X74254715Y-32299763D01*
X74263708Y-32290799D01*
X74272129Y-32283225D01*
X74279347Y-32279766D01*
X74281886Y-32277236D01*
X74291247Y-32271504D01*
X74303488Y-32268197D01*
X74335136Y-32253031D01*
X74351883Y-32255123D01*
X74358699Y-32253283D01*
X74372689Y-32257723D01*
X74404466Y-32261695D01*
X74416295Y-32271565D01*
X74425294Y-32274422D01*
X74437808Y-32289515D01*
X74458089Y-32306438D01*
X74458958Y-32307736D01*
X74464304Y-32321473D01*
X74469889Y-32328209D01*
X74471235Y-32339283D01*
X74478481Y-32357899D01*
X74478563Y-32358433D01*
X74480000Y-32377254D01*
X74480000Y-34850000D01*
X79087671Y-34850000D01*
X79122606Y-34855023D01*
X79137604Y-34859427D01*
X79196355Y-34897172D01*
X79196379Y-34897200D01*
X79196382Y-34897202D01*
X79196383Y-34897204D01*
X79197542Y-34898541D01*
X79225018Y-34953402D01*
X79226663Y-34960960D01*
X79229500Y-34987331D01*
X79229500Y-40458170D01*
X79229499Y-40458176D01*
X79229500Y-40458179D01*
X79224475Y-40493114D01*
X79220070Y-40508112D01*
X79182327Y-40566855D01*
X79182292Y-40566885D01*
X79182291Y-40566887D01*
X79182289Y-40566887D01*
X79180958Y-40568042D01*
X79126097Y-40595518D01*
X79118539Y-40597163D01*
X79092168Y-40600000D01*
X67492179Y-40600000D01*
X67484073Y-40599734D01*
X67475996Y-40599204D01*
X67467931Y-40598410D01*
X67458921Y-40597224D01*
X67458918Y-40597224D01*
X67374835Y-40586154D01*
X67358922Y-40582988D01*
X67343351Y-40578815D01*
X67327998Y-40573603D01*
X67252589Y-40542368D01*
X67238041Y-40535194D01*
X67224086Y-40527137D01*
X67210600Y-40518126D01*
X67145844Y-40468437D01*
X67133649Y-40457742D01*
X67122256Y-40446349D01*
X67111561Y-40434154D01*
X67061872Y-40369398D01*
X67052861Y-40355912D01*
X67044804Y-40341957D01*
X67037630Y-40327410D01*
X67006394Y-40252000D01*
X67001181Y-40236643D01*
X66997007Y-40221065D01*
X66993846Y-40205173D01*
X66981589Y-40112074D01*
X66980796Y-40104030D01*
X66980264Y-40095905D01*
X66980000Y-40087820D01*
X66980000Y-32850000D01*
X66480000Y-32850000D01*
X65907232Y-32850000D01*
X65840193Y-32830315D01*
X65830483Y-32823394D01*
X65786378Y-32788638D01*
X65786377Y-32788637D01*
X65726662Y-32752308D01*
X65699866Y-32736802D01*
X65699860Y-32736799D01*
X65699856Y-32736797D01*
X65542024Y-32673430D01*
X65542017Y-32673428D01*
X65542011Y-32673426D01*
X65538872Y-32672587D01*
X65448606Y-32654691D01*
X65416631Y-32650496D01*
X65324846Y-32644500D01*
X65324841Y-32644500D01*
X65230526Y-32644500D01*
X65229656Y-32644500D01*
X65229451Y-32644494D01*
X64384881Y-32648357D01*
X64317752Y-32628979D01*
X64271756Y-32576385D01*
X64261497Y-32507272D01*
X64290231Y-32443585D01*
X64296607Y-32436703D01*
X64384966Y-32348345D01*
X64477007Y-32199124D01*
X64477009Y-32199119D01*
X64532156Y-32032697D01*
X64532157Y-32032690D01*
X64542650Y-31929986D01*
X64542651Y-31929973D01*
X64542651Y-31580000D01*
X63751374Y-31580000D01*
X63684335Y-31560315D01*
X63638580Y-31507511D01*
X63628636Y-31438353D01*
X63631599Y-31423907D01*
X63642651Y-31382661D01*
X63642651Y-31277339D01*
X63631599Y-31236092D01*
X63633262Y-31166243D01*
X63672425Y-31108381D01*
X63736653Y-31080877D01*
X63751374Y-31080000D01*
X64542650Y-31080000D01*
X64542650Y-30730036D01*
X64542650Y-30730029D01*
X64542649Y-30730012D01*
X64532156Y-30627302D01*
X64477009Y-30460880D01*
X64477007Y-30460875D01*
X64384966Y-30311654D01*
X64260996Y-30187684D01*
X64111775Y-30095643D01*
X64111770Y-30095641D01*
X64111761Y-30095638D01*
X63945350Y-30040494D01*
X63945345Y-30040493D01*
X63842642Y-30030000D01*
X63842637Y-30030000D01*
X63492651Y-30030000D01*
X63492651Y-30821277D01*
X63472966Y-30888316D01*
X63420162Y-30934071D01*
X63351004Y-30944015D01*
X63336562Y-30941052D01*
X63295312Y-30930000D01*
X63295311Y-30930000D01*
X63189990Y-30930000D01*
X63148743Y-30941051D01*
X63078894Y-30939389D01*
X63021032Y-30900226D01*
X62993528Y-30835998D01*
X62992651Y-30821277D01*
X62992651Y-30030000D01*
X62642679Y-30030000D01*
X62642663Y-30030001D01*
X62642653Y-30030001D01*
X62642653Y-30030002D01*
X62539955Y-30040493D01*
X62539953Y-30040494D01*
X62373538Y-30095638D01*
X62373530Y-30095641D01*
X62373528Y-30095642D01*
X62373526Y-30095643D01*
X62274045Y-30157003D01*
X62224303Y-30187685D01*
X62100336Y-30311652D01*
X62084622Y-30337128D01*
X62040940Y-30407949D01*
X62008292Y-30460879D01*
X62008289Y-30460888D01*
X61953145Y-30627299D01*
X61953144Y-30627304D01*
X61942651Y-30730007D01*
X61942651Y-30730012D01*
X61942651Y-30730013D01*
X61942651Y-31080000D01*
X62733928Y-31080000D01*
X62800967Y-31099685D01*
X62846722Y-31152489D01*
X62856666Y-31221647D01*
X62853703Y-31236093D01*
X62842651Y-31277339D01*
X62842651Y-31382660D01*
X62853703Y-31423907D01*
X62852040Y-31493757D01*
X62812877Y-31551619D01*
X62748649Y-31579123D01*
X62733928Y-31580000D01*
X61942652Y-31580000D01*
X61942652Y-31929995D01*
X61953144Y-32032694D01*
X61953144Y-32032695D01*
X61953145Y-32032697D01*
X62008292Y-32199119D01*
X62008294Y-32199124D01*
X62096344Y-32341874D01*
X62100336Y-32348346D01*
X62199063Y-32447073D01*
X62232548Y-32508396D01*
X62227564Y-32578088D01*
X62185692Y-32634021D01*
X62120228Y-32658438D01*
X62111949Y-32658753D01*
X61656729Y-32660835D01*
X61644921Y-32657426D01*
X61632687Y-32658594D01*
X61611982Y-32647918D01*
X61589600Y-32641457D01*
X61579986Y-32631420D01*
X61570586Y-32626573D01*
X61548773Y-32598831D01*
X61544800Y-32591950D01*
X61537630Y-32577410D01*
X61506392Y-32501995D01*
X61501181Y-32486643D01*
X61497342Y-32472315D01*
X61497007Y-32471065D01*
X61493846Y-32455173D01*
X61481589Y-32362074D01*
X61480796Y-32354030D01*
X61480264Y-32345905D01*
X61480000Y-32337820D01*
X61480000Y-26350000D01*
X60980000Y-26350000D01*
X60242179Y-26350000D01*
X60234073Y-26349734D01*
X60225996Y-26349204D01*
X60217931Y-26348410D01*
X60208921Y-26347224D01*
X60208918Y-26347224D01*
X60124835Y-26336154D01*
X60108922Y-26332988D01*
X60093351Y-26328815D01*
X60077998Y-26323603D01*
X60002589Y-26292368D01*
X59988041Y-26285194D01*
X59974086Y-26277137D01*
X59960600Y-26268126D01*
X59895844Y-26218437D01*
X59883649Y-26207742D01*
X59872254Y-26196347D01*
X59861568Y-26184163D01*
X59848388Y-26166987D01*
X59811872Y-26119398D01*
X59802861Y-26105912D01*
X59794804Y-26091957D01*
X59787630Y-26077410D01*
X59756394Y-26002000D01*
X59751181Y-25986643D01*
X59747007Y-25971065D01*
X59743846Y-25955173D01*
X59731589Y-25862074D01*
X59730796Y-25854030D01*
X59730264Y-25845905D01*
X59730000Y-25837820D01*
X59730000Y-13512329D01*
X59735023Y-13477393D01*
X59739427Y-13462395D01*
X59777172Y-13403644D01*
X59778541Y-13402457D01*
X59833420Y-13374977D01*
X59840979Y-13373333D01*
X59867332Y-13370500D01*
X68338170Y-13370500D01*
X68373106Y-13375523D01*
G37*
%TD.AperFunction*%
%TD*%
%TA.AperFunction,Conductor*%
%TO.N,/SW1*%
G36*
X41738059Y-17851061D02*
G01*
X41843223Y-17864906D01*
X41874491Y-17873284D01*
X41964918Y-17910740D01*
X41992952Y-17926925D01*
X42070602Y-17986509D01*
X42093491Y-18009398D01*
X42153074Y-18087048D01*
X42169259Y-18115081D01*
X42206715Y-18205508D01*
X42215093Y-18236775D01*
X42228939Y-18341939D01*
X42230000Y-18358125D01*
X42230000Y-35841874D01*
X42228939Y-35858060D01*
X42215093Y-35963224D01*
X42206715Y-35994491D01*
X42169259Y-36084918D01*
X42153074Y-36112951D01*
X42093491Y-36190601D01*
X42070601Y-36213491D01*
X41992951Y-36273074D01*
X41964918Y-36289259D01*
X41874491Y-36326715D01*
X41843224Y-36335093D01*
X41749398Y-36347446D01*
X41738058Y-36348939D01*
X41721874Y-36350000D01*
X39730000Y-36350000D01*
X39730000Y-39341874D01*
X39728939Y-39358059D01*
X39728939Y-39358060D01*
X39715093Y-39463224D01*
X39706715Y-39494491D01*
X39669259Y-39584918D01*
X39653074Y-39612951D01*
X39593491Y-39690601D01*
X39570601Y-39713491D01*
X39492951Y-39773074D01*
X39464918Y-39789259D01*
X39374491Y-39826715D01*
X39343224Y-39835093D01*
X39249398Y-39847446D01*
X39238058Y-39848939D01*
X39221874Y-39850000D01*
X34738126Y-39850000D01*
X34721941Y-39848939D01*
X34708917Y-39847224D01*
X34616775Y-39835093D01*
X34585508Y-39826715D01*
X34495081Y-39789259D01*
X34467048Y-39773074D01*
X34389398Y-39713491D01*
X34366508Y-39690601D01*
X34306925Y-39612951D01*
X34290740Y-39584918D01*
X34253284Y-39494491D01*
X34244906Y-39463223D01*
X34231061Y-39358059D01*
X34230000Y-39341874D01*
X34230000Y-37100000D01*
X33730000Y-37100000D01*
X31700588Y-37100000D01*
X31200588Y-37100000D01*
X31200588Y-37841874D01*
X31199527Y-37858060D01*
X31185681Y-37963224D01*
X31177303Y-37994491D01*
X31139847Y-38084918D01*
X31123662Y-38112951D01*
X31064079Y-38190601D01*
X31041189Y-38213491D01*
X30963539Y-38273074D01*
X30935506Y-38289259D01*
X30845079Y-38326715D01*
X30813812Y-38335093D01*
X30719986Y-38347446D01*
X30708646Y-38348939D01*
X30692462Y-38350000D01*
X27960833Y-38350000D01*
X27944606Y-38348933D01*
X27839765Y-38335093D01*
X27839167Y-38335014D01*
X27807823Y-38326592D01*
X27717199Y-38288943D01*
X27689113Y-38272675D01*
X27611361Y-38212797D01*
X27588463Y-38189803D01*
X27528906Y-38111792D01*
X27512764Y-38083652D01*
X27475490Y-37992861D01*
X27467201Y-37961486D01*
X27453724Y-37855983D01*
X27452726Y-37839751D01*
X27455829Y-37100000D01*
X27465682Y-34750748D01*
X27466809Y-34734598D01*
X27481099Y-34629470D01*
X27489607Y-34598245D01*
X27527444Y-34507970D01*
X27543737Y-34480019D01*
X27603660Y-34402601D01*
X27626632Y-34379822D01*
X27704542Y-34320557D01*
X27732634Y-34304495D01*
X27823222Y-34267417D01*
X27854523Y-34259170D01*
X27959746Y-34245765D01*
X27975933Y-34244773D01*
X35130682Y-34274784D01*
X35130528Y-34259170D01*
X34974248Y-18363092D01*
X34975162Y-18346796D01*
X34988139Y-18240858D01*
X34996311Y-18209329D01*
X34997861Y-18205508D01*
X35033328Y-18118062D01*
X35049422Y-18089760D01*
X35108935Y-18011273D01*
X35131844Y-17988138D01*
X35209736Y-17927861D01*
X35237885Y-17911486D01*
X35328786Y-17873571D01*
X35360224Y-17865092D01*
X35434315Y-17855276D01*
X35466039Y-17851074D01*
X35482324Y-17850000D01*
X41721874Y-17850000D01*
X41738059Y-17851061D01*
G37*
%TD.AperFunction*%
%TD*%
%TA.AperFunction,Conductor*%
%TO.N,/SW2*%
G36*
X55377386Y-18320185D02*
G01*
X55423141Y-18372989D01*
X55434346Y-18423933D01*
X55500534Y-32894497D01*
X55502821Y-33394492D01*
X65229069Y-33350004D01*
X65229586Y-33350002D01*
X65230000Y-33350121D01*
X65230000Y-33350001D01*
X65231143Y-33350000D01*
X65324841Y-33350000D01*
X65356834Y-33354198D01*
X65360002Y-33355044D01*
X65419693Y-33391359D01*
X65447647Y-33442245D01*
X65448510Y-33445412D01*
X65449484Y-33452555D01*
X65450275Y-33454180D01*
X65450009Y-33456412D01*
X65452870Y-33477387D01*
X65477420Y-38339316D01*
X65476435Y-38355557D01*
X65463034Y-38461129D01*
X65454761Y-38492532D01*
X65417531Y-38583385D01*
X65401389Y-38611563D01*
X65341846Y-38689636D01*
X65318940Y-38712657D01*
X65241168Y-38772593D01*
X65213073Y-38788877D01*
X65122405Y-38826567D01*
X65091046Y-38834998D01*
X64999282Y-38847118D01*
X64985554Y-38848932D01*
X64969318Y-38850000D01*
X61988126Y-38850000D01*
X61971941Y-38848939D01*
X61958917Y-38847224D01*
X61866775Y-38835093D01*
X61835508Y-38826715D01*
X61745081Y-38789259D01*
X61717048Y-38773074D01*
X61639398Y-38713491D01*
X61616508Y-38690601D01*
X61556925Y-38612951D01*
X61540740Y-38584918D01*
X61503284Y-38494491D01*
X61494906Y-38463223D01*
X61481061Y-38358059D01*
X61480000Y-38341874D01*
X61480000Y-36850000D01*
X60980000Y-36850000D01*
X58230000Y-36850000D01*
X57730000Y-36850000D01*
X57730000Y-39242296D01*
X57710315Y-39309335D01*
X57693681Y-39329977D01*
X57690588Y-39333069D01*
X57690588Y-39333070D01*
X57690586Y-39333072D01*
X57684191Y-39341874D01*
X57588768Y-39473211D01*
X57510128Y-39627550D01*
X57474110Y-39738403D01*
X57473849Y-39738784D01*
X57473833Y-39739245D01*
X57454171Y-39767561D01*
X57434672Y-39796078D01*
X57434157Y-39796385D01*
X57433983Y-39796637D01*
X57403630Y-39814646D01*
X57374489Y-39826716D01*
X57343224Y-39835093D01*
X57249398Y-39847446D01*
X57238058Y-39848939D01*
X57221874Y-39850000D01*
X52488126Y-39850000D01*
X52471941Y-39848939D01*
X52458917Y-39847224D01*
X52366775Y-39835093D01*
X52335508Y-39826715D01*
X52245081Y-39789259D01*
X52217048Y-39773074D01*
X52139398Y-39713491D01*
X52116508Y-39690601D01*
X52056925Y-39612951D01*
X52040740Y-39584918D01*
X52003284Y-39494491D01*
X51994906Y-39463223D01*
X51981061Y-39358059D01*
X51980000Y-39341874D01*
X51980000Y-36350000D01*
X51480000Y-36350000D01*
X49488124Y-36350000D01*
X49471939Y-36348939D01*
X49378315Y-36336613D01*
X49314418Y-36308346D01*
X49275947Y-36250022D01*
X49270500Y-36213674D01*
X49270500Y-18424500D01*
X49290185Y-18357461D01*
X49342989Y-18311706D01*
X49394500Y-18300500D01*
X55310347Y-18300500D01*
X55377386Y-18320185D01*
G37*
%TD.AperFunction*%
%TD*%
%TA.AperFunction,Conductor*%
%TO.N,GNDA*%
G36*
X52873039Y-47119685D02*
G01*
X52918794Y-47172489D01*
X52930000Y-47224000D01*
X52930000Y-56226000D01*
X52910315Y-56293039D01*
X52857511Y-56338794D01*
X52806000Y-56350000D01*
X38654000Y-56350000D01*
X38586961Y-56330315D01*
X38541206Y-56277511D01*
X38530000Y-56226000D01*
X38530000Y-47224000D01*
X38549685Y-47156961D01*
X38602489Y-47111206D01*
X38654000Y-47100000D01*
X52806000Y-47100000D01*
X52873039Y-47119685D01*
G37*
%TD.AperFunction*%
%TD*%
M02*
