%TF.GenerationSoftware,KiCad,Pcbnew,10.0.1*%
%TF.CreationDate,2026-09-24T01:01:45-05:00*%
%TF.ProjectId,ORCA-BOARD,4f524341-2d42-44f4-9152-442e6b696361,rev?*%
%TF.SameCoordinates,Original*%
%TF.FileFunction,Copper,L1,Top*%
%TF.FilePolarity,Positive*%
%FSLAX46Y46*%
G04 Gerber Fmt 4.6, Leading zero omitted, Abs format (unit mm)*
G04 Created by KiCad (PCBNEW 10.0.1) date 2026-09-24 01:01:45*
%MOMM*%
%LPD*%
G01*
G04 APERTURE LIST*
G04 Aperture macros list*
%AMRoundRect*
0 Rectangle with rounded corners*
0 $1 Rounding radius*
0 $2 $3 $4 $5 $6 $7 $8 $9 X,Y pos of 4 corners*
0 Add a 4 corners polygon primitive as box body*
4,1,4,$2,$3,$4,$5,$6,$7,$8,$9,$2,$3,0*
0 Add four circle primitives for the rounded corners*
1,1,$1+$1,$2,$3*
1,1,$1+$1,$4,$5*
1,1,$1+$1,$6,$7*
1,1,$1+$1,$8,$9*
0 Add four rect primitives between the rounded corners*
20,1,$1+$1,$2,$3,$4,$5,0*
20,1,$1+$1,$4,$5,$6,$7,0*
20,1,$1+$1,$6,$7,$8,$9,0*
20,1,$1+$1,$8,$9,$2,$3,0*%
%AMFreePoly0*
4,1,9,2.975000,-2.350000,1.425000,-2.350000,1.425000,-2.100000,-1.650000,-2.100000,-1.650000,2.100000,1.425000,2.100000,1.425000,2.350000,2.975000,2.350000,2.975000,-2.350000,2.975000,-2.350000,$1*%
G04 Aperture macros list end*
%TA.AperFunction,SMDPad,CuDef*%
%ADD10R,2.730000X1.240000*%
%TD*%
%TA.AperFunction,SMDPad,CuDef*%
%ADD11R,1.100000X1.000000*%
%TD*%
%TA.AperFunction,SMDPad,CuDef*%
%ADD12R,1.000000X1.100000*%
%TD*%
%TA.AperFunction,SMDPad,CuDef*%
%ADD13R,0.450000X1.500000*%
%TD*%
%TA.AperFunction,ComponentPad*%
%ADD14C,0.600000*%
%TD*%
%TA.AperFunction,SMDPad,CuDef*%
%ADD15R,9.700000X3.400000*%
%TD*%
%TA.AperFunction,ComponentPad*%
%ADD16RoundRect,0.250000X-0.550000X-0.550000X0.550000X-0.550000X0.550000X0.550000X-0.550000X0.550000X0*%
%TD*%
%TA.AperFunction,ComponentPad*%
%ADD17C,1.600000*%
%TD*%
%TA.AperFunction,SMDPad,CuDef*%
%ADD18R,3.500000X2.000000*%
%TD*%
%TA.AperFunction,ComponentPad*%
%ADD19RoundRect,1.500000X1.500000X1.500000X-1.500000X1.500000X-1.500000X-1.500000X1.500000X-1.500000X0*%
%TD*%
%TA.AperFunction,ComponentPad*%
%ADD20C,6.000000*%
%TD*%
%TA.AperFunction,SMDPad,CuDef*%
%ADD21RoundRect,0.175000X0.175000X0.400000X-0.175000X0.400000X-0.175000X-0.400000X0.175000X-0.400000X0*%
%TD*%
%TA.AperFunction,SMDPad,CuDef*%
%ADD22FreePoly0,270.000000*%
%TD*%
%TA.AperFunction,ComponentPad*%
%ADD23RoundRect,0.250000X0.550000X0.550000X-0.550000X0.550000X-0.550000X-0.550000X0.550000X-0.550000X0*%
%TD*%
%TA.AperFunction,SMDPad,CuDef*%
%ADD24RoundRect,0.225000X0.225000X0.375000X-0.225000X0.375000X-0.225000X-0.375000X0.225000X-0.375000X0*%
%TD*%
%TA.AperFunction,SMDPad,CuDef*%
%ADD25RoundRect,0.225000X0.375000X-0.225000X0.375000X0.225000X-0.375000X0.225000X-0.375000X-0.225000X0*%
%TD*%
%TA.AperFunction,ComponentPad*%
%ADD26C,1.440000*%
%TD*%
%TA.AperFunction,SMDPad,CuDef*%
%ADD27RoundRect,0.175000X-0.175000X-0.400000X0.175000X-0.400000X0.175000X0.400000X-0.175000X0.400000X0*%
%TD*%
%TA.AperFunction,SMDPad,CuDef*%
%ADD28FreePoly0,90.000000*%
%TD*%
%TA.AperFunction,SMDPad,CuDef*%
%ADD29R,3.500000X1.250000*%
%TD*%
%TA.AperFunction,SMDPad,CuDef*%
%ADD30R,3.500000X0.500000*%
%TD*%
%TA.AperFunction,SMDPad,CuDef*%
%ADD31R,1.570000X1.100000*%
%TD*%
%TA.AperFunction,SMDPad,CuDef*%
%ADD32R,1.100000X1.570000*%
%TD*%
%TA.AperFunction,SMDPad,CuDef*%
%ADD33R,3.150000X12.500000*%
%TD*%
%TA.AperFunction,ViaPad*%
%ADD34C,0.800000*%
%TD*%
%TA.AperFunction,ViaPad*%
%ADD35C,0.600000*%
%TD*%
%TA.AperFunction,Conductor*%
%ADD36C,2.000000*%
%TD*%
%TA.AperFunction,Conductor*%
%ADD37C,0.200000*%
%TD*%
%TA.AperFunction,Conductor*%
%ADD38C,0.199800*%
%TD*%
%TA.AperFunction,Conductor*%
%ADD39C,0.300000*%
%TD*%
G04 APERTURE END LIST*
D10*
%TO.P,C4,1*%
%TO.N,GND*%
X20730000Y-43085000D03*
%TO.P,C4,2*%
%TO.N,VBUS*%
X20730000Y-40115000D03*
%TD*%
D11*
%TO.P,C12,1*%
%TO.N,GNDA*%
X49180000Y-61350000D03*
%TO.P,C12,2*%
%TO.N,/COMP*%
X47480000Y-61350000D03*
%TD*%
D12*
%TO.P,R14,1*%
%TO.N,/FB*%
X57480000Y-55000000D03*
%TO.P,R14,2*%
%TO.N,Net-(R14-Pad2)*%
X57480000Y-56700000D03*
%TD*%
%TO.P,R3,1*%
%TO.N,VBUS*%
X20230000Y-48100000D03*
%TO.P,R3,2*%
%TO.N,/EN*%
X20230000Y-49800000D03*
%TD*%
D13*
%TO.P,U1,1,EN/UVLO_1*%
%TO.N,/EN*%
X41505000Y-54250000D03*
%TO.P,U1,2,VIN_2*%
%TO.N,Net-(U1-VIN)*%
X42155000Y-54250000D03*
%TO.P,U1,3,VISNS_3*%
%TO.N,VBUS*%
X42805000Y-54250000D03*
%TO.P,U1,4,MODE_4*%
%TO.N,/MODE*%
X43455000Y-54250000D03*
%TO.P,U1,5,DITH_5*%
%TO.N,/DITH*%
X44105000Y-54250000D03*
%TO.P,U1,6,RT/SYNC_6*%
%TO.N,/RT*%
X44755000Y-54250000D03*
%TO.P,U1,7,SLOPE_7*%
%TO.N,/SLOPE*%
X45405000Y-54250000D03*
%TO.P,U1,8,SS_8*%
%TO.N,/SS*%
X46055000Y-54250000D03*
%TO.P,U1,9,COMP_9*%
%TO.N,/COMP*%
X46705000Y-54250000D03*
%TO.P,U1,10,AGND_10*%
%TO.N,GNDA*%
X47355000Y-54250000D03*
%TO.P,U1,11,FB_11*%
%TO.N,/FB*%
X48005000Y-54250000D03*
%TO.P,U1,12,VOSNS_12*%
%TO.N,/VOUT*%
X48655000Y-54250000D03*
%TO.P,U1,13,ISNS(\u2013)_13*%
%TO.N,/ISNS-*%
X49305000Y-54250000D03*
%TO.P,U1,14,ISNS(+)_14*%
%TO.N,/ISNS+*%
X49955000Y-54250000D03*
%TO.P,U1,15,CSG_15*%
%TO.N,/CS_N*%
X49955000Y-48450000D03*
%TO.P,U1,16,CS_16*%
%TO.N,/CS_P*%
X49305000Y-48450000D03*
%TO.P,U1,17,PGOOD_17*%
%TO.N,unconnected-(U1-PGOOD-Pad17)*%
X48655000Y-48450000D03*
%TO.P,U1,18,SW2_18*%
%TO.N,/SW2*%
X48005000Y-48450000D03*
%TO.P,U1,19,HDRV2_19*%
%TO.N,/HDRV2*%
X47355000Y-48450000D03*
%TO.P,U1,20,BOOT2_20*%
%TO.N,/BOOT2*%
X46705000Y-48450000D03*
%TO.P,U1,21,LDRV2_21*%
%TO.N,/LDRV2*%
X46055000Y-48450000D03*
%TO.P,U1,22,PGND_22*%
%TO.N,GND*%
X45405000Y-48450000D03*
%TO.P,U1,23,VCC_23*%
%TO.N,/VCC*%
X44755000Y-48450000D03*
%TO.P,U1,24,BIAS_24*%
%TO.N,/VOUT*%
X44105000Y-48450000D03*
%TO.P,U1,25,LDRV1_25*%
%TO.N,/LDRV1*%
X43455000Y-48450000D03*
%TO.P,U1,26,BOOT1_26*%
%TO.N,/BOOT1*%
X42805000Y-48450000D03*
%TO.P,U1,27,HDRV1_27*%
%TO.N,/HDRV1*%
X42155000Y-48450000D03*
%TO.P,U1,28,SW1_28*%
%TO.N,/SW1*%
X41505000Y-48450000D03*
D14*
%TO.P,U1,29,EPAD_29*%
%TO.N,GNDA*%
X41830000Y-52650000D03*
X43130000Y-52650000D03*
X44430000Y-52650000D03*
X45730000Y-52650000D03*
X47030000Y-52650000D03*
X48330000Y-52650000D03*
X49630000Y-52650000D03*
X41830000Y-51350000D03*
X43130000Y-51350000D03*
X44430000Y-51350000D03*
X45730000Y-51350000D03*
D15*
X45730000Y-51350000D03*
D14*
X47030000Y-51350000D03*
X48330000Y-51350000D03*
X49630000Y-51350000D03*
X41830000Y-50050000D03*
X43130000Y-50050000D03*
X44430000Y-50050000D03*
X45730000Y-50050000D03*
X47030000Y-50050000D03*
X48330000Y-50050000D03*
X49630000Y-50050000D03*
%TD*%
D16*
%TO.P,C2,1*%
%TO.N,VBUS*%
X20877349Y-30650000D03*
D17*
%TO.P,C2,2*%
%TO.N,GND*%
X24377349Y-30650000D03*
%TD*%
D11*
%TO.P,C13,1*%
%TO.N,GNDA*%
X37030000Y-61350000D03*
%TO.P,C13,2*%
%TO.N,Net-(C13-Pad2)*%
X38730000Y-61350000D03*
%TD*%
D18*
%TO.P,R8,1*%
%TO.N,/VOUT_PRE*%
X74730000Y-43850000D03*
%TO.P,R8,2*%
%TO.N,/VOUT*%
X74730000Y-37850000D03*
%TD*%
D19*
%TO.P,J1,1,Pin_1_1*%
%TO.N,GND*%
X26230000Y-21450000D03*
D20*
%TO.P,J1,2,Pin_2_2*%
%TO.N,VBUS*%
X19030000Y-21450000D03*
%TD*%
D12*
%TO.P,R10,1*%
%TO.N,/CS_N*%
X57230000Y-48450000D03*
%TO.P,R10,2*%
%TO.N,GND*%
X57230000Y-46750000D03*
%TD*%
%TO.P,C3,1*%
%TO.N,/BOOT1*%
X41290000Y-37550000D03*
%TO.P,C3,2*%
%TO.N,/SW1*%
X41290000Y-35850000D03*
%TD*%
D21*
%TO.P,Q1,1,S_1*%
%TO.N,/SW1*%
X30240000Y-37680000D03*
%TO.P,Q1,2,S_2*%
X28970000Y-37680000D03*
%TO.P,Q1,3,S_3*%
X27690000Y-37680000D03*
%TO.P,Q1,4,G_4*%
%TO.N,/HDRV1*%
X26420000Y-37680000D03*
D22*
%TO.P,Q1,5,D_5*%
%TO.N,VBUS*%
X28330000Y-40950000D03*
%TD*%
D23*
%TO.P,C19,1*%
%TO.N,/VOUT*%
X63242651Y-31330000D03*
D17*
%TO.P,C19,2*%
%TO.N,GND*%
X59742651Y-31330000D03*
%TD*%
D12*
%TO.P,C5,1*%
%TO.N,/BOOT2*%
X49730000Y-37550000D03*
%TO.P,C5,2*%
%TO.N,/SW2*%
X49730000Y-35850000D03*
%TD*%
%TO.P,R5,1*%
%TO.N,GNDA*%
X15980000Y-59650000D03*
%TO.P,R5,2*%
%TO.N,/RT*%
X15980000Y-61350000D03*
%TD*%
D16*
%TO.P,C20,1*%
%TO.N,/VOUT*%
X73080000Y-31330000D03*
D17*
%TO.P,C20,2*%
%TO.N,GND*%
X76580000Y-31330000D03*
%TD*%
D24*
%TO.P,D2,1,K_1*%
%TO.N,/BOOT1*%
X34830000Y-55100000D03*
%TO.P,D2,2,A_2*%
%TO.N,/VCC*%
X31530000Y-55100000D03*
%TD*%
%TO.P,D3,1,K_1*%
%TO.N,/BOOT2*%
X34580000Y-47850000D03*
%TO.P,D3,2,A_2*%
%TO.N,/VCC*%
X31280000Y-47850000D03*
%TD*%
D11*
%TO.P,C6,1*%
%TO.N,GNDA*%
X22880000Y-58350000D03*
%TO.P,C6,2*%
%TO.N,/SLOPE*%
X24580000Y-58350000D03*
%TD*%
D25*
%TO.P,D1,1,K_1*%
%TO.N,Net-(D1-K)*%
X24480000Y-50800000D03*
%TO.P,D1,2,A_2*%
%TO.N,VBUS*%
X24480000Y-47500000D03*
%TD*%
D12*
%TO.P,C1,1*%
%TO.N,Net-(U1-VIN)*%
X20230000Y-54850000D03*
%TO.P,C1,2*%
%TO.N,GNDA*%
X20230000Y-53150000D03*
%TD*%
D11*
%TO.P,C17,1*%
%TO.N,/CS_N*%
X56780000Y-50850000D03*
%TO.P,C17,2*%
%TO.N,/CS_P*%
X55080000Y-50850000D03*
%TD*%
D26*
%TO.P,RV1,1,1_1*%
%TO.N,Net-(R14-Pad2)*%
X70730000Y-54810000D03*
%TO.P,RV1,2,2_2*%
%TO.N,GNDA*%
X70730000Y-57350000D03*
%TO.P,RV1,3,3_3*%
X70730000Y-59890000D03*
%TD*%
D11*
%TO.P,C7,1*%
%TO.N,GNDA*%
X26630000Y-61350000D03*
%TO.P,C7,2*%
%TO.N,/SS*%
X28330000Y-61350000D03*
%TD*%
%TO.P,R15,1*%
%TO.N,GNDA*%
X58940000Y-53510000D03*
%TO.P,R15,2*%
%TO.N,GND*%
X60640000Y-53510000D03*
%TD*%
D27*
%TO.P,Q4,1,S_1*%
%TO.N,Net-(Q2-S-Pad1)*%
X52980000Y-41570000D03*
%TO.P,Q4,2,S_2*%
X54250000Y-41570000D03*
%TO.P,Q4,3,S_3*%
X55530000Y-41570000D03*
%TO.P,Q4,4,G_4*%
%TO.N,/LDRV2*%
X56800000Y-41570000D03*
D28*
%TO.P,Q4,5,D_5*%
%TO.N,/SW2*%
X54890000Y-38300000D03*
%TD*%
D10*
%TO.P,C15,1*%
%TO.N,GND*%
X74730000Y-49820000D03*
%TO.P,C15,2*%
%TO.N,/VOUT_PRE*%
X74730000Y-46850000D03*
%TD*%
D11*
%TO.P,R1,1*%
%TO.N,Net-(D1-K)*%
X21480000Y-61350000D03*
%TO.P,R1,2*%
%TO.N,Net-(U1-VIN)*%
X19780000Y-61350000D03*
%TD*%
%TO.P,R6,1*%
%TO.N,/COMP*%
X44080000Y-61350000D03*
%TO.P,R6,2*%
%TO.N,Net-(C13-Pad2)*%
X42380000Y-61350000D03*
%TD*%
D21*
%TO.P,Q3,1,S_1*%
%TO.N,/SW2*%
X64290000Y-38330000D03*
%TO.P,Q3,2,S_2*%
X63020000Y-38330000D03*
%TO.P,Q3,3,S_3*%
X61740000Y-38330000D03*
%TO.P,Q3,4,G_4*%
%TO.N,/HDRV2*%
X60470000Y-38330000D03*
D22*
%TO.P,Q3,5,D_5*%
%TO.N,/VOUT_PRE*%
X62380000Y-41600000D03*
%TD*%
D19*
%TO.P,J2,1,Pin_1_1*%
%TO.N,GND*%
X72230000Y-21350000D03*
D20*
%TO.P,J2,2,Pin_2_2*%
%TO.N,/VOUT*%
X65030000Y-21350000D03*
%TD*%
D29*
%TO.P,R12,1*%
%TO.N,Net-(Q2-S-Pad1)*%
X45390000Y-42075000D03*
D30*
X45390000Y-40950000D03*
%TO.P,R12,2*%
%TO.N,GND*%
X45390000Y-36450000D03*
D29*
X45390000Y-35325000D03*
%TD*%
D12*
%TO.P,R9,1*%
%TO.N,/CS_P*%
X54730000Y-48450000D03*
%TO.P,R9,2*%
%TO.N,Net-(Q2-S-Pad1)*%
X54730000Y-46750000D03*
%TD*%
%TO.P,R13,1*%
%TO.N,/VOUT*%
X64230000Y-55350000D03*
%TO.P,R13,2*%
%TO.N,/FB*%
X64230000Y-57050000D03*
%TD*%
%TO.P,R4,1*%
%TO.N,GNDA*%
X15980000Y-47850000D03*
%TO.P,R4,2*%
%TO.N,/MODE*%
X15980000Y-49550000D03*
%TD*%
D11*
%TO.P,R7,1*%
%TO.N,/ISNS-*%
X63480000Y-61850000D03*
%TO.P,R7,2*%
%TO.N,/VOUT_PRE*%
X65180000Y-61850000D03*
%TD*%
D10*
%TO.P,C14,1*%
%TO.N,GND*%
X68230000Y-49820000D03*
%TO.P,C14,2*%
%TO.N,/VOUT_PRE*%
X68230000Y-46850000D03*
%TD*%
%TO.P,C9,1*%
%TO.N,VBUS*%
X15980000Y-40115000D03*
%TO.P,C9,2*%
%TO.N,GND*%
X15980000Y-43085000D03*
%TD*%
D31*
%TO.P,C18,1*%
%TO.N,/ISNS-*%
X57480000Y-61600000D03*
%TO.P,C18,2*%
%TO.N,/ISNS+*%
X57480000Y-59980000D03*
%TD*%
D27*
%TO.P,Q2,1,S_1*%
%TO.N,Net-(Q2-S-Pad1)*%
X34480000Y-41570000D03*
%TO.P,Q2,2,S_2*%
X35750000Y-41570000D03*
%TO.P,Q2,3,S_3*%
X37030000Y-41570000D03*
%TO.P,Q2,4,G_4*%
%TO.N,/LDRV1*%
X38300000Y-41570000D03*
D28*
%TO.P,Q2,5,D_5*%
%TO.N,/SW1*%
X36390000Y-38300000D03*
%TD*%
D10*
%TO.P,C16,1*%
%TO.N,/VOUT_PRE*%
X61230000Y-46850000D03*
%TO.P,C16,2*%
%TO.N,GND*%
X61230000Y-49820000D03*
%TD*%
D32*
%TO.P,C11,1*%
%TO.N,/VCC*%
X30040000Y-51350000D03*
%TO.P,C11,2*%
%TO.N,GND*%
X28420000Y-51350000D03*
%TD*%
D12*
%TO.P,R2,1*%
%TO.N,GNDA*%
X24730000Y-54800000D03*
%TO.P,R2,2*%
%TO.N,/EN*%
X24730000Y-53100000D03*
%TD*%
%TO.P,C10,1*%
%TO.N,/VOUT*%
X68230000Y-39900000D03*
%TO.P,C10,2*%
%TO.N,GND*%
X68230000Y-41600000D03*
%TD*%
%TO.P,C8,1*%
%TO.N,GNDA*%
X15980000Y-53100000D03*
%TO.P,C8,2*%
%TO.N,/DITH*%
X15980000Y-54800000D03*
%TD*%
D11*
%TO.P,R11,1*%
%TO.N,/ISNS+*%
X63480000Y-60100000D03*
%TO.P,R11,2*%
%TO.N,/VOUT*%
X65180000Y-60100000D03*
%TD*%
D33*
%TO.P,L1,1,1_1*%
%TO.N,/SW1*%
X37715000Y-24400000D03*
%TO.P,L1,2,2_2*%
%TO.N,/SW2*%
X53065000Y-24400000D03*
%TD*%
D34*
%TO.N,GND*%
X74730000Y-51100000D03*
X68230000Y-51100000D03*
X28460000Y-53399900D03*
D35*
X45540659Y-45850000D03*
D34*
X68230000Y-43100000D03*
X61230000Y-51100000D03*
X45390000Y-38580000D03*
X18940000Y-44720000D03*
X15990000Y-44680000D03*
X45380000Y-29770000D03*
X58626041Y-43906041D03*
%TO.N,VBUS*%
X14600000Y-31120000D03*
X16100000Y-27120000D03*
X17600000Y-33120000D03*
X17600000Y-37120000D03*
X16100000Y-37120000D03*
X14600000Y-29120000D03*
X14600000Y-35120000D03*
X17600000Y-31120000D03*
X14600000Y-27120000D03*
X17600000Y-29120000D03*
X14600000Y-37120000D03*
X16100000Y-35120000D03*
X14600000Y-33120000D03*
X37480000Y-57100000D03*
X17600000Y-27120000D03*
X16100000Y-33120000D03*
X16100000Y-29120000D03*
X17600000Y-35120000D03*
X16100000Y-31120000D03*
%TO.N,GNDA*%
X47330000Y-55850000D03*
X24730000Y-54800000D03*
%TO.N,/FB*%
X55730000Y-55100000D03*
X50480000Y-60100000D03*
%TO.N,/EN*%
X36730000Y-52600000D03*
X21355000Y-52225000D03*
%TO.N,Net-(U1-VIN)*%
X37480000Y-55350000D03*
X20980000Y-56600000D03*
%TO.N,/MODE*%
X17230000Y-51100000D03*
X27480000Y-55600000D03*
%TO.N,/DITH*%
X29980000Y-57600000D03*
X16980000Y-56850000D03*
%TO.N,/RT*%
X34980000Y-58850000D03*
X16730000Y-62850000D03*
%TO.N,/SS*%
X31730000Y-61350000D03*
X45230000Y-59600000D03*
%TO.N,/VOUT*%
X68360000Y-29950000D03*
X71360000Y-34660000D03*
X71360000Y-37660000D03*
X69860000Y-33160000D03*
X69860000Y-28450000D03*
X50980000Y-58350000D03*
X71360000Y-36160000D03*
X68360000Y-37660000D03*
X68360000Y-33160000D03*
X68360000Y-31450000D03*
X69860000Y-34660000D03*
X68360000Y-34660000D03*
X69860000Y-29950000D03*
X66730000Y-55350000D03*
X43792377Y-45137700D03*
X67230000Y-60100000D03*
X69860000Y-37660000D03*
X69860000Y-36160000D03*
X68360000Y-28450000D03*
X68360000Y-36160000D03*
X69860000Y-31450000D03*
%TO.N,/SW2*%
X54890000Y-38300000D03*
X51230000Y-46100000D03*
%TO.N,/HDRV2*%
X52830000Y-45250000D03*
X58530000Y-40050000D03*
%TO.N,/BOOT2*%
X49730000Y-38850000D03*
X35400000Y-50340000D03*
X47860137Y-45076000D03*
%TO.N,/LDRV2*%
X56290000Y-43450000D03*
X46450522Y-45026870D03*
%TO.N,/VCC*%
X35889314Y-46059314D03*
X45348916Y-44810812D03*
%TO.N,/LDRV1*%
X40980000Y-41600000D03*
X42125666Y-45145000D03*
%TO.N,/BOOT1*%
X33480000Y-51350000D03*
X41230000Y-39100000D03*
X39480000Y-45350000D03*
%TO.N,/HDRV1*%
X32730000Y-44100000D03*
X24480000Y-37850000D03*
%TO.N,/SW1*%
X36390000Y-38300000D03*
X37230000Y-48450000D03*
%TO.N,Net-(Q2-S-Pad1)*%
X54730000Y-45250000D03*
X50130000Y-41450000D03*
%TD*%
%TO.N,GND*%
D36*
X45380000Y-31600000D02*
X45390000Y-31610000D01*
X62690000Y-49820000D02*
X68230000Y-49820000D01*
D37*
X62040000Y-53510000D02*
X62690000Y-52860000D01*
D36*
X45390000Y-31610000D02*
X45390000Y-38580000D01*
D37*
X18940000Y-43145000D02*
X18880000Y-43085000D01*
X15990000Y-43095000D02*
X15980000Y-43085000D01*
X28460000Y-53119900D02*
X28420000Y-53079900D01*
D36*
X58626041Y-43906041D02*
X58626041Y-44913959D01*
D37*
X74730000Y-51100000D02*
X74730000Y-51350000D01*
X18940000Y-44720000D02*
X18940000Y-43145000D01*
D36*
X58040000Y-46600000D02*
X57230000Y-46600000D01*
D37*
X45540659Y-45850000D02*
X45540659Y-46039341D01*
X62690000Y-52860000D02*
X62690000Y-49820000D01*
D36*
X15980000Y-43085000D02*
X18880000Y-43085000D01*
D37*
X45405000Y-46175000D02*
X45405000Y-48450000D01*
D36*
X68230000Y-51100000D02*
X68230000Y-49820000D01*
X74730000Y-51100000D02*
X74730000Y-49820000D01*
D37*
X15990000Y-44680000D02*
X15990000Y-43095000D01*
D36*
X61230000Y-51100000D02*
X61230000Y-49820000D01*
D37*
X45540659Y-46039341D02*
X45405000Y-46175000D01*
D36*
X45380000Y-29770000D02*
X45380000Y-31600000D01*
X68230000Y-43100000D02*
X68230000Y-41750000D01*
X18880000Y-43085000D02*
X20730000Y-43085000D01*
D37*
X28460000Y-53399900D02*
X28460000Y-53119900D01*
X60640000Y-53510000D02*
X62040000Y-53510000D01*
D36*
X68230000Y-49820000D02*
X74730000Y-49820000D01*
D37*
X28420000Y-53079900D02*
X28420000Y-51350000D01*
D36*
X61230000Y-49820000D02*
X62690000Y-49820000D01*
X58626041Y-46013959D02*
X58040000Y-46600000D01*
%TO.N,VBUS*%
D37*
X41730000Y-57100000D02*
X37480000Y-57100000D01*
D36*
X20230000Y-46600000D02*
X20230000Y-47950000D01*
X24480000Y-47450000D02*
X24480000Y-45600000D01*
X24480000Y-45600000D02*
X21230000Y-45600000D01*
X21230000Y-45600000D02*
X20230000Y-46600000D01*
D37*
X42805000Y-54250000D02*
X42805000Y-56025000D01*
D36*
X24480000Y-45600000D02*
X24480000Y-40350000D01*
D37*
X42805000Y-56025000D02*
X41730000Y-57100000D01*
%TO.N,GNDA*%
D38*
X15980000Y-47850000D02*
X14980000Y-47850000D01*
X37030000Y-62560000D02*
X37510000Y-63040000D01*
X22880000Y-59300000D02*
X22880000Y-58350000D01*
D37*
X58940000Y-53510000D02*
X52890000Y-53510000D01*
D38*
X20180000Y-53100000D02*
X20230000Y-53150000D01*
X15980000Y-53100000D02*
X20180000Y-53100000D01*
X47490000Y-63040000D02*
X49180000Y-61350000D01*
X46730000Y-52350000D02*
X45730000Y-51350000D01*
X49180000Y-59800000D02*
X47330000Y-57950000D01*
X45730000Y-51350000D02*
X43130000Y-51350000D01*
X37510000Y-63040000D02*
X47490000Y-63040000D01*
X35790000Y-63040000D02*
X37510000Y-63040000D01*
X47355000Y-54250000D02*
X47355000Y-55825000D01*
X26630000Y-62250000D02*
X27410000Y-63030000D01*
X49180000Y-61350000D02*
X49180000Y-59800000D01*
X47330000Y-57950000D02*
X47330000Y-55850000D01*
X26630000Y-61350000D02*
X24930000Y-61350000D01*
X14230000Y-48600000D02*
X14230000Y-52850000D01*
X51730000Y-52350000D02*
X46730000Y-52350000D01*
X14480000Y-53100000D02*
X15980000Y-53100000D01*
X15980000Y-59650000D02*
X15040000Y-59650000D01*
X37030000Y-61350000D02*
X37030000Y-62560000D01*
X47355000Y-55825000D02*
X47330000Y-55850000D01*
X14230000Y-58840000D02*
X14230000Y-52850000D01*
X35780000Y-63030000D02*
X35790000Y-63040000D01*
X24930000Y-61350000D02*
X22880000Y-59300000D01*
X15040000Y-59650000D02*
X14230000Y-58840000D01*
D37*
X52890000Y-53510000D02*
X51730000Y-52350000D01*
D38*
X27410000Y-63030000D02*
X35780000Y-63030000D01*
X21880000Y-54800000D02*
X24730000Y-54800000D01*
X26630000Y-61350000D02*
X26630000Y-62250000D01*
X14980000Y-47850000D02*
X14230000Y-48600000D01*
X14230000Y-52850000D02*
X14480000Y-53100000D01*
X20230000Y-53150000D02*
X21880000Y-54800000D01*
%TO.N,/COMP*%
X46705000Y-55275000D02*
X46705000Y-54250000D01*
X46530000Y-55450000D02*
X46705000Y-55275000D01*
X46530000Y-60150000D02*
X46530000Y-60400000D01*
X45330000Y-61350000D02*
X46530000Y-60150000D01*
X44080000Y-61350000D02*
X45330000Y-61350000D01*
X46530000Y-60150000D02*
X46530000Y-55450000D01*
X46530000Y-60400000D02*
X47480000Y-61350000D01*
%TO.N,/FB*%
X48029900Y-54274900D02*
X48005000Y-54250000D01*
X60380000Y-55000000D02*
X62480000Y-57100000D01*
X62530000Y-57050000D02*
X64230000Y-57050000D01*
X57480000Y-55000000D02*
X60380000Y-55000000D01*
X55830000Y-55000000D02*
X55730000Y-55100000D01*
X62480000Y-57100000D02*
X62530000Y-57050000D01*
X50480000Y-60100000D02*
X48029900Y-57649900D01*
X57480000Y-55000000D02*
X55830000Y-55000000D01*
X48029900Y-57649900D02*
X48029900Y-54274900D01*
%TO.N,Net-(R14-Pad2)*%
X60230000Y-58350000D02*
X58580000Y-56700000D01*
X69020000Y-54810000D02*
X65480000Y-58350000D01*
X65480000Y-58350000D02*
X60230000Y-58350000D01*
X70985000Y-54555000D02*
X70730000Y-54810000D01*
X70730000Y-54810000D02*
X69020000Y-54810000D01*
X58580000Y-56700000D02*
X57480000Y-56700000D01*
%TO.N,/EN*%
X21355000Y-52225000D02*
X22230000Y-53100000D01*
X38380000Y-54250000D02*
X36730000Y-52600000D01*
X20230000Y-49800000D02*
X20230000Y-51100000D01*
X41505000Y-54250000D02*
X38380000Y-54250000D01*
X22230000Y-53100000D02*
X24730000Y-53100000D01*
X20230000Y-51100000D02*
X21355000Y-52225000D01*
%TO.N,Net-(U1-VIN)*%
X42155000Y-54250000D02*
X42155000Y-55199800D01*
X19780000Y-61350000D02*
X19780000Y-61750000D01*
X42155000Y-55199800D02*
X41504800Y-55850000D01*
X41504800Y-55850000D02*
X37980000Y-55850000D01*
X20230000Y-54850000D02*
X20230000Y-55850000D01*
X20230000Y-55850000D02*
X19780000Y-56300000D01*
X37980000Y-55850000D02*
X37605000Y-55475000D01*
X19780000Y-56300000D02*
X19780000Y-61350000D01*
X20230000Y-55850000D02*
X20980000Y-56600000D01*
%TO.N,/MODE*%
X28780100Y-56900100D02*
X27480000Y-55600000D01*
X42305000Y-58175000D02*
X43455000Y-57025000D01*
X35345502Y-56900100D02*
X28780100Y-56900100D01*
X15980000Y-49850000D02*
X17230000Y-51100000D01*
X43455000Y-57025000D02*
X43455000Y-54250000D01*
X36620402Y-58175000D02*
X35345502Y-56900100D01*
X42305000Y-58175000D02*
X36620402Y-58175000D01*
X15980000Y-49550000D02*
X15980000Y-49850000D01*
%TO.N,/DITH*%
X36730000Y-58850000D02*
X35480000Y-57600000D01*
X42230000Y-58850000D02*
X36730000Y-58850000D01*
X15980000Y-55850000D02*
X16980000Y-56850000D01*
X35480000Y-57600000D02*
X29980000Y-57600000D01*
X44105000Y-54250000D02*
X44105000Y-56975000D01*
X44105000Y-56975000D02*
X42230000Y-58850000D01*
X15980000Y-54800000D02*
X15980000Y-55850000D01*
%TO.N,/RT*%
X15980000Y-62100000D02*
X16730000Y-62850000D01*
X35480000Y-59350000D02*
X34980000Y-58850000D01*
X15980000Y-61350000D02*
X15980000Y-62100000D01*
X42430000Y-59350000D02*
X44755000Y-57025000D01*
X44755000Y-57025000D02*
X44755000Y-54250000D01*
X42430000Y-59350000D02*
X35480000Y-59350000D01*
%TO.N,/SLOPE*%
X45405000Y-54250000D02*
X45405000Y-57925000D01*
X27230000Y-58350000D02*
X28730000Y-59850000D01*
X24580000Y-58350000D02*
X27230000Y-58350000D01*
X28730000Y-59850000D02*
X43480000Y-59850000D01*
X43480000Y-59850000D02*
X45405000Y-57925000D01*
%TO.N,/SS*%
X46055000Y-58775000D02*
X46055000Y-54250000D01*
X28330000Y-61350000D02*
X31730000Y-61350000D01*
X46055000Y-58775000D02*
X45230000Y-59600000D01*
%TO.N,/VOUT*%
D37*
X43980000Y-46100000D02*
X44105000Y-46225000D01*
X65180000Y-60100000D02*
X67230000Y-60100000D01*
X43980000Y-45325323D02*
X43980000Y-46100000D01*
X44105000Y-46225000D02*
X44105000Y-48450000D01*
X50980000Y-58350000D02*
X48655000Y-56025000D01*
X64230000Y-55350000D02*
X66730000Y-55350000D01*
X48655000Y-56025000D02*
X48655000Y-54250000D01*
X43792377Y-45137700D02*
X43980000Y-45325323D01*
%TO.N,/ISNS-*%
X55705000Y-61600000D02*
X57480000Y-61600000D01*
X49305000Y-55200000D02*
X55705000Y-61600000D01*
X49305000Y-54250000D02*
X49305000Y-55200000D01*
X63290000Y-61660000D02*
X63480000Y-61850000D01*
X57180000Y-61660000D02*
X63290000Y-61660000D01*
X57420000Y-61540000D02*
X57480000Y-61600000D01*
%TO.N,/ISNS+*%
X58290000Y-59980000D02*
X58350000Y-60040000D01*
D38*
X49955000Y-54325000D02*
X55610000Y-59980000D01*
X55610000Y-59980000D02*
X57480000Y-59980000D01*
D37*
X58050000Y-60100000D02*
X63480000Y-60100000D01*
X57480000Y-59980000D02*
X58290000Y-59980000D01*
D38*
X49955000Y-54250000D02*
X49955000Y-54325000D01*
%TO.N,/CS_N*%
X52930000Y-52450000D02*
X55930000Y-52450000D01*
D37*
X56780000Y-51600000D02*
X56780000Y-50850000D01*
D38*
X49955000Y-48450000D02*
X50830000Y-48450000D01*
X55930000Y-52450000D02*
X56730000Y-51650000D01*
X51730000Y-51250000D02*
X52930000Y-52450000D01*
X50830000Y-48450000D02*
X51730000Y-49350000D01*
D37*
X56730000Y-51650000D02*
X56780000Y-51600000D01*
X57230000Y-49450000D02*
X57230000Y-48450000D01*
X57230000Y-49450000D02*
X56780000Y-49900000D01*
D38*
X51730000Y-49350000D02*
X51730000Y-51250000D01*
D37*
X56780000Y-49900000D02*
X56780000Y-50850000D01*
%TO.N,/CS_P*%
X54730000Y-49450000D02*
X54730000Y-48450000D01*
D38*
X50980000Y-47100000D02*
X52730000Y-48850000D01*
D37*
X55080000Y-49800000D02*
X54730000Y-49450000D01*
X55080000Y-51300000D02*
X54730000Y-51650000D01*
D38*
X49705200Y-47100000D02*
X50980000Y-47100000D01*
X49305000Y-47500200D02*
X49705200Y-47100000D01*
X52730000Y-48850000D02*
X52730000Y-49600000D01*
D37*
X55080000Y-50850000D02*
X55080000Y-49800000D01*
X53530000Y-51650000D02*
X52730000Y-50850000D01*
X55080000Y-50850000D02*
X55080000Y-51300000D01*
X54730000Y-51650000D02*
X53530000Y-51650000D01*
X52730000Y-50850000D02*
X52730000Y-49600000D01*
D38*
X49305000Y-48450000D02*
X49305000Y-47500200D01*
%TO.N,/SW2*%
D37*
X48005000Y-46975000D02*
X48130000Y-46850000D01*
X49149238Y-46350000D02*
X50980000Y-46350000D01*
X48649238Y-46850000D02*
X49149238Y-46350000D01*
X50980000Y-46350000D02*
X51230000Y-46100000D01*
X48005000Y-48450000D02*
X48005000Y-46975000D01*
X48130000Y-46850000D02*
X48649238Y-46850000D01*
%TO.N,/HDRV2*%
D39*
X50730000Y-45100000D02*
X52680000Y-45100000D01*
X58650000Y-38330000D02*
X58530000Y-38450000D01*
X47355000Y-48450000D02*
X47355000Y-46705762D01*
X48880000Y-45700000D02*
X50130000Y-45700000D01*
X58530000Y-38450000D02*
X58530000Y-40050000D01*
X47860762Y-46200000D02*
X48380000Y-46200000D01*
X60470000Y-38330000D02*
X58650000Y-38330000D01*
X50130000Y-45700000D02*
X50730000Y-45100000D01*
X47355000Y-46705762D02*
X47860762Y-46200000D01*
X48380000Y-46200000D02*
X48880000Y-45700000D01*
X52680000Y-45100000D02*
X52830000Y-45250000D01*
%TO.N,/BOOT2*%
X46780000Y-47300000D02*
X46780000Y-46502945D01*
X46780000Y-46502945D02*
X47860137Y-45422807D01*
X34580000Y-47850000D02*
X34580000Y-49520000D01*
X34580000Y-49520000D02*
X35400000Y-50340000D01*
X46705000Y-48450000D02*
X46705000Y-47375000D01*
X46705000Y-47375000D02*
X46780000Y-47300000D01*
X49730000Y-37550000D02*
X49730000Y-38850000D01*
X47860137Y-45076000D02*
X47879392Y-45095255D01*
X47860137Y-45422807D02*
X47860137Y-45076000D01*
%TO.N,/LDRV2*%
X46480000Y-45056348D02*
X46450522Y-45026870D01*
X46055000Y-48450000D02*
X46055000Y-46775000D01*
X46230000Y-46160661D02*
X46480000Y-45910661D01*
X56800000Y-42940000D02*
X56290000Y-43450000D01*
X46055000Y-46775000D02*
X46230000Y-46600000D01*
X56800000Y-41570000D02*
X56800000Y-42940000D01*
X46230000Y-46600000D02*
X46230000Y-46160661D01*
X46480000Y-45910661D02*
X46480000Y-45056348D01*
%TO.N,/VCC*%
X30730000Y-47850000D02*
X31380000Y-47850000D01*
X30040000Y-51350000D02*
X30040000Y-53510000D01*
X44755000Y-45229164D02*
X44755000Y-48450000D01*
X35889314Y-46059314D02*
X32020686Y-46059314D01*
X31980000Y-46100000D02*
X30480000Y-46100000D01*
X45348916Y-44810812D02*
X45173352Y-44810812D01*
X30040000Y-46540000D02*
X30040000Y-48540000D01*
X30040000Y-51350000D02*
X30040000Y-48540000D01*
X30040000Y-48540000D02*
X30730000Y-47850000D01*
X30040000Y-53510000D02*
X31630000Y-55100000D01*
X30480000Y-46100000D02*
X30040000Y-46540000D01*
X45173352Y-44810812D02*
X44755000Y-45229164D01*
X32020686Y-46059314D02*
X31980000Y-46100000D01*
%TO.N,/LDRV1*%
X43455000Y-47105000D02*
X43455000Y-48450000D01*
X42125666Y-45145000D02*
X42125666Y-45775666D01*
X42125666Y-45775666D02*
X43455000Y-47105000D01*
X38300000Y-41570000D02*
X40950000Y-41570000D01*
%TO.N,/BOOT1*%
X33480000Y-52570000D02*
X33480000Y-51350000D01*
X42805000Y-47285000D02*
X41280000Y-45760000D01*
X34830000Y-53920000D02*
X33480000Y-52570000D01*
X42805000Y-48450000D02*
X42805000Y-47285000D01*
X41290000Y-39040000D02*
X41230000Y-39100000D01*
X39890000Y-45760000D02*
X39480000Y-45350000D01*
X34830000Y-55100000D02*
X34830000Y-53920000D01*
X41280000Y-45760000D02*
X39890000Y-45760000D01*
X41290000Y-37550000D02*
X41290000Y-39040000D01*
%TO.N,/HDRV1*%
X39225000Y-47080000D02*
X37230000Y-45085000D01*
X42155000Y-48450000D02*
X42155000Y-47525000D01*
X42155000Y-47525000D02*
X41710000Y-47080000D01*
X37230000Y-45085000D02*
X33715000Y-45085000D01*
X33715000Y-45085000D02*
X32730000Y-44100000D01*
D37*
X26090000Y-37350000D02*
X24980000Y-37350000D01*
D39*
X41710000Y-47080000D02*
X39225000Y-47080000D01*
D37*
X24980000Y-37350000D02*
X24480000Y-37850000D01*
X26420000Y-37680000D02*
X26090000Y-37350000D01*
%TO.N,/SW1*%
X41505000Y-48450000D02*
X37230000Y-48450000D01*
%TO.N,Net-(C13-Pad2)*%
D38*
X38730000Y-61350000D02*
X42380000Y-61350000D01*
%TO.N,/VOUT_PRE*%
D37*
X77730000Y-47350000D02*
X77230000Y-46850000D01*
X74480000Y-61850000D02*
X77730000Y-58600000D01*
X65180000Y-61850000D02*
X74480000Y-61850000D01*
X77730000Y-58600000D02*
X77730000Y-47350000D01*
X77230000Y-46850000D02*
X74730000Y-46850000D01*
%TO.N,Net-(D1-K)*%
D38*
X21480000Y-58100000D02*
X22480000Y-57100000D01*
X26230000Y-55850000D02*
X24980000Y-57100000D01*
X24980000Y-57100000D02*
X22480000Y-57100000D01*
X21480000Y-61350000D02*
X21480000Y-58100000D01*
X26230000Y-52550000D02*
X26230000Y-55850000D01*
X24480000Y-50800000D02*
X26230000Y-52550000D01*
%TO.N,Net-(Q2-S-Pad1)*%
D36*
X43635000Y-43445000D02*
X44310000Y-42770000D01*
X55150000Y-41950000D02*
X55150000Y-41570000D01*
X37509186Y-43445000D02*
X36650000Y-42585814D01*
X36650000Y-42470000D02*
X35750000Y-41570000D01*
X37509186Y-43445000D02*
X36355000Y-43445000D01*
X46730000Y-43350000D02*
X52230000Y-43350000D01*
X52470000Y-43350000D02*
X53750000Y-43350000D01*
X36650000Y-42585814D02*
X36650000Y-41570000D01*
X52230000Y-43350000D02*
X52470000Y-43350000D01*
X52230000Y-43350000D02*
X52980000Y-42600000D01*
X44310000Y-42770000D02*
X46150000Y-42770000D01*
D37*
X45390000Y-40950000D02*
X49630000Y-40950000D01*
D36*
X53750000Y-43350000D02*
X55150000Y-41950000D01*
X37509186Y-43445000D02*
X43635000Y-43445000D01*
X46150000Y-42770000D02*
X46730000Y-43350000D01*
D37*
X54730000Y-46750000D02*
X54730000Y-45250000D01*
D36*
X52470000Y-43350000D02*
X54250000Y-41570000D01*
X36355000Y-43445000D02*
X34480000Y-41570000D01*
X36650000Y-42585814D02*
X36650000Y-42470000D01*
D37*
X49630000Y-40950000D02*
X50130000Y-41450000D01*
D36*
X52980000Y-42600000D02*
X52980000Y-41570000D01*
%TD*%
%TA.AperFunction,Conductor*%
%TO.N,VBUS*%
G36*
X22367683Y-13375523D02*
G01*
X22382681Y-13379927D01*
X22397670Y-13389555D01*
X22414740Y-13394560D01*
X22441423Y-13417661D01*
X22442697Y-13419130D01*
X22470133Y-13473778D01*
X22471743Y-13481110D01*
X22474628Y-13507209D01*
X22500766Y-20041693D01*
X22495884Y-20076642D01*
X22493411Y-20085192D01*
X22485519Y-20097581D01*
X22482169Y-20111886D01*
X22467126Y-20126458D01*
X22455875Y-20144123D01*
X22442537Y-20150279D01*
X22431986Y-20160501D01*
X22411453Y-20164627D01*
X22392437Y-20173405D01*
X22377886Y-20171372D01*
X22363485Y-20174267D01*
X22343982Y-20166637D01*
X22323239Y-20163741D01*
X22310948Y-20153716D01*
X22298417Y-20148814D01*
X22273860Y-20123464D01*
X22270826Y-20119274D01*
X22256699Y-20094002D01*
X22253050Y-20085192D01*
X22197780Y-19951758D01*
X22197773Y-19951744D01*
X22035677Y-19648481D01*
X22035666Y-19648463D01*
X21844622Y-19362546D01*
X21844612Y-19362533D01*
X21676213Y-19157339D01*
X21676212Y-19157338D01*
X20885446Y-19948103D01*
X20824123Y-19981588D01*
X20754431Y-19976604D01*
X20710084Y-19948103D01*
X20531894Y-19769913D01*
X20498409Y-19708590D01*
X20503393Y-19638898D01*
X20531894Y-19594551D01*
X21322660Y-18803786D01*
X21322660Y-18803785D01*
X21117480Y-18635398D01*
X21117467Y-18635387D01*
X21117453Y-18635377D01*
X20831536Y-18444333D01*
X20831518Y-18444322D01*
X20528255Y-18282226D01*
X20528241Y-18282219D01*
X20369390Y-18216421D01*
X20210541Y-18150623D01*
X19881433Y-18050789D01*
X19880839Y-18050650D01*
X19879529Y-18050411D01*
X19544207Y-17983712D01*
X19544192Y-17983709D01*
X19544158Y-17983704D01*
X19393295Y-17968846D01*
X19201941Y-17950000D01*
X19201937Y-17950000D01*
X18858063Y-17950000D01*
X18858059Y-17950000D01*
X18690173Y-17966534D01*
X18515840Y-17983704D01*
X18515806Y-17983709D01*
X18515791Y-17983712D01*
X18180469Y-18050411D01*
X18179158Y-18050650D01*
X18178565Y-18050789D01*
X17849457Y-18150623D01*
X17531758Y-18282219D01*
X17531744Y-18282226D01*
X17387781Y-18359175D01*
X17228480Y-18444322D01*
X17228465Y-18444331D01*
X17036976Y-18572280D01*
X16942546Y-18635377D01*
X16942532Y-18635387D01*
X16942524Y-18635392D01*
X16942518Y-18635398D01*
X16737337Y-18803786D01*
X17528104Y-19594552D01*
X17561589Y-19655875D01*
X17556605Y-19725566D01*
X17528104Y-19769914D01*
X17349914Y-19948104D01*
X17288591Y-19981589D01*
X17218899Y-19976605D01*
X17174552Y-19948104D01*
X16383786Y-19157337D01*
X16215398Y-19362518D01*
X16215387Y-19362532D01*
X16215377Y-19362546D01*
X16152280Y-19456976D01*
X16024331Y-19648465D01*
X16024322Y-19648480D01*
X15967531Y-19754731D01*
X15864173Y-19948103D01*
X15862219Y-19951758D01*
X15730623Y-20269457D01*
X15630789Y-20598565D01*
X15630650Y-20599158D01*
X15630411Y-20600469D01*
X15563712Y-20935791D01*
X15563709Y-20935806D01*
X15563704Y-20935840D01*
X15530000Y-21278063D01*
X15530000Y-21621935D01*
X15563704Y-21964158D01*
X15563709Y-21964192D01*
X15563712Y-21964207D01*
X15630411Y-22299529D01*
X15630650Y-22300839D01*
X15630789Y-22301433D01*
X15730623Y-22630541D01*
X15775253Y-22738287D01*
X15862219Y-22948241D01*
X15862226Y-22948255D01*
X16024322Y-23251518D01*
X16024333Y-23251536D01*
X16215377Y-23537453D01*
X16215387Y-23537467D01*
X16383785Y-23742659D01*
X16383786Y-23742660D01*
X16383787Y-23742660D01*
X17174551Y-22951894D01*
X17235874Y-22918409D01*
X17305565Y-22923393D01*
X17349913Y-22951894D01*
X17528103Y-23130084D01*
X17561588Y-23191407D01*
X17556604Y-23261099D01*
X17528103Y-23305446D01*
X16737338Y-24096211D01*
X16737338Y-24096212D01*
X16737339Y-24096213D01*
X16942533Y-24264612D01*
X16942546Y-24264622D01*
X17228463Y-24455666D01*
X17228481Y-24455677D01*
X17531744Y-24617773D01*
X17531758Y-24617780D01*
X17849459Y-24749376D01*
X18178556Y-24849207D01*
X18178561Y-24849207D01*
X18178565Y-24849209D01*
X18179148Y-24849345D01*
X18180448Y-24849583D01*
X18515792Y-24916286D01*
X18515806Y-24916289D01*
X18515809Y-24916289D01*
X18515817Y-24916291D01*
X18515834Y-24916294D01*
X18858059Y-24950000D01*
X19201938Y-24950000D01*
X19201941Y-24950000D01*
X19544165Y-24916294D01*
X19544182Y-24916291D01*
X19879562Y-24849580D01*
X19880855Y-24849344D01*
X19881433Y-24849209D01*
X19881434Y-24849208D01*
X19881437Y-24849208D01*
X19881443Y-24849207D01*
X20210540Y-24749376D01*
X20528241Y-24617780D01*
X20528255Y-24617773D01*
X20831518Y-24455677D01*
X20831536Y-24455666D01*
X21117453Y-24264622D01*
X21117466Y-24264612D01*
X21322659Y-24096213D01*
X21322659Y-24096212D01*
X20531895Y-23305448D01*
X20498410Y-23244125D01*
X20503394Y-23174433D01*
X20531895Y-23130086D01*
X20710086Y-22951895D01*
X20771409Y-22918410D01*
X20841101Y-22923394D01*
X20885448Y-22951895D01*
X21676212Y-23742659D01*
X21676213Y-23742659D01*
X21844612Y-23537466D01*
X21844622Y-23537453D01*
X22035666Y-23251536D01*
X22035677Y-23251518D01*
X22197773Y-22948255D01*
X22197783Y-22948234D01*
X22266467Y-22782414D01*
X22267227Y-22781470D01*
X22267380Y-22780268D01*
X22284472Y-22752066D01*
X22290177Y-22744985D01*
X22304823Y-22734816D01*
X22310307Y-22728011D01*
X22324890Y-22720881D01*
X22347567Y-22705136D01*
X22417392Y-22702638D01*
X22477482Y-22738287D01*
X22507350Y-22794025D01*
X22508527Y-22798963D01*
X22509367Y-22805985D01*
X22510330Y-22808003D01*
X22509958Y-22810933D01*
X22511907Y-22827224D01*
X22519997Y-24849587D01*
X22529996Y-27349000D01*
X22529999Y-27350000D01*
X22530000Y-27351000D01*
X22530000Y-38850000D01*
X23974104Y-38850000D01*
X24003050Y-38853426D01*
X24017155Y-38856812D01*
X24030756Y-38860077D01*
X24055882Y-38869062D01*
X24056433Y-38869329D01*
X24058411Y-38870312D01*
X24062164Y-38871370D01*
X24222299Y-38923402D01*
X24393389Y-38950500D01*
X24393390Y-38950500D01*
X24566610Y-38950500D01*
X24566611Y-38950500D01*
X24737701Y-38923402D01*
X24902445Y-38869873D01*
X24902449Y-38869871D01*
X24902575Y-38869806D01*
X24902665Y-38869762D01*
X24903117Y-38869596D01*
X24906734Y-38868115D01*
X24906792Y-38868256D01*
X24929183Y-38860092D01*
X24929246Y-38860077D01*
X24942845Y-38856812D01*
X24956949Y-38853426D01*
X24985896Y-38850000D01*
X25783706Y-38850000D01*
X25811993Y-38853269D01*
X25839180Y-38859640D01*
X25865972Y-38869278D01*
X25941307Y-38906641D01*
X26126111Y-38952600D01*
X26168877Y-38955500D01*
X26671122Y-38955499D01*
X26713889Y-38952600D01*
X26898693Y-38906641D01*
X26974032Y-38869275D01*
X26990361Y-38862581D01*
X26995530Y-38860880D01*
X26999273Y-38860003D01*
X27000402Y-38859277D01*
X27007895Y-38856812D01*
X27011686Y-38856689D01*
X27029025Y-38851859D01*
X27032375Y-38851377D01*
X27033211Y-38851258D01*
X27050829Y-38850000D01*
X27053706Y-38850000D01*
X27081993Y-38853269D01*
X27109180Y-38859640D01*
X27135972Y-38869278D01*
X27211307Y-38906641D01*
X27396111Y-38952600D01*
X27438877Y-38955500D01*
X27458004Y-38955499D01*
X27505583Y-38964989D01*
X27537149Y-38978103D01*
X27537147Y-38978103D01*
X27586097Y-38994766D01*
X27624752Y-39007925D01*
X27624771Y-39007930D01*
X27624781Y-39007933D01*
X27656092Y-39016346D01*
X27656096Y-39016347D01*
X27746835Y-39034446D01*
X27852274Y-39048365D01*
X27898316Y-39052913D01*
X27914543Y-39053980D01*
X27947218Y-39055052D01*
X27960828Y-39055500D01*
X27960833Y-39055500D01*
X30692449Y-39055500D01*
X30692462Y-39055500D01*
X30738615Y-39053989D01*
X30754799Y-39052928D01*
X30800736Y-39048403D01*
X30905902Y-39034557D01*
X30996409Y-39016553D01*
X31001454Y-39015201D01*
X31021440Y-39015676D01*
X31040925Y-39011194D01*
X31055656Y-39016489D01*
X31071304Y-39016862D01*
X31087861Y-39028067D01*
X31106675Y-39034831D01*
X31126592Y-39054279D01*
X31129168Y-39056023D01*
X31131927Y-39059489D01*
X31148126Y-39080600D01*
X31157137Y-39094086D01*
X31165194Y-39108041D01*
X31172368Y-39122589D01*
X31203603Y-39197998D01*
X31208815Y-39213351D01*
X31212988Y-39228922D01*
X31216154Y-39244836D01*
X31228409Y-39337921D01*
X31229204Y-39345982D01*
X31229734Y-39354080D01*
X31230000Y-39362178D01*
X31230000Y-43587819D01*
X31229734Y-43595938D01*
X31229204Y-43604015D01*
X31228409Y-43612082D01*
X31216154Y-43705163D01*
X31212988Y-43721074D01*
X31212988Y-43721076D01*
X31208815Y-43736647D01*
X31203603Y-43752000D01*
X31172368Y-43827409D01*
X31165194Y-43841957D01*
X31157137Y-43855912D01*
X31148126Y-43869398D01*
X31098437Y-43934154D01*
X31087742Y-43946349D01*
X31076349Y-43957742D01*
X31064154Y-43968437D01*
X30999398Y-44018126D01*
X30985912Y-44027137D01*
X30971957Y-44035194D01*
X30957409Y-44042368D01*
X30882000Y-44073603D01*
X30866647Y-44078815D01*
X30851076Y-44082988D01*
X30835163Y-44086154D01*
X30751084Y-44097224D01*
X30749398Y-44097446D01*
X30748060Y-44097622D01*
X30742063Y-44098411D01*
X30734015Y-44099204D01*
X30733484Y-44099238D01*
X30725919Y-44099734D01*
X30717819Y-44100000D01*
X25992179Y-44100000D01*
X25984073Y-44099734D01*
X25975996Y-44099204D01*
X25967931Y-44098410D01*
X25958921Y-44097224D01*
X25958918Y-44097224D01*
X25874835Y-44086154D01*
X25858922Y-44082988D01*
X25843351Y-44078815D01*
X25827998Y-44073603D01*
X25752589Y-44042368D01*
X25738041Y-44035194D01*
X25724086Y-44027137D01*
X25710600Y-44018126D01*
X25645844Y-43968437D01*
X25633649Y-43957742D01*
X25622256Y-43946349D01*
X25611561Y-43934154D01*
X25561872Y-43869398D01*
X25552861Y-43855912D01*
X25544804Y-43841957D01*
X25537630Y-43827410D01*
X25506394Y-43752000D01*
X25501181Y-43736643D01*
X25497010Y-43721076D01*
X25497007Y-43721065D01*
X25493846Y-43705173D01*
X25481589Y-43612074D01*
X25480796Y-43604030D01*
X25480264Y-43595905D01*
X25480000Y-43587820D01*
X25480000Y-41600000D01*
X24980000Y-41600000D01*
X21608457Y-41600000D01*
X21576362Y-41595774D01*
X21545899Y-41587611D01*
X21515993Y-41575224D01*
X21505613Y-41569231D01*
X21505613Y-41569230D01*
X21483733Y-41556598D01*
X21483728Y-41556595D01*
X21483725Y-41556594D01*
X21483722Y-41556593D01*
X21483720Y-41556592D01*
X21481543Y-41555613D01*
X21479659Y-41554910D01*
X21299733Y-41480382D01*
X21298028Y-41479008D01*
X21295860Y-41478700D01*
X21269383Y-41462375D01*
X21269065Y-41462119D01*
X21262379Y-41456730D01*
X21252209Y-41442085D01*
X21245330Y-41436541D01*
X21238569Y-41422440D01*
X21222530Y-41399341D01*
X21220034Y-41329516D01*
X21255684Y-41269426D01*
X21311682Y-41239498D01*
X21316670Y-41238320D01*
X21325018Y-41237347D01*
X21327322Y-41236291D01*
X21330369Y-41236724D01*
X21345171Y-41235000D01*
X22142836Y-41235000D01*
X22142847Y-41234999D01*
X22178560Y-41231158D01*
X22202372Y-41228598D01*
X22202379Y-41228596D01*
X22337086Y-41178354D01*
X22337093Y-41178350D01*
X22452187Y-41092190D01*
X22452190Y-41092187D01*
X22538350Y-40977093D01*
X22538354Y-40977086D01*
X22588596Y-40842379D01*
X22588598Y-40842372D01*
X22590069Y-40828689D01*
X22594998Y-40782860D01*
X22595000Y-40782827D01*
X22595000Y-40365000D01*
X18865000Y-40365000D01*
X18865000Y-40782852D01*
X18871400Y-40842370D01*
X18871402Y-40842377D01*
X18921646Y-40977088D01*
X18921648Y-40977091D01*
X19007807Y-41092185D01*
X19007809Y-41092187D01*
X19007812Y-41092190D01*
X19085781Y-41150558D01*
X19110727Y-41175508D01*
X19112855Y-41178350D01*
X19117508Y-41184567D01*
X19141919Y-41250034D01*
X19127061Y-41318305D01*
X19077691Y-41367685D01*
X19074706Y-41369316D01*
X19015249Y-41384500D01*
X17702099Y-41384500D01*
X17667164Y-41379477D01*
X17656310Y-41376290D01*
X17641319Y-41366656D01*
X17624220Y-41361638D01*
X17612537Y-41348159D01*
X17597532Y-41338516D01*
X17590128Y-41322305D01*
X17578458Y-41308840D01*
X17575917Y-41291186D01*
X17568507Y-41274960D01*
X17571042Y-41257315D01*
X17568505Y-41239683D01*
X17578439Y-41205827D01*
X17579860Y-41202717D01*
X17618342Y-41154957D01*
X17702187Y-41092190D01*
X17702190Y-41092187D01*
X17788350Y-40977093D01*
X17788354Y-40977086D01*
X17838596Y-40842379D01*
X17838598Y-40842372D01*
X17840069Y-40828689D01*
X17844998Y-40782860D01*
X17845000Y-40782827D01*
X17845000Y-40365000D01*
X14115000Y-40365000D01*
X14115000Y-40782852D01*
X14121400Y-40842370D01*
X14121402Y-40842377D01*
X14171646Y-40977088D01*
X14171648Y-40977091D01*
X14257807Y-41092185D01*
X14257809Y-41092187D01*
X14257812Y-41092190D01*
X14372906Y-41178350D01*
X14372913Y-41178354D01*
X14507620Y-41228596D01*
X14507627Y-41228598D01*
X14514468Y-41229333D01*
X14567138Y-41234998D01*
X14567155Y-41234999D01*
X14567172Y-41235000D01*
X15361453Y-41235000D01*
X15363535Y-41235611D01*
X15365637Y-41235071D01*
X15396380Y-41240021D01*
X15405012Y-41242555D01*
X15420016Y-41252196D01*
X15428492Y-41254685D01*
X15440138Y-41265125D01*
X15463793Y-41280325D01*
X15492822Y-41343879D01*
X15482883Y-41413038D01*
X15442602Y-41462119D01*
X15438445Y-41465116D01*
X15431128Y-41469195D01*
X15429410Y-41471049D01*
X15426429Y-41471815D01*
X15413381Y-41479092D01*
X15230347Y-41554907D01*
X15228452Y-41555614D01*
X15226271Y-41556595D01*
X15194778Y-41574778D01*
X15194687Y-41574830D01*
X15193913Y-41575276D01*
X15164101Y-41587611D01*
X15133640Y-41595774D01*
X15101543Y-41600000D01*
X13372330Y-41600000D01*
X13337389Y-41594975D01*
X13322390Y-41590570D01*
X13307402Y-41580940D01*
X13290324Y-41575932D01*
X13263644Y-41552827D01*
X13262457Y-41551458D01*
X13234977Y-41496583D01*
X13233332Y-41489021D01*
X13230500Y-41462668D01*
X13230500Y-39447146D01*
X14115000Y-39447146D01*
X14115000Y-39447155D01*
X14115000Y-39865000D01*
X15730000Y-39865000D01*
X16230000Y-39865000D01*
X17845000Y-39865000D01*
X17845000Y-39447172D01*
X17844999Y-39447155D01*
X17844998Y-39447146D01*
X18865000Y-39447146D01*
X18865000Y-39447155D01*
X18865000Y-39865000D01*
X20480000Y-39865000D01*
X20980000Y-39865000D01*
X22595000Y-39865000D01*
X22595000Y-39447172D01*
X22594999Y-39447155D01*
X22594998Y-39447146D01*
X22594998Y-39447138D01*
X22588598Y-39387628D01*
X22588596Y-39387621D01*
X22588596Y-39387620D01*
X22538354Y-39252913D01*
X22538350Y-39252906D01*
X22452190Y-39137812D01*
X22452187Y-39137809D01*
X22452185Y-39137807D01*
X22393781Y-39094086D01*
X22337093Y-39051649D01*
X22337088Y-39051646D01*
X22337089Y-39051646D01*
X22202377Y-39001402D01*
X22202370Y-39001400D01*
X22142852Y-38995000D01*
X22142844Y-38995000D01*
X20980000Y-38995000D01*
X20980000Y-39865000D01*
X20480000Y-39865000D01*
X20480000Y-38995000D01*
X19317146Y-38995000D01*
X19257628Y-39001400D01*
X19257621Y-39001402D01*
X19122910Y-39051646D01*
X19122907Y-39051648D01*
X19007813Y-39137807D01*
X19007807Y-39137813D01*
X18921648Y-39252907D01*
X18921646Y-39252910D01*
X18871402Y-39387621D01*
X18871400Y-39387628D01*
X18865000Y-39447146D01*
X17844998Y-39447146D01*
X17844998Y-39447138D01*
X17838598Y-39387628D01*
X17838596Y-39387621D01*
X17838596Y-39387620D01*
X17788354Y-39252913D01*
X17788350Y-39252906D01*
X17702190Y-39137812D01*
X17702187Y-39137809D01*
X17702185Y-39137807D01*
X17643781Y-39094086D01*
X17587093Y-39051649D01*
X17587086Y-39051645D01*
X17492996Y-39016552D01*
X17452377Y-39001402D01*
X17452370Y-39001400D01*
X17392852Y-38995000D01*
X17392844Y-38995000D01*
X16230000Y-38995000D01*
X16230000Y-39865000D01*
X15730000Y-39865000D01*
X15730000Y-38995000D01*
X14567146Y-38995000D01*
X14507628Y-39001400D01*
X14507621Y-39001402D01*
X14372910Y-39051646D01*
X14372907Y-39051648D01*
X14257813Y-39137807D01*
X14257807Y-39137813D01*
X14171648Y-39252907D01*
X14171646Y-39252910D01*
X14121402Y-39387621D01*
X14121400Y-39387628D01*
X14115000Y-39447146D01*
X13230500Y-39447146D01*
X13230500Y-30050007D01*
X19577349Y-30050007D01*
X19577349Y-30050010D01*
X19577349Y-30050013D01*
X19577349Y-30400000D01*
X20368626Y-30400000D01*
X20435665Y-30419685D01*
X20481420Y-30472489D01*
X20491364Y-30541647D01*
X20488401Y-30556093D01*
X20477349Y-30597339D01*
X20477349Y-30702660D01*
X20488401Y-30743907D01*
X20486738Y-30813757D01*
X20447575Y-30871619D01*
X20383347Y-30899123D01*
X20368626Y-30900000D01*
X19577350Y-30900000D01*
X19577350Y-31249995D01*
X19587842Y-31352694D01*
X19587842Y-31352695D01*
X19587843Y-31352697D01*
X19642990Y-31519119D01*
X19642992Y-31519124D01*
X19735033Y-31668345D01*
X19859003Y-31792315D01*
X20008224Y-31884356D01*
X20008229Y-31884358D01*
X20174648Y-31939504D01*
X20174649Y-31939504D01*
X20174651Y-31939505D01*
X20174658Y-31939506D01*
X20277368Y-31949999D01*
X20627348Y-31949999D01*
X20627349Y-31949998D01*
X20627349Y-31158722D01*
X20647034Y-31091683D01*
X20699838Y-31045928D01*
X20768996Y-31035984D01*
X20783431Y-31038945D01*
X20824688Y-31050000D01*
X20930008Y-31050000D01*
X20930010Y-31050000D01*
X20971256Y-31038948D01*
X21041104Y-31040609D01*
X21098967Y-31079771D01*
X21126472Y-31143999D01*
X21127349Y-31158722D01*
X21127349Y-31949999D01*
X21477309Y-31949999D01*
X21477321Y-31949999D01*
X21477335Y-31949998D01*
X21580046Y-31939505D01*
X21746468Y-31884358D01*
X21746473Y-31884356D01*
X21895694Y-31792315D01*
X22019664Y-31668345D01*
X22111705Y-31519124D01*
X22111707Y-31519119D01*
X22166854Y-31352697D01*
X22166855Y-31352690D01*
X22177348Y-31249986D01*
X22177349Y-31249973D01*
X22177349Y-30900000D01*
X21386072Y-30900000D01*
X21319033Y-30880315D01*
X21273278Y-30827511D01*
X21263334Y-30758353D01*
X21266297Y-30743907D01*
X21277349Y-30702661D01*
X21277349Y-30597339D01*
X21266297Y-30556092D01*
X21267960Y-30486243D01*
X21307123Y-30428381D01*
X21371351Y-30400877D01*
X21386072Y-30400000D01*
X22177348Y-30400000D01*
X22177348Y-30050032D01*
X22177348Y-30050028D01*
X22177347Y-30050013D01*
X22166854Y-29947302D01*
X22111707Y-29780880D01*
X22111705Y-29780875D01*
X22019664Y-29631654D01*
X21895694Y-29507684D01*
X21746473Y-29415643D01*
X21746468Y-29415641D01*
X21746459Y-29415638D01*
X21580048Y-29360494D01*
X21580043Y-29360493D01*
X21477340Y-29350000D01*
X21477335Y-29350000D01*
X21127349Y-29350000D01*
X21127349Y-30141277D01*
X21107664Y-30208316D01*
X21054860Y-30254071D01*
X20985702Y-30264015D01*
X20971260Y-30261052D01*
X20930010Y-30250000D01*
X20930009Y-30250000D01*
X20824688Y-30250000D01*
X20783441Y-30261051D01*
X20713592Y-30259389D01*
X20655730Y-30220226D01*
X20628226Y-30155998D01*
X20627349Y-30141277D01*
X20627349Y-29350000D01*
X20277377Y-29350000D01*
X20277361Y-29350001D01*
X20277351Y-29350001D01*
X20277351Y-29350002D01*
X20174653Y-29360493D01*
X20174651Y-29360494D01*
X20008236Y-29415638D01*
X20008228Y-29415641D01*
X20008226Y-29415642D01*
X20008224Y-29415643D01*
X19908743Y-29477003D01*
X19859001Y-29507685D01*
X19735034Y-29631652D01*
X19642990Y-29780879D01*
X19642987Y-29780888D01*
X19587843Y-29947299D01*
X19587842Y-29947304D01*
X19577349Y-30050007D01*
X13230500Y-30050007D01*
X13230500Y-13512329D01*
X13235523Y-13477393D01*
X13239927Y-13462395D01*
X13277672Y-13403644D01*
X13277700Y-13403619D01*
X13277699Y-13403619D01*
X13279041Y-13402456D01*
X13333920Y-13374977D01*
X13341479Y-13373333D01*
X13367832Y-13370500D01*
X22332747Y-13370500D01*
X22367683Y-13375523D01*
G37*
%TD.AperFunction*%
%TD*%
%TA.AperFunction,Conductor*%
%TO.N,/VOUT_PRE*%
G36*
X61427976Y-39600919D02*
G01*
X61440595Y-39602466D01*
X61440595Y-39602465D01*
X61468243Y-39605853D01*
X61469351Y-39605436D01*
X61487013Y-39605374D01*
X61487878Y-39605432D01*
X61488877Y-39605500D01*
X61991122Y-39605499D01*
X62033889Y-39602600D01*
X62033894Y-39602598D01*
X62038913Y-39601811D01*
X62039289Y-39601782D01*
X62039397Y-39602467D01*
X62054760Y-39600584D01*
X62057533Y-39600370D01*
X62058317Y-39600535D01*
X62067103Y-39600000D01*
X62692897Y-39600000D01*
X62707976Y-39600919D01*
X62720595Y-39602466D01*
X62720595Y-39602465D01*
X62748243Y-39605853D01*
X62749351Y-39605436D01*
X62767013Y-39605374D01*
X62767878Y-39605432D01*
X62768877Y-39605500D01*
X63271122Y-39605499D01*
X63313889Y-39602600D01*
X63313894Y-39602598D01*
X63318913Y-39601811D01*
X63319289Y-39601782D01*
X63319397Y-39602467D01*
X63334760Y-39600584D01*
X63337533Y-39600370D01*
X63338317Y-39600535D01*
X63347103Y-39600000D01*
X63962897Y-39600000D01*
X63977976Y-39600919D01*
X63990595Y-39602466D01*
X63990595Y-39602465D01*
X64018243Y-39605853D01*
X64019351Y-39605436D01*
X64037013Y-39605374D01*
X64037878Y-39605432D01*
X64038877Y-39605500D01*
X64541122Y-39605499D01*
X64583889Y-39602600D01*
X64583894Y-39602598D01*
X64588913Y-39601811D01*
X64589289Y-39601782D01*
X64589397Y-39602467D01*
X64604760Y-39600584D01*
X64607533Y-39600370D01*
X64608317Y-39600535D01*
X64617103Y-39600000D01*
X64967821Y-39600000D01*
X64975903Y-39600264D01*
X64984033Y-39600797D01*
X64992074Y-39601589D01*
X65085173Y-39613846D01*
X65101065Y-39617007D01*
X65116645Y-39621181D01*
X65131995Y-39626392D01*
X65207411Y-39657630D01*
X65221953Y-39664802D01*
X65235914Y-39672862D01*
X65249403Y-39681875D01*
X65314154Y-39731561D01*
X65326348Y-39742255D01*
X65337742Y-39753649D01*
X65348437Y-39765844D01*
X65398126Y-39830600D01*
X65407137Y-39844086D01*
X65415194Y-39858041D01*
X65422368Y-39872589D01*
X65453603Y-39947998D01*
X65458815Y-39963351D01*
X65462988Y-39978922D01*
X65466154Y-39994836D01*
X65478409Y-40087921D01*
X65479204Y-40095982D01*
X65479734Y-40104080D01*
X65480000Y-40112178D01*
X65480000Y-44600000D01*
X67377525Y-44600000D01*
X67409613Y-44604223D01*
X67440082Y-44612387D01*
X67469990Y-44624777D01*
X67476268Y-44628402D01*
X67476271Y-44628403D01*
X67476274Y-44628405D01*
X67682219Y-44713710D01*
X67897537Y-44771404D01*
X68118543Y-44800500D01*
X68118550Y-44800500D01*
X68341450Y-44800500D01*
X68341457Y-44800500D01*
X68562463Y-44771404D01*
X68777781Y-44713710D01*
X68983726Y-44628405D01*
X68990010Y-44624776D01*
X69019918Y-44612387D01*
X69044280Y-44605859D01*
X69050386Y-44604224D01*
X69082475Y-44600000D01*
X70730000Y-44600000D01*
X70730000Y-42802146D01*
X72480000Y-42802146D01*
X72480000Y-42802155D01*
X72480000Y-43600000D01*
X74480000Y-43600000D01*
X74480000Y-42350000D01*
X72932146Y-42350000D01*
X72872628Y-42356400D01*
X72872621Y-42356402D01*
X72737910Y-42406646D01*
X72737907Y-42406648D01*
X72622813Y-42492807D01*
X72622807Y-42492813D01*
X72536648Y-42607907D01*
X72536646Y-42607910D01*
X72486402Y-42742621D01*
X72486400Y-42742628D01*
X72480000Y-42802146D01*
X70730000Y-42802146D01*
X70730000Y-42362178D01*
X70730264Y-42354094D01*
X70730797Y-42345965D01*
X70731590Y-42337920D01*
X70732638Y-42329962D01*
X70743846Y-42244822D01*
X70747006Y-42228936D01*
X70751183Y-42213348D01*
X70756390Y-42198007D01*
X70787633Y-42122581D01*
X70794801Y-42108046D01*
X70794807Y-42108036D01*
X70802864Y-42094079D01*
X70811856Y-42080620D01*
X70861578Y-42015822D01*
X70872251Y-42003653D01*
X70883653Y-41992251D01*
X70895830Y-41981572D01*
X70960613Y-41931862D01*
X70974075Y-41922866D01*
X70988052Y-41914796D01*
X71002566Y-41907638D01*
X71078012Y-41876387D01*
X71093352Y-41871181D01*
X71108931Y-41867007D01*
X71124821Y-41863846D01*
X71217927Y-41851589D01*
X71225966Y-41850797D01*
X71234095Y-41850264D01*
X71242179Y-41850000D01*
X75967821Y-41850000D01*
X75975903Y-41850264D01*
X75984033Y-41850797D01*
X75992074Y-41851589D01*
X76085173Y-41863846D01*
X76101065Y-41867007D01*
X76116645Y-41871181D01*
X76131995Y-41876392D01*
X76207411Y-41907630D01*
X76221953Y-41914802D01*
X76235914Y-41922862D01*
X76249403Y-41931875D01*
X76314154Y-41981561D01*
X76326348Y-41992255D01*
X76337742Y-42003649D01*
X76348437Y-42015844D01*
X76398126Y-42080600D01*
X76407135Y-42094082D01*
X76415192Y-42108036D01*
X76422368Y-42122587D01*
X76438726Y-42162078D01*
X76438726Y-42162079D01*
X76438727Y-42162080D01*
X76447454Y-42196274D01*
X76448447Y-42205508D01*
X76448938Y-42210074D01*
X76436531Y-42278833D01*
X76388933Y-42329962D01*
X76384429Y-42332635D01*
X76321144Y-42350000D01*
X74980000Y-42350000D01*
X74980000Y-45350000D01*
X76338171Y-45350000D01*
X76373106Y-45355023D01*
X76388104Y-45359427D01*
X76446855Y-45397172D01*
X76446879Y-45397200D01*
X76446882Y-45397202D01*
X76446883Y-45397204D01*
X76448042Y-45398541D01*
X76475518Y-45453402D01*
X76477163Y-45460960D01*
X76480000Y-45487331D01*
X76480000Y-45643525D01*
X76479999Y-45643529D01*
X76480000Y-45643532D01*
X76474975Y-45678466D01*
X76471064Y-45691783D01*
X76433287Y-45750559D01*
X76369744Y-45779579D01*
X76363835Y-45780429D01*
X76302847Y-45773874D01*
X76202384Y-45736403D01*
X76202374Y-45736401D01*
X76202372Y-45736401D01*
X76202369Y-45736400D01*
X76202365Y-45736400D01*
X76142850Y-45730000D01*
X76142844Y-45730000D01*
X74980000Y-45730000D01*
X74980000Y-46708170D01*
X74979999Y-46708176D01*
X74980000Y-46708179D01*
X74974975Y-46743114D01*
X74970570Y-46758112D01*
X74932827Y-46816855D01*
X74932792Y-46816885D01*
X74932791Y-46816887D01*
X74932789Y-46816887D01*
X74931458Y-46818042D01*
X74876597Y-46845518D01*
X74869039Y-46847163D01*
X74842668Y-46850000D01*
X74730000Y-46850000D01*
X74730000Y-46958170D01*
X74729999Y-46958176D01*
X74730000Y-46958179D01*
X74724975Y-46993114D01*
X74720570Y-47008112D01*
X74682827Y-47066855D01*
X74682792Y-47066885D01*
X74682791Y-47066887D01*
X74682789Y-47066887D01*
X74681458Y-47068042D01*
X74626597Y-47095518D01*
X74619039Y-47097163D01*
X74592668Y-47100000D01*
X72865000Y-47100000D01*
X72865000Y-47517852D01*
X72871400Y-47577370D01*
X72871402Y-47577377D01*
X72921646Y-47712088D01*
X72921648Y-47712091D01*
X73007807Y-47827185D01*
X73007809Y-47827187D01*
X73007812Y-47827190D01*
X73085781Y-47885558D01*
X73110727Y-47910508D01*
X73113564Y-47914297D01*
X73117508Y-47919567D01*
X73141919Y-47985034D01*
X73127061Y-48053305D01*
X73077691Y-48102685D01*
X73074706Y-48104316D01*
X73015249Y-48119500D01*
X69952099Y-48119500D01*
X69917164Y-48114477D01*
X69906310Y-48111290D01*
X69891319Y-48101656D01*
X69874220Y-48096638D01*
X69862537Y-48083159D01*
X69847532Y-48073516D01*
X69840128Y-48057305D01*
X69828458Y-48043840D01*
X69825917Y-48026186D01*
X69818507Y-48009960D01*
X69821042Y-47992315D01*
X69818505Y-47974683D01*
X69828439Y-47940827D01*
X69829860Y-47937717D01*
X69868342Y-47889957D01*
X69952187Y-47827190D01*
X69952190Y-47827187D01*
X70038350Y-47712093D01*
X70038354Y-47712086D01*
X70088596Y-47577379D01*
X70088598Y-47577372D01*
X70090069Y-47563689D01*
X70094998Y-47517860D01*
X70095000Y-47517827D01*
X70095000Y-47100000D01*
X66365000Y-47100000D01*
X66365000Y-47517852D01*
X66371400Y-47577370D01*
X66371402Y-47577377D01*
X66421646Y-47712088D01*
X66421648Y-47712091D01*
X66507807Y-47827185D01*
X66507809Y-47827187D01*
X66507812Y-47827190D01*
X66585781Y-47885558D01*
X66610727Y-47910508D01*
X66613564Y-47914297D01*
X66617508Y-47919567D01*
X66641919Y-47985034D01*
X66627061Y-48053305D01*
X66577691Y-48102685D01*
X66574706Y-48104316D01*
X66515249Y-48119500D01*
X62952099Y-48119500D01*
X62917164Y-48114477D01*
X62906310Y-48111290D01*
X62891319Y-48101656D01*
X62874220Y-48096638D01*
X62862537Y-48083159D01*
X62847532Y-48073516D01*
X62840128Y-48057305D01*
X62828458Y-48043840D01*
X62825917Y-48026186D01*
X62818507Y-48009960D01*
X62821042Y-47992315D01*
X62818505Y-47974683D01*
X62828439Y-47940827D01*
X62829860Y-47937717D01*
X62868342Y-47889957D01*
X62952187Y-47827190D01*
X62952190Y-47827187D01*
X63038350Y-47712093D01*
X63038354Y-47712086D01*
X63088596Y-47577379D01*
X63088598Y-47577372D01*
X63090069Y-47563689D01*
X63094998Y-47517860D01*
X63095000Y-47517827D01*
X63095000Y-47100000D01*
X61371830Y-47100000D01*
X61371825Y-47099999D01*
X61371823Y-47100000D01*
X61336889Y-47094975D01*
X61321890Y-47090570D01*
X61263144Y-47052827D01*
X61263115Y-47052793D01*
X61263114Y-47052793D01*
X61263113Y-47052791D01*
X61261957Y-47051458D01*
X61234477Y-46996583D01*
X61232832Y-46989021D01*
X61230000Y-46962668D01*
X61230000Y-46850000D01*
X61121830Y-46850000D01*
X61121825Y-46849999D01*
X61121823Y-46850000D01*
X61086889Y-46844975D01*
X61071890Y-46840570D01*
X61013144Y-46802827D01*
X61013115Y-46802793D01*
X61013114Y-46802793D01*
X61013113Y-46802791D01*
X61011957Y-46801458D01*
X60984477Y-46746583D01*
X60982832Y-46739021D01*
X60980000Y-46712668D01*
X60980000Y-46600000D01*
X61480000Y-46600000D01*
X63095000Y-46600000D01*
X63095000Y-46182172D01*
X63094999Y-46182155D01*
X63094998Y-46182146D01*
X66365000Y-46182146D01*
X66365000Y-46182155D01*
X66365000Y-46600000D01*
X67980000Y-46600000D01*
X68480000Y-46600000D01*
X70095000Y-46600000D01*
X70095000Y-46182172D01*
X70094999Y-46182155D01*
X70094998Y-46182146D01*
X72865000Y-46182146D01*
X72865000Y-46182155D01*
X72865000Y-46600000D01*
X74480000Y-46600000D01*
X74480000Y-45730000D01*
X73317146Y-45730000D01*
X73257628Y-45736400D01*
X73257621Y-45736402D01*
X73122910Y-45786646D01*
X73122907Y-45786648D01*
X73007813Y-45872807D01*
X73007807Y-45872813D01*
X72921648Y-45987907D01*
X72921646Y-45987910D01*
X72871402Y-46122621D01*
X72871400Y-46122628D01*
X72865000Y-46182146D01*
X70094998Y-46182146D01*
X70094998Y-46182138D01*
X70088598Y-46122628D01*
X70088596Y-46122621D01*
X70088596Y-46122620D01*
X70038354Y-45987913D01*
X70038350Y-45987906D01*
X69952190Y-45872812D01*
X69952187Y-45872809D01*
X69952185Y-45872807D01*
X69894317Y-45829487D01*
X69837093Y-45786649D01*
X69837088Y-45786646D01*
X69837089Y-45786646D01*
X69702377Y-45736402D01*
X69702370Y-45736400D01*
X69642852Y-45730000D01*
X69642844Y-45730000D01*
X68480000Y-45730000D01*
X68480000Y-46600000D01*
X67980000Y-46600000D01*
X67980000Y-45730000D01*
X66817146Y-45730000D01*
X66757628Y-45736400D01*
X66757621Y-45736402D01*
X66622910Y-45786646D01*
X66622907Y-45786648D01*
X66507813Y-45872807D01*
X66507807Y-45872813D01*
X66421648Y-45987907D01*
X66421646Y-45987910D01*
X66371402Y-46122621D01*
X66371400Y-46122628D01*
X66365000Y-46182146D01*
X63094998Y-46182146D01*
X63094998Y-46182138D01*
X63088598Y-46122628D01*
X63088596Y-46122621D01*
X63088596Y-46122620D01*
X63038354Y-45987913D01*
X63038350Y-45987906D01*
X62952190Y-45872812D01*
X62952187Y-45872809D01*
X62952185Y-45872807D01*
X62894317Y-45829487D01*
X62837093Y-45786649D01*
X62837088Y-45786646D01*
X62837089Y-45786646D01*
X62702377Y-45736402D01*
X62702370Y-45736400D01*
X62642852Y-45730000D01*
X62642844Y-45730000D01*
X61480000Y-45730000D01*
X61480000Y-46600000D01*
X60980000Y-46600000D01*
X60980000Y-45730000D01*
X60423421Y-45730000D01*
X60389493Y-45725268D01*
X60388925Y-45725106D01*
X60378874Y-45722155D01*
X60378081Y-45722021D01*
X60374117Y-45720894D01*
X60347202Y-45703917D01*
X60323899Y-45690828D01*
X60323053Y-45691760D01*
X60320321Y-45689277D01*
X60320318Y-45689273D01*
X60319777Y-45688781D01*
X60319528Y-45688373D01*
X60319332Y-45688263D01*
X60317746Y-45686639D01*
X60318200Y-45686194D01*
X60317634Y-45685265D01*
X60315022Y-45683618D01*
X60309758Y-45672345D01*
X60283412Y-45629125D01*
X60267313Y-45569042D01*
X60251980Y-45511815D01*
X60247755Y-45479723D01*
X60247755Y-45448192D01*
X60251980Y-45416099D01*
X60257043Y-45397204D01*
X60297445Y-45246422D01*
X60326541Y-45025416D01*
X60326541Y-44897852D01*
X72480000Y-44897852D01*
X72486400Y-44957370D01*
X72486402Y-44957377D01*
X72536646Y-45092088D01*
X72536648Y-45092091D01*
X72622807Y-45207185D01*
X72622809Y-45207187D01*
X72622812Y-45207190D01*
X72737906Y-45293350D01*
X72737913Y-45293354D01*
X72872620Y-45343596D01*
X72872627Y-45343598D01*
X72879468Y-45344333D01*
X72932138Y-45349998D01*
X72932155Y-45349999D01*
X72932172Y-45350000D01*
X74480000Y-45350000D01*
X74480000Y-44100000D01*
X72480000Y-44100000D01*
X72480000Y-44897852D01*
X60326541Y-44897852D01*
X60326541Y-43794584D01*
X60297445Y-43573578D01*
X60239751Y-43358260D01*
X60154446Y-43152315D01*
X60154444Y-43152312D01*
X60154442Y-43152307D01*
X60044828Y-42962451D01*
X60044828Y-42962450D01*
X60042990Y-42959269D01*
X60042989Y-42959267D01*
X60042984Y-42959261D01*
X60042982Y-42959257D01*
X59996475Y-42898647D01*
X59979195Y-42867876D01*
X59968342Y-42839802D01*
X59960000Y-42795090D01*
X59960000Y-40112178D01*
X59960264Y-40104095D01*
X59960797Y-40095965D01*
X59961590Y-40087920D01*
X59973845Y-39994834D01*
X59977010Y-39978923D01*
X59981182Y-39963354D01*
X59986395Y-39947998D01*
X60017631Y-39872587D01*
X60024801Y-39858046D01*
X60024804Y-39858041D01*
X60032864Y-39844079D01*
X60041856Y-39830620D01*
X60091578Y-39765822D01*
X60102251Y-39753653D01*
X60113653Y-39742251D01*
X60125830Y-39731572D01*
X60190613Y-39681862D01*
X60204075Y-39672866D01*
X60218052Y-39664796D01*
X60232560Y-39657641D01*
X60308017Y-39626385D01*
X60323340Y-39621184D01*
X60338939Y-39617004D01*
X60354819Y-39613846D01*
X60406162Y-39607087D01*
X60414200Y-39606295D01*
X60422312Y-39605763D01*
X60430398Y-39605499D01*
X60731863Y-39605499D01*
X60735627Y-39606604D01*
X60737141Y-39606419D01*
X60748537Y-39605723D01*
X60748934Y-39605507D01*
X60760238Y-39603589D01*
X60782027Y-39600920D01*
X60797103Y-39600000D01*
X61412897Y-39600000D01*
X61427976Y-39600919D01*
G37*
%TD.AperFunction*%
%TD*%
%TA.AperFunction,Conductor*%
%TO.N,/VOUT*%
G36*
X68373106Y-13375523D02*
G01*
X68388104Y-13379927D01*
X68403094Y-13389557D01*
X68420175Y-13394567D01*
X68446855Y-13417672D01*
X68448042Y-13419041D01*
X68475518Y-13473902D01*
X68477163Y-13481460D01*
X68480000Y-13507831D01*
X68480000Y-19891876D01*
X68474976Y-19926816D01*
X68472441Y-19935448D01*
X68464567Y-19947697D01*
X68461220Y-19961866D01*
X68446058Y-19976496D01*
X68434664Y-19994225D01*
X68421418Y-20000273D01*
X68410942Y-20010383D01*
X68390275Y-20014494D01*
X68371107Y-20023247D01*
X68356695Y-20021174D01*
X68342415Y-20024015D01*
X68322805Y-20016299D01*
X68301949Y-20013300D01*
X68289764Y-20003300D01*
X68277396Y-19998434D01*
X68252888Y-19973036D01*
X68249891Y-19968880D01*
X68235909Y-19943808D01*
X68197780Y-19851758D01*
X68197773Y-19851744D01*
X68035677Y-19548481D01*
X68035666Y-19548463D01*
X67844622Y-19262546D01*
X67844612Y-19262533D01*
X67676213Y-19057339D01*
X67676212Y-19057338D01*
X66885446Y-19848103D01*
X66824123Y-19881588D01*
X66754431Y-19876604D01*
X66710084Y-19848103D01*
X66531894Y-19669913D01*
X66498409Y-19608590D01*
X66503393Y-19538898D01*
X66531894Y-19494551D01*
X67322660Y-18703786D01*
X67322660Y-18703785D01*
X67117480Y-18535398D01*
X67117467Y-18535387D01*
X67117453Y-18535377D01*
X66831536Y-18344333D01*
X66831518Y-18344322D01*
X66528255Y-18182226D01*
X66528241Y-18182219D01*
X66369390Y-18116421D01*
X66210541Y-18050623D01*
X65881433Y-17950789D01*
X65880839Y-17950650D01*
X65879529Y-17950411D01*
X65544207Y-17883712D01*
X65544192Y-17883709D01*
X65544158Y-17883704D01*
X65393295Y-17868846D01*
X65201941Y-17850000D01*
X65201937Y-17850000D01*
X64858063Y-17850000D01*
X64858059Y-17850000D01*
X64690173Y-17866534D01*
X64515840Y-17883704D01*
X64515806Y-17883709D01*
X64515791Y-17883712D01*
X64180469Y-17950411D01*
X64179158Y-17950650D01*
X64178565Y-17950789D01*
X63849457Y-18050623D01*
X63531758Y-18182219D01*
X63531744Y-18182226D01*
X63387781Y-18259175D01*
X63228480Y-18344322D01*
X63228465Y-18344331D01*
X63036976Y-18472280D01*
X62942546Y-18535377D01*
X62942532Y-18535387D01*
X62942524Y-18535392D01*
X62942518Y-18535398D01*
X62737337Y-18703786D01*
X63528104Y-19494552D01*
X63561589Y-19555875D01*
X63556605Y-19625566D01*
X63528104Y-19669914D01*
X63349914Y-19848104D01*
X63288591Y-19881589D01*
X63218899Y-19876605D01*
X63174552Y-19848104D01*
X62383786Y-19057337D01*
X62215398Y-19262518D01*
X62215387Y-19262532D01*
X62215377Y-19262546D01*
X62152280Y-19356976D01*
X62024331Y-19548465D01*
X62024322Y-19548480D01*
X61967531Y-19654731D01*
X61864173Y-19848103D01*
X61862219Y-19851758D01*
X61730623Y-20169457D01*
X61630789Y-20498565D01*
X61630650Y-20499158D01*
X61630411Y-20500469D01*
X61563712Y-20835791D01*
X61563709Y-20835806D01*
X61563704Y-20835840D01*
X61530000Y-21178063D01*
X61530000Y-21521935D01*
X61563704Y-21864158D01*
X61563709Y-21864192D01*
X61563712Y-21864207D01*
X61630411Y-22199529D01*
X61630650Y-22200839D01*
X61630789Y-22201433D01*
X61630791Y-22201442D01*
X61630792Y-22201443D01*
X61730623Y-22530540D01*
X61862219Y-22848241D01*
X61862226Y-22848255D01*
X62024322Y-23151518D01*
X62024333Y-23151536D01*
X62215377Y-23437453D01*
X62215387Y-23437467D01*
X62383785Y-23642659D01*
X62383786Y-23642660D01*
X62383787Y-23642660D01*
X63174551Y-22851894D01*
X63235874Y-22818409D01*
X63305565Y-22823393D01*
X63349913Y-22851894D01*
X63528103Y-23030084D01*
X63561588Y-23091407D01*
X63556604Y-23161099D01*
X63528103Y-23205446D01*
X62737338Y-23996211D01*
X62737338Y-23996212D01*
X62737339Y-23996213D01*
X62942533Y-24164612D01*
X62942546Y-24164622D01*
X63228463Y-24355666D01*
X63228481Y-24355677D01*
X63531744Y-24517773D01*
X63531758Y-24517780D01*
X63849459Y-24649376D01*
X64178556Y-24749207D01*
X64178561Y-24749207D01*
X64178565Y-24749209D01*
X64179148Y-24749345D01*
X64180448Y-24749583D01*
X64515792Y-24816286D01*
X64515806Y-24816289D01*
X64515809Y-24816289D01*
X64515817Y-24816291D01*
X64515834Y-24816294D01*
X64858059Y-24850000D01*
X65201938Y-24850000D01*
X65201941Y-24850000D01*
X65544165Y-24816294D01*
X65544182Y-24816291D01*
X65879562Y-24749580D01*
X65880855Y-24749344D01*
X65881433Y-24749209D01*
X65881434Y-24749208D01*
X65881437Y-24749208D01*
X65881443Y-24749207D01*
X66210540Y-24649376D01*
X66528241Y-24517780D01*
X66528255Y-24517773D01*
X66831518Y-24355677D01*
X66831536Y-24355666D01*
X67117453Y-24164622D01*
X67117466Y-24164612D01*
X67322659Y-23996213D01*
X67322659Y-23996212D01*
X66531895Y-23205448D01*
X66498410Y-23144125D01*
X66503394Y-23074433D01*
X66531895Y-23030086D01*
X66710086Y-22851895D01*
X66771409Y-22818410D01*
X66841101Y-22823394D01*
X66885448Y-22851895D01*
X67676212Y-23642659D01*
X67676213Y-23642659D01*
X67844612Y-23437466D01*
X67844622Y-23437453D01*
X68035666Y-23151536D01*
X68035677Y-23151518D01*
X68197773Y-22848255D01*
X68197780Y-22848241D01*
X68234617Y-22759307D01*
X68235987Y-22757608D01*
X68236295Y-22755442D01*
X68252624Y-22728959D01*
X68258276Y-22721946D01*
X68272912Y-22711784D01*
X68278456Y-22704906D01*
X68292566Y-22698140D01*
X68315668Y-22682102D01*
X68385494Y-22679612D01*
X68445580Y-22715268D01*
X68475495Y-22771230D01*
X68476674Y-22776217D01*
X68477649Y-22784583D01*
X68478708Y-22786891D01*
X68478274Y-22789943D01*
X68480000Y-22804746D01*
X68480000Y-26100000D01*
X73967821Y-26100000D01*
X73975903Y-26100264D01*
X73984033Y-26100797D01*
X73992074Y-26101589D01*
X74085173Y-26113846D01*
X74101065Y-26117007D01*
X74116645Y-26121181D01*
X74131995Y-26126392D01*
X74207411Y-26157630D01*
X74221953Y-26164802D01*
X74235914Y-26172862D01*
X74249403Y-26181875D01*
X74314154Y-26231561D01*
X74326348Y-26242255D01*
X74337742Y-26253649D01*
X74348437Y-26265844D01*
X74398126Y-26330600D01*
X74407137Y-26344086D01*
X74415194Y-26358041D01*
X74422368Y-26372589D01*
X74453603Y-26447998D01*
X74458815Y-26463351D01*
X74462988Y-26478922D01*
X74466154Y-26494836D01*
X74478409Y-26587921D01*
X74479204Y-26595982D01*
X74479734Y-26604080D01*
X74480000Y-26612178D01*
X74480000Y-30274358D01*
X74474976Y-30309296D01*
X74471789Y-30320149D01*
X74464586Y-30331356D01*
X74463701Y-30337128D01*
X74453324Y-30348878D01*
X74434014Y-30378926D01*
X74421913Y-30384451D01*
X74417454Y-30389502D01*
X74400048Y-30394436D01*
X74370457Y-30407949D01*
X74358464Y-30406224D01*
X74350233Y-30408558D01*
X74328259Y-30401881D01*
X74301304Y-30398006D01*
X74299885Y-30397358D01*
X74290820Y-30390506D01*
X74283381Y-30388246D01*
X74256925Y-30364885D01*
X74256573Y-30364471D01*
X74245504Y-30349247D01*
X74234468Y-30331356D01*
X74222319Y-30311659D01*
X74222316Y-30311655D01*
X74098345Y-30187684D01*
X73949124Y-30095643D01*
X73949119Y-30095641D01*
X73949110Y-30095638D01*
X73782699Y-30040494D01*
X73782694Y-30040493D01*
X73679991Y-30030000D01*
X73679986Y-30030000D01*
X73330000Y-30030000D01*
X73330000Y-30821277D01*
X73310315Y-30888316D01*
X73257511Y-30934071D01*
X73188353Y-30944015D01*
X73173911Y-30941052D01*
X73132661Y-30930000D01*
X73132660Y-30930000D01*
X73027339Y-30930000D01*
X72986092Y-30941051D01*
X72916243Y-30939389D01*
X72858381Y-30900226D01*
X72830877Y-30835998D01*
X72830000Y-30821277D01*
X72830000Y-30030000D01*
X72480028Y-30030000D01*
X72480012Y-30030001D01*
X72480002Y-30030001D01*
X72480002Y-30030002D01*
X72377304Y-30040493D01*
X72377302Y-30040494D01*
X72210887Y-30095638D01*
X72210879Y-30095641D01*
X72210877Y-30095642D01*
X72210875Y-30095643D01*
X72111394Y-30157003D01*
X72061652Y-30187685D01*
X71937685Y-30311652D01*
X71921971Y-30337128D01*
X71878289Y-30407949D01*
X71845641Y-30460879D01*
X71845638Y-30460888D01*
X71790494Y-30627299D01*
X71790493Y-30627304D01*
X71780000Y-30730007D01*
X71780000Y-30730012D01*
X71780000Y-30730013D01*
X71780000Y-31080000D01*
X72571277Y-31080000D01*
X72638316Y-31099685D01*
X72684071Y-31152489D01*
X72694015Y-31221647D01*
X72691052Y-31236093D01*
X72680000Y-31277339D01*
X72680000Y-31382660D01*
X72691052Y-31423907D01*
X72689389Y-31493757D01*
X72650226Y-31551619D01*
X72585998Y-31579123D01*
X72571277Y-31580000D01*
X71780001Y-31580000D01*
X71780001Y-31929995D01*
X71790493Y-32032694D01*
X71790493Y-32032695D01*
X71790494Y-32032697D01*
X71845641Y-32199119D01*
X71845643Y-32199124D01*
X71937684Y-32348345D01*
X72061654Y-32472315D01*
X72210875Y-32564356D01*
X72210880Y-32564358D01*
X72377299Y-32619504D01*
X72377300Y-32619504D01*
X72377302Y-32619505D01*
X72377309Y-32619506D01*
X72480019Y-32629999D01*
X72829999Y-32629999D01*
X72830000Y-32629998D01*
X72830000Y-31838722D01*
X72849685Y-31771683D01*
X72902489Y-31725928D01*
X72971647Y-31715984D01*
X72986082Y-31718945D01*
X73027339Y-31730000D01*
X73132659Y-31730000D01*
X73132661Y-31730000D01*
X73173907Y-31718948D01*
X73243755Y-31720609D01*
X73301618Y-31759771D01*
X73329123Y-31823999D01*
X73330000Y-31838722D01*
X73330000Y-32629999D01*
X73679960Y-32629999D01*
X73679972Y-32629999D01*
X73679986Y-32629998D01*
X73782697Y-32619505D01*
X73949119Y-32564358D01*
X73949124Y-32564356D01*
X74098345Y-32472315D01*
X74222317Y-32348343D01*
X74241102Y-32317887D01*
X74250467Y-32308553D01*
X74254715Y-32299763D01*
X74263708Y-32290799D01*
X74272129Y-32283225D01*
X74279347Y-32279766D01*
X74281886Y-32277236D01*
X74291247Y-32271504D01*
X74303488Y-32268197D01*
X74335136Y-32253031D01*
X74351883Y-32255123D01*
X74358699Y-32253283D01*
X74372689Y-32257723D01*
X74404466Y-32261695D01*
X74416295Y-32271565D01*
X74425294Y-32274422D01*
X74437808Y-32289515D01*
X74458089Y-32306438D01*
X74458958Y-32307736D01*
X74464304Y-32321473D01*
X74469889Y-32328209D01*
X74471235Y-32339283D01*
X74478481Y-32357899D01*
X74478563Y-32358433D01*
X74480000Y-32377254D01*
X74480000Y-34850000D01*
X79087671Y-34850000D01*
X79122606Y-34855023D01*
X79137604Y-34859427D01*
X79196355Y-34897172D01*
X79196379Y-34897200D01*
X79196382Y-34897202D01*
X79196383Y-34897204D01*
X79197542Y-34898541D01*
X79225018Y-34953402D01*
X79226663Y-34960960D01*
X79229500Y-34987331D01*
X79229500Y-40458170D01*
X79229499Y-40458176D01*
X79229500Y-40458179D01*
X79224475Y-40493114D01*
X79220070Y-40508112D01*
X79182327Y-40566855D01*
X79182292Y-40566885D01*
X79182291Y-40566887D01*
X79182289Y-40566887D01*
X79180958Y-40568042D01*
X79126097Y-40595518D01*
X79118539Y-40597163D01*
X79092168Y-40600000D01*
X69554063Y-40600000D01*
X69523567Y-40596192D01*
X69521348Y-40595629D01*
X69509930Y-40592276D01*
X69505029Y-40591488D01*
X69499675Y-40590130D01*
X69474171Y-40575046D01*
X69447429Y-40562295D01*
X69442507Y-40557636D01*
X69353624Y-40468753D01*
X69353623Y-40468752D01*
X69353621Y-40468750D01*
X69289778Y-40419762D01*
X69286903Y-40416660D01*
X69284762Y-40415702D01*
X69269009Y-40397355D01*
X69261451Y-40389201D01*
X69260635Y-40387952D01*
X69255242Y-40379247D01*
X69252455Y-40375431D01*
X69250692Y-40372731D01*
X69247220Y-40361225D01*
X69232345Y-40326196D01*
X69231840Y-40323297D01*
X69230000Y-40302017D01*
X69230000Y-40150000D01*
X68847758Y-40150000D01*
X68823568Y-40147617D01*
X68800074Y-40142944D01*
X68779950Y-40136840D01*
X68779866Y-40137067D01*
X68777808Y-40136299D01*
X68777784Y-40136291D01*
X68777784Y-40136290D01*
X68777776Y-40136288D01*
X68563476Y-40078867D01*
X68563472Y-40078866D01*
X68562463Y-40078596D01*
X68562457Y-40078595D01*
X68562452Y-40078594D01*
X68343259Y-40049737D01*
X68343255Y-40049735D01*
X68341654Y-40049500D01*
X68341463Y-40049500D01*
X68341457Y-40049500D01*
X68118543Y-40049500D01*
X68118537Y-40049500D01*
X68118535Y-40049500D01*
X68113039Y-40050176D01*
X68112316Y-40050316D01*
X68111796Y-40050387D01*
X67897547Y-40078594D01*
X67897540Y-40078595D01*
X67897537Y-40078596D01*
X67886500Y-40081553D01*
X67886495Y-40081554D01*
X67682207Y-40136293D01*
X67682198Y-40136296D01*
X67679586Y-40137244D01*
X67679543Y-40137126D01*
X67679538Y-40137128D01*
X67679500Y-40137009D01*
X67659925Y-40142944D01*
X67636431Y-40147617D01*
X67612242Y-40150000D01*
X67230000Y-40150000D01*
X67203450Y-40176547D01*
X67191269Y-40190606D01*
X67187755Y-40193651D01*
X67124200Y-40222677D01*
X67055041Y-40212734D01*
X67011886Y-40180030D01*
X67010127Y-40177952D01*
X67010126Y-40177949D01*
X67010121Y-40177943D01*
X67007156Y-40171242D01*
X67002237Y-40166980D01*
X66996253Y-40146603D01*
X66981850Y-40114053D01*
X66981585Y-40112044D01*
X66980796Y-40104029D01*
X66980264Y-40095904D01*
X66980000Y-40087820D01*
X66980000Y-39302146D01*
X67230000Y-39302146D01*
X67230000Y-39302155D01*
X67230000Y-39650000D01*
X67980000Y-39650000D01*
X68480000Y-39650000D01*
X69230000Y-39650000D01*
X69230000Y-39302172D01*
X69229999Y-39302155D01*
X69229998Y-39302146D01*
X69229998Y-39302138D01*
X69223598Y-39242628D01*
X69223596Y-39242621D01*
X69223596Y-39242620D01*
X69173354Y-39107913D01*
X69173350Y-39107906D01*
X69087190Y-38992812D01*
X69087187Y-38992809D01*
X69087185Y-38992807D01*
X69029317Y-38949487D01*
X68972093Y-38906649D01*
X68972086Y-38906645D01*
X68948510Y-38897852D01*
X72480000Y-38897852D01*
X72486400Y-38957370D01*
X72486402Y-38957377D01*
X72499619Y-38992813D01*
X72536645Y-39092086D01*
X72536649Y-39092093D01*
X72548490Y-39107910D01*
X72622807Y-39207185D01*
X72622809Y-39207187D01*
X72622812Y-39207190D01*
X72737906Y-39293350D01*
X72737913Y-39293354D01*
X72872620Y-39343596D01*
X72872627Y-39343598D01*
X72879468Y-39344333D01*
X72932138Y-39349998D01*
X72932155Y-39349999D01*
X72932172Y-39350000D01*
X74480000Y-39350000D01*
X74980000Y-39350000D01*
X76527828Y-39350000D01*
X76527836Y-39350000D01*
X76527847Y-39349999D01*
X76563560Y-39346158D01*
X76587372Y-39343598D01*
X76587379Y-39343596D01*
X76722086Y-39293354D01*
X76722093Y-39293350D01*
X76837187Y-39207190D01*
X76837190Y-39207187D01*
X76923350Y-39092093D01*
X76923354Y-39092086D01*
X76973596Y-38957379D01*
X76973598Y-38957372D01*
X76975069Y-38943689D01*
X76979998Y-38897860D01*
X76980000Y-38897827D01*
X76980000Y-38100000D01*
X74980000Y-38100000D01*
X74980000Y-39350000D01*
X74480000Y-39350000D01*
X74480000Y-38100000D01*
X72480000Y-38100000D01*
X72480000Y-38897852D01*
X68948510Y-38897852D01*
X68904732Y-38881524D01*
X68837377Y-38856402D01*
X68837370Y-38856400D01*
X68777852Y-38850000D01*
X68777844Y-38850000D01*
X68480000Y-38850000D01*
X68480000Y-39650000D01*
X67980000Y-39650000D01*
X67980000Y-38850000D01*
X67682146Y-38850000D01*
X67622628Y-38856400D01*
X67622621Y-38856402D01*
X67487910Y-38906646D01*
X67487907Y-38906648D01*
X67372813Y-38992807D01*
X67372807Y-38992813D01*
X67286648Y-39107907D01*
X67286646Y-39107910D01*
X67236402Y-39242621D01*
X67236400Y-39242628D01*
X67230000Y-39302146D01*
X66980000Y-39302146D01*
X66980000Y-36802146D01*
X72480000Y-36802146D01*
X72480000Y-36802155D01*
X72480000Y-37600000D01*
X74480000Y-37600000D01*
X74980000Y-37600000D01*
X76980000Y-37600000D01*
X76980000Y-36802172D01*
X76979999Y-36802155D01*
X76979998Y-36802146D01*
X76979998Y-36802138D01*
X76973598Y-36742628D01*
X76973596Y-36742621D01*
X76973596Y-36742620D01*
X76923354Y-36607913D01*
X76923350Y-36607906D01*
X76837190Y-36492812D01*
X76837187Y-36492809D01*
X76837185Y-36492807D01*
X76779317Y-36449487D01*
X76722093Y-36406649D01*
X76722088Y-36406646D01*
X76722089Y-36406646D01*
X76587377Y-36356402D01*
X76587370Y-36356400D01*
X76527852Y-36350000D01*
X76527844Y-36350000D01*
X74980000Y-36350000D01*
X74980000Y-37600000D01*
X74480000Y-37600000D01*
X74480000Y-36350000D01*
X72932146Y-36350000D01*
X72872628Y-36356400D01*
X72872621Y-36356402D01*
X72737910Y-36406646D01*
X72737907Y-36406648D01*
X72622813Y-36492807D01*
X72622807Y-36492813D01*
X72536648Y-36607907D01*
X72536646Y-36607910D01*
X72486402Y-36742621D01*
X72486400Y-36742628D01*
X72480000Y-36802146D01*
X66980000Y-36802146D01*
X66980000Y-32850000D01*
X66480000Y-32850000D01*
X65907232Y-32850000D01*
X65840193Y-32830315D01*
X65830483Y-32823394D01*
X65786378Y-32788638D01*
X65786377Y-32788637D01*
X65726662Y-32752308D01*
X65699866Y-32736802D01*
X65699860Y-32736799D01*
X65699856Y-32736797D01*
X65542024Y-32673430D01*
X65542017Y-32673428D01*
X65542011Y-32673426D01*
X65538872Y-32672587D01*
X65448606Y-32654691D01*
X65416631Y-32650496D01*
X65324846Y-32644500D01*
X65324841Y-32644500D01*
X65230526Y-32644500D01*
X65229656Y-32644500D01*
X65229451Y-32644494D01*
X64384881Y-32648357D01*
X64317752Y-32628979D01*
X64271756Y-32576385D01*
X64261497Y-32507272D01*
X64290231Y-32443585D01*
X64296607Y-32436703D01*
X64384966Y-32348345D01*
X64477007Y-32199124D01*
X64477009Y-32199119D01*
X64532156Y-32032697D01*
X64532157Y-32032690D01*
X64542650Y-31929986D01*
X64542651Y-31929973D01*
X64542651Y-31580000D01*
X63751374Y-31580000D01*
X63684335Y-31560315D01*
X63638580Y-31507511D01*
X63628636Y-31438353D01*
X63631599Y-31423907D01*
X63642651Y-31382661D01*
X63642651Y-31277339D01*
X63631599Y-31236092D01*
X63633262Y-31166243D01*
X63672425Y-31108381D01*
X63736653Y-31080877D01*
X63751374Y-31080000D01*
X64542650Y-31080000D01*
X64542650Y-30730036D01*
X64542650Y-30730029D01*
X64542649Y-30730012D01*
X64532156Y-30627302D01*
X64477009Y-30460880D01*
X64477007Y-30460875D01*
X64384966Y-30311654D01*
X64260996Y-30187684D01*
X64111775Y-30095643D01*
X64111770Y-30095641D01*
X64111761Y-30095638D01*
X63945350Y-30040494D01*
X63945345Y-30040493D01*
X63842642Y-30030000D01*
X63842637Y-30030000D01*
X63492651Y-30030000D01*
X63492651Y-30821277D01*
X63472966Y-30888316D01*
X63420162Y-30934071D01*
X63351004Y-30944015D01*
X63336562Y-30941052D01*
X63295312Y-30930000D01*
X63295311Y-30930000D01*
X63189990Y-30930000D01*
X63148743Y-30941051D01*
X63078894Y-30939389D01*
X63021032Y-30900226D01*
X62993528Y-30835998D01*
X62992651Y-30821277D01*
X62992651Y-30030000D01*
X62642679Y-30030000D01*
X62642663Y-30030001D01*
X62642653Y-30030001D01*
X62642653Y-30030002D01*
X62539955Y-30040493D01*
X62539953Y-30040494D01*
X62373538Y-30095638D01*
X62373530Y-30095641D01*
X62373528Y-30095642D01*
X62373526Y-30095643D01*
X62274045Y-30157003D01*
X62224303Y-30187685D01*
X62100336Y-30311652D01*
X62084622Y-30337128D01*
X62040940Y-30407949D01*
X62008292Y-30460879D01*
X62008289Y-30460888D01*
X61953145Y-30627299D01*
X61953144Y-30627304D01*
X61942651Y-30730007D01*
X61942651Y-30730012D01*
X61942651Y-30730013D01*
X61942651Y-31080000D01*
X62733928Y-31080000D01*
X62800967Y-31099685D01*
X62846722Y-31152489D01*
X62856666Y-31221647D01*
X62853703Y-31236093D01*
X62842651Y-31277339D01*
X62842651Y-31382660D01*
X62853703Y-31423907D01*
X62852040Y-31493757D01*
X62812877Y-31551619D01*
X62748649Y-31579123D01*
X62733928Y-31580000D01*
X61942652Y-31580000D01*
X61942652Y-31929995D01*
X61953144Y-32032694D01*
X61953144Y-32032695D01*
X61953145Y-32032697D01*
X62008292Y-32199119D01*
X62008294Y-32199124D01*
X62096344Y-32341874D01*
X62100336Y-32348346D01*
X62199063Y-32447073D01*
X62232548Y-32508396D01*
X62227564Y-32578088D01*
X62185692Y-32634021D01*
X62120228Y-32658438D01*
X62111949Y-32658753D01*
X61656729Y-32660835D01*
X61644921Y-32657426D01*
X61632687Y-32658594D01*
X61611982Y-32647918D01*
X61589600Y-32641457D01*
X61579986Y-32631420D01*
X61570586Y-32626573D01*
X61548773Y-32598831D01*
X61544800Y-32591950D01*
X61537630Y-32577410D01*
X61506392Y-32501995D01*
X61501181Y-32486643D01*
X61497342Y-32472315D01*
X61497007Y-32471065D01*
X61493846Y-32455173D01*
X61481589Y-32362074D01*
X61480796Y-32354030D01*
X61480264Y-32345905D01*
X61480000Y-32337820D01*
X61480000Y-26350000D01*
X60980000Y-26350000D01*
X60242179Y-26350000D01*
X60234073Y-26349734D01*
X60225996Y-26349204D01*
X60217931Y-26348410D01*
X60208921Y-26347224D01*
X60208918Y-26347224D01*
X60124835Y-26336154D01*
X60108922Y-26332988D01*
X60093351Y-26328815D01*
X60077998Y-26323603D01*
X60002589Y-26292368D01*
X59988041Y-26285194D01*
X59974086Y-26277137D01*
X59960600Y-26268126D01*
X59895844Y-26218437D01*
X59883649Y-26207742D01*
X59872254Y-26196347D01*
X59861568Y-26184163D01*
X59848388Y-26166987D01*
X59811872Y-26119398D01*
X59802861Y-26105912D01*
X59794804Y-26091957D01*
X59787630Y-26077410D01*
X59756394Y-26002000D01*
X59751181Y-25986643D01*
X59747007Y-25971065D01*
X59743846Y-25955173D01*
X59731589Y-25862074D01*
X59730796Y-25854030D01*
X59730264Y-25845905D01*
X59730000Y-25837820D01*
X59730000Y-13512329D01*
X59735023Y-13477393D01*
X59739427Y-13462395D01*
X59777172Y-13403644D01*
X59778541Y-13402457D01*
X59833420Y-13374977D01*
X59840979Y-13373333D01*
X59867332Y-13370500D01*
X68338170Y-13370500D01*
X68373106Y-13375523D01*
G37*
%TD.AperFunction*%
%TD*%
%TA.AperFunction,Conductor*%
%TO.N,/SW1*%
G36*
X41738059Y-17851061D02*
G01*
X41843223Y-17864906D01*
X41874491Y-17873284D01*
X41964918Y-17910740D01*
X41992952Y-17926925D01*
X42070602Y-17986509D01*
X42093491Y-18009398D01*
X42153074Y-18087048D01*
X42169259Y-18115081D01*
X42206715Y-18205508D01*
X42215093Y-18236775D01*
X42228939Y-18341939D01*
X42230000Y-18358125D01*
X42230000Y-35841874D01*
X42228939Y-35858060D01*
X42215093Y-35963224D01*
X42206715Y-35994491D01*
X42169259Y-36084918D01*
X42153074Y-36112951D01*
X42093491Y-36190601D01*
X42070602Y-36213490D01*
X41992954Y-36273072D01*
X41964917Y-36289259D01*
X41951592Y-36294778D01*
X41892923Y-36303707D01*
X41846617Y-36299500D01*
X41846616Y-36299500D01*
X40733384Y-36299500D01*
X40662804Y-36305914D01*
X40583912Y-36330497D01*
X40539340Y-36344386D01*
X40502451Y-36350000D01*
X39730000Y-36350000D01*
X39730000Y-39341874D01*
X39728939Y-39358059D01*
X39728939Y-39358060D01*
X39715093Y-39463224D01*
X39706715Y-39494491D01*
X39669259Y-39584918D01*
X39653074Y-39612951D01*
X39593491Y-39690601D01*
X39570601Y-39713491D01*
X39492951Y-39773074D01*
X39464918Y-39789259D01*
X39374491Y-39826715D01*
X39343224Y-39835093D01*
X39249398Y-39847446D01*
X39238058Y-39848939D01*
X39221874Y-39850000D01*
X34738126Y-39850000D01*
X34721941Y-39848939D01*
X34708917Y-39847224D01*
X34616775Y-39835093D01*
X34585508Y-39826715D01*
X34495081Y-39789259D01*
X34467048Y-39773074D01*
X34389398Y-39713491D01*
X34366508Y-39690601D01*
X34306925Y-39612951D01*
X34290740Y-39584918D01*
X34253284Y-39494491D01*
X34244906Y-39463223D01*
X34231061Y-39358059D01*
X34230000Y-39341874D01*
X34230000Y-37100000D01*
X33730000Y-37100000D01*
X31700588Y-37100000D01*
X31200588Y-37100000D01*
X31200588Y-37841874D01*
X31199527Y-37858060D01*
X31185681Y-37963224D01*
X31177303Y-37994491D01*
X31139847Y-38084918D01*
X31123662Y-38112951D01*
X31064079Y-38190601D01*
X31041189Y-38213491D01*
X30963539Y-38273074D01*
X30935506Y-38289259D01*
X30845079Y-38326715D01*
X30813812Y-38335093D01*
X30719986Y-38347446D01*
X30708646Y-38348939D01*
X30692462Y-38350000D01*
X27960833Y-38350000D01*
X27944606Y-38348933D01*
X27839765Y-38335093D01*
X27839167Y-38335014D01*
X27807823Y-38326592D01*
X27717199Y-38288943D01*
X27689113Y-38272675D01*
X27611361Y-38212797D01*
X27588463Y-38189803D01*
X27528906Y-38111792D01*
X27512764Y-38083652D01*
X27479788Y-38003329D01*
X27470499Y-37956245D01*
X27470499Y-37203878D01*
X27467600Y-37161111D01*
X27459500Y-37128543D01*
X27455837Y-37098105D01*
X27465682Y-34750748D01*
X27466809Y-34734598D01*
X27481099Y-34629470D01*
X27489607Y-34598245D01*
X27527444Y-34507970D01*
X27543737Y-34480019D01*
X27603660Y-34402601D01*
X27626632Y-34379822D01*
X27704542Y-34320557D01*
X27732634Y-34304495D01*
X27823222Y-34267417D01*
X27854523Y-34259170D01*
X27959746Y-34245765D01*
X27975933Y-34244773D01*
X35130682Y-34274784D01*
X35130528Y-34259170D01*
X34974248Y-18363092D01*
X34975162Y-18346796D01*
X34988139Y-18240858D01*
X34996311Y-18209329D01*
X34997861Y-18205508D01*
X35033328Y-18118062D01*
X35049422Y-18089760D01*
X35108935Y-18011273D01*
X35131844Y-17988138D01*
X35209736Y-17927861D01*
X35237885Y-17911486D01*
X35328786Y-17873571D01*
X35360224Y-17865092D01*
X35434315Y-17855276D01*
X35466039Y-17851074D01*
X35482324Y-17850000D01*
X41721874Y-17850000D01*
X41738059Y-17851061D01*
G37*
%TD.AperFunction*%
%TD*%
%TA.AperFunction,Conductor*%
%TO.N,/SW2*%
G36*
X54939075Y-17817224D02*
G01*
X55044397Y-17830493D01*
X55075729Y-17838705D01*
X55096504Y-17847179D01*
X55155181Y-17871113D01*
X55166420Y-17875697D01*
X55194557Y-17891743D01*
X55217053Y-17908819D01*
X55272572Y-17950962D01*
X55295594Y-17973749D01*
X55355609Y-18051152D01*
X55371945Y-18079126D01*
X55409865Y-18169434D01*
X55418397Y-18200681D01*
X55432743Y-18305849D01*
X55433880Y-18322042D01*
X55500534Y-32894497D01*
X55502821Y-33394492D01*
X65229069Y-33350004D01*
X65229586Y-33350002D01*
X65230000Y-33350121D01*
X65230000Y-33350001D01*
X65231143Y-33350000D01*
X65324841Y-33350000D01*
X65356834Y-33354198D01*
X65360002Y-33355044D01*
X65419693Y-33391359D01*
X65447647Y-33442245D01*
X65448510Y-33445412D01*
X65449484Y-33452555D01*
X65450275Y-33454180D01*
X65450009Y-33456412D01*
X65452870Y-33477387D01*
X65477420Y-38339316D01*
X65476435Y-38355557D01*
X65463034Y-38461129D01*
X65454761Y-38492532D01*
X65417531Y-38583385D01*
X65401389Y-38611563D01*
X65341846Y-38689636D01*
X65318940Y-38712657D01*
X65241168Y-38772593D01*
X65213073Y-38788877D01*
X65122405Y-38826567D01*
X65091046Y-38834998D01*
X64999282Y-38847118D01*
X64985554Y-38848932D01*
X64969318Y-38850000D01*
X61988126Y-38850000D01*
X61971941Y-38848939D01*
X61958917Y-38847224D01*
X61866775Y-38835093D01*
X61835508Y-38826715D01*
X61745081Y-38789259D01*
X61717048Y-38773074D01*
X61639398Y-38713491D01*
X61616509Y-38690602D01*
X61556926Y-38612953D01*
X61540740Y-38584918D01*
X61529938Y-38558839D01*
X61520499Y-38511390D01*
X61520499Y-37853878D01*
X61517600Y-37811111D01*
X61483665Y-37674656D01*
X61480000Y-37644730D01*
X61480000Y-36850000D01*
X60980000Y-36850000D01*
X58230000Y-36850000D01*
X57730000Y-36850000D01*
X57730000Y-38134242D01*
X57720561Y-38181694D01*
X57712184Y-38201916D01*
X57712181Y-38201925D01*
X57679500Y-38366228D01*
X57679500Y-39308040D01*
X57659815Y-39375079D01*
X57655818Y-39380926D01*
X57588771Y-39473207D01*
X57588769Y-39473210D01*
X57510128Y-39627550D01*
X57474110Y-39738403D01*
X57473849Y-39738784D01*
X57473833Y-39739245D01*
X57454171Y-39767561D01*
X57434672Y-39796078D01*
X57434157Y-39796385D01*
X57433983Y-39796637D01*
X57403630Y-39814646D01*
X57374489Y-39826716D01*
X57343224Y-39835093D01*
X57249398Y-39847446D01*
X57238058Y-39848939D01*
X57221874Y-39850000D01*
X52488126Y-39850000D01*
X52471941Y-39848939D01*
X52458917Y-39847224D01*
X52366775Y-39835093D01*
X52335508Y-39826715D01*
X52245081Y-39789259D01*
X52217048Y-39773074D01*
X52139398Y-39713491D01*
X52116508Y-39690601D01*
X52056925Y-39612951D01*
X52040740Y-39584918D01*
X52003284Y-39494491D01*
X51994906Y-39463223D01*
X51981061Y-39358059D01*
X51980000Y-39341874D01*
X51980000Y-36350000D01*
X51480000Y-36350000D01*
X50517549Y-36350000D01*
X50480660Y-36344386D01*
X50453464Y-36335912D01*
X50357196Y-36305914D01*
X50286616Y-36299500D01*
X49294467Y-36299500D01*
X49286292Y-36297874D01*
X49281217Y-36298790D01*
X49247019Y-36290063D01*
X49245085Y-36289262D01*
X49217052Y-36273078D01*
X49139391Y-36213487D01*
X49116508Y-36190603D01*
X49056924Y-36112952D01*
X49040739Y-36084919D01*
X49003283Y-35994492D01*
X48994905Y-35963226D01*
X48981056Y-35858045D01*
X48979997Y-35841888D01*
X48979990Y-33247377D01*
X48979946Y-18355268D01*
X48980999Y-18339143D01*
X48985366Y-18305849D01*
X48994745Y-18234339D01*
X49003060Y-18203190D01*
X49040257Y-18113025D01*
X49056329Y-18085068D01*
X49115518Y-18007550D01*
X49138256Y-17984681D01*
X49215442Y-17925047D01*
X49243299Y-17908823D01*
X49333261Y-17871110D01*
X49364361Y-17862619D01*
X49459593Y-17849577D01*
X49469082Y-17848278D01*
X49485201Y-17847133D01*
X50814615Y-17839583D01*
X54922878Y-17816255D01*
X54939075Y-17817224D01*
G37*
%TD.AperFunction*%
%TD*%
M02*
