%TF.GenerationSoftware,KiCad,Pcbnew,10.0.1*%
%TF.CreationDate,2026-09-24T01:01:45-05:00*%
%TF.ProjectId,ORCA-BOARD,4f524341-2d42-44f4-9152-442e6b696361,rev?*%
%TF.SameCoordinates,Original*%
%TF.FileFunction,Paste,Top*%
%TF.FilePolarity,Positive*%
%FSLAX46Y46*%
G04 Gerber Fmt 4.6, Leading zero omitted, Abs format (unit mm)*
G04 Created by KiCad (PCBNEW 10.0.1) date 2026-09-24 01:01:45*
%MOMM*%
%LPD*%
G01*
G04 APERTURE LIST*
G04 Aperture macros list*
%AMRoundRect*
0 Rectangle with rounded corners*
0 $1 Rounding radius*
0 $2 $3 $4 $5 $6 $7 $8 $9 X,Y pos of 4 corners*
0 Add a 4 corners polygon primitive as box body*
4,1,4,$2,$3,$4,$5,$6,$7,$8,$9,$2,$3,0*
0 Add four circle primitives for the rounded corners*
1,1,$1+$1,$2,$3*
1,1,$1+$1,$4,$5*
1,1,$1+$1,$6,$7*
1,1,$1+$1,$8,$9*
0 Add four rect primitives between the rounded corners*
20,1,$1+$1,$2,$3,$4,$5,0*
20,1,$1+$1,$4,$5,$6,$7,0*
20,1,$1+$1,$6,$7,$8,$9,0*
20,1,$1+$1,$8,$9,$2,$3,0*%
G04 Aperture macros list end*
%ADD10R,2.730000X1.240000*%
%ADD11R,1.100000X1.000000*%
%ADD12R,1.000000X1.100000*%
%ADD13R,5.620000X2.940000*%
%ADD14R,0.450000X1.500000*%
%ADD15R,3.500000X2.000000*%
%ADD16RoundRect,0.150000X-0.300000X0.150000X-0.300000X-0.150000X0.300000X-0.150000X0.300000X0.150000X0*%
%ADD17RoundRect,0.150000X0.150000X0.300000X-0.150000X0.300000X-0.150000X-0.300000X0.150000X-0.300000X0*%
%ADD18RoundRect,0.150000X0.150000X0.375000X-0.150000X0.375000X-0.150000X-0.375000X0.150000X-0.375000X0*%
%ADD19RoundRect,0.225000X0.225000X0.375000X-0.225000X0.375000X-0.225000X-0.375000X0.225000X-0.375000X0*%
%ADD20RoundRect,0.225000X0.375000X-0.225000X0.375000X0.225000X-0.375000X0.225000X-0.375000X-0.225000X0*%
%ADD21RoundRect,0.150000X0.300000X-0.150000X0.300000X0.150000X-0.300000X0.150000X-0.300000X-0.150000X0*%
%ADD22RoundRect,0.150000X-0.150000X-0.300000X0.150000X-0.300000X0.150000X0.300000X-0.150000X0.300000X0*%
%ADD23RoundRect,0.150000X-0.150000X-0.375000X0.150000X-0.375000X0.150000X0.375000X-0.150000X0.375000X0*%
%ADD24R,3.500000X1.250000*%
%ADD25R,3.500000X0.500000*%
%ADD26R,1.570000X1.100000*%
%ADD27R,1.100000X1.570000*%
%ADD28R,3.150000X12.500000*%
G04 APERTURE END LIST*
D10*
%TO.C,C4*%
X20730000Y-43085000D03*
X20730000Y-40115000D03*
%TD*%
D11*
%TO.C,C12*%
X49180000Y-61350000D03*
X47480000Y-61350000D03*
%TD*%
D12*
%TO.C,R14*%
X57480000Y-55000000D03*
X57480000Y-56700000D03*
%TD*%
%TO.C,R3*%
X20230000Y-48100000D03*
X20230000Y-49800000D03*
%TD*%
D13*
%TO.C,U1*%
X45730000Y-51350000D03*
D14*
X41505000Y-54250000D03*
X42155000Y-54250000D03*
X42805000Y-54250000D03*
X43455000Y-54250000D03*
X44105000Y-54250000D03*
X44755000Y-54250000D03*
X45405000Y-54250000D03*
X46055000Y-54250000D03*
X46705000Y-54250000D03*
X47355000Y-54250000D03*
X48005000Y-54250000D03*
X48655000Y-54250000D03*
X49305000Y-54250000D03*
X49955000Y-54250000D03*
X49955000Y-48450000D03*
X49305000Y-48450000D03*
X48655000Y-48450000D03*
X48005000Y-48450000D03*
X47355000Y-48450000D03*
X46705000Y-48450000D03*
X46055000Y-48450000D03*
X45405000Y-48450000D03*
X44755000Y-48450000D03*
X44105000Y-48450000D03*
X43455000Y-48450000D03*
X42805000Y-48450000D03*
X42155000Y-48450000D03*
X41505000Y-48450000D03*
%TD*%
D11*
%TO.C,C13*%
X37030000Y-61350000D03*
X38730000Y-61350000D03*
%TD*%
D15*
%TO.C,R8*%
X74730000Y-43850000D03*
X74730000Y-37850000D03*
%TD*%
D12*
%TO.C,R10*%
X57230000Y-48450000D03*
X57230000Y-46750000D03*
%TD*%
%TO.C,C3*%
X41290000Y-37550000D03*
X41290000Y-35850000D03*
%TD*%
D16*
%TO.C,Q1*%
X29480000Y-39850000D03*
X28330000Y-39850000D03*
X27180000Y-39850000D03*
X29480000Y-40700000D03*
X28330000Y-40700000D03*
X27180000Y-40700000D03*
X29480000Y-41550000D03*
X28330000Y-41550000D03*
X27180000Y-41550000D03*
D17*
X30210000Y-43400000D03*
X28930000Y-43400000D03*
X27730000Y-43400000D03*
X26450000Y-43400000D03*
D18*
X30240000Y-37680000D03*
X28970000Y-37680000D03*
X27690000Y-37680000D03*
X26420000Y-37680000D03*
%TD*%
D12*
%TO.C,C5*%
X49730000Y-37550000D03*
X49730000Y-35850000D03*
%TD*%
%TO.C,R5*%
X15980000Y-59650000D03*
X15980000Y-61350000D03*
%TD*%
D19*
%TO.C,D2*%
X34830000Y-55100000D03*
X31530000Y-55100000D03*
%TD*%
%TO.C,D3*%
X34580000Y-47850000D03*
X31280000Y-47850000D03*
%TD*%
D11*
%TO.C,C6*%
X22880000Y-58350000D03*
X24580000Y-58350000D03*
%TD*%
D20*
%TO.C,D1*%
X24480000Y-50800000D03*
X24480000Y-47500000D03*
%TD*%
D12*
%TO.C,C1*%
X20230000Y-54850000D03*
X20230000Y-53150000D03*
%TD*%
D11*
%TO.C,C17*%
X56780000Y-50850000D03*
X55080000Y-50850000D03*
%TD*%
%TO.C,C7*%
X26630000Y-61350000D03*
X28330000Y-61350000D03*
%TD*%
%TO.C,R15*%
X58940000Y-53510000D03*
X60640000Y-53510000D03*
%TD*%
D21*
%TO.C,Q4*%
X53740000Y-39400000D03*
X54890000Y-39400000D03*
X56040000Y-39400000D03*
X53740000Y-38550000D03*
X54890000Y-38550000D03*
X56040000Y-38550000D03*
X53740000Y-37700000D03*
X54890000Y-37700000D03*
X56040000Y-37700000D03*
D22*
X53010000Y-35850000D03*
X54290000Y-35850000D03*
X55490000Y-35850000D03*
X56770000Y-35850000D03*
D23*
X52980000Y-41570000D03*
X54250000Y-41570000D03*
X55530000Y-41570000D03*
X56800000Y-41570000D03*
%TD*%
D10*
%TO.C,C15*%
X74730000Y-49820000D03*
X74730000Y-46850000D03*
%TD*%
D11*
%TO.C,R1*%
X21480000Y-61350000D03*
X19780000Y-61350000D03*
%TD*%
%TO.C,R6*%
X44080000Y-61350000D03*
X42380000Y-61350000D03*
%TD*%
D16*
%TO.C,Q3*%
X63530000Y-40500000D03*
X62380000Y-40500000D03*
X61230000Y-40500000D03*
X63530000Y-41350000D03*
X62380000Y-41350000D03*
X61230000Y-41350000D03*
X63530000Y-42200000D03*
X62380000Y-42200000D03*
X61230000Y-42200000D03*
D17*
X64260000Y-44050000D03*
X62980000Y-44050000D03*
X61780000Y-44050000D03*
X60500000Y-44050000D03*
D18*
X64290000Y-38330000D03*
X63020000Y-38330000D03*
X61740000Y-38330000D03*
X60470000Y-38330000D03*
%TD*%
D24*
%TO.C,R12*%
X45390000Y-42075000D03*
D25*
X45390000Y-40950000D03*
X45390000Y-36450000D03*
D24*
X45390000Y-35325000D03*
%TD*%
D12*
%TO.C,R9*%
X54730000Y-48450000D03*
X54730000Y-46750000D03*
%TD*%
%TO.C,R13*%
X64230000Y-55350000D03*
X64230000Y-57050000D03*
%TD*%
%TO.C,R4*%
X15980000Y-47850000D03*
X15980000Y-49550000D03*
%TD*%
D11*
%TO.C,R7*%
X63480000Y-61850000D03*
X65180000Y-61850000D03*
%TD*%
D10*
%TO.C,C14*%
X68230000Y-49820000D03*
X68230000Y-46850000D03*
%TD*%
%TO.C,C9*%
X15980000Y-40115000D03*
X15980000Y-43085000D03*
%TD*%
D26*
%TO.C,C18*%
X57480000Y-61600000D03*
X57480000Y-59980000D03*
%TD*%
D21*
%TO.C,Q2*%
X35240000Y-39400000D03*
X36390000Y-39400000D03*
X37540000Y-39400000D03*
X35240000Y-38550000D03*
X36390000Y-38550000D03*
X37540000Y-38550000D03*
X35240000Y-37700000D03*
X36390000Y-37700000D03*
X37540000Y-37700000D03*
D22*
X34510000Y-35850000D03*
X35790000Y-35850000D03*
X36990000Y-35850000D03*
X38270000Y-35850000D03*
D23*
X34480000Y-41570000D03*
X35750000Y-41570000D03*
X37030000Y-41570000D03*
X38300000Y-41570000D03*
%TD*%
D10*
%TO.C,C16*%
X61230000Y-46850000D03*
X61230000Y-49820000D03*
%TD*%
D27*
%TO.C,C11*%
X30040000Y-51350000D03*
X28420000Y-51350000D03*
%TD*%
D12*
%TO.C,R2*%
X24730000Y-54800000D03*
X24730000Y-53100000D03*
%TD*%
%TO.C,C10*%
X68230000Y-39900000D03*
X68230000Y-41600000D03*
%TD*%
%TO.C,C8*%
X15980000Y-53100000D03*
X15980000Y-54800000D03*
%TD*%
D11*
%TO.C,R11*%
X63480000Y-60100000D03*
X65180000Y-60100000D03*
%TD*%
D28*
%TO.C,L1*%
X37715000Y-24400000D03*
X53065000Y-24400000D03*
%TD*%
M02*
