%TF.GenerationSoftware,KiCad,Pcbnew,10.0.1*%
%TF.CreationDate,2026-09-24T01:01:45-05:00*%
%TF.ProjectId,ORCA-BOARD,4f524341-2d42-44f4-9152-442e6b696361,rev?*%
%TF.SameCoordinates,Original*%
%TF.FileFunction,Legend,Top*%
%TF.FilePolarity,Positive*%
%FSLAX46Y46*%
G04 Gerber Fmt 4.6, Leading zero omitted, Abs format (unit mm)*
G04 Created by KiCad (PCBNEW 10.0.1) date 2026-09-24 01:01:45*
%MOMM*%
%LPD*%
G01*
G04 APERTURE LIST*
%ADD10C,0.150000*%
%ADD11C,0.127000*%
%ADD12C,0.120000*%
%ADD13C,0.210000*%
%ADD14C,0.310000*%
G04 APERTURE END LIST*
D10*
X20596667Y-38774854D02*
X20558571Y-38812950D01*
X20558571Y-38812950D02*
X20444286Y-38851045D01*
X20444286Y-38851045D02*
X20368095Y-38851045D01*
X20368095Y-38851045D02*
X20253809Y-38812950D01*
X20253809Y-38812950D02*
X20177619Y-38736759D01*
X20177619Y-38736759D02*
X20139524Y-38660569D01*
X20139524Y-38660569D02*
X20101428Y-38508188D01*
X20101428Y-38508188D02*
X20101428Y-38393902D01*
X20101428Y-38393902D02*
X20139524Y-38241521D01*
X20139524Y-38241521D02*
X20177619Y-38165330D01*
X20177619Y-38165330D02*
X20253809Y-38089140D01*
X20253809Y-38089140D02*
X20368095Y-38051045D01*
X20368095Y-38051045D02*
X20444286Y-38051045D01*
X20444286Y-38051045D02*
X20558571Y-38089140D01*
X20558571Y-38089140D02*
X20596667Y-38127235D01*
X21282381Y-38317711D02*
X21282381Y-38851045D01*
X21091905Y-38012950D02*
X20901428Y-38584378D01*
X20901428Y-38584378D02*
X21396667Y-38584378D01*
X47815714Y-60404854D02*
X47777618Y-60442950D01*
X47777618Y-60442950D02*
X47663333Y-60481045D01*
X47663333Y-60481045D02*
X47587142Y-60481045D01*
X47587142Y-60481045D02*
X47472856Y-60442950D01*
X47472856Y-60442950D02*
X47396666Y-60366759D01*
X47396666Y-60366759D02*
X47358571Y-60290569D01*
X47358571Y-60290569D02*
X47320475Y-60138188D01*
X47320475Y-60138188D02*
X47320475Y-60023902D01*
X47320475Y-60023902D02*
X47358571Y-59871521D01*
X47358571Y-59871521D02*
X47396666Y-59795330D01*
X47396666Y-59795330D02*
X47472856Y-59719140D01*
X47472856Y-59719140D02*
X47587142Y-59681045D01*
X47587142Y-59681045D02*
X47663333Y-59681045D01*
X47663333Y-59681045D02*
X47777618Y-59719140D01*
X47777618Y-59719140D02*
X47815714Y-59757235D01*
X48577618Y-60481045D02*
X48120475Y-60481045D01*
X48349047Y-60481045D02*
X48349047Y-59681045D01*
X48349047Y-59681045D02*
X48272856Y-59795330D01*
X48272856Y-59795330D02*
X48196666Y-59871521D01*
X48196666Y-59871521D02*
X48120475Y-59909616D01*
X48882380Y-59757235D02*
X48920476Y-59719140D01*
X48920476Y-59719140D02*
X48996666Y-59681045D01*
X48996666Y-59681045D02*
X49187142Y-59681045D01*
X49187142Y-59681045D02*
X49263333Y-59719140D01*
X49263333Y-59719140D02*
X49301428Y-59757235D01*
X49301428Y-59757235D02*
X49339523Y-59833426D01*
X49339523Y-59833426D02*
X49339523Y-59909616D01*
X49339523Y-59909616D02*
X49301428Y-60023902D01*
X49301428Y-60023902D02*
X48844285Y-60481045D01*
X48844285Y-60481045D02*
X49339523Y-60481045D01*
X56965714Y-54081045D02*
X56699047Y-53700092D01*
X56508571Y-54081045D02*
X56508571Y-53281045D01*
X56508571Y-53281045D02*
X56813333Y-53281045D01*
X56813333Y-53281045D02*
X56889523Y-53319140D01*
X56889523Y-53319140D02*
X56927618Y-53357235D01*
X56927618Y-53357235D02*
X56965714Y-53433426D01*
X56965714Y-53433426D02*
X56965714Y-53547711D01*
X56965714Y-53547711D02*
X56927618Y-53623902D01*
X56927618Y-53623902D02*
X56889523Y-53661997D01*
X56889523Y-53661997D02*
X56813333Y-53700092D01*
X56813333Y-53700092D02*
X56508571Y-53700092D01*
X57727618Y-54081045D02*
X57270475Y-54081045D01*
X57499047Y-54081045D02*
X57499047Y-53281045D01*
X57499047Y-53281045D02*
X57422856Y-53395330D01*
X57422856Y-53395330D02*
X57346666Y-53471521D01*
X57346666Y-53471521D02*
X57270475Y-53509616D01*
X58413333Y-53547711D02*
X58413333Y-54081045D01*
X58222857Y-53242950D02*
X58032380Y-53814378D01*
X58032380Y-53814378D02*
X58527619Y-53814378D01*
X20096667Y-47181045D02*
X19830000Y-46800092D01*
X19639524Y-47181045D02*
X19639524Y-46381045D01*
X19639524Y-46381045D02*
X19944286Y-46381045D01*
X19944286Y-46381045D02*
X20020476Y-46419140D01*
X20020476Y-46419140D02*
X20058571Y-46457235D01*
X20058571Y-46457235D02*
X20096667Y-46533426D01*
X20096667Y-46533426D02*
X20096667Y-46647711D01*
X20096667Y-46647711D02*
X20058571Y-46723902D01*
X20058571Y-46723902D02*
X20020476Y-46761997D01*
X20020476Y-46761997D02*
X19944286Y-46800092D01*
X19944286Y-46800092D02*
X19639524Y-46800092D01*
X20363333Y-46381045D02*
X20858571Y-46381045D01*
X20858571Y-46381045D02*
X20591905Y-46685807D01*
X20591905Y-46685807D02*
X20706190Y-46685807D01*
X20706190Y-46685807D02*
X20782381Y-46723902D01*
X20782381Y-46723902D02*
X20820476Y-46761997D01*
X20820476Y-46761997D02*
X20858571Y-46838188D01*
X20858571Y-46838188D02*
X20858571Y-47028664D01*
X20858571Y-47028664D02*
X20820476Y-47104854D01*
X20820476Y-47104854D02*
X20782381Y-47142950D01*
X20782381Y-47142950D02*
X20706190Y-47181045D01*
X20706190Y-47181045D02*
X20477619Y-47181045D01*
X20477619Y-47181045D02*
X20401428Y-47142950D01*
X20401428Y-47142950D02*
X20363333Y-47104854D01*
X45292295Y-56829523D02*
X45939914Y-56829523D01*
X45939914Y-56829523D02*
X46016104Y-56791428D01*
X46016104Y-56791428D02*
X46054200Y-56753333D01*
X46054200Y-56753333D02*
X46092295Y-56677142D01*
X46092295Y-56677142D02*
X46092295Y-56524761D01*
X46092295Y-56524761D02*
X46054200Y-56448571D01*
X46054200Y-56448571D02*
X46016104Y-56410476D01*
X46016104Y-56410476D02*
X45939914Y-56372380D01*
X45939914Y-56372380D02*
X45292295Y-56372380D01*
X46092295Y-55572381D02*
X46092295Y-56029524D01*
X46092295Y-55800952D02*
X45292295Y-55800952D01*
X45292295Y-55800952D02*
X45406580Y-55877143D01*
X45406580Y-55877143D02*
X45482771Y-55953333D01*
X45482771Y-55953333D02*
X45520866Y-56029524D01*
X22396667Y-35942354D02*
X22358571Y-35980450D01*
X22358571Y-35980450D02*
X22244286Y-36018545D01*
X22244286Y-36018545D02*
X22168095Y-36018545D01*
X22168095Y-36018545D02*
X22053809Y-35980450D01*
X22053809Y-35980450D02*
X21977619Y-35904259D01*
X21977619Y-35904259D02*
X21939524Y-35828069D01*
X21939524Y-35828069D02*
X21901428Y-35675688D01*
X21901428Y-35675688D02*
X21901428Y-35561402D01*
X21901428Y-35561402D02*
X21939524Y-35409021D01*
X21939524Y-35409021D02*
X21977619Y-35332830D01*
X21977619Y-35332830D02*
X22053809Y-35256640D01*
X22053809Y-35256640D02*
X22168095Y-35218545D01*
X22168095Y-35218545D02*
X22244286Y-35218545D01*
X22244286Y-35218545D02*
X22358571Y-35256640D01*
X22358571Y-35256640D02*
X22396667Y-35294735D01*
X22701428Y-35294735D02*
X22739524Y-35256640D01*
X22739524Y-35256640D02*
X22815714Y-35218545D01*
X22815714Y-35218545D02*
X23006190Y-35218545D01*
X23006190Y-35218545D02*
X23082381Y-35256640D01*
X23082381Y-35256640D02*
X23120476Y-35294735D01*
X23120476Y-35294735D02*
X23158571Y-35370926D01*
X23158571Y-35370926D02*
X23158571Y-35447116D01*
X23158571Y-35447116D02*
X23120476Y-35561402D01*
X23120476Y-35561402D02*
X22663333Y-36018545D01*
X22663333Y-36018545D02*
X23158571Y-36018545D01*
X37365714Y-60404854D02*
X37327618Y-60442950D01*
X37327618Y-60442950D02*
X37213333Y-60481045D01*
X37213333Y-60481045D02*
X37137142Y-60481045D01*
X37137142Y-60481045D02*
X37022856Y-60442950D01*
X37022856Y-60442950D02*
X36946666Y-60366759D01*
X36946666Y-60366759D02*
X36908571Y-60290569D01*
X36908571Y-60290569D02*
X36870475Y-60138188D01*
X36870475Y-60138188D02*
X36870475Y-60023902D01*
X36870475Y-60023902D02*
X36908571Y-59871521D01*
X36908571Y-59871521D02*
X36946666Y-59795330D01*
X36946666Y-59795330D02*
X37022856Y-59719140D01*
X37022856Y-59719140D02*
X37137142Y-59681045D01*
X37137142Y-59681045D02*
X37213333Y-59681045D01*
X37213333Y-59681045D02*
X37327618Y-59719140D01*
X37327618Y-59719140D02*
X37365714Y-59757235D01*
X38127618Y-60481045D02*
X37670475Y-60481045D01*
X37899047Y-60481045D02*
X37899047Y-59681045D01*
X37899047Y-59681045D02*
X37822856Y-59795330D01*
X37822856Y-59795330D02*
X37746666Y-59871521D01*
X37746666Y-59871521D02*
X37670475Y-59909616D01*
X38394285Y-59681045D02*
X38889523Y-59681045D01*
X38889523Y-59681045D02*
X38622857Y-59985807D01*
X38622857Y-59985807D02*
X38737142Y-59985807D01*
X38737142Y-59985807D02*
X38813333Y-60023902D01*
X38813333Y-60023902D02*
X38851428Y-60061997D01*
X38851428Y-60061997D02*
X38889523Y-60138188D01*
X38889523Y-60138188D02*
X38889523Y-60328664D01*
X38889523Y-60328664D02*
X38851428Y-60404854D01*
X38851428Y-60404854D02*
X38813333Y-60442950D01*
X38813333Y-60442950D02*
X38737142Y-60481045D01*
X38737142Y-60481045D02*
X38508571Y-60481045D01*
X38508571Y-60481045D02*
X38432380Y-60442950D01*
X38432380Y-60442950D02*
X38394285Y-60404854D01*
X74586667Y-36492295D02*
X74320000Y-36111342D01*
X74129524Y-36492295D02*
X74129524Y-35692295D01*
X74129524Y-35692295D02*
X74434286Y-35692295D01*
X74434286Y-35692295D02*
X74510476Y-35730390D01*
X74510476Y-35730390D02*
X74548571Y-35768485D01*
X74548571Y-35768485D02*
X74586667Y-35844676D01*
X74586667Y-35844676D02*
X74586667Y-35958961D01*
X74586667Y-35958961D02*
X74548571Y-36035152D01*
X74548571Y-36035152D02*
X74510476Y-36073247D01*
X74510476Y-36073247D02*
X74434286Y-36111342D01*
X74434286Y-36111342D02*
X74129524Y-36111342D01*
X75043809Y-36035152D02*
X74967619Y-35997057D01*
X74967619Y-35997057D02*
X74929524Y-35958961D01*
X74929524Y-35958961D02*
X74891428Y-35882771D01*
X74891428Y-35882771D02*
X74891428Y-35844676D01*
X74891428Y-35844676D02*
X74929524Y-35768485D01*
X74929524Y-35768485D02*
X74967619Y-35730390D01*
X74967619Y-35730390D02*
X75043809Y-35692295D01*
X75043809Y-35692295D02*
X75196190Y-35692295D01*
X75196190Y-35692295D02*
X75272381Y-35730390D01*
X75272381Y-35730390D02*
X75310476Y-35768485D01*
X75310476Y-35768485D02*
X75348571Y-35844676D01*
X75348571Y-35844676D02*
X75348571Y-35882771D01*
X75348571Y-35882771D02*
X75310476Y-35958961D01*
X75310476Y-35958961D02*
X75272381Y-35997057D01*
X75272381Y-35997057D02*
X75196190Y-36035152D01*
X75196190Y-36035152D02*
X75043809Y-36035152D01*
X75043809Y-36035152D02*
X74967619Y-36073247D01*
X74967619Y-36073247D02*
X74929524Y-36111342D01*
X74929524Y-36111342D02*
X74891428Y-36187533D01*
X74891428Y-36187533D02*
X74891428Y-36339914D01*
X74891428Y-36339914D02*
X74929524Y-36416104D01*
X74929524Y-36416104D02*
X74967619Y-36454200D01*
X74967619Y-36454200D02*
X75043809Y-36492295D01*
X75043809Y-36492295D02*
X75196190Y-36492295D01*
X75196190Y-36492295D02*
X75272381Y-36454200D01*
X75272381Y-36454200D02*
X75310476Y-36416104D01*
X75310476Y-36416104D02*
X75348571Y-36339914D01*
X75348571Y-36339914D02*
X75348571Y-36187533D01*
X75348571Y-36187533D02*
X75310476Y-36111342D01*
X75310476Y-36111342D02*
X75272381Y-36073247D01*
X75272381Y-36073247D02*
X75196190Y-36035152D01*
X22363333Y-15656045D02*
X22363333Y-16227473D01*
X22363333Y-16227473D02*
X22325238Y-16341759D01*
X22325238Y-16341759D02*
X22249047Y-16417950D01*
X22249047Y-16417950D02*
X22134762Y-16456045D01*
X22134762Y-16456045D02*
X22058571Y-16456045D01*
X23163333Y-16456045D02*
X22706190Y-16456045D01*
X22934762Y-16456045D02*
X22934762Y-15656045D01*
X22934762Y-15656045D02*
X22858571Y-15770330D01*
X22858571Y-15770330D02*
X22782381Y-15846521D01*
X22782381Y-15846521D02*
X22706190Y-15884616D01*
X57592295Y-45407380D02*
X57211342Y-45674047D01*
X57592295Y-45864523D02*
X56792295Y-45864523D01*
X56792295Y-45864523D02*
X56792295Y-45559761D01*
X56792295Y-45559761D02*
X56830390Y-45483571D01*
X56830390Y-45483571D02*
X56868485Y-45445476D01*
X56868485Y-45445476D02*
X56944676Y-45407380D01*
X56944676Y-45407380D02*
X57058961Y-45407380D01*
X57058961Y-45407380D02*
X57135152Y-45445476D01*
X57135152Y-45445476D02*
X57173247Y-45483571D01*
X57173247Y-45483571D02*
X57211342Y-45559761D01*
X57211342Y-45559761D02*
X57211342Y-45864523D01*
X57592295Y-44645476D02*
X57592295Y-45102619D01*
X57592295Y-44874047D02*
X56792295Y-44874047D01*
X56792295Y-44874047D02*
X56906580Y-44950238D01*
X56906580Y-44950238D02*
X56982771Y-45026428D01*
X56982771Y-45026428D02*
X57020866Y-45102619D01*
X56792295Y-44150237D02*
X56792295Y-44074047D01*
X56792295Y-44074047D02*
X56830390Y-43997856D01*
X56830390Y-43997856D02*
X56868485Y-43959761D01*
X56868485Y-43959761D02*
X56944676Y-43921666D01*
X56944676Y-43921666D02*
X57097057Y-43883571D01*
X57097057Y-43883571D02*
X57287533Y-43883571D01*
X57287533Y-43883571D02*
X57439914Y-43921666D01*
X57439914Y-43921666D02*
X57516104Y-43959761D01*
X57516104Y-43959761D02*
X57554200Y-43997856D01*
X57554200Y-43997856D02*
X57592295Y-44074047D01*
X57592295Y-44074047D02*
X57592295Y-44150237D01*
X57592295Y-44150237D02*
X57554200Y-44226428D01*
X57554200Y-44226428D02*
X57516104Y-44264523D01*
X57516104Y-44264523D02*
X57439914Y-44302618D01*
X57439914Y-44302618D02*
X57287533Y-44340714D01*
X57287533Y-44340714D02*
X57097057Y-44340714D01*
X57097057Y-44340714D02*
X56944676Y-44302618D01*
X56944676Y-44302618D02*
X56868485Y-44264523D01*
X56868485Y-44264523D02*
X56830390Y-44226428D01*
X56830390Y-44226428D02*
X56792295Y-44150237D01*
X41156667Y-34854854D02*
X41118571Y-34892950D01*
X41118571Y-34892950D02*
X41004286Y-34931045D01*
X41004286Y-34931045D02*
X40928095Y-34931045D01*
X40928095Y-34931045D02*
X40813809Y-34892950D01*
X40813809Y-34892950D02*
X40737619Y-34816759D01*
X40737619Y-34816759D02*
X40699524Y-34740569D01*
X40699524Y-34740569D02*
X40661428Y-34588188D01*
X40661428Y-34588188D02*
X40661428Y-34473902D01*
X40661428Y-34473902D02*
X40699524Y-34321521D01*
X40699524Y-34321521D02*
X40737619Y-34245330D01*
X40737619Y-34245330D02*
X40813809Y-34169140D01*
X40813809Y-34169140D02*
X40928095Y-34131045D01*
X40928095Y-34131045D02*
X41004286Y-34131045D01*
X41004286Y-34131045D02*
X41118571Y-34169140D01*
X41118571Y-34169140D02*
X41156667Y-34207235D01*
X41423333Y-34131045D02*
X41918571Y-34131045D01*
X41918571Y-34131045D02*
X41651905Y-34435807D01*
X41651905Y-34435807D02*
X41766190Y-34435807D01*
X41766190Y-34435807D02*
X41842381Y-34473902D01*
X41842381Y-34473902D02*
X41880476Y-34511997D01*
X41880476Y-34511997D02*
X41918571Y-34588188D01*
X41918571Y-34588188D02*
X41918571Y-34778664D01*
X41918571Y-34778664D02*
X41880476Y-34854854D01*
X41880476Y-34854854D02*
X41842381Y-34892950D01*
X41842381Y-34892950D02*
X41766190Y-34931045D01*
X41766190Y-34931045D02*
X41537619Y-34931045D01*
X41537619Y-34931045D02*
X41461428Y-34892950D01*
X41461428Y-34892950D02*
X41423333Y-34854854D01*
X28322957Y-36527235D02*
X28246767Y-36489140D01*
X28246767Y-36489140D02*
X28170576Y-36412950D01*
X28170576Y-36412950D02*
X28056290Y-36298664D01*
X28056290Y-36298664D02*
X27980100Y-36260569D01*
X27980100Y-36260569D02*
X27903909Y-36260569D01*
X27942005Y-36451045D02*
X27865814Y-36412950D01*
X27865814Y-36412950D02*
X27789624Y-36336759D01*
X27789624Y-36336759D02*
X27751528Y-36184378D01*
X27751528Y-36184378D02*
X27751528Y-35917711D01*
X27751528Y-35917711D02*
X27789624Y-35765330D01*
X27789624Y-35765330D02*
X27865814Y-35689140D01*
X27865814Y-35689140D02*
X27942005Y-35651045D01*
X27942005Y-35651045D02*
X28094386Y-35651045D01*
X28094386Y-35651045D02*
X28170576Y-35689140D01*
X28170576Y-35689140D02*
X28246767Y-35765330D01*
X28246767Y-35765330D02*
X28284862Y-35917711D01*
X28284862Y-35917711D02*
X28284862Y-36184378D01*
X28284862Y-36184378D02*
X28246767Y-36336759D01*
X28246767Y-36336759D02*
X28170576Y-36412950D01*
X28170576Y-36412950D02*
X28094386Y-36451045D01*
X28094386Y-36451045D02*
X27942005Y-36451045D01*
X29046766Y-36451045D02*
X28589623Y-36451045D01*
X28818195Y-36451045D02*
X28818195Y-35651045D01*
X28818195Y-35651045D02*
X28742004Y-35765330D01*
X28742004Y-35765330D02*
X28665814Y-35841521D01*
X28665814Y-35841521D02*
X28589623Y-35879616D01*
X60965714Y-26636104D02*
X60927618Y-26674200D01*
X60927618Y-26674200D02*
X60813333Y-26712295D01*
X60813333Y-26712295D02*
X60737142Y-26712295D01*
X60737142Y-26712295D02*
X60622856Y-26674200D01*
X60622856Y-26674200D02*
X60546666Y-26598009D01*
X60546666Y-26598009D02*
X60508571Y-26521819D01*
X60508571Y-26521819D02*
X60470475Y-26369438D01*
X60470475Y-26369438D02*
X60470475Y-26255152D01*
X60470475Y-26255152D02*
X60508571Y-26102771D01*
X60508571Y-26102771D02*
X60546666Y-26026580D01*
X60546666Y-26026580D02*
X60622856Y-25950390D01*
X60622856Y-25950390D02*
X60737142Y-25912295D01*
X60737142Y-25912295D02*
X60813333Y-25912295D01*
X60813333Y-25912295D02*
X60927618Y-25950390D01*
X60927618Y-25950390D02*
X60965714Y-25988485D01*
X61727618Y-26712295D02*
X61270475Y-26712295D01*
X61499047Y-26712295D02*
X61499047Y-25912295D01*
X61499047Y-25912295D02*
X61422856Y-26026580D01*
X61422856Y-26026580D02*
X61346666Y-26102771D01*
X61346666Y-26102771D02*
X61270475Y-26140866D01*
X62108571Y-26712295D02*
X62260952Y-26712295D01*
X62260952Y-26712295D02*
X62337142Y-26674200D01*
X62337142Y-26674200D02*
X62375238Y-26636104D01*
X62375238Y-26636104D02*
X62451428Y-26521819D01*
X62451428Y-26521819D02*
X62489523Y-26369438D01*
X62489523Y-26369438D02*
X62489523Y-26064676D01*
X62489523Y-26064676D02*
X62451428Y-25988485D01*
X62451428Y-25988485D02*
X62413333Y-25950390D01*
X62413333Y-25950390D02*
X62337142Y-25912295D01*
X62337142Y-25912295D02*
X62184761Y-25912295D01*
X62184761Y-25912295D02*
X62108571Y-25950390D01*
X62108571Y-25950390D02*
X62070476Y-25988485D01*
X62070476Y-25988485D02*
X62032380Y-26064676D01*
X62032380Y-26064676D02*
X62032380Y-26255152D01*
X62032380Y-26255152D02*
X62070476Y-26331342D01*
X62070476Y-26331342D02*
X62108571Y-26369438D01*
X62108571Y-26369438D02*
X62184761Y-26407533D01*
X62184761Y-26407533D02*
X62337142Y-26407533D01*
X62337142Y-26407533D02*
X62413333Y-26369438D01*
X62413333Y-26369438D02*
X62451428Y-26331342D01*
X62451428Y-26331342D02*
X62489523Y-26255152D01*
X49596667Y-34660151D02*
X49558571Y-34698247D01*
X49558571Y-34698247D02*
X49444286Y-34736342D01*
X49444286Y-34736342D02*
X49368095Y-34736342D01*
X49368095Y-34736342D02*
X49253809Y-34698247D01*
X49253809Y-34698247D02*
X49177619Y-34622056D01*
X49177619Y-34622056D02*
X49139524Y-34545866D01*
X49139524Y-34545866D02*
X49101428Y-34393485D01*
X49101428Y-34393485D02*
X49101428Y-34279199D01*
X49101428Y-34279199D02*
X49139524Y-34126818D01*
X49139524Y-34126818D02*
X49177619Y-34050627D01*
X49177619Y-34050627D02*
X49253809Y-33974437D01*
X49253809Y-33974437D02*
X49368095Y-33936342D01*
X49368095Y-33936342D02*
X49444286Y-33936342D01*
X49444286Y-33936342D02*
X49558571Y-33974437D01*
X49558571Y-33974437D02*
X49596667Y-34012532D01*
X50320476Y-33936342D02*
X49939524Y-33936342D01*
X49939524Y-33936342D02*
X49901428Y-34317294D01*
X49901428Y-34317294D02*
X49939524Y-34279199D01*
X49939524Y-34279199D02*
X50015714Y-34241104D01*
X50015714Y-34241104D02*
X50206190Y-34241104D01*
X50206190Y-34241104D02*
X50282381Y-34279199D01*
X50282381Y-34279199D02*
X50320476Y-34317294D01*
X50320476Y-34317294D02*
X50358571Y-34393485D01*
X50358571Y-34393485D02*
X50358571Y-34583961D01*
X50358571Y-34583961D02*
X50320476Y-34660151D01*
X50320476Y-34660151D02*
X50282381Y-34698247D01*
X50282381Y-34698247D02*
X50206190Y-34736342D01*
X50206190Y-34736342D02*
X50015714Y-34736342D01*
X50015714Y-34736342D02*
X49939524Y-34698247D01*
X49939524Y-34698247D02*
X49901428Y-34660151D01*
X15846667Y-58731045D02*
X15580000Y-58350092D01*
X15389524Y-58731045D02*
X15389524Y-57931045D01*
X15389524Y-57931045D02*
X15694286Y-57931045D01*
X15694286Y-57931045D02*
X15770476Y-57969140D01*
X15770476Y-57969140D02*
X15808571Y-58007235D01*
X15808571Y-58007235D02*
X15846667Y-58083426D01*
X15846667Y-58083426D02*
X15846667Y-58197711D01*
X15846667Y-58197711D02*
X15808571Y-58273902D01*
X15808571Y-58273902D02*
X15770476Y-58311997D01*
X15770476Y-58311997D02*
X15694286Y-58350092D01*
X15694286Y-58350092D02*
X15389524Y-58350092D01*
X16570476Y-57931045D02*
X16189524Y-57931045D01*
X16189524Y-57931045D02*
X16151428Y-58311997D01*
X16151428Y-58311997D02*
X16189524Y-58273902D01*
X16189524Y-58273902D02*
X16265714Y-58235807D01*
X16265714Y-58235807D02*
X16456190Y-58235807D01*
X16456190Y-58235807D02*
X16532381Y-58273902D01*
X16532381Y-58273902D02*
X16570476Y-58311997D01*
X16570476Y-58311997D02*
X16608571Y-58388188D01*
X16608571Y-58388188D02*
X16608571Y-58578664D01*
X16608571Y-58578664D02*
X16570476Y-58654854D01*
X16570476Y-58654854D02*
X16532381Y-58692950D01*
X16532381Y-58692950D02*
X16456190Y-58731045D01*
X16456190Y-58731045D02*
X16265714Y-58731045D01*
X16265714Y-58731045D02*
X16189524Y-58692950D01*
X16189524Y-58692950D02*
X16151428Y-58654854D01*
X73965714Y-26386104D02*
X73927618Y-26424200D01*
X73927618Y-26424200D02*
X73813333Y-26462295D01*
X73813333Y-26462295D02*
X73737142Y-26462295D01*
X73737142Y-26462295D02*
X73622856Y-26424200D01*
X73622856Y-26424200D02*
X73546666Y-26348009D01*
X73546666Y-26348009D02*
X73508571Y-26271819D01*
X73508571Y-26271819D02*
X73470475Y-26119438D01*
X73470475Y-26119438D02*
X73470475Y-26005152D01*
X73470475Y-26005152D02*
X73508571Y-25852771D01*
X73508571Y-25852771D02*
X73546666Y-25776580D01*
X73546666Y-25776580D02*
X73622856Y-25700390D01*
X73622856Y-25700390D02*
X73737142Y-25662295D01*
X73737142Y-25662295D02*
X73813333Y-25662295D01*
X73813333Y-25662295D02*
X73927618Y-25700390D01*
X73927618Y-25700390D02*
X73965714Y-25738485D01*
X74270475Y-25738485D02*
X74308571Y-25700390D01*
X74308571Y-25700390D02*
X74384761Y-25662295D01*
X74384761Y-25662295D02*
X74575237Y-25662295D01*
X74575237Y-25662295D02*
X74651428Y-25700390D01*
X74651428Y-25700390D02*
X74689523Y-25738485D01*
X74689523Y-25738485D02*
X74727618Y-25814676D01*
X74727618Y-25814676D02*
X74727618Y-25890866D01*
X74727618Y-25890866D02*
X74689523Y-26005152D01*
X74689523Y-26005152D02*
X74232380Y-26462295D01*
X74232380Y-26462295D02*
X74727618Y-26462295D01*
X75222857Y-25662295D02*
X75299047Y-25662295D01*
X75299047Y-25662295D02*
X75375238Y-25700390D01*
X75375238Y-25700390D02*
X75413333Y-25738485D01*
X75413333Y-25738485D02*
X75451428Y-25814676D01*
X75451428Y-25814676D02*
X75489523Y-25967057D01*
X75489523Y-25967057D02*
X75489523Y-26157533D01*
X75489523Y-26157533D02*
X75451428Y-26309914D01*
X75451428Y-26309914D02*
X75413333Y-26386104D01*
X75413333Y-26386104D02*
X75375238Y-26424200D01*
X75375238Y-26424200D02*
X75299047Y-26462295D01*
X75299047Y-26462295D02*
X75222857Y-26462295D01*
X75222857Y-26462295D02*
X75146666Y-26424200D01*
X75146666Y-26424200D02*
X75108571Y-26386104D01*
X75108571Y-26386104D02*
X75070476Y-26309914D01*
X75070476Y-26309914D02*
X75032380Y-26157533D01*
X75032380Y-26157533D02*
X75032380Y-25967057D01*
X75032380Y-25967057D02*
X75070476Y-25814676D01*
X75070476Y-25814676D02*
X75108571Y-25738485D01*
X75108571Y-25738485D02*
X75146666Y-25700390D01*
X75146666Y-25700390D02*
X75222857Y-25662295D01*
X32441905Y-57554819D02*
X32441905Y-56554819D01*
X32441905Y-56554819D02*
X32680000Y-56554819D01*
X32680000Y-56554819D02*
X32822857Y-56602438D01*
X32822857Y-56602438D02*
X32918095Y-56697676D01*
X32918095Y-56697676D02*
X32965714Y-56792914D01*
X32965714Y-56792914D02*
X33013333Y-56983390D01*
X33013333Y-56983390D02*
X33013333Y-57126247D01*
X33013333Y-57126247D02*
X32965714Y-57316723D01*
X32965714Y-57316723D02*
X32918095Y-57411961D01*
X32918095Y-57411961D02*
X32822857Y-57507200D01*
X32822857Y-57507200D02*
X32680000Y-57554819D01*
X32680000Y-57554819D02*
X32441905Y-57554819D01*
X33394286Y-56650057D02*
X33441905Y-56602438D01*
X33441905Y-56602438D02*
X33537143Y-56554819D01*
X33537143Y-56554819D02*
X33775238Y-56554819D01*
X33775238Y-56554819D02*
X33870476Y-56602438D01*
X33870476Y-56602438D02*
X33918095Y-56650057D01*
X33918095Y-56650057D02*
X33965714Y-56745295D01*
X33965714Y-56745295D02*
X33965714Y-56840533D01*
X33965714Y-56840533D02*
X33918095Y-56983390D01*
X33918095Y-56983390D02*
X33346667Y-57554819D01*
X33346667Y-57554819D02*
X33965714Y-57554819D01*
X32191905Y-50304819D02*
X32191905Y-49304819D01*
X32191905Y-49304819D02*
X32430000Y-49304819D01*
X32430000Y-49304819D02*
X32572857Y-49352438D01*
X32572857Y-49352438D02*
X32668095Y-49447676D01*
X32668095Y-49447676D02*
X32715714Y-49542914D01*
X32715714Y-49542914D02*
X32763333Y-49733390D01*
X32763333Y-49733390D02*
X32763333Y-49876247D01*
X32763333Y-49876247D02*
X32715714Y-50066723D01*
X32715714Y-50066723D02*
X32668095Y-50161961D01*
X32668095Y-50161961D02*
X32572857Y-50257200D01*
X32572857Y-50257200D02*
X32430000Y-50304819D01*
X32430000Y-50304819D02*
X32191905Y-50304819D01*
X33096667Y-49304819D02*
X33715714Y-49304819D01*
X33715714Y-49304819D02*
X33382381Y-49685771D01*
X33382381Y-49685771D02*
X33525238Y-49685771D01*
X33525238Y-49685771D02*
X33620476Y-49733390D01*
X33620476Y-49733390D02*
X33668095Y-49781009D01*
X33668095Y-49781009D02*
X33715714Y-49876247D01*
X33715714Y-49876247D02*
X33715714Y-50114342D01*
X33715714Y-50114342D02*
X33668095Y-50209580D01*
X33668095Y-50209580D02*
X33620476Y-50257200D01*
X33620476Y-50257200D02*
X33525238Y-50304819D01*
X33525238Y-50304819D02*
X33239524Y-50304819D01*
X33239524Y-50304819D02*
X33144286Y-50257200D01*
X33144286Y-50257200D02*
X33096667Y-50209580D01*
X22934819Y-49888094D02*
X21934819Y-49888094D01*
X21934819Y-49888094D02*
X21934819Y-49649999D01*
X21934819Y-49649999D02*
X21982438Y-49507142D01*
X21982438Y-49507142D02*
X22077676Y-49411904D01*
X22077676Y-49411904D02*
X22172914Y-49364285D01*
X22172914Y-49364285D02*
X22363390Y-49316666D01*
X22363390Y-49316666D02*
X22506247Y-49316666D01*
X22506247Y-49316666D02*
X22696723Y-49364285D01*
X22696723Y-49364285D02*
X22791961Y-49411904D01*
X22791961Y-49411904D02*
X22887200Y-49507142D01*
X22887200Y-49507142D02*
X22934819Y-49649999D01*
X22934819Y-49649999D02*
X22934819Y-49888094D01*
X22934819Y-48364285D02*
X22934819Y-48935713D01*
X22934819Y-48649999D02*
X21934819Y-48649999D01*
X21934819Y-48649999D02*
X22077676Y-48745237D01*
X22077676Y-48745237D02*
X22172914Y-48840475D01*
X22172914Y-48840475D02*
X22220533Y-48935713D01*
X20096667Y-52154854D02*
X20058571Y-52192950D01*
X20058571Y-52192950D02*
X19944286Y-52231045D01*
X19944286Y-52231045D02*
X19868095Y-52231045D01*
X19868095Y-52231045D02*
X19753809Y-52192950D01*
X19753809Y-52192950D02*
X19677619Y-52116759D01*
X19677619Y-52116759D02*
X19639524Y-52040569D01*
X19639524Y-52040569D02*
X19601428Y-51888188D01*
X19601428Y-51888188D02*
X19601428Y-51773902D01*
X19601428Y-51773902D02*
X19639524Y-51621521D01*
X19639524Y-51621521D02*
X19677619Y-51545330D01*
X19677619Y-51545330D02*
X19753809Y-51469140D01*
X19753809Y-51469140D02*
X19868095Y-51431045D01*
X19868095Y-51431045D02*
X19944286Y-51431045D01*
X19944286Y-51431045D02*
X20058571Y-51469140D01*
X20058571Y-51469140D02*
X20096667Y-51507235D01*
X20858571Y-52231045D02*
X20401428Y-52231045D01*
X20630000Y-52231045D02*
X20630000Y-51431045D01*
X20630000Y-51431045D02*
X20553809Y-51545330D01*
X20553809Y-51545330D02*
X20477619Y-51621521D01*
X20477619Y-51621521D02*
X20401428Y-51659616D01*
X55415714Y-49904854D02*
X55377618Y-49942950D01*
X55377618Y-49942950D02*
X55263333Y-49981045D01*
X55263333Y-49981045D02*
X55187142Y-49981045D01*
X55187142Y-49981045D02*
X55072856Y-49942950D01*
X55072856Y-49942950D02*
X54996666Y-49866759D01*
X54996666Y-49866759D02*
X54958571Y-49790569D01*
X54958571Y-49790569D02*
X54920475Y-49638188D01*
X54920475Y-49638188D02*
X54920475Y-49523902D01*
X54920475Y-49523902D02*
X54958571Y-49371521D01*
X54958571Y-49371521D02*
X54996666Y-49295330D01*
X54996666Y-49295330D02*
X55072856Y-49219140D01*
X55072856Y-49219140D02*
X55187142Y-49181045D01*
X55187142Y-49181045D02*
X55263333Y-49181045D01*
X55263333Y-49181045D02*
X55377618Y-49219140D01*
X55377618Y-49219140D02*
X55415714Y-49257235D01*
X56177618Y-49981045D02*
X55720475Y-49981045D01*
X55949047Y-49981045D02*
X55949047Y-49181045D01*
X55949047Y-49181045D02*
X55872856Y-49295330D01*
X55872856Y-49295330D02*
X55796666Y-49371521D01*
X55796666Y-49371521D02*
X55720475Y-49409616D01*
X56444285Y-49181045D02*
X56977619Y-49181045D01*
X56977619Y-49181045D02*
X56634761Y-49981045D01*
X70258810Y-51936045D02*
X69992143Y-51555092D01*
X69801667Y-51936045D02*
X69801667Y-51136045D01*
X69801667Y-51136045D02*
X70106429Y-51136045D01*
X70106429Y-51136045D02*
X70182619Y-51174140D01*
X70182619Y-51174140D02*
X70220714Y-51212235D01*
X70220714Y-51212235D02*
X70258810Y-51288426D01*
X70258810Y-51288426D02*
X70258810Y-51402711D01*
X70258810Y-51402711D02*
X70220714Y-51478902D01*
X70220714Y-51478902D02*
X70182619Y-51516997D01*
X70182619Y-51516997D02*
X70106429Y-51555092D01*
X70106429Y-51555092D02*
X69801667Y-51555092D01*
X70487381Y-51136045D02*
X70754048Y-51936045D01*
X70754048Y-51936045D02*
X71020714Y-51136045D01*
X71706428Y-51936045D02*
X71249285Y-51936045D01*
X71477857Y-51936045D02*
X71477857Y-51136045D01*
X71477857Y-51136045D02*
X71401666Y-51250330D01*
X71401666Y-51250330D02*
X71325476Y-51326521D01*
X71325476Y-51326521D02*
X71249285Y-51364616D01*
X27346667Y-60404854D02*
X27308571Y-60442950D01*
X27308571Y-60442950D02*
X27194286Y-60481045D01*
X27194286Y-60481045D02*
X27118095Y-60481045D01*
X27118095Y-60481045D02*
X27003809Y-60442950D01*
X27003809Y-60442950D02*
X26927619Y-60366759D01*
X26927619Y-60366759D02*
X26889524Y-60290569D01*
X26889524Y-60290569D02*
X26851428Y-60138188D01*
X26851428Y-60138188D02*
X26851428Y-60023902D01*
X26851428Y-60023902D02*
X26889524Y-59871521D01*
X26889524Y-59871521D02*
X26927619Y-59795330D01*
X26927619Y-59795330D02*
X27003809Y-59719140D01*
X27003809Y-59719140D02*
X27118095Y-59681045D01*
X27118095Y-59681045D02*
X27194286Y-59681045D01*
X27194286Y-59681045D02*
X27308571Y-59719140D01*
X27308571Y-59719140D02*
X27346667Y-59757235D01*
X27613333Y-59681045D02*
X28146667Y-59681045D01*
X28146667Y-59681045D02*
X27803809Y-60481045D01*
X59275714Y-52641045D02*
X59009047Y-52260092D01*
X58818571Y-52641045D02*
X58818571Y-51841045D01*
X58818571Y-51841045D02*
X59123333Y-51841045D01*
X59123333Y-51841045D02*
X59199523Y-51879140D01*
X59199523Y-51879140D02*
X59237618Y-51917235D01*
X59237618Y-51917235D02*
X59275714Y-51993426D01*
X59275714Y-51993426D02*
X59275714Y-52107711D01*
X59275714Y-52107711D02*
X59237618Y-52183902D01*
X59237618Y-52183902D02*
X59199523Y-52221997D01*
X59199523Y-52221997D02*
X59123333Y-52260092D01*
X59123333Y-52260092D02*
X58818571Y-52260092D01*
X60037618Y-52641045D02*
X59580475Y-52641045D01*
X59809047Y-52641045D02*
X59809047Y-51841045D01*
X59809047Y-51841045D02*
X59732856Y-51955330D01*
X59732856Y-51955330D02*
X59656666Y-52031521D01*
X59656666Y-52031521D02*
X59580475Y-52069616D01*
X60761428Y-51841045D02*
X60380476Y-51841045D01*
X60380476Y-51841045D02*
X60342380Y-52221997D01*
X60342380Y-52221997D02*
X60380476Y-52183902D01*
X60380476Y-52183902D02*
X60456666Y-52145807D01*
X60456666Y-52145807D02*
X60647142Y-52145807D01*
X60647142Y-52145807D02*
X60723333Y-52183902D01*
X60723333Y-52183902D02*
X60761428Y-52221997D01*
X60761428Y-52221997D02*
X60799523Y-52298188D01*
X60799523Y-52298188D02*
X60799523Y-52488664D01*
X60799523Y-52488664D02*
X60761428Y-52564854D01*
X60761428Y-52564854D02*
X60723333Y-52602950D01*
X60723333Y-52602950D02*
X60647142Y-52641045D01*
X60647142Y-52641045D02*
X60456666Y-52641045D01*
X60456666Y-52641045D02*
X60380476Y-52602950D01*
X60380476Y-52602950D02*
X60342380Y-52564854D01*
X54744660Y-34747235D02*
X54668470Y-34709140D01*
X54668470Y-34709140D02*
X54592279Y-34632950D01*
X54592279Y-34632950D02*
X54477993Y-34518664D01*
X54477993Y-34518664D02*
X54401803Y-34480569D01*
X54401803Y-34480569D02*
X54325612Y-34480569D01*
X54363708Y-34671045D02*
X54287517Y-34632950D01*
X54287517Y-34632950D02*
X54211327Y-34556759D01*
X54211327Y-34556759D02*
X54173231Y-34404378D01*
X54173231Y-34404378D02*
X54173231Y-34137711D01*
X54173231Y-34137711D02*
X54211327Y-33985330D01*
X54211327Y-33985330D02*
X54287517Y-33909140D01*
X54287517Y-33909140D02*
X54363708Y-33871045D01*
X54363708Y-33871045D02*
X54516089Y-33871045D01*
X54516089Y-33871045D02*
X54592279Y-33909140D01*
X54592279Y-33909140D02*
X54668470Y-33985330D01*
X54668470Y-33985330D02*
X54706565Y-34137711D01*
X54706565Y-34137711D02*
X54706565Y-34404378D01*
X54706565Y-34404378D02*
X54668470Y-34556759D01*
X54668470Y-34556759D02*
X54592279Y-34632950D01*
X54592279Y-34632950D02*
X54516089Y-34671045D01*
X54516089Y-34671045D02*
X54363708Y-34671045D01*
X55392279Y-34137711D02*
X55392279Y-34671045D01*
X55201803Y-33832950D02*
X55011326Y-34404378D01*
X55011326Y-34404378D02*
X55506565Y-34404378D01*
X74145714Y-45696104D02*
X74107618Y-45734200D01*
X74107618Y-45734200D02*
X73993333Y-45772295D01*
X73993333Y-45772295D02*
X73917142Y-45772295D01*
X73917142Y-45772295D02*
X73802856Y-45734200D01*
X73802856Y-45734200D02*
X73726666Y-45658009D01*
X73726666Y-45658009D02*
X73688571Y-45581819D01*
X73688571Y-45581819D02*
X73650475Y-45429438D01*
X73650475Y-45429438D02*
X73650475Y-45315152D01*
X73650475Y-45315152D02*
X73688571Y-45162771D01*
X73688571Y-45162771D02*
X73726666Y-45086580D01*
X73726666Y-45086580D02*
X73802856Y-45010390D01*
X73802856Y-45010390D02*
X73917142Y-44972295D01*
X73917142Y-44972295D02*
X73993333Y-44972295D01*
X73993333Y-44972295D02*
X74107618Y-45010390D01*
X74107618Y-45010390D02*
X74145714Y-45048485D01*
X74907618Y-45772295D02*
X74450475Y-45772295D01*
X74679047Y-45772295D02*
X74679047Y-44972295D01*
X74679047Y-44972295D02*
X74602856Y-45086580D01*
X74602856Y-45086580D02*
X74526666Y-45162771D01*
X74526666Y-45162771D02*
X74450475Y-45200866D01*
X75631428Y-44972295D02*
X75250476Y-44972295D01*
X75250476Y-44972295D02*
X75212380Y-45353247D01*
X75212380Y-45353247D02*
X75250476Y-45315152D01*
X75250476Y-45315152D02*
X75326666Y-45277057D01*
X75326666Y-45277057D02*
X75517142Y-45277057D01*
X75517142Y-45277057D02*
X75593333Y-45315152D01*
X75593333Y-45315152D02*
X75631428Y-45353247D01*
X75631428Y-45353247D02*
X75669523Y-45429438D01*
X75669523Y-45429438D02*
X75669523Y-45619914D01*
X75669523Y-45619914D02*
X75631428Y-45696104D01*
X75631428Y-45696104D02*
X75593333Y-45734200D01*
X75593333Y-45734200D02*
X75517142Y-45772295D01*
X75517142Y-45772295D02*
X75326666Y-45772295D01*
X75326666Y-45772295D02*
X75250476Y-45734200D01*
X75250476Y-45734200D02*
X75212380Y-45696104D01*
X20496667Y-60481045D02*
X20230000Y-60100092D01*
X20039524Y-60481045D02*
X20039524Y-59681045D01*
X20039524Y-59681045D02*
X20344286Y-59681045D01*
X20344286Y-59681045D02*
X20420476Y-59719140D01*
X20420476Y-59719140D02*
X20458571Y-59757235D01*
X20458571Y-59757235D02*
X20496667Y-59833426D01*
X20496667Y-59833426D02*
X20496667Y-59947711D01*
X20496667Y-59947711D02*
X20458571Y-60023902D01*
X20458571Y-60023902D02*
X20420476Y-60061997D01*
X20420476Y-60061997D02*
X20344286Y-60100092D01*
X20344286Y-60100092D02*
X20039524Y-60100092D01*
X21258571Y-60481045D02*
X20801428Y-60481045D01*
X21030000Y-60481045D02*
X21030000Y-59681045D01*
X21030000Y-59681045D02*
X20953809Y-59795330D01*
X20953809Y-59795330D02*
X20877619Y-59871521D01*
X20877619Y-59871521D02*
X20801428Y-59909616D01*
X43096667Y-60481045D02*
X42830000Y-60100092D01*
X42639524Y-60481045D02*
X42639524Y-59681045D01*
X42639524Y-59681045D02*
X42944286Y-59681045D01*
X42944286Y-59681045D02*
X43020476Y-59719140D01*
X43020476Y-59719140D02*
X43058571Y-59757235D01*
X43058571Y-59757235D02*
X43096667Y-59833426D01*
X43096667Y-59833426D02*
X43096667Y-59947711D01*
X43096667Y-59947711D02*
X43058571Y-60023902D01*
X43058571Y-60023902D02*
X43020476Y-60061997D01*
X43020476Y-60061997D02*
X42944286Y-60100092D01*
X42944286Y-60100092D02*
X42639524Y-60100092D01*
X43782381Y-59681045D02*
X43630000Y-59681045D01*
X43630000Y-59681045D02*
X43553809Y-59719140D01*
X43553809Y-59719140D02*
X43515714Y-59757235D01*
X43515714Y-59757235D02*
X43439524Y-59871521D01*
X43439524Y-59871521D02*
X43401428Y-60023902D01*
X43401428Y-60023902D02*
X43401428Y-60328664D01*
X43401428Y-60328664D02*
X43439524Y-60404854D01*
X43439524Y-60404854D02*
X43477619Y-60442950D01*
X43477619Y-60442950D02*
X43553809Y-60481045D01*
X43553809Y-60481045D02*
X43706190Y-60481045D01*
X43706190Y-60481045D02*
X43782381Y-60442950D01*
X43782381Y-60442950D02*
X43820476Y-60404854D01*
X43820476Y-60404854D02*
X43858571Y-60328664D01*
X43858571Y-60328664D02*
X43858571Y-60138188D01*
X43858571Y-60138188D02*
X43820476Y-60061997D01*
X43820476Y-60061997D02*
X43782381Y-60023902D01*
X43782381Y-60023902D02*
X43706190Y-59985807D01*
X43706190Y-59985807D02*
X43553809Y-59985807D01*
X43553809Y-59985807D02*
X43477619Y-60023902D01*
X43477619Y-60023902D02*
X43439524Y-60061997D01*
X43439524Y-60061997D02*
X43401428Y-60138188D01*
X62372957Y-37177235D02*
X62296767Y-37139140D01*
X62296767Y-37139140D02*
X62220576Y-37062950D01*
X62220576Y-37062950D02*
X62106290Y-36948664D01*
X62106290Y-36948664D02*
X62030100Y-36910569D01*
X62030100Y-36910569D02*
X61953909Y-36910569D01*
X61992005Y-37101045D02*
X61915814Y-37062950D01*
X61915814Y-37062950D02*
X61839624Y-36986759D01*
X61839624Y-36986759D02*
X61801528Y-36834378D01*
X61801528Y-36834378D02*
X61801528Y-36567711D01*
X61801528Y-36567711D02*
X61839624Y-36415330D01*
X61839624Y-36415330D02*
X61915814Y-36339140D01*
X61915814Y-36339140D02*
X61992005Y-36301045D01*
X61992005Y-36301045D02*
X62144386Y-36301045D01*
X62144386Y-36301045D02*
X62220576Y-36339140D01*
X62220576Y-36339140D02*
X62296767Y-36415330D01*
X62296767Y-36415330D02*
X62334862Y-36567711D01*
X62334862Y-36567711D02*
X62334862Y-36834378D01*
X62334862Y-36834378D02*
X62296767Y-36986759D01*
X62296767Y-36986759D02*
X62220576Y-37062950D01*
X62220576Y-37062950D02*
X62144386Y-37101045D01*
X62144386Y-37101045D02*
X61992005Y-37101045D01*
X62601528Y-36301045D02*
X63096766Y-36301045D01*
X63096766Y-36301045D02*
X62830100Y-36605807D01*
X62830100Y-36605807D02*
X62944385Y-36605807D01*
X62944385Y-36605807D02*
X63020576Y-36643902D01*
X63020576Y-36643902D02*
X63058671Y-36681997D01*
X63058671Y-36681997D02*
X63096766Y-36758188D01*
X63096766Y-36758188D02*
X63096766Y-36948664D01*
X63096766Y-36948664D02*
X63058671Y-37024854D01*
X63058671Y-37024854D02*
X63020576Y-37062950D01*
X63020576Y-37062950D02*
X62944385Y-37101045D01*
X62944385Y-37101045D02*
X62715814Y-37101045D01*
X62715814Y-37101045D02*
X62639623Y-37062950D01*
X62639623Y-37062950D02*
X62601528Y-37024854D01*
X68363333Y-15556045D02*
X68363333Y-16127473D01*
X68363333Y-16127473D02*
X68325238Y-16241759D01*
X68325238Y-16241759D02*
X68249047Y-16317950D01*
X68249047Y-16317950D02*
X68134762Y-16356045D01*
X68134762Y-16356045D02*
X68058571Y-16356045D01*
X68706190Y-15632235D02*
X68744286Y-15594140D01*
X68744286Y-15594140D02*
X68820476Y-15556045D01*
X68820476Y-15556045D02*
X69010952Y-15556045D01*
X69010952Y-15556045D02*
X69087143Y-15594140D01*
X69087143Y-15594140D02*
X69125238Y-15632235D01*
X69125238Y-15632235D02*
X69163333Y-15708426D01*
X69163333Y-15708426D02*
X69163333Y-15784616D01*
X69163333Y-15784616D02*
X69125238Y-15898902D01*
X69125238Y-15898902D02*
X68668095Y-16356045D01*
X68668095Y-16356045D02*
X69163333Y-16356045D01*
X44855714Y-34212295D02*
X44589047Y-33831342D01*
X44398571Y-34212295D02*
X44398571Y-33412295D01*
X44398571Y-33412295D02*
X44703333Y-33412295D01*
X44703333Y-33412295D02*
X44779523Y-33450390D01*
X44779523Y-33450390D02*
X44817618Y-33488485D01*
X44817618Y-33488485D02*
X44855714Y-33564676D01*
X44855714Y-33564676D02*
X44855714Y-33678961D01*
X44855714Y-33678961D02*
X44817618Y-33755152D01*
X44817618Y-33755152D02*
X44779523Y-33793247D01*
X44779523Y-33793247D02*
X44703333Y-33831342D01*
X44703333Y-33831342D02*
X44398571Y-33831342D01*
X45617618Y-34212295D02*
X45160475Y-34212295D01*
X45389047Y-34212295D02*
X45389047Y-33412295D01*
X45389047Y-33412295D02*
X45312856Y-33526580D01*
X45312856Y-33526580D02*
X45236666Y-33602771D01*
X45236666Y-33602771D02*
X45160475Y-33640866D01*
X45922380Y-33488485D02*
X45960476Y-33450390D01*
X45960476Y-33450390D02*
X46036666Y-33412295D01*
X46036666Y-33412295D02*
X46227142Y-33412295D01*
X46227142Y-33412295D02*
X46303333Y-33450390D01*
X46303333Y-33450390D02*
X46341428Y-33488485D01*
X46341428Y-33488485D02*
X46379523Y-33564676D01*
X46379523Y-33564676D02*
X46379523Y-33640866D01*
X46379523Y-33640866D02*
X46341428Y-33755152D01*
X46341428Y-33755152D02*
X45884285Y-34212295D01*
X45884285Y-34212295D02*
X46379523Y-34212295D01*
X54596667Y-45831045D02*
X54330000Y-45450092D01*
X54139524Y-45831045D02*
X54139524Y-45031045D01*
X54139524Y-45031045D02*
X54444286Y-45031045D01*
X54444286Y-45031045D02*
X54520476Y-45069140D01*
X54520476Y-45069140D02*
X54558571Y-45107235D01*
X54558571Y-45107235D02*
X54596667Y-45183426D01*
X54596667Y-45183426D02*
X54596667Y-45297711D01*
X54596667Y-45297711D02*
X54558571Y-45373902D01*
X54558571Y-45373902D02*
X54520476Y-45411997D01*
X54520476Y-45411997D02*
X54444286Y-45450092D01*
X54444286Y-45450092D02*
X54139524Y-45450092D01*
X54977619Y-45831045D02*
X55130000Y-45831045D01*
X55130000Y-45831045D02*
X55206190Y-45792950D01*
X55206190Y-45792950D02*
X55244286Y-45754854D01*
X55244286Y-45754854D02*
X55320476Y-45640569D01*
X55320476Y-45640569D02*
X55358571Y-45488188D01*
X55358571Y-45488188D02*
X55358571Y-45183426D01*
X55358571Y-45183426D02*
X55320476Y-45107235D01*
X55320476Y-45107235D02*
X55282381Y-45069140D01*
X55282381Y-45069140D02*
X55206190Y-45031045D01*
X55206190Y-45031045D02*
X55053809Y-45031045D01*
X55053809Y-45031045D02*
X54977619Y-45069140D01*
X54977619Y-45069140D02*
X54939524Y-45107235D01*
X54939524Y-45107235D02*
X54901428Y-45183426D01*
X54901428Y-45183426D02*
X54901428Y-45373902D01*
X54901428Y-45373902D02*
X54939524Y-45450092D01*
X54939524Y-45450092D02*
X54977619Y-45488188D01*
X54977619Y-45488188D02*
X55053809Y-45526283D01*
X55053809Y-45526283D02*
X55206190Y-45526283D01*
X55206190Y-45526283D02*
X55282381Y-45488188D01*
X55282381Y-45488188D02*
X55320476Y-45450092D01*
X55320476Y-45450092D02*
X55358571Y-45373902D01*
X63715714Y-54431045D02*
X63449047Y-54050092D01*
X63258571Y-54431045D02*
X63258571Y-53631045D01*
X63258571Y-53631045D02*
X63563333Y-53631045D01*
X63563333Y-53631045D02*
X63639523Y-53669140D01*
X63639523Y-53669140D02*
X63677618Y-53707235D01*
X63677618Y-53707235D02*
X63715714Y-53783426D01*
X63715714Y-53783426D02*
X63715714Y-53897711D01*
X63715714Y-53897711D02*
X63677618Y-53973902D01*
X63677618Y-53973902D02*
X63639523Y-54011997D01*
X63639523Y-54011997D02*
X63563333Y-54050092D01*
X63563333Y-54050092D02*
X63258571Y-54050092D01*
X64477618Y-54431045D02*
X64020475Y-54431045D01*
X64249047Y-54431045D02*
X64249047Y-53631045D01*
X64249047Y-53631045D02*
X64172856Y-53745330D01*
X64172856Y-53745330D02*
X64096666Y-53821521D01*
X64096666Y-53821521D02*
X64020475Y-53859616D01*
X64744285Y-53631045D02*
X65239523Y-53631045D01*
X65239523Y-53631045D02*
X64972857Y-53935807D01*
X64972857Y-53935807D02*
X65087142Y-53935807D01*
X65087142Y-53935807D02*
X65163333Y-53973902D01*
X65163333Y-53973902D02*
X65201428Y-54011997D01*
X65201428Y-54011997D02*
X65239523Y-54088188D01*
X65239523Y-54088188D02*
X65239523Y-54278664D01*
X65239523Y-54278664D02*
X65201428Y-54354854D01*
X65201428Y-54354854D02*
X65163333Y-54392950D01*
X65163333Y-54392950D02*
X65087142Y-54431045D01*
X65087142Y-54431045D02*
X64858571Y-54431045D01*
X64858571Y-54431045D02*
X64782380Y-54392950D01*
X64782380Y-54392950D02*
X64744285Y-54354854D01*
X15846667Y-46931045D02*
X15580000Y-46550092D01*
X15389524Y-46931045D02*
X15389524Y-46131045D01*
X15389524Y-46131045D02*
X15694286Y-46131045D01*
X15694286Y-46131045D02*
X15770476Y-46169140D01*
X15770476Y-46169140D02*
X15808571Y-46207235D01*
X15808571Y-46207235D02*
X15846667Y-46283426D01*
X15846667Y-46283426D02*
X15846667Y-46397711D01*
X15846667Y-46397711D02*
X15808571Y-46473902D01*
X15808571Y-46473902D02*
X15770476Y-46511997D01*
X15770476Y-46511997D02*
X15694286Y-46550092D01*
X15694286Y-46550092D02*
X15389524Y-46550092D01*
X16532381Y-46397711D02*
X16532381Y-46931045D01*
X16341905Y-46092950D02*
X16151428Y-46664378D01*
X16151428Y-46664378D02*
X16646667Y-46664378D01*
X67715714Y-45509854D02*
X67677618Y-45547950D01*
X67677618Y-45547950D02*
X67563333Y-45586045D01*
X67563333Y-45586045D02*
X67487142Y-45586045D01*
X67487142Y-45586045D02*
X67372856Y-45547950D01*
X67372856Y-45547950D02*
X67296666Y-45471759D01*
X67296666Y-45471759D02*
X67258571Y-45395569D01*
X67258571Y-45395569D02*
X67220475Y-45243188D01*
X67220475Y-45243188D02*
X67220475Y-45128902D01*
X67220475Y-45128902D02*
X67258571Y-44976521D01*
X67258571Y-44976521D02*
X67296666Y-44900330D01*
X67296666Y-44900330D02*
X67372856Y-44824140D01*
X67372856Y-44824140D02*
X67487142Y-44786045D01*
X67487142Y-44786045D02*
X67563333Y-44786045D01*
X67563333Y-44786045D02*
X67677618Y-44824140D01*
X67677618Y-44824140D02*
X67715714Y-44862235D01*
X68477618Y-45586045D02*
X68020475Y-45586045D01*
X68249047Y-45586045D02*
X68249047Y-44786045D01*
X68249047Y-44786045D02*
X68172856Y-44900330D01*
X68172856Y-44900330D02*
X68096666Y-44976521D01*
X68096666Y-44976521D02*
X68020475Y-45014616D01*
X69163333Y-45052711D02*
X69163333Y-45586045D01*
X68972857Y-44747950D02*
X68782380Y-45319378D01*
X68782380Y-45319378D02*
X69277619Y-45319378D01*
X15846667Y-38774854D02*
X15808571Y-38812950D01*
X15808571Y-38812950D02*
X15694286Y-38851045D01*
X15694286Y-38851045D02*
X15618095Y-38851045D01*
X15618095Y-38851045D02*
X15503809Y-38812950D01*
X15503809Y-38812950D02*
X15427619Y-38736759D01*
X15427619Y-38736759D02*
X15389524Y-38660569D01*
X15389524Y-38660569D02*
X15351428Y-38508188D01*
X15351428Y-38508188D02*
X15351428Y-38393902D01*
X15351428Y-38393902D02*
X15389524Y-38241521D01*
X15389524Y-38241521D02*
X15427619Y-38165330D01*
X15427619Y-38165330D02*
X15503809Y-38089140D01*
X15503809Y-38089140D02*
X15618095Y-38051045D01*
X15618095Y-38051045D02*
X15694286Y-38051045D01*
X15694286Y-38051045D02*
X15808571Y-38089140D01*
X15808571Y-38089140D02*
X15846667Y-38127235D01*
X16227619Y-38851045D02*
X16380000Y-38851045D01*
X16380000Y-38851045D02*
X16456190Y-38812950D01*
X16456190Y-38812950D02*
X16494286Y-38774854D01*
X16494286Y-38774854D02*
X16570476Y-38660569D01*
X16570476Y-38660569D02*
X16608571Y-38508188D01*
X16608571Y-38508188D02*
X16608571Y-38203426D01*
X16608571Y-38203426D02*
X16570476Y-38127235D01*
X16570476Y-38127235D02*
X16532381Y-38089140D01*
X16532381Y-38089140D02*
X16456190Y-38051045D01*
X16456190Y-38051045D02*
X16303809Y-38051045D01*
X16303809Y-38051045D02*
X16227619Y-38089140D01*
X16227619Y-38089140D02*
X16189524Y-38127235D01*
X16189524Y-38127235D02*
X16151428Y-38203426D01*
X16151428Y-38203426D02*
X16151428Y-38393902D01*
X16151428Y-38393902D02*
X16189524Y-38470092D01*
X16189524Y-38470092D02*
X16227619Y-38508188D01*
X16227619Y-38508188D02*
X16303809Y-38546283D01*
X16303809Y-38546283D02*
X16456190Y-38546283D01*
X16456190Y-38546283D02*
X16532381Y-38508188D01*
X16532381Y-38508188D02*
X16570476Y-38470092D01*
X16570476Y-38470092D02*
X16608571Y-38393902D01*
X56965714Y-58809854D02*
X56927618Y-58847950D01*
X56927618Y-58847950D02*
X56813333Y-58886045D01*
X56813333Y-58886045D02*
X56737142Y-58886045D01*
X56737142Y-58886045D02*
X56622856Y-58847950D01*
X56622856Y-58847950D02*
X56546666Y-58771759D01*
X56546666Y-58771759D02*
X56508571Y-58695569D01*
X56508571Y-58695569D02*
X56470475Y-58543188D01*
X56470475Y-58543188D02*
X56470475Y-58428902D01*
X56470475Y-58428902D02*
X56508571Y-58276521D01*
X56508571Y-58276521D02*
X56546666Y-58200330D01*
X56546666Y-58200330D02*
X56622856Y-58124140D01*
X56622856Y-58124140D02*
X56737142Y-58086045D01*
X56737142Y-58086045D02*
X56813333Y-58086045D01*
X56813333Y-58086045D02*
X56927618Y-58124140D01*
X56927618Y-58124140D02*
X56965714Y-58162235D01*
X57727618Y-58886045D02*
X57270475Y-58886045D01*
X57499047Y-58886045D02*
X57499047Y-58086045D01*
X57499047Y-58086045D02*
X57422856Y-58200330D01*
X57422856Y-58200330D02*
X57346666Y-58276521D01*
X57346666Y-58276521D02*
X57270475Y-58314616D01*
X58184761Y-58428902D02*
X58108571Y-58390807D01*
X58108571Y-58390807D02*
X58070476Y-58352711D01*
X58070476Y-58352711D02*
X58032380Y-58276521D01*
X58032380Y-58276521D02*
X58032380Y-58238426D01*
X58032380Y-58238426D02*
X58070476Y-58162235D01*
X58070476Y-58162235D02*
X58108571Y-58124140D01*
X58108571Y-58124140D02*
X58184761Y-58086045D01*
X58184761Y-58086045D02*
X58337142Y-58086045D01*
X58337142Y-58086045D02*
X58413333Y-58124140D01*
X58413333Y-58124140D02*
X58451428Y-58162235D01*
X58451428Y-58162235D02*
X58489523Y-58238426D01*
X58489523Y-58238426D02*
X58489523Y-58276521D01*
X58489523Y-58276521D02*
X58451428Y-58352711D01*
X58451428Y-58352711D02*
X58413333Y-58390807D01*
X58413333Y-58390807D02*
X58337142Y-58428902D01*
X58337142Y-58428902D02*
X58184761Y-58428902D01*
X58184761Y-58428902D02*
X58108571Y-58466997D01*
X58108571Y-58466997D02*
X58070476Y-58505092D01*
X58070476Y-58505092D02*
X58032380Y-58581283D01*
X58032380Y-58581283D02*
X58032380Y-58733664D01*
X58032380Y-58733664D02*
X58070476Y-58809854D01*
X58070476Y-58809854D02*
X58108571Y-58847950D01*
X58108571Y-58847950D02*
X58184761Y-58886045D01*
X58184761Y-58886045D02*
X58337142Y-58886045D01*
X58337142Y-58886045D02*
X58413333Y-58847950D01*
X58413333Y-58847950D02*
X58451428Y-58809854D01*
X58451428Y-58809854D02*
X58489523Y-58733664D01*
X58489523Y-58733664D02*
X58489523Y-58581283D01*
X58489523Y-58581283D02*
X58451428Y-58505092D01*
X58451428Y-58505092D02*
X58413333Y-58466997D01*
X58413333Y-58466997D02*
X58337142Y-58428902D01*
X36244660Y-34747235D02*
X36168470Y-34709140D01*
X36168470Y-34709140D02*
X36092279Y-34632950D01*
X36092279Y-34632950D02*
X35977993Y-34518664D01*
X35977993Y-34518664D02*
X35901803Y-34480569D01*
X35901803Y-34480569D02*
X35825612Y-34480569D01*
X35863708Y-34671045D02*
X35787517Y-34632950D01*
X35787517Y-34632950D02*
X35711327Y-34556759D01*
X35711327Y-34556759D02*
X35673231Y-34404378D01*
X35673231Y-34404378D02*
X35673231Y-34137711D01*
X35673231Y-34137711D02*
X35711327Y-33985330D01*
X35711327Y-33985330D02*
X35787517Y-33909140D01*
X35787517Y-33909140D02*
X35863708Y-33871045D01*
X35863708Y-33871045D02*
X36016089Y-33871045D01*
X36016089Y-33871045D02*
X36092279Y-33909140D01*
X36092279Y-33909140D02*
X36168470Y-33985330D01*
X36168470Y-33985330D02*
X36206565Y-34137711D01*
X36206565Y-34137711D02*
X36206565Y-34404378D01*
X36206565Y-34404378D02*
X36168470Y-34556759D01*
X36168470Y-34556759D02*
X36092279Y-34632950D01*
X36092279Y-34632950D02*
X36016089Y-34671045D01*
X36016089Y-34671045D02*
X35863708Y-34671045D01*
X36511326Y-33947235D02*
X36549422Y-33909140D01*
X36549422Y-33909140D02*
X36625612Y-33871045D01*
X36625612Y-33871045D02*
X36816088Y-33871045D01*
X36816088Y-33871045D02*
X36892279Y-33909140D01*
X36892279Y-33909140D02*
X36930374Y-33947235D01*
X36930374Y-33947235D02*
X36968469Y-34023426D01*
X36968469Y-34023426D02*
X36968469Y-34099616D01*
X36968469Y-34099616D02*
X36930374Y-34213902D01*
X36930374Y-34213902D02*
X36473231Y-34671045D01*
X36473231Y-34671045D02*
X36968469Y-34671045D01*
X60715714Y-51732354D02*
X60677618Y-51770450D01*
X60677618Y-51770450D02*
X60563333Y-51808545D01*
X60563333Y-51808545D02*
X60487142Y-51808545D01*
X60487142Y-51808545D02*
X60372856Y-51770450D01*
X60372856Y-51770450D02*
X60296666Y-51694259D01*
X60296666Y-51694259D02*
X60258571Y-51618069D01*
X60258571Y-51618069D02*
X60220475Y-51465688D01*
X60220475Y-51465688D02*
X60220475Y-51351402D01*
X60220475Y-51351402D02*
X60258571Y-51199021D01*
X60258571Y-51199021D02*
X60296666Y-51122830D01*
X60296666Y-51122830D02*
X60372856Y-51046640D01*
X60372856Y-51046640D02*
X60487142Y-51008545D01*
X60487142Y-51008545D02*
X60563333Y-51008545D01*
X60563333Y-51008545D02*
X60677618Y-51046640D01*
X60677618Y-51046640D02*
X60715714Y-51084735D01*
X61477618Y-51808545D02*
X61020475Y-51808545D01*
X61249047Y-51808545D02*
X61249047Y-51008545D01*
X61249047Y-51008545D02*
X61172856Y-51122830D01*
X61172856Y-51122830D02*
X61096666Y-51199021D01*
X61096666Y-51199021D02*
X61020475Y-51237116D01*
X62163333Y-51008545D02*
X62010952Y-51008545D01*
X62010952Y-51008545D02*
X61934761Y-51046640D01*
X61934761Y-51046640D02*
X61896666Y-51084735D01*
X61896666Y-51084735D02*
X61820476Y-51199021D01*
X61820476Y-51199021D02*
X61782380Y-51351402D01*
X61782380Y-51351402D02*
X61782380Y-51656164D01*
X61782380Y-51656164D02*
X61820476Y-51732354D01*
X61820476Y-51732354D02*
X61858571Y-51770450D01*
X61858571Y-51770450D02*
X61934761Y-51808545D01*
X61934761Y-51808545D02*
X62087142Y-51808545D01*
X62087142Y-51808545D02*
X62163333Y-51770450D01*
X62163333Y-51770450D02*
X62201428Y-51732354D01*
X62201428Y-51732354D02*
X62239523Y-51656164D01*
X62239523Y-51656164D02*
X62239523Y-51465688D01*
X62239523Y-51465688D02*
X62201428Y-51389497D01*
X62201428Y-51389497D02*
X62163333Y-51351402D01*
X62163333Y-51351402D02*
X62087142Y-51313307D01*
X62087142Y-51313307D02*
X61934761Y-51313307D01*
X61934761Y-51313307D02*
X61858571Y-51351402D01*
X61858571Y-51351402D02*
X61820476Y-51389497D01*
X61820476Y-51389497D02*
X61782380Y-51465688D01*
X28715714Y-49939854D02*
X28677618Y-49977950D01*
X28677618Y-49977950D02*
X28563333Y-50016045D01*
X28563333Y-50016045D02*
X28487142Y-50016045D01*
X28487142Y-50016045D02*
X28372856Y-49977950D01*
X28372856Y-49977950D02*
X28296666Y-49901759D01*
X28296666Y-49901759D02*
X28258571Y-49825569D01*
X28258571Y-49825569D02*
X28220475Y-49673188D01*
X28220475Y-49673188D02*
X28220475Y-49558902D01*
X28220475Y-49558902D02*
X28258571Y-49406521D01*
X28258571Y-49406521D02*
X28296666Y-49330330D01*
X28296666Y-49330330D02*
X28372856Y-49254140D01*
X28372856Y-49254140D02*
X28487142Y-49216045D01*
X28487142Y-49216045D02*
X28563333Y-49216045D01*
X28563333Y-49216045D02*
X28677618Y-49254140D01*
X28677618Y-49254140D02*
X28715714Y-49292235D01*
X29477618Y-50016045D02*
X29020475Y-50016045D01*
X29249047Y-50016045D02*
X29249047Y-49216045D01*
X29249047Y-49216045D02*
X29172856Y-49330330D01*
X29172856Y-49330330D02*
X29096666Y-49406521D01*
X29096666Y-49406521D02*
X29020475Y-49444616D01*
X30239523Y-50016045D02*
X29782380Y-50016045D01*
X30010952Y-50016045D02*
X30010952Y-49216045D01*
X30010952Y-49216045D02*
X29934761Y-49330330D01*
X29934761Y-49330330D02*
X29858571Y-49406521D01*
X29858571Y-49406521D02*
X29782380Y-49444616D01*
X24596667Y-56443545D02*
X24330000Y-56062592D01*
X24139524Y-56443545D02*
X24139524Y-55643545D01*
X24139524Y-55643545D02*
X24444286Y-55643545D01*
X24444286Y-55643545D02*
X24520476Y-55681640D01*
X24520476Y-55681640D02*
X24558571Y-55719735D01*
X24558571Y-55719735D02*
X24596667Y-55795926D01*
X24596667Y-55795926D02*
X24596667Y-55910211D01*
X24596667Y-55910211D02*
X24558571Y-55986402D01*
X24558571Y-55986402D02*
X24520476Y-56024497D01*
X24520476Y-56024497D02*
X24444286Y-56062592D01*
X24444286Y-56062592D02*
X24139524Y-56062592D01*
X24901428Y-55719735D02*
X24939524Y-55681640D01*
X24939524Y-55681640D02*
X25015714Y-55643545D01*
X25015714Y-55643545D02*
X25206190Y-55643545D01*
X25206190Y-55643545D02*
X25282381Y-55681640D01*
X25282381Y-55681640D02*
X25320476Y-55719735D01*
X25320476Y-55719735D02*
X25358571Y-55795926D01*
X25358571Y-55795926D02*
X25358571Y-55872116D01*
X25358571Y-55872116D02*
X25320476Y-55986402D01*
X25320476Y-55986402D02*
X24863333Y-56443545D01*
X24863333Y-56443545D02*
X25358571Y-56443545D01*
X67695714Y-38936104D02*
X67657618Y-38974200D01*
X67657618Y-38974200D02*
X67543333Y-39012295D01*
X67543333Y-39012295D02*
X67467142Y-39012295D01*
X67467142Y-39012295D02*
X67352856Y-38974200D01*
X67352856Y-38974200D02*
X67276666Y-38898009D01*
X67276666Y-38898009D02*
X67238571Y-38821819D01*
X67238571Y-38821819D02*
X67200475Y-38669438D01*
X67200475Y-38669438D02*
X67200475Y-38555152D01*
X67200475Y-38555152D02*
X67238571Y-38402771D01*
X67238571Y-38402771D02*
X67276666Y-38326580D01*
X67276666Y-38326580D02*
X67352856Y-38250390D01*
X67352856Y-38250390D02*
X67467142Y-38212295D01*
X67467142Y-38212295D02*
X67543333Y-38212295D01*
X67543333Y-38212295D02*
X67657618Y-38250390D01*
X67657618Y-38250390D02*
X67695714Y-38288485D01*
X68457618Y-39012295D02*
X68000475Y-39012295D01*
X68229047Y-39012295D02*
X68229047Y-38212295D01*
X68229047Y-38212295D02*
X68152856Y-38326580D01*
X68152856Y-38326580D02*
X68076666Y-38402771D01*
X68076666Y-38402771D02*
X68000475Y-38440866D01*
X68952857Y-38212295D02*
X69029047Y-38212295D01*
X69029047Y-38212295D02*
X69105238Y-38250390D01*
X69105238Y-38250390D02*
X69143333Y-38288485D01*
X69143333Y-38288485D02*
X69181428Y-38364676D01*
X69181428Y-38364676D02*
X69219523Y-38517057D01*
X69219523Y-38517057D02*
X69219523Y-38707533D01*
X69219523Y-38707533D02*
X69181428Y-38859914D01*
X69181428Y-38859914D02*
X69143333Y-38936104D01*
X69143333Y-38936104D02*
X69105238Y-38974200D01*
X69105238Y-38974200D02*
X69029047Y-39012295D01*
X69029047Y-39012295D02*
X68952857Y-39012295D01*
X68952857Y-39012295D02*
X68876666Y-38974200D01*
X68876666Y-38974200D02*
X68838571Y-38936104D01*
X68838571Y-38936104D02*
X68800476Y-38859914D01*
X68800476Y-38859914D02*
X68762380Y-38707533D01*
X68762380Y-38707533D02*
X68762380Y-38517057D01*
X68762380Y-38517057D02*
X68800476Y-38364676D01*
X68800476Y-38364676D02*
X68838571Y-38288485D01*
X68838571Y-38288485D02*
X68876666Y-38250390D01*
X68876666Y-38250390D02*
X68952857Y-38212295D01*
X15846667Y-52104854D02*
X15808571Y-52142950D01*
X15808571Y-52142950D02*
X15694286Y-52181045D01*
X15694286Y-52181045D02*
X15618095Y-52181045D01*
X15618095Y-52181045D02*
X15503809Y-52142950D01*
X15503809Y-52142950D02*
X15427619Y-52066759D01*
X15427619Y-52066759D02*
X15389524Y-51990569D01*
X15389524Y-51990569D02*
X15351428Y-51838188D01*
X15351428Y-51838188D02*
X15351428Y-51723902D01*
X15351428Y-51723902D02*
X15389524Y-51571521D01*
X15389524Y-51571521D02*
X15427619Y-51495330D01*
X15427619Y-51495330D02*
X15503809Y-51419140D01*
X15503809Y-51419140D02*
X15618095Y-51381045D01*
X15618095Y-51381045D02*
X15694286Y-51381045D01*
X15694286Y-51381045D02*
X15808571Y-51419140D01*
X15808571Y-51419140D02*
X15846667Y-51457235D01*
X16303809Y-51723902D02*
X16227619Y-51685807D01*
X16227619Y-51685807D02*
X16189524Y-51647711D01*
X16189524Y-51647711D02*
X16151428Y-51571521D01*
X16151428Y-51571521D02*
X16151428Y-51533426D01*
X16151428Y-51533426D02*
X16189524Y-51457235D01*
X16189524Y-51457235D02*
X16227619Y-51419140D01*
X16227619Y-51419140D02*
X16303809Y-51381045D01*
X16303809Y-51381045D02*
X16456190Y-51381045D01*
X16456190Y-51381045D02*
X16532381Y-51419140D01*
X16532381Y-51419140D02*
X16570476Y-51457235D01*
X16570476Y-51457235D02*
X16608571Y-51533426D01*
X16608571Y-51533426D02*
X16608571Y-51571521D01*
X16608571Y-51571521D02*
X16570476Y-51647711D01*
X16570476Y-51647711D02*
X16532381Y-51685807D01*
X16532381Y-51685807D02*
X16456190Y-51723902D01*
X16456190Y-51723902D02*
X16303809Y-51723902D01*
X16303809Y-51723902D02*
X16227619Y-51761997D01*
X16227619Y-51761997D02*
X16189524Y-51800092D01*
X16189524Y-51800092D02*
X16151428Y-51876283D01*
X16151428Y-51876283D02*
X16151428Y-52028664D01*
X16151428Y-52028664D02*
X16189524Y-52104854D01*
X16189524Y-52104854D02*
X16227619Y-52142950D01*
X16227619Y-52142950D02*
X16303809Y-52181045D01*
X16303809Y-52181045D02*
X16456190Y-52181045D01*
X16456190Y-52181045D02*
X16532381Y-52142950D01*
X16532381Y-52142950D02*
X16570476Y-52104854D01*
X16570476Y-52104854D02*
X16608571Y-52028664D01*
X16608571Y-52028664D02*
X16608571Y-51876283D01*
X16608571Y-51876283D02*
X16570476Y-51800092D01*
X16570476Y-51800092D02*
X16532381Y-51761997D01*
X16532381Y-51761997D02*
X16456190Y-51723902D01*
X63815714Y-59231045D02*
X63549047Y-58850092D01*
X63358571Y-59231045D02*
X63358571Y-58431045D01*
X63358571Y-58431045D02*
X63663333Y-58431045D01*
X63663333Y-58431045D02*
X63739523Y-58469140D01*
X63739523Y-58469140D02*
X63777618Y-58507235D01*
X63777618Y-58507235D02*
X63815714Y-58583426D01*
X63815714Y-58583426D02*
X63815714Y-58697711D01*
X63815714Y-58697711D02*
X63777618Y-58773902D01*
X63777618Y-58773902D02*
X63739523Y-58811997D01*
X63739523Y-58811997D02*
X63663333Y-58850092D01*
X63663333Y-58850092D02*
X63358571Y-58850092D01*
X64577618Y-59231045D02*
X64120475Y-59231045D01*
X64349047Y-59231045D02*
X64349047Y-58431045D01*
X64349047Y-58431045D02*
X64272856Y-58545330D01*
X64272856Y-58545330D02*
X64196666Y-58621521D01*
X64196666Y-58621521D02*
X64120475Y-58659616D01*
X65339523Y-59231045D02*
X64882380Y-59231045D01*
X65110952Y-59231045D02*
X65110952Y-58431045D01*
X65110952Y-58431045D02*
X65034761Y-58545330D01*
X65034761Y-58545330D02*
X64958571Y-58621521D01*
X64958571Y-58621521D02*
X64882380Y-58659616D01*
X45266666Y-15052295D02*
X44885714Y-15052295D01*
X44885714Y-15052295D02*
X44885714Y-14252295D01*
X45952380Y-15052295D02*
X45495237Y-15052295D01*
X45723809Y-15052295D02*
X45723809Y-14252295D01*
X45723809Y-14252295D02*
X45647618Y-14366580D01*
X45647618Y-14366580D02*
X45571428Y-14442771D01*
X45571428Y-14442771D02*
X45495237Y-14480866D01*
%TO.C,C4*%
D11*
X19370000Y-42140000D02*
X19370000Y-41060000D01*
X22090000Y-42140000D02*
X22090000Y-41060000D01*
%TO.C,U1*%
D12*
X40630000Y-53550000D02*
X40630000Y-49150000D01*
X50830000Y-53550000D02*
X50830000Y-49150000D01*
D13*
X40885000Y-54700000D02*
G75*
G02*
X40675000Y-54700000I-105000J0D01*
G01*
X40675000Y-54700000D02*
G75*
G02*
X40885000Y-54700000I105000J0D01*
G01*
%TO.C,C2*%
D12*
X18217651Y-28335000D02*
X19017651Y-28335000D01*
X18617651Y-27935000D02*
X18617651Y-28735000D01*
X22627349Y-26570000D02*
X22627349Y-34730000D01*
X22667349Y-26570000D02*
X22667349Y-34730000D01*
X22707349Y-26571000D02*
X22707349Y-34729000D01*
X22747349Y-26572000D02*
X22747349Y-34728000D01*
X22787349Y-26573000D02*
X22787349Y-34727000D01*
X22827349Y-26575000D02*
X22827349Y-34725000D01*
X22867349Y-26577000D02*
X22867349Y-34723000D01*
X22907349Y-26580000D02*
X22907349Y-34720000D01*
X22947349Y-26582000D02*
X22947349Y-34718000D01*
X22987349Y-26586000D02*
X22987349Y-34714000D01*
X23027349Y-26589000D02*
X23027349Y-34711000D01*
X23067349Y-26594000D02*
X23067349Y-34706000D01*
X23107349Y-26598000D02*
X23107349Y-34702000D01*
X23147349Y-26603000D02*
X23147349Y-34697000D01*
X23187349Y-26608000D02*
X23187349Y-34692000D01*
X23227349Y-26614000D02*
X23227349Y-34686000D01*
X23267349Y-26620000D02*
X23267349Y-34680000D01*
X23307349Y-26627000D02*
X23307349Y-34673000D01*
X23347349Y-26633000D02*
X23347349Y-29610000D01*
X23347349Y-31690000D02*
X23347349Y-34667000D01*
X23387349Y-26641000D02*
X23387349Y-29610000D01*
X23387349Y-31690000D02*
X23387349Y-34659000D01*
X23427349Y-26648000D02*
X23427349Y-29610000D01*
X23427349Y-31690000D02*
X23427349Y-34652000D01*
X23467349Y-26657000D02*
X23467349Y-29610000D01*
X23467349Y-31690000D02*
X23467349Y-34643000D01*
X23507349Y-26665000D02*
X23507349Y-29610000D01*
X23507349Y-31690000D02*
X23507349Y-34635000D01*
X23547349Y-26674000D02*
X23547349Y-29610000D01*
X23547349Y-31690000D02*
X23547349Y-34626000D01*
X23587349Y-26683000D02*
X23587349Y-29610000D01*
X23587349Y-31690000D02*
X23587349Y-34617000D01*
X23627349Y-26693000D02*
X23627349Y-29610000D01*
X23627349Y-31690000D02*
X23627349Y-34607000D01*
X23667349Y-26703000D02*
X23667349Y-29610000D01*
X23667349Y-31690000D02*
X23667349Y-34597000D01*
X23707349Y-26714000D02*
X23707349Y-29610000D01*
X23707349Y-31690000D02*
X23707349Y-34586000D01*
X23747349Y-26725000D02*
X23747349Y-29610000D01*
X23747349Y-31690000D02*
X23747349Y-34575000D01*
X23787349Y-26737000D02*
X23787349Y-29610000D01*
X23787349Y-31690000D02*
X23787349Y-34563000D01*
X23827349Y-26749000D02*
X23827349Y-29610000D01*
X23827349Y-31690000D02*
X23827349Y-34551000D01*
X23867349Y-26761000D02*
X23867349Y-29610000D01*
X23867349Y-31690000D02*
X23867349Y-34539000D01*
X23907349Y-26774000D02*
X23907349Y-29610000D01*
X23907349Y-31690000D02*
X23907349Y-34526000D01*
X23947349Y-26787000D02*
X23947349Y-29610000D01*
X23947349Y-31690000D02*
X23947349Y-34513000D01*
X23987349Y-26801000D02*
X23987349Y-29610000D01*
X23987349Y-31690000D02*
X23987349Y-34499000D01*
X24027349Y-26815000D02*
X24027349Y-29610000D01*
X24027349Y-31690000D02*
X24027349Y-34485000D01*
X24067349Y-26830000D02*
X24067349Y-29610000D01*
X24067349Y-31690000D02*
X24067349Y-34470000D01*
X24107349Y-26845000D02*
X24107349Y-29610000D01*
X24107349Y-31690000D02*
X24107349Y-34455000D01*
X24147349Y-26861000D02*
X24147349Y-29610000D01*
X24147349Y-31690000D02*
X24147349Y-34439000D01*
X24187349Y-26877000D02*
X24187349Y-29610000D01*
X24187349Y-31690000D02*
X24187349Y-34423000D01*
X24227349Y-26893000D02*
X24227349Y-29610000D01*
X24227349Y-31690000D02*
X24227349Y-34407000D01*
X24267349Y-26910000D02*
X24267349Y-29610000D01*
X24267349Y-31690000D02*
X24267349Y-34390000D01*
X24307349Y-26928000D02*
X24307349Y-29610000D01*
X24307349Y-31690000D02*
X24307349Y-34372000D01*
X24347349Y-26946000D02*
X24347349Y-29610000D01*
X24347349Y-31690000D02*
X24347349Y-34354000D01*
X24387349Y-26965000D02*
X24387349Y-29610000D01*
X24387349Y-31690000D02*
X24387349Y-34335000D01*
X24427349Y-26984000D02*
X24427349Y-29610000D01*
X24427349Y-31690000D02*
X24427349Y-34316000D01*
X24467349Y-27004000D02*
X24467349Y-29610000D01*
X24467349Y-31690000D02*
X24467349Y-34296000D01*
X24507349Y-27024000D02*
X24507349Y-29610000D01*
X24507349Y-31690000D02*
X24507349Y-34276000D01*
X24547349Y-27045000D02*
X24547349Y-29610000D01*
X24547349Y-31690000D02*
X24547349Y-34255000D01*
X24587349Y-27066000D02*
X24587349Y-29610000D01*
X24587349Y-31690000D02*
X24587349Y-34234000D01*
X24627349Y-27088000D02*
X24627349Y-29610000D01*
X24627349Y-31690000D02*
X24627349Y-34212000D01*
X24667349Y-27111000D02*
X24667349Y-29610000D01*
X24667349Y-31690000D02*
X24667349Y-34189000D01*
X24707349Y-27134000D02*
X24707349Y-29610000D01*
X24707349Y-31690000D02*
X24707349Y-34166000D01*
X24747349Y-27157000D02*
X24747349Y-29610000D01*
X24747349Y-31690000D02*
X24747349Y-34143000D01*
X24787349Y-27182000D02*
X24787349Y-29610000D01*
X24787349Y-31690000D02*
X24787349Y-34118000D01*
X24827349Y-27207000D02*
X24827349Y-29610000D01*
X24827349Y-31690000D02*
X24827349Y-34093000D01*
X24867349Y-27232000D02*
X24867349Y-29610000D01*
X24867349Y-31690000D02*
X24867349Y-34068000D01*
X24907349Y-27258000D02*
X24907349Y-29610000D01*
X24907349Y-31690000D02*
X24907349Y-34042000D01*
X24947349Y-27285000D02*
X24947349Y-29610000D01*
X24947349Y-31690000D02*
X24947349Y-34015000D01*
X24987349Y-27313000D02*
X24987349Y-29610000D01*
X24987349Y-31690000D02*
X24987349Y-33987000D01*
X25027349Y-27341000D02*
X25027349Y-29610000D01*
X25027349Y-31690000D02*
X25027349Y-33959000D01*
X25067349Y-27370000D02*
X25067349Y-29610000D01*
X25067349Y-31690000D02*
X25067349Y-33930000D01*
X25107349Y-27400000D02*
X25107349Y-29610000D01*
X25107349Y-31690000D02*
X25107349Y-33900000D01*
X25147349Y-27431000D02*
X25147349Y-29610000D01*
X25147349Y-31690000D02*
X25147349Y-33869000D01*
X25187349Y-27462000D02*
X25187349Y-29610000D01*
X25187349Y-31690000D02*
X25187349Y-33838000D01*
X25227349Y-27494000D02*
X25227349Y-29610000D01*
X25227349Y-31690000D02*
X25227349Y-33806000D01*
X25267349Y-27527000D02*
X25267349Y-29610000D01*
X25267349Y-31690000D02*
X25267349Y-33773000D01*
X25307349Y-27561000D02*
X25307349Y-29610000D01*
X25307349Y-31690000D02*
X25307349Y-33739000D01*
X25347349Y-27595000D02*
X25347349Y-29610000D01*
X25347349Y-31690000D02*
X25347349Y-33705000D01*
X25387349Y-27631000D02*
X25387349Y-29610000D01*
X25387349Y-31690000D02*
X25387349Y-33669000D01*
X25427349Y-27668000D02*
X25427349Y-33632000D01*
X25467349Y-27705000D02*
X25467349Y-33595000D01*
X25507349Y-27744000D02*
X25507349Y-33556000D01*
X25547349Y-27783000D02*
X25547349Y-33517000D01*
X25587349Y-27824000D02*
X25587349Y-33476000D01*
X25627349Y-27866000D02*
X25627349Y-33434000D01*
X25667349Y-27909000D02*
X25667349Y-33391000D01*
X25707349Y-27954000D02*
X25707349Y-33346000D01*
X25747349Y-27999000D02*
X25747349Y-33301000D01*
X25787349Y-28046000D02*
X25787349Y-33254000D01*
X25827349Y-28095000D02*
X25827349Y-33205000D01*
X25867349Y-28145000D02*
X25867349Y-33155000D01*
X25907349Y-28197000D02*
X25907349Y-33103000D01*
X25947349Y-28250000D02*
X25947349Y-33050000D01*
X25987349Y-28306000D02*
X25987349Y-32994000D01*
X26027349Y-28363000D02*
X26027349Y-32937000D01*
X26067349Y-28423000D02*
X26067349Y-32877000D01*
X26107349Y-28485000D02*
X26107349Y-32815000D01*
X26147349Y-28549000D02*
X26147349Y-32751000D01*
X26187349Y-28616000D02*
X26187349Y-32684000D01*
X26227349Y-28686000D02*
X26227349Y-32614000D01*
X26267349Y-28760000D02*
X26267349Y-32540000D01*
X26307349Y-28837000D02*
X26307349Y-32463000D01*
X26347349Y-28919000D02*
X26347349Y-32381000D01*
X26387349Y-29006000D02*
X26387349Y-32294000D01*
X26427349Y-29098000D02*
X26427349Y-32202000D01*
X26467349Y-29197000D02*
X26467349Y-32103000D01*
X26507349Y-29304000D02*
X26507349Y-31996000D01*
X26547349Y-29422000D02*
X26547349Y-31878000D01*
X26587349Y-29553000D02*
X26587349Y-31747000D01*
X26627349Y-29703000D02*
X26627349Y-31597000D01*
X26667349Y-29882000D02*
X26667349Y-31418000D01*
X26707349Y-30117000D02*
X26707349Y-31183000D01*
X26747349Y-30650000D02*
G75*
G02*
X18507349Y-30650000I-4120000J0D01*
G01*
X18507349Y-30650000D02*
G75*
G02*
X26747349Y-30650000I4120000J0D01*
G01*
%TO.C,R8*%
D11*
X73130000Y-42536500D02*
X73130000Y-39163500D01*
X76330000Y-42536500D02*
X76330000Y-39163500D01*
%TO.C,J1*%
D12*
X14780000Y-17300000D02*
X14780000Y-25600000D01*
X14780000Y-25600000D02*
X27630000Y-25600000D01*
X27630000Y-17300000D02*
X14780000Y-17300000D01*
X27630000Y-25600000D02*
X30480000Y-23050000D01*
X30480000Y-19900000D02*
X27630000Y-17300000D01*
X30480000Y-23050000D02*
X30480000Y-19900000D01*
%TO.C,Q1*%
X25730000Y-38200000D02*
X25730000Y-42500000D01*
X30930000Y-42500000D02*
X30930000Y-38200000D01*
X31183297Y-37860000D02*
X30853297Y-37620000D01*
X31183297Y-37380000D01*
X31183297Y-37860000D01*
G36*
X31183297Y-37860000D02*
G01*
X30853297Y-37620000D01*
X31183297Y-37380000D01*
X31183297Y-37860000D01*
G37*
%TO.C,C19*%
X57412651Y-31863000D02*
X57412651Y-30797000D01*
X57452651Y-32098000D02*
X57452651Y-30562000D01*
X57492651Y-32277000D02*
X57492651Y-30383000D01*
X57532651Y-32427000D02*
X57532651Y-30233000D01*
X57572651Y-32558000D02*
X57572651Y-30102000D01*
X57612651Y-32676000D02*
X57612651Y-29984000D01*
X57652651Y-32783000D02*
X57652651Y-29877000D01*
X57692651Y-32882000D02*
X57692651Y-29778000D01*
X57732651Y-32974000D02*
X57732651Y-29686000D01*
X57772651Y-33061000D02*
X57772651Y-29599000D01*
X57812651Y-33143000D02*
X57812651Y-29517000D01*
X57852651Y-33220000D02*
X57852651Y-29440000D01*
X57892651Y-33294000D02*
X57892651Y-29366000D01*
X57932651Y-33364000D02*
X57932651Y-29296000D01*
X57972651Y-33431000D02*
X57972651Y-29229000D01*
X58012651Y-33495000D02*
X58012651Y-29165000D01*
X58052651Y-33557000D02*
X58052651Y-29103000D01*
X58092651Y-33617000D02*
X58092651Y-29043000D01*
X58132651Y-33674000D02*
X58132651Y-28986000D01*
X58172651Y-33730000D02*
X58172651Y-28930000D01*
X58212651Y-33783000D02*
X58212651Y-28877000D01*
X58252651Y-33835000D02*
X58252651Y-28825000D01*
X58292651Y-33885000D02*
X58292651Y-28775000D01*
X58332651Y-33934000D02*
X58332651Y-28726000D01*
X58372651Y-33981000D02*
X58372651Y-28679000D01*
X58412651Y-34026000D02*
X58412651Y-28634000D01*
X58452651Y-34071000D02*
X58452651Y-28589000D01*
X58492651Y-34114000D02*
X58492651Y-28546000D01*
X58532651Y-34156000D02*
X58532651Y-28504000D01*
X58572651Y-34197000D02*
X58572651Y-28463000D01*
X58612651Y-34236000D02*
X58612651Y-28424000D01*
X58652651Y-34275000D02*
X58652651Y-28385000D01*
X58692651Y-34312000D02*
X58692651Y-28348000D01*
X58732651Y-30290000D02*
X58732651Y-28311000D01*
X58732651Y-34349000D02*
X58732651Y-32370000D01*
X58772651Y-30290000D02*
X58772651Y-28275000D01*
X58772651Y-34385000D02*
X58772651Y-32370000D01*
X58812651Y-30290000D02*
X58812651Y-28241000D01*
X58812651Y-34419000D02*
X58812651Y-32370000D01*
X58852651Y-30290000D02*
X58852651Y-28207000D01*
X58852651Y-34453000D02*
X58852651Y-32370000D01*
X58892651Y-30290000D02*
X58892651Y-28174000D01*
X58892651Y-34486000D02*
X58892651Y-32370000D01*
X58932651Y-30290000D02*
X58932651Y-28142000D01*
X58932651Y-34518000D02*
X58932651Y-32370000D01*
X58972651Y-30290000D02*
X58972651Y-28111000D01*
X58972651Y-34549000D02*
X58972651Y-32370000D01*
X59012651Y-30290000D02*
X59012651Y-28080000D01*
X59012651Y-34580000D02*
X59012651Y-32370000D01*
X59052651Y-30290000D02*
X59052651Y-28050000D01*
X59052651Y-34610000D02*
X59052651Y-32370000D01*
X59092651Y-30290000D02*
X59092651Y-28021000D01*
X59092651Y-34639000D02*
X59092651Y-32370000D01*
X59132651Y-30290000D02*
X59132651Y-27993000D01*
X59132651Y-34667000D02*
X59132651Y-32370000D01*
X59172651Y-30290000D02*
X59172651Y-27965000D01*
X59172651Y-34695000D02*
X59172651Y-32370000D01*
X59212651Y-30290000D02*
X59212651Y-27938000D01*
X59212651Y-34722000D02*
X59212651Y-32370000D01*
X59252651Y-30290000D02*
X59252651Y-27912000D01*
X59252651Y-34748000D02*
X59252651Y-32370000D01*
X59292651Y-30290000D02*
X59292651Y-27887000D01*
X59292651Y-34773000D02*
X59292651Y-32370000D01*
X59332651Y-30290000D02*
X59332651Y-27862000D01*
X59332651Y-34798000D02*
X59332651Y-32370000D01*
X59372651Y-30290000D02*
X59372651Y-27837000D01*
X59372651Y-34823000D02*
X59372651Y-32370000D01*
X59412651Y-30290000D02*
X59412651Y-27814000D01*
X59412651Y-34846000D02*
X59412651Y-32370000D01*
X59452651Y-30290000D02*
X59452651Y-27791000D01*
X59452651Y-34869000D02*
X59452651Y-32370000D01*
X59492651Y-30290000D02*
X59492651Y-27768000D01*
X59492651Y-34892000D02*
X59492651Y-32370000D01*
X59532651Y-30290000D02*
X59532651Y-27746000D01*
X59532651Y-34914000D02*
X59532651Y-32370000D01*
X59572651Y-30290000D02*
X59572651Y-27725000D01*
X59572651Y-34935000D02*
X59572651Y-32370000D01*
X59612651Y-30290000D02*
X59612651Y-27704000D01*
X59612651Y-34956000D02*
X59612651Y-32370000D01*
X59652651Y-30290000D02*
X59652651Y-27684000D01*
X59652651Y-34976000D02*
X59652651Y-32370000D01*
X59692651Y-30290000D02*
X59692651Y-27664000D01*
X59692651Y-34996000D02*
X59692651Y-32370000D01*
X59732651Y-30290000D02*
X59732651Y-27645000D01*
X59732651Y-35015000D02*
X59732651Y-32370000D01*
X59772651Y-30290000D02*
X59772651Y-27626000D01*
X59772651Y-35034000D02*
X59772651Y-32370000D01*
X59812651Y-30290000D02*
X59812651Y-27608000D01*
X59812651Y-35052000D02*
X59812651Y-32370000D01*
X59852651Y-30290000D02*
X59852651Y-27590000D01*
X59852651Y-35070000D02*
X59852651Y-32370000D01*
X59892651Y-30290000D02*
X59892651Y-27573000D01*
X59892651Y-35087000D02*
X59892651Y-32370000D01*
X59932651Y-30290000D02*
X59932651Y-27557000D01*
X59932651Y-35103000D02*
X59932651Y-32370000D01*
X59972651Y-30290000D02*
X59972651Y-27541000D01*
X59972651Y-35119000D02*
X59972651Y-32370000D01*
X60012651Y-30290000D02*
X60012651Y-27525000D01*
X60012651Y-35135000D02*
X60012651Y-32370000D01*
X60052651Y-30290000D02*
X60052651Y-27510000D01*
X60052651Y-35150000D02*
X60052651Y-32370000D01*
X60092651Y-30290000D02*
X60092651Y-27495000D01*
X60092651Y-35165000D02*
X60092651Y-32370000D01*
X60132651Y-30290000D02*
X60132651Y-27481000D01*
X60132651Y-35179000D02*
X60132651Y-32370000D01*
X60172651Y-30290000D02*
X60172651Y-27467000D01*
X60172651Y-35193000D02*
X60172651Y-32370000D01*
X60212651Y-30290000D02*
X60212651Y-27454000D01*
X60212651Y-35206000D02*
X60212651Y-32370000D01*
X60252651Y-30290000D02*
X60252651Y-27441000D01*
X60252651Y-35219000D02*
X60252651Y-32370000D01*
X60292651Y-30290000D02*
X60292651Y-27429000D01*
X60292651Y-35231000D02*
X60292651Y-32370000D01*
X60332651Y-30290000D02*
X60332651Y-27417000D01*
X60332651Y-35243000D02*
X60332651Y-32370000D01*
X60372651Y-30290000D02*
X60372651Y-27405000D01*
X60372651Y-35255000D02*
X60372651Y-32370000D01*
X60412651Y-30290000D02*
X60412651Y-27394000D01*
X60412651Y-35266000D02*
X60412651Y-32370000D01*
X60452651Y-30290000D02*
X60452651Y-27383000D01*
X60452651Y-35277000D02*
X60452651Y-32370000D01*
X60492651Y-30290000D02*
X60492651Y-27373000D01*
X60492651Y-35287000D02*
X60492651Y-32370000D01*
X60532651Y-30290000D02*
X60532651Y-27363000D01*
X60532651Y-35297000D02*
X60532651Y-32370000D01*
X60572651Y-30290000D02*
X60572651Y-27354000D01*
X60572651Y-35306000D02*
X60572651Y-32370000D01*
X60612651Y-30290000D02*
X60612651Y-27345000D01*
X60612651Y-35315000D02*
X60612651Y-32370000D01*
X60652651Y-30290000D02*
X60652651Y-27337000D01*
X60652651Y-35323000D02*
X60652651Y-32370000D01*
X60692651Y-30290000D02*
X60692651Y-27328000D01*
X60692651Y-35332000D02*
X60692651Y-32370000D01*
X60732651Y-30290000D02*
X60732651Y-27321000D01*
X60732651Y-35339000D02*
X60732651Y-32370000D01*
X60772651Y-30290000D02*
X60772651Y-27313000D01*
X60772651Y-35347000D02*
X60772651Y-32370000D01*
X60812651Y-35353000D02*
X60812651Y-27307000D01*
X60852651Y-35360000D02*
X60852651Y-27300000D01*
X60892651Y-35366000D02*
X60892651Y-27294000D01*
X60932651Y-35372000D02*
X60932651Y-27288000D01*
X60972651Y-35377000D02*
X60972651Y-27283000D01*
X61012651Y-35382000D02*
X61012651Y-27278000D01*
X61052651Y-35386000D02*
X61052651Y-27274000D01*
X61092651Y-35391000D02*
X61092651Y-27269000D01*
X61132651Y-35394000D02*
X61132651Y-27266000D01*
X61172651Y-35398000D02*
X61172651Y-27262000D01*
X61212651Y-35400000D02*
X61212651Y-27260000D01*
X61252651Y-35403000D02*
X61252651Y-27257000D01*
X61292651Y-35405000D02*
X61292651Y-27255000D01*
X61332651Y-35407000D02*
X61332651Y-27253000D01*
X61372651Y-35408000D02*
X61372651Y-27252000D01*
X61412651Y-35409000D02*
X61412651Y-27251000D01*
X61452651Y-35410000D02*
X61452651Y-27250000D01*
X61492651Y-35410000D02*
X61492651Y-27250000D01*
X65502349Y-34045000D02*
X65502349Y-33245000D01*
X65902349Y-33645000D02*
X65102349Y-33645000D01*
X65612651Y-31330000D02*
G75*
G02*
X57372651Y-31330000I-4120000J0D01*
G01*
X57372651Y-31330000D02*
G75*
G02*
X65612651Y-31330000I4120000J0D01*
G01*
%TO.C,C20*%
X70420302Y-29015000D02*
X71220302Y-29015000D01*
X70820302Y-28615000D02*
X70820302Y-29415000D01*
X74830000Y-27250000D02*
X74830000Y-35410000D01*
X74870000Y-27250000D02*
X74870000Y-35410000D01*
X74910000Y-27251000D02*
X74910000Y-35409000D01*
X74950000Y-27252000D02*
X74950000Y-35408000D01*
X74990000Y-27253000D02*
X74990000Y-35407000D01*
X75030000Y-27255000D02*
X75030000Y-35405000D01*
X75070000Y-27257000D02*
X75070000Y-35403000D01*
X75110000Y-27260000D02*
X75110000Y-35400000D01*
X75150000Y-27262000D02*
X75150000Y-35398000D01*
X75190000Y-27266000D02*
X75190000Y-35394000D01*
X75230000Y-27269000D02*
X75230000Y-35391000D01*
X75270000Y-27274000D02*
X75270000Y-35386000D01*
X75310000Y-27278000D02*
X75310000Y-35382000D01*
X75350000Y-27283000D02*
X75350000Y-35377000D01*
X75390000Y-27288000D02*
X75390000Y-35372000D01*
X75430000Y-27294000D02*
X75430000Y-35366000D01*
X75470000Y-27300000D02*
X75470000Y-35360000D01*
X75510000Y-27307000D02*
X75510000Y-35353000D01*
X75550000Y-27313000D02*
X75550000Y-30290000D01*
X75550000Y-32370000D02*
X75550000Y-35347000D01*
X75590000Y-27321000D02*
X75590000Y-30290000D01*
X75590000Y-32370000D02*
X75590000Y-35339000D01*
X75630000Y-27328000D02*
X75630000Y-30290000D01*
X75630000Y-32370000D02*
X75630000Y-35332000D01*
X75670000Y-27337000D02*
X75670000Y-30290000D01*
X75670000Y-32370000D02*
X75670000Y-35323000D01*
X75710000Y-27345000D02*
X75710000Y-30290000D01*
X75710000Y-32370000D02*
X75710000Y-35315000D01*
X75750000Y-27354000D02*
X75750000Y-30290000D01*
X75750000Y-32370000D02*
X75750000Y-35306000D01*
X75790000Y-27363000D02*
X75790000Y-30290000D01*
X75790000Y-32370000D02*
X75790000Y-35297000D01*
X75830000Y-27373000D02*
X75830000Y-30290000D01*
X75830000Y-32370000D02*
X75830000Y-35287000D01*
X75870000Y-27383000D02*
X75870000Y-30290000D01*
X75870000Y-32370000D02*
X75870000Y-35277000D01*
X75910000Y-27394000D02*
X75910000Y-30290000D01*
X75910000Y-32370000D02*
X75910000Y-35266000D01*
X75950000Y-27405000D02*
X75950000Y-30290000D01*
X75950000Y-32370000D02*
X75950000Y-35255000D01*
X75990000Y-27417000D02*
X75990000Y-30290000D01*
X75990000Y-32370000D02*
X75990000Y-35243000D01*
X76030000Y-27429000D02*
X76030000Y-30290000D01*
X76030000Y-32370000D02*
X76030000Y-35231000D01*
X76070000Y-27441000D02*
X76070000Y-30290000D01*
X76070000Y-32370000D02*
X76070000Y-35219000D01*
X76110000Y-27454000D02*
X76110000Y-30290000D01*
X76110000Y-32370000D02*
X76110000Y-35206000D01*
X76150000Y-27467000D02*
X76150000Y-30290000D01*
X76150000Y-32370000D02*
X76150000Y-35193000D01*
X76190000Y-27481000D02*
X76190000Y-30290000D01*
X76190000Y-32370000D02*
X76190000Y-35179000D01*
X76230000Y-27495000D02*
X76230000Y-30290000D01*
X76230000Y-32370000D02*
X76230000Y-35165000D01*
X76270000Y-27510000D02*
X76270000Y-30290000D01*
X76270000Y-32370000D02*
X76270000Y-35150000D01*
X76310000Y-27525000D02*
X76310000Y-30290000D01*
X76310000Y-32370000D02*
X76310000Y-35135000D01*
X76350000Y-27541000D02*
X76350000Y-30290000D01*
X76350000Y-32370000D02*
X76350000Y-35119000D01*
X76390000Y-27557000D02*
X76390000Y-30290000D01*
X76390000Y-32370000D02*
X76390000Y-35103000D01*
X76430000Y-27573000D02*
X76430000Y-30290000D01*
X76430000Y-32370000D02*
X76430000Y-35087000D01*
X76470000Y-27590000D02*
X76470000Y-30290000D01*
X76470000Y-32370000D02*
X76470000Y-35070000D01*
X76510000Y-27608000D02*
X76510000Y-30290000D01*
X76510000Y-32370000D02*
X76510000Y-35052000D01*
X76550000Y-27626000D02*
X76550000Y-30290000D01*
X76550000Y-32370000D02*
X76550000Y-35034000D01*
X76590000Y-27645000D02*
X76590000Y-30290000D01*
X76590000Y-32370000D02*
X76590000Y-35015000D01*
X76630000Y-27664000D02*
X76630000Y-30290000D01*
X76630000Y-32370000D02*
X76630000Y-34996000D01*
X76670000Y-27684000D02*
X76670000Y-30290000D01*
X76670000Y-32370000D02*
X76670000Y-34976000D01*
X76710000Y-27704000D02*
X76710000Y-30290000D01*
X76710000Y-32370000D02*
X76710000Y-34956000D01*
X76750000Y-27725000D02*
X76750000Y-30290000D01*
X76750000Y-32370000D02*
X76750000Y-34935000D01*
X76790000Y-27746000D02*
X76790000Y-30290000D01*
X76790000Y-32370000D02*
X76790000Y-34914000D01*
X76830000Y-27768000D02*
X76830000Y-30290000D01*
X76830000Y-32370000D02*
X76830000Y-34892000D01*
X76870000Y-27791000D02*
X76870000Y-30290000D01*
X76870000Y-32370000D02*
X76870000Y-34869000D01*
X76910000Y-27814000D02*
X76910000Y-30290000D01*
X76910000Y-32370000D02*
X76910000Y-34846000D01*
X76950000Y-27837000D02*
X76950000Y-30290000D01*
X76950000Y-32370000D02*
X76950000Y-34823000D01*
X76990000Y-27862000D02*
X76990000Y-30290000D01*
X76990000Y-32370000D02*
X76990000Y-34798000D01*
X77030000Y-27887000D02*
X77030000Y-30290000D01*
X77030000Y-32370000D02*
X77030000Y-34773000D01*
X77070000Y-27912000D02*
X77070000Y-30290000D01*
X77070000Y-32370000D02*
X77070000Y-34748000D01*
X77110000Y-27938000D02*
X77110000Y-30290000D01*
X77110000Y-32370000D02*
X77110000Y-34722000D01*
X77150000Y-27965000D02*
X77150000Y-30290000D01*
X77150000Y-32370000D02*
X77150000Y-34695000D01*
X77190000Y-27993000D02*
X77190000Y-30290000D01*
X77190000Y-32370000D02*
X77190000Y-34667000D01*
X77230000Y-28021000D02*
X77230000Y-30290000D01*
X77230000Y-32370000D02*
X77230000Y-34639000D01*
X77270000Y-28050000D02*
X77270000Y-30290000D01*
X77270000Y-32370000D02*
X77270000Y-34610000D01*
X77310000Y-28080000D02*
X77310000Y-30290000D01*
X77310000Y-32370000D02*
X77310000Y-34580000D01*
X77350000Y-28111000D02*
X77350000Y-30290000D01*
X77350000Y-32370000D02*
X77350000Y-34549000D01*
X77390000Y-28142000D02*
X77390000Y-30290000D01*
X77390000Y-32370000D02*
X77390000Y-34518000D01*
X77430000Y-28174000D02*
X77430000Y-30290000D01*
X77430000Y-32370000D02*
X77430000Y-34486000D01*
X77470000Y-28207000D02*
X77470000Y-30290000D01*
X77470000Y-32370000D02*
X77470000Y-34453000D01*
X77510000Y-28241000D02*
X77510000Y-30290000D01*
X77510000Y-32370000D02*
X77510000Y-34419000D01*
X77550000Y-28275000D02*
X77550000Y-30290000D01*
X77550000Y-32370000D02*
X77550000Y-34385000D01*
X77590000Y-28311000D02*
X77590000Y-30290000D01*
X77590000Y-32370000D02*
X77590000Y-34349000D01*
X77630000Y-28348000D02*
X77630000Y-34312000D01*
X77670000Y-28385000D02*
X77670000Y-34275000D01*
X77710000Y-28424000D02*
X77710000Y-34236000D01*
X77750000Y-28463000D02*
X77750000Y-34197000D01*
X77790000Y-28504000D02*
X77790000Y-34156000D01*
X77830000Y-28546000D02*
X77830000Y-34114000D01*
X77870000Y-28589000D02*
X77870000Y-34071000D01*
X77910000Y-28634000D02*
X77910000Y-34026000D01*
X77950000Y-28679000D02*
X77950000Y-33981000D01*
X77990000Y-28726000D02*
X77990000Y-33934000D01*
X78030000Y-28775000D02*
X78030000Y-33885000D01*
X78070000Y-28825000D02*
X78070000Y-33835000D01*
X78110000Y-28877000D02*
X78110000Y-33783000D01*
X78150000Y-28930000D02*
X78150000Y-33730000D01*
X78190000Y-28986000D02*
X78190000Y-33674000D01*
X78230000Y-29043000D02*
X78230000Y-33617000D01*
X78270000Y-29103000D02*
X78270000Y-33557000D01*
X78310000Y-29165000D02*
X78310000Y-33495000D01*
X78350000Y-29229000D02*
X78350000Y-33431000D01*
X78390000Y-29296000D02*
X78390000Y-33364000D01*
X78430000Y-29366000D02*
X78430000Y-33294000D01*
X78470000Y-29440000D02*
X78470000Y-33220000D01*
X78510000Y-29517000D02*
X78510000Y-33143000D01*
X78550000Y-29599000D02*
X78550000Y-33061000D01*
X78590000Y-29686000D02*
X78590000Y-32974000D01*
X78630000Y-29778000D02*
X78630000Y-32882000D01*
X78670000Y-29877000D02*
X78670000Y-32783000D01*
X78710000Y-29984000D02*
X78710000Y-32676000D01*
X78750000Y-30102000D02*
X78750000Y-32558000D01*
X78790000Y-30233000D02*
X78790000Y-32427000D01*
X78830000Y-30383000D02*
X78830000Y-32277000D01*
X78870000Y-30562000D02*
X78870000Y-32098000D01*
X78910000Y-30797000D02*
X78910000Y-31863000D01*
X78950000Y-31330000D02*
G75*
G02*
X70710000Y-31330000I-4120000J0D01*
G01*
X70710000Y-31330000D02*
G75*
G02*
X78950000Y-31330000I4120000J0D01*
G01*
%TO.C,D2*%
X35540000Y-54100000D02*
X31530000Y-54100000D01*
X35540000Y-56100000D02*
X31530000Y-56100000D01*
X35540000Y-56100000D02*
X35540000Y-54100000D01*
%TO.C,D3*%
X35290000Y-46850000D02*
X31280000Y-46850000D01*
X35290000Y-48850000D02*
X31280000Y-48850000D01*
X35290000Y-48850000D02*
X35290000Y-46850000D01*
%TO.C,D1*%
X23480000Y-51510000D02*
X23480000Y-47500000D01*
X23480000Y-51510000D02*
X25480000Y-51510000D01*
X25480000Y-51510000D02*
X25480000Y-47500000D01*
%TO.C,RV1*%
X68210000Y-52475000D02*
X73260000Y-52475000D01*
X68210000Y-62225000D02*
X68210000Y-52475000D01*
X73260000Y-52475000D02*
X73260000Y-62225000D01*
X73260000Y-62225000D02*
X68210000Y-62225000D01*
%TO.C,Q4*%
X52290000Y-36750000D02*
X52290000Y-41050000D01*
X57490000Y-41050000D02*
X57490000Y-36750000D01*
X52366703Y-41630000D02*
X52036703Y-41870000D01*
X52036703Y-41390000D01*
X52366703Y-41630000D01*
G36*
X52366703Y-41630000D02*
G01*
X52036703Y-41870000D01*
X52036703Y-41390000D01*
X52366703Y-41630000D01*
G37*
%TO.C,C15*%
D11*
X73370000Y-48875000D02*
X73370000Y-47795000D01*
X76090000Y-48875000D02*
X76090000Y-47795000D01*
%TO.C,Q3*%
D12*
X59780000Y-38850000D02*
X59780000Y-43150000D01*
X64980000Y-43150000D02*
X64980000Y-38850000D01*
X65233297Y-38510000D02*
X64903297Y-38270000D01*
X65233297Y-38030000D01*
X65233297Y-38510000D01*
G36*
X65233297Y-38510000D02*
G01*
X64903297Y-38270000D01*
X65233297Y-38030000D01*
X65233297Y-38510000D01*
G37*
%TO.C,J2*%
X60780000Y-17200000D02*
X60780000Y-25500000D01*
X60780000Y-25500000D02*
X73630000Y-25500000D01*
X73630000Y-17200000D02*
X60780000Y-17200000D01*
X73630000Y-25500000D02*
X76480000Y-22950000D01*
X76480000Y-19800000D02*
X73630000Y-17200000D01*
X76480000Y-22950000D02*
X76480000Y-19800000D01*
%TO.C,R12*%
D11*
X43790000Y-40386500D02*
X43790000Y-37013500D01*
X46990000Y-40386500D02*
X46990000Y-37013500D01*
%TO.C,C14*%
X66870000Y-48875000D02*
X66870000Y-47795000D01*
X69590000Y-48875000D02*
X69590000Y-47795000D01*
%TO.C,C9*%
X14620000Y-41060000D02*
X14620000Y-42140000D01*
X17340000Y-41060000D02*
X17340000Y-42140000D01*
%TO.C,Q2*%
D12*
X33790000Y-36750000D02*
X33790000Y-41050000D01*
X38990000Y-41050000D02*
X38990000Y-36750000D01*
X33866703Y-41630000D02*
X33536703Y-41870000D01*
X33536703Y-41390000D01*
X33866703Y-41630000D01*
G36*
X33866703Y-41630000D02*
G01*
X33536703Y-41870000D01*
X33536703Y-41390000D01*
X33866703Y-41630000D01*
G37*
%TO.C,C16*%
D11*
X59870000Y-47795000D02*
X59870000Y-48875000D01*
X62590000Y-47795000D02*
X62590000Y-48875000D01*
%TO.C,L1*%
D12*
X36430000Y-15690000D02*
X54350000Y-15690000D01*
X36430000Y-17850000D02*
X36430000Y-15690000D01*
X36430000Y-33110000D02*
X36430000Y-30950000D01*
X36430000Y-33110000D02*
X54350000Y-33110000D01*
X54350000Y-17850000D02*
X54350000Y-15690000D01*
X54350000Y-33110000D02*
X54350000Y-30950000D01*
D14*
X35645000Y-32000000D02*
G75*
G02*
X35335000Y-32000000I-155000J0D01*
G01*
X35335000Y-32000000D02*
G75*
G02*
X35645000Y-32000000I155000J0D01*
G01*
%TD*%
M02*
