%TF.GenerationSoftware,KiCad,Pcbnew,10.0.1*%
%TF.CreationDate,2026-09-24T01:01:45-05:00*%
%TF.ProjectId,ORCA-BOARD,4f524341-2d42-44f4-9152-442e6b696361,rev?*%
%TF.SameCoordinates,Original*%
%TF.FileFunction,Copper,L4,Bot*%
%TF.FilePolarity,Positive*%
%FSLAX46Y46*%
G04 Gerber Fmt 4.6, Leading zero omitted, Abs format (unit mm)*
G04 Created by KiCad (PCBNEW 10.0.1) date 2026-09-24 01:01:45*
%MOMM*%
%LPD*%
G01*
G04 APERTURE LIST*
G04 Aperture macros list*
%AMRoundRect*
0 Rectangle with rounded corners*
0 $1 Rounding radius*
0 $2 $3 $4 $5 $6 $7 $8 $9 X,Y pos of 4 corners*
0 Add a 4 corners polygon primitive as box body*
4,1,4,$2,$3,$4,$5,$6,$7,$8,$9,$2,$3,0*
0 Add four circle primitives for the rounded corners*
1,1,$1+$1,$2,$3*
1,1,$1+$1,$4,$5*
1,1,$1+$1,$6,$7*
1,1,$1+$1,$8,$9*
0 Add four rect primitives between the rounded corners*
20,1,$1+$1,$2,$3,$4,$5,0*
20,1,$1+$1,$4,$5,$6,$7,0*
20,1,$1+$1,$6,$7,$8,$9,0*
20,1,$1+$1,$8,$9,$2,$3,0*%
G04 Aperture macros list end*
%TA.AperFunction,ComponentPad*%
%ADD10C,0.600000*%
%TD*%
%TA.AperFunction,ComponentPad*%
%ADD11RoundRect,0.250000X-0.550000X-0.550000X0.550000X-0.550000X0.550000X0.550000X-0.550000X0.550000X0*%
%TD*%
%TA.AperFunction,ComponentPad*%
%ADD12C,1.600000*%
%TD*%
%TA.AperFunction,ComponentPad*%
%ADD13RoundRect,1.500000X1.500000X1.500000X-1.500000X1.500000X-1.500000X-1.500000X1.500000X-1.500000X0*%
%TD*%
%TA.AperFunction,ComponentPad*%
%ADD14C,6.000000*%
%TD*%
%TA.AperFunction,ComponentPad*%
%ADD15RoundRect,0.250000X0.550000X0.550000X-0.550000X0.550000X-0.550000X-0.550000X0.550000X-0.550000X0*%
%TD*%
%TA.AperFunction,ComponentPad*%
%ADD16C,1.440000*%
%TD*%
%TA.AperFunction,ViaPad*%
%ADD17C,0.800000*%
%TD*%
%TA.AperFunction,ViaPad*%
%ADD18C,0.600000*%
%TD*%
%TA.AperFunction,Conductor*%
%ADD19C,0.199800*%
%TD*%
%TA.AperFunction,Conductor*%
%ADD20C,0.200000*%
%TD*%
%TA.AperFunction,Conductor*%
%ADD21C,0.300000*%
%TD*%
G04 APERTURE END LIST*
D10*
%TO.P,U1,29,EPAD_29*%
%TO.N,GNDA*%
X41830000Y-52650000D03*
X43130000Y-52650000D03*
X44430000Y-52650000D03*
X45730000Y-52650000D03*
X47030000Y-52650000D03*
X48330000Y-52650000D03*
X49630000Y-52650000D03*
X41830000Y-51350000D03*
X43130000Y-51350000D03*
X44430000Y-51350000D03*
X45730000Y-51350000D03*
X47030000Y-51350000D03*
X48330000Y-51350000D03*
X49630000Y-51350000D03*
X41830000Y-50050000D03*
X43130000Y-50050000D03*
X44430000Y-50050000D03*
X45730000Y-50050000D03*
X47030000Y-50050000D03*
X48330000Y-50050000D03*
X49630000Y-50050000D03*
%TD*%
D11*
%TO.P,C2,1*%
%TO.N,VBUS*%
X20877349Y-30650000D03*
D12*
%TO.P,C2,2*%
%TO.N,GND*%
X24377349Y-30650000D03*
%TD*%
D13*
%TO.P,J1,1,Pin_1_1*%
%TO.N,GND*%
X26230000Y-21450000D03*
D14*
%TO.P,J1,2,Pin_2_2*%
%TO.N,VBUS*%
X19030000Y-21450000D03*
%TD*%
D15*
%TO.P,C19,1*%
%TO.N,/VOUT*%
X63242651Y-31330000D03*
D12*
%TO.P,C19,2*%
%TO.N,GND*%
X59742651Y-31330000D03*
%TD*%
D11*
%TO.P,C20,1*%
%TO.N,/VOUT*%
X73080000Y-31330000D03*
D12*
%TO.P,C20,2*%
%TO.N,GND*%
X76580000Y-31330000D03*
%TD*%
D16*
%TO.P,RV1,1,1_1*%
%TO.N,Net-(R14-Pad2)*%
X70730000Y-54810000D03*
%TO.P,RV1,2,2_2*%
%TO.N,GNDA*%
X70730000Y-57350000D03*
%TO.P,RV1,3,3_3*%
X70730000Y-59890000D03*
%TD*%
D13*
%TO.P,J2,1,Pin_1_1*%
%TO.N,GND*%
X72230000Y-21350000D03*
D14*
%TO.P,J2,2,Pin_2_2*%
%TO.N,/VOUT*%
X65030000Y-21350000D03*
%TD*%
D17*
%TO.N,GND*%
X74730000Y-51100000D03*
X68230000Y-51100000D03*
X28460000Y-53399900D03*
D18*
X45540659Y-45850000D03*
D17*
X68230000Y-43100000D03*
X61230000Y-51100000D03*
X45390000Y-38580000D03*
X18940000Y-44720000D03*
X15990000Y-44680000D03*
X45380000Y-29770000D03*
X58626041Y-43906041D03*
%TO.N,VBUS*%
X14600000Y-31120000D03*
X16100000Y-27120000D03*
X17600000Y-33120000D03*
X17600000Y-37120000D03*
X16100000Y-37120000D03*
X14600000Y-29120000D03*
X14600000Y-35120000D03*
X17600000Y-31120000D03*
X14600000Y-27120000D03*
X17600000Y-29120000D03*
X14600000Y-37120000D03*
X16100000Y-35120000D03*
X14600000Y-33120000D03*
X37480000Y-57100000D03*
X17600000Y-27120000D03*
X16100000Y-33120000D03*
X16100000Y-29120000D03*
X17600000Y-35120000D03*
X16100000Y-31120000D03*
%TO.N,GNDA*%
X47330000Y-55850000D03*
X24730000Y-54800000D03*
%TO.N,/FB*%
X55730000Y-55100000D03*
X50480000Y-60100000D03*
%TO.N,/EN*%
X36730000Y-52600000D03*
X21355000Y-52225000D03*
%TO.N,Net-(U1-VIN)*%
X37480000Y-55350000D03*
X20980000Y-56600000D03*
%TO.N,/MODE*%
X17230000Y-51100000D03*
X27480000Y-55600000D03*
%TO.N,/DITH*%
X29980000Y-57600000D03*
X16980000Y-56850000D03*
%TO.N,/RT*%
X34980000Y-58850000D03*
X16730000Y-62850000D03*
%TO.N,/SS*%
X31730000Y-61350000D03*
X45230000Y-59600000D03*
%TO.N,/VOUT*%
X68360000Y-29950000D03*
X71360000Y-34660000D03*
X71360000Y-37660000D03*
X69860000Y-33160000D03*
X69860000Y-28450000D03*
X50980000Y-58350000D03*
X71360000Y-36160000D03*
X68360000Y-37660000D03*
X68360000Y-33160000D03*
X68360000Y-31450000D03*
X69860000Y-34660000D03*
X68360000Y-34660000D03*
X69860000Y-29950000D03*
X66730000Y-55350000D03*
X43792377Y-45137700D03*
X67230000Y-60100000D03*
X69860000Y-37660000D03*
X69860000Y-36160000D03*
X68360000Y-28450000D03*
X68360000Y-36160000D03*
X69860000Y-31450000D03*
%TO.N,/SW2*%
X54890000Y-38300000D03*
X51230000Y-46100000D03*
%TO.N,/HDRV2*%
X52830000Y-45250000D03*
X58530000Y-40050000D03*
%TO.N,/BOOT2*%
X49730000Y-38850000D03*
X35400000Y-50340000D03*
X47860137Y-45076000D03*
%TO.N,/LDRV2*%
X56290000Y-43450000D03*
X46450522Y-45026870D03*
%TO.N,/VCC*%
X35889314Y-46059314D03*
X45348916Y-44810812D03*
%TO.N,/LDRV1*%
X40980000Y-41600000D03*
X42125666Y-45145000D03*
%TO.N,/BOOT1*%
X33480000Y-51350000D03*
X41230000Y-39100000D03*
X39480000Y-45350000D03*
%TO.N,/HDRV1*%
X32730000Y-44100000D03*
X24480000Y-37850000D03*
%TO.N,/SW1*%
X36390000Y-38300000D03*
X37230000Y-48450000D03*
%TO.N,Net-(Q2-S-Pad1)*%
X54730000Y-45250000D03*
X50130000Y-41450000D03*
%TD*%
%TO.N,GNDA*%
D19*
X24730000Y-54800000D02*
X36780000Y-54800000D01*
X70730000Y-57350000D02*
X70730000Y-59890000D01*
X38930000Y-52650000D02*
X41830000Y-52650000D01*
X70730000Y-57350000D02*
X60980000Y-57350000D01*
X54980000Y-51350000D02*
X49630000Y-51350000D01*
X60980000Y-57350000D02*
X54980000Y-51350000D01*
X36780000Y-54800000D02*
X38930000Y-52650000D01*
%TO.N,/FB*%
X55105000Y-57475000D02*
X52480000Y-60100000D01*
X52480000Y-60100000D02*
X50480000Y-60100000D01*
X55105000Y-55725000D02*
X55105000Y-57475000D01*
X55730000Y-55100000D02*
X55105000Y-55725000D01*
%TO.N,/EN*%
X21730000Y-52600000D02*
X21355000Y-52225000D01*
X36730000Y-52600000D02*
X21730000Y-52600000D01*
%TO.N,Net-(U1-VIN)*%
D20*
X37480000Y-55350000D02*
X36230000Y-56600000D01*
X36230000Y-56600000D02*
X20980000Y-56600000D01*
%TO.N,/MODE*%
D19*
X27480000Y-55600000D02*
X21730000Y-55600000D01*
X21730000Y-55600000D02*
X17230000Y-51100000D01*
%TO.N,/DITH*%
X29980000Y-57600000D02*
X17730000Y-57600000D01*
X17730000Y-57600000D02*
X16980000Y-56850000D01*
%TO.N,/RT*%
X33230000Y-58850000D02*
X34980000Y-58850000D01*
X16730000Y-62850000D02*
X29230000Y-62850000D01*
X29230000Y-62850000D02*
X33230000Y-58850000D01*
%TO.N,/SS*%
X32230000Y-61850000D02*
X31730000Y-61350000D01*
X42980000Y-61850000D02*
X32230000Y-61850000D01*
X45230000Y-59600000D02*
X42980000Y-61850000D01*
%TO.N,/HDRV2*%
D21*
X53830000Y-44250000D02*
X57080000Y-44250000D01*
X58530000Y-42800000D02*
X58530000Y-40050000D01*
X52830000Y-45250000D02*
X53830000Y-44250000D01*
X57080000Y-44250000D02*
X58530000Y-42800000D01*
%TO.N,/BOOT2*%
X49730000Y-38850000D02*
X48877995Y-38850000D01*
X46105000Y-46600000D02*
X42365000Y-46600000D01*
X47655001Y-45049999D02*
X46105000Y-46600000D01*
X36280000Y-48056497D02*
X37871497Y-46465000D01*
X36280000Y-49870000D02*
X36280000Y-48056497D01*
X48877995Y-38850000D02*
X42942377Y-44785618D01*
X47860137Y-45076000D02*
X47834136Y-45049999D01*
X37871497Y-46465000D02*
X42230000Y-46465000D01*
X47834136Y-45049999D02*
X47655001Y-45049999D01*
X42942377Y-44785618D02*
X42942377Y-45752623D01*
X35810000Y-50340000D02*
X36280000Y-49870000D01*
X42942377Y-45752623D02*
X42230000Y-46465000D01*
X42365000Y-46600000D02*
X42230000Y-46465000D01*
X35400000Y-50340000D02*
X35810000Y-50340000D01*
%TO.N,/LDRV2*%
X46450522Y-45026870D02*
X47877392Y-43600000D01*
X56140000Y-43600000D02*
X56290000Y-43450000D01*
X47877392Y-43600000D02*
X56140000Y-43600000D01*
%TO.N,/LDRV1*%
X40980000Y-41600000D02*
X42230000Y-42850000D01*
X42230000Y-42850000D02*
X42230000Y-45040666D01*
X42230000Y-45040666D02*
X42125666Y-45145000D01*
%TO.N,/BOOT1*%
X39480000Y-40850000D02*
X41230000Y-39100000D01*
X39080000Y-45750000D02*
X37330000Y-45750000D01*
X33480000Y-49600000D02*
X33480000Y-51350000D01*
X39480000Y-45350000D02*
X39080000Y-45750000D01*
X39480000Y-45350000D02*
X39480000Y-40850000D01*
X37330000Y-45750000D02*
X33480000Y-49600000D01*
%TO.N,/HDRV1*%
X32730000Y-43100000D02*
X29730000Y-40100000D01*
X24480000Y-38850000D02*
X24480000Y-37850000D01*
X29730000Y-40100000D02*
X25730000Y-40100000D01*
X25730000Y-40100000D02*
X24480000Y-38850000D01*
X32730000Y-44100000D02*
X32730000Y-43100000D01*
%TO.N,Net-(Q2-S-Pad1)*%
D20*
X59930000Y-39250000D02*
X59330000Y-38650000D01*
X59930000Y-44250000D02*
X59930000Y-39250000D01*
X57130000Y-38650000D02*
X54330000Y-41450000D01*
X55130000Y-44850000D02*
X59330000Y-44850000D01*
X59330000Y-38650000D02*
X57130000Y-38650000D01*
X54730000Y-45250000D02*
X55130000Y-44850000D01*
X54330000Y-41450000D02*
X50130000Y-41450000D01*
X59330000Y-44850000D02*
X59930000Y-44250000D01*
%TD*%
%TA.AperFunction,Conductor*%
%TO.N,GNDA*%
G36*
X52873039Y-47119685D02*
G01*
X52918794Y-47172489D01*
X52930000Y-47224000D01*
X52930000Y-56226000D01*
X52910315Y-56293039D01*
X52857511Y-56338794D01*
X52806000Y-56350000D01*
X38654000Y-56350000D01*
X38586961Y-56330315D01*
X38541206Y-56277511D01*
X38530000Y-56226000D01*
X38530000Y-47224000D01*
X38549685Y-47156961D01*
X38602489Y-47111206D01*
X38654000Y-47100000D01*
X52806000Y-47100000D01*
X52873039Y-47119685D01*
G37*
%TD.AperFunction*%
%TD*%
M02*
