ISO-10303-21;
HEADER;
FILE_DESCRIPTION((''),'2;1');
FILE_NAME('C-1-2176421-2','2021-06-18T15:05:13',('workeradm'),(
'TE Connectivity Ltd.'),'CREO PARAMETRIC BY PTC INC, 2019292',
'CREO PARAMETRIC BY PTC INC, 2019292','');
FILE_SCHEMA(('AUTOMOTIVE_DESIGN { 1 0 10303 214 1 1 1 1 }'));
ENDSEC;
DATA;
#134=CARTESIAN_POINT('',(3.16E0,-3.1E-1,0.E0));
#135=DIRECTION('',(0.E0,0.E0,1.E0));
#136=DIRECTION('',(0.E0,-1.E0,0.E0));
#137=AXIS2_PLACEMENT_3D('',#134,#135,#136);
#139=DIRECTION('',(1.E0,0.E0,0.E0));
#140=VECTOR('',#139,8.6E-1);
#141=CARTESIAN_POINT('',(2.3E0,-3.3E-1,0.E0));
#142=LINE('',#141,#140);
#143=DIRECTION('',(0.E0,1.E0,0.E0));
#144=VECTOR('',#143,2.E-2);
#145=CARTESIAN_POINT('',(2.3E0,-3.5E-1,0.E0));
#146=LINE('',#145,#144);
#147=DIRECTION('',(1.E0,0.E0,0.E0));
#148=VECTOR('',#147,4.6E0);
#149=CARTESIAN_POINT('',(-2.3E0,-3.5E-1,0.E0));
#150=LINE('',#149,#148);
#151=DIRECTION('',(0.E0,-1.E0,0.E0));
#152=VECTOR('',#151,2.E-2);
#153=CARTESIAN_POINT('',(-2.3E0,-3.3E-1,0.E0));
#154=LINE('',#153,#152);
#155=DIRECTION('',(1.E0,0.E0,0.E0));
#156=VECTOR('',#155,8.6E-1);
#157=CARTESIAN_POINT('',(-3.16E0,-3.3E-1,0.E0));
#158=LINE('',#157,#156);
#159=CARTESIAN_POINT('',(-3.16E0,-3.1E-1,0.E0));
#160=DIRECTION('',(0.E0,0.E0,1.E0));
#161=DIRECTION('',(-1.E0,0.E0,0.E0));
#162=AXIS2_PLACEMENT_3D('',#159,#160,#161);
#164=DIRECTION('',(0.E0,-1.E0,0.E0));
#165=VECTOR('',#164,6.2E-1);
#166=CARTESIAN_POINT('',(-3.18E0,3.1E-1,0.E0));
#167=LINE('',#166,#165);
#168=CARTESIAN_POINT('',(-3.16E0,3.1E-1,0.E0));
#169=DIRECTION('',(0.E0,0.E0,1.E0));
#170=DIRECTION('',(0.E0,1.E0,0.E0));
#171=AXIS2_PLACEMENT_3D('',#168,#169,#170);
#173=DIRECTION('',(-1.E0,0.E0,0.E0));
#174=VECTOR('',#173,8.6E-1);
#175=CARTESIAN_POINT('',(-2.3E0,3.3E-1,0.E0));
#176=LINE('',#175,#174);
#177=DIRECTION('',(0.E0,-1.E0,0.E0));
#178=VECTOR('',#177,2.E-2);
#179=CARTESIAN_POINT('',(-2.3E0,3.5E-1,0.E0));
#180=LINE('',#179,#178);
#181=DIRECTION('',(-1.E0,0.E0,0.E0));
#182=VECTOR('',#181,4.6E0);
#183=CARTESIAN_POINT('',(2.3E0,3.5E-1,0.E0));
#184=LINE('',#183,#182);
#185=DIRECTION('',(0.E0,1.E0,0.E0));
#186=VECTOR('',#185,2.E-2);
#187=CARTESIAN_POINT('',(2.3E0,3.3E-1,0.E0));
#188=LINE('',#187,#186);
#189=DIRECTION('',(-1.E0,0.E0,0.E0));
#190=VECTOR('',#189,8.6E-1);
#191=CARTESIAN_POINT('',(3.16E0,3.3E-1,0.E0));
#192=LINE('',#191,#190);
#193=CARTESIAN_POINT('',(3.16E0,3.1E-1,0.E0));
#194=DIRECTION('',(0.E0,0.E0,1.E0));
#195=DIRECTION('',(1.E0,0.E0,0.E0));
#196=AXIS2_PLACEMENT_3D('',#193,#194,#195);
#198=DIRECTION('',(0.E0,1.E0,0.E0));
#199=VECTOR('',#198,6.2E-1);
#200=CARTESIAN_POINT('',(3.18E0,-3.1E-1,0.E0));
#201=LINE('',#200,#199);
#202=CARTESIAN_POINT('',(3.16E0,-3.1E-1,-2.5E-2));
#203=DIRECTION('',(0.E0,0.E0,-1.E0));
#204=DIRECTION('',(1.E0,0.E0,0.E0));
#205=AXIS2_PLACEMENT_3D('',#202,#203,#204);
#207=DIRECTION('',(0.E0,0.E0,-1.E0));
#208=VECTOR('',#207,2.5E-2);
#209=CARTESIAN_POINT('',(3.16E0,-3.3E-1,0.E0));
#210=LINE('',#209,#208);
#211=DIRECTION('',(-1.E0,0.E0,0.E0));
#212=VECTOR('',#211,8.5E-1);
#213=CARTESIAN_POINT('',(3.16E0,-3.3E-1,-2.5E-2));
#214=LINE('',#213,#212);
#215=DIRECTION('',(0.E0,0.E0,1.E0));
#216=VECTOR('',#215,3.15E0);
#217=CARTESIAN_POINT('',(2.31E0,-3.3E-1,-3.175E0));
#218=LINE('',#217,#216);
#219=DIRECTION('',(-1.E0,0.E0,0.E0));
#220=VECTOR('',#219,8.5E-1);
#221=CARTESIAN_POINT('',(3.16E0,-3.3E-1,-3.175E0));
#222=LINE('',#221,#220);
#223=DIRECTION('',(0.E0,0.E0,-1.E0));
#224=VECTOR('',#223,2.5E-2);
#225=CARTESIAN_POINT('',(3.16E0,-3.3E-1,-3.175E0));
#226=LINE('',#225,#224);
#227=DIRECTION('',(0.E0,0.E0,-1.E0));
#228=VECTOR('',#227,3.2E0);
#229=CARTESIAN_POINT('',(2.3E0,-3.3E-1,0.E0));
#230=LINE('',#229,#228);
#231=DIRECTION('',(0.E0,1.E0,0.E0));
#232=VECTOR('',#231,2.E-2);
#233=CARTESIAN_POINT('',(2.31E0,3.3E-1,-2.5E-2));
#234=LINE('',#233,#232);
#235=CARTESIAN_POINT('',(3.16E0,3.1E-1,-2.5E-2));
#236=DIRECTION('',(0.E0,0.E0,1.E0));
#237=DIRECTION('',(1.E0,0.E0,0.E0));
#238=AXIS2_PLACEMENT_3D('',#235,#236,#237);
#240=CARTESIAN_POINT('',(3.16E0,-3.1E-1,-2.5E-2));
#241=DIRECTION('',(0.E0,0.E0,1.E0));
#242=DIRECTION('',(0.E0,-1.E0,0.E0));
#243=AXIS2_PLACEMENT_3D('',#240,#241,#242);
#245=DIRECTION('',(0.E0,1.E0,0.E0));
#246=VECTOR('',#245,2.E-2);
#247=CARTESIAN_POINT('',(2.31E0,-3.5E-1,-2.5E-2));
#248=LINE('',#247,#246);
#249=DIRECTION('',(0.E0,0.E0,-1.E0));
#250=VECTOR('',#249,2.5E-2);
#251=CARTESIAN_POINT('',(3.18E0,-3.1E-1,0.E0));
#252=LINE('',#251,#250);
#253=DIRECTION('',(0.E0,0.E0,-1.E0));
#254=VECTOR('',#253,2.5E-2);
#255=CARTESIAN_POINT('',(3.18E0,3.1E-1,0.E0));
#256=LINE('',#255,#254);
#257=DIRECTION('',(0.E0,1.E0,0.E0));
#258=VECTOR('',#257,6.2E-1);
#259=CARTESIAN_POINT('',(3.18E0,-3.1E-1,-2.5E-2));
#260=LINE('',#259,#258);
#261=DIRECTION('',(1.776356839400E-14,0.E0,-1.E0));
#262=VECTOR('',#261,2.5E-2);
#263=CARTESIAN_POINT('',(3.18E0,-3.1E-1,-3.175E0));
#264=LINE('',#263,#262);
#265=DIRECTION('',(0.E0,1.E0,0.E0));
#266=VECTOR('',#265,6.2E-1);
#267=CARTESIAN_POINT('',(3.18E0,-3.1E-1,-3.175E0));
#268=LINE('',#267,#266);
#269=DIRECTION('',(1.776356839400E-14,0.E0,-1.E0));
#270=VECTOR('',#269,2.5E-2);
#271=CARTESIAN_POINT('',(3.18E0,3.1E-1,-3.175E0));
#272=LINE('',#271,#270);
#273=CARTESIAN_POINT('',(3.16E0,3.1E-1,-2.5E-2));
#274=DIRECTION('',(0.E0,0.E0,-1.E0));
#275=DIRECTION('',(0.E0,1.E0,0.E0));
#276=AXIS2_PLACEMENT_3D('',#273,#274,#275);
#278=DIRECTION('',(0.E0,0.E0,-1.E0));
#279=VECTOR('',#278,2.5E-2);
#280=CARTESIAN_POINT('',(3.16E0,3.3E-1,0.E0));
#281=LINE('',#280,#279);
#282=DIRECTION('',(0.E0,0.E0,-1.E0));
#283=VECTOR('',#282,2.5E-2);
#284=CARTESIAN_POINT('',(3.16E0,3.3E-1,-3.175E0));
#285=LINE('',#284,#283);
#286=DIRECTION('',(-1.E0,0.E0,0.E0));
#287=VECTOR('',#286,8.5E-1);
#288=CARTESIAN_POINT('',(3.16E0,3.3E-1,-3.175E0));
#289=LINE('',#288,#287);
#290=DIRECTION('',(0.E0,0.E0,1.E0));
#291=VECTOR('',#290,3.15E0);
#292=CARTESIAN_POINT('',(2.31E0,3.3E-1,-3.175E0));
#293=LINE('',#292,#291);
#294=DIRECTION('',(-1.E0,0.E0,0.E0));
#295=VECTOR('',#294,8.5E-1);
#296=CARTESIAN_POINT('',(3.16E0,3.3E-1,-2.5E-2));
#297=LINE('',#296,#295);
#298=DIRECTION('',(0.E0,0.E0,-1.E0));
#299=VECTOR('',#298,3.2E0);
#300=CARTESIAN_POINT('',(2.3E0,3.3E-1,0.E0));
#301=LINE('',#300,#299);
#302=DIRECTION('',(0.E0,0.E0,-1.E0));
#303=VECTOR('',#302,3.2E0);
#304=CARTESIAN_POINT('',(2.3E0,3.5E-1,0.E0));
#305=LINE('',#304,#303);
#306=DIRECTION('',(0.E0,0.E0,-1.E0));
#307=VECTOR('',#306,3.2E0);
#308=CARTESIAN_POINT('',(-2.3E0,3.5E-1,0.E0));
#309=LINE('',#308,#307);
#310=DIRECTION('',(0.E0,0.E0,-1.E0));
#311=VECTOR('',#310,2.5E-2);
#312=CARTESIAN_POINT('',(-3.16E0,3.3E-1,0.E0));
#313=LINE('',#312,#311);
#314=DIRECTION('',(1.E0,0.E0,0.E0));
#315=VECTOR('',#314,8.5E-1);
#316=CARTESIAN_POINT('',(-3.16E0,3.3E-1,-2.5E-2));
#317=LINE('',#316,#315);
#318=DIRECTION('',(0.E0,0.E0,-1.E0));
#319=VECTOR('',#318,3.15E0);
#320=CARTESIAN_POINT('',(-2.31E0,3.3E-1,-2.5E-2));
#321=LINE('',#320,#319);
#322=DIRECTION('',(1.E0,0.E0,0.E0));
#323=VECTOR('',#322,8.5E-1);
#324=CARTESIAN_POINT('',(-3.16E0,3.3E-1,-3.175E0));
#325=LINE('',#324,#323);
#326=DIRECTION('',(0.E0,0.E0,-1.E0));
#327=VECTOR('',#326,2.5E-2);
#328=CARTESIAN_POINT('',(-3.16E0,3.3E-1,-3.175E0));
#329=LINE('',#328,#327);
#330=DIRECTION('',(0.E0,0.E0,-1.E0));
#331=VECTOR('',#330,3.2E0);
#332=CARTESIAN_POINT('',(-2.3E0,3.3E-1,0.E0));
#333=LINE('',#332,#331);
#334=CARTESIAN_POINT('',(-3.16E0,3.1E-1,-2.5E-2));
#335=DIRECTION('',(0.E0,0.E0,-1.E0));
#336=DIRECTION('',(-1.E0,0.E0,0.E0));
#337=AXIS2_PLACEMENT_3D('',#334,#335,#336);
#339=DIRECTION('',(1.776356839400E-14,0.E0,-1.E0));
#340=VECTOR('',#339,2.5E-2);
#341=CARTESIAN_POINT('',(-3.18E0,-3.1E-1,0.E0));
#342=LINE('',#341,#340);
#343=DIRECTION('',(0.E0,-1.E0,0.E0));
#344=VECTOR('',#343,6.2E-1);
#345=CARTESIAN_POINT('',(-3.18E0,3.1E-1,-2.5E-2));
#346=LINE('',#345,#344);
#347=DIRECTION('',(1.776356839400E-14,0.E0,-1.E0));
#348=VECTOR('',#347,2.5E-2);
#349=CARTESIAN_POINT('',(-3.18E0,3.1E-1,0.E0));
#350=LINE('',#349,#348);
#351=DIRECTION('',(0.E0,0.E0,-1.E0));
#352=VECTOR('',#351,2.5E-2);
#353=CARTESIAN_POINT('',(-3.18E0,3.1E-1,-3.175E0));
#354=LINE('',#353,#352);
#355=DIRECTION('',(0.E0,-1.E0,0.E0));
#356=VECTOR('',#355,6.2E-1);
#357=CARTESIAN_POINT('',(-3.18E0,3.1E-1,-3.175E0));
#358=LINE('',#357,#356);
#359=DIRECTION('',(0.E0,0.E0,-1.E0));
#360=VECTOR('',#359,2.5E-2);
#361=CARTESIAN_POINT('',(-3.18E0,-3.1E-1,-3.175E0));
#362=LINE('',#361,#360);
#363=CARTESIAN_POINT('',(-3.16E0,-3.1E-1,-2.5E-2));
#364=DIRECTION('',(0.E0,0.E0,-1.E0));
#365=DIRECTION('',(2.220446049250E-14,-1.E0,0.E0));
#366=AXIS2_PLACEMENT_3D('',#363,#364,#365);
#368=DIRECTION('',(0.E0,0.E0,-1.E0));
#369=VECTOR('',#368,2.5E-2);
#370=CARTESIAN_POINT('',(-3.16E0,-3.3E-1,0.E0));
#371=LINE('',#370,#369);
#372=DIRECTION('',(0.E0,0.E0,-1.E0));
#373=VECTOR('',#372,2.5E-2);
#374=CARTESIAN_POINT('',(-3.16E0,-3.3E-1,-3.175E0));
#375=LINE('',#374,#373);
#376=DIRECTION('',(1.E0,0.E0,0.E0));
#377=VECTOR('',#376,8.5E-1);
#378=CARTESIAN_POINT('',(-3.16E0,-3.3E-1,-3.175E0));
#379=LINE('',#378,#377);
#380=DIRECTION('',(0.E0,0.E0,-1.E0));
#381=VECTOR('',#380,3.15E0);
#382=CARTESIAN_POINT('',(-2.31E0,-3.3E-1,-2.5E-2));
#383=LINE('',#382,#381);
#384=DIRECTION('',(1.E0,0.E0,0.E0));
#385=VECTOR('',#384,8.5E-1);
#386=CARTESIAN_POINT('',(-3.16E0,-3.3E-1,-2.5E-2));
#387=LINE('',#386,#385);
#388=DIRECTION('',(0.E0,0.E0,-1.E0));
#389=VECTOR('',#388,3.2E0);
#390=CARTESIAN_POINT('',(-2.3E0,-3.3E-1,0.E0));
#391=LINE('',#390,#389);
#392=DIRECTION('',(0.E0,0.E0,-1.E0));
#393=VECTOR('',#392,3.2E0);
#394=CARTESIAN_POINT('',(-2.3E0,-3.5E-1,0.E0));
#395=LINE('',#394,#393);
#396=DIRECTION('',(0.E0,0.E0,-1.E0));
#397=VECTOR('',#396,3.2E0);
#398=CARTESIAN_POINT('',(2.3E0,-3.5E-1,0.E0));
#399=LINE('',#398,#397);
#400=CARTESIAN_POINT('',(-3.16E0,3.1E-1,-3.2E0));
#401=DIRECTION('',(0.E0,0.E0,-1.E0));
#402=DIRECTION('',(-1.E0,0.E0,0.E0));
#403=AXIS2_PLACEMENT_3D('',#400,#401,#402);
#405=DIRECTION('',(0.E0,-1.E0,0.E0));
#406=VECTOR('',#405,6.2E-1);
#407=CARTESIAN_POINT('',(-3.18E0,3.1E-1,-3.2E0));
#408=LINE('',#407,#406);
#409=CARTESIAN_POINT('',(-3.16E0,-3.1E-1,-3.2E0));
#410=DIRECTION('',(0.E0,0.E0,-1.E0));
#411=DIRECTION('',(0.E0,-1.E0,0.E0));
#412=AXIS2_PLACEMENT_3D('',#409,#410,#411);
#414=DIRECTION('',(1.E0,0.E0,0.E0));
#415=VECTOR('',#414,8.6E-1);
#416=CARTESIAN_POINT('',(-3.16E0,-3.3E-1,-3.2E0));
#417=LINE('',#416,#415);
#418=DIRECTION('',(0.E0,-1.E0,0.E0));
#419=VECTOR('',#418,2.E-2);
#420=CARTESIAN_POINT('',(-2.3E0,-3.3E-1,-3.2E0));
#421=LINE('',#420,#419);
#422=DIRECTION('',(1.E0,0.E0,0.E0));
#423=VECTOR('',#422,4.6E0);
#424=CARTESIAN_POINT('',(-2.3E0,-3.5E-1,-3.2E0));
#425=LINE('',#424,#423);
#426=DIRECTION('',(0.E0,1.E0,0.E0));
#427=VECTOR('',#426,2.E-2);
#428=CARTESIAN_POINT('',(2.3E0,-3.5E-1,-3.2E0));
#429=LINE('',#428,#427);
#430=DIRECTION('',(1.E0,0.E0,0.E0));
#431=VECTOR('',#430,8.6E-1);
#432=CARTESIAN_POINT('',(2.3E0,-3.3E-1,-3.2E0));
#433=LINE('',#432,#431);
#434=CARTESIAN_POINT('',(3.16E0,-3.1E-1,-3.2E0));
#435=DIRECTION('',(0.E0,0.E0,-1.E0));
#436=DIRECTION('',(1.E0,0.E0,0.E0));
#437=AXIS2_PLACEMENT_3D('',#434,#435,#436);
#439=DIRECTION('',(0.E0,1.E0,0.E0));
#440=VECTOR('',#439,6.2E-1);
#441=CARTESIAN_POINT('',(3.18E0,-3.1E-1,-3.2E0));
#442=LINE('',#441,#440);
#443=CARTESIAN_POINT('',(3.16E0,3.1E-1,-3.2E0));
#444=DIRECTION('',(0.E0,0.E0,-1.E0));
#445=DIRECTION('',(0.E0,1.E0,0.E0));
#446=AXIS2_PLACEMENT_3D('',#443,#444,#445);
#448=DIRECTION('',(-1.E0,0.E0,0.E0));
#449=VECTOR('',#448,8.6E-1);
#450=CARTESIAN_POINT('',(3.16E0,3.3E-1,-3.2E0));
#451=LINE('',#450,#449);
#452=DIRECTION('',(0.E0,1.E0,0.E0));
#453=VECTOR('',#452,2.E-2);
#454=CARTESIAN_POINT('',(2.3E0,3.3E-1,-3.2E0));
#455=LINE('',#454,#453);
#456=DIRECTION('',(-1.E0,0.E0,0.E0));
#457=VECTOR('',#456,4.6E0);
#458=CARTESIAN_POINT('',(2.3E0,3.5E-1,-3.2E0));
#459=LINE('',#458,#457);
#460=DIRECTION('',(0.E0,-1.E0,0.E0));
#461=VECTOR('',#460,2.E-2);
#462=CARTESIAN_POINT('',(-2.3E0,3.5E-1,-3.2E0));
#463=LINE('',#462,#461);
#464=DIRECTION('',(-1.E0,0.E0,0.E0));
#465=VECTOR('',#464,8.6E-1);
#466=CARTESIAN_POINT('',(-2.3E0,3.3E-1,-3.2E0));
#467=LINE('',#466,#465);
#468=CARTESIAN_POINT('',(-3.16E0,3.1E-1,-3.175E0));
#469=DIRECTION('',(0.E0,0.E0,1.E0));
#470=DIRECTION('',(0.E0,1.E0,0.E0));
#471=AXIS2_PLACEMENT_3D('',#468,#469,#470);
#473=DIRECTION('',(0.E0,1.E0,0.E0));
#474=VECTOR('',#473,2.E-2);
#475=CARTESIAN_POINT('',(-2.31E0,3.3E-1,-3.175E0));
#476=LINE('',#475,#474);
#477=CARTESIAN_POINT('',(-3.16E0,3.1E-1,-3.175E0));
#478=DIRECTION('',(0.E0,0.E0,-1.E0));
#479=DIRECTION('',(-1.E0,0.E0,0.E0));
#480=AXIS2_PLACEMENT_3D('',#477,#478,#479);
#482=CARTESIAN_POINT('',(-3.16E0,-3.1E-1,-3.175E0));
#483=DIRECTION('',(0.E0,0.E0,-1.E0));
#484=DIRECTION('',(0.E0,-1.E0,0.E0));
#485=AXIS2_PLACEMENT_3D('',#482,#483,#484);
#487=DIRECTION('',(0.E0,1.E0,0.E0));
#488=VECTOR('',#487,2.E-2);
#489=CARTESIAN_POINT('',(-2.31E0,-3.5E-1,-3.175E0));
#490=LINE('',#489,#488);
#491=CARTESIAN_POINT('',(-3.16E0,-3.1E-1,-3.175E0));
#492=DIRECTION('',(0.E0,0.E0,1.E0));
#493=DIRECTION('',(-1.E0,0.E0,0.E0));
#494=AXIS2_PLACEMENT_3D('',#491,#492,#493);
#496=DIRECTION('',(0.E0,1.E0,0.E0));
#497=VECTOR('',#496,2.E-2);
#498=CARTESIAN_POINT('',(-2.31E0,3.3E-1,-2.5E-2));
#499=LINE('',#498,#497);
#500=DIRECTION('',(0.E0,1.E0,0.E0));
#501=VECTOR('',#500,2.E-2);
#502=CARTESIAN_POINT('',(-2.31E0,-3.5E-1,-2.5E-2));
#503=LINE('',#502,#501);
#504=CARTESIAN_POINT('',(-3.16E0,-3.1E-1,-2.5E-2));
#505=DIRECTION('',(0.E0,0.E0,1.E0));
#506=DIRECTION('',(-1.E0,1.110223024625E-14,0.E0));
#507=AXIS2_PLACEMENT_3D('',#504,#505,#506);
#509=DIRECTION('',(0.E0,1.E0,0.E0));
#510=VECTOR('',#509,6.2E-1);
#511=CARTESIAN_POINT('',(-3.2E0,-3.1E-1,-2.5E-2));
#512=LINE('',#511,#510);
#513=CARTESIAN_POINT('',(-3.16E0,3.1E-1,-2.5E-2));
#514=DIRECTION('',(0.E0,0.E0,1.E0));
#515=DIRECTION('',(1.110223024625E-14,1.E0,0.E0));
#516=AXIS2_PLACEMENT_3D('',#513,#514,#515);
#518=DIRECTION('',(0.E0,0.E0,-1.E0));
#519=VECTOR('',#518,3.15E0);
#520=CARTESIAN_POINT('',(-3.16E0,-3.5E-1,-2.5E-2));
#521=LINE('',#520,#519);
#522=DIRECTION('',(1.E0,0.E0,0.E0));
#523=VECTOR('',#522,8.5E-1);
#524=CARTESIAN_POINT('',(-3.16E0,-3.5E-1,-2.5E-2));
#525=LINE('',#524,#523);
#526=DIRECTION('',(0.E0,0.E0,-1.E0));
#527=VECTOR('',#526,3.15E0);
#528=CARTESIAN_POINT('',(-2.31E0,-3.5E-1,-2.5E-2));
#529=LINE('',#528,#527);
#530=DIRECTION('',(-1.E0,0.E0,0.E0));
#531=VECTOR('',#530,8.5E-1);
#532=CARTESIAN_POINT('',(-2.31E0,-3.5E-1,-3.175E0));
#533=LINE('',#532,#531);
#534=DIRECTION('',(0.E0,0.E0,1.E0));
#535=VECTOR('',#534,3.15E0);
#536=CARTESIAN_POINT('',(3.16E0,-3.5E-1,-3.175E0));
#537=LINE('',#536,#535);
#538=DIRECTION('',(-1.E0,0.E0,0.E0));
#539=VECTOR('',#538,8.5E-1);
#540=CARTESIAN_POINT('',(3.16E0,-3.5E-1,-3.175E0));
#541=LINE('',#540,#539);
#542=DIRECTION('',(0.E0,0.E0,1.E0));
#543=VECTOR('',#542,3.15E0);
#544=CARTESIAN_POINT('',(2.31E0,-3.5E-1,-3.175E0));
#545=LINE('',#544,#543);
#546=DIRECTION('',(1.E0,0.E0,0.E0));
#547=VECTOR('',#546,8.5E-1);
#548=CARTESIAN_POINT('',(2.31E0,-3.5E-1,-2.5E-2));
#549=LINE('',#548,#547);
#550=DIRECTION('',(0.E0,0.E0,-1.E0));
#551=VECTOR('',#550,3.15E0);
#552=CARTESIAN_POINT('',(-3.2E0,-3.1E-1,-2.5E-2));
#553=LINE('',#552,#551);
#554=DIRECTION('',(0.E0,1.E0,0.E0));
#555=VECTOR('',#554,6.2E-1);
#556=CARTESIAN_POINT('',(-3.2E0,-3.1E-1,-3.175E0));
#557=LINE('',#556,#555);
#558=DIRECTION('',(0.E0,0.E0,1.E0));
#559=VECTOR('',#558,3.15E0);
#560=CARTESIAN_POINT('',(-3.2E0,3.1E-1,-3.175E0));
#561=LINE('',#560,#559);
#562=DIRECTION('',(0.E0,0.E0,1.E0));
#563=VECTOR('',#562,3.15E0);
#564=CARTESIAN_POINT('',(-3.16E0,3.5E-1,-3.175E0));
#565=LINE('',#564,#563);
#566=DIRECTION('',(-1.E0,0.E0,0.E0));
#567=VECTOR('',#566,8.5E-1);
#568=CARTESIAN_POINT('',(-2.31E0,3.5E-1,-3.175E0));
#569=LINE('',#568,#567);
#570=DIRECTION('',(0.E0,0.E0,-1.E0));
#571=VECTOR('',#570,3.15E0);
#572=CARTESIAN_POINT('',(-2.31E0,3.5E-1,-2.5E-2));
#573=LINE('',#572,#571);
#574=DIRECTION('',(1.E0,0.E0,0.E0));
#575=VECTOR('',#574,8.5E-1);
#576=CARTESIAN_POINT('',(-3.16E0,3.5E-1,-2.5E-2));
#577=LINE('',#576,#575);
#578=DIRECTION('',(0.E0,0.E0,-1.E0));
#579=VECTOR('',#578,3.15E0);
#580=CARTESIAN_POINT('',(3.16E0,3.5E-1,-2.5E-2));
#581=LINE('',#580,#579);
#582=DIRECTION('',(1.E0,0.E0,0.E0));
#583=VECTOR('',#582,8.5E-1);
#584=CARTESIAN_POINT('',(2.31E0,3.5E-1,-2.5E-2));
#585=LINE('',#584,#583);
#586=DIRECTION('',(0.E0,0.E0,1.E0));
#587=VECTOR('',#586,3.15E0);
#588=CARTESIAN_POINT('',(2.31E0,3.5E-1,-3.175E0));
#589=LINE('',#588,#587);
#590=DIRECTION('',(-1.E0,0.E0,0.E0));
#591=VECTOR('',#590,8.5E-1);
#592=CARTESIAN_POINT('',(3.16E0,3.5E-1,-3.175E0));
#593=LINE('',#592,#591);
#594=CARTESIAN_POINT('',(3.16E0,-3.1E-1,-3.175E0));
#595=DIRECTION('',(0.E0,0.E0,-1.E0));
#596=DIRECTION('',(1.E0,0.E0,0.E0));
#597=AXIS2_PLACEMENT_3D('',#594,#595,#596);
#599=DIRECTION('',(0.E0,1.E0,0.E0));
#600=VECTOR('',#599,6.2E-1);
#601=CARTESIAN_POINT('',(3.2E0,-3.1E-1,-3.175E0));
#602=LINE('',#601,#600);
#603=CARTESIAN_POINT('',(3.16E0,3.1E-1,-3.175E0));
#604=DIRECTION('',(0.E0,0.E0,-1.E0));
#605=DIRECTION('',(-1.110223024625E-14,1.E0,0.E0));
#606=AXIS2_PLACEMENT_3D('',#603,#604,#605);
#608=CARTESIAN_POINT('',(3.16E0,3.1E-1,-3.175E0));
#609=DIRECTION('',(0.E0,0.E0,1.E0));
#610=DIRECTION('',(1.E0,0.E0,0.E0));
#611=AXIS2_PLACEMENT_3D('',#608,#609,#610);
#613=CARTESIAN_POINT('',(3.16E0,-3.1E-1,-3.175E0));
#614=DIRECTION('',(0.E0,0.E0,1.E0));
#615=DIRECTION('',(-2.220446049250E-14,-1.E0,0.E0));
#616=AXIS2_PLACEMENT_3D('',#613,#614,#615);
#618=DIRECTION('',(-2.220446049250E-14,1.E0,0.E0));
#619=VECTOR('',#618,2.E-2);
#620=CARTESIAN_POINT('',(2.31E0,-3.5E-1,-3.175E0));
#621=LINE('',#620,#619);
#622=DIRECTION('',(0.E0,1.E0,0.E0));
#623=VECTOR('',#622,2.E-2);
#624=CARTESIAN_POINT('',(2.31E0,3.3E-1,-3.175E0));
#625=LINE('',#624,#623);
#626=DIRECTION('',(0.E0,0.E0,1.E0));
#627=VECTOR('',#626,3.15E0);
#628=CARTESIAN_POINT('',(3.2E0,-3.1E-1,-3.175E0));
#629=LINE('',#628,#627);
#630=DIRECTION('',(0.E0,1.E0,0.E0));
#631=VECTOR('',#630,6.2E-1);
#632=CARTESIAN_POINT('',(3.2E0,-3.1E-1,-2.5E-2));
#633=LINE('',#632,#631);
#634=DIRECTION('',(0.E0,0.E0,-1.E0));
#635=VECTOR('',#634,3.15E0);
#636=CARTESIAN_POINT('',(3.2E0,3.1E-1,-2.5E-2));
#637=LINE('',#636,#635);
#638=CARTESIAN_POINT('',(-2.3E0,3.5E-1,0.E0));
#639=CARTESIAN_POINT('',(-2.3E0,3.3E-1,0.E0));
#640=VERTEX_POINT('',#638);
#641=VERTEX_POINT('',#639);
#642=CARTESIAN_POINT('',(-2.3E0,-3.3E-1,0.E0));
#643=CARTESIAN_POINT('',(-2.3E0,-3.5E-1,0.E0));
#644=VERTEX_POINT('',#642);
#645=VERTEX_POINT('',#643);
#646=CARTESIAN_POINT('',(2.3E0,-3.5E-1,0.E0));
#647=VERTEX_POINT('',#646);
#648=CARTESIAN_POINT('',(2.3E0,-3.3E-1,0.E0));
#649=VERTEX_POINT('',#648);
#650=CARTESIAN_POINT('',(2.3E0,3.3E-1,0.E0));
#651=CARTESIAN_POINT('',(2.3E0,3.5E-1,0.E0));
#652=VERTEX_POINT('',#650);
#653=VERTEX_POINT('',#651);
#654=CARTESIAN_POINT('',(-2.3E0,3.5E-1,-3.2E0));
#655=CARTESIAN_POINT('',(-2.3E0,3.3E-1,-3.2E0));
#656=VERTEX_POINT('',#654);
#657=VERTEX_POINT('',#655);
#658=CARTESIAN_POINT('',(-2.3E0,-3.3E-1,-3.2E0));
#659=CARTESIAN_POINT('',(-2.3E0,-3.5E-1,-3.2E0));
#660=VERTEX_POINT('',#658);
#661=VERTEX_POINT('',#659);
#662=CARTESIAN_POINT('',(2.3E0,-3.5E-1,-3.2E0));
#663=VERTEX_POINT('',#662);
#664=CARTESIAN_POINT('',(2.3E0,-3.3E-1,-3.2E0));
#665=VERTEX_POINT('',#664);
#666=CARTESIAN_POINT('',(2.3E0,3.3E-1,-3.2E0));
#667=CARTESIAN_POINT('',(2.3E0,3.5E-1,-3.2E0));
#668=VERTEX_POINT('',#666);
#669=VERTEX_POINT('',#667);
#670=CARTESIAN_POINT('',(-2.31E0,-3.5E-1,-2.5E-2));
#671=CARTESIAN_POINT('',(-2.31E0,-3.5E-1,-3.175E0));
#672=VERTEX_POINT('',#670);
#673=VERTEX_POINT('',#671);
#674=CARTESIAN_POINT('',(2.31E0,-3.5E-1,-3.175E0));
#675=CARTESIAN_POINT('',(2.31E0,-3.5E-1,-2.5E-2));
#676=VERTEX_POINT('',#674);
#677=VERTEX_POINT('',#675);
#678=CARTESIAN_POINT('',(-2.31E0,3.5E-1,-2.5E-2));
#679=CARTESIAN_POINT('',(-2.31E0,3.5E-1,-3.175E0));
#680=VERTEX_POINT('',#678);
#681=VERTEX_POINT('',#679);
#682=CARTESIAN_POINT('',(2.31E0,3.5E-1,-3.175E0));
#683=CARTESIAN_POINT('',(2.31E0,3.5E-1,-2.5E-2));
#684=VERTEX_POINT('',#682);
#685=VERTEX_POINT('',#683);
#686=CARTESIAN_POINT('',(-2.31E0,3.3E-1,-2.5E-2));
#687=CARTESIAN_POINT('',(-2.31E0,3.3E-1,-3.175E0));
#688=VERTEX_POINT('',#686);
#689=VERTEX_POINT('',#687);
#690=CARTESIAN_POINT('',(-2.31E0,-3.3E-1,-2.5E-2));
#691=CARTESIAN_POINT('',(-2.31E0,-3.3E-1,-3.175E0));
#692=VERTEX_POINT('',#690);
#693=VERTEX_POINT('',#691);
#694=CARTESIAN_POINT('',(2.31E0,-3.3E-1,-3.175E0));
#695=CARTESIAN_POINT('',(2.31E0,-3.3E-1,-2.5E-2));
#696=VERTEX_POINT('',#694);
#697=VERTEX_POINT('',#695);
#698=CARTESIAN_POINT('',(2.31E0,3.3E-1,-3.175E0));
#699=CARTESIAN_POINT('',(2.31E0,3.3E-1,-2.5E-2));
#700=VERTEX_POINT('',#698);
#701=VERTEX_POINT('',#699);
#702=CARTESIAN_POINT('',(3.16E0,-3.3E-1,0.E0));
#703=CARTESIAN_POINT('',(3.16E0,-3.3E-1,-2.5E-2));
#704=VERTEX_POINT('',#702);
#705=VERTEX_POINT('',#703);
#706=CARTESIAN_POINT('',(3.18E0,-3.1E-1,0.E0));
#707=VERTEX_POINT('',#706);
#708=CARTESIAN_POINT('',(3.18E0,-3.1E-1,-2.5E-2));
#709=VERTEX_POINT('',#708);
#710=CARTESIAN_POINT('',(3.18E0,3.1E-1,0.E0));
#711=CARTESIAN_POINT('',(3.18E0,3.1E-1,-2.5E-2));
#712=VERTEX_POINT('',#710);
#713=VERTEX_POINT('',#711);
#714=CARTESIAN_POINT('',(3.16E0,3.3E-1,0.E0));
#715=VERTEX_POINT('',#714);
#716=CARTESIAN_POINT('',(3.16E0,3.3E-1,-2.5E-2));
#717=VERTEX_POINT('',#716);
#718=CARTESIAN_POINT('',(-3.18E0,-3.1E-1,0.E0));
#719=CARTESIAN_POINT('',(-3.18E0,-3.1E-1,-2.5E-2));
#720=VERTEX_POINT('',#718);
#721=VERTEX_POINT('',#719);
#722=CARTESIAN_POINT('',(-3.16E0,-3.3E-1,0.E0));
#723=VERTEX_POINT('',#722);
#724=CARTESIAN_POINT('',(-3.16E0,-3.3E-1,-2.5E-2));
#725=VERTEX_POINT('',#724);
#726=CARTESIAN_POINT('',(-3.16E0,3.3E-1,0.E0));
#727=CARTESIAN_POINT('',(-3.16E0,3.3E-1,-2.5E-2));
#728=VERTEX_POINT('',#726);
#729=VERTEX_POINT('',#727);
#730=CARTESIAN_POINT('',(-3.18E0,3.1E-1,0.E0));
#731=VERTEX_POINT('',#730);
#732=CARTESIAN_POINT('',(-3.18E0,3.1E-1,-2.5E-2));
#733=VERTEX_POINT('',#732);
#734=CARTESIAN_POINT('',(-3.18E0,3.1E-1,-3.2E0));
#735=CARTESIAN_POINT('',(-3.16E0,3.3E-1,-3.2E0));
#736=VERTEX_POINT('',#734);
#737=VERTEX_POINT('',#735);
#738=CARTESIAN_POINT('',(-3.16E0,3.3E-1,-3.175E0));
#739=VERTEX_POINT('',#738);
#740=CARTESIAN_POINT('',(-3.18E0,3.1E-1,-3.175E0));
#741=VERTEX_POINT('',#740);
#742=CARTESIAN_POINT('',(-3.16E0,-3.3E-1,-3.2E0));
#743=CARTESIAN_POINT('',(-3.18E0,-3.1E-1,-3.2E0));
#744=VERTEX_POINT('',#742);
#745=VERTEX_POINT('',#743);
#746=CARTESIAN_POINT('',(-3.18E0,-3.1E-1,-3.175E0));
#747=VERTEX_POINT('',#746);
#748=CARTESIAN_POINT('',(-3.16E0,-3.3E-1,-3.175E0));
#749=VERTEX_POINT('',#748);
#750=CARTESIAN_POINT('',(3.18E0,-3.1E-1,-3.2E0));
#751=CARTESIAN_POINT('',(3.16E0,-3.3E-1,-3.2E0));
#752=VERTEX_POINT('',#750);
#753=VERTEX_POINT('',#751);
#754=CARTESIAN_POINT('',(3.16E0,-3.3E-1,-3.175E0));
#755=VERTEX_POINT('',#754);
#756=CARTESIAN_POINT('',(3.18E0,-3.1E-1,-3.175E0));
#757=VERTEX_POINT('',#756);
#758=CARTESIAN_POINT('',(3.16E0,3.3E-1,-3.2E0));
#759=CARTESIAN_POINT('',(3.18E0,3.1E-1,-3.2E0));
#760=VERTEX_POINT('',#758);
#761=VERTEX_POINT('',#759);
#762=CARTESIAN_POINT('',(3.18E0,3.1E-1,-3.175E0));
#763=VERTEX_POINT('',#762);
#764=CARTESIAN_POINT('',(3.16E0,3.3E-1,-3.175E0));
#765=VERTEX_POINT('',#764);
#766=CARTESIAN_POINT('',(-3.16E0,-3.5E-1,-3.175E0));
#767=CARTESIAN_POINT('',(-3.2E0,-3.1E-1,-3.175E0));
#768=VERTEX_POINT('',#766);
#769=VERTEX_POINT('',#767);
#770=CARTESIAN_POINT('',(-3.2E0,-3.1E-1,-2.5E-2));
#771=VERTEX_POINT('',#770);
#772=CARTESIAN_POINT('',(-3.16E0,-3.5E-1,-2.5E-2));
#773=VERTEX_POINT('',#772);
#774=CARTESIAN_POINT('',(-3.16E0,3.5E-1,-2.5E-2));
#775=CARTESIAN_POINT('',(-3.2E0,3.1E-1,-2.5E-2));
#776=VERTEX_POINT('',#774);
#777=VERTEX_POINT('',#775);
#778=CARTESIAN_POINT('',(-3.2E0,3.1E-1,-3.175E0));
#779=VERTEX_POINT('',#778);
#780=CARTESIAN_POINT('',(-3.16E0,3.5E-1,-3.175E0));
#781=VERTEX_POINT('',#780);
#782=CARTESIAN_POINT('',(3.16E0,-3.5E-1,-2.5E-2));
#783=CARTESIAN_POINT('',(3.2E0,-3.1E-1,-2.5E-2));
#784=VERTEX_POINT('',#782);
#785=VERTEX_POINT('',#783);
#786=CARTESIAN_POINT('',(3.2E0,-3.1E-1,-3.175E0));
#787=VERTEX_POINT('',#786);
#788=CARTESIAN_POINT('',(3.16E0,-3.5E-1,-3.175E0));
#789=VERTEX_POINT('',#788);
#790=CARTESIAN_POINT('',(3.16E0,3.5E-1,-3.175E0));
#791=CARTESIAN_POINT('',(3.2E0,3.1E-1,-3.175E0));
#792=VERTEX_POINT('',#790);
#793=VERTEX_POINT('',#791);
#794=CARTESIAN_POINT('',(3.2E0,3.1E-1,-2.5E-2));
#795=VERTEX_POINT('',#794);
#796=CARTESIAN_POINT('',(3.16E0,3.5E-1,-2.5E-2));
#797=VERTEX_POINT('',#796);
#798=CARTESIAN_POINT('',(0.E0,0.E0,0.E0));
#799=DIRECTION('',(0.E0,0.E0,1.E0));
#800=DIRECTION('',(1.E0,0.E0,0.E0));
#801=AXIS2_PLACEMENT_3D('',#798,#799,#800);
#802=PLANE('',#801);
#804=ORIENTED_EDGE('',*,*,#803,.F.);
#806=ORIENTED_EDGE('',*,*,#805,.F.);
#808=ORIENTED_EDGE('',*,*,#807,.F.);
#810=ORIENTED_EDGE('',*,*,#809,.F.);
#812=ORIENTED_EDGE('',*,*,#811,.F.);
#814=ORIENTED_EDGE('',*,*,#813,.F.);
#816=ORIENTED_EDGE('',*,*,#815,.F.);
#818=ORIENTED_EDGE('',*,*,#817,.F.);
#820=ORIENTED_EDGE('',*,*,#819,.F.);
#822=ORIENTED_EDGE('',*,*,#821,.F.);
#824=ORIENTED_EDGE('',*,*,#823,.F.);
#826=ORIENTED_EDGE('',*,*,#825,.F.);
#828=ORIENTED_EDGE('',*,*,#827,.F.);
#830=ORIENTED_EDGE('',*,*,#829,.F.);
#832=ORIENTED_EDGE('',*,*,#831,.F.);
#834=ORIENTED_EDGE('',*,*,#833,.F.);
#835=EDGE_LOOP('',(#804,#806,#808,#810,#812,#814,#816,#818,#820,#822,#824,#826,
#828,#830,#832,#834));
#836=FACE_OUTER_BOUND('',#835,.F.);
#838=CARTESIAN_POINT('',(3.16E0,-3.1E-1,4.17152E0));
#839=DIRECTION('',(0.E0,0.E0,-1.E0));
#840=DIRECTION('',(1.E0,0.E0,0.E0));
#841=AXIS2_PLACEMENT_3D('',#838,#839,#840);
#842=CYLINDRICAL_SURFACE('',#841,2.E-2);
#844=ORIENTED_EDGE('',*,*,#843,.F.);
#845=ORIENTED_EDGE('',*,*,#803,.T.);
#847=ORIENTED_EDGE('',*,*,#846,.T.);
#849=ORIENTED_EDGE('',*,*,#848,.T.);
#850=EDGE_LOOP('',(#844,#845,#847,#849));
#851=FACE_OUTER_BOUND('',#850,.F.);
#853=CARTESIAN_POINT('',(2.3E0,-3.3E-1,0.E0));
#854=DIRECTION('',(0.E0,-1.E0,0.E0));
#855=DIRECTION('',(1.E0,0.E0,0.E0));
#856=AXIS2_PLACEMENT_3D('',#853,#854,#855);
#857=PLANE('',#856);
#858=ORIENTED_EDGE('',*,*,#843,.T.);
#860=ORIENTED_EDGE('',*,*,#859,.T.);
#862=ORIENTED_EDGE('',*,*,#861,.F.);
#864=ORIENTED_EDGE('',*,*,#863,.F.);
#866=ORIENTED_EDGE('',*,*,#865,.T.);
#868=ORIENTED_EDGE('',*,*,#867,.F.);
#870=ORIENTED_EDGE('',*,*,#869,.F.);
#871=ORIENTED_EDGE('',*,*,#805,.T.);
#872=EDGE_LOOP('',(#858,#860,#862,#864,#866,#868,#870,#871));
#873=FACE_OUTER_BOUND('',#872,.F.);
#875=CARTESIAN_POINT('',(2.31E0,-3.5E-1,-2.5E-2));
#876=DIRECTION('',(0.E0,0.E0,1.E0));
#877=DIRECTION('',(1.E0,0.E0,0.E0));
#878=AXIS2_PLACEMENT_3D('',#875,#876,#877);
#879=PLANE('',#878);
#881=ORIENTED_EDGE('',*,*,#880,.T.);
#883=ORIENTED_EDGE('',*,*,#882,.F.);
#885=ORIENTED_EDGE('',*,*,#884,.T.);
#887=ORIENTED_EDGE('',*,*,#886,.T.);
#889=ORIENTED_EDGE('',*,*,#888,.T.);
#891=ORIENTED_EDGE('',*,*,#890,.F.);
#893=ORIENTED_EDGE('',*,*,#892,.F.);
#895=ORIENTED_EDGE('',*,*,#894,.F.);
#897=ORIENTED_EDGE('',*,*,#896,.F.);
#899=ORIENTED_EDGE('',*,*,#898,.T.);
#900=ORIENTED_EDGE('',*,*,#859,.F.);
#901=ORIENTED_EDGE('',*,*,#848,.F.);
#902=EDGE_LOOP('',(#881,#883,#885,#887,#889,#891,#893,#895,#897,#899,#900,
#901));
#903=FACE_OUTER_BOUND('',#902,.F.);
#905=CARTESIAN_POINT('',(3.18E0,-3.3E-1,0.E0));
#906=DIRECTION('',(1.E0,0.E0,0.E0));
#907=DIRECTION('',(0.E0,1.E0,0.E0));
#908=AXIS2_PLACEMENT_3D('',#905,#906,#907);
#909=PLANE('',#908);
#910=ORIENTED_EDGE('',*,*,#846,.F.);
#911=ORIENTED_EDGE('',*,*,#833,.T.);
#913=ORIENTED_EDGE('',*,*,#912,.T.);
#914=ORIENTED_EDGE('',*,*,#880,.F.);
#915=EDGE_LOOP('',(#910,#911,#913,#914));
#916=FACE_OUTER_BOUND('',#915,.F.);
#918=CARTESIAN_POINT('',(3.18E0,-3.3E-1,0.E0));
#919=DIRECTION('',(1.E0,0.E0,0.E0));
#920=DIRECTION('',(0.E0,1.E0,0.E0));
#921=AXIS2_PLACEMENT_3D('',#918,#919,#920);
#922=PLANE('',#921);
#924=ORIENTED_EDGE('',*,*,#923,.F.);
#926=ORIENTED_EDGE('',*,*,#925,.T.);
#928=ORIENTED_EDGE('',*,*,#927,.T.);
#930=ORIENTED_EDGE('',*,*,#929,.F.);
#931=EDGE_LOOP('',(#924,#926,#928,#930));
#932=FACE_OUTER_BOUND('',#931,.F.);
#934=CARTESIAN_POINT('',(3.16E0,3.1E-1,4.17152E0));
#935=DIRECTION('',(0.E0,0.E0,-1.E0));
#936=DIRECTION('',(0.E0,1.E0,0.E0));
#937=AXIS2_PLACEMENT_3D('',#934,#935,#936);
#938=CYLINDRICAL_SURFACE('',#937,2.E-2);
#939=ORIENTED_EDGE('',*,*,#912,.F.);
#940=ORIENTED_EDGE('',*,*,#831,.T.);
#942=ORIENTED_EDGE('',*,*,#941,.T.);
#943=ORIENTED_EDGE('',*,*,#882,.T.);
#944=EDGE_LOOP('',(#939,#940,#942,#943));
#945=FACE_OUTER_BOUND('',#944,.F.);
#947=CARTESIAN_POINT('',(3.18E0,3.3E-1,0.E0));
#948=DIRECTION('',(0.E0,1.E0,0.E0));
#949=DIRECTION('',(-1.E0,0.E0,0.E0));
#950=AXIS2_PLACEMENT_3D('',#947,#948,#949);
#951=PLANE('',#950);
#952=ORIENTED_EDGE('',*,*,#941,.F.);
#953=ORIENTED_EDGE('',*,*,#829,.T.);
#955=ORIENTED_EDGE('',*,*,#954,.T.);
#957=ORIENTED_EDGE('',*,*,#956,.F.);
#959=ORIENTED_EDGE('',*,*,#958,.F.);
#961=ORIENTED_EDGE('',*,*,#960,.T.);
#963=ORIENTED_EDGE('',*,*,#962,.T.);
#964=ORIENTED_EDGE('',*,*,#884,.F.);
#965=EDGE_LOOP('',(#952,#953,#955,#957,#959,#961,#963,#964));
#966=FACE_OUTER_BOUND('',#965,.F.);
#968=CARTESIAN_POINT('',(2.3E0,3.3E-1,0.E0));
#969=DIRECTION('',(1.E0,0.E0,0.E0));
#970=DIRECTION('',(0.E0,1.E0,0.E0));
#971=AXIS2_PLACEMENT_3D('',#968,#969,#970);
#972=PLANE('',#971);
#973=ORIENTED_EDGE('',*,*,#827,.T.);
#975=ORIENTED_EDGE('',*,*,#974,.T.);
#977=ORIENTED_EDGE('',*,*,#976,.F.);
#978=ORIENTED_EDGE('',*,*,#954,.F.);
#979=EDGE_LOOP('',(#973,#975,#977,#978));
#980=FACE_OUTER_BOUND('',#979,.F.);
#982=CARTESIAN_POINT('',(2.3E0,3.5E-1,0.E0));
#983=DIRECTION('',(0.E0,1.E0,0.E0));
#984=DIRECTION('',(-1.E0,0.E0,0.E0));
#985=AXIS2_PLACEMENT_3D('',#982,#983,#984);
#986=PLANE('',#985);
#987=ORIENTED_EDGE('',*,*,#825,.T.);
#989=ORIENTED_EDGE('',*,*,#988,.T.);
#991=ORIENTED_EDGE('',*,*,#990,.F.);
#992=ORIENTED_EDGE('',*,*,#974,.F.);
#993=EDGE_LOOP('',(#987,#989,#991,#992));
#994=FACE_OUTER_BOUND('',#993,.F.);
#996=CARTESIAN_POINT('',(-2.3E0,3.5E-1,0.E0));
#997=DIRECTION('',(-1.E0,0.E0,0.E0));
#998=DIRECTION('',(0.E0,-1.E0,0.E0));
#999=AXIS2_PLACEMENT_3D('',#996,#997,#998);
#1000=PLANE('',#999);
#1001=ORIENTED_EDGE('',*,*,#823,.T.);
#1003=ORIENTED_EDGE('',*,*,#1002,.T.);
#1005=ORIENTED_EDGE('',*,*,#1004,.F.);
#1006=ORIENTED_EDGE('',*,*,#988,.F.);
#1007=EDGE_LOOP('',(#1001,#1003,#1005,#1006));
#1008=FACE_OUTER_BOUND('',#1007,.F.);
#1010=CARTESIAN_POINT('',(-2.3E0,3.3E-1,0.E0));
#1011=DIRECTION('',(0.E0,1.E0,0.E0));
#1012=DIRECTION('',(-1.E0,0.E0,0.E0));
#1013=AXIS2_PLACEMENT_3D('',#1010,#1011,#1012);
#1014=PLANE('',#1013);
#1016=ORIENTED_EDGE('',*,*,#1015,.T.);
#1018=ORIENTED_EDGE('',*,*,#1017,.T.);
#1020=ORIENTED_EDGE('',*,*,#1019,.T.);
#1022=ORIENTED_EDGE('',*,*,#1021,.F.);
#1024=ORIENTED_EDGE('',*,*,#1023,.T.);
#1026=ORIENTED_EDGE('',*,*,#1025,.F.);
#1027=ORIENTED_EDGE('',*,*,#1002,.F.);
#1028=ORIENTED_EDGE('',*,*,#821,.T.);
#1029=EDGE_LOOP('',(#1016,#1018,#1020,#1022,#1024,#1026,#1027,#1028));
#1030=FACE_OUTER_BOUND('',#1029,.F.);
#1032=CARTESIAN_POINT('',(-3.16E0,3.1E-1,4.17152E0));
#1033=DIRECTION('',(0.E0,0.E0,-1.E0));
#1034=DIRECTION('',(-1.E0,0.E0,0.E0));
#1035=AXIS2_PLACEMENT_3D('',#1032,#1033,#1034);
#1036=CYLINDRICAL_SURFACE('',#1035,2.E-2);
#1037=ORIENTED_EDGE('',*,*,#1015,.F.);
#1038=ORIENTED_EDGE('',*,*,#819,.T.);
#1040=ORIENTED_EDGE('',*,*,#1039,.T.);
#1042=ORIENTED_EDGE('',*,*,#1041,.T.);
#1043=EDGE_LOOP('',(#1037,#1038,#1040,#1042));
#1044=FACE_OUTER_BOUND('',#1043,.F.);
#1046=CARTESIAN_POINT('',(-3.18E0,3.3E-1,0.E0));
#1047=DIRECTION('',(-1.E0,0.E0,0.E0));
#1048=DIRECTION('',(0.E0,-1.E0,0.E0));
#1049=AXIS2_PLACEMENT_3D('',#1046,#1047,#1048);
#1050=PLANE('',#1049);
#1052=ORIENTED_EDGE('',*,*,#1051,.T.);
#1054=ORIENTED_EDGE('',*,*,#1053,.F.);
#1055=ORIENTED_EDGE('',*,*,#1039,.F.);
#1056=ORIENTED_EDGE('',*,*,#817,.T.);
#1057=EDGE_LOOP('',(#1052,#1054,#1055,#1056));
#1058=FACE_OUTER_BOUND('',#1057,.F.);
#1060=CARTESIAN_POINT('',(-3.18E0,3.3E-1,0.E0));
#1061=DIRECTION('',(-1.E0,0.E0,0.E0));
#1062=DIRECTION('',(0.E0,-1.E0,0.E0));
#1063=AXIS2_PLACEMENT_3D('',#1060,#1061,#1062);
#1064=PLANE('',#1063);
#1066=ORIENTED_EDGE('',*,*,#1065,.F.);
#1068=ORIENTED_EDGE('',*,*,#1067,.T.);
#1070=ORIENTED_EDGE('',*,*,#1069,.T.);
#1072=ORIENTED_EDGE('',*,*,#1071,.F.);
#1073=EDGE_LOOP('',(#1066,#1068,#1070,#1072));
#1074=FACE_OUTER_BOUND('',#1073,.F.);
#1076=CARTESIAN_POINT('',(-3.16E0,-3.1E-1,4.17152E0));
#1077=DIRECTION('',(0.E0,0.E0,-1.E0));
#1078=DIRECTION('',(0.E0,-1.E0,0.E0));
#1079=AXIS2_PLACEMENT_3D('',#1076,#1077,#1078);
#1080=CYLINDRICAL_SURFACE('',#1079,2.E-2);
#1081=ORIENTED_EDGE('',*,*,#1051,.F.);
#1082=ORIENTED_EDGE('',*,*,#815,.T.);
#1084=ORIENTED_EDGE('',*,*,#1083,.T.);
#1086=ORIENTED_EDGE('',*,*,#1085,.T.);
#1087=EDGE_LOOP('',(#1081,#1082,#1084,#1086));
#1088=FACE_OUTER_BOUND('',#1087,.F.);
#1090=CARTESIAN_POINT('',(-3.18E0,-3.3E-1,0.E0));
#1091=DIRECTION('',(0.E0,-1.E0,0.E0));
#1092=DIRECTION('',(1.E0,0.E0,0.E0));
#1093=AXIS2_PLACEMENT_3D('',#1090,#1091,#1092);
#1094=PLANE('',#1093);
#1095=ORIENTED_EDGE('',*,*,#1083,.F.);
#1096=ORIENTED_EDGE('',*,*,#813,.T.);
#1098=ORIENTED_EDGE('',*,*,#1097,.T.);
#1100=ORIENTED_EDGE('',*,*,#1099,.F.);
#1102=ORIENTED_EDGE('',*,*,#1101,.F.);
#1104=ORIENTED_EDGE('',*,*,#1103,.T.);
#1106=ORIENTED_EDGE('',*,*,#1105,.F.);
#1108=ORIENTED_EDGE('',*,*,#1107,.F.);
#1109=EDGE_LOOP('',(#1095,#1096,#1098,#1100,#1102,#1104,#1106,#1108));
#1110=FACE_OUTER_BOUND('',#1109,.F.);
#1112=CARTESIAN_POINT('',(-2.3E0,-3.3E-1,0.E0));
#1113=DIRECTION('',(-1.E0,0.E0,0.E0));
#1114=DIRECTION('',(0.E0,-1.E0,0.E0));
#1115=AXIS2_PLACEMENT_3D('',#1112,#1113,#1114);
#1116=PLANE('',#1115);
#1117=ORIENTED_EDGE('',*,*,#811,.T.);
#1119=ORIENTED_EDGE('',*,*,#1118,.T.);
#1121=ORIENTED_EDGE('',*,*,#1120,.F.);
#1122=ORIENTED_EDGE('',*,*,#1097,.F.);
#1123=EDGE_LOOP('',(#1117,#1119,#1121,#1122));
#1124=FACE_OUTER_BOUND('',#1123,.F.);
#1126=CARTESIAN_POINT('',(-2.3E0,-3.5E-1,0.E0));
#1127=DIRECTION('',(0.E0,-1.E0,0.E0));
#1128=DIRECTION('',(1.E0,0.E0,0.E0));
#1129=AXIS2_PLACEMENT_3D('',#1126,#1127,#1128);
#1130=PLANE('',#1129);
#1131=ORIENTED_EDGE('',*,*,#809,.T.);
#1133=ORIENTED_EDGE('',*,*,#1132,.T.);
#1135=ORIENTED_EDGE('',*,*,#1134,.F.);
#1136=ORIENTED_EDGE('',*,*,#1118,.F.);
#1137=EDGE_LOOP('',(#1131,#1133,#1135,#1136));
#1138=FACE_OUTER_BOUND('',#1137,.F.);
#1140=CARTESIAN_POINT('',(2.3E0,-3.5E-1,0.E0));
#1141=DIRECTION('',(1.E0,0.E0,0.E0));
#1142=DIRECTION('',(0.E0,1.E0,0.E0));
#1143=AXIS2_PLACEMENT_3D('',#1140,#1141,#1142);
#1144=PLANE('',#1143);
#1145=ORIENTED_EDGE('',*,*,#807,.T.);
#1146=ORIENTED_EDGE('',*,*,#869,.T.);
#1148=ORIENTED_EDGE('',*,*,#1147,.F.);
#1149=ORIENTED_EDGE('',*,*,#1132,.F.);
#1150=EDGE_LOOP('',(#1145,#1146,#1148,#1149));
#1151=FACE_OUTER_BOUND('',#1150,.F.);
#1153=CARTESIAN_POINT('',(0.E0,0.E0,-3.2E0));
#1154=DIRECTION('',(0.E0,0.E0,1.E0));
#1155=DIRECTION('',(1.E0,0.E0,0.E0));
#1156=AXIS2_PLACEMENT_3D('',#1153,#1154,#1155);
#1157=PLANE('',#1156);
#1159=ORIENTED_EDGE('',*,*,#1158,.F.);
#1160=ORIENTED_EDGE('',*,*,#1071,.T.);
#1162=ORIENTED_EDGE('',*,*,#1161,.F.);
#1163=ORIENTED_EDGE('',*,*,#1099,.T.);
#1164=ORIENTED_EDGE('',*,*,#1120,.T.);
#1165=ORIENTED_EDGE('',*,*,#1134,.T.);
#1166=ORIENTED_EDGE('',*,*,#1147,.T.);
#1167=ORIENTED_EDGE('',*,*,#867,.T.);
#1169=ORIENTED_EDGE('',*,*,#1168,.F.);
#1170=ORIENTED_EDGE('',*,*,#929,.T.);
#1172=ORIENTED_EDGE('',*,*,#1171,.F.);
#1173=ORIENTED_EDGE('',*,*,#956,.T.);
#1174=ORIENTED_EDGE('',*,*,#976,.T.);
#1175=ORIENTED_EDGE('',*,*,#990,.T.);
#1176=ORIENTED_EDGE('',*,*,#1004,.T.);
#1177=ORIENTED_EDGE('',*,*,#1025,.T.);
#1178=EDGE_LOOP('',(#1159,#1160,#1162,#1163,#1164,#1165,#1166,#1167,#1169,#1170,
#1172,#1173,#1174,#1175,#1176,#1177));
#1179=FACE_OUTER_BOUND('',#1178,.F.);
#1181=CARTESIAN_POINT('',(-3.16E0,3.1E-1,4.17152E0));
#1182=DIRECTION('',(0.E0,0.E0,-1.E0));
#1183=DIRECTION('',(-1.E0,0.E0,0.E0));
#1184=AXIS2_PLACEMENT_3D('',#1181,#1182,#1183);
#1185=CYLINDRICAL_SURFACE('',#1184,2.E-2);
#1186=ORIENTED_EDGE('',*,*,#1158,.T.);
#1187=ORIENTED_EDGE('',*,*,#1023,.F.);
#1189=ORIENTED_EDGE('',*,*,#1188,.T.);
#1190=ORIENTED_EDGE('',*,*,#1065,.T.);
#1191=EDGE_LOOP('',(#1186,#1187,#1189,#1190));
#1192=FACE_OUTER_BOUND('',#1191,.F.);
#1194=CARTESIAN_POINT('',(-2.31E0,-3.5E-1,-3.175E0));
#1195=DIRECTION('',(0.E0,0.E0,-1.E0));
#1196=DIRECTION('',(-1.E0,0.E0,0.E0));
#1197=AXIS2_PLACEMENT_3D('',#1194,#1195,#1196);
#1198=PLANE('',#1197);
#1199=ORIENTED_EDGE('',*,*,#1103,.F.);
#1201=ORIENTED_EDGE('',*,*,#1200,.F.);
#1202=ORIENTED_EDGE('',*,*,#1067,.F.);
#1203=ORIENTED_EDGE('',*,*,#1188,.F.);
#1204=ORIENTED_EDGE('',*,*,#1021,.T.);
#1206=ORIENTED_EDGE('',*,*,#1205,.T.);
#1208=ORIENTED_EDGE('',*,*,#1207,.T.);
#1210=ORIENTED_EDGE('',*,*,#1209,.F.);
#1212=ORIENTED_EDGE('',*,*,#1211,.F.);
#1214=ORIENTED_EDGE('',*,*,#1213,.F.);
#1216=ORIENTED_EDGE('',*,*,#1215,.F.);
#1218=ORIENTED_EDGE('',*,*,#1217,.T.);
#1219=EDGE_LOOP('',(#1199,#1201,#1202,#1203,#1204,#1206,#1208,#1210,#1212,#1214,
#1216,#1218));
#1220=FACE_OUTER_BOUND('',#1219,.F.);
#1222=CARTESIAN_POINT('',(-3.16E0,-3.1E-1,4.17152E0));
#1223=DIRECTION('',(0.E0,0.E0,-1.E0));
#1224=DIRECTION('',(0.E0,-1.E0,0.E0));
#1225=AXIS2_PLACEMENT_3D('',#1222,#1223,#1224);
#1226=CYLINDRICAL_SURFACE('',#1225,2.E-2);
#1227=ORIENTED_EDGE('',*,*,#1161,.T.);
#1228=ORIENTED_EDGE('',*,*,#1069,.F.);
#1229=ORIENTED_EDGE('',*,*,#1200,.T.);
#1230=ORIENTED_EDGE('',*,*,#1101,.T.);
#1231=EDGE_LOOP('',(#1227,#1228,#1229,#1230));
#1232=FACE_OUTER_BOUND('',#1231,.F.);
#1234=CARTESIAN_POINT('',(-2.31E0,-3.5E-1,-2.5E-2));
#1235=DIRECTION('',(1.E0,0.E0,0.E0));
#1236=DIRECTION('',(0.E0,0.E0,-1.E0));
#1237=AXIS2_PLACEMENT_3D('',#1234,#1235,#1236);
#1238=PLANE('',#1237);
#1239=ORIENTED_EDGE('',*,*,#1019,.F.);
#1241=ORIENTED_EDGE('',*,*,#1240,.T.);
#1243=ORIENTED_EDGE('',*,*,#1242,.T.);
#1244=ORIENTED_EDGE('',*,*,#1205,.F.);
#1245=EDGE_LOOP('',(#1239,#1241,#1243,#1244));
#1246=FACE_OUTER_BOUND('',#1245,.F.);
#1248=CARTESIAN_POINT('',(-2.31E0,-3.5E-1,-2.5E-2));
#1249=DIRECTION('',(1.E0,0.E0,0.E0));
#1250=DIRECTION('',(0.E0,0.E0,-1.E0));
#1251=AXIS2_PLACEMENT_3D('',#1248,#1249,#1250);
#1252=PLANE('',#1251);
#1253=ORIENTED_EDGE('',*,*,#1105,.T.);
#1254=ORIENTED_EDGE('',*,*,#1217,.F.);
#1256=ORIENTED_EDGE('',*,*,#1255,.F.);
#1258=ORIENTED_EDGE('',*,*,#1257,.T.);
#1259=EDGE_LOOP('',(#1253,#1254,#1256,#1258));
#1260=FACE_OUTER_BOUND('',#1259,.F.);
#1262=CARTESIAN_POINT('',(-3.2E0,-3.5E-1,-2.5E-2));
#1263=DIRECTION('',(0.E0,0.E0,1.E0));
#1264=DIRECTION('',(1.E0,0.E0,0.E0));
#1265=AXIS2_PLACEMENT_3D('',#1262,#1263,#1264);
#1266=PLANE('',#1265);
#1267=ORIENTED_EDGE('',*,*,#1017,.F.);
#1268=ORIENTED_EDGE('',*,*,#1041,.F.);
#1269=ORIENTED_EDGE('',*,*,#1053,.T.);
#1270=ORIENTED_EDGE('',*,*,#1085,.F.);
#1271=ORIENTED_EDGE('',*,*,#1107,.T.);
#1272=ORIENTED_EDGE('',*,*,#1257,.F.);
#1274=ORIENTED_EDGE('',*,*,#1273,.F.);
#1276=ORIENTED_EDGE('',*,*,#1275,.F.);
#1278=ORIENTED_EDGE('',*,*,#1277,.T.);
#1280=ORIENTED_EDGE('',*,*,#1279,.F.);
#1282=ORIENTED_EDGE('',*,*,#1281,.T.);
#1283=ORIENTED_EDGE('',*,*,#1240,.F.);
#1284=EDGE_LOOP('',(#1267,#1268,#1269,#1270,#1271,#1272,#1274,#1276,#1278,#1280,
#1282,#1283));
#1285=FACE_OUTER_BOUND('',#1284,.F.);
#1287=CARTESIAN_POINT('',(0.E0,-3.5E-1,0.E0));
#1288=DIRECTION('',(0.E0,1.E0,0.E0));
#1289=DIRECTION('',(1.E0,0.E0,0.E0));
#1290=AXIS2_PLACEMENT_3D('',#1287,#1288,#1289);
#1291=PLANE('',#1290);
#1293=ORIENTED_EDGE('',*,*,#1292,.F.);
#1294=ORIENTED_EDGE('',*,*,#1273,.T.);
#1295=ORIENTED_EDGE('',*,*,#1255,.T.);
#1296=ORIENTED_EDGE('',*,*,#1215,.T.);
#1297=EDGE_LOOP('',(#1293,#1294,#1295,#1296));
#1298=FACE_OUTER_BOUND('',#1297,.F.);
#1300=CARTESIAN_POINT('',(0.E0,-3.5E-1,0.E0));
#1301=DIRECTION('',(0.E0,1.E0,0.E0));
#1302=DIRECTION('',(1.E0,0.E0,0.E0));
#1303=AXIS2_PLACEMENT_3D('',#1300,#1301,#1302);
#1304=PLANE('',#1303);
#1306=ORIENTED_EDGE('',*,*,#1305,.F.);
#1308=ORIENTED_EDGE('',*,*,#1307,.T.);
#1310=ORIENTED_EDGE('',*,*,#1309,.T.);
#1311=ORIENTED_EDGE('',*,*,#896,.T.);
#1312=EDGE_LOOP('',(#1306,#1308,#1310,#1311));
#1313=FACE_OUTER_BOUND('',#1312,.F.);
#1315=CARTESIAN_POINT('',(-3.16E0,-3.1E-1,4.17152E0));
#1316=DIRECTION('',(0.E0,0.E0,-1.E0));
#1317=DIRECTION('',(0.E0,-1.E0,0.E0));
#1318=AXIS2_PLACEMENT_3D('',#1315,#1316,#1317);
#1319=CYLINDRICAL_SURFACE('',#1318,4.E-2);
#1320=ORIENTED_EDGE('',*,*,#1213,.T.);
#1322=ORIENTED_EDGE('',*,*,#1321,.F.);
#1323=ORIENTED_EDGE('',*,*,#1275,.T.);
#1324=ORIENTED_EDGE('',*,*,#1292,.T.);
#1325=EDGE_LOOP('',(#1320,#1322,#1323,#1324));
#1326=FACE_OUTER_BOUND('',#1325,.F.);
#1328=CARTESIAN_POINT('',(-3.2E0,-3.5E-1,-3.175E0));
#1329=DIRECTION('',(-1.E0,0.E0,0.E0));
#1330=DIRECTION('',(0.E0,0.E0,1.E0));
#1331=AXIS2_PLACEMENT_3D('',#1328,#1329,#1330);
#1332=PLANE('',#1331);
#1333=ORIENTED_EDGE('',*,*,#1321,.T.);
#1334=ORIENTED_EDGE('',*,*,#1211,.T.);
#1336=ORIENTED_EDGE('',*,*,#1335,.T.);
#1337=ORIENTED_EDGE('',*,*,#1277,.F.);
#1338=EDGE_LOOP('',(#1333,#1334,#1336,#1337));
#1339=FACE_OUTER_BOUND('',#1338,.F.);
#1341=CARTESIAN_POINT('',(-3.16E0,3.1E-1,-7.37152E0));
#1342=DIRECTION('',(0.E0,0.E0,1.E0));
#1343=DIRECTION('',(0.E0,1.E0,0.E0));
#1344=AXIS2_PLACEMENT_3D('',#1341,#1342,#1343);
#1345=CYLINDRICAL_SURFACE('',#1344,4.E-2);
#1346=ORIENTED_EDGE('',*,*,#1279,.T.);
#1347=ORIENTED_EDGE('',*,*,#1335,.F.);
#1348=ORIENTED_EDGE('',*,*,#1209,.T.);
#1350=ORIENTED_EDGE('',*,*,#1349,.T.);
#1351=EDGE_LOOP('',(#1346,#1347,#1348,#1350));
#1352=FACE_OUTER_BOUND('',#1351,.F.);
#1354=CARTESIAN_POINT('',(0.E0,3.5E-1,0.E0));
#1355=DIRECTION('',(0.E0,1.E0,0.E0));
#1356=DIRECTION('',(1.E0,0.E0,0.E0));
#1357=AXIS2_PLACEMENT_3D('',#1354,#1355,#1356);
#1358=PLANE('',#1357);
#1359=ORIENTED_EDGE('',*,*,#1349,.F.);
#1360=ORIENTED_EDGE('',*,*,#1207,.F.);
#1361=ORIENTED_EDGE('',*,*,#1242,.F.);
#1362=ORIENTED_EDGE('',*,*,#1281,.F.);
#1363=EDGE_LOOP('',(#1359,#1360,#1361,#1362));
#1364=FACE_OUTER_BOUND('',#1363,.F.);
#1366=CARTESIAN_POINT('',(0.E0,3.5E-1,0.E0));
#1367=DIRECTION('',(0.E0,1.E0,0.E0));
#1368=DIRECTION('',(1.E0,0.E0,0.E0));
#1369=AXIS2_PLACEMENT_3D('',#1366,#1367,#1368);
#1370=PLANE('',#1369);
#1372=ORIENTED_EDGE('',*,*,#1371,.F.);
#1373=ORIENTED_EDGE('',*,*,#888,.F.);
#1375=ORIENTED_EDGE('',*,*,#1374,.F.);
#1377=ORIENTED_EDGE('',*,*,#1376,.F.);
#1378=EDGE_LOOP('',(#1372,#1373,#1375,#1377));
#1379=FACE_OUTER_BOUND('',#1378,.F.);
#1381=CARTESIAN_POINT('',(3.16E0,3.1E-1,4.17152E0));
#1382=DIRECTION('',(0.E0,0.E0,-1.E0));
#1383=DIRECTION('',(0.E0,1.E0,0.E0));
#1384=AXIS2_PLACEMENT_3D('',#1381,#1382,#1383);
#1385=CYLINDRICAL_SURFACE('',#1384,4.E-2);
#1387=ORIENTED_EDGE('',*,*,#1386,.T.);
#1389=ORIENTED_EDGE('',*,*,#1388,.F.);
#1390=ORIENTED_EDGE('',*,*,#890,.T.);
#1391=ORIENTED_EDGE('',*,*,#1371,.T.);
#1392=EDGE_LOOP('',(#1387,#1389,#1390,#1391));
#1393=FACE_OUTER_BOUND('',#1392,.F.);
#1395=CARTESIAN_POINT('',(3.2E0,-3.5E-1,-3.175E0));
#1396=DIRECTION('',(0.E0,0.E0,-1.E0));
#1397=DIRECTION('',(-1.E0,0.E0,0.E0));
#1398=AXIS2_PLACEMENT_3D('',#1395,#1396,#1397);
#1399=PLANE('',#1398);
#1400=ORIENTED_EDGE('',*,*,#960,.F.);
#1402=ORIENTED_EDGE('',*,*,#1401,.F.);
#1403=ORIENTED_EDGE('',*,*,#925,.F.);
#1405=ORIENTED_EDGE('',*,*,#1404,.F.);
#1406=ORIENTED_EDGE('',*,*,#863,.T.);
#1408=ORIENTED_EDGE('',*,*,#1407,.F.);
#1409=ORIENTED_EDGE('',*,*,#1307,.F.);
#1411=ORIENTED_EDGE('',*,*,#1410,.F.);
#1413=ORIENTED_EDGE('',*,*,#1412,.T.);
#1414=ORIENTED_EDGE('',*,*,#1386,.F.);
#1415=ORIENTED_EDGE('',*,*,#1376,.T.);
#1417=ORIENTED_EDGE('',*,*,#1416,.F.);
#1418=EDGE_LOOP('',(#1400,#1402,#1403,#1405,#1406,#1408,#1409,#1411,#1413,#1414,
#1415,#1417));
#1419=FACE_OUTER_BOUND('',#1418,.F.);
#1421=CARTESIAN_POINT('',(3.16E0,3.1E-1,4.17152E0));
#1422=DIRECTION('',(0.E0,0.E0,-1.E0));
#1423=DIRECTION('',(0.E0,1.E0,0.E0));
#1424=AXIS2_PLACEMENT_3D('',#1421,#1422,#1423);
#1425=CYLINDRICAL_SURFACE('',#1424,2.E-2);
#1426=ORIENTED_EDGE('',*,*,#1171,.T.);
#1427=ORIENTED_EDGE('',*,*,#927,.F.);
#1428=ORIENTED_EDGE('',*,*,#1401,.T.);
#1429=ORIENTED_EDGE('',*,*,#958,.T.);
#1430=EDGE_LOOP('',(#1426,#1427,#1428,#1429));
#1431=FACE_OUTER_BOUND('',#1430,.F.);
#1433=CARTESIAN_POINT('',(3.16E0,-3.1E-1,4.17152E0));
#1434=DIRECTION('',(0.E0,0.E0,-1.E0));
#1435=DIRECTION('',(1.E0,0.E0,0.E0));
#1436=AXIS2_PLACEMENT_3D('',#1433,#1434,#1435);
#1437=CYLINDRICAL_SURFACE('',#1436,2.E-2);
#1438=ORIENTED_EDGE('',*,*,#1168,.T.);
#1439=ORIENTED_EDGE('',*,*,#865,.F.);
#1440=ORIENTED_EDGE('',*,*,#1404,.T.);
#1441=ORIENTED_EDGE('',*,*,#923,.T.);
#1442=EDGE_LOOP('',(#1438,#1439,#1440,#1441));
#1443=FACE_OUTER_BOUND('',#1442,.F.);
#1445=CARTESIAN_POINT('',(2.31E0,-3.5E-1,-3.175E0));
#1446=DIRECTION('',(-1.E0,0.E0,0.E0));
#1447=DIRECTION('',(0.E0,0.E0,1.E0));
#1448=AXIS2_PLACEMENT_3D('',#1445,#1446,#1447);
#1449=PLANE('',#1448);
#1450=ORIENTED_EDGE('',*,*,#861,.T.);
#1451=ORIENTED_EDGE('',*,*,#898,.F.);
#1452=ORIENTED_EDGE('',*,*,#1309,.F.);
#1453=ORIENTED_EDGE('',*,*,#1407,.T.);
#1454=EDGE_LOOP('',(#1450,#1451,#1452,#1453));
#1455=FACE_OUTER_BOUND('',#1454,.F.);
#1457=CARTESIAN_POINT('',(2.31E0,-3.5E-1,-3.175E0));
#1458=DIRECTION('',(-1.E0,0.E0,0.E0));
#1459=DIRECTION('',(0.E0,0.E0,1.E0));
#1460=AXIS2_PLACEMENT_3D('',#1457,#1458,#1459);
#1461=PLANE('',#1460);
#1462=ORIENTED_EDGE('',*,*,#962,.F.);
#1463=ORIENTED_EDGE('',*,*,#1416,.T.);
#1464=ORIENTED_EDGE('',*,*,#1374,.T.);
#1465=ORIENTED_EDGE('',*,*,#886,.F.);
#1466=EDGE_LOOP('',(#1462,#1463,#1464,#1465));
#1467=FACE_OUTER_BOUND('',#1466,.F.);
#1469=CARTESIAN_POINT('',(3.16E0,-3.1E-1,-7.37152E0));
#1470=DIRECTION('',(0.E0,0.E0,1.E0));
#1471=DIRECTION('',(0.E0,-1.E0,0.E0));
#1472=AXIS2_PLACEMENT_3D('',#1469,#1470,#1471);
#1473=CYLINDRICAL_SURFACE('',#1472,4.E-2);
#1474=ORIENTED_EDGE('',*,*,#894,.T.);
#1476=ORIENTED_EDGE('',*,*,#1475,.F.);
#1477=ORIENTED_EDGE('',*,*,#1410,.T.);
#1478=ORIENTED_EDGE('',*,*,#1305,.T.);
#1479=EDGE_LOOP('',(#1474,#1476,#1477,#1478));
#1480=FACE_OUTER_BOUND('',#1479,.F.);
#1482=CARTESIAN_POINT('',(3.2E0,-3.5E-1,-2.5E-2));
#1483=DIRECTION('',(1.E0,0.E0,0.E0));
#1484=DIRECTION('',(0.E0,0.E0,-1.E0));
#1485=AXIS2_PLACEMENT_3D('',#1482,#1483,#1484);
#1486=PLANE('',#1485);
#1487=ORIENTED_EDGE('',*,*,#1475,.T.);
#1488=ORIENTED_EDGE('',*,*,#892,.T.);
#1489=ORIENTED_EDGE('',*,*,#1388,.T.);
#1490=ORIENTED_EDGE('',*,*,#1412,.F.);
#1491=EDGE_LOOP('',(#1487,#1488,#1489,#1490));
#1492=FACE_OUTER_BOUND('',#1491,.F.);
#1494=CLOSED_SHELL('',(#837,#852,#874,#904,#917,#933,#946,#967,#981,#995,#1009,
#1031,#1045,#1059,#1075,#1089,#1111,#1125,#1139,#1152,#1180,#1193,#1221,#1233,
#1247,#1261,#1286,#1299,#1314,#1327,#1340,#1353,#1365,#1380,#1394,#1420,#1432,
#1444,#1456,#1468,#1481,#1493));
#1495=MANIFOLD_SOLID_BREP('',#1494);
#1498=PLANE_ANGLE_MEASURE_WITH_UNIT(PLANE_ANGLE_MEASURE(1.745329251994E-2),
#1497);
#1499=(CONVERSION_BASED_UNIT('DEGREE',#1498)NAMED_UNIT(*)PLANE_ANGLE_UNIT());
#1501=UNCERTAINTY_MEASURE_WITH_UNIT(LENGTH_MEASURE(1.E-3),#1496,
'distance_accuracy_value',
'Maximum model space distance between geometric entities at asserted connectivities');
#1504=APPLICATION_CONTEXT('automotive_design');
#1505=APPLICATION_PROTOCOL_DEFINITION('international standard',
'automotive_design',2001,#1504);
#1506=PRODUCT_DEFINITION_CONTEXT('part definition',#1504,'design');
#1507=PRODUCT_CONTEXT('',#1504,'mechanical');
#1508=PRODUCT('C-1-2176421-2','C-1-2176421-2','NOT SPECIFIED',(#1507));
#1509=PRODUCT_DEFINITION_FORMATION('1','LAST_VERSION',#1508);
#1517=DERIVED_UNIT_ELEMENT(#1516,2.E0);
#1518=DERIVED_UNIT((#1517));
#1519=MEASURE_REPRESENTATION_ITEM('surface area measure',AREA_MEASURE(
5.467761762552E1),#1518);
#1524=DERIVED_UNIT_ELEMENT(#1523,3.E0);
#1525=DERIVED_UNIT((#1524));
#1526=MEASURE_REPRESENTATION_ITEM('volume measure',VOLUME_MEASURE(
1.432421634736E1),#1525);
#1530=CARTESIAN_POINT('centre point',(0.E0,0.E0,-1.6E0));
#1535=DERIVED_UNIT_ELEMENT(#1534,2.E0);
#1536=DERIVED_UNIT((#1535));
#1537=MEASURE_REPRESENTATION_ITEM('surface area measure',AREA_MEASURE(
5.467761762552E1),#1536);
#1542=DERIVED_UNIT_ELEMENT(#1541,3.E0);
#1543=DERIVED_UNIT((#1542));
#1544=MEASURE_REPRESENTATION_ITEM('volume measure',VOLUME_MEASURE(
1.432421634736E1),#1543);
#1548=CARTESIAN_POINT('centre point',(0.E0,0.E0,-1.6E0));
#1553=PRODUCT_RELATED_PRODUCT_CATEGORY('part','',(#1508));
#1555=GENERAL_PROPERTY('','DESC','user defined attribute');
#1556=GENERAL_PROPERTY_ASSOCIATION('user defined attribute','',#1555,#1554);
#1557=DESCRIPTIVE_REPRESENTATION_ITEM('DESC',
'SMD HIGH POWER - CURRENT SENSE RESISTORS, SERIES TLRP - 3A');
#1561=GENERAL_PROPERTY('','DOC_STATUS','user defined attribute');
#1562=GENERAL_PROPERTY_ASSOCIATION('user defined attribute','',#1561,#1560);
#1563=DESCRIPTIVE_REPRESENTATION_ITEM('DOC_STATUS','Active');
#1567=GENERAL_PROPERTY('','DWG_TITLE','user defined attribute');
#1568=GENERAL_PROPERTY_ASSOCIATION('user defined attribute','',#1567,#1566);
#1569=DESCRIPTIVE_REPRESENTATION_ITEM('DWG_TITLE',
'SMD HIGH POWER - CURRENT SENSE');
#1573=GENERAL_PROPERTY('','DWG_TITLE_2','user defined attribute');
#1574=GENERAL_PROPERTY_ASSOCIATION('user defined attribute','',#1573,#1572);
#1575=DESCRIPTIVE_REPRESENTATION_ITEM('DWG_TITLE_2',
'RESISTORS, SERIES TLRP - 3A');
#1579=GENERAL_PROPERTY('','PART_NO','user defined attribute');
#1580=GENERAL_PROPERTY_ASSOCIATION('user defined attribute','',#1579,#1578);
#1581=DESCRIPTIVE_REPRESENTATION_ITEM('PART_NO','2176421');
#1585=GENERAL_PROPERTY('','MOD_NUM','user defined attribute');
#1586=GENERAL_PROPERTY_ASSOCIATION('user defined attribute','',#1585,#1584);
#1587=DESCRIPTIVE_REPRESENTATION_ITEM('MOD_NUM','MOD64164');
#1591=GENERAL_PROPERTY('','PART_REV','user defined attribute');
#1592=GENERAL_PROPERTY_ASSOCIATION('user defined attribute','',#1591,#1590);
#1593=DESCRIPTIVE_REPRESENTATION_ITEM('PART_REV','BA');
#1597=GENERAL_PROPERTY('','COMMENTS','user defined attribute');
#1598=GENERAL_PROPERTY_ASSOCIATION('user defined attribute','',#1597,#1596);
#1599=DESCRIPTIVE_REPRESENTATION_ITEM('COMMENTS','-');
#1603=GENERAL_PROPERTY('','EXPORT_RESTRICTED','user defined attribute');
#1604=GENERAL_PROPERTY_ASSOCIATION('user defined attribute','',#1603,#1602);
#1605=DESCRIPTIVE_REPRESENTATION_ITEM('EXPORT_RESTRICTED','NULL');
#1=DRAUGHTING_PRE_DEFINED_COLOUR('black');
#2=COLOUR_RGB('',0.E0,0.E0,3.6E-1);
#3=COLOUR_RGB('',0.E0,0.E0,4.8E-1);
#4=DRAUGHTING_PRE_DEFINED_COLOUR('blue');
#5=COLOUR_RGB('',0.E0,5.8824E-2,4.58824E-1);
#6=COLOUR_RGB('',0.E0,1.80392E-1,4.78431E-1);
#7=COLOUR_RGB('',0.E0,3.6E-1,9.E-2);
#8=COLOUR_RGB('',0.E0,3.6E-1,2.7E-1);
#9=COLOUR_RGB('',0.E0,5.6E-1,6.4E-1);
#10=COLOUR_RGB('',0.E0,5.8E-1,8.E-1);
#11=COLOUR_RGB('',0.E0,7.1E-1,6.6E-1);
#12=COLOUR_RGB('',0.E0,7.13E-1,0.E0);
#13=COLOUR_RGB('',0.E0,9.5E-1,8.4E-1);
#14=DRAUGHTING_PRE_DEFINED_COLOUR('green');
#15=DRAUGHTING_PRE_DEFINED_COLOUR('cyan');
#16=COLOUR_RGB('',1.1765E-2,1.9608E-2,3.9216E-2);
#17=COLOUR_RGB('',4.E-2,0.E0,1.6E-1);
#18=COLOUR_RGB('',3.9216E-2,2.19608E-1,1.21569E-1);
#19=COLOUR_RGB('',3.9216E-2,3.60784E-1,2.E-1);
#20=COLOUR_RGB('',5.098E-2,7.0588E-2,1.01961E-1);
#21=COLOUR_RGB('',9.E-2,0.E0,1.2E-1);
#22=COLOUR_RGB('',9.0196E-2,1.60784E-1,1.09804E-1);
#23=COLOUR_RGB('',9.0196E-2,3.80392E-1,6.70588E-1);
#24=COLOUR_RGB('',1.E-1,0.E0,2.5E-1);
#25=COLOUR_RGB('',1.01961E-1,4.78431E-1,3.88235E-1);
#26=COLOUR_RGB('',1.09804E-1,1.4902E-1,9.0196E-2);
#27=COLOUR_RGB('',1.4902E-1,3.09804E-1,5.29412E-1);
#28=COLOUR_RGB('',1.4902E-1,4.E-1,1.60784E-1);
#29=COLOUR_RGB('',1.6E-1,3.2E-2,0.E0);
#30=COLOUR_RGB('',1.60784E-1,4.5098E-1,7.21569E-1);
#31=COLOUR_RGB('',1.6E-1,4.6E-1,6.5E-1);
#32=COLOUR_RGB('',1.6E-1,1.E0,1.6E-1);
#33=COLOUR_RGB('',2.E-1,3.2E-2,0.E0);
#34=COLOUR_RGB('',2.11765E-1,4.11765E-1,1.4902E-1);
#35=COLOUR_RGB('',2.39216E-1,2.39216E-1,2.31373E-1);
#36=COLOUR_RGB('',2.39216E-1,2.70588E-1,1.80392E-1);
#37=COLOUR_RGB('',2.5098E-1,2.90196E-1,3.29412E-1);
#38=COLOUR_RGB('',2.90196E-1,4.31373E-1,2.E-1);
#39=COLOUR_RGB('',3.1E-1,3.1E-1,5.6E-1);
#40=COLOUR_RGB('',3.09804E-1,6.58824E-1,2.E-1);
#41=COLOUR_RGB('',3.2E-1,1.5E-1,0.E0);
#42=COLOUR_RGB('',3.60784E-1,3.1373E-2,1.68627E-1);
#43=COLOUR_RGB('',3.68627E-1,2.E-1,1.21569E-1);
#44=COLOUR_RGB('',3.88235E-1,2.39216E-1,6.11765E-1);
#45=COLOUR_RGB('',4.E-1,4.E-1,4.E-1);
#46=COLOUR_RGB('',4.11765E-1,5.8824E-2,7.8431E-2);
#47=COLOUR_RGB('',4.11765E-1,3.29412E-1,2.19608E-1);
#48=COLOUR_RGB('',4.2E-1,4.2E-1,1.E0);
#49=COLOUR_RGB('',4.4E-1,8.5E-1,1.E0);
#50=COLOUR_RGB('',4.58824E-1,4.5098E-1,3.09804E-1);
#51=COLOUR_RGB('',4.70588E-1,5.09804E-1,5.4902E-1);
#52=COLOUR_RGB('',4.78431E-1,4.90196E-1,4.58824E-1);
#53=COLOUR_RGB('',4.90196E-1,3.60784E-1,2.19608E-1);
#54=COLOUR_RGB('',4.9E-1,4.9E-1,0.E0);
#55=COLOUR_RGB('',4.9E-1,1.E0,0.E0);
#56=COLOUR_RGB('',5.E-1,0.E0,0.E0);
#57=COLOUR_RGB('',5.E-1,0.E0,2.3E-1);
#58=COLOUR_RGB('',5.E-1,5.E-1,5.E-1);
#59=COLOUR_RGB('',5.21569E-1,2.19608E-1,1.68627E-1);
#60=COLOUR_RGB('',5.3E-1,0.E0,0.E0);
#61=COLOUR_RGB('',5.29412E-1,5.80392E-1,6.5098E-1);
#62=COLOUR_RGB('',5.4E-1,0.E0,4.4E-1);
#63=COLOUR_RGB('',5.5E-1,3.E-1,0.E0);
#64=COLOUR_RGB('',5.6E-1,1.E-1,5.E-2);
#65=COLOUR_RGB('',5.60784E-1,5.80392E-1,6.19608E-1);
#66=COLOUR_RGB('',5.68627E-1,5.8824E-2,4.E-1);
#67=COLOUR_RGB('',5.8E-1,2.2E-1,1.E-2);
#68=COLOUR_RGB('',5.88235E-1,1.21569E-1,1.09804E-1);
#69=COLOUR_RGB('',6.E-1,6.E-1,6.E-1);
#70=COLOUR_RGB('',6.11765E-1,5.60784E-1,3.80392E-1);
#71=COLOUR_RGB('',6.11765E-1,6.11765E-1,6.5098E-1);
#72=COLOUR_RGB('',6.2E-1,0.E0,5.5E-1);
#73=COLOUR_RGB('',6.19608E-1,6.39216E-1,6.90196E-1);
#74=COLOUR_RGB('',6.35294E-1,6.86275E-1,7.4902E-1);
#75=COLOUR_RGB('',6.4E-1,0.E0,2.5E-1);
#76=COLOUR_RGB('',6.4E-1,1.E-2,0.E0);
#77=COLOUR_RGB('',6.39216E-1,5.4902E-1,4.78431E-1);
#78=COLOUR_RGB('',6.5098E-1,6.70588E-1,7.09804E-1);
#79=COLOUR_RGB('',6.70588E-1,1.21569E-1,1.09804E-1);
#80=COLOUR_RGB('',6.78431E-1,4.78431E-1,3.09804E-1);
#81=COLOUR_RGB('',6.8E-1,7.5E-1,1.E0);
#82=COLOUR_RGB('',7.09804E-1,7.0588E-2,2.E-1);
#83=COLOUR_RGB('',7.1E-1,3.1E-1,0.E0);
#84=COLOUR_RGB('',7.2E-1,7.2E-1,7.2E-1);
#85=COLOUR_RGB('',7.29412E-1,7.41176E-1,7.29412E-1);
#86=COLOUR_RGB('',7.41176E-1,7.29412E-1,6.70588E-1);
#87=COLOUR_RGB('',7.4E-1,1.E0,2.6E-1);
#88=COLOUR_RGB('',7.5E-1,3.E-2,0.E0);
#89=COLOUR_RGB('',7.4902E-1,8.90196E-1,7.29412E-1);
#90=COLOUR_RGB('',7.6E-1,0.E0,4.7E-1);
#91=COLOUR_RGB('',7.80392E-1,9.0196E-2,7.0588E-2);
#92=COLOUR_RGB('',7.88235E-1,2.19608E-1,5.4902E-1);
#93=COLOUR_RGB('',8.1E-1,4.E-2,0.E0);
#94=COLOUR_RGB('',8.1E-1,6.1E-1,0.E0);
#95=COLOUR_RGB('',8.2E-1,4.E-2,6.6E-1);
#96=COLOUR_RGB('',8.31373E-1,8.5098E-1,8.58824E-1);
#97=COLOUR_RGB('',8.5098E-1,7.29412E-1,5.4902E-1);
#98=COLOUR_RGB('',8.5E-1,8.5E-1,8.5E-1);
#99=COLOUR_RGB('',8.78431E-1,3.68627E-1,1.21569E-1);
#100=COLOUR_RGB('',8.784E-1,9.49E-1,1.E0);
#101=COLOUR_RGB('',8.90196E-1,5.88235E-1,1.41176E-1);
#102=COLOUR_RGB('',9.E-1,1.E0,0.E0);
#103=COLOUR_RGB('',9.09804E-1,6.11765E-1,7.09804E-1);
#104=COLOUR_RGB('',9.37E-1,7.85E-1,0.E0);
#105=COLOUR_RGB('',9.41176E-1,9.29412E-1,9.01961E-1);
#106=COLOUR_RGB('',9.5E-1,2.2E-1,8.1E-1);
#107=COLOUR_RGB('',9.6E-1,3.7E-1,3.E-1);
#108=COLOUR_RGB('',9.6E-1,7.1E-1,3.75E-1);
#109=COLOUR_RGB('',9.80392E-1,1.E0,1.E0);
#110=COLOUR_RGB('',9.88235E-1,1.09804E-1,7.8431E-2);
#111=COLOUR_RGB('',9.88235E-1,7.21569E-1,1.29412E-1);
#112=COLOUR_RGB('',9.88235E-1,9.21569E-1,8.E-1);
#113=DRAUGHTING_PRE_DEFINED_COLOUR('red');
#114=COLOUR_RGB('',1.E0,0.E0,6.1E-1);
#115=COLOUR_RGB('',1.E0,4.E-2,0.E0);
#116=COLOUR_RGB('',1.E0,2.3E-1,0.E0);
#117=COLOUR_RGB('',1.E0,3.5E-1,5.2E-1);
#118=COLOUR_RGB('',1.E0,3.6E-1,0.E0);
#119=COLOUR_RGB('',1.E0,3.88235E-1,2.11765E-1);
#120=COLOUR_RGB('',1.E0,4.9E-1,3.7E-1);
#121=COLOUR_RGB('',1.E0,5.E-1,0.E0);
#122=COLOUR_RGB('',1.E0,5.6E-1,7.8E-1);
#123=COLOUR_RGB('',1.E0,6.4E-1,4.9E-1);
#124=COLOUR_RGB('',1.E0,6.7E-1,0.E0);
#125=COLOUR_RGB('',1.E0,7.6E-1,6.5E-1);
#126=COLOUR_RGB('',1.E0,8.39216E-1,3.01961E-1);
#127=COLOUR_RGB('',1.E0,8.6E-1,4.E-2);
#128=COLOUR_RGB('',1.E0,9.60784E-1,2.58824E-1);
#129=COLOUR_RGB('',1.E0,9.60784E-1,8.90196E-1);
#130=COLOUR_RGB('',1.E0,9.8E-1,7.2E-1);
#131=DRAUGHTING_PRE_DEFINED_COLOUR('yellow');
#132=COLOUR_RGB('',1.E0,1.E0,3.9216E-2);
#133=DRAUGHTING_PRE_DEFINED_COLOUR('white');
#138=CIRCLE('',#137,2.E-2);
#163=CIRCLE('',#162,2.E-2);
#172=CIRCLE('',#171,2.E-2);
#197=CIRCLE('',#196,2.E-2);
#206=CIRCLE('',#205,2.E-2);
#239=CIRCLE('',#238,4.E-2);
#244=CIRCLE('',#243,4.E-2);
#277=CIRCLE('',#276,2.E-2);
#338=CIRCLE('',#337,2.E-2);
#367=CIRCLE('',#366,2.E-2);
#404=CIRCLE('',#403,2.E-2);
#413=CIRCLE('',#412,2.E-2);
#438=CIRCLE('',#437,2.E-2);
#447=CIRCLE('',#446,2.E-2);
#472=CIRCLE('',#471,2.E-2);
#481=CIRCLE('',#480,4.E-2);
#486=CIRCLE('',#485,4.E-2);
#495=CIRCLE('',#494,2.E-2);
#508=CIRCLE('',#507,4.E-2);
#517=CIRCLE('',#516,4.E-2);
#598=CIRCLE('',#597,4.E-2);
#607=CIRCLE('',#606,4.E-2);
#612=CIRCLE('',#611,2.E-2);
#617=CIRCLE('',#616,2.E-2);
#803=EDGE_CURVE('',#704,#707,#138,.T.);
#805=EDGE_CURVE('',#649,#704,#142,.T.);
#807=EDGE_CURVE('',#647,#649,#146,.T.);
#809=EDGE_CURVE('',#645,#647,#150,.T.);
#811=EDGE_CURVE('',#644,#645,#154,.T.);
#813=EDGE_CURVE('',#723,#644,#158,.T.);
#815=EDGE_CURVE('',#720,#723,#163,.T.);
#817=EDGE_CURVE('',#731,#720,#167,.T.);
#819=EDGE_CURVE('',#728,#731,#172,.T.);
#821=EDGE_CURVE('',#641,#728,#176,.T.);
#823=EDGE_CURVE('',#640,#641,#180,.T.);
#825=EDGE_CURVE('',#653,#640,#184,.T.);
#827=EDGE_CURVE('',#652,#653,#188,.T.);
#829=EDGE_CURVE('',#715,#652,#192,.T.);
#831=EDGE_CURVE('',#712,#715,#197,.T.);
#833=EDGE_CURVE('',#707,#712,#201,.T.);
#837=ADVANCED_FACE('',(#836),#802,.T.);
#843=EDGE_CURVE('',#704,#705,#210,.T.);
#846=EDGE_CURVE('',#707,#709,#252,.T.);
#848=EDGE_CURVE('',#709,#705,#206,.T.);
#852=ADVANCED_FACE('',(#851),#842,.T.);
#859=EDGE_CURVE('',#705,#697,#214,.T.);
#861=EDGE_CURVE('',#696,#697,#218,.T.);
#863=EDGE_CURVE('',#755,#696,#222,.T.);
#865=EDGE_CURVE('',#755,#753,#226,.T.);
#867=EDGE_CURVE('',#665,#753,#433,.T.);
#869=EDGE_CURVE('',#649,#665,#230,.T.);
#874=ADVANCED_FACE('',(#873),#857,.T.);
#880=EDGE_CURVE('',#709,#713,#260,.T.);
#882=EDGE_CURVE('',#717,#713,#277,.T.);
#884=EDGE_CURVE('',#717,#701,#297,.T.);
#886=EDGE_CURVE('',#701,#685,#234,.T.);
#888=EDGE_CURVE('',#685,#797,#585,.T.);
#890=EDGE_CURVE('',#795,#797,#239,.T.);
#892=EDGE_CURVE('',#785,#795,#633,.T.);
#894=EDGE_CURVE('',#784,#785,#244,.T.);
#896=EDGE_CURVE('',#677,#784,#549,.T.);
#898=EDGE_CURVE('',#677,#697,#248,.T.);
#904=ADVANCED_FACE('',(#903),#879,.T.);
#912=EDGE_CURVE('',#712,#713,#256,.T.);
#917=ADVANCED_FACE('',(#916),#909,.T.);
#923=EDGE_CURVE('',#757,#752,#264,.T.);
#925=EDGE_CURVE('',#757,#763,#268,.T.);
#927=EDGE_CURVE('',#763,#761,#272,.T.);
#929=EDGE_CURVE('',#752,#761,#442,.T.);
#933=ADVANCED_FACE('',(#932),#922,.T.);
#941=EDGE_CURVE('',#715,#717,#281,.T.);
#946=ADVANCED_FACE('',(#945),#938,.T.);
#954=EDGE_CURVE('',#652,#668,#301,.T.);
#956=EDGE_CURVE('',#760,#668,#451,.T.);
#958=EDGE_CURVE('',#765,#760,#285,.T.);
#960=EDGE_CURVE('',#765,#700,#289,.T.);
#962=EDGE_CURVE('',#700,#701,#293,.T.);
#967=ADVANCED_FACE('',(#966),#951,.T.);
#974=EDGE_CURVE('',#653,#669,#305,.T.);
#976=EDGE_CURVE('',#668,#669,#455,.T.);
#981=ADVANCED_FACE('',(#980),#972,.T.);
#988=EDGE_CURVE('',#640,#656,#309,.T.);
#990=EDGE_CURVE('',#669,#656,#459,.T.);
#995=ADVANCED_FACE('',(#994),#986,.T.);
#1002=EDGE_CURVE('',#641,#657,#333,.T.);
#1004=EDGE_CURVE('',#656,#657,#463,.T.);
#1009=ADVANCED_FACE('',(#1008),#1000,.T.);
#1015=EDGE_CURVE('',#728,#729,#313,.T.);
#1017=EDGE_CURVE('',#729,#688,#317,.T.);
#1019=EDGE_CURVE('',#688,#689,#321,.T.);
#1021=EDGE_CURVE('',#739,#689,#325,.T.);
#1023=EDGE_CURVE('',#739,#737,#329,.T.);
#1025=EDGE_CURVE('',#657,#737,#467,.T.);
#1031=ADVANCED_FACE('',(#1030),#1014,.T.);
#1039=EDGE_CURVE('',#731,#733,#350,.T.);
#1041=EDGE_CURVE('',#733,#729,#338,.T.);
#1045=ADVANCED_FACE('',(#1044),#1036,.T.);
#1051=EDGE_CURVE('',#720,#721,#342,.T.);
#1053=EDGE_CURVE('',#733,#721,#346,.T.);
#1059=ADVANCED_FACE('',(#1058),#1050,.T.);
#1065=EDGE_CURVE('',#741,#736,#354,.T.);
#1067=EDGE_CURVE('',#741,#747,#358,.T.);
#1069=EDGE_CURVE('',#747,#745,#362,.T.);
#1071=EDGE_CURVE('',#736,#745,#408,.T.);
#1075=ADVANCED_FACE('',(#1074),#1064,.T.);
#1083=EDGE_CURVE('',#723,#725,#371,.T.);
#1085=EDGE_CURVE('',#725,#721,#367,.T.);
#1089=ADVANCED_FACE('',(#1088),#1080,.T.);
#1097=EDGE_CURVE('',#644,#660,#391,.T.);
#1099=EDGE_CURVE('',#744,#660,#417,.T.);
#1101=EDGE_CURVE('',#749,#744,#375,.T.);
#1103=EDGE_CURVE('',#749,#693,#379,.T.);
#1105=EDGE_CURVE('',#692,#693,#383,.T.);
#1107=EDGE_CURVE('',#725,#692,#387,.T.);
#1111=ADVANCED_FACE('',(#1110),#1094,.T.);
#1118=EDGE_CURVE('',#645,#661,#395,.T.);
#1120=EDGE_CURVE('',#660,#661,#421,.T.);
#1125=ADVANCED_FACE('',(#1124),#1116,.T.);
#1132=EDGE_CURVE('',#647,#663,#399,.T.);
#1134=EDGE_CURVE('',#661,#663,#425,.T.);
#1139=ADVANCED_FACE('',(#1138),#1130,.T.);
#1147=EDGE_CURVE('',#663,#665,#429,.T.);
#1152=ADVANCED_FACE('',(#1151),#1144,.T.);
#1158=EDGE_CURVE('',#736,#737,#404,.T.);
#1161=EDGE_CURVE('',#744,#745,#413,.T.);
#1168=EDGE_CURVE('',#752,#753,#438,.T.);
#1171=EDGE_CURVE('',#760,#761,#447,.T.);
#1180=ADVANCED_FACE('',(#1179),#1157,.F.);
#1188=EDGE_CURVE('',#739,#741,#472,.T.);
#1193=ADVANCED_FACE('',(#1192),#1185,.T.);
#1200=EDGE_CURVE('',#747,#749,#495,.T.);
#1205=EDGE_CURVE('',#689,#681,#476,.T.);
#1207=EDGE_CURVE('',#681,#781,#569,.T.);
#1209=EDGE_CURVE('',#779,#781,#481,.T.);
#1211=EDGE_CURVE('',#769,#779,#557,.T.);
#1213=EDGE_CURVE('',#768,#769,#486,.T.);
#1215=EDGE_CURVE('',#673,#768,#533,.T.);
#1217=EDGE_CURVE('',#673,#693,#490,.T.);
#1221=ADVANCED_FACE('',(#1220),#1198,.T.);
#1233=ADVANCED_FACE('',(#1232),#1226,.T.);
#1240=EDGE_CURVE('',#688,#680,#499,.T.);
#1242=EDGE_CURVE('',#680,#681,#573,.T.);
#1247=ADVANCED_FACE('',(#1246),#1238,.T.);
#1255=EDGE_CURVE('',#672,#673,#529,.T.);
#1257=EDGE_CURVE('',#672,#692,#503,.T.);
#1261=ADVANCED_FACE('',(#1260),#1252,.T.);
#1273=EDGE_CURVE('',#773,#672,#525,.T.);
#1275=EDGE_CURVE('',#771,#773,#508,.T.);
#1277=EDGE_CURVE('',#771,#777,#512,.T.);
#1279=EDGE_CURVE('',#776,#777,#517,.T.);
#1281=EDGE_CURVE('',#776,#680,#577,.T.);
#1286=ADVANCED_FACE('',(#1285),#1266,.T.);
#1292=EDGE_CURVE('',#773,#768,#521,.T.);
#1299=ADVANCED_FACE('',(#1298),#1291,.F.);
#1305=EDGE_CURVE('',#789,#784,#537,.T.);
#1307=EDGE_CURVE('',#789,#676,#541,.T.);
#1309=EDGE_CURVE('',#676,#677,#545,.T.);
#1314=ADVANCED_FACE('',(#1313),#1304,.F.);
#1321=EDGE_CURVE('',#771,#769,#553,.T.);
#1327=ADVANCED_FACE('',(#1326),#1319,.T.);
#1335=EDGE_CURVE('',#779,#777,#561,.T.);
#1340=ADVANCED_FACE('',(#1339),#1332,.T.);
#1349=EDGE_CURVE('',#781,#776,#565,.T.);
#1353=ADVANCED_FACE('',(#1352),#1345,.T.);
#1365=ADVANCED_FACE('',(#1364),#1358,.T.);
#1371=EDGE_CURVE('',#797,#792,#581,.T.);
#1374=EDGE_CURVE('',#684,#685,#589,.T.);
#1376=EDGE_CURVE('',#792,#684,#593,.T.);
#1380=ADVANCED_FACE('',(#1379),#1370,.T.);
#1386=EDGE_CURVE('',#792,#793,#607,.T.);
#1388=EDGE_CURVE('',#795,#793,#637,.T.);
#1394=ADVANCED_FACE('',(#1393),#1385,.T.);
#1401=EDGE_CURVE('',#763,#765,#612,.T.);
#1404=EDGE_CURVE('',#755,#757,#617,.T.);
#1407=EDGE_CURVE('',#676,#696,#621,.T.);
#1410=EDGE_CURVE('',#787,#789,#598,.T.);
#1412=EDGE_CURVE('',#787,#793,#602,.T.);
#1416=EDGE_CURVE('',#700,#684,#625,.T.);
#1420=ADVANCED_FACE('',(#1419),#1399,.T.);
#1432=ADVANCED_FACE('',(#1431),#1425,.T.);
#1444=ADVANCED_FACE('',(#1443),#1437,.T.);
#1456=ADVANCED_FACE('',(#1455),#1449,.T.);
#1468=ADVANCED_FACE('',(#1467),#1461,.T.);
#1475=EDGE_CURVE('',#787,#785,#629,.T.);
#1481=ADVANCED_FACE('',(#1480),#1473,.T.);
#1493=ADVANCED_FACE('',(#1492),#1486,.T.);
#1496=(LENGTH_UNIT()NAMED_UNIT(*)SI_UNIT(.MILLI.,.METRE.));
#1497=(NAMED_UNIT(*)PLANE_ANGLE_UNIT()SI_UNIT($,.RADIAN.));
#1500=(NAMED_UNIT(*)SI_UNIT($,.STERADIAN.)SOLID_ANGLE_UNIT());
#1502=(GEOMETRIC_REPRESENTATION_CONTEXT(3)GLOBAL_UNCERTAINTY_ASSIGNED_CONTEXT((
#1501))GLOBAL_UNIT_ASSIGNED_CONTEXT((#1496,#1499,#1500))REPRESENTATION_CONTEXT(
'ID1','3'));
#1503=ADVANCED_BREP_SHAPE_REPRESENTATION('',(#1495),#1502);
#1510=PRODUCT_DEFINITION('part definition','',#1509,#1506);
#1511=PRODUCT_DEFINITION_SHAPE('','SHAPE FOR C-1-2176421-2.',#1510);
#1512=SHAPE_ASPECT('','solid data associated with C-1-2176421-2',#1511,.F.);
#1513=PROPERTY_DEFINITION('',
'shape for solid data with which properties are associated',#1512);
#1514=SHAPE_REPRESENTATION('',(#1495),#1502);
#1515=SHAPE_DEFINITION_REPRESENTATION(#1513,#1514);
#1516=(LENGTH_UNIT()NAMED_UNIT(*)SI_UNIT(.MILLI.,.METRE.));
#1520=PROPERTY_DEFINITION('geometric validation property',
'area of C-1-2176421-2',#1512);
#1521=REPRESENTATION('surface area',(#1519),#1502);
#1522=PROPERTY_DEFINITION_REPRESENTATION(#1520,#1521);
#1523=(LENGTH_UNIT()NAMED_UNIT(*)SI_UNIT(.MILLI.,.METRE.));
#1527=PROPERTY_DEFINITION('geometric validation property',
'volume of C-1-2176421-2',#1512);
#1528=REPRESENTATION('volume',(#1526),#1502);
#1529=PROPERTY_DEFINITION_REPRESENTATION(#1527,#1528);
#1531=PROPERTY_DEFINITION('geometric validation property',
'centroid of C-1-2176421-2',#1512);
#1532=REPRESENTATION('centroid',(#1530),#1502);
#1533=PROPERTY_DEFINITION_REPRESENTATION(#1531,#1532);
#1534=(LENGTH_UNIT()NAMED_UNIT(*)SI_UNIT(.MILLI.,.METRE.));
#1538=PROPERTY_DEFINITION('geometric validation property',
'area of C-1-2176421-2',#1511);
#1539=REPRESENTATION('surface area',(#1537),#1502);
#1540=PROPERTY_DEFINITION_REPRESENTATION(#1538,#1539);
#1541=(LENGTH_UNIT()NAMED_UNIT(*)SI_UNIT(.MILLI.,.METRE.));
#1545=PROPERTY_DEFINITION('geometric validation property',
'volume of C-1-2176421-2',#1511);
#1546=REPRESENTATION('volume',(#1544),#1502);
#1547=PROPERTY_DEFINITION_REPRESENTATION(#1545,#1546);
#1549=PROPERTY_DEFINITION('geometric validation property',
'centroid of C-1-2176421-2',#1511);
#1550=REPRESENTATION('centroid',(#1548),#1502);
#1551=PROPERTY_DEFINITION_REPRESENTATION(#1549,#1550);
#1552=SHAPE_DEFINITION_REPRESENTATION(#1511,#1503);
#1554=PROPERTY_DEFINITION('DESC','user defined attribute',#1510);
#1558=REPRESENTATION('',(#1557),#1502);
#1559=PROPERTY_DEFINITION_REPRESENTATION(#1554,#1558);
#1560=PROPERTY_DEFINITION('DOC_STATUS','user defined attribute',#1510);
#1564=REPRESENTATION('',(#1563),#1502);
#1565=PROPERTY_DEFINITION_REPRESENTATION(#1560,#1564);
#1566=PROPERTY_DEFINITION('DWG_TITLE','user defined attribute',#1510);
#1570=REPRESENTATION('',(#1569),#1502);
#1571=PROPERTY_DEFINITION_REPRESENTATION(#1566,#1570);
#1572=PROPERTY_DEFINITION('DWG_TITLE_2','user defined attribute',#1510);
#1576=REPRESENTATION('',(#1575),#1502);
#1577=PROPERTY_DEFINITION_REPRESENTATION(#1572,#1576);
#1578=PROPERTY_DEFINITION('PART_NO','user defined attribute',#1510);
#1582=REPRESENTATION('',(#1581),#1502);
#1583=PROPERTY_DEFINITION_REPRESENTATION(#1578,#1582);
#1584=PROPERTY_DEFINITION('MOD_NUM','user defined attribute',#1510);
#1588=REPRESENTATION('',(#1587),#1502);
#1589=PROPERTY_DEFINITION_REPRESENTATION(#1584,#1588);
#1590=PROPERTY_DEFINITION('PART_REV','user defined attribute',#1510);
#1594=REPRESENTATION('',(#1593),#1502);
#1595=PROPERTY_DEFINITION_REPRESENTATION(#1590,#1594);
#1596=PROPERTY_DEFINITION('COMMENTS','user defined attribute',#1510);
#1600=REPRESENTATION('',(#1599),#1502);
#1601=PROPERTY_DEFINITION_REPRESENTATION(#1596,#1600);
#1602=PROPERTY_DEFINITION('EXPORT_RESTRICTED','user defined attribute',#1510);
#1606=REPRESENTATION('',(#1605),#1502);
#1607=PROPERTY_DEFINITION_REPRESENTATION(#1602,#1606);
ENDSEC;
END-ISO-10303-21;
